solid line_w_1e_04
  facet normal 0.81298340922880219 0.58140366600255244 -0.0320585944405926
    outer loop
      vertex 0.58814977564157334 0.27971575977316565 -0.8499425224782382
      vertex 0.45390938699728567 0.46742275546309436 -0.84999472026830714
      vertex 0.51567967118930291 0.39569492885566843 -0.58437500000000009
    endloop
  endfacet
  facet normal 0.57417446367909708 0.81841410857817487 -0.022848022649954128
    outer loop
      vertex 0.45390938699728567 0.46742275546309436 -0.84999472026830714
      vertex 0.28599955097982649 0.58522319130652412 -0.8499947793915289
      vertex 0.39569492885566843 0.51567967118930291 -0.58437500000000009
    endloop
  endfacet
  facet normal 0.02507904792676709 0.99939298274862975 -0.024180723477264254
    outer loop
      vertex 0.12570137808310392 0.63913370621029153 -0.84998433744691781
      vertex -0.094508877305842912 0.64465947293074999 -0.84999472026830702
      vertex -2.1156593707312214e-16 0.65000000000000013 -0.53125
    endloop
  endfacet
  facet normal -0.28735320212662041 0.95729104334143511 -0.031968665374769931
    outer loop
      vertex -0.094508877305842912 0.64465947293074999 -0.84999472026830702
      vertex -0.27137133245579437 0.59157043577696267 -0.84998430205506115
      vertex -0.16823237931663843 0.62785178708789446 -0.69062500000000004
    endloop
  endfacet
  facet normal -0.56208807062500288 0.82628849973814755 -0.036115316162856903
    outer loop
      vertex -0.27137133245579437 0.59157043577696267 -0.84998430205506115
      vertex -0.44870885913843972 0.47093544135768028 -0.84998431125255858
      vertex -0.36188866266044056 0.54160465798092017 -0.58437500000000009
    endloop
  endfacet
  facet normal -0.89200725343579867 0.45192216492117665 -0.0094560388577649927
    outer loop
      vertex -0.53340426816631714 0.37324733852705722 -0.84999214441991422
      vertex -0.61754695814367344 0.20716583041406927 -0.84999477939152901
      vertex -0.56291651245987684 0.32500000000001422 -0.37187500000000001
    endloop
  endfacet
  facet normal -0.9966372820035212 -0.080706993038214145 -0.014160134016432567
    outer loop
      vertex -0.64932999092125898 0.050120312062230658 -0.84999737949904419
      vertex -0.63314314760550006 -0.14976925131256591 -0.84999214838566306
      vertex -0.6444391598929764 -0.084842024943035874 -0.42499999999999999
    endloop
  endfacet
  facet normal -0.99629790799414653 -0.084578481761114571 -0.015393471001440017
    outer loop
      vertex -0.64932999092125898 0.050120312062230658 -0.84999737949904419
      vertex -0.6444391598929764 -0.084842024943035874 -0.42499999999999999
      vertex -0.65000000000000002 -3.2451776645750756e-17 -0.53125
    endloop
  endfacet
  facet normal -0.66333989166379437 -0.74826817801965784 -0.0086557432151788856
    outer loop
      vertex -0.49458605234260916 -0.42370522727383442 -0.8499973794990443
      vertex -0.3607188108522279 -0.54237871488789924 -0.84998433744691815
      vertex -0.4596194077712471 -0.45961940777126481 -0.4250000000000001
    endloop
  endfacet
  facet normal -0.46082984137649996 -0.88748851107882509 -1.5097026067824407e-15
    outer loop
      vertex -0.3607188108522279 -0.54237871488789924 -0.84998433744691815
      vertex -0.24874423103730819 -0.60052169613233652 -0.84999999999999998
      vertex -0.2487442310373115 -0.60052169613233508 -0.69062500000000004
    endloop
  endfacet
  facet normal -0.30580145492257871 -0.95209530519125762 2.284635702260839e-15
    outer loop
      vertex -0.24874423103730819 -0.60052169613233652 -0.84999999999999998
      vertex -0.13444609705378743 -0.63723286934842038 -0.84999737949904419
      vertex -0.2487442310373115 -0.60052169613233508 -0.69062500000000004
    endloop
  endfacet
  facet normal -0.050009610706250984 -0.99744536781096571 -0.051007617759082254
    outer loop
      vertex -0.13444609705378743 -0.63723286934842038 -0.84999737949904419
      vertex 0.065846190418477585 -0.64727533029299078 -0.84999214838566317
      vertex -0.042602446215056447 -0.64998772394967963 -0.69062500000000004
    endloop
  endfacet
  facet normal 0.43186820259823938 -0.90187518142604228 -0.010536257035080312
    outer loop
      vertex 0.19595947469992611 -0.62083296730352955 -0.84999214441991411
      vertex 0.36305148089912687 -0.54082007459324699 -0.84998433744691793
      vertex 0.24874423103731333 -0.6005216961323343 -0.4250000000000001
    endloop
  endfacet
  facet normal 0.84893583856072763 -0.52754948641269717 -0.031614575639943493
    outer loop
      vertex 0.48463680445529528 -0.43505017016245123 -0.84999737949904408
      vertex 0.605545919001237 -0.24048264783536971 -0.84999472026830725
      vertex 0.56291651245988483 -0.32500000000000046 -0.58437499999999998
    endloop
  endfacet
  facet normal 0.82748184225573584 -0.56137924145047213 -0.011275992441734805
    outer loop
      vertex 0.48463680445529528 -0.43505017016245123 -0.84999737949904408
      vertex 0.56291651245988483 -0.32500000000000046 -0.58437499999999998
      vertex 0.51567967118930391 -0.39569492885566709 -0.53125
    endloop
  endfacet
  facet normal 0.98155414863079571 -0.17247202953098575 -0.082491528868946618
    outer loop
      vertex 0.605545919001237 -0.24048264783536971 -0.84999472026830725
      vertex 0.65165636000327498 0.021935277421564064 -0.84999299274095996
      vertex 0.63886625378225925 -0.12707839897879517 -0.69062500000000004
    endloop
  endfacet
  facet normal 0.9849871661371179 0.17233558228133408 -0.010036414943756599
    outer loop
      vertex 0.65165636000327498 0.021935277421564064 -0.84999299274095996
      vertex 0.62193053539487209 0.19183427667553829 -0.84998430205506137
      vertex 0.64443915989297673 0.084842024943033528 -0.47812499999999997
    endloop
  endfacet
  facet normal 0.84247103553817604 0.53871488914616361 -0.0053686582560088297
    outer loop
      vertex 0.58814977564157334 0.27971575977316565 -0.8499425224782382
      vertex 0.51567967118930291 0.39569492885566843 -0.58437500000000009
      vertex 0.56291651245987984 0.32500000000000884 -0.265625
    endloop
  endfacet
  facet normal 0.54452791106107423 0.83872606115931025 -0.0052866253557395165
    outer loop
      vertex 0.39569492885566843 0.51567967118930291 -0.58437500000000009
      vertex 0.28599955097982649 0.58522319130652412 -0.8499947793915289
      vertex 0.3250000000000004 0.56291651245988494 -0.37187500000000001
    endloop
  endfacet
  facet normal 0.4480577125454801 0.89398973829001793 0.0051608197660027947
    outer loop
      vertex 0.28599955097982649 0.58522319130652412 -0.8499947793915289
      vertex 0.24874423103730386 0.6005216961323383 -0.265625
      vertex 0.3250000000000004 0.56291651245988494 -0.37187500000000001
    endloop
  endfacet
  facet normal 0.31876578181099602 0.94782287638893914 -0.0044912515207221138
    outer loop
      vertex 0.28599955097982649 0.58522319130652412 -0.8499947793915289
      vertex 0.12570137808310392 0.63913370621029153 -0.84998433744691781
      vertex 0.24874423103730386 0.6005216961323383 -0.265625
    endloop
  endfacet
  facet normal -0.90453378972625387 0.42639842321974963 -0.0017343353690825807
    outer loop
      vertex -0.56291651245987684 0.32500000000001422 -0.37187500000000001
      vertex -0.61754695814367344 0.20716583041406927 -0.84999477939152901
      vertex -0.6157800902304813 0.21233388784729368 -0.50089285714285725
    endloop
  endfacet
  facet normal -0.98011990591483278 0.19835774244671417 -0.004379045665729585
    outer loop
      vertex -0.61754695814367344 0.20716583041406927 -0.84999477939152901
      vertex -0.64932999092125898 0.050120312062230658 -0.84999737949904419
      vertex -0.64443915989297751 0.084842024943029157 -0.37187500000000001
    endloop
  endfacet
  facet normal -0.97528998547089674 0.22092231658935096 0.0016656148932838379
    outer loop
      vertex -0.61754695814367344 0.20716583041406927 -0.84999477939152901
      vertex -0.64443915989297751 0.084842024943029157 -0.37187500000000001
      vertex -0.6157800902304813 0.21233388784729368 -0.50089285714285725
    endloop
  endfacet
  facet normal -0.99854417098551684 0.053568118177851211 0.0063241841948449892
    outer loop
      vertex -0.64932999092125898 0.050120312062230658 -0.84999737949904419
      vertex -0.65000000000000002 -3.2451776645750756e-17 -0.53125
      vertex -0.64443915989297751 0.084842024943029157 -0.37187500000000001
    endloop
  endfacet
  facet normal -0.93815083905218044 -0.34614237646265622 -0.0076458094715076176
    outer loop
      vertex -0.63314314760550006 -0.14976925131256591 -0.84999214838566306
      vertex -0.57754440001052143 -0.30045918359176466 -0.84997127922333504
      vertex -0.60052169613233908 -0.24874423103730173 -0.37187499999999996
    endloop
  endfacet
  facet normal -0.82956967305525253 -0.55839226978376333 -0.0034972264351044147
    outer loop
      vertex -0.57754440001052143 -0.30045918359176466 -0.84997127922333504
      vertex -0.49458605234260916 -0.42370522727383442 -0.8499973794990443
      vertex -0.51567967118930813 -0.39569492885566143 -0.31874999999999998
    endloop
  endfacet
  facet normal -0.74740247707107987 -0.66434997834179443 0.0053519664863579987
    outer loop
      vertex -0.49458605234260916 -0.42370522727383442 -0.8499973794990443
      vertex -0.4596194077712471 -0.45961940777126481 -0.4250000000000001
      vertex -0.51567967118930813 -0.39569492885566143 -0.31874999999999998
    endloop
  endfacet
  facet normal -0.31123306487484137 -0.95032387083101277 -0.0043034703871858314
    outer loop
      vertex -0.2487442310373115 -0.60052169613233508 -0.69062500000000004
      vertex -0.13444609705378743 -0.63723286934842038 -0.84999737949904419
      vertex -0.16823237931663843 -0.62785178708789446 -0.47812499999999997
    endloop
  endfacet
  facet normal -0.15583919063617455 -0.98772385157098008 0.010758238687186774
    outer loop
      vertex -0.13444609705378743 -0.63723286934842038 -0.84999737949904419
      vertex -0.042602446215056447 -0.64998772394967963 -0.69062500000000004
      vertex -0.16823237931663843 -0.62785178708789446 -0.47812499999999997
    endloop
  endfacet
  facet normal 0.656325830616037 -0.7544645771541646 -0.0044278534028114255
    outer loop
      vertex 0.36305148089912687 -0.54082007459324699 -0.84998433744691793
      vertex 0.48463680445529528 -0.43505017016245123 -0.84999737949904408
      vertex 0.45961940777124577 -0.45961940777126625 -0.37187499999999996
    endloop
  endfacet
  facet normal 0.75958814930843843 -0.65037362194699377 0.0063241841948478749
    outer loop
      vertex 0.48463680445529528 -0.43505017016245123 -0.84999737949904408
      vertex 0.51567967118930391 -0.39569492885566709 -0.53125
      vertex 0.45961940777124577 -0.45961940777126625 -0.37187499999999996
    endloop
  endfacet
  facet normal 0.99659350034584437 0.082292213040149956 0.0054209539171689381
    outer loop
      vertex 0.65165636000327498 0.021935277421564064 -0.84999299274095996
      vertex 0.64443915989297673 0.084842024943033528 -0.47812499999999997
      vertex 0.64999999999999991 4.9691766787343425e-16 -0.21249999999999999
    endloop
  endfacet
  facet normal 0.75522359666139793 0.65546581393128378 0.0013732491476838651
    outer loop
      vertex 0.51567967118930291 0.39569492885566843 -0.58437500000000009
      vertex 0.45390938699728567 0.46742275546309436 -0.84999472026830714
      vertex 0.45961940777125593 0.45961940777125571 -0.26562499999999994
    endloop
  endfacet
  facet normal 0.64848225166961493 0.76122014712966346 0.0038284296258088752
    outer loop
      vertex 0.45390938699728567 0.46742275546309436 -0.84999472026830714
      vertex 0.39569492885566843 0.51567967118930291 -0.58437500000000009
      vertex 0.45961940777125593 0.45961940777125571 -0.26562499999999994
    endloop
  endfacet
  facet normal 0.3249405475899948 0.9457158495537149 -0.0059306352787416939
    outer loop
      vertex 0.24874423103730386 0.6005216961323383 -0.265625
      vertex 0.12570137808310392 0.63913370621029153 -0.84998433744691781
      vertex 0.16823237931664242 0.62785178708789335 -0.31875000000000003
    endloop
  endfacet
  facet normal 0.19812293259594538 0.9801646600325884 0.0049540693155082803
    outer loop
      vertex 0.12570137808310392 0.63913370621029153 -0.84998433744691781
      vertex 0.084842024943027505 0.64443915989297773 -0.265625
      vertex 0.16823237931664242 0.62785178708789335 -0.31875000000000003
    endloop
  endfacet
  facet normal 0.07686349505104538 0.99703484255020214 -0.0036777533130433969
    outer loop
      vertex 0.12570137808310392 0.63913370621029153 -0.84998433744691781
      vertex -2.1156593707312214e-16 0.65000000000000013 -0.53125
      vertex 0.084842024943027505 0.64443915989297773 -0.265625
    endloop
  endfacet
  facet normal -0.060670282653505568 0.99815706014097294 0.0012649480123954689
    outer loop
      vertex -2.1156593707312214e-16 0.65000000000000013 -0.53125
      vertex -0.094508877305842912 0.64465947293074999 -0.84999472026830702
      vertex -0.084842024943036262 0.6444391598929764 -0.21249999999999999
    endloop
  endfacet
  facet normal -0.22227930108768215 0.97498303180515478 -6.2976600856356022e-16
    outer loop
      vertex -0.094508877305842912 0.64465947293074999 -0.84999472026830702
      vertex -0.16823237931663843 0.62785178708789446 -0.69062500000000004
      vertex -0.16823237931663593 0.62785178708789524 -0.37187499999999996
    endloop
  endfacet
  facet normal -0.20131998764087833 0.97951965866249147 0.0033912932625628734
    outer loop
      vertex -0.094508877305842912 0.64465947293074999 -0.84999472026830702
      vertex -0.16823237931663593 0.62785178708789524 -0.37187499999999996
      vertex -0.084842024943036262 0.6444391598929764 -0.21249999999999999
    endloop
  endfacet
  facet normal -0.33183881950151356 0.94333610016358549 3.0059466467631599e-16
    outer loop
      vertex -0.16823237931663843 0.62785178708789446 -0.69062500000000004
      vertex -0.27137133245579437 0.59157043577696267 -0.84998430205506115
      vertex -0.16823237931663593 0.62785178708789524 -0.37187499999999996
    endloop
  endfacet
  facet normal -0.75556309878332106 0.65507202453713176 -0.0022464251086684863
    outer loop
      vertex -0.44870885913843972 0.47093544135768028 -0.84998431125255858
      vertex -0.53340426816631714 0.37324733852705722 -0.84999214441991422
      vertex -0.51567967118929658 0.39569492885567675 -0.265625
    endloop
  endfacet
  facet normal -0.83431866082653738 0.5512670102345868 0.0041298454733019454
    outer loop
      vertex -0.53340426816631714 0.37324733852705722 -0.84999214441991422
      vertex -0.56291651245987684 0.32500000000001422 -0.37187500000000001
      vertex -0.51567967118929658 0.39569492885567675 -0.265625
    endloop
  endfacet
  facet normal -0.9811925426355399 -0.19300153871978062 0.0034059254544675922
    outer loop
      vertex -0.6444391598929764 -0.084842024943035874 -0.42499999999999999
      vertex -0.63314314760550006 -0.14976925131256591 -0.84999214838566306
      vertex -0.62785178708789524 -0.16823237931663593 -0.37187499999999996
    endloop
  endfacet
  facet normal -0.94692836029262584 -0.32143886473983968 -0.0019330567197653247
    outer loop
      vertex -0.63314314760550006 -0.14976925131256591 -0.84999214838566306
      vertex -0.60052169613233908 -0.24874423103730173 -0.37187499999999996
      vertex -0.62785178708789524 -0.16823237931663593 -0.37187499999999996
    endloop
  endfacet
  facet normal -0.65453421215508545 -0.75601519592253252 -0.0050979067014042517
    outer loop
      vertex -0.4596194077712471 -0.45961940777126481 -0.4250000000000001
      vertex -0.3607188108522279 -0.54237871488789924 -0.84998433744691815
      vertex -0.3956949288556692 -0.51567967118930225 -0.31874999999999998
    endloop
  endfacet
  facet normal -0.56046081881047705 -0.82816747850373873 0.0047220892673532772
    outer loop
      vertex -0.3607188108522279 -0.54237871488789924 -0.84998433744691815
      vertex -0.32500000000000484 -0.5629165124598825 -0.21249999999999999
      vertex -0.3956949288556692 -0.51567967118930225 -0.31874999999999998
    endloop
  endfacet
  facet normal -0.46082984137650179 -0.8874885110788242 -4.852615521800844e-17
    outer loop
      vertex -0.3607188108522279 -0.54237871488789924 -0.84998433744691815
      vertex -0.2487442310373115 -0.60052169613233508 -0.69062500000000004
      vertex -0.24874423103731111 -0.6005216961323353 -0.26562499999999994
    endloop
  endfacet
  facet normal -0.44449926280566543 -0.89577049335763914 -0.0039533017885893945
    outer loop
      vertex -0.3607188108522279 -0.54237871488789924 -0.84998433744691815
      vertex -0.24874423103731111 -0.6005216961323353 -0.26562499999999994
      vertex -0.32500000000000484 -0.5629165124598825 -0.21249999999999999
    endloop
  endfacet
  facet normal -0.3214394653031642 -0.9469301294951048 -2.0083859553971537e-16
    outer loop
      vertex -0.2487442310373115 -0.60052169613233508 -0.69062500000000004
      vertex -0.16823237931663843 -0.62785178708789446 -0.47812499999999997
      vertex -0.24874423103731111 -0.6005216961323353 -0.26562499999999994
    endloop
  endfacet
  facet normal -0.1735264568557697 -0.98482920791936446 2.1757952801569515e-16
    outer loop
      vertex -0.16823237931663843 -0.62785178708789446 -0.47812499999999997
      vertex -0.042602446215056447 -0.64998772394967963 -0.69062500000000004
      vertex -0.042602446215054851 -0.64998772394967985 -0.42499999999999999
    endloop
  endfacet
  facet normal 0.031200495641473699 -0.99950423551416845 0.0042204574354207589
    outer loop
      vertex -0.042602446215056447 -0.64998772394967963 -0.69062500000000004
      vertex 0.065846190418477585 -0.64727533029299078 -0.84999214838566317
      vertex 0.084842024943022884 -0.64443915989297829 -0.31874999999999998
    endloop
  endfacet
  facet normal 0.043495907465249999 -0.99905360518531472 -1.0964764804068693e-15
    outer loop
      vertex -0.042602446215056447 -0.64998772394967963 -0.69062500000000004
      vertex 0.084842024943022884 -0.64443915989297829 -0.31874999999999998
      vertex -0.042602446215054851 -0.64998772394967985 -0.42499999999999999
    endloop
  endfacet
  facet normal 0.19915415747448523 -0.97996542549672072 -0.0023208601119125401
    outer loop
      vertex 0.065846190418477585 -0.64727533029299078 -0.84999214838566317
      vertex 0.19595947469992611 -0.62083296730352955 -0.84999214441991411
      vertex 0.16823237931663959 -0.62785178708789402 -0.265625
    endloop
  endfacet
  facet normal 0.19618065109910987 -0.98056615486137311 -0.001779908624339626
    outer loop
      vertex 0.065846190418477585 -0.64727533029299078 -0.84999214838566317
      vertex 0.16823237931663959 -0.62785178708789402 -0.265625
      vertex 0.084842024943022884 -0.64443915989297829 -0.31874999999999998
    endloop
  endfacet
  facet normal 0.32900251138249753 -0.94431939977799029 0.0042683377262737422
    outer loop
      vertex 0.19595947469992611 -0.62083296730352955 -0.84999214441991411
      vertex 0.24874423103731333 -0.6005216961323343 -0.4250000000000001
      vertex 0.16823237931663959 -0.62785178708789402 -0.265625
    endloop
  endfacet
  facet normal 0.44980333844301407 -0.8931163808813245 -0.0044818441477048852
    outer loop
      vertex 0.24874423103731333 -0.6005216961323343 -0.4250000000000001
      vertex 0.36305148089912687 -0.54082007459324699 -0.84998433744691793
      vertex 0.32499999999999862 -0.56291651245988594 -0.26562500000000006
    endloop
  endfacet
  facet normal 0.55814253964608329 -0.82973020187168689 0.004969661898944407
    outer loop
      vertex 0.36305148089912687 -0.54082007459324699 -0.84998433744691793
      vertex 0.39569492885566482 -0.5156796711893058 -0.31874999999999998
      vertex 0.32499999999999862 -0.56291651245988594 -0.26562500000000006
    endloop
  endfacet
  facet normal 0.6571242350780121 -0.75376758966269797 -0.0047074884199520281
    outer loop
      vertex 0.36305148089912687 -0.54082007459324699 -0.84998433744691793
      vertex 0.45961940777124577 -0.45961940777126625 -0.37187499999999996
      vertex 0.39569492885566482 -0.5156796711893058 -0.31874999999999998
    endloop
  endfacet
  facet normal 0.89430734986988814 -0.44745171103360337 0.0011533697577861661
    outer loop
      vertex 0.56291651245988483 -0.32500000000000046 -0.58437499999999998
      vertex 0.605545919001237 -0.24048264783536971 -0.84999472026830725
      vertex 0.60052169613233652 -0.24874423103730822 -0.15937500000000002
    endloop
  endfacet
  facet normal 0.96017158899220645 -0.27940435653695223 -0.0019300881723388118
    outer loop
      vertex 0.605545919001237 -0.24048264783536971 -0.84999472026830725
      vertex 0.63886625378225925 -0.12707839897879517 -0.69062500000000004
      vertex 0.6278517870878938 -0.16823237931664067 -0.21249999999999997
    endloop
  endfacet
  facet normal 0.94754047704989797 -0.31962105774521921 0.0030698204961850579
    outer loop
      vertex 0.605545919001237 -0.24048264783536971 -0.84999472026830725
      vertex 0.6278517870878938 -0.16823237931664067 -0.21249999999999997
      vertex 0.60052169613233652 -0.24874423103730822 -0.15937500000000002
    endloop
  endfacet
  facet normal 0.98150837824176984 -0.19132058252278697 0.0061431379890545387
    outer loop
      vertex 0.63886625378225925 -0.12707839897879517 -0.69062500000000004
      vertex 0.64443915989297629 -0.084842024943036276 -0.265625
      vertex 0.6278517870878938 -0.16823237931664067 -0.21249999999999997
    endloop
  endfacet
  facet normal 0.99630306768064925 -0.085907289600078526 -0.00036731960999137096
    outer loop
      vertex 0.63886625378225925 -0.12707839897879517 -0.69062500000000004
      vertex 0.65165636000327498 0.021935277421564064 -0.84999299274095996
      vertex 0.64999999999999991 4.9691766787343425e-16 -0.21249999999999999
    endloop
  endfacet
  facet normal 0.99811172434381401 -0.061021752371050578 -0.0070236361654419004
    outer loop
      vertex 0.63886625378225925 -0.12707839897879517 -0.69062500000000004
      vertex 0.64999999999999991 4.9691766787343425e-16 -0.21249999999999999
      vertex 0.64443915989297629 -0.084842024943036276 -0.265625
    endloop
  endfacet
  facet normal 0.97964231059321849 0.20074505033515302 -0.0015388507129521555
    outer loop
      vertex 0.64443915989297673 0.084842024943033528 -0.47812499999999997
      vertex 0.62193053539487209 0.19183427667553829 -0.84998430205506137
      vertex 0.62785178708789402 0.16823237931663981 -0.15937499999999999
    endloop
  endfacet
  facet normal 0.93340830113766038 0.35879075464339116 0.0042588437084046821
    outer loop
      vertex 0.62193053539487209 0.19183427667553829 -0.84998430205506137
      vertex 0.58814977564157334 0.27971575977316565 -0.8499425224782382
      vertex 0.62785178708789402 0.16823237931663981 -0.15937499999999999
    endloop
  endfacet
  facet normal -0.32456331758182078 0.94586233199102454 -0.0017611929999347999
    outer loop
      vertex -0.16823237931663593 0.62785178708789524 -0.37187499999999996
      vertex -0.27137133245579437 0.59157043577696267 -0.84998430205506115
      vertex -0.24874423103731921 0.60052169613233186 -0.21249999999999997
    endloop
  endfacet
  facet normal -0.47326697555362002 0.8809079144433275 0.0044290090806587074
    outer loop
      vertex -0.27137133245579437 0.59157043577696267 -0.84998430205506115
      vertex -0.36188866266044056 0.54160465798092017 -0.58437500000000009
      vertex -0.24874423103731921 0.60052169613233186 -0.21249999999999997
    endloop
  endfacet
  facet normal -0.63604196105506972 0.77165010681173107 0.0025954642485146685
    outer loop
      vertex -0.36188866266044056 0.54160465798092017 -0.58437500000000009
      vertex -0.44870885913843972 0.47093544135768028 -0.84998431125255858
      vertex -0.45961940777126326 0.4596194077712486 -0.15937500000000002
    endloop
  endfacet
  facet normal -0.75097817914146925 0.66032619482079813 -0.001044455288057499
    outer loop
      vertex -0.44870885913843972 0.47093544135768028 -0.84998431125255858
      vertex -0.51567967118929658 0.39569492885567675 -0.265625
      vertex -0.45961940777126326 0.4596194077712486 -0.15937500000000002
    endloop
  endfacet
  facet normal 0.94524924232439 0.32634508539564672 -0.0016598564018693901
    outer loop
      vertex 0.62785178708789402 0.16823237931663981 -0.15937499999999999
      vertex 0.58814977564157334 0.27971575977316565 -0.8499425224782382
      vertex 0.60052169613234174 0.24874423103729545 0.10625
    endloop
  endfacet
  facet normal 0.8905713518070284 0.45483224084257073 0.003209366094381961
    outer loop
      vertex 0.58814977564157334 0.27971575977316565 -0.8499425224782382
      vertex 0.56291651245987984 0.32500000000000884 -0.265625
      vertex 0.60052169613234174 0.24874423103729545 0.10625
    endloop
  endfacet
  facet normal 0.83146961230254024 0.55557023301960962 9.2172353000029017e-16
    outer loop
      vertex 0.56291651245987984 0.32500000000000884 -0.265625
      vertex 0.51567967118930291 0.39569492885566843 -0.58437500000000009
      vertex 0.51567967118929992 0.39569492885567203 -0.053124999999999999
    endloop
  endfacet
  facet normal 0.75183980747897561 0.65934581510007084 -2.3595539928614417e-16
    outer loop
      vertex 0.51567967118930291 0.39569492885566843 -0.58437500000000009
      vertex 0.45961940777125593 0.45961940777125571 -0.26562499999999994
      vertex 0.51567967118929992 0.39569492885567203 -0.053124999999999999
    endloop
  endfacet
  facet normal 0.65934581510007473 0.75183980747897228 -1.573133909375509e-15
    outer loop
      vertex 0.45961940777125593 0.45961940777125571 -0.26562499999999994
      vertex 0.39569492885566843 0.51567967118930291 -0.58437500000000009
      vertex 0.39569492885568286 0.5156796711892917 0.10625
    endloop
  endfacet
  facet normal 0.5555702330196064 0.83146961230254246 1.8895775723414274e-15
    outer loop
      vertex 0.39569492885566843 0.51567967118930291 -0.58437500000000009
      vertex 0.3250000000000004 0.56291651245988494 -0.37187500000000001
      vertex 0.39569492885568286 0.5156796711892917 0.10625
    endloop
  endfacet
  facet normal -0.4481769295476547 0.89392935436306142 -0.0052677537221115234
    outer loop
      vertex -0.24874423103731921 0.60052169613233186 -0.21249999999999997
      vertex -0.36188866266044056 0.54160465798092017 -0.58437500000000009
      vertex -0.32500000000000806 0.56291651245988039 -0.10625000000000001
    endloop
  endfacet
  facet normal -0.55556088210327614 0.83145561766729104 0.0058019071117401746
    outer loop
      vertex -0.36188866266044056 0.54160465798092017 -0.58437500000000009
      vertex -0.39569492885565832 0.51567967118931057 -0.10624999999999998
      vertex -0.32500000000000806 0.56291651245988039 -0.10625000000000001
    endloop
  endfacet
  facet normal -0.65672682946466843 0.75410816441125184 -0.0055450725492649242
    outer loop
      vertex -0.36188866266044056 0.54160465798092017 -0.58437500000000009
      vertex -0.45961940777126326 0.4596194077712486 -0.15937500000000002
      vertex -0.39569492885565832 0.51567967118931057 -0.10624999999999998
    endloop
  endfacet
  facet normal -0.97692267536556043 0.21350832657826602 -0.0060233577300703349
    outer loop
      vertex -0.6157800902304813 0.21233388784729368 -0.50089285714285725
      vertex -0.64443915989297751 0.084842024943029157 -0.37187500000000001
      vertex -0.6278517870878938 0.16823237931664009 -0.10624999999999997
    endloop
  endfacet
  facet normal -0.90383067002029804 -0.42788085383919749 0.0028451447236311281
    outer loop
      vertex -0.60052169613233908 -0.24874423103730173 -0.37187499999999996
      vertex -0.57754440001052143 -0.30045918359176466 -0.84997127922333504
      vertex -0.56291651245988727 -0.32499999999999635 0.10625
    endloop
  endfacet
  facet normal -0.83516903879741899 -0.54999171213279519 -0.0013391114337469299
    outer loop
      vertex -0.57754440001052143 -0.30045918359176466 -0.84997127922333504
      vertex -0.51567967118930813 -0.39569492885566143 -0.31874999999999998
      vertex -0.56291651245988727 -0.32499999999999635 0.10625
    endloop
  endfacet
  facet normal 0.83146961230254535 -0.55557023301960207 -2.0642766557297306e-15
    outer loop
      vertex 0.51567967118930391 -0.39569492885566709 -0.53125
      vertex 0.56291651245988483 -0.32500000000000046 -0.58437499999999998
      vertex 0.56291651245987628 -0.32500000000001522 -0.053124999999999999
    endloop
  endfacet
  facet normal 0.89687274153268304 -0.44228869021901218 2.1389019285423031e-15
    outer loop
      vertex 0.56291651245988483 -0.32500000000000046 -0.58437499999999998
      vertex 0.60052169613233652 -0.24874423103730822 -0.15937500000000002
      vertex 0.56291651245987628 -0.32500000000001522 -0.053124999999999999
    endloop
  endfacet
  facet normal 0.99785892323860337 0.065403129230145671 9.1119904257830674e-16
    outer loop
      vertex 0.64999999999999991 4.9691766787343425e-16 -0.21249999999999999
      vertex 0.64443915989297673 0.084842024943033528 -0.47812499999999997
      vertex 0.64443915989297562 0.084842024943040842 0.21250000000000002
    endloop
  endfacet
  facet normal 0.98078528040322988 0.19509032201613086 -4.8929743655959413e-16
    outer loop
      vertex 0.64443915989297673 0.084842024943033528 -0.47812499999999997
      vertex 0.62785178708789402 0.16823237931663981 -0.15937499999999999
      vertex 0.64443915989297562 0.084842024943040842 0.21250000000000002
    endloop
  endfacet
  facet normal 0.065403129230137844 0.99785892323860381 -1.2001608463545222e-17
    outer loop
      vertex 0.084842024943027505 0.64443915989297773 -0.265625
      vertex -2.1156593707312214e-16 0.65000000000000013 -0.53125
      vertex -8.0482483306509141e-17 0.65000000000000013 0.15937499999999999
    endloop
  endfacet
  facet normal -0.065403129230146961 0.99785892323860326 1.2413781815937424e-17
    outer loop
      vertex -2.1156593707312214e-16 0.65000000000000013 -0.53125
      vertex -0.084842024943036262 0.6444391598929764 -0.21249999999999999
      vertex -8.0482483306509141e-17 0.65000000000000013 0.15937499999999999
    endloop
  endfacet
  facet normal -0.90411867108614552 0.42727310823499709 -0.0026682527291279809
    outer loop
      vertex -0.56291651245987684 0.32500000000001422 -0.37187500000000001
      vertex -0.6157800902304813 0.21233388784729368 -0.50089285714285725
      vertex -0.60052169613233697 0.24874423103730678 0.15937499999999999
    endloop
  endfacet
  facet normal -0.95192733473633795 0.30628132676707032 0.0051086451800300544
    outer loop
      vertex -0.6157800902304813 0.21233388784729368 -0.50089285714285725
      vertex -0.6278517870878938 0.16823237931664009 -0.10624999999999997
      vertex -0.60052169613233697 0.24874423103730678 0.15937499999999999
    endloop
  endfacet
  facet normal -0.9978589232386037 0.065403129230138024 -2.5717732421882177e-17
    outer loop
      vertex -0.64443915989297751 0.084842024943029157 -0.37187500000000001
      vertex -0.65000000000000002 -3.2451776645750756e-17 -0.53125
      vertex -0.65000000000000002 2.6455648461193466e-16 0.21250000000000002
    endloop
  endfacet
  facet normal -0.99785892323860348 -0.065403129230145865 2.611800967187539e-17
    outer loop
      vertex -0.65000000000000002 -3.2451776645750756e-17 -0.53125
      vertex -0.6444391598929764 -0.084842024943035874 -0.42499999999999999
      vertex -0.65000000000000002 2.6455648461193466e-16 0.21250000000000002
    endloop
  endfacet
  facet normal -0.32143946530316353 -0.94693012949510502 7.385605208334666e-17
    outer loop
      vertex -0.24874423103731111 -0.6005216961323353 -0.26562499999999994
      vertex -0.16823237931663843 -0.62785178708789446 -0.47812499999999997
      vertex -0.16823237931663565 -0.62785178708789535 0.21249999999999999
    endloop
  endfacet
  facet normal -0.17225489245166756 -0.98504753927119149 -0.003097967436060028
    outer loop
      vertex -0.16823237931663843 -0.62785178708789446 -0.47812499999999997
      vertex -0.042602446215054851 -0.64998772394967985 -0.42499999999999999
      vertex -0.084842024943029518 -0.64443915989297729 0.15937499999999999
    endloop
  endfacet
  facet normal -0.19509032201612089 -0.98078528040323198 -4.7728926979779626e-16
    outer loop
      vertex -0.16823237931663843 -0.62785178708789446 -0.47812499999999997
      vertex -0.084842024943029518 -0.64443915989297729 0.15937499999999999
      vertex -0.16823237931663565 -0.62785178708789535 0.21249999999999999
    endloop
  endfacet
  facet normal -0.068233210457015331 -0.99765906582904884 0.0045406342991075165
    outer loop
      vertex -0.042602446215054851 -0.64998772394967985 -0.42499999999999999
      vertex 2.8285725557564169e-16 -0.65000000000000002 0.21249999999999999
      vertex -0.084842024943029518 -0.64443915989297729 0.15937499999999999
    endloop
  endfacet
  facet normal 0.046073638741498744 -0.9989332414486044 -0.0030982159547530896
    outer loop
      vertex -0.042602446215054851 -0.64998772394967985 -0.42499999999999999
      vertex 0.084842024943022884 -0.64443915989297829 -0.31874999999999998
      vertex 2.8285725557564169e-16 -0.65000000000000002 0.21249999999999999
    endloop
  endfacet
  facet normal 0.75183980747897106 -0.65934581510007606 -7.2378931041670897e-16
    outer loop
      vertex 0.45961940777124577 -0.45961940777126625 -0.37187499999999996
      vertex 0.51567967118930391 -0.39569492885566709 -0.53125
      vertex 0.51567967118929903 -0.39569492885567342 0.15937499999999999
    endloop
  endfacet
  facet normal 0.83146961230253635 -0.55557023301961539 7.9046427068157755e-16
    outer loop
      vertex 0.51567967118930391 -0.39569492885566709 -0.53125
      vertex 0.56291651245987628 -0.32500000000001522 -0.053124999999999999
      vertex 0.51567967118929903 -0.39569492885567342 0.15937499999999999
    endloop
  endfacet
  facet normal -0.195090322016128 0.98078528040323054 9.0012063476586569e-16
    outer loop
      vertex -0.084842024943036262 0.6444391598929764 -0.21249999999999999
      vertex -0.16823237931663593 0.62785178708789524 -0.37187499999999996
      vertex -0.16823237931664359 0.62785178708789313 0.265625
    endloop
  endfacet
  facet normal -0.32143946530317158 0.94693012949510225 -7.2929037893862058e-16
    outer loop
      vertex -0.16823237931663593 0.62785178708789524 -0.37187499999999996
      vertex -0.24874423103731921 0.60052169613233186 -0.21249999999999997
      vertex -0.16823237931664359 0.62785178708789313 0.265625
    endloop
  endfacet
  facet normal -0.9807852804032311 -0.19509032201612492 9.0012063476588956e-16
    outer loop
      vertex -0.6444391598929764 -0.084842024943035874 -0.42499999999999999
      vertex -0.62785178708789524 -0.16823237931663593 -0.37187499999999996
      vertex -0.62785178708789313 -0.16823237931664359 0.265625
    endloop
  endfacet
  facet normal -0.94693012949510735 -0.32143946530315676 -7.2929037893842623e-16
    outer loop
      vertex -0.62785178708789524 -0.16823237931663593 -0.37187499999999996
      vertex -0.60052169613233908 -0.24874423103730173 -0.37187499999999996
      vertex -0.62785178708789313 -0.16823237931664359 0.265625
    endloop
  endfacet
  facet normal 0.55557023301961184 0.83146961230253891 7.2809758012150024e-16
    outer loop
      vertex 0.39569492885568286 0.5156796711892917 0.10625
      vertex 0.3250000000000004 0.56291651245988494 -0.37187500000000001
      vertex 0.3249999999999949 0.56291651245988805 0.265625
    endloop
  endfacet
  facet normal 0.44228869021899758 0.89687274153269003 -5.6062285046530507e-16
    outer loop
      vertex 0.3250000000000004 0.56291651245988494 -0.37187500000000001
      vertex 0.24874423103730386 0.6005216961323383 -0.265625
      vertex 0.3249999999999949 0.56291651245988805 0.265625
    endloop
  endfacet
  facet normal 0.3214394653031602 0.94693012949510602 8.2047359678056767e-16
    outer loop
      vertex 0.24874423103730386 0.6005216961323383 -0.265625
      vertex 0.16823237931664242 0.62785178708789335 -0.31875000000000003
      vertex 0.1682323793166344 0.62785178708789557 0.26562499999999994
    endloop
  endfacet
  facet normal 0.1950903220161278 0.98078528040323054 -1.0487971451310569e-15
    outer loop
      vertex 0.16823237931664242 0.62785178708789335 -0.31875000000000003
      vertex 0.084842024943027505 0.64443915989297773 -0.265625
      vertex 0.1682323793166344 0.62785178708789557 0.26562499999999994
    endloop
  endfacet
  facet normal -0.98078528040323021 0.19509032201612983 1.1078407812501827e-17
    outer loop
      vertex -0.6278517870878938 0.16823237931664009 -0.10624999999999997
      vertex -0.64443915989297751 0.084842024943029157 -0.37187500000000001
      vertex -0.64443915989297706 0.084842024943031349 0.31875000000000009
    endloop
  endfacet
  facet normal -0.9978589232386037 0.065403129230141174 4.3399755634973691e-16
    outer loop
      vertex -0.64443915989297751 0.084842024943029157 -0.37187500000000001
      vertex -0.65000000000000002 2.6455648461193466e-16 0.21250000000000002
      vertex -0.64443915989297706 0.084842024943031349 0.31875000000000009
    endloop
  endfacet
  facet normal -0.99785892323860359 -0.065403129230141993 -4.8929634505220598e-16
    outer loop
      vertex -0.65000000000000002 2.6455648461193466e-16 0.21250000000000002
      vertex -0.6444391598929764 -0.084842024943035874 -0.42499999999999999
      vertex -0.64443915989297706 -0.084842024943030878 0.265625
    endloop
  endfacet
  facet normal -0.98078528040323054 -0.19509032201612841 4.6528537616944671e-16
    outer loop
      vertex -0.6444391598929764 -0.084842024943035874 -0.42499999999999999
      vertex -0.62785178708789313 -0.16823237931664359 0.265625
      vertex -0.64443915989297706 -0.084842024943030878 0.265625
    endloop
  endfacet
  facet normal -0.94693012949510647 -0.32143946530315926 -3.7666586562514837e-16
    outer loop
      vertex -0.62785178708789313 -0.16823237931664359 0.265625
      vertex -0.60052169613233908 -0.24874423103730173 -0.37187499999999996
      vertex -0.60052169613233997 -0.24874423103729992 0.31874999999999998
    endloop
  endfacet
  facet normal -0.89687274153269259 -0.44228869021899242 1.9627189843557388e-18
    outer loop
      vertex -0.60052169613233908 -0.24874423103730173 -0.37187499999999996
      vertex -0.56291651245988727 -0.32499999999999635 0.10625
      vertex -0.60052169613233997 -0.24874423103729992 0.31874999999999998
    endloop
  endfacet
  facet normal -0.75183980747897661 -0.65934581510006984 1.6248331458332983e-16
    outer loop
      vertex -0.51567967118930813 -0.39569492885566143 -0.31874999999999998
      vertex -0.4596194077712471 -0.45961940777126481 -0.4250000000000001
      vertex -0.45961940777124749 -0.4596194077712642 0.265625
    endloop
  endfacet
  facet normal -0.65934581510006418 -0.7518398074789816 3.0724117666680186e-15
    outer loop
      vertex -0.4596194077712471 -0.45961940777126481 -0.4250000000000001
      vertex -0.3956949288556692 -0.51567967118930225 -0.31874999999999998
      vertex -0.39569492885564889 -0.51567967118931768 0.26562499999999994
    endloop
  endfacet
  facet normal -0.65934581510004719 -0.75183980747899626 2.9376739766313108e-16
    outer loop
      vertex -0.4596194077712471 -0.45961940777126481 -0.4250000000000001
      vertex -0.39569492885564889 -0.51567967118931768 0.26562499999999994
      vertex -0.45961940777124749 -0.4596194077712642 0.265625
    endloop
  endfacet
  facet normal -0.55557023301960506 -0.83146961230254335 -2.6417225564459759e-15
    outer loop
      vertex -0.3956949288556692 -0.51567967118930225 -0.31874999999999998
      vertex -0.32500000000000484 -0.5629165124598825 -0.21249999999999999
      vertex -0.39569492885564889 -0.51567967118931768 0.26562499999999994
    endloop
  endfacet
  facet normal 0.065403129230132931 -0.99785892323860403 -1.5929407597069825e-16
    outer loop
      vertex 2.8285725557564169e-16 -0.65000000000000002 0.21249999999999999
      vertex 0.084842024943022884 -0.64443915989297829 -0.31874999999999998
      vertex 0.084842024943024313 -0.64443915989297829 0.265625
    endloop
  endfacet
  facet normal 0.19509032201612347 -0.98078528040323143 -4.7720124150877321e-16
    outer loop
      vertex 0.084842024943022884 -0.64443915989297829 -0.31874999999999998
      vertex 0.16823237931663959 -0.62785178708789402 -0.265625
      vertex 0.084842024943024313 -0.64443915989297829 0.265625
    endloop
  endfacet
  facet normal 0.32143946530316403 -0.9469301294951048 -1.0287092968752121e-15
    outer loop
      vertex 0.16823237931663959 -0.62785178708789402 -0.265625
      vertex 0.24874423103731333 -0.6005216961323343 -0.4250000000000001
      vertex 0.24874423103730262 -0.60052169613233874 0.31874999999999992
    endloop
  endfacet
  facet normal 0.44228869021900175 -0.89687274153268814 1.0159490719958682e-15
    outer loop
      vertex 0.24874423103731333 -0.6005216961323343 -0.4250000000000001
      vertex 0.32499999999999862 -0.56291651245988594 -0.26562500000000006
      vertex 0.24874423103730262 -0.60052169613233874 0.31874999999999992
    endloop
  endfacet
  facet normal 0.5555702330195964 -0.83146961230254912 -1.3441801479170383e-15
    outer loop
      vertex 0.32499999999999862 -0.56291651245988594 -0.26562500000000006
      vertex 0.39569492885566482 -0.5156796711893058 -0.31874999999999998
      vertex 0.39569492885565444 -0.51567967118931368 0.265625
    endloop
  endfacet
  facet normal 0.6593458151000583 -0.75183980747898671 1.514049067708833e-15
    outer loop
      vertex 0.39569492885566482 -0.5156796711893058 -0.31874999999999998
      vertex 0.45961940777124577 -0.45961940777126625 -0.37187499999999996
      vertex 0.45961940777125526 -0.45961940777125654 0.31874999999999998
    endloop
  endfacet
  facet normal 0.65934581510005796 -0.75183980747898704 1.5708328054061823e-15
    outer loop
      vertex 0.39569492885566482 -0.5156796711893058 -0.31874999999999998
      vertex 0.45961940777125526 -0.45961940777125654 0.31874999999999998
      vertex 0.39569492885565444 -0.51567967118931368 0.265625
    endloop
  endfacet
  facet normal 0.75183980747897239 -0.65934581510007451 -1.0593106632308243e-15
    outer loop
      vertex 0.45961940777124577 -0.45961940777126625 -0.37187499999999996
      vertex 0.51567967118929903 -0.39569492885567342 0.15937499999999999
      vertex 0.45961940777125526 -0.45961940777125654 0.31874999999999998
    endloop
  endfacet
  facet normal 0.75183980747897527 0.65934581510007118 0
    outer loop
      vertex 0.51567967118929992 0.39569492885567203 -0.053124999999999999
      vertex 0.45961940777125593 0.45961940777125571 -0.26562499999999994
      vertex 0.45961940777125432 0.45961940777125754 0.31875000000000003
    endloop
  endfacet
  facet normal 0.65934581510007806 0.75183980747896928 -5.404765176256255e-16
    outer loop
      vertex 0.45961940777125593 0.45961940777125571 -0.26562499999999994
      vertex 0.39569492885568286 0.5156796711892917 0.10625
      vertex 0.45961940777125432 0.45961940777125754 0.31875000000000003
    endloop
  endfacet
  facet normal 0.19509032201612067 0.98078528040323187 1.1346975274623358e-16
    outer loop
      vertex 0.1682323793166344 0.62785178708789557 0.26562499999999994
      vertex 0.084842024943027505 0.64443915989297773 -0.265625
      vertex 0.084842024943026048 0.64443915989297795 0.31874999999999998
    endloop
  endfacet
  facet normal 0.065403129230136817 0.99785892323860381 -2.160699237510636e-16
    outer loop
      vertex 0.084842024943027505 0.64443915989297773 -0.265625
      vertex -8.0482483306509141e-17 0.65000000000000013 0.15937499999999999
      vertex 0.084842024943026048 0.64443915989297795 0.31874999999999998
    endloop
  endfacet
  facet normal -0.32143946530316997 0.94693012949510269 -1.0369389712502554e-15
    outer loop
      vertex -0.16823237931664359 0.62785178708789313 0.265625
      vertex -0.24874423103731921 0.60052169613233186 -0.21249999999999997
      vertex -0.24874423103731078 0.6005216961323353 0.31874999999999998
    endloop
  endfacet
  facet normal -0.44228869021901485 0.89687274153268148 1.2143771936546073e-15
    outer loop
      vertex -0.24874423103731921 0.60052169613233186 -0.21249999999999997
      vertex -0.32500000000000806 0.56291651245988039 -0.10625000000000001
      vertex -0.24874423103731078 0.6005216961323353 0.31874999999999998
    endloop
  endfacet
  facet normal -0.74751120154269612 0.66422867917050032 -0.0052216219325989651
    outer loop
      vertex -0.45961940777126326 0.4596194077712486 -0.15937500000000002
      vertex -0.51567967118929658 0.39569492885567675 -0.265625
      vertex -0.48973520590663544 0.42948624867902013 0.31874999999999998
    endloop
  endfacet
  facet normal -0.8314696123025348 0.55557023301961772 1.7725452500005206e-16
    outer loop
      vertex -0.51567967118929658 0.39569492885567675 -0.265625
      vertex -0.56291651245987684 0.32500000000001422 -0.37187500000000001
      vertex -0.56291651245987784 0.3250000000000125 0.31875000000000003
    endloop
  endfacet
  facet normal -0.81907697299458415 0.57367475442212224 0.0031919349534618364
    outer loop
      vertex -0.51567967118929658 0.39569492885567675 -0.265625
      vertex -0.56291651245987784 0.3250000000000125 0.31875000000000003
      vertex -0.48973520590663544 0.42948624867902013 0.31874999999999998
    endloop
  endfacet
  facet normal -0.89687274153268393 0.44228869021901035 -1.9554071390139371e-16
    outer loop
      vertex -0.56291651245987684 0.32500000000001422 -0.37187500000000001
      vertex -0.60052169613233697 0.24874423103730678 0.15937499999999999
      vertex -0.56291651245987784 0.3250000000000125 0.31875000000000003
    endloop
  endfacet
  facet normal -0.8314696123025509 -0.55557023301959374 -2.8803860312508357e-16
    outer loop
      vertex -0.56291651245988727 -0.32499999999999635 0.10625
      vertex -0.51567967118930813 -0.39569492885566143 -0.31874999999999998
      vertex -0.51567967118930902 -0.39569492885566043 0.31875000000000003
    endloop
  endfacet
  facet normal -0.75183980747897572 -0.65934581510007084 -1.4037768582615395e-17
    outer loop
      vertex -0.51567967118930813 -0.39569492885566143 -0.31874999999999998
      vertex -0.45961940777124749 -0.4596194077712642 0.265625
      vertex -0.51567967118930902 -0.39569492885566043 0.31875000000000003
    endloop
  endfacet
  facet normal -0.44228869021900569 -0.89687274153268615 5.6734876373116907e-16
    outer loop
      vertex -0.32500000000000484 -0.5629165124598825 -0.21249999999999999
      vertex -0.24874423103731111 -0.6005216961323353 -0.26562499999999994
      vertex -0.24874423103730608 -0.60052169613233741 0.31874999999999998
    endloop
  endfacet
  facet normal -0.3214394653031597 -0.94693012949510635 -6.5478919359709182e-16
    outer loop
      vertex -0.24874423103731111 -0.6005216961323353 -0.26562499999999994
      vertex -0.16823237931663565 -0.62785178708789535 0.21249999999999999
      vertex -0.24874423103730608 -0.60052169613233741 0.31874999999999998
    endloop
  endfacet
  facet normal 0.19509032201612217 -0.98078528040323165 -6.8954695899631895e-16
    outer loop
      vertex 0.084842024943024313 -0.64443915989297829 0.265625
      vertex 0.16823237931663959 -0.62785178708789402 -0.265625
      vertex 0.16823237931663496 -0.62785178708789535 0.31874999999999998
    endloop
  endfacet
  facet normal 0.32143946530315481 -0.94693012949510791 3.9078636891453222e-16
    outer loop
      vertex 0.16823237931663959 -0.62785178708789402 -0.265625
      vertex 0.24874423103730262 -0.60052169613233874 0.31874999999999992
      vertex 0.16823237931663496 -0.62785178708789535 0.31874999999999998
    endloop
  endfacet
  facet normal 0.44228869021899481 -0.89687274153269159 -9.601286770835178e-17
    outer loop
      vertex 0.24874423103730262 -0.60052169613233874 0.31874999999999992
      vertex 0.32499999999999862 -0.56291651245988594 -0.26562500000000006
      vertex 0.32499999999999718 -0.56291651245988672 0.31874999999999998
    endloop
  endfacet
  facet normal 0.55557023301958797 -0.83146961230255467 2.6638242283637888e-16
    outer loop
      vertex 0.32499999999999862 -0.56291651245988594 -0.26562500000000006
      vertex 0.39569492885565444 -0.51567967118931368 0.265625
      vertex 0.32499999999999718 -0.56291651245988672 0.31874999999999998
    endloop
  endfacet
  facet normal 0.98019363671212667 -0.19798503779629109 -0.0047285682671159967
    outer loop
      vertex 0.6278517870878938 -0.16823237931664067 -0.21249999999999997
      vertex 0.64443915989297629 -0.084842024943036276 -0.265625
      vertex 0.63932196307923439 -0.12469729721163827 0.34236111111111101
    endloop
  endfacet
  facet normal 0.99768675236952886 -0.067864230399786826 0.0039484653458086907
    outer loop
      vertex 0.64443915989297629 -0.084842024943036276 -0.265625
      vertex 0.64999999999999991 4.9691766787343425e-16 -0.21249999999999999
      vertex 0.63932196307923439 -0.12469729721163827 0.34236111111111101
    endloop
  endfacet
  facet normal 0.99785892323860292 0.06540312923015093 -1.4259289600816225e-16
    outer loop
      vertex 0.64999999999999991 4.9691766787343425e-16 -0.21249999999999999
      vertex 0.64443915989297562 0.084842024943040842 0.21250000000000002
      vertex 0.65000000000000002 7.7107913980360551e-17 0.37187499999999996
    endloop
  endfacet
  facet normal 0.98078528040322921 0.19509032201613458 3.8885211421885269e-16
    outer loop
      vertex 0.64443915989297562 0.084842024943040842 0.21250000000000002
      vertex 0.62785178708789402 0.16823237931663981 -0.15937499999999999
      vertex 0.62785178708789302 0.16823237931664378 0.37187500000000001
    endloop
  endfacet
  facet normal 0.94693012949510835 0.32143946530315404 -6.2048974463208326e-16
    outer loop
      vertex 0.62785178708789402 0.16823237931663981 -0.15937499999999999
      vertex 0.60052169613234174 0.24874423103729545 0.10625
      vertex 0.62785178708789302 0.16823237931664378 0.37187500000000001
    endloop
  endfacet
  facet normal 0.89687274153268615 0.44228869021900563 1.3072521218748044e-15
    outer loop
      vertex 0.60052169613234174 0.24874423103729545 0.10625
      vertex 0.56291651245987984 0.32500000000000884 -0.265625
      vertex 0.56291651245987262 0.32500000000002144 0.42500000000000004
    endloop
  endfacet
  facet normal 0.83146961230253702 0.55557023301961461 -1.4486867851026326e-15
    outer loop
      vertex 0.56291651245987984 0.32500000000000884 -0.265625
      vertex 0.51567967118929992 0.39569492885567203 -0.053124999999999999
      vertex 0.56291651245987262 0.32500000000002144 0.42500000000000004
    endloop
  endfacet
  facet normal 0.44228869021899425 0.89687274153269181 2.9542420833340775e-17
    outer loop
      vertex 0.3249999999999949 0.56291651245988805 0.265625
      vertex 0.24874423103730386 0.6005216961323383 -0.265625
      vertex 0.24874423103730517 0.60052169613233763 0.42499999999999993
    endloop
  endfacet
  facet normal 0.32143946530315715 0.94693012949510724 3.0618718173799312e-16
    outer loop
      vertex 0.24874423103730386 0.6005216961323383 -0.265625
      vertex 0.1682323793166344 0.62785178708789557 0.26562499999999994
      vertex 0.24874423103730517 0.60052169613233763 0.42499999999999993
    endloop
  endfacet
  facet normal -0.065403129230142895 0.99785892323860348 -9.1866857511859938e-16
    outer loop
      vertex -8.0482483306509141e-17 0.65000000000000013 0.15937499999999999
      vertex -0.084842024943036262 0.6444391598929764 -0.21249999999999999
      vertex -0.084842024943029226 0.6444391598929774 0.37187499999999996
    endloop
  endfacet
  facet normal -0.19509032201612925 0.9807852804032301 6.7193435778345711e-16
    outer loop
      vertex -0.084842024943036262 0.6444391598929764 -0.21249999999999999
      vertex -0.16823237931664359 0.62785178708789313 0.265625
      vertex -0.084842024943029226 0.6444391598929774 0.37187499999999996
    endloop
  endfacet
  facet normal -0.44228869021900813 0.89687274153268504 -3.072411766667194e-16
    outer loop
      vertex -0.24874423103731078 0.6005216961323353 0.31874999999999998
      vertex -0.32500000000000806 0.56291651245988039 -0.10625000000000001
      vertex -0.32500000000000595 0.56291651245988161 0.42499999999999993
    endloop
  endfacet
  facet normal -0.55557023301959974 0.83146961230254701 0
    outer loop
      vertex -0.32500000000000806 0.56291651245988039 -0.10625000000000001
      vertex -0.39569492885565832 0.51567967118931057 -0.10624999999999998
      vertex -0.39569492885565832 0.51567967118931057 0.42499999999999993
    endloop
  endfacet
  facet normal -0.55557023301959818 0.83146961230254812 2.9459701440016022e-16
    outer loop
      vertex -0.32500000000000806 0.56291651245988039 -0.10625000000000001
      vertex -0.39569492885565832 0.51567967118931057 0.42499999999999993
      vertex -0.32500000000000595 0.56291651245988161 0.42499999999999993
    endloop
  endfacet
  facet normal -0.66193661214679944 0.74953930762171583 0.0055450725492680319
    outer loop
      vertex -0.39569492885565832 0.51567967118931057 -0.10624999999999998
      vertex -0.45961940777126326 0.4596194077712486 -0.15937500000000002
      vertex -0.48973520590663544 0.42948624867902013 0.31874999999999998
    endloop
  endfacet
  facet normal -0.67568132787285784 0.73719383011794903 0
    outer loop
      vertex -0.39569492885565832 0.51567967118931057 -0.10624999999999998
      vertex -0.48973520590663544 0.42948624867902013 0.31874999999999998
      vertex -0.39569492885565832 0.51567967118931057 0.42499999999999993
    endloop
  endfacet
  facet normal -0.94693012949510535 0.32143946530316259 -6.6248878718768865e-16
    outer loop
      vertex -0.60052169613233697 0.24874423103730678 0.15937499999999999
      vertex -0.6278517870878938 0.16823237931664009 -0.10624999999999997
      vertex -0.62785178708789313 0.16823237931664314 0.42500000000000004
    endloop
  endfacet
  facet normal -0.98078528040322999 0.1950903220161303 1.0861436236177476e-16
    outer loop
      vertex -0.6278517870878938 0.16823237931664009 -0.10624999999999997
      vertex -0.64443915989297706 0.084842024943031349 0.31875000000000009
      vertex -0.62785178708789313 0.16823237931664314 0.42500000000000004
    endloop
  endfacet
  facet normal -0.55557023301958253 -0.83146961230255834 2.1908390722546963e-15
    outer loop
      vertex -0.39569492885564889 -0.51567967118931768 0.26562499999999994
      vertex -0.32500000000000484 -0.5629165124598825 -0.21249999999999999
      vertex -0.32499999999998991 -0.56291651245989094 0.37187499999999996
    endloop
  endfacet
  facet normal -0.44228869021899331 -0.89687274153269225 -1.6480220913724276e-15
    outer loop
      vertex -0.32500000000000484 -0.5629165124598825 -0.21249999999999999
      vertex -0.24874423103730608 -0.60052169613233741 0.31874999999999998
      vertex -0.32499999999998991 -0.56291651245989094 0.37187499999999996
    endloop
  endfacet
  facet normal 0.94799036271232096 -0.31825366766817342 0.0053735668152635942
    outer loop
      vertex 0.60052169613233652 -0.24874423103730822 -0.15937500000000002
      vertex 0.6278517870878938 -0.16823237931664067 -0.21249999999999997
      vertex 0.63932196307923439 -0.12469729721163827 0.34236111111111101
    endloop
  endfacet
  facet normal 0.9963536503587328 -0.085319419927869733 -2.490487708209494e-16
    outer loop
      vertex 0.63932196307923439 -0.12469729721163827 0.34236111111111101
      vertex 0.64999999999999991 4.9691766787343425e-16 -0.21249999999999999
      vertex 0.65000000000000002 7.7107913980360551e-17 0.37187499999999996
    endloop
  endfacet
  facet normal 0.83146961230253524 0.55557023301961705 -9.1212224322963472e-16
    outer loop
      vertex 0.56291651245987262 0.32500000000002144 0.42500000000000004
      vertex 0.51567967118929992 0.39569492885567203 -0.053124999999999999
      vertex 0.51567967118930291 0.39569492885566843 0.47812499999999997
    endloop
  endfacet
  facet normal 0.75183980747897594 0.65934581510007051 2.3595539928614067e-16
    outer loop
      vertex 0.51567967118929992 0.39569492885567203 -0.053124999999999999
      vertex 0.45961940777125432 0.45961940777125754 0.31875000000000003
      vertex 0.51567967118930291 0.39569492885566843 0.47812499999999997
    endloop
  endfacet
  facet normal 0.83860587692470068 -0.54471383625372671 0.0051980555116022276
    outer loop
      vertex 0.51567967118929903 -0.39569492885567342 0.15937499999999999
      vertex 0.56291651245987628 -0.32500000000001522 -0.053124999999999999
      vertex 0.58556500949416712 -0.28527954554910295 0.45535714285714279
    endloop
  endfacet
  facet normal 0.89416304208100361 -0.44771519539642068 -0.0048536571356305189
    outer loop
      vertex 0.56291651245987628 -0.32500000000001522 -0.053124999999999999
      vertex 0.60052169613233652 -0.24874423103730822 -0.15937500000000002
      vertex 0.58556500949416712 -0.28527954554910295 0.45535714285714279
    endloop
  endfacet
  facet normal 0.94919316430167822 -0.31466337447551995 0.0043929041243812748
    outer loop
      vertex 0.60052169613233652 -0.24874423103730822 -0.15937500000000002
      vertex 0.63932196307923439 -0.12469729721163827 0.34236111111111101
      vertex 0.58556500949416712 -0.28527954554910295 0.45535714285714279
    endloop
  endfacet
  facet normal -0.81908105717529034 0.57367761494859404 -0.00046463265218767087
    outer loop
      vertex -0.48973520590663544 0.42948624867902013 0.31874999999999998
      vertex -0.56291651245987784 0.3250000000000125 0.31875000000000003
      vertex -0.49132582064351454 0.42764546355278399 0.84997650383563428
    endloop
  endfacet
  facet normal 0.99839558497408831 0.056419922052687171 -0.0048008644864094034
    outer loop
      vertex 0.65000000000000002 7.7107913980360551e-17 0.37187499999999996
      vertex 0.64443915989297562 0.084842024943040842 0.21250000000000002
      vertex 0.65031555574045785 0.035099547628944565 0.84998955747060068
    endloop
  endfacet
  facet normal 0.98308117465966716 0.18305374362177765 0.0065368934381410254
    outer loop
      vertex 0.64443915989297562 0.084842024943040842 0.21250000000000002
      vertex 0.62785178708789302 0.16823237931664378 0.37187500000000001
      vertex 0.61725850651499303 0.20804967435921354 0.84998433744691804
    endloop
  endfacet
  facet normal 0.95140596887257312 0.30790560952800394 -0.0045626762792142436
    outer loop
      vertex 0.62785178708789302 0.16823237931664378 0.37187500000000001
      vertex 0.60052169613234174 0.24874423103729545 0.10625
      vertex 0.61725850651499303 0.20804967435921354 0.84998433744691804
    endloop
  endfacet
  facet normal 0.90225371421857459 0.43119301448242353 0.0032892917698632588
    outer loop
      vertex 0.60052169613234174 0.24874423103729545 0.10625
      vertex 0.56291651245987262 0.32500000000002144 0.42500000000000004
      vertex 0.61725850651499303 0.20804967435921354 0.84998433744691804
    endloop
  endfacet
  facet normal 0.74648179236656031 0.66539188443616937 0.0043097322064162332
    outer loop
      vertex 0.51567967118930291 0.39569492885566843 0.47812499999999997
      vertex 0.45961940777125432 0.45961940777125754 0.31875000000000003
      vertex 0.43053671016443013 0.4888055565016462 0.84998433744691804
    endloop
  endfacet
  facet normal 0.66750314744507067 0.74459417908965264 -0.0043653884970784743
    outer loop
      vertex 0.45961940777125432 0.45961940777125754 0.31875000000000003
      vertex 0.39569492885568286 0.5156796711892917 0.10625
      vertex 0.43053671016443013 0.4888055565016462 0.84998433744691804
    endloop
  endfacet
  facet normal 0.56150368473730872 0.82746542485268826 0.003818730127295185
    outer loop
      vertex 0.39569492885568286 0.5156796711892917 0.10625
      vertex 0.3249999999999949 0.56291651245988805 0.265625
      vertex 0.29476067796222233 0.58073956556190309 0.84998955747060068
    endloop
  endfacet
  facet normal 0.56066346496624353 0.82803570053966002 0.0036548165262080151
    outer loop
      vertex 0.39569492885568286 0.5156796711892917 0.10625
      vertex 0.29476067796222233 0.58073956556190309 0.84998955747060068
      vertex 0.43053671016443013 0.4888055565016462 0.84998433744691804
    endloop
  endfacet
  facet normal 0.43380383000186429 0.90099329416767904 -0.0050319917118046937
    outer loop
      vertex 0.3249999999999949 0.56291651245988805 0.265625
      vertex 0.24874423103730517 0.60052169613233763 0.42499999999999993
      vertex 0.29476067796222233 0.58073956556190309 0.84998955747060068
    endloop
  endfacet
  facet normal 0.32143946391707828 0.94693012996561754 7.8089364949746493e-10
    outer loop
      vertex 0.24874423103730517 0.60052169613233763 0.42499999999999993
      vertex 0.1682323793166344 0.62785178708789557 0.26562499999999994
      vertex 0.16823237782611219 0.62785178711196299 0.84998433710153676
    endloop
  endfacet
  facet normal 0.19826471239197446 0.98013479163486472 0.0051859470695350181
    outer loop
      vertex 0.1682323793166344 0.62785178708789557 0.26562499999999994
      vertex 0.084842024943026048 0.64443915989297795 0.31874999999999998
      vertex 0.044001768043584494 0.64988966392391034 0.84998433744691804
    endloop
  endfacet
  facet normal 0.17466788211804682 0.98462740717308705 4.0497157438369123e-10
    outer loop
      vertex 0.1682323793166344 0.62785178708789557 0.26562499999999994
      vertex 0.044001768043584494 0.64988966392391034 0.84998433744691804
      vertex 0.16823237782611219 0.62785178711196299 0.84998433710153676
    endloop
  endfacet
  facet normal 0.073910320454160225 0.99725451296189083 -0.0045498249972176601
    outer loop
      vertex 0.084842024943026048 0.64443915989297795 0.31874999999999998
      vertex -8.0482483306509141e-17 0.65000000000000013 0.15937499999999999
      vertex 0.044001768043584494 0.64988966392391034 0.84998433744691804
    endloop
  endfacet
  facet normal -0.052749017744497667 0.99859492339985689 0.005071497512998885
    outer loop
      vertex -8.0482483306509141e-17 0.65000000000000013 0.15937499999999999
      vertex -0.084842024943029226 0.6444391598929774 0.37187499999999996
      vertex -0.11968247936553005 0.64017060570967843 0.84998955747060057
    endloop
  endfacet
  facet normal -0.059271891439648637 0.99823411638795612 0.0039359578659940711
    outer loop
      vertex -8.0482483306509141e-17 0.65000000000000013 0.15937499999999999
      vertex -0.11968247936553005 0.64017060570967843 0.84998955747060057
      vertex 0.044001768043584494 0.64988966392391034 0.84998433744691804
    endloop
  endfacet
  facet normal -0.1889532374316916 0.98197334605421438 -0.005002169846464225
    outer loop
      vertex -0.084842024943029226 0.6444391598929774 0.37187499999999996
      vertex -0.16823237931664359 0.62785178708789313 0.265625
      vertex -0.11968247936553005 0.64017060570967843 0.84998955747060057
    endloop
  endfacet
  facet normal -0.32143946479493868 0.94693012966762413 8.5898568703570975e-10
    outer loop
      vertex -0.16823237931664359 0.62785178708789313 0.265625
      vertex -0.24874423103731078 0.6005216961323353 0.31874999999999998
      vertex -0.24874423223447681 0.6005216952440553 0.84998433710153676
    endloop
  endfacet
  facet normal -0.44228868965532131 0.89687274181066445 5.0294400981280706e-10
    outer loop
      vertex -0.24874423103731078 0.6005216961323353 0.31874999999999998
      vertex -0.32500000000000595 0.56291651245988161 0.42499999999999993
      vertex -0.24874423223447681 0.6005216952440553 0.84998433710153676
    endloop
  endfacet
  facet normal -0.67600619200258061 0.73689575122236162 0.00052934355719365443
    outer loop
      vertex -0.39569492885565832 0.51567967118931057 0.42499999999999993
      vertex -0.48973520590663544 0.42948624867902013 0.31874999999999998
      vertex -0.49132582064351454 0.42764546355278399 0.84997650383563428
    endloop
  endfacet
  facet normal -0.83187057265321496 0.55494824663656628 0.0048779000208009661
    outer loop
      vertex -0.49132582064351454 0.42764546355278399 0.84997650383563428
      vertex -0.56291651245987784 0.3250000000000125 0.31875000000000003
      vertex -0.58358101126488826 0.28935434013877315 0.84998433744691793
    endloop
  endfacet
  facet normal -0.89305877811139345 0.44991701227079611 -0.004549824997219086
    outer loop
      vertex -0.56291651245987784 0.3250000000000125 0.31875000000000003
      vertex -0.60052169613233697 0.24874423103730678 0.15937499999999999
      vertex -0.58358101126488826 0.28935434013877315 0.84998433744691793
    endloop
  endfacet
  facet normal -0.94323910895151719 0.33209479868419584 0.0036094364174415194
    outer loop
      vertex -0.60052169613233697 0.24874423103730678 0.15937499999999999
      vertex -0.62785178708789313 0.16823237931664314 0.42500000000000004
      vertex -0.58358101126488826 0.28935434013877315 0.84998433744691793
    endloop
  endfacet
  facet normal -0.99766136345038969 -0.068202836060494973 -0.0044918850847594114
    outer loop
      vertex -0.65000000000000002 2.6455648461193466e-16 0.21250000000000002
      vertex -0.64443915989297706 -0.084842024943030878 0.265625
      vertex -0.64970816306651802 -0.046254443869254161 0.84998955400417653
    endloop
  endfacet
  facet normal -0.98077728010150933 -0.19508873065717328 0.0040390601949571326
    outer loop
      vertex -0.64443915989297706 -0.084842024943030878 0.265625
      vertex -0.62785178708789313 -0.16823237931664359 0.265625
      vertex -0.64970816306651802 -0.046254443869254161 0.84998955400417653
    endloop
  endfacet
  facet normal -0.896872740854462 -0.44228869159430806 6.1355643026001804e-10
    outer loop
      vertex -0.60052169613233997 -0.24874423103729992 0.31874999999999998
      vertex -0.56291651245988727 -0.32499999999999635 0.10625
      vertex -0.56291651142294297 -0.32500000107098032 0.84998433710153665
    endloop
  endfacet
  facet normal -0.83985204983905382 -0.54278089774691196 0.0061181224404034326
    outer loop
      vertex -0.56291651245988727 -0.32499999999999635 0.10625
      vertex -0.51567967118930902 -0.39569492885566043 0.31875000000000003
      vertex -0.49065533695145369 -0.42842743981583387 0.84998433744691793
    endloop
  endfacet
  facet normal -0.81974556045537661 -0.5727278726530608 3.1818905157303786e-10
    outer loop
      vertex -0.56291651245988727 -0.32499999999999635 0.10625
      vertex -0.49065533695145369 -0.42842743981583387 0.84998433744691793
      vertex -0.56291651142294297 -0.32500000107098032 0.84998433710153665
    endloop
  endfacet
  facet normal -0.75387427233587667 -0.65699991169760641 -0.0049696618989463004
    outer loop
      vertex -0.51567967118930902 -0.39569492885566043 0.31875000000000003
      vertex -0.45961940777124749 -0.4596194077712642 0.265625
      vertex -0.49065533695145369 -0.42842743981583387 0.84998433744691793
    endloop
  endfacet
  facet normal -0.65933917913386042 -0.75183224060979648 0.0044865174401016918
    outer loop
      vertex -0.45961940777124749 -0.4596194077712642 0.265625
      vertex -0.39569492885564889 -0.51567967118931768 0.26562499999999994
      vertex -0.36305148089912576 -0.54082007459324788 0.84998433744691815
    endloop
  endfacet
  facet normal -0.66095526838831076 -0.75040896666832579 0.0049513567344425967
    outer loop
      vertex -0.45961940777124749 -0.4596194077712642 0.265625
      vertex -0.36305148089912576 -0.54082007459324788 0.84998433744691815
      vertex -0.49065533695145369 -0.42842743981583387 0.84998433744691793
    endloop
  endfacet
  facet normal -0.55015557870228549 -0.83504603154478307 -0.0051927279981276771
    outer loop
      vertex -0.39569492885564889 -0.51567967118931768 0.26562499999999994
      vertex -0.32499999999998991 -0.56291651245989094 0.37187499999999996
      vertex -0.36305148089912576 -0.54082007459324788 0.84998433744691815
    endloop
  endfacet
  facet normal -0.44027806247947848 -0.89785433390202496 0.0035808927193327015
    outer loop
      vertex -0.32499999999998991 -0.56291651245989094 0.37187499999999996
      vertex -0.24874423103730608 -0.60052169613233741 0.31874999999999998
      vertex -0.21643723533637904 -0.61424524698341965 0.84998955747060057
    endloop
  endfacet
  facet normal -0.44778237594125092 -0.89412449995730281 0.0056852768192452328
    outer loop
      vertex -0.32499999999998991 -0.56291651245989094 0.37187499999999996
      vertex -0.21643723533637904 -0.61424524698341965 0.84998955747060057
      vertex -0.36305148089912576 -0.54082007459324788 0.84998433744691815
    endloop
  endfacet
  facet normal -0.3268033148688565 -0.94508146822034245 -0.0045400239216070544
    outer loop
      vertex -0.24874423103730608 -0.60052169613233741 0.31874999999999998
      vertex -0.16823237931663565 -0.62785178708789535 0.21249999999999999
      vertex -0.21643723533637904 -0.61424524698341965 0.84998955747060057
    endloop
  endfacet
  facet normal -0.19338568699310668 -0.98111887560874178 0.0027799263376294993
    outer loop
      vertex -0.16823237931663565 -0.62785178708789535 0.21249999999999999
      vertex -0.084842024943029518 -0.64443915989297729 0.15937499999999999
      vertex -0.050083947099005995 -0.64933342631098312 0.84998955747060068
    endloop
  endfacet
  facet normal -0.06296863096428805 -0.99800787262368462 -0.0039035491070053062
    outer loop
      vertex -0.084842024943029518 -0.64443915989297729 0.15937499999999999
      vertex 2.8285725557564169e-16 -0.65000000000000002 0.21249999999999999
      vertex -0.050083947099005995 -0.64933342631098312 0.84998955747060068
    endloop
  endfacet
  facet normal 0.065403128743256281 -0.99785892327051584 7.8089501918414453e-10
    outer loop
      vertex 2.8285725557564169e-16 -0.65000000000000002 0.21249999999999999
      vertex 0.084842024943024313 -0.64443915989297829 0.265625
      vertex 0.084842026329305278 -0.64443915934481422 0.84998433710153687
    endloop
  endfacet
  facet normal 0.19270516185241834 -0.9812489989889166 0.0038887759876977692
    outer loop
      vertex 0.084842024943024313 -0.64443915989297829 0.265625
      vertex 0.16823237931663496 -0.62785178708789535 0.31874999999999998
      vertex 0.20221761069792005 -0.6190721591263828 0.84998955747060057
    endloop
  endfacet
  facet normal 0.21124126759250444 -0.97743395012957879 4.1576202901488405e-10
    outer loop
      vertex 0.084842024943024313 -0.64443915989297829 0.265625
      vertex 0.20221761069792005 -0.6190721591263828 0.84998955747060057
      vertex 0.084842026329305278 -0.64443915934481422 0.84998433710153687
    endloop
  endfacet
  facet normal 0.32143558444259412 -0.94691869684856023 -0.0049139202956925638
    outer loop
      vertex 0.16823237931663496 -0.62785178708789535 0.31874999999999998
      vertex 0.24874423103730262 -0.60052169613233874 0.31874999999999992
      vertex 0.20221761069792005 -0.6190721591263828 0.84998955747060057
    endloop
  endfacet
  facet normal 0.44228869021899481 -0.89687274153269148 8.5898772113466332e-10
    outer loop
      vertex 0.24874423103730262 -0.60052169613233874 0.31874999999999992
      vertex 0.32499999999999718 -0.56291651245988672 0.31874999999999998
      vertex 0.32500000107099108 -0.56291651142293664 0.84998433710153676
    endloop
  endfacet
  facet normal 0.55726344597885358 -0.83032931885004224 0.003267113986089097
    outer loop
      vertex 0.32499999999999718 -0.56291651245988672 0.31874999999999998
      vertex 0.39569492885565444 -0.51567967118931368 0.265625
      vertex 0.42373337037329406 -0.49456276761788864 0.84998955747060057
    endloop
  endfacet
  facet normal 0.56920926249621795 -0.8221926875669181 4.5733701057863953e-10
    outer loop
      vertex 0.32499999999999718 -0.56291651245988672 0.31874999999999998
      vertex 0.42373337037329406 -0.49456276761788864 0.84998955747060057
      vertex 0.32500000107099108 -0.56291651142293664 0.84998433710153676
    endloop
  endfacet
  facet normal 0.66151607165198922 -0.7499166281861912 -0.0046408744837565449
    outer loop
      vertex 0.39569492885565444 -0.51567967118931368 0.265625
      vertex 0.45961940777125526 -0.45961940777125654 0.31874999999999998
      vertex 0.42373337037329406 -0.49456276761788864 0.84998955747060057
    endloop
  endfacet
  facet normal 0.75183980829561858 -0.65934581416886817 6.6075680125166894e-10
    outer loop
      vertex 0.45961940777125526 -0.45961940777125654 0.31874999999999998
      vertex 0.51567967118929903 -0.39569492885567342 0.15937499999999999
      vertex 0.51567967178195506 -0.3956949274877915 0.84998433710153676
    endloop
  endfacet
  facet normal 0.84783213091032872 -0.53025941642183927 -0.0023725707621784246
    outer loop
      vertex 0.51567967118929903 -0.39569492885567342 0.15937499999999999
      vertex 0.58556500949416712 -0.28527954554910295 0.45535714285714279
      vertex 0.58073956556189987 -0.29476067796222866 0.84998955747060079
    endloop
  endfacet
  facet normal 0.8405203070796915 -0.54178004151746051 3.5179323084532647e-10
    outer loop
      vertex 0.51567967118929903 -0.39569492885567342 0.15937499999999999
      vertex 0.58073956556189987 -0.29476067796222866 0.84998955747060079
      vertex 0.51567967178195506 -0.3956949274877915 0.84998433710153676
    endloop
  endfacet
  facet normal 0.94806775371052998 -0.31806693498794769 -0.00097940882298978653
    outer loop
      vertex 0.58556500949416712 -0.28527954554910295 0.45535714285714279
      vertex 0.63932196307923439 -0.12469729721163827 0.34236111111111101
      vertex 0.6385863845236347 -0.12845295001332965 0.84998433744691781
    endloop
  endfacet
  facet normal 0.99622176767605808 -0.086658241063864508 0.0057042847147990104
    outer loop
      vertex 0.63932196307923439 -0.12469729721163827 0.34236111111111101
      vertex 0.65000000000000002 7.7107913980360551e-17 0.37187499999999996
      vertex 0.65031555574045785 0.035099547628944565 0.84998955747060068
    endloop
  endfacet
  facet normal 0.99743793381360935 -0.07153131413282135 0.00091612666678044723
    outer loop
      vertex 0.63932196307923439 -0.12469729721163827 0.34236111111111101
      vertex 0.65031555574045785 0.035099547628944565 0.84998955747060068
      vertex 0.6385863845236347 -0.12845295001332965 0.84998433744691781
    endloop
  endfacet
  facet normal 0.98220378601584923 0.18773497725761459 0.0055947341505102133
    outer loop
      vertex 0.64443915989297562 0.084842024943040842 0.21250000000000002
      vertex 0.61725850651499303 0.20804967435921354 0.84998433744691804
      vertex 0.65031555574045785 0.035099547628944565 0.84998955747060068
    endloop
  endfacet
  facet normal 0.89809881495845001 0.43975036377275778 0.0061754458911860337
    outer loop
      vertex 0.61725850651499303 0.20804967435921354 0.84998433744691804
      vertex 0.56291651245987262 0.32500000000002144 0.42500000000000004
      vertex 0.54288609341158589 0.35993973993428635 0.84999477939152879
    endloop
  endfacet
  facet normal 0.82904912384752183 0.55913328257198303 -0.006893661431725609
    outer loop
      vertex 0.56291651245987262 0.32500000000002144 0.42500000000000004
      vertex 0.51567967118930291 0.39569492885566843 0.47812499999999997
      vertex 0.54288609341158589 0.35993973993428635 0.84999477939152879
    endloop
  endfacet
  facet normal 0.75373407147100846 0.6571303721908105 0.0080388710714575842
    outer loop
      vertex 0.51567967118930291 0.39569492885566843 0.47812499999999997
      vertex 0.43053671016443013 0.4888055565016462 0.84998433744691804
      vertex 0.54288609341158589 0.35993973993428635 0.84999477939152879
    endloop
  endfacet
  facet normal 0.34893523428086615 0.93712864903946214 0.0058393002003260374
    outer loop
      vertex 0.24874423103730517 0.60052169613233763 0.42499999999999993
      vertex 0.16823237782611219 0.62785178711196299 0.84998433710153676
      vertex 0.29476067796222233 0.58073956556190309 0.84998955747060068
    endloop
  endfacet
  facet normal -0.29366114153668338 0.9559001511379448 0.0042467641594692877
    outer loop
      vertex -0.16823237931664359 0.62785178708789313 0.265625
      vertex -0.24874423223447681 0.6005216952440553 0.84998433710153676
      vertex -0.11968247936553005 0.64017060570967843 0.84998955747060057
    endloop
  endfacet
  facet normal -0.46017895212475057 0.88781712128244916 0.0040113811974600505
    outer loop
      vertex -0.24874423223447681 0.6005216952440553 0.84998433710153676
      vertex -0.32500000000000595 0.56291651245988161 0.42499999999999993
      vertex -0.35993973993427936 0.54288609341159033 0.8499947793915289
    endloop
  endfacet
  facet normal -0.55555854510777014 0.83145212010635272 -0.0064865189731393661
    outer loop
      vertex -0.32500000000000595 0.56291651245988161 0.42499999999999993
      vertex -0.39569492885565832 0.51567967118931057 0.42499999999999993
      vertex -0.35993973993427936 0.54288609341159033 0.8499947793915289
    endloop
  endfacet
  facet normal -0.6593872190191622 0.75176756810444478 0.0073497578534469704
    outer loop
      vertex -0.39569492885565832 0.51567967118931057 0.42499999999999993
      vertex -0.49132582064351454 0.42764546355278399 0.84997650383563428
      vertex -0.35993973993427936 0.54288609341159033 0.8499947793915289
    endloop
  endfacet
  facet normal -0.94600222648568988 0.32410129797975595 0.0061754458911883765
    outer loop
      vertex -0.58358101126488826 0.28935434013877315 0.84998433744691793
      vertex -0.62785178708789313 0.16823237931664314 0.42500000000000004
      vertex -0.63839426898925999 0.12936260713715947 0.84999477939152901
    endloop
  endfacet
  facet normal -0.9793287521867079 0.20219184768399887 -0.0058010232335569314
    outer loop
      vertex -0.62785178708789313 0.16823237931664314 0.42500000000000004
      vertex -0.64443915989297706 0.084842024943031349 0.31875000000000009
      vertex -0.63839426898925999 0.12936260713715947 0.84999477939152901
    endloop
  endfacet
  facet normal -0.9982197454693863 0.05945233775057366 0.0047706698717433606
    outer loop
      vertex -0.64443915989297706 0.084842024943031349 0.31875000000000009
      vertex -0.65000000000000002 2.6455648461193466e-16 0.21250000000000002
      vertex -0.64970816306651802 -0.046254443869254161 0.84998955400417653
    endloop
  endfacet
  facet normal -0.99791347693016796 0.064289066068215883 0.0059672896041426185
    outer loop
      vertex -0.64443915989297706 0.084842024943031349 0.31875000000000009
      vertex -0.64970816306651802 -0.046254443869254161 0.84998955400417653
      vertex -0.63839426898925999 0.12936260713715947 0.84999477939152901
    endloop
  endfacet
  facet normal -0.98059659983050707 -0.19599076700621307 0.0042341054739842721
    outer loop
      vertex -0.64970816306651802 -0.046254443869254161 0.84998955400417653
      vertex -0.62785178708789313 -0.16823237931664359 0.265625
      vertex -0.61754695814367522 -0.20716583041406456 0.84999477939152879
    endloop
  endfacet
  facet normal -0.94592413235644135 -0.3243504870400154 -0.0049292375291130515
    outer loop
      vertex -0.62785178708789313 -0.16823237931664359 0.265625
      vertex -0.60052169613233997 -0.24874423103729992 0.31874999999999998
      vertex -0.61754695814367522 -0.20716583041406456 0.84999477939152879
    endloop
  endfacet
  facet normal -0.9072321852891696 -0.42061262394493337 0.0038448086553392086
    outer loop
      vertex -0.60052169613233997 -0.24874423103729992 0.31874999999999998
      vertex -0.56291651142294297 -0.32500000107098032 0.84998433710153665
      vertex -0.61754695814367522 -0.20716583041406456 0.84999477939152879
    endloop
  endfacet
  facet normal -0.20638176681704481 -0.9784573095613569 0.0052782280574114014
    outer loop
      vertex -0.16823237931663565 -0.62785178708789535 0.21249999999999999
      vertex -0.050083947099005995 -0.64933342631098312 0.84998955747060068
      vertex -0.21643723533637904 -0.61424524698341965 0.84998955747060057
    endloop
  endfacet
  facet normal 0.036249754993532023 -0.99933517943587469 0.0038928658822515437
    outer loop
      vertex 2.8285725557564169e-16 -0.65000000000000002 0.21249999999999999
      vertex 0.084842026329305278 -0.64443915934481422 0.84998433710153687
      vertex -0.050083947099005995 -0.64933342631098312 0.84998955747060068
    endloop
  endfacet
  facet normal 0.41591806393282504 -0.90939009326445353 0.0046714416231671769
    outer loop
      vertex 0.24874423103730262 -0.60052169613233874 0.31874999999999992
      vertex 0.32500000107099108 -0.56291651142293664 0.84998433710153676
      vertex 0.20221761069792005 -0.6190721591263828 0.84998955747060057
    endloop
  endfacet
  facet normal 0.73226670871851329 -0.68100194194709696 0.0046714416231686522
    outer loop
      vertex 0.45961940777125526 -0.45961940777125654 0.31874999999999998
      vertex 0.51567967178195506 -0.3956949274877915 0.84998433710153676
      vertex 0.42373337037329406 -0.49456276761788864 0.84998955747060057
    endloop
  endfacet
  facet normal 0.94448936944169881 -0.32852163368579496 0.0036561198063904828
    outer loop
      vertex 0.58556500949416712 -0.28527954554910295 0.45535714285714279
      vertex 0.6385863845236347 -0.12845295001332965 0.84998433744691781
      vertex 0.58073956556189987 -0.29476067796222866 0.84998955747060079
    endloop
  endfacet
  facet normal 8.9783009298508738e-06 5.2722931413483173e-05 -0.99999999856984134
    outer loop
      vertex 0 0 -0.84999999999999998
      vertex 0.62193053539487209 0.19183427667553829 -0.84998430205506137
      vertex 0.65165636000327498 0.021935277421564064 -0.84999299274095996
    endloop
  endfacet
  facet normal 1.4281275989904336e-05 3.2911918772733929e-05 0.99999999935642536
    outer loop
      vertex 0 0 0.84999999999999998
      vertex 0.65031555574045785 0.035099547628944565 0.84998955747060068
      vertex 0.61725850651499303 0.20804967435921354 0.84998433744691804
    endloop
  endfacet
  facet normal -0.00010853086344922993 0.00043368996835966563 -0.99999990006702644
    outer loop
      vertex 0 0 -0.84999999999999998
      vertex 0.58814977564157334 0.27971575977316565 -0.8499425224782382
      vertex 0.62193053539487209 0.19183427667553829 -0.84998430205506137
    endloop
  endfacet
  facet normal 4.166884626765643e-05 -4.8343727507930337e-05 0.99999999796329564
    outer loop
      vertex 0 0 0.84999999999999998
      vertex 0.61725850651499303 0.20804967435921354 0.84998433744691804
      vertex 0.54288609341158589 0.35993973993428635 0.84999477939152879
    endloop
  endfacet
  facet normal 0.00017160967793017543 -0.00015535296754809905 -0.99999997320778655
    outer loop
      vertex 0 0 -0.84999999999999998
      vertex 0.45390938699728567 0.46742275546309436 -0.84999472026830714
      vertex 0.58814977564157334 0.27971575977316565 -0.8499425224782382
    endloop
  endfacet
  facet normal -2.7950685522994482e-05 5.666128151408991e-05 0.9999999980041292
    outer loop
      vertex 0 0 0.84999999999999998
      vertex 0.54288609341158589 0.35993973993428635 0.84999477939152879
      vertex 0.43053671016443013 0.4888055565016462 0.84998433744691804
    endloop
  endfacet
  facet normal 4.9227939146976945e-06 6.5149359737838977e-06 -0.99999999996666089
    outer loop
      vertex 0 0 -0.84999999999999998
      vertex 0.28599955097982649 0.58522319130652412 -0.8499947793915289
      vertex 0.45390938699728567 0.46742275546309436 -0.84999472026830714
    endloop
  endfacet
  facet normal 3.7673750462228395e-05 -1.1402888230994157e-06 0.99999999928969419
    outer loop
      vertex 0 0 0.84999999999999998
      vertex 0.43053671016443013 0.4888055565016462 0.84998433744691804
      vertex 0.29476067796222233 0.58073956556190309 0.84998955747060068
    endloop
  endfacet
  facet normal -5.3369016056759766e-05 3.5002240842820393e-05 -0.99999999796329564
    outer loop
      vertex 0 0 -0.84999999999999998
      vertex 0.12570137808310392 0.63913370621029153 -0.84998433744691781
      vertex 0.28599955097982649 0.58522319130652412 -0.8499947793915289
    endloop
  endfacet
  facet normal -2.9069434930810848e-05 3.2735940281740914e-05 0.99999999904166315
    outer loop
      vertex 0 0 0.84999999999999998
      vertex 0.29476067796222233 0.58073956556190309 0.84998955747060068
      vertex 0.16823237782611219 0.62785178711196299 0.84998433710153676
    endloop
  endfacet
  facet normal 4.2272822042363116e-06 2.3814111910796984e-05 0.99999999970750908
    outer loop
      vertex 0 0 0.84999999999999998
      vertex 0.16823237782611219 0.62785178711196299 0.84998433710153676
      vertex 0.044001768043584494 0.64988966392391034 0.84998433744691804
    endloop
  endfacet
  facet normal 4.7529942692606259e-05 1.5157976604683901e-05 -0.99999999875557022
    outer loop
      vertex 0 0 -0.84999999999999998
      vertex -0.094508877305842912 0.64465947293074999 -0.84999472026830702
      vertex 0.12570137808310392 0.63913370621029153 -0.84998433744691781
    endloop
  endfacet
  facet normal 3.0582759623262539e-05 2.2029674220848211e-05 0.99999999928969407
    outer loop
      vertex 0 0 0.84999999999999998
      vertex 0.044001768043584494 0.64988966392391034 0.84998433744691804
      vertex -0.11968247936553005 0.64017060570967843 0.84998955747060057
    endloop
  endfacet
  facet normal -5.8777563496722153e-05 -4.2700040032642259e-07 -0.99999999827250785
    outer loop
      vertex 0 0 -0.84999999999999998
      vertex -0.27137133245579437 0.59157043577696267 -0.84998430205506115
      vertex -0.094508877305842912 0.64465947293074999 -0.84999472026830702
    endloop
  endfacet
  facet normal -4.2990711087830579e-05 8.2748168214532853e-06 0.99999999904166315
    outer loop
      vertex 0 0 0.84999999999999998
      vertex -0.11968247936553005 0.64017060570967843 0.84998955747060057
      vertex -0.24874423223447681 0.6005216952440553 0.84998433710153676
    endloop
  endfacet
  facet normal 6.618122830214357e-05 5.3495314962438768e-05 0.99999999637914827
    outer loop
      vertex 0 0 0.84999999999999998
      vertex -0.24874423223447681 0.6005216952440553 0.84998433710153676
      vertex -0.35993973993427936 0.54288609341159033 0.8499947793915289
    endloop
  endfacet
  facet normal -1.3718530687106191e-05 2.0242947006831687e-05 -0.9999999997010125
    outer loop
      vertex 0 0 -0.84999999999999998
      vertex -0.44870885913843972 0.47093544135768028 -0.84998431125255858
      vertex -0.27137133245579437 0.59157043577696267 -0.84998430205506115
    endloop
  endfacet
  facet normal -9.3284440303228322e-05 -5.2232262136649542e-05 0.99999999428490205
    outer loop
      vertex 0 0 0.84999999999999998
      vertex -0.35993973993427936 0.54288609341159033 0.8499947793915289
      vertex -0.49132582064351454 0.42764546355278399 0.84997650383563428
    endloop
  endfacet
  facet normal 2.5756363897143662e-05 5.7854758162251423e-05 -0.99999999799471839
    outer loop
      vertex 0 0 -0.84999999999999998
      vertex -0.53340426816631714 0.37324733852705722 -0.84999214441991422
      vertex -0.44870885913843972 0.47093544135768028 -0.84998431125255858
    endloop
  endfacet
  facet normal 9.3760480694805528e-07 5.6020315475827538e-05 0.99999999843042253
    outer loop
      vertex 0 0 0.84999999999999998
      vertex -0.49132582064351454 0.42764546355278399 0.84997650383563428
      vertex -0.58358101126488826 0.28935434013877315 0.84998433744691793
    endloop
  endfacet
  facet normal -2.676540367896892e-06 1.7221561589095156e-05 -0.99999999984812704
    outer loop
      vertex 0 0 -0.84999999999999998
      vertex -0.61754695814367344 0.20716583041406927 -0.84999477939152901
      vertex -0.53340426816631714 0.37324733852705722 -0.84999214441991422
    endloop
  endfacet
  facet normal 4.7198537893344301e-06 6.3648501310612825e-05 0.99999999796329564
    outer loop
      vertex 0 0 0.84999999999999998
      vertex -0.58358101126488826 0.28935434013877315 0.84998433744691793
      vertex -0.63839426898925999 0.12936260713715947 0.84999477939152901
    endloop
  endfacet
  facet normal -2.715332163731601e-06 1.7105925938848402e-05 -0.99999999985000709
    outer loop
      vertex 0 0 -0.84999999999999998
      vertex -0.64932999092125898 0.050120312062230658 -0.84999737949904419
      vertex -0.61754695814367344 0.20716583041406927 -0.84999477939152901
    endloop
  endfacet
  facet normal -1.4024004982754891e-05 -2.8850964150932896e-05 0.99999999948547458
    outer loop
      vertex 0 0 0.84999999999999998
      vertex -0.63839426898925999 0.12936260713715947 0.84999477939152901
      vertex -0.64970816306651802 -0.046254443869254161 0.84998955400417653
    endloop
  endfacet
  facet normal -6.0937940224415105e-06 -2.6663486468385542e-05 -0.9999999996259622
    outer loop
      vertex 0 0 -0.84999999999999998
      vertex -0.63314314760550006 -0.14976925131256591 -0.84999214838566306
      vertex -0.64932999092125898 0.050120312062230658 -0.84999737949904419
    endloop
  endfacet
  facet normal -1.8131867730656961e-05 2.8849696315388755e-05 0.99999999941946516
    outer loop
      vertex 0 0 0.84999999999999998
      vertex -0.64970816306651802 -0.046254443869254161 0.84998955400417653
      vertex -0.61754695814367522 -0.20716583041406456 0.84999477939152879
    endloop
  endfacet
  facet normal 1.872458002570011e-05 -0.00013158210800897526 -0.9999999911677695
    outer loop
      vertex 0 0 -0.84999999999999998
      vertex -0.57754440001052143 -0.30045918359176466 -0.84997127922333504
      vertex -0.63314314760550006 -0.14976925131256591 -0.84999214838566306
    endloop
  endfacet
  facet normal 1.8411212435174148e-05 -8.0082688614644619e-05 0.99999999662389516
    outer loop
      vertex 0 0 0.84999999999999998
      vertex -0.61754695814367522 -0.20716583041406456 0.84999477939152879
      vertex -0.56291651142294297 -0.32500000107098032 0.84998433710153665
    endloop
  endfacet
  facet normal -0.00011842996006049723 0.00013205715178681178 -0.99999998426762648
    outer loop
      vertex 0 0 -0.84999999999999998
      vertex -0.49458605234260916 -0.42370522727383442 -0.8499973794990443
      vertex -0.57754440001052143 -0.30045918359176466 -0.84997127922333504
    endloop
  endfacet
  facet normal -1.982825993280502e-05 -1.3849980107553536e-05 0.99999999970750908
    outer loop
      vertex 0 0 0.84999999999999998
      vertex -0.56291651142294297 -0.32500000107098032 0.84998433710153665
      vertex -0.49065533695145369 -0.42842743981583387 0.84998433744691793
    endloop
  endfacet
  facet normal 4.5184977447898126e-05 -5.8928611124871888e-05 -0.99999999724286825
    outer loop
      vertex 0 0 -0.84999999999999998
      vertex -0.3607188108522279 -0.54237871488789924 -0.84998433744691815
      vertex -0.49458605234260916 -0.42370522727383442 -0.8499973794990443
    endloop
  endfacet
  facet normal -1.6030186909551124e-05 -1.8199712701167922e-05 0.99999999970590181
    outer loop
      vertex 0 0 0.84999999999999998
      vertex -0.49065533695145369 -0.42842743981583387 0.84998433744691793
      vertex -0.36305148089912576 -0.54082007459324788 0.84998433744691815
    endloop
  endfacet
  facet normal -0.00011511657491357787 4.7682846583142315e-05 -0.99999999223726022
    outer loop
      vertex 0 0 -0.84999999999999998
      vertex -0.24874423103730819 -0.60052169613233652 -0.84999999999999998
      vertex -0.3607188108522279 -0.54237871488789924 -0.84998433744691815
    endloop
  endfacet
  facet normal -3.750028386135882e-05 -3.7868777009454909e-06 0.99999999928969419
    outer loop
      vertex 0 0 0.84999999999999998
      vertex -0.36305148089912576 -0.54082007459324788 0.84998433744691815
      vertex -0.21643723533637904 -0.61424524698341965 0.84998955747060057
    endloop
  endfacet
  facet normal 2.0234841123500531e-05 -8.3815456258187488e-06 -0.99999999976015042
    outer loop
      vertex 0 0 -0.84999999999999998
      vertex -0.13444609705378743 -0.63723286934842038 -0.84999737949904419
      vertex -0.24874423103730819 -0.60052169613233652 -0.84999999999999998
    endloop
  endfacet
  facet normal -3.3377877975465329e-06 -1.5824473828234359e-05 0.99999999986922272
    outer loop
      vertex 0 0 0.84999999999999998
      vertex -0.21643723533637904 -0.61424524698341965 0.84998955747060057
      vertex -0.050083947099005995 -0.64933342631098312 0.84998955747060068
    endloop
  endfacet
  facet normal 2.5639976914919812e-05 -9.5219441297337717e-06 -0.9999999996259622
    outer loop
      vertex 0 0 -0.84999999999999998
      vertex 0.065846190418477585 -0.64727533029299078 -0.84999214838566317
      vertex -0.13444609705378743 -0.63723286934842038 -0.84999737949904419
    endloop
  endfacet
  facet normal 3.9384157942136963e-05 -1.9119674067512271e-05 0.99999999904166315
    outer loop
      vertex 0 0 0.84999999999999998
      vertex -0.050083947099005995 -0.64933342631098312 0.84998955747060068
      vertex 0.084842026329305278 -0.64443915934481422 0.84998433710153687
    endloop
  endfacet
  facet normal 2.4451089071273187e-06 -1.1881517600949411e-05 -0.99999999992642552
    outer loop
      vertex 0 0 -0.84999999999999998
      vertex 0.19595947469992611 -0.62083296730352955 -0.84999214441991411
      vertex 0.065846190418477585 -0.64727533029299078 -0.84999214838566317
    endloop
  endfacet
  facet normal -3.8137958569088767e-05 -2.932565449508305e-05 0.99999999884275115
    outer loop
      vertex 0 0 0.84999999999999998
      vertex 0.084842026329305278 -0.64443915934481422 0.84998433710153687
      vertex 0.20221761069792005 -0.6190721591263828 0.84998955747060057
    endloop
  endfacet
  facet normal 4.5851446526907245e-05 1.8192418211155089e-06 -0.99999999894716762
    outer loop
      vertex 0 0 -0.84999999999999998
      vertex 0.36305148089912687 -0.54082007459324699 -0.84998433744691793
      vertex 0.19595947469992611 -0.62083296730352955 -0.84999214441991411
    endloop
  endfacet
  facet normal 4.3702999925855857e-05 -2.5926107973134052e-06 0.99999999904166315
    outer loop
      vertex 0 0 0.84999999999999998
      vertex 0.20221761069792005 -0.6190721591263828 0.84998955747060057
      vertex 0.32500000107099108 -0.56291651142293664 0.84998433710153676
    endloop
  endfacet
  facet normal -2.4012437215924425e-05 -4.1688136854730386e-05 0.99999999884275115
    outer loop
      vertex 0 0 0.84999999999999998
      vertex 0.32500000107099108 -0.56291651142293664 0.84998433710153676
      vertex 0.42373337037329406 -0.49456276761788864 0.84998955747060057
    endloop
  endfacet
  facet normal -5.1814510637492674e-05 -6.3743728215228925e-05 -0.99999999662599681
    outer loop
      vertex 0 0 -0.84999999999999998
      vertex 0.48463680445529528 -0.43505017016245123 -0.84999737949904408
      vertex 0.36305148089912687 -0.54082007459324699 -0.84998433744691793
    endloop
  endfacet
  facet normal 4.1368456339540104e-05 1.4329153964869421e-05 0.99999999904166315
    outer loop
      vertex 0 0 0.84999999999999998
      vertex 0.42373337037329406 -0.49456276761788864 0.84998955747060057
      vertex 0.51567967178195506 -0.3956949274877915 0.84998433710153676
    endloop
  endfacet
  facet normal 1.1346543670631959e-05 6.616367278748855e-06 -0.99999999991373989
    outer loop
      vertex 0 0 -0.84999999999999998
      vertex 0.605545919001237 -0.24048264783536971 -0.84999472026830725
      vertex 0.48463680445529528 -0.43505017016245123 -0.84999737949904408
    endloop
  endfacet
  facet normal -6.2312399701641055e-06 -4.7703978283334062e-05 0.99999999884275115
    outer loop
      vertex 0 0 0.84999999999999998
      vertex 0.51567967178195506 -0.3956949274877915 0.84998433710153676
      vertex 0.58073956556189987 -0.29476067796222866 0.84998955747060079
    endloop
  endfacet
  facet normal 2.8823907192781486e-05 2.1361919751281427e-05 0.99999999935642536
    outer loop
      vertex 0 0 0.84999999999999998
      vertex 0.58073956556189987 -0.29476067796222866 0.84998955747060079
      vertex 0.6385863845236347 -0.12845295001332965 0.84998433744691781
    endloop
  endfacet
  facet normal 1.0594064655504828e-05 4.7215919136816121e-06 -0.99999999993273625
    outer loop
      vertex 0 0 -0.84999999999999998
      vertex 0.65165636000327498 0.021935277421564064 -0.84999299274095996
      vertex 0.605545919001237 -0.24048264783536971 -0.84999472026830725
    endloop
  endfacet
  facet normal 1.7849356142732474e-05 -3.3196569369041808e-05 0.99999999928969407
    outer loop
      vertex 0 0 0.84999999999999998
      vertex 0.6385863845236347 -0.12845295001332965 0.84998433744691781
      vertex 0.65031555574045785 0.035099547628944565 0.84998955747060068
    endloop
  endfacet
endsolid line_w_1e_04
