solid line_w_1e_03
  facet normal 0.98945239731852619 0.1297643224340547 -0.064383026209182181
    outer loop
      vertex 0.65017812599702429 -0.037943242820822815 -0.84999999275941118
      vertex 0.6146564870955995 0.2329155166513569 -0.8499870603052031
      vertex 0.64998520013042393 0.042602280795203944 -0.69062500000000004
    endloop
  endfacet
  facet normal 0.98129409412018909 0.19214517202882525 0.011921984350378775
    outer loop
      vertex 0.6146564870955995 0.2329155166513569 -0.8499870603052031
      vertex 0.61568369519035482 0.21260182370094549 -0.60714285714285721
      vertex 0.64998520013042393 0.042602280795203944 -0.69062500000000004
    endloop
  endfacet
  facet normal 0.63314716602803933 0.7716263839095957 -0.060970401058741241
    outer loop
      vertex 0.49450519520228448 0.42379053848758247 -0.84997380188220972
      vertex 0.30987320061991902 0.57528703076420851 -0.84998255395729527
      vertex 0.42948458103881709 0.48973330432741891 -0.69062499999999993
    endloop
  endfacet
  facet normal 0.56522086598142141 0.82473160285249858 0.018524468023686892
    outer loop
      vertex 0.30987320061991902 0.57528703076420851 -0.84998255395729527
      vertex 0.29239474192189602 0.5820157875139762 -0.61624999999999996
      vertex 0.42948458103881709 0.48973330432741891 -0.69062499999999993
    endloop
  endfacet
  facet normal 0.32490305178729212 0.9457432619258026 -0.0027729877834256071
    outer loop
      vertex 0.30987320061991902 0.57528703076420851 -0.84998255395729527
      vertex 0.12248390816972543 0.63966317499152059 -0.84999999275941107
      vertex 0.12707790554962078 0.6388637731462492 -0.58437499999999998
    endloop
  endfacet
  facet normal 0.023697983278487912 0.99909281787216953 -0.035382861172896345
    outer loop
      vertex 0.12248390816972543 0.63966317499152059 -0.84999999275941107
      vertex -0.10437361615965147 0.64504473990389988 -0.84998255395729538
      vertex -0.037786619319625778 0.65023782835165767 -0.65874999999999995
    endloop
  endfacet
  facet normal 0.068006552825487523 0.99768320280944378 0.0018263637874826552
    outer loop
      vertex 0.12248390816972543 0.63966317499152059 -0.84999999275941107
      vertex -0.037786619319625778 0.65023782835165767 -0.65874999999999995
      vertex 0.12707790554962078 0.6388637731462492 -0.58437499999999998
    endloop
  endfacet
  facet normal -0.7629311319606854 0.64637307403245392 0.011744660532472091
    outer loop
      vertex -0.45163334916794734 0.47290575801238471 -0.84994771707154948
      vertex -0.54160255499925469 0.36188725749302081 -0.58437499999999998
      vertex -0.45961940777125371 0.45961940777125798 -0.63750000000000007
    endloop
  endfacet
  facet normal -0.83305088775508085 0.55074842829026727 -0.051984489477843669
    outer loop
      vertex -0.45163334916794734 0.47290575801238471 -0.84994771707154948
      vertex -0.61081193941412859 0.23213216687284652 -0.84998255395729538
      vertex -0.54160255499925469 0.36188725749302081 -0.58437499999999998
    endloop
  endfacet
  facet normal -0.8947491504367131 0.44631335866425303 0.015111044656610598
    outer loop
      vertex -0.61081193941412859 0.23213216687284652 -0.84998255395729538
      vertex -0.61568369519035449 0.2126018237009466 -0.56160714285714286
      vertex -0.54160255499925469 0.36188725749302081 -0.58437499999999998
    endloop
  endfacet
  facet normal -0.98005392433670946 0.19867799582591 -0.0046216195013144322
    outer loop
      vertex -0.61081193941412859 0.23213216687284652 -0.84998255395729538
      vertex -0.65017812599702429 0.037943242820822447 -0.84999999275941107
      vertex -0.64998520013042382 0.042602280795202278 -0.69062499999999993
    endloop
  endfacet
  facet normal -0.99754635260358659 -0.06993353553440558 0.0032519248052296224
    outer loop
      vertex -0.65017812599702429 0.037943242820822447 -0.84999999275941107
      vertex -0.63848008167259296 -0.12891764425805266 -0.84994781670714148
      vertex -0.64998520013042382 0.042602280795202278 -0.69062499999999993
    endloop
  endfacet
  facet normal -0.92730279491081136 -0.37261671631744436 -0.035585239515883431
    outer loop
      vertex -0.63848008167259296 -0.12891764425805266 -0.84994781670714148
      vertex -0.54028294926765696 -0.37328837742798865 -0.84999994993657757
      vertex -0.6005216961323333 -0.24874423103731585 -0.58437499999999998
    endloop
  endfacet
  facet normal -0.88683924730334951 -0.4618208334269247 0.015416460530520976
    outer loop
      vertex -0.54028294926765696 -0.37328837742798865 -0.84999994993657757
      vertex -0.54160255499926024 -0.36188725749301232 -0.58437499999999998
      vertex -0.6005216961323333 -0.24874423103731585 -0.58437499999999998
    endloop
  endfacet
  facet normal -0.77215806174414658 -0.63499879022110195 0.02341931043518207
    outer loop
      vertex -0.54028294926765696 -0.37328837742798865 -0.84999994993657757
      vertex -0.45961940777125665 -0.45961940777125526 -0.53124999999999989
      vertex -0.54160255499926024 -0.36188725749301232 -0.58437499999999998
    endloop
  endfacet
  facet normal -0.65320285043178139 -0.75434497706515224 -0.065495738520691626
    outer loop
      vertex -0.54028294926765696 -0.37328837742798865 -0.84999994993657757
      vertex -0.30370256801881595 -0.5781527442765686 -0.84994763013752084
      vertex -0.36188725749301826 -0.54160255499925636 -0.69062499999999993
    endloop
  endfacet
  facet normal -0.67128607865735934 -0.74056234884479188 -0.030698665676382863
    outer loop
      vertex -0.54028294926765696 -0.37328837742798865 -0.84999994993657757
      vertex -0.36188725749301826 -0.54160255499925636 -0.69062499999999993
      vertex -0.45961940777125665 -0.45961940777125526 -0.53124999999999989
    endloop
  endfacet
  facet normal 0.43474751724717559 -0.9005500355767585 -0.0020566161809321927
    outer loop
      vertex 0.20229245915823563 -0.61904084644016677 -0.84997380188220995
      vertex 0.35962755140150876 -0.54308658600250492 -0.84976530927207972
      vertex 0.20613611911629423 -0.61787850614816708 -0.5464285714285716
    endloop
  endfacet
  facet normal 0.89711740105246085 -0.44124514141901094 -0.021979397239120724
    outer loop
      vertex 0.51421593418829636 -0.40433785042685405 -0.84998265700781372
      vertex 0.63169261446013159 -0.16549839361197899 -0.84981776663429875
      vertex 0.54160255499925836 -0.3618872574930152 -0.58437499999999998
    endloop
  endfacet
  facet normal 0.98700450945663032 -0.14293348469285197 0.073431037483033354
    outer loop
      vertex 0.65017812599702429 -0.037943242820822815 -0.84999999275941118
      vertex 0.64998520013042393 0.042602280795203944 -0.69062500000000004
      vertex 0.63169261446013159 -0.16549839361197899 -0.84981776663429875
    endloop
  endfacet
  facet normal 0.90285374353785974 0.42875189799314684 0.032045713394254584
    outer loop
      vertex 0.61568369519035482 0.21260182370094549 -0.60714285714285721
      vertex 0.6146564870955995 0.2329155166513569 -0.8499870603052031
      vertex 0.53967938101211055 0.36470825830326725 -0.50089285714285714
    endloop
  endfacet
  facet normal 0.84613230158148522 0.53262152755757453 -0.019350364406246327
    outer loop
      vertex 0.6146564870955995 0.2329155166513569 -0.8499870603052031
      vertex 0.49450519520228448 0.42379053848758247 -0.84997380188220972
      vertex 0.53967938101211055 0.36470825830326725 -0.50089285714285714
    endloop
  endfacet
  facet normal 0.73515098529713208 0.67762136206274226 0.019552966345027276
    outer loop
      vertex 0.49450519520228448 0.42379053848758247 -0.84997380188220972
      vertex 0.42948458103881709 0.48973330432741891 -0.69062499999999993
      vertex 0.53967938101211055 0.36470825830326725 -0.50089285714285714
    endloop
  endfacet
  facet normal 0.32467370232428938 0.94582148799302634 -0.00294955415207183
    outer loop
      vertex 0.30987320061991902 0.57528703076420851 -0.84998255395729527
      vertex 0.12707790554962078 0.6388637731462492 -0.58437499999999998
      vertex 0.29239474192189602 0.5820157875139762 -0.61624999999999996
    endloop
  endfacet
  facet normal -0.16125999975736544 0.98647508154569019 0.029361981671511234
    outer loop
      vertex -0.037786619319625778 0.65023782835165767 -0.65874999999999995
      vertex -0.10437361615965147 0.64504473990389988 -0.84998255395729538
      vertex -0.20937919210743414 0.61681120987704074 -0.47812500000000002
    endloop
  endfacet
  facet normal -0.31565928644570312 0.94871843148847235 -0.017104170095098063
    outer loop
      vertex -0.10437361615965147 0.64504473990389988 -0.84998255395729538
      vertex -0.2897756871086794 0.58335805887497583 -0.84994781670714159
      vertex -0.20937919210743414 0.61681120987704074 -0.47812500000000002
    endloop
  endfacet
  facet normal -0.42655941863981023 0.90439430648180852 0.010862816069319228
    outer loop
      vertex -0.2897756871086794 0.58335805887497583 -0.84994781670714159
      vertex -0.32500000000000057 0.56291651245988472 -0.53125000000000011
      vertex -0.20937919210743414 0.61681120987704074 -0.47812500000000002
    endloop
  endfacet
  facet normal -0.56364258181330906 0.82596622151274368 -0.0093188457862672415
    outer loop
      vertex -0.2897756871086794 0.58335805887497583 -0.84994781670714159
      vertex -0.45163334916794734 0.47290575801238471 -0.84994771707154948
      vertex -0.32500000000000057 0.56291651245988472 -0.53125000000000011
    endloop
  endfacet
  facet normal -0.97979522013308695 0.19998068507071157 -0.003008687920753136
    outer loop
      vertex -0.61081193941412859 0.23213216687284652 -0.84998255395729538
      vertex -0.64998520013042382 0.042602280795202278 -0.69062499999999993
      vertex -0.61568369519035449 0.2126018237009466 -0.56160714285714286
    endloop
  endfacet
  facet normal -0.99780094096603278 -0.066278124632031227 -0.00070171401625748688
    outer loop
      vertex -0.64998520013042382 0.042602280795202278 -0.69062499999999993
      vertex -0.63848008167259296 -0.12891764425805266 -0.84994781670714148
      vertex -0.6388637731462502 -0.12707790554961654 -0.47812499999999997
    endloop
  endfacet
  facet normal -0.95363337920891122 -0.30097030241865791 0.00050509465910438694
    outer loop
      vertex -0.63848008167259296 -0.12891764425805266 -0.84994781670714148
      vertex -0.6005216961323333 -0.24874423103731585 -0.58437499999999998
      vertex -0.6388637731462502 -0.12707790554961654 -0.47812499999999997
    endloop
  endfacet
  facet normal -0.3195846729541752 -0.94741645414730846 -0.016361516546875687
    outer loop
      vertex -0.30370256801881595 -0.5781527442765686 -0.84994763013752084
      vertex -0.12006784625363649 -0.64009772394093456 -0.84989564916849236
      vertex -0.20613611911629526 -0.61787850614816686 -0.45535714285714285
    endloop
  endfacet
  facet normal -0.05449038502703199 -0.99841137503033905 -0.014336113477281146
    outer loop
      vertex -0.12006784625363649 -0.64009772394093456 -0.84989564916849236
      vertex 0.049692848079395315 -0.64936276821828176 -0.84989564916849225
      vertex -0.039193476234785106 -0.65017676010824244 -0.45535714285714285
    endloop
  endfacet
  facet normal 0.19489276718982637 -0.9808237102029127 0.0012879444416584423
    outer loop
      vertex 0.049692848079395315 -0.64936276821828176 -0.84989564916849225
      vertex 0.20229245915823563 -0.61904084644016677 -0.84997380188220995
      vertex 0.20613611911629423 -0.61787850614816708 -0.5464285714285716
    endloop
  endfacet
  facet normal 0.66783351025676907 -0.74410146785317144 -0.017646759387423109
    outer loop
      vertex 0.35962755140150876 -0.54308658600250492 -0.84976530927207972
      vertex 0.51421593418829636 -0.40433785042685405 -0.84998265700781372
      vertex 0.43203042321853907 -0.48745836886633481 -0.45535714285714296
    endloop
  endfacet
  facet normal 0.7652944549652746 -0.64323664437194294 0.023895952304226264
    outer loop
      vertex 0.51421593418829636 -0.40433785042685405 -0.84998265700781372
      vertex 0.54160255499925836 -0.3618872574930152 -0.58437499999999998
      vertex 0.43203042321853907 -0.48745836886633481 -0.45535714285714296
    endloop
  endfacet
  facet normal 0.89583285047921513 -0.44372885664015976 -0.024252954193268565
    outer loop
      vertex 0.54160255499925836 -0.3618872574930152 -0.58437499999999998
      vertex 0.63169261446013159 -0.16549839361197899 -0.84981776663429875
      vertex 0.60052169613233319 -0.24874423103731585 -0.47812500000000008
    endloop
  endfacet
  facet normal 0.99713763895948604 0.074072256988992988 0.015160135713711387
    outer loop
      vertex 0.64998520013042393 0.042602280795203944 -0.69062500000000004
      vertex 0.63886377314624898 0.12707790554962245 -0.37187500000000001
      vertex 0.65017676010824221 -0.039193476234786473 -0.30357142857142838
    endloop
  endfacet
  facet normal 0.97799192692957804 0.20759391130710853 -0.02089399073387126
    outer loop
      vertex 0.64998520013042393 0.042602280795203944 -0.69062500000000004
      vertex 0.61568369519035482 0.21260182370094549 -0.60714285714285721
      vertex 0.63886377314624898 0.12707790554962245 -0.37187500000000001
    endloop
  endfacet
  facet normal 0.7519436167214284 0.65922332972708453 -0.0023235351156146774
    outer loop
      vertex 0.53967938101211055 0.36470825830326725 -0.50089285714285714
      vertex 0.42948458103881709 0.48973330432741891 -0.69062499999999993
      vertex 0.43306840305244299 0.48650675257049919 -0.44625000000000004
    endloop
  endfacet
  facet normal 0.55944023667540044 0.82886616360911181 0.0027394182749418089
    outer loop
      vertex 0.42948458103881709 0.48973330432741891 -0.69062499999999993
      vertex 0.29239474192189602 0.5820157875139762 -0.61624999999999996
      vertex 0.43306840305244299 0.48650675257049919 -0.44625000000000004
    endloop
  endfacet
  facet normal -0.19625450581373186 0.98054034082690456 -0.0049808592497515083
    outer loop
      vertex -0.037786619319625778 0.65023782835165767 -0.65874999999999995
      vertex -0.20937919210743414 0.61681120987704074 -0.47812500000000002
      vertex -0.047409718219044328 0.64960709712677622 -0.40375000000000005
    endloop
  endfacet
  facet normal -0.57549531287500977 0.81780183394262518 -0.0023033147794470706
    outer loop
      vertex -0.32500000000000057 0.56291651245988472 -0.53125000000000011
      vertex -0.45163334916794734 0.47290575801238471 -0.84994771707154948
      vertex -0.42748270705918856 0.49146340863181104 -0.29513888888888895
    endloop
  endfacet
  facet normal -0.76372799450639706 0.64543294783126071 0.011655910993391867
    outer loop
      vertex -0.45163334916794734 0.47290575801238471 -0.84994771707154948
      vertex -0.45961940777125371 0.45961940777125798 -0.63750000000000007
      vertex -0.42748270705918856 0.49146340863181104 -0.29513888888888895
    endloop
  endfacet
  facet normal -0.97988587203515054 0.19954416191603383 -0.0024094047273898948
    outer loop
      vertex -0.61568369519035449 0.2126018237009466 -0.56160714285714286
      vertex -0.64998520013042382 0.042602280795202278 -0.69062499999999993
      vertex -0.64960709712677622 0.047409718219043863 -0.44625000000000004
    endloop
  endfacet
  facet normal -0.99807499964625268 -0.061956924034165646 0.0027630862015336449
    outer loop
      vertex -0.64998520013042382 0.042602280795202278 -0.69062499999999993
      vertex -0.6388637731462502 -0.12707790554961654 -0.47812499999999997
      vertex -0.64960709712677622 0.047409718219043863 -0.44625000000000004
    endloop
  endfacet
  facet normal -0.64267782381327632 -0.76613655100029743 0
    outer loop
      vertex -0.45961940777125665 -0.45961940777125526 -0.53124999999999989
      vertex -0.36188725749301826 -0.54160255499925636 -0.69062499999999993
      vertex -0.36188725749301853 -0.54160255499925614 -0.42499999999999999
    endloop
  endfacet
  facet normal -0.47423838688003478 -0.87992945248992682 0.028672478968518437
    outer loop
      vertex -0.36188725749301826 -0.54160255499925636 -0.69062499999999993
      vertex -0.30370256801881595 -0.5781527442765686 -0.84994763013752084
      vertex -0.20613611911629526 -0.61787850614816686 -0.45535714285714285
    endloop
  endfacet
  facet normal -0.43981945167152903 -0.89808621519949594 2.9116528324387031e-16
    outer loop
      vertex -0.36188725749301826 -0.54160255499925636 -0.69062499999999993
      vertex -0.20613611911629526 -0.61787850614816686 -0.45535714285714285
      vertex -0.36188725749301853 -0.54160255499925614 -0.42499999999999999
    endloop
  endfacet
  facet normal -0.18992870769751477 -0.98170013962014024 0.01385358661680334
    outer loop
      vertex -0.20613611911629526 -0.61787850614816686 -0.45535714285714285
      vertex -0.12006784625363649 -0.64009772394093456 -0.84989564916849236
      vertex -0.039193476234785106 -0.65017676010824244 -0.45535714285714285
    endloop
  endfacet
  facet normal 0.0098765729932464227 -0.99995121233062867 0.00016206299758848581
    outer loop
      vertex -0.039193476234785106 -0.65017676010824244 -0.45535714285714285
      vertex 0.049692848079395315 -0.64936276821828176 -0.84989564916849225
      vertex 0.05087538709803812 -0.64926213495404173 -0.30104166666666665
    endloop
  endfacet
  facet normal 0.19775383920165485 -0.98025168114964223 -0.00024634184829122846
    outer loop
      vertex 0.049692848079395315 -0.64936276821828176 -0.84989564916849225
      vertex 0.20613611911629423 -0.61787850614816708 -0.5464285714285716
      vertex 0.05087538709803812 -0.64926213495404173 -0.30104166666666665
    endloop
  endfacet
  facet normal 0.95007068799935968 -0.311880038263119 0.0098249446521966148
    outer loop
      vertex 0.60052169613233319 -0.24874423103731585 -0.47812500000000008
      vertex 0.63169261446013159 -0.16549839361197899 -0.84981776663429875
      vertex 0.63706703682914434 -0.13518585533697178 -0.40729166666666672
    endloop
  endfacet
  facet normal 0.99704009287010131 -0.075120704322644796 -0.016368658822568497
    outer loop
      vertex 0.63169261446013159 -0.16549839361197899 -0.84981776663429875
      vertex 0.64998520013042393 0.042602280795203944 -0.69062500000000004
      vertex 0.65017676010824221 -0.039193476234786473 -0.30357142857142838
    endloop
  endfacet
  facet normal 0.99122586652909661 -0.13214523175493761 -0.0029865110204425238
    outer loop
      vertex 0.63169261446013159 -0.16549839361197899 -0.84981776663429875
      vertex 0.65017676010824221 -0.039193476234786473 -0.30357142857142838
      vertex 0.63706703682914434 -0.13518585533697178 -0.40729166666666672
    endloop
  endfacet
  facet normal 0.56030660621290873 0.82828354649857416 0.0016951796119873007
    outer loop
      vertex 0.43306840305244299 0.48650675257049919 -0.44625000000000004
      vertex 0.29239474192189602 0.5820157875139762 -0.61624999999999996
      vertex 0.28809794263740751 0.58420483579446125 -0.265625
    endloop
  endfacet
  facet normal 0.32485142165295444 0.94576310628067317 -0.0019237069388275767
    outer loop
      vertex 0.29239474192189602 0.5820157875139762 -0.61624999999999996
      vertex 0.12707790554962078 0.6388637731462492 -0.58437499999999998
      vertex 0.28809794263740751 0.58420483579446125 -0.265625
    endloop
  endfacet
  facet normal 0.066589324304194439 0.99776803563245353 0.0049808592497518674
    outer loop
      vertex 0.12707790554962078 0.6388637731462492 -0.58437499999999998
      vertex -0.037786619319625778 0.65023782835165767 -0.65874999999999995
      vertex -0.047409718219044328 0.64960709712677622 -0.40375000000000005
    endloop
  endfacet
  facet normal -0.76299729605313205 0.64629925038222213 0.011506744586857198
    outer loop
      vertex -0.45961940777125371 0.45961940777125798 -0.63750000000000007
      vertex -0.54160255499925469 0.36188725749302081 -0.58437499999999998
      vertex -0.42748270705918856 0.49146340863181104 -0.29513888888888895
    endloop
  endfacet
  facet normal 0.41067436302926563 -0.91162417824201092 -0.016968358644400848
    outer loop
      vertex 0.20613611911629423 -0.61787850614816708 -0.5464285714285716
      vertex 0.35962755140150876 -0.54308658600250492 -0.84976530927207972
      vertex 0.28809794263740435 -0.58420483579446292 -0.37187500000000001
    endloop
  endfacet
  facet normal 0.56306209408136298 -0.82630946485950918 0.013181293271210589
    outer loop
      vertex 0.35962755140150876 -0.54308658600250492 -0.84976530927207972
      vertex 0.43203042321853907 -0.48745836886633481 -0.45535714285714296
      vertex 0.28809794263740435 -0.58420483579446292 -0.37187500000000001
    endloop
  endfacet
  facet normal 0.95190580237780309 0.30589575778404426 0.017410593591145992
    outer loop
      vertex 0.63886377314624898 0.12707790554962245 -0.37187500000000001
      vertex 0.61568369519035482 0.21260182370094549 -0.60714285714285721
      vertex 0.58420483579446059 0.28809794263740879 -0.21249999999999999
    endloop
  endfacet
  facet normal 0.88983844502492138 0.45598616793157171 -0.0162528893034584
    outer loop
      vertex 0.61568369519035482 0.21260182370094549 -0.60714285714285721
      vertex 0.53967938101211055 0.36470825830326725 -0.50089285714285714
      vertex 0.58420483579446059 0.28809794263740879 -0.21249999999999999
    endloop
  endfacet
  facet normal 0.55057592919778786 0.83472987144506161 -0.0096014532912248266
    outer loop
      vertex 0.43306840305244299 0.48650675257049919 -0.44625000000000004
      vertex 0.28809794263740751 0.58420483579446125 -0.265625
      vertex 0.39569492885566726 0.51567967118930391 -0.053125000000000012
    endloop
  endfacet
  facet normal 0.32143946530316214 0.94693012949510547 -2.1946298029259056e-16
    outer loop
      vertex 0.28809794263740751 0.58420483579446125 -0.265625
      vertex 0.12707790554962078 0.6388637731462492 -0.58437499999999998
      vertex 0.12707790554962073 0.63886377314624931 -0.21249999999999997
    endloop
  endfacet
  facet normal 0.061454318429147593 0.99810989712877252 -2.8880957022044149e-16
    outer loop
      vertex 0.12707790554962078 0.6388637731462492 -0.58437499999999998
      vertex -0.047409718219044328 0.64960709712677622 -0.40375000000000005
      vertex 0.12707790554962073 0.63886377314624931 -0.21249999999999997
    endloop
  endfacet
  facet normal -0.41884543830726101 0.90800689219183817 -0.009590752906724025
    outer loop
      vertex -0.20937919210743414 0.61681120987704074 -0.47812500000000002
      vertex -0.32500000000000057 0.56291651245988472 -0.53125000000000011
      vertex -0.28502192470353443 0.58568630716665238 -0.12142857142857148
    endloop
  endfacet
  facet normal -0.55876578895793461 0.82928263422233794 0.0084324176531368651
    outer loop
      vertex -0.32500000000000057 0.56291651245988472 -0.53125000000000011
      vertex -0.42748270705918856 0.49146340863181104 -0.29513888888888895
      vertex -0.28502192470353443 0.58568630716665238 -0.12142857142857148
    endloop
  endfacet
  facet normal -0.7559257627650865 0.65463839900206822 0.0049807368964005765
    outer loop
      vertex -0.42748270705918856 0.49146340863181104 -0.29513888888888895
      vertex -0.54160255499925469 0.36188725749302081 -0.58437499999999998
      vertex -0.55862515342070795 0.33972486840409888 -0.255
    endloop
  endfacet
  facet normal -0.89665204028125922 0.44242571604401737 -0.016571193149365331
    outer loop
      vertex -0.54160255499925469 0.36188725749302081 -0.58437499999999998
      vertex -0.61568369519035449 0.2126018237009466 -0.56160714285714286
      vertex -0.55862515342070795 0.33972486840409888 -0.255
    endloop
  endfacet
  facet normal -0.9150689903906617 0.40328554521207427 0.0030841284693252638
    outer loop
      vertex -0.61568369519035449 0.2126018237009466 -0.56160714285714286
      vertex -0.62007027220383137 0.19881794628261282 -0.060714285714285714
      vertex -0.55862515342070795 0.33972486840409888 -0.255
    endloop
  endfacet
  facet normal -0.97997867269815453 0.19907829454794684 -0.0031038196861570872
    outer loop
      vertex -0.61568369519035449 0.2126018237009466 -0.56160714285714286
      vertex -0.64960709712677622 0.047409718219043863 -0.44625000000000004
      vertex -0.62007027220383137 0.19881794628261282 -0.060714285714285714
    endloop
  endfacet
  facet normal -0.99815152074951241 -0.060588186773000687 -0.0047553389990300484
    outer loop
      vertex -0.64960709712677622 0.047409718219043863 -0.44625000000000004
      vertex -0.6388637731462502 -0.12707790554961654 -0.47812499999999997
      vertex -0.65023782835165767 0.037786619319624987 -0.19125
    endloop
  endfacet
  facet normal -0.9561292521148943 -0.29278211083540973 -0.0097718383620839615
    outer loop
      vertex -0.6388637731462502 -0.12707790554961654 -0.47812499999999997
      vertex -0.6005216961323333 -0.24874423103731585 -0.58437499999999998
      vertex -0.61520173405739098 -0.21392495981503706 -0.19124999999999998
    endloop
  endfacet
  facet normal -0.88694465241712428 -0.46187572305617713 1.4558661570026339e-15
    outer loop
      vertex -0.6005216961323333 -0.24874423103731585 -0.58437499999999998
      vertex -0.54160255499926024 -0.36188725749301232 -0.58437499999999998
      vertex -0.5416025549992568 -0.36188725749301759 -0.15937499999999999
    endloop
  endfacet
  facet normal -0.89584070650965719 -0.44433611954479657 0.0059026628016863227
    outer loop
      vertex -0.6005216961323333 -0.24874423103731585 -0.58437499999999998
      vertex -0.5416025549992568 -0.36188725749301759 -0.15937499999999999
      vertex -0.61520173405739098 -0.21392495981503706 -0.19124999999999998
    endloop
  endfacet
  facet normal -0.76613655100030198 -0.64267782381327099 -1.7703390518564197e-15
    outer loop
      vertex -0.54160255499926024 -0.36188725749301232 -0.58437499999999998
      vertex -0.45961940777125665 -0.45961940777125526 -0.53124999999999989
      vertex -0.5416025549992568 -0.36188725749301759 -0.15937499999999999
    endloop
  endfacet
  facet normal 0.75265974814890468 -0.65840773293993293 -0.0016002253983479267
    outer loop
      vertex 0.43203042321853907 -0.48745836886633481 -0.45535714285714296
      vertex 0.54160255499925836 -0.3618872574930152 -0.58437499999999998
      vertex 0.53887138948093016 -0.36586156892734389 -0.23375000000000001
    endloop
  endfacet
  facet normal 0.88630605651848504 -0.46309700534305565 0.0016546361973916407
    outer loop
      vertex 0.54160255499925836 -0.3618872574930152 -0.58437499999999998
      vertex 0.60052169613233319 -0.24874423103731585 -0.47812500000000008
      vertex 0.53887138948093016 -0.36586156892734389 -0.23375000000000001
    endloop
  endfacet
  facet normal 0.99802027302142338 0.059318099169683967 -0.020902099156284108
    outer loop
      vertex 0.65017676010824221 -0.039193476234786473 -0.30357142857142838
      vertex 0.63886377314624898 0.12707790554962245 -0.37187500000000001
      vertex 0.64960709712677589 0.047409718219046423 -0.084999999999999992
    endloop
  endfacet
  facet normal 0.83420348579449077 0.55117507821755141 0.017623207432151705
    outer loop
      vertex 0.58420483579446059 0.28809794263740879 -0.21249999999999999
      vertex 0.53967938101211055 0.36470825830326725 -0.50089285714285714
      vertex 0.4841233101392296 0.43560790336871802 -0.088541666666666644
    endloop
  endfacet
  facet normal 0.74954588434450387 0.66182846035023724 -0.012808447706497044
    outer loop
      vertex 0.53967938101211055 0.36470825830326725 -0.50089285714285714
      vertex 0.43306840305244299 0.48650675257049919 -0.44625000000000004
      vertex 0.4841233101392296 0.43560790336871802 -0.088541666666666644
    endloop
  endfacet
  facet normal 0.67319204792439635 0.73941134193802704 0.0091287471628560442
    outer loop
      vertex 0.43306840305244299 0.48650675257049919 -0.44625000000000004
      vertex 0.39569492885566726 0.51567967118930391 -0.053125000000000012
      vertex 0.4841233101392296 0.43560790336871802 -0.088541666666666644
    endloop
  endfacet
  facet normal 0.065253944973453396 0.99786262021901662 -0.0034804935052482697
    outer loop
      vertex 0.12707790554962073 0.63886377314624931 -0.21249999999999997
      vertex -0.047409718219044328 0.64960709712677622 -0.40375000000000005
      vertex -0.037786619319625257 0.65023782835165767 -0.042500000000000024
    endloop
  endfacet
  facet normal -0.1369845961457965 0.99057131787860853 0.0019195351024220927
    outer loop
      vertex -0.047409718219044328 0.64960709712677622 -0.40375000000000005
      vertex -0.13785374389293509 0.63640558100135358 -0.045535714285714311
      vertex -0.037786619319625257 0.65023782835165767 -0.042500000000000024
    endloop
  endfacet
  facet normal -0.19290149669097248 0.98113791171549791 -0.012546344843598156
    outer loop
      vertex -0.047409718219044328 0.64960709712677622 -0.40375000000000005
      vertex -0.20937919210743414 0.61681120987704074 -0.47812500000000002
      vertex -0.13785374389293509 0.63640558100135358 -0.045535714285714311
    endloop
  endfacet
  facet normal -0.33135459327251643 0.94342929642011131 0.012053886238848578
    outer loop
      vertex -0.20937919210743414 0.61681120987704074 -0.47812500000000002
      vertex -0.28502192470353443 0.58568630716665238 -0.12142857142857148
      vertex -0.13785374389293509 0.63640558100135358 -0.045535714285714311
    endloop
  endfacet
  facet normal -0.96005591191437345 0.25254767164142045 -0.120467089060697
    outer loop
      vertex -0.55862515342070795 0.33972486840409888 -0.255
      vertex -0.62007027220383137 0.19881794628261282 -0.060714285714285714
      vertex -0.58420483579445626 0.28809794263741767 -0.15937499999999999
    endloop
  endfacet
  facet normal -0.98352880281212329 0.18069823862252973 0.0043864105674961615
    outer loop
      vertex -0.62007027220383137 0.19881794628261282 -0.060714285714285714
      vertex -0.64960709712677622 0.047409718219043863 -0.44625000000000004
      vertex -0.65023782835165767 0.037786619319624987 -0.19125
    endloop
  endfacet
  facet normal -0.99889137201967448 -0.045029027118891334 -0.013726384133426649
    outer loop
      vertex -0.65023782835165767 0.037786619319624987 -0.19125
      vertex -0.6388637731462502 -0.12707790554961654 -0.47812499999999997
      vertex -0.64895456730702983 -0.053606788808089841 0.015178571428571449
    endloop
  endfacet
  facet normal -0.97491546439171184 -0.22218670349659167 0.013149375620554703
    outer loop
      vertex -0.6388637731462502 -0.12707790554961654 -0.47812499999999997
      vertex -0.61520173405739098 -0.21392495981503706 -0.19124999999999998
      vertex -0.64895456730702983 -0.053606788808089841 0.015178571428571449
    endloop
  endfacet
  facet normal -0.75843051158134844 -0.65174113441624626 0.0040807857427805454
    outer loop
      vertex -0.5416025549992568 -0.36188725749301759 -0.15937499999999999
      vertex -0.45961940777125665 -0.45961940777125526 -0.53124999999999989
      vertex -0.43758763471874251 -0.48221652831090928 -0.045535714285714332
    endloop
  endfacet
  facet normal -0.63827406592967162 -0.76977863301785643 -0.0068609701038254006
    outer loop
      vertex -0.45961940777125665 -0.45961940777125526 -0.53124999999999989
      vertex -0.36188725749301853 -0.54160255499925614 -0.42499999999999999
      vertex -0.43758763471874251 -0.48221652831090928 -0.045535714285714332
    endloop
  endfacet
  facet normal -0.55300857930711222 -0.83293469073341553 0.020032777779403758
    outer loop
      vertex -0.36188725749301853 -0.54160255499925614 -0.42499999999999999
      vertex -0.28809794263740773 -0.58420483579446136 -0.15937499999999999
      vertex -0.43758763471874251 -0.48221652831090928 -0.045535714285714332
    endloop
  endfacet
  facet normal -0.44297583741049695 -0.89629464617952159 -0.020695765276868058
    outer loop
      vertex -0.36188725749301853 -0.54160255499925614 -0.42499999999999999
      vertex -0.20613611911629526 -0.61787850614816686 -0.45535714285714285
      vertex -0.28809794263740773 -0.58420483579446136 -0.15937499999999999
    endloop
  endfacet
  facet normal -0.32645227513244385 -0.9450586468409341 0.017119173228687577
    outer loop
      vertex -0.20613611911629526 -0.61787850614816686 -0.45535714285714285
      vertex -0.12707790554962328 -0.63886377314624887 -0.10624999999999998
      vertex -0.28809794263740773 -0.58420483579446136 -0.15937499999999999
    endloop
  endfacet
  facet normal -0.18992262197258183 -0.98166868383291983 -0.015999776398515495
    outer loop
      vertex -0.20613611911629526 -0.61787850614816686 -0.45535714285714285
      vertex -0.039193476234785106 -0.65017676010824244 -0.45535714285714285
      vertex -0.12707790554962328 -0.63886377314624887 -0.10624999999999998
    endloop
  endfacet
  facet normal -0.031669964444461504 -0.99920033712799894 0.024406958749087014
    outer loop
      vertex -0.039193476234785106 -0.65017676010824244 -0.45535714285714285
      vertex 0.05087538709803812 -0.64926213495404173 -0.30104166666666665
      vertex -0.12707790554962328 -0.63886377314624887 -0.10624999999999998
    endloop
  endfacet
  facet normal 0.19935691521574375 -0.97992661205841469 0.00080952787456580833
    outer loop
      vertex 0.05087538709803812 -0.64926213495404173 -0.30104166666666665
      vertex 0.20613611911629423 -0.61787850614816708 -0.5464285714285716
      vertex 0.209379192107434 -0.61681120987704074 -0.053124999999999992
    endloop
  endfacet
  facet normal 0.38094095269466022 -0.92459923026100566 -0.00050394527539974565
    outer loop
      vertex 0.20613611911629423 -0.61787850614816708 -0.5464285714285716
      vertex 0.28809794263740435 -0.58420483579446292 -0.37187500000000001
      vertex 0.209379192107434 -0.61681120987704074 -0.053124999999999992
    endloop
  endfacet
  facet normal 0.42245984957146587 -0.90630714059962625 0.011620774422720472
    outer loop
      vertex 0.28809794263740435 -0.58420483579446292 -0.37187500000000001
      vertex 0.32500000000000417 -0.56291651245988272 -0.053124999999999978
      vertex 0.209379192107434 -0.61681120987704074 -0.053124999999999992
    endloop
  endfacet
  facet normal 0.5572199110449586 -0.83036344126744654 -0.0015893840103576417
    outer loop
      vertex 0.28809794263740435 -0.58420483579446292 -0.37187500000000001
      vertex 0.43203042321853907 -0.48745836886633481 -0.45535714285714296
      vertex 0.42948458103881426 -0.48973330432742151 -0.15937500000000002
    endloop
  endfacet
  facet normal 0.56644675794835075 -0.82403088540937053 -0.010543732794960497
    outer loop
      vertex 0.28809794263740435 -0.58420483579446292 -0.37187500000000001
      vertex 0.42948458103881426 -0.48973330432742151 -0.15937500000000002
      vertex 0.32500000000000417 -0.56291651245988272 -0.053124999999999978
    endloop
  endfacet
  facet normal 0.74997929300130106 -0.66145989440703801 0.0013668066061840987
    outer loop
      vertex 0.43203042321853907 -0.48745836886633481 -0.45535714285714296
      vertex 0.53887138948093016 -0.36586156892734389 -0.23375000000000001
      vertex 0.42948458103881426 -0.48973330432742151 -0.15937500000000002
    endloop
  endfacet
  facet normal 0.89085257566718168 -0.45423784811891549 0.0070473940889686287
    outer loop
      vertex 0.53887138948093016 -0.36586156892734389 -0.23375000000000001
      vertex 0.60052169613233319 -0.24874423103731585 -0.47812500000000008
      vertex 0.61681120987704063 -0.20937919210743436 -0
    endloop
  endfacet
  facet normal 0.95326702638918359 -0.30203320793177529 -0.0076103682936296373
    outer loop
      vertex 0.60052169613233319 -0.24874423103731585 -0.47812500000000008
      vertex 0.63706703682914434 -0.13518585533697178 -0.40729166666666672
      vertex 0.61681120987704063 -0.20937919210743436 -0
    endloop
  endfacet
  facet normal 0.98877394447977407 0.14935295066969506 0.0044477909308158863
    outer loop
      vertex 0.64960709712677589 0.047409718219046423 -0.084999999999999992
      vertex 0.63886377314624898 0.12707790554962245 -0.37187500000000001
      vertex 0.63050865523312172 0.1689442849905522 0.079687500000000008
    endloop
  endfacet
  facet normal 0.94271321880989623 0.33333250815625143 -0.013462023894911565
    outer loop
      vertex 0.63886377314624898 0.12707790554962245 -0.37187500000000001
      vertex 0.58420483579446059 0.28809794263740879 -0.21249999999999999
      vertex 0.63050865523312172 0.1689442849905522 0.079687500000000008
    endloop
  endfacet
  facet normal 0.19854901244325249 -0.98009003364351244 0.0013474459053482355
    outer loop
      vertex 0.05087538709803812 -0.64926213495404173 -0.30104166666666665
      vertex 0.209379192107434 -0.61681120987704074 -0.053124999999999992
      vertex 0.046006926154540884 -0.64973018300678342 0.075892857142857123
    endloop
  endfacet
  facet normal 0.89724180193457914 -0.44152489741567147 -0.0035935808423213367
    outer loop
      vertex 0.53887138948093016 -0.36586156892734389 -0.23375000000000001
      vertex 0.61681120987704063 -0.20937919210743436 -0
      vertex 0.5434728530866012 -0.35903092613607418 0.075892857142857095
    endloop
  endfacet
  facet normal 0.98738510191262463 -0.15700379068656733 0.02050537078534146
    outer loop
      vertex 0.63706703682914434 -0.13518585533697178 -0.40729166666666672
      vertex 0.65017676010824221 -0.039193476234786473 -0.30357142857142838
      vertex 0.61681120987704063 -0.20937919210743436 -0
    endloop
  endfacet
  facet normal 0.90637029403496916 0.42153748894384696 0.028267216097092911
    outer loop
      vertex 0.58420483579446059 0.28809794263740879 -0.21249999999999999
      vertex 0.54160255499925247 0.36188725749302364 0.053124999999999999
      vertex 0.63050865523312172 0.1689442849905522 0.079687500000000008
    endloop
  endfacet
  facet normal 0.81530052029682754 0.57826671134018592 -0.029877619709881231
    outer loop
      vertex 0.58420483579446059 0.28809794263740879 -0.21249999999999999
      vertex 0.4841233101392296 0.43560790336871802 -0.088541666666666644
      vertex 0.54160255499925247 0.36188725749302364 0.053124999999999999
    endloop
  endfacet
  facet normal 0.5268637616562083 0.84991837599501707 0.0073027939490965619
    outer loop
      vertex 0.39569492885566726 0.51567967118930391 -0.053125000000000012
      vertex 0.28809794263740751 0.58420483579446125 -0.265625
      vertex 0.25540645478605428 0.60138910243503096 0.092968750000000017
    endloop
  endfacet
  facet normal 0.31648025141614422 0.94845386069977511 -0.016598933317099371
    outer loop
      vertex 0.28809794263740751 0.58420483579446125 -0.265625
      vertex 0.12707790554962073 0.63886377314624931 -0.21249999999999997
      vertex 0.25540645478605428 0.60138910243503096 0.092968750000000017
    endloop
  endfacet
  facet normal 0.22406351082262421 0.97424376469925222 0.025389566015747538
    outer loop
      vertex 0.12707790554962073 0.63886377314624931 -0.21249999999999997
      vertex 0.042602280795201418 0.64998520013042405 0.10625000000000001
      vertex 0.25540645478605428 0.60138910243503096 0.092968750000000017
    endloop
  endfacet
  facet normal 0.045368211305540355 0.99870960432890354 -0.022822173957370687
    outer loop
      vertex 0.12707790554962073 0.63886377314624931 -0.21249999999999997
      vertex -0.037786619319625257 0.65023782835165767 -0.042500000000000024
      vertex 0.042602280795201418 0.64998520013042405 0.10625000000000001
    endloop
  endfacet
  facet normal -0.53333748414309656 0.84563456747696253 -0.021290990957744008
    outer loop
      vertex -0.28502192470353443 0.58568630716665238 -0.12142857142857148
      vertex -0.42748270705918856 0.49146340863181104 -0.29513888888888895
      vertex -0.36188725749301281 0.5416025549992598 0.053124999999999992
    endloop
  endfacet
  facet normal -0.63468272514983903 0.77272831877834558 0.008293597190924042
    outer loop
      vertex -0.42748270705918856 0.49146340863181104 -0.29513888888888895
      vertex -0.45961940777125154 0.45961940777126026 0.21249999999999999
      vertex -0.36188725749301281 0.5416025549992598 0.053124999999999992
    endloop
  endfacet
  facet normal -0.75724971740360347 0.65310522696597173 -0.0051408172394556339
    outer loop
      vertex -0.42748270705918856 0.49146340863181104 -0.29513888888888895
      vertex -0.55862515342070795 0.33972486840409888 -0.255
      vertex -0.54160255499925758 0.36188725749301631 0.053124999999999999
    endloop
  endfacet
  facet normal -0.76016667363675539 0.6496863324777159 -0.0073686961998278592
    outer loop
      vertex -0.42748270705918856 0.49146340863181104 -0.29513888888888895
      vertex -0.54160255499925758 0.36188725749301631 0.053124999999999999
      vertex -0.45961940777125154 0.45961940777126026 0.21249999999999999
    endloop
  endfacet
  facet normal -0.88437498863809483 0.46652622514789288 0.015302310957077568
    outer loop
      vertex -0.55862515342070795 0.33972486840409888 -0.255
      vertex -0.58420483579445626 0.28809794263741767 -0.15937499999999999
      vertex -0.54160255499925758 0.36188725749301631 0.053124999999999999
    endloop
  endfacet
  facet normal -0.91104147009631886 0.41035488123456437 0.04015359525254078
    outer loop
      vertex -0.58420483579445626 0.28809794263741767 -0.15937499999999999
      vertex -0.62007027220383137 0.19881794628261282 -0.060714285714285714
      vertex -0.54160255499925758 0.36188725749301631 0.053124999999999999
    endloop
  endfacet
  facet normal -0.98037528231302296 0.1965029745348352 -0.01583940745805397
    outer loop
      vertex -0.62007027220383137 0.19881794628261282 -0.060714285714285714
      vertex -0.65023782835165767 0.037786619319624987 -0.19125
      vertex -0.63886377314624876 0.12707790554962287 0.21249999999999988
    endloop
  endfacet
  facet normal -0.99923656057881005 0.033044249869702912 0.020841630290811382
    outer loop
      vertex -0.65023782835165767 0.037786619319624987 -0.19125
      vertex -0.64895456730702983 -0.053606788808089841 0.015178571428571449
      vertex -0.63886377314624876 0.12707790554962287 0.21249999999999988
    endloop
  endfacet
  facet normal -0.97870572854746618 -0.20526744604185165 -0.00061033091766387454
    outer loop
      vertex -0.64895456730702983 -0.053606788808089841 0.015178571428571449
      vertex -0.61520173405739098 -0.21392495981503706 -0.19124999999999998
      vertex -0.61568369519035238 -0.21260182370095246 0.13660714285714284
    endloop
  endfacet
  facet normal -0.89539102207940213 -0.44528045818611345 0.00048076727047553699
    outer loop
      vertex -0.61520173405739098 -0.21392495981503706 -0.19124999999999998
      vertex -0.5416025549992568 -0.36188725749301759 -0.15937499999999999
      vertex -0.61568369519035238 -0.21260182370095246 0.13660714285714284
    endloop
  endfacet
  facet normal -0.57886865097084839 -0.81486451999230158 -0.030114763504069043
    outer loop
      vertex -0.43758763471874251 -0.48221652831090928 -0.045535714285714332
      vertex -0.28809794263740773 -0.58420483579446136 -0.15937499999999999
      vertex -0.36188725749301348 -0.54160255499925958 0.10625
    endloop
  endfacet
  facet normal -0.49844564463439134 -0.86692076239198235 0.00057539439541145522
    outer loop
      vertex -0.28809794263740773 -0.58420483579446136 -0.15937499999999999
      vertex -0.28502192470352833 -0.58568630716665548 0.27321428571428574
      vertex -0.36188725749301348 -0.54160255499925958 0.10625
    endloop
  endfacet
  facet normal -0.32115541649451496 -0.94702601739687431 -0.00095959869212066914
    outer loop
      vertex -0.28809794263740773 -0.58420483579446136 -0.15937499999999999
      vertex -0.12707790554962328 -0.63886377314624887 -0.10624999999999998
      vertex -0.28502192470352833 -0.58568630716665548 0.27321428571428574
    endloop
  endfacet
  facet normal -0.060538420112784208 -0.99816382113561597 -0.0020213525654255945
    outer loop
      vertex -0.12707790554962328 -0.63886377314624887 -0.10624999999999998
      vertex 0.05087538709803812 -0.64926213495404173 -0.30104166666666665
      vertex 0.046006926154540884 -0.64973018300678342 0.075892857142857123
    endloop
  endfacet
  facet normal 0.57238152740019144 -0.81998518096416584 -0.0019209607460820247
    outer loop
      vertex 0.32500000000000417 -0.56291651245988272 -0.053124999999999978
      vertex 0.42948458103881426 -0.48973330432742151 -0.15937500000000002
      vertex 0.42581785023841662 -0.49286531673208589 0.084999999999999937
    endloop
  endfacet
  facet normal 0.75058714050696917 -0.66076261518267299 0.0034221166733442903
    outer loop
      vertex 0.42948458103881426 -0.48973330432742151 -0.15937500000000002
      vertex 0.53887138948093016 -0.36586156892734389 -0.23375000000000001
      vertex 0.5434728530866012 -0.35903092613607418 0.075892857142857095
    endloop
  endfacet
  facet normal 0.75113717827845417 -0.66014017019085725 0.0028098235296669795
    outer loop
      vertex 0.42948458103881426 -0.48973330432742151 -0.15937500000000002
      vertex 0.5434728530866012 -0.35903092613607418 0.075892857142857095
      vertex 0.42581785023841662 -0.49286531673208589 0.084999999999999937
    endloop
  endfacet
  facet normal 0.98069140135750832 -0.19555302153174042 -0.001841486696451822
    outer loop
      vertex 0.61681120987704063 -0.20937919210743436 -0
      vertex 0.65017676010824221 -0.039193476234786473 -0.30357142857142838
      vertex 0.64973018300678309 -0.046006926154542965 0.18214285714285711
    endloop
  endfacet
  facet normal 0.99999106924664549 0.0041117775121933967 0.0009770939774846484
    outer loop
      vertex 0.65017676010824221 -0.039193476234786473 -0.30357142857142838
      vertex 0.64960709712677589 0.047409718219046423 -0.084999999999999992
      vertex 0.64973018300678309 -0.046006926154542965 0.18214285714285711
    endloop
  endfacet
  facet normal 0.99364825866242112 0.10636515464142982 0.036736792664072947
    outer loop
      vertex 0.64960709712677589 0.047409718219046423 -0.084999999999999992
      vertex 0.63050865523312172 0.1689442849905522 0.079687500000000008
      vertex 0.64973018300678309 -0.046006926154542965 0.18214285714285711
    endloop
  endfacet
  facet normal -0.89704713868744124 -0.44193189285671075 -0.0016226671745355301
    outer loop
      vertex -0.61568369519035238 -0.21260182370095246 0.13660714285714284
      vertex -0.5416025549992568 -0.36188725749301759 -0.15937499999999999
      vertex -0.5442291681943463 -0.35784308642975904 0.19125
    endloop
  endfacet
  facet normal -0.7573974048913984 -0.65295154571866587 0.0018574195487802607
    outer loop
      vertex -0.5416025549992568 -0.36188725749301759 -0.15937499999999999
      vertex -0.43758763471874251 -0.48221652831090928 -0.045535714285714332
      vertex -0.5442291681943463 -0.35784308642975904 0.19125
    endloop
  endfacet
  facet normal -0.31624902755090589 -0.94867530100597297 0.0013137101402919988
    outer loop
      vertex -0.28502192470352833 -0.58568630716665548 0.27321428571428574
      vertex -0.12707790554962328 -0.63886377314624887 -0.10624999999999998
      vertex -0.12372326737925372 -0.63949863258119577 0.24285714285714285
    endloop
  endfacet
  facet normal -0.061372962435784439 -0.9981141507871627 -0.0012253490428883972
    outer loop
      vertex -0.12707790554962328 -0.63886377314624887 -0.10624999999999998
      vertex 0.046006926154540884 -0.64973018300678342 0.075892857142857123
      vertex -0.12372326737925372 -0.63949863258119577 0.24285714285714285
    endloop
  endfacet
  facet normal 0.90821801900490995 0.41849734760783969 -1.6907723886749559e-15
    outer loop
      vertex 0.63050865523312172 0.1689442849905522 0.079687500000000008
      vertex 0.54160255499925247 0.36188725749302364 0.053124999999999999
      vertex 0.5416025549992538 0.36188725749302203 0.37187499999999996
    endloop
  endfacet
  facet normal 0.88639825150542717 0.46159118521553871 -0.03509583250808937
    outer loop
      vertex 0.63050865523312172 0.1689442849905522 0.079687500000000008
      vertex 0.5416025549992538 0.36188725749302203 0.37187499999999996
      vertex 0.60052169613233641 0.24874423103730836 0.37187500000000001
    endloop
  endfacet
  facet normal 0.77378324781504026 0.63325872850153919 0.015584228483364703
    outer loop
      vertex 0.54160255499925247 0.36188725749302364 0.053124999999999999
      vertex 0.4841233101392296 0.43560790336871802 -0.088541666666666644
      vertex 0.42948458103881382 0.48973330432742163 0.42500000000000004
    endloop
  endfacet
  facet normal 0.75183980747897183 0.65934581510007506 1.8754031154296502e-16
    outer loop
      vertex 0.54160255499925247 0.36188725749302364 0.053124999999999999
      vertex 0.42948458103881382 0.48973330432742163 0.42500000000000004
      vertex 0.5416025549992538 0.36188725749302203 0.37187499999999996
    endloop
  endfacet
  facet normal 0.66964973341072054 0.74264385731060556 -0.0070239406159074052
    outer loop
      vertex 0.4841233101392296 0.43560790336871802 -0.088541666666666644
      vertex 0.39569492885566726 0.51567967118930391 -0.053125000000000012
      vertex 0.42948458103881382 0.48973330432742163 0.42500000000000004
    endloop
  endfacet
  facet normal 0.22078901078436133 0.97487839252807174 -0.029399532287881273
    outer loop
      vertex 0.25540645478605428 0.60138910243503096 0.092968750000000017
      vertex 0.042602280795201418 0.64998520013042405 0.10625000000000001
      vertex 0.12707790554962323 0.63886377314624865 0.37187500000000001
    endloop
  endfacet
  facet normal 0.0009603492728615774 0.99999884344506929 0.0011793378640926977
    outer loop
      vertex 0.042602280795201418 0.64998520013042405 0.10625000000000001
      vertex -0.037786619319625257 0.65023782835165767 -0.042500000000000024
      vertex -0.046006926154541369 0.64973018300678331 0.39464285714285713
    endloop
  endfacet
  facet normal -0.13688518755651335 0.99058589654311191 -0.0014237266230519552
    outer loop
      vertex -0.037786619319625257 0.65023782835165767 -0.042500000000000024
      vertex -0.13785374389293509 0.63640558100135358 -0.045535714285714311
      vertex -0.046006926154541369 0.64973018300678331 0.39464285714285713
    endloop
  endfacet
  facet normal -0.32146112690959361 0.94687577656024013 -0.0094343865437336687
    outer loop
      vertex -0.13785374389293509 0.63640558100135358 -0.045535714285714311
      vertex -0.28502192470353443 0.58568630716665238 -0.12142857142857148
      vertex -0.20937919210743569 0.61681120987704008 0.42499999999999999
    endloop
  endfacet
  facet normal -0.49750552020494571 0.86746081027652555 1.1055335307699789e-15
    outer loop
      vertex -0.28502192470353443 0.58568630716665238 -0.12142857142857148
      vertex -0.36188725749301281 0.5416025549992598 0.053124999999999992
      vertex -0.36188725749301726 0.54160255499925691 0.31874999999999998
    endloop
  endfacet
  facet normal -0.44851706780036238 0.89370430515586985 0.011182792031907475
    outer loop
      vertex -0.28502192470353443 0.58568630716665238 -0.12142857142857148
      vertex -0.36188725749301726 0.54160255499925691 0.31874999999999998
      vertex -0.20937919210743569 0.61681120987704008 0.42499999999999999
    endloop
  endfacet
  facet normal -0.64267782381327021 0.76613655100030242 -2.4190062247250154e-15
    outer loop
      vertex -0.36188725749301281 0.5416025549992598 0.053124999999999992
      vertex -0.45961940777125154 0.45961940777126026 0.21249999999999999
      vertex -0.36188725749301726 0.54160255499925691 0.31874999999999998
    endloop
  endfacet
  facet normal -0.76425523412721719 0.64490966691500418 -0.0023363708461399632
    outer loop
      vertex -0.45961940777125154 0.45961940777126026 0.21249999999999999
      vertex -0.54160255499925758 0.36188725749301631 0.053124999999999999
      vertex -0.53384391862858172 0.37271760517504204 0.50468749999999996
    endloop
  endfacet
  facet normal -0.86049891688761282 0.50944580515286653 0.0025662516230562571
    outer loop
      vertex -0.54160255499925758 0.36188725749301631 0.053124999999999999
      vertex -0.58201578751397209 0.2923947419219039 0.29750000000000004
      vertex -0.53384391862858172 0.37271760517504204 0.50468749999999996
    endloop
  endfacet
  facet normal -0.89500493447222373 0.44554686569146473 -0.02131097705132835
    outer loop
      vertex -0.54160255499925758 0.36188725749301631 0.053124999999999999
      vertex -0.62007027220383137 0.19881794628261282 -0.060714285714285714
      vertex -0.58201578751397209 0.2923947419219039 0.29750000000000004
    endloop
  endfacet
  facet normal -0.94830316527807468 0.31685678539645362 0.017968980822799827
    outer loop
      vertex -0.62007027220383137 0.19881794628261282 -0.060714285714285714
      vertex -0.63886377314624876 0.12707790554962287 0.21249999999999988
      vertex -0.58201578751397209 0.2923947419219039 0.29750000000000004
    endloop
  endfacet
  facet normal -0.99620015050985955 0.083321828352012101 -0.025352180265429854
    outer loop
      vertex -0.63886377314624876 0.12707790554962287 0.21249999999999988
      vertex -0.64895456730702983 -0.053606788808089841 0.015178571428571449
      vertex -0.64998520013042382 0.042602280795203347 0.37187500000000001
    endloop
  endfacet
  facet normal 0.19752671609500383 -0.9802975040408517 -2.5716400991197519e-16
    outer loop
      vertex 0.046006926154540884 -0.64973018300678342 0.075892857142857123
      vertex 0.209379192107434 -0.61681120987704074 -0.053124999999999992
      vertex 0.20937919210743292 -0.61681120987704108 0.3718749999999999
    endloop
  endfacet
  facet normal 0.42247728032455251 -0.90634453496030809 0.0072478656963413501
    outer loop
      vertex 0.209379192107434 -0.61681120987704074 -0.053124999999999992
      vertex 0.32500000000000417 -0.56291651245988272 -0.053124999999999978
      vertex 0.35903092613607013 -0.54347285308660409 0.39464285714285707
    endloop
  endfacet
  facet normal 0.44005882940286084 -0.89796894526736482 4.1709557399429437e-16
    outer loop
      vertex 0.209379192107434 -0.61681120987704074 -0.053124999999999992
      vertex 0.35903092613607013 -0.54347285308660409 0.39464285714285707
      vertex 0.20937919210743292 -0.61681120987704108 0.3718749999999999
    endloop
  endfacet
  facet normal 0.57845637575235642 -0.81566857102663703 -0.0085442138791427154
    outer loop
      vertex 0.32500000000000417 -0.56291651245988272 -0.053124999999999978
      vertex 0.42581785023841662 -0.49286531673208589 0.084999999999999937
      vertex 0.35903092613607013 -0.54347285308660409 0.39464285714285707
    endloop
  endfacet
  facet normal 0.7505914970455202 -0.66065979542406883 -0.011875995671614126
    outer loop
      vertex 0.42581785023841662 -0.49286531673208589 0.084999999999999937
      vertex 0.5434728530866012 -0.35903092613607418 0.075892857142857095
      vertex 0.45961940777124821 -0.45961940777126364 0.37187500000000001
    endloop
  endfacet
  facet normal 0.89796894526736237 -0.44005882940286623 9.5518060824445727e-16
    outer loop
      vertex 0.5434728530866012 -0.35903092613607418 0.075892857142857095
      vertex 0.61681120987704063 -0.20937919210743436 -0
      vertex 0.61681120987704152 -0.20937919210743164 0.42499999999999999
    endloop
  endfacet
  facet normal 0.99650107664344489 0.082377978793644904 -0.014123486054407648
    outer loop
      vertex 0.64973018300678309 -0.046006926154542965 0.18214285714285711
      vertex 0.63050865523312172 0.1689442849905522 0.079687500000000008
      vertex 0.63886377314624898 0.12707790554962237 0.42500000000000004
    endloop
  endfacet
  facet normal 0.95188609459599605 0.30612825011328826 0.014083941115989242
    outer loop
      vertex 0.63050865523312172 0.1689442849905522 0.079687500000000008
      vertex 0.60052169613233641 0.24874423103730836 0.37187500000000001
      vertex 0.63886377314624898 0.12707790554962237 0.42500000000000004
    endloop
  endfacet
  facet normal 0.51739267875027739 0.85573228683430935 -0.0052028112531038563
    outer loop
      vertex 0.39569492885566726 0.51567967118930391 -0.053125000000000012
      vertex 0.25540645478605428 0.60138910243503096 0.092968750000000017
      vertex 0.28502192470352022 0.58568630716665937 0.4553571428571429
    endloop
  endfacet
  facet normal 0.55414645802464313 0.8323974948352918 0.006009463426369533
    outer loop
      vertex 0.39569492885566726 0.51567967118930391 -0.053125000000000012
      vertex 0.28502192470352022 0.58568630716665937 0.4553571428571429
      vertex 0.42948458103881382 0.48973330432742163 0.42500000000000004
    endloop
  endfacet
  facet normal 0.31158036357307234 0.95009000422205125 0.015705442146424883
    outer loop
      vertex 0.25540645478605428 0.60138910243503096 0.092968750000000017
      vertex 0.12707790554962323 0.63886377314624865 0.37187500000000001
      vertex 0.28502192470352022 0.58568630716665937 0.4553571428571429
    endloop
  endfacet
  facet normal 0.065391556041078963 0.99763923436501856 0.020973851675502201
    outer loop
      vertex 0.12707790554962323 0.63886377314624865 0.37187500000000001
      vertex 0.042602280795201418 0.64998520013042405 0.10625000000000001
      vertex -0.046006926154541369 0.64973018300678331 0.39464285714285713
    endloop
  endfacet
  facet normal -0.19552951050666853 0.98063483877214319 0.011114112981030544
    outer loop
      vertex -0.046006926154541369 0.64973018300678331 0.39464285714285713
      vertex -0.13785374389293509 0.63640558100135358 -0.045535714285714311
      vertex -0.20937919210743569 0.61681120987704008 0.42499999999999999
    endloop
  endfacet
  facet normal -0.99767326045512783 -0.066494301152281901 0.015052351547331226
    outer loop
      vertex -0.64998520013042382 0.042602280795203347 0.37187500000000001
      vertex -0.64895456730702983 -0.053606788808089841 0.015178571428571449
      vertex -0.63706703682914556 -0.13518585533696714 0.44270833333333331
    endloop
  endfacet
  facet normal -0.97653088081654937 -0.21493104490845133 -0.013859464138839799
    outer loop
      vertex -0.64895456730702983 -0.053606788808089841 0.015178571428571449
      vertex -0.61568369519035238 -0.21260182370095246 0.13660714285714284
      vertex -0.63706703682914556 -0.13518585533696714 0.44270833333333331
    endloop
  endfacet
  facet normal -0.75670669468917195 -0.65374940356435052 0.0025875764422141445
    outer loop
      vertex -0.5442291681943463 -0.35784308642975904 0.19125
      vertex -0.43758763471874251 -0.48221652831090928 -0.045535714285714332
      vertex -0.42948458103881304 -0.48973330432742235 0.42499999999999999
    endloop
  endfacet
  facet normal -0.74124429222753496 -0.67107267568390927 -0.014777117125453654
    outer loop
      vertex -0.5442291681943463 -0.35784308642975904 0.19125
      vertex -0.42948458103881304 -0.48973330432742235 0.42499999999999999
      vertex -0.51567967118930835 -0.39569492885566138 0.47812499999999997
    endloop
  endfacet
  facet normal -0.6147205072574301 -0.78874244308314412 -0.0020140596816364646
    outer loop
      vertex -0.43758763471874251 -0.48221652831090928 -0.045535714285714332
      vertex -0.36188725749301348 -0.54160255499925958 0.10625
      vertex -0.42948458103881304 -0.48973330432742235 0.42499999999999999
    endloop
  endfacet
  facet normal -0.5356888144744103 -0.84408137527624394 0.023751335936439553
    outer loop
      vertex -0.36188725749301348 -0.54160255499925958 0.10625
      vertex -0.28502192470352833 -0.58568630716665548 0.27321428571428574
      vertex -0.42948458103881304 -0.48973330432742235 0.42499999999999999
    endloop
  endfacet
  facet normal -0.058166597675316775 -0.99830479391710181 0.0020458145104118538
    outer loop
      vertex -0.12372326737925372 -0.63949863258119577 0.24285714285714285
      vertex 0.046006926154540884 -0.64973018300678342 0.075892857142857123
      vertex 0.05087538709803812 -0.64926213495404161 0.44270833333333331
    endloop
  endfacet
  facet normal 0.1999700264197681 -0.97980100926212577 -0.0014038456457266667
    outer loop
      vertex 0.046006926154540884 -0.64973018300678342 0.075892857142857123
      vertex 0.20937919210743292 -0.61681120987704108 0.3718749999999999
      vertex 0.05087538709803812 -0.64926213495404161 0.44270833333333331
    endloop
  endfacet
  facet normal 0.64202239519723869 -0.76657240585209951 0.013190551592894369
    outer loop
      vertex 0.42581785023841662 -0.49286531673208589 0.084999999999999937
      vertex 0.45961940777124821 -0.45961940777126364 0.37187500000000001
      vertex 0.35903092613607013 -0.54347285308660409 0.39464285714285707
    endloop
  endfacet
  facet normal 0.76644352129589621 -0.64231067882470816 -0.0011491437201918172
    outer loop
      vertex 0.45961940777124821 -0.45961940777126364 0.37187500000000001
      vertex 0.5434728530866012 -0.35903092613607418 0.075892857142857095
      vertex 0.54160255499926113 -0.36188725749301087 0.42499999999999993
    endloop
  endfacet
  facet normal 0.89687211059620853 -0.4422883790755559 0.0011861574177070928
    outer loop
      vertex 0.5434728530866012 -0.35903092613607418 0.075892857142857095
      vertex 0.61681120987704152 -0.20937919210743164 0.42499999999999999
      vertex 0.54160255499926113 -0.36188725749301087 0.42499999999999993
    endloop
  endfacet
  facet normal 0.98029750404085181 -0.19752671609500394 -7.8446412450863459e-16
    outer loop
      vertex 0.61681120987704063 -0.20937919210743436 -0
      vertex 0.64973018300678309 -0.046006926154542965 0.18214285714285711
      vertex 0.61681120987704152 -0.20937919210743164 0.42499999999999999
    endloop
  endfacet
  facet normal 0.99792977266638794 0.064302282733978616 -0.00117697120216012
    outer loop
      vertex 0.64973018300678309 -0.046006926154542965 0.18214285714285711
      vertex 0.63886377314624898 0.12707790554962237 0.42500000000000004
      vertex 0.64998520013042382 -0.042602280795203416 0.58437499999999998
    endloop
  endfacet
  facet normal -0.94389773057305937 0.33006557679008669 -0.010667203816158759
    outer loop
      vertex -0.58201578751397209 0.2923947419219039 0.29750000000000004
      vertex -0.63886377314624876 0.12707790554962287 0.21249999999999988
      vertex -0.60052169613233641 0.24874423103730844 0.58437500000000009
    endloop
  endfacet
  facet normal -0.94611889858036125 -0.32343825131383908 0.015707556656909843
    outer loop
      vertex -0.63706703682914556 -0.13518585533696714 0.44270833333333331
      vertex -0.61568369519035238 -0.21260182370095246 0.13660714285714284
      vertex -0.58420483579446103 -0.28809794263740834 0.47812499999999997
    endloop
  endfacet
  facet normal -0.89474782102235362 -0.44627845555085499 -0.016182610632833067
    outer loop
      vertex -0.61568369519035238 -0.21260182370095246 0.13660714285714284
      vertex -0.5442291681943463 -0.35784308642975904 0.19125
      vertex -0.58420483579446103 -0.28809794263740834 0.47812499999999997
    endloop
  endfacet
  facet normal -0.84339648147377555 -0.53713291377108086 0.013061699025939394
    outer loop
      vertex -0.5442291681943463 -0.35784308642975904 0.19125
      vertex -0.51567967118930835 -0.39569492885566138 0.47812499999999997
      vertex -0.58420483579446103 -0.28809794263740834 0.47812499999999997
    endloop
  endfacet
  facet normal -0.31932782120221831 -0.9474891557633105 -0.017147662148911887
    outer loop
      vertex -0.28502192470352833 -0.58568630716665548 0.27321428571428574
      vertex -0.12372326737925372 -0.63949863258119577 0.24285714285714285
      vertex -0.20937919210742983 -0.61681120987704241 0.58437499999999987
    endloop
  endfacet
  facet normal 0.98059454745807906 -0.19604401724255408 0.0010376892050838382
    outer loop
      vertex 0.61681120987704152 -0.20937919210743164 0.42499999999999999
      vertex 0.64973018300678309 -0.046006926154542965 0.18214285714285711
      vertex 0.64998520013042382 -0.042602280795203416 0.58437499999999998
    endloop
  endfacet
  facet normal -0.43040018494644233 0.90239449025879315 -0.020972952787841909
    outer loop
      vertex -0.20937919210743569 0.61681120987704008 0.42499999999999999
      vertex -0.36188725749301726 0.54160255499925691 0.31874999999999998
      vertex -0.28809794263741129 0.58420483579445937 0.63749999999999996
    endloop
  endfacet
  facet normal -0.56041268047073389 0.82799397684010612 0.01906834770274678
    outer loop
      vertex -0.36188725749301726 0.54160255499925691 0.31874999999999998
      vertex -0.42948458103881587 0.48973330432742002 0.58437500000000009
      vertex -0.28809794263741129 0.58420483579445937 0.63749999999999996
    endloop
  endfacet
  facet normal -0.63558834968770705 0.77194967787654167 -0.011006569291136106
    outer loop
      vertex -0.36188725749301726 0.54160255499925691 0.31874999999999998
      vertex -0.45961940777125154 0.45961940777126026 0.21249999999999999
      vertex -0.42948458103881587 0.48973330432742002 0.58437500000000009
    endloop
  endfacet
  facet normal -0.7486542963047137 0.66292379791282963 0.006984467433069139
    outer loop
      vertex -0.45961940777125154 0.45961940777126026 0.21249999999999999
      vertex -0.53384391862858172 0.37271760517504204 0.50468749999999996
      vertex -0.42948458103881587 0.48973330432742002 0.58437500000000009
    endloop
  endfacet
  facet normal -0.87602333626402029 0.48197511609893073 0.016825628733503916
    outer loop
      vertex -0.58201578751397209 0.2923947419219039 0.29750000000000004
      vertex -0.60052169613233641 0.24874423103730844 0.58437500000000009
      vertex -0.53384391862858172 0.37271760517504204 0.50468749999999996
    endloop
  endfacet
  facet normal -0.95376003409975696 0.30056912242283068 1.1198970438480509e-15
    outer loop
      vertex -0.60052169613233641 0.24874423103730844 0.58437500000000009
      vertex -0.63886377314624876 0.12707790554962287 0.21249999999999988
      vertex -0.63886377314624954 0.12707790554961881 0.63750000000000007
    endloop
  endfacet
  facet normal -0.99144486137381038 0.13052619222005157 -5.6841015909369908e-16
    outer loop
      vertex -0.63886377314624876 0.12707790554962287 0.21249999999999988
      vertex -0.64998520013042382 0.042602280795203347 0.37187500000000001
      vertex -0.63886377314624954 0.12707790554961881 0.63750000000000007
    endloop
  endfacet
  facet normal -0.99568800121718604 -0.086101824751907599 -0.034523615200566689
    outer loop
      vertex -0.64998520013042382 0.042602280795203347 0.37187500000000001
      vertex -0.63706703682914556 -0.13518585533696714 0.44270833333333331
      vertex -0.64998520013042405 -0.042602280795202049 0.58437500000000009
    endloop
  endfacet
  facet normal -0.19506465084456104 -0.98065622270862796 0.016222048382851875
    outer loop
      vertex -0.20937919210742983 -0.61681120987704241 0.58437499999999987
      vertex -0.12372326737925372 -0.63949863258119577 0.24285714285714285
      vertex -0.042602280795202424 -0.64998520013042393 0.58437499999999998
    endloop
  endfacet
  facet normal -0.02850993255347567 -0.99930744784968828 -0.02391251592657944
    outer loop
      vertex -0.12372326737925372 -0.63949863258119577 0.24285714285714285
      vertex 0.05087538709803812 -0.64926213495404161 0.44270833333333331
      vertex -0.042602280795202424 -0.64998520013042393 0.58437499999999998
    endloop
  endfacet
  facet normal 0.9978800727764684 0.065078721900635919 -0.00034685935161456047
    outer loop
      vertex 0.64998520013042382 -0.042602280795203416 0.58437499999999998
      vertex 0.63886377314624898 0.12707790554962237 0.42500000000000004
      vertex 0.63908718653057817 0.12591656104278412 0.84984352039624211
    endloop
  endfacet
  facet normal 0.95283087292021795 0.30341655538720114 0.0071917680066105865
    outer loop
      vertex 0.63886377314624898 0.12707790554962237 0.42500000000000004
      vertex 0.60052169613233641 0.24874423103730836 0.37187500000000001
      vertex 0.58472121462861537 0.2870339936238348 0.84984352039624211
    endloop
  endfacet
  facet normal 0.94751209839549988 0.31971969322578458 0.00037570968414797932
    outer loop
      vertex 0.63886377314624898 0.12707790554962237 0.42500000000000004
      vertex 0.58472121462861537 0.2870339936238348 0.84984352039624211
      vertex 0.63908718653057817 0.12591656104278412 0.84984352039624211
    endloop
  endfacet
  facet normal 0.88691849421816082 0.46186210119485455 -0.007680110263788671
    outer loop
      vertex 0.60052169613233641 0.24874423103730836 0.37187500000000001
      vertex 0.5416025549992538 0.36188725749302203 0.37187499999999996
      vertex 0.58472121462861537 0.2870339936238348 0.84984352039624211
    endloop
  endfacet
  facet normal 0.83242023840452217 0.55402199999389123 0.011669199515267572
    outer loop
      vertex 0.5416025549992538 0.36188725749302203 0.37187499999999996
      vertex 0.49050745824722003 0.42859053388550566 0.849843520396242
      vertex 0.58472121462861537 0.2870339936238348 0.84984352039624211
    endloop
  endfacet
  facet normal 0.74923990205680691 0.66218415028006994 -0.012317478791063187
    outer loop
      vertex 0.5416025549992538 0.36188725749302203 0.37187499999999996
      vertex 0.42948458103881382 0.48973330432742163 0.42500000000000004
      vertex 0.49050745824722003 0.42859053388550566 0.849843520396242
    endloop
  endfacet
  facet normal 0.55092551644466503 0.83440727581501373 -0.015670781638033052
    outer loop
      vertex 0.42948458103881382 0.48973330432742163 0.42500000000000004
      vertex 0.28502192470352022 0.58568630716665937 0.4553571428571429
      vertex 0.32917279597854593 0.56394531104202383 0.84991284222362518
    endloop
  endfacet
  facet normal 0.31922884619851966 0.94767761009977047 -0.00030177864264370517
    outer loop
      vertex 0.28502192470352022 0.58568630716665937 0.4553571428571429
      vertex 0.12707790554962323 0.63886377314624865 0.37187500000000001
      vertex 0.12823634457043559 0.63862575289728452 0.84984352039624222
    endloop
  endfacet
  facet normal 0.062481606604546838 0.99804521360503862 -0.0013418033340477442
    outer loop
      vertex 0.12707790554962323 0.63886377314624865 0.37187500000000001
      vertex -0.046006926154541369 0.64973018300678331 0.39464285714285713
      vertex -0.041421710453267278 0.65005511630594592 0.849843520396242
    endloop
  endfacet
  facet normal 0.067214702305305143 0.99773847889668543 0.0003339505017882904
    outer loop
      vertex 0.12707790554962323 0.63886377314624865 0.37187500000000001
      vertex -0.041421710453267278 0.65005511630594592 0.849843520396242
      vertex 0.12823634457043559 0.63862575289728452 0.84984352039624222
    endloop
  endfacet
  facet normal -0.19729663139061099 0.98034299171878425 0.0012875673889876068
    outer loop
      vertex -0.046006926154541369 0.64973018300678331 0.39464285714285713
      vertex -0.20937919210743569 0.61681120987704008 0.42499999999999999
      vertex -0.041421710453267278 0.65005511630594592 0.849843520396242
    endloop
  endfacet
  facet normal -0.99803765227490071 0.058118786095786322 0.023303462068036705
    outer loop
      vertex -0.64998520013042382 0.042602280795203347 0.37187500000000001
      vertex -0.64998520013042405 -0.042602280795202049 0.58437500000000009
      vertex -0.63886377314624954 0.12707790554961881 0.63750000000000007
    endloop
  endfacet
  facet normal -0.94509057818926079 -0.32680828711109139 -0.00037748298386573747
    outer loop
      vertex -0.63706703682914556 -0.13518585533696714 0.44270833333333331
      vertex -0.58420483579446103 -0.28809794263740834 0.47812499999999997
      vertex -0.58472121462861903 -0.28703399362382792 0.849843520396242
    endloop
  endfacet
  facet normal -0.84346837932868768 -0.53717870327240214 0.00036581855795412356
    outer loop
      vertex -0.58420483579446103 -0.28809794263740834 0.47812499999999997
      vertex -0.51567967118930835 -0.39569492885566138 0.47812499999999997
      vertex -0.58472121462861903 -0.28703399362382792 0.849843520396242
    endloop
  endfacet
  facet normal -0.73718051266124851 -0.67569585743328253 -3.5324752468804581e-15
    outer loop
      vertex -0.51567967118930835 -0.39569492885566138 0.47812499999999997
      vertex -0.42948458103881304 -0.48973330432742235 0.42499999999999999
      vertex -0.4294845810388192 -0.48973330432741702 0.69062499999999982
    endloop
  endfacet
  facet normal -0.55596887865441769 -0.83119488743185854 -0.0036966302072760555
    outer loop
      vertex -0.42948458103881304 -0.48973330432742235 0.42499999999999999
      vertex -0.28502192470352833 -0.58568630716665548 0.27321428571428574
      vertex -0.30602574412655958 -0.57420212145275007 0.84992154633511818
    endloop
  endfacet
  facet normal -0.5646701705531576 -0.82531666558204675 3.4590915155970459e-15
    outer loop
      vertex -0.42948458103881304 -0.48973330432742235 0.42499999999999999
      vertex -0.30602574412655958 -0.57420212145275007 0.84992154633511818
      vertex -0.4294845810388192 -0.48973330432741702 0.69062499999999982
    endloop
  endfacet
  facet normal -0.39432717582603738 -0.91896168011227419 0.0039381328427927067
    outer loop
      vertex -0.28502192470352833 -0.58568630716665548 0.27321428571428574
      vertex -0.20937919210742983 -0.61681120987704241 0.58437499999999987
      vertex -0.30602574412655958 -0.57420212145275007 0.84992154633511818
    endloop
  endfacet
  facet normal 0.20286258318032421 -0.97919261435031413 0.0053475552548034799
    outer loop
      vertex 0.05087538709803812 -0.64926213495404161 0.44270833333333331
      vertex 0.20937919210743292 -0.61681120987704108 0.3718749999999999
      vertex 0.23094215970472737 -0.60973366385636529 0.84984322315271865
    endloop
  endfacet
  facet normal 0.43988297524272868 -0.89805396493713374 0.0014297385419901913
    outer loop
      vertex 0.20937919210743292 -0.61681120987704108 0.3718749999999999
      vertex 0.35903092613607013 -0.54347285308660409 0.39464285714285707
      vertex 0.36188725749301853 -0.54160255499925603 0.69062499999999982
    endloop
  endfacet
  facet normal 0.45453622259668663 -0.89069820194936866 -0.0073167883457845072
    outer loop
      vertex 0.20937919210743292 -0.61681120987704108 0.3718749999999999
      vertex 0.36188725749301853 -0.54160255499925603 0.69062499999999982
      vertex 0.23094215970472737 -0.60973366385636529 0.84984322315271865
    endloop
  endfacet
  facet normal 0.64010982350971235 -0.76828184655408349 -0.001555024698445895
    outer loop
      vertex 0.35903092613607013 -0.54347285308660409 0.39464285714285707
      vertex 0.45961940777124821 -0.45961940777126364 0.37187500000000001
      vertex 0.47326012890911018 -0.44922188695244186 0.84989512828220592
    endloop
  endfacet
  facet normal 0.63954074993585353 -0.76875607472513352 -0.0013140565783395096
    outer loop
      vertex 0.35903092613607013 -0.54347285308660409 0.39464285714285707
      vertex 0.47326012890911018 -0.44922188695244186 0.84989512828220592
      vertex 0.36188725749301853 -0.54160255499925603 0.69062499999999982
    endloop
  endfacet
  facet normal 0.768248864491204 -0.64010131036936391 -0.0079996669555000462
    outer loop
      vertex 0.45961940777124821 -0.45961940777126364 0.37187500000000001
      vertex 0.54160255499926113 -0.36188725749301087 0.42499999999999993
      vertex 0.47326012890911018 -0.44922188695244186 0.84989512828220592
    endloop
  endfacet
  facet normal 0.82305561791110005 -0.56774406712558301 0.015688341807822345
    outer loop
      vertex 0.54160255499926113 -0.36188725749301087 0.42499999999999993
      vertex 0.58367509980762899 -0.28915530463224315 0.84984352039624211
      vertex 0.47326012890911018 -0.44922188695244186 0.84989512828220592
    endloop
  endfacet
  facet normal 0.89679580222876265 -0.44225074795318203 -0.013098283846404492
    outer loop
      vertex 0.54160255499926113 -0.36188725749301087 0.42499999999999993
      vertex 0.61681120987704152 -0.20937919210743164 0.42499999999999999
      vertex 0.58367509980762899 -0.28915530463224315 0.84984352039624211
    endloop
  endfacet
  facet normal 0.64263005177640853 0.76596675405375703 0.017931766176307828
    outer loop
      vertex 0.49050745824722003 0.42859053388550566 0.849843520396242
      vertex 0.42948458103881382 0.48973330432742163 0.42500000000000004
      vertex 0.32917279597854593 0.56394531104202383 0.84991284222362518
    endloop
  endfacet
  facet normal 0.34834700762659515 0.93728006806566788 0.012666344556106955
    outer loop
      vertex 0.28502192470352022 0.58568630716665937 0.4553571428571429
      vertex 0.12823634457043559 0.63862575289728452 0.84984352039624222
      vertex 0.32917279597854593 0.56394531104202383 0.84991284222362518
    endloop
  endfacet
  facet normal -0.18597971992401466 0.98254784158086017 -0.0033589852304243195
    outer loop
      vertex -0.041421710453267278 0.65005511630594592 0.849843520396242
      vertex -0.20937919210743569 0.61681120987704008 0.42499999999999999
      vertex -0.19514876265110584 0.62095762579750802 0.84997380319986926
    endloop
  endfacet
  facet normal -0.37460764145353392 0.92717683432746723 0.0034975493015579938
    outer loop
      vertex -0.20937919210743569 0.61681120987704008 0.42499999999999999
      vertex -0.28809794263741129 0.58420483579445937 0.63749999999999996
      vertex -0.19514876265110584 0.62095762579750802 0.84997380319986926
    endloop
  endfacet
  facet normal -0.54935404333452953 0.83526497123925603 -0.023292979472121087
    outer loop
      vertex -0.28809794263741129 0.58420483579445937 0.63749999999999996
      vertex -0.42948458103881587 0.48973330432742002 0.58437500000000009
      vertex -0.36031505493376242 0.54263213587269843 0.8499478167071417
    endloop
  endfacet
  facet normal -0.65176649755726568 0.75818829397757215 0.018733487056964818
    outer loop
      vertex -0.42948458103881587 0.48973330432742002 0.58437500000000009
      vertex -0.47948259887170763 0.44019069728876425 0.84997380319986937
      vertex -0.36031505493376242 0.54263213587269843 0.8499478167071417
    endloop
  endfacet
  facet normal -0.7413462719380518 0.67096823844866482 -0.01439889150760733
    outer loop
      vertex -0.42948458103881587 0.48973330432742002 0.58437500000000009
      vertex -0.53384391862858172 0.37271760517504204 0.50468749999999996
      vertex -0.47948259887170763 0.44019069728876425 0.84997380319986937
    endloop
  endfacet
  facet normal -0.88431743228357274 0.46667885140991067 -0.013911455930818387
    outer loop
      vertex -0.53384391862858172 0.37271760517504204 0.50468749999999996
      vertex -0.60052169613233641 0.24874423103730844 0.58437500000000009
      vertex -0.57707436144167823 0.30109233462015417 0.84997380319986915
    endloop
  endfacet
  facet normal -0.95224133545363321 0.30512836971265006 0.011537636238921397
    outer loop
      vertex -0.60052169613233641 0.24874423103730844 0.58437500000000009
      vertex -0.63886377314624954 0.12707790554961881 0.63750000000000007
      vertex -0.64873605012059599 0.088234779040776576 0.84996550033324747
    endloop
  endfacet
  facet normal -0.99661594710717294 0.075498723055306957 -0.032505334772784153
    outer loop
      vertex -0.63886377314624954 0.12707790554961881 0.63750000000000007
      vertex -0.64998520013042405 -0.042602280795202049 0.58437500000000009
      vertex -0.64873605012059599 0.088234779040776576 0.84996550033324747
    endloop
  endfacet
  facet normal -0.99865168363100987 -0.044552053996412107 0.026644497849462222
    outer loop
      vertex -0.64998520013042405 -0.042602280795202049 0.58437500000000009
      vertex -0.63921332597053682 -0.12523137624162436 0.84994781670714148
      vertex -0.64873605012059599 0.088234779040776576 0.84996550033324747
    endloop
  endfacet
  facet normal -0.99080048608079929 -0.13531715586051069 -0.0019141870008467839
    outer loop
      vertex -0.64998520013042405 -0.042602280795202049 0.58437500000000009
      vertex -0.63706703682914556 -0.13518585533696714 0.44270833333333331
      vertex -0.63921332597053682 -0.12523137624162436 0.84994781670714148
    endloop
  endfacet
  facet normal -0.94769414160805565 -0.31916756525849149 0.0028069999532298511
    outer loop
      vertex -0.63706703682914556 -0.13518585533696714 0.44270833333333331
      vertex -0.58472121462861903 -0.28703399362382792 0.849843520396242
      vertex -0.63921332597053682 -0.12523137624162436 0.84994781670714148
    endloop
  endfacet
  facet normal -0.82775024707469369 -0.56100309638113188 0.010249600897903208
    outer loop
      vertex -0.58472121462861903 -0.28703399362382792 0.849843520396242
      vertex -0.51567967118930835 -0.39569492885566138 0.47812499999999997
      vertex -0.47548351465699579 -0.44820976731588785 0.84998255395729538
    endloop
  endfacet
  facet normal -0.71138151615801992 -0.70245200354842563 -0.022305182795019748
    outer loop
      vertex -0.51567967118930835 -0.39569492885566138 0.47812499999999997
      vertex -0.4294845810388192 -0.48973330432741702 0.69062499999999982
      vertex -0.47548351465699579 -0.44820976731588785 0.84998255395729538
    endloop
  endfacet
  facet normal -0.19505456126356666 -0.98060549895963589 -0.01914611032040691
    outer loop
      vertex -0.20937919210742983 -0.61681120987704241 0.58437499999999987
      vertex -0.042602280795202424 -0.64998520013042393 0.58437499999999998
      vertex -0.076240138621693834 -0.64847979966178815 0.84996490507288447
    endloop
  endfacet
  facet normal 0.030935379502023543 -0.99940410218860543 0.015311525843402117
    outer loop
      vertex -0.042602280795202424 -0.64998520013042393 0.58437499999999998
      vertex 0.05087538709803812 -0.64926213495404161 0.44270833333333331
      vertex 0.11242800350854291 -0.64111727213312431 0.84997380319986904
    endloop
  endfacet
  facet normal 0.038991321842335627 -0.99918330485538531 0.010601892248913201
    outer loop
      vertex -0.042602280795202424 -0.64998520013042393 0.58437499999999998
      vertex 0.11242800350854291 -0.64111727213312431 0.84997380319986904
      vertex -0.076240138621693834 -0.64847979966178815 0.84996490507288447
    endloop
  endfacet
  facet normal 0.25591781343804432 -0.96650487411515107 -0.019349446419637959
    outer loop
      vertex 0.05087538709803812 -0.64926213495404161 0.44270833333333331
      vertex 0.23094215970472737 -0.60973366385636529 0.84984322315271865
      vertex 0.11242800350854291 -0.64111727213312431 0.84997380319986904
    endloop
  endfacet
  facet normal 0.94892054666794579 -0.31516637224890837 0.014830843363396502
    outer loop
      vertex 0.58367509980762899 -0.28915530463224315 0.84984352039624211
      vertex 0.61681120987704152 -0.20937919210743164 0.42499999999999999
      vertex 0.6450447399039001 -0.1043736161596507 0.84998255395729549
    endloop
  endfacet
  facet normal 0.98440140030693524 -0.17452108034664318 -0.022277243734034804
    outer loop
      vertex 0.61681120987704152 -0.20937919210743164 0.42499999999999999
      vertex 0.64998520013042382 -0.042602280795203416 0.58437499999999998
      vertex 0.6450447399039001 -0.1043736161596507 0.84998255395729549
    endloop
  endfacet
  facet normal 0.99936251871147108 0.025868130848383138 0.024604796302255053
    outer loop
      vertex 0.64998520013042382 -0.042602280795203416 0.58437499999999998
      vertex 0.63908718653057817 0.12591656104278412 0.84984352039624211
      vertex 0.6450447399039001 -0.1043736161596507 0.84998255395729549
    endloop
  endfacet
  facet normal -0.42827937709815589 0.90310967256108454 0.031139917774878768
    outer loop
      vertex -0.28809794263741129 0.58420483579445937 0.63749999999999996
      vertex -0.36031505493376242 0.54263213587269843 0.8499478167071417
      vertex -0.19514876265110584 0.62095762579750802 0.84997380319986926
    endloop
  endfacet
  facet normal -0.81850172228506191 0.57426287565052581 0.016645728159985825
    outer loop
      vertex -0.53384391862858172 0.37271760517504204 0.50468749999999996
      vertex -0.57707436144167823 0.30109233462015417 0.84997380319986915
      vertex -0.47948259887170763 0.44019069728876425 0.84997380319986937
    endloop
  endfacet
  facet normal -0.94752747076795241 0.31899852434850506 0.020775793692737771
    outer loop
      vertex -0.60052169613233641 0.24874423103730844 0.58437500000000009
      vertex -0.64873605012059599 0.088234779040776576 0.84996550033324747
      vertex -0.57707436144167823 0.30109233462015417 0.84997380319986915
    endloop
  endfacet
  facet normal -0.59624396716015515 -0.80195677458287695 0.036857337475036729
    outer loop
      vertex -0.4294845810388192 -0.48973330432741702 0.69062499999999982
      vertex -0.30602574412655958 -0.57420212145275007 0.84992154633511818
      vertex -0.47548351465699579 -0.44820976731588785 0.84998255395729538
    endloop
  endfacet
  facet normal -0.30732976625604735 -0.95073235290382285 0.040698991571833355
    outer loop
      vertex -0.20937919210742983 -0.61681120987704241 0.58437499999999987
      vertex -0.076240138621693834 -0.64847979966178815 0.84996490507288447
      vertex -0.30602574412655958 -0.57420212145275007 0.84992154633511818
    endloop
  endfacet
  facet normal 0.54961991295327561 -0.82976972867017951 0.096954363841191535
    outer loop
      vertex 0.36188725749301853 -0.54160255499925603 0.69062499999999982
      vertex 0.47326012890911018 -0.44922188695244186 0.84989512828220592
      vertex 0.23094215970472737 -0.60973366385636529 0.84984322315271865
    endloop
  endfacet
  facet normal 2.8190906165979291e-06 4.8115825891579893e-05 -0.99999999883846014
    outer loop
      vertex 0 0 -0.84999999999999998
      vertex 0.6146564870955995 0.2329155166513569 -0.8499870603052031
      vertex 0.65017812599702429 -0.037943242820822815 -0.84999999275941118
    endloop
  endfacet
  facet normal 0.00012525943595373683 0.00060697236775298161 0.99999980794729071
    outer loop
      vertex 0 0 0.84999999999999998
      vertex 0.6450447399039001 -0.1043736161596507 0.84998255395729549
      vertex 0.63908718653057817 0.12591656104278412 0.84984352039624211
    endloop
  endfacet
  facet normal 0.0002295851955105651 7.7469098708205184e-05 0.9999999706445879
    outer loop
      vertex 0 0 0.84999999999999998
      vertex 0.63908718653057817 0.12591656104278412 0.84984352039624211
      vertex 0.58472121462861537 0.2870339936238348 0.84984352039624211
    endloop
  endfacet
  facet normal -4.2546130602660448e-06 6.6783100194914974e-05 -0.99999999776095783
    outer loop
      vertex 0 0 -0.84999999999999998
      vertex 0.49450519520228448 0.42379053848758247 -0.84997380188220972
      vertex 0.6146564870955995 0.2329155166513569 -0.8499870603052031
    endloop
  endfacet
  facet normal 0.00020171179152438004 0.00013425042425390131 0.99999997064458801
    outer loop
      vertex 0 0 0.84999999999999998
      vertex 0.58472121462861537 0.2870339936238348 0.84984352039624211
      vertex 0.49050745824722003 0.42859053388550566 0.849843520396242
    endloop
  endfacet
  facet normal 5.0130025243002895e-05 3.3237170511927641e-06 -0.99999999873796663
    outer loop
      vertex 0 0 -0.84999999999999998
      vertex 0.30987320061991902 0.57528703076420851 -0.84998255395729527
      vertex 0.49450519520228448 0.42379053848758247 -0.84997380188220972
    endloop
  endfacet
  facet normal 0.00037547070153802074 -6.4610822841609187e-05 0.99999992742359434
    outer loop
      vertex 0 0 0.84999999999999998
      vertex 0.49050745824722003 0.42859053388550566 0.849843520396242
      vertex 0.32917279597854593 0.56394531104202383 0.84991284222362518
    endloop
  endfacet
  facet normal 8.7321581533881935e-05 -1.6709181336091866e-05 -0.99999999604787237
    outer loop
      vertex 0 0 -0.84999999999999998
      vertex 0.12248390816972543 0.63966317499152059 -0.84999999275941107
      vertex 0.30987320061991902 0.57528703076420851 -0.84998255395729527
    endloop
  endfacet
  facet normal -0.00023629260523111846 0.00029247316099156097 0.99999992931262482
    outer loop
      vertex 0 0 0.84999999999999998
      vertex 0.32917279597854593 0.56394531104202383 0.84991284222362518
      vertex 0.12823634457043559 0.63862575289728452 0.84984352039624222
    endloop
  endfacet
  facet normal -7.6523298349915369e-05 1.4664144511592563e-05 -0.99999999696457387
    outer loop
      vertex 0 0 -0.84999999999999998
      vertex -0.10437361615965147 0.64504473990389988 -0.84998255395729538
      vertex 0.12248390816972543 0.63966317499152059 -0.84999999275941107
    endloop
  endfacet
  facet normal 1.6286335938285093e-05 0.00024175520369578668 0.9999999706445879
    outer loop
      vertex 0 0 0.84999999999999998
      vertex 0.12823634457043559 0.63862575289728452 0.84984352039624222
      vertex -0.041421710453267278 0.65005511630594592 0.849843520396242
    endloop
  endfacet
  facet normal 0.00079237416450564672 0.00029120767833999505 0.99999964367057226
    outer loop
      vertex 0 0 0.84999999999999998
      vertex -0.041421710453267278 0.65005511630594592 0.849843520396242
      vertex -0.19514876265110584 0.62095762579750802 0.84997380319986926
    endloop
  endfacet
  facet normal -0.00018632916742677071 -3.1033608598808501e-06 -0.99999998263590506
    outer loop
      vertex 0 0 -0.84999999999999998
      vertex -0.2897756871086794 0.58335805887497583 -0.84994781670714159
      vertex -0.10437361615965147 0.64504473990389988 -0.84998255395729538
    endloop
  endfacet
  facet normal -0.00015433979467260279 -6.3167275463690224e-06 0.99999998806966339
    outer loop
      vertex 0 0 0.84999999999999998
      vertex -0.19514876265110584 0.62095762579750802 0.84997380319986926
      vertex -0.36031505493376242 0.54263213587269843 0.8499478167071417
    endloop
  endfacet
  facet normal -4.6049271569770455e-05 6.6578892305559477e-05 -0.99999999672335771
    outer loop
      vertex 0 0 -0.84999999999999998
      vertex -0.45163334916794734 0.47290575801238471 -0.84994771707154948
      vertex -0.2897756871086794 0.58335805887497583 -0.84994781670714159
    endloop
  endfacet
  facet normal 8.6195872564939733e-05 0.0001534021984799223 0.9999999845190185
    outer loop
      vertex 0 0 0.84999999999999998
      vertex -0.36031505493376242 0.54263213587269843 0.8499478167071417
      vertex -0.47948259887170763 0.44019069728876425 0.84997380319986937
    endloop
  endfacet
  facet normal 2.1118686461464688e-05 0.00013072547762698919 -0.99999999123242522
    outer loop
      vertex 0 0 -0.84999999999999998
      vertex -0.61081193941412859 0.23213216687284652 -0.84998255395729538
      vertex -0.45163334916794734 0.47290575801238471 -0.84994771707154948
    endloop
  endfacet
  facet normal -3.3231111901321279e-05 2.3315032040414389e-05 0.99999999917605131
    outer loop
      vertex 0 0 0.84999999999999998
      vertex -0.47948259887170763 0.44019069728876425 0.84997380319986937
      vertex -0.57707436144167823 0.30109233462015417 0.84997380319986915
    endloop
  endfacet
  facet normal -5.5924359352934347e-05 -2.0178905868742227e-05 0.99999999823263885
    outer loop
      vertex 0 0 0.84999999999999998
      vertex -0.57707436144167823 0.30109233462015417 0.84997380319986915
      vertex -0.64873605012059599 0.088234779040776576 0.84996550033324747
    endloop
  endfacet
  facet normal 5.1684784371477126e-06 8.8755519113148314e-05 -0.99999999604787237
    outer loop
      vertex 0 0 -0.84999999999999998
      vertex -0.65017812599702429 0.037943242820822447 -0.84999999275941107
      vertex -0.61081193941412859 0.23213216687284652 -0.84998255395729538
    endloop
  endfacet
  facet normal -1.8334292927936177e-05 -0.0003139772655983994 -0.99999995054106394
    outer loop
      vertex 0 0 -0.84999999999999998
      vertex -0.63848008167259296 -0.12891764425805266 -0.84994781670714148
      vertex -0.65017812599702429 0.037943242820822447 -0.84999999275941107
    endloop
  endfacet
  facet normal -6.4840383686143996e-05 -8.5732949409451134e-05 0.99999999422279295
    outer loop
      vertex 0 0 0.84999999999999998
      vertex -0.64873605012059599 0.088234779040776576 0.84996550033324747
      vertex -0.63921332597053682 -0.12523137624162436 0.84994781670714148
    endloop
  endfacet
  facet normal -0.00011543966850692484 0.00016694873162518387 -0.9999999794009018
    outer loop
      vertex 0 0 -0.84999999999999998
      vertex -0.54028294926765696 -0.37328837742798865 -0.84999994993657757
      vertex -0.63848008167259296 -0.12891764425805266 -0.84994781670714148
    endloop
  endfacet
  facet normal 4.1884397688605599e-05 -0.00063048374906865936 0.99999980036794978
    outer loop
      vertex 0 0 0.84999999999999998
      vertex -0.63921332597053682 -0.12523137624162436 0.84994781670714148
      vertex -0.58472121462861903 -0.28703399362382792 0.849843520396242
    endloop
  endfacet
  facet normal -0.00051854449668851661 0.00051117431706986655 0.999999734906176
    outer loop
      vertex 0 0 0.84999999999999998
      vertex -0.58472121462861903 -0.28703399362382792 0.849843520396242
      vertex -0.47548351465699579 -0.44820976731588785 0.84998255395729538
    endloop
  endfacet
  facet normal 9.80923035030938e-05 -0.00014210906544767624 -0.99999998509145649
    outer loop
      vertex 0 0 -0.84999999999999998
      vertex -0.30370256801881595 -0.5781527442765686 -0.84994763013752084
      vertex -0.54028294926765696 -0.37328837742798865 -0.84999994993657757
    endloop
  endfacet
  facet normal 0.00018508875833028588 -0.00023527531737827339 0.99999995519383744
    outer loop
      vertex 0 0 0.84999999999999998
      vertex -0.47548351465699579 -0.44820976731588785 0.84998255395729538
      vertex -0.30602574412655958 -0.57420212145275007 0.84992154633511818
    endloop
  endfacet
  facet normal 0.00021450239617674816 -0.00020325906937385392 -0.99999995633723537
    outer loop
      vertex 0 0 -0.84999999999999998
      vertex -0.12006784625363649 -0.64009772394093456 -0.84989564916849236
      vertex -0.30370256801881595 -0.5781527442765686 -0.84994763013752084
    endloop
  endfacet
  facet normal -0.00019863701876932525 -3.0765511231910857e-05 0.99999997979840882
    outer loop
      vertex 0 0 0.84999999999999998
      vertex -0.30602574412655958 -0.57420212145275007 0.84992154633511818
      vertex -0.076240138621693834 -0.64847979966178815 0.84996490507288447
    endloop
  endfacet
  facet normal -8.8071730106654971e-06 -0.0001613712531485944 -0.99999998694087611
    outer loop
      vertex 0 0 -0.84999999999999998
      vertex 0.049692848079395315 -0.64936276821828176 -0.84989564916849225
      vertex -0.12006784625363649 -0.64009772394093456 -0.84989564916849236
    endloop
  endfacet
  facet normal -4.5258576797746196e-05 -4.8797829763401049e-05 0.99999999778521653
    outer loop
      vertex 0 0 0.84999999999999998
      vertex -0.076240138621693834 -0.64847979966178815 0.84996490507288447
      vertex 0.11242800350854291 -0.64111727213312431 0.84997380319986904
    endloop
  endfacet
  facet normal -0.00047301863881646811 -0.00019689527553168763 -0.99999986874280022
    outer loop
      vertex 0 0 -0.84999999999999998
      vertex 0.20229245915823563 -0.61904084644016677 -0.84997380188220995
      vertex 0.049692848079395315 -0.64936276821828176 -0.84989564916849225
    endloop
  endfacet
  facet normal 0.0010632544886621481 0.00014559394730671469 0.99999942414598175
    outer loop
      vertex 0 0 0.84999999999999998
      vertex 0.11242800350854291 -0.64111727213312431 0.84997380319986904
      vertex 0.23094215970472737 -0.60973366385636529 0.84984322315271865
    endloop
  endfacet
  facet normal 0.0011622302768546223 0.00033747744338716578 -0.99999926766461122
    outer loop
      vertex 0 0 -0.84999999999999998
      vertex 0.35962755140150876 -0.54308658600250492 -0.84976530927207972
      vertex 0.20229245915823563 -0.61904084644016677 -0.84997380188220995
    endloop
  endfacet
  facet normal -3.5081872892777887e-05 -0.00027041105767797342 0.9999999628235603
    outer loop
      vertex 0 0 0.84999999999999998
      vertex 0.23094215970472737 -0.60973366385636529 0.84984322315271865
      vertex 0.47326012890911018 -0.44922188695244186 0.84989512828220592
    endloop
  endfacet
  facet normal -0.00063857897949225987 -0.00085500397362918391 -0.99999943059238383
    outer loop
      vertex 0 0 -0.84999999999999998
      vertex 0.51421593418829636 -0.40433785042685405 -0.84998265700781372
      vertex 0.35962755140150876 -0.54308658600250492 -0.84976530927207972
    endloop
  endfacet
  facet normal 0.00031885589707277191 0.00010246622521435025 0.99999994391579317
    outer loop
      vertex 0 0 0.84999999999999998
      vertex 0.47326012890911018 -0.44922188695244186 0.84989512828220592
      vertex 0.58367509980762899 -0.28915530463224315 0.84984352039624211
    endloop
  endfacet
  facet normal 0.00041577935783835429 0.00048587433024038063 -0.99999979552680951
    outer loop
      vertex 0 0 -0.84999999999999998
      vertex 0.63169261446013159 -0.16549839361197899 -0.84981776663429875
      vertex 0.51421593418829636 -0.40433785042685405 -0.84998265700781372
    endloop
  endfacet
  facet normal -8.9871963109910367e-05 -0.0007225722162693954 0.999999734906176
    outer loop
      vertex 0 0 0.84999999999999998
      vertex 0.58367509980762899 -0.28915530463224315 0.84984352039624211
      vertex 0.6450447399039001 -0.1043736161596507 0.84998255395729549
    endloop
  endfacet
  facet normal -8.2660634042084594e-05 -0.0014166258000282309 -0.99999899316877416
    outer loop
      vertex 0 0 -0.84999999999999998
      vertex 0.65017812599702429 -0.037943242820822815 -0.84999999275941118
      vertex 0.63169261446013159 -0.16549839361197899 -0.84981776663429875
    endloop
  endfacet
endsolid line_w_1e_03
