solid line_w_1e_02
  facet normal 0.99177095868644782 0.12690840590218821 -0.016870744427249385
    outer loop
      vertex 0.65500364302188574 -0.038719644081431574 -0.84999774949379692
      vertex 0.62617411915284171 0.18668154209903334 -0.84922595779215282
      vertex 0.65244529217280844 0.011876264184639241 -0.61979166666666674
    endloop
  endfacet
  facet normal 0.88909120416096665 0.45672670818124544 -0.030291000602915171
    outer loop
      vertex 0.62617411915284171 0.18668154209903334 -0.84922595779215282
      vertex 0.51670505398234101 0.39972923482463824 -0.84999884697292727
      vertex 0.54158152608080501 0.36187320641893139 -0.69062500000000004
    endloop
  endfacet
  facet normal 0.78328297947840164 0.62115109879687436 0.025280160657593264
    outer loop
      vertex 0.51670505398234101 0.39972923482463824 -0.84999884697292727
      vertex 0.46114412392478576 0.46114412392478449 -0.63749999999999996
      vertex 0.54158152608080501 0.36187320641893139 -0.69062500000000004
    endloop
  endfacet
  facet normal 0.66880313349413067 0.74237939613877713 -0.03968879964242749
    outer loop
      vertex 0.51670505398234101 0.39972923482463824 -0.84999884697292727
      vertex 0.35404478875113532 0.54628234635882889 -0.84973894086622992
      vertex 0.46114412392478576 0.46114412392478449 -0.63749999999999996
    endloop
  endfacet
  facet normal 0.067288341728205289 0.99588444563029599 -0.060716142986082043
    outer loop
      vertex 0.17765247429256742 0.62815185204230162 -0.84964986263413533
      vertex -0.087689846074155711 0.64606961434407473 -0.8498215459862325
      vertex 2.4370876181562993e-16 0.65308934544547781 -0.63750000000000007
    endloop
  endfacet
  facet normal -0.54953432300292182 0.83501918579107504 -0.027477030453278799
    outer loop
      vertex -0.26681657906719047 0.59645028191140292 -0.84922595779215249
      vertex -0.43019635840817055 0.48890298862028614 -0.84999958016397992
      vertex -0.4206900057235563 0.50215169560868955 -0.63749999999999996
    endloop
  endfacet
  facet normal -0.75237886137279308 0.65868896791278564 -0.0074089479259072891
    outer loop
      vertex -0.43019635840817055 0.48890298862028614 -0.84999958016397992
      vertex -0.54190421335028804 0.36131198972649076 -0.84948056835953567
      vertex -0.4206900057235563 0.50215169560868955 -0.63749999999999996
    endloop
  endfacet
  facet normal -0.98402707493194264 0.16924073420921393 -0.055211318452026655
    outer loop
      vertex -0.6169536992150072 0.20874545118835236 -0.84948056835953578
      vertex -0.65326942073066252 -0.0025764166218680469 -0.84999884697292727
      vertex -0.64711596919931114 0.085194433573777831 -0.69062500000000004
    endloop
  endfacet
  facet normal -0.99941615609188783 0.01193864114776795 0.032012744181969206
    outer loop
      vertex -0.65326942073066252 -0.0025764166218680469 -0.84999884697292727
      vertex -0.64801834119930546 -0.085313233101330488 -0.65520833333333339
      vertex -0.64711596919931114 0.085194433573777831 -0.69062500000000004
    endloop
  endfacet
  facet normal -0.97723112868196516 -0.20349121929531327 -0.060088641228432056
    outer loop
      vertex -0.65326942073066252 -0.0025764166218680469 -0.84999884697292727
      vertex -0.60135952384945957 -0.25191700768062886 -0.84982154598623261
      vertex -0.64801834119930546 -0.085313233101330488 -0.65520833333333339
    endloop
  endfacet
  facet normal -0.84426582013155826 -0.53249256132830769 -0.060554909690345479
    outer loop
      vertex -0.60135952384945957 -0.25191700768062886 -0.84982154598623261
      vertex -0.48890298862028575 -0.43019635840817105 -0.84999958016397981
      vertex -0.53632176374413032 -0.37615870593773726 -0.6640625
    endloop
  endfacet
  facet normal -0.63949447954233551 -0.76875710681813592 -0.0077020355417660715
    outer loop
      vertex -0.48890298862028575 -0.43019635840817105 -0.84999958016397981
      vertex -0.3244034681200611 -0.5670361221792326 -0.84999884697292738
      vertex -0.33650779257235447 -0.55909606550889457 -0.63749999999999996
    endloop
  endfacet
  facet normal -0.67764532088380192 -0.7342684865606659 0.040578426881760804
    outer loop
      vertex -0.48890298862028575 -0.43019635840817105 -0.84999958016397981
      vertex -0.33650779257235447 -0.55909606550889457 -0.63749999999999996
      vertex -0.53632176374413032 -0.37615870593773726 -0.6640625
    endloop
  endfacet
  facet normal -0.39312071301106066 -0.91940907075981837 0.011961003563359673
    outer loop
      vertex -0.3244034681200611 -0.5670361221792326 -0.84999884697292738
      vertex -0.1691667331309992 -0.63133884299533372 -0.69062500000000004
      vertex -0.33650779257235447 -0.55909606550889457 -0.63749999999999996
    endloop
  endfacet
  facet normal -0.34024959778891828 -0.93913486746016706 -0.04749644118303728
    outer loop
      vertex -0.3244034681200611 -0.5670361221792326 -0.84999884697292738
      vertex -0.1259858692013664 -0.63892299992336721 -0.84999958016397992
      vertex -0.1691667331309992 -0.63133884299533372 -0.69062500000000004
    endloop
  endfacet
  facet normal -0.064640766621787402 -0.99745898598628124 0.029952338235388506
    outer loop
      vertex -0.1259858692013664 -0.63892299992336721 -0.84999958016397992
      vertex 0.043242309368185884 -0.64987432096322795 -0.84948056835953567
      vertex -0.1691667331309992 -0.63133884299533372 -0.69062500000000004
    endloop
  endfacet
  facet normal 0.49445153742584141 -0.86840939326561861 -0.037186056866274728
    outer loop
      vertex 0.20996871459546515 -0.61653845724175083 -0.84948056835953556
      vertex 0.43399843077720007 -0.48897058002418525 -0.84973080353743524
      vertex 0.39169295399757664 -0.52344613664194084 -0.60714285714285721
    endloop
  endfacet
  facet normal 0.8036687438693304 -0.59076559200521561 -0.07150220577170717
    outer loop
      vertex 0.43399843077720007 -0.48897058002418525 -0.84973080353743524
      vertex 0.58782094330772683 -0.27971173195623739 -0.84973894086623014
      vertex 0.54158152608080756 -0.36187320641892745 -0.69062500000000004
    endloop
  endfacet
  facet normal 0.96082335872512492 -0.26793023169866409 -0.070935634698436445
    outer loop
      vertex 0.58782094330772683 -0.27971173195623739 -0.84973894086623014
      vertex 0.65500364302188574 -0.038719644081431574 -0.84999774949379692
      vertex 0.63045969736286067 -0.168931166768749 -0.69062500000000004
    endloop
  endfacet
  facet normal 0.98980419152855392 -0.13641185511359194 0.04098131546173614
    outer loop
      vertex 0.65500364302188574 -0.038719644081431574 -0.84999774949379692
      vertex 0.65244529217280844 0.011876264184639241 -0.61979166666666674
      vertex 0.63045969736286067 -0.168931166768749 -0.69062500000000004
    endloop
  endfacet
  facet normal 0.98263139789127552 0.183545007041126 0.027327024508907508
    outer loop
      vertex 0.62617411915284171 0.18668154209903334 -0.84922595779215282
      vertex 0.60645327112105241 0.24294049895900613 -0.51796874999999998
      vertex 0.65244529217280844 0.011876264184639241 -0.61979166666666674
    endloop
  endfacet
  facet normal 0.89170242194713412 0.45200228503370116 -0.023679632977054988
    outer loop
      vertex 0.62617411915284171 0.18668154209903334 -0.84922595779215282
      vertex 0.54158152608080501 0.36187320641893139 -0.69062500000000004
      vertex 0.60645327112105241 0.24294049895900613 -0.51796874999999998
    endloop
  endfacet
  facet normal 0.62631505426927991 0.77956291986868698 -0.0033326808242088489
    outer loop
      vertex 0.46114412392478576 0.46114412392478449 -0.63749999999999996
      vertex 0.35404478875113532 0.54628234635882889 -0.84973894086622992
      vertex 0.36187320641892701 0.5415815260808079 -0.47812499999999997
    endloop
  endfacet
  facet normal 0.42099118748154452 0.90705340247356636 -0.0045326729427095066
    outer loop
      vertex 0.35404478875113532 0.54628234635882889 -0.84973894086622992
      vertex 0.17765247429256742 0.62815185204230162 -0.84964986263413533
      vertex 0.18763206115227257 0.62511110970806105 -0.53125
    endloop
  endfacet
  facet normal 0.43170908756300175 0.90200992274862712 0.0023158105570593958
    outer loop
      vertex 0.35404478875113532 0.54628234635882889 -0.84973894086622992
      vertex 0.18763206115227257 0.62511110970806105 -0.53125
      vertex 0.36187320641892701 0.5415815260808079 -0.47812499999999997
    endloop
  endfacet
  facet normal 0.14475819296238063 0.98945486792458426 0.0049122205375881764
    outer loop
      vertex 0.17765247429256742 0.62815185204230162 -0.84964986263413533
      vertex 2.4370876181562993e-16 0.65308934544547781 -0.63750000000000007
      vertex 0.18763206115227257 0.62511110970806105 -0.53125
    endloop
  endfacet
  facet normal -0.26696920145680819 0.96357082850010067 -0.016084276083918457
    outer loop
      vertex -0.087689846074155711 0.64606961434407473 -0.8498215459862325
      vertex -0.26681657906719047 0.59645028191140292 -0.84922595779215249
      vertex -0.20937106249667872 0.61678726081603208 -0.58437499999999998
    endloop
  endfacet
  facet normal -0.16225422264100317 0.98614890391137211 0.034407943117293872
    outer loop
      vertex -0.087689846074155711 0.64606961434407473 -0.8498215459862325
      vertex -0.20937106249667872 0.61678726081603208 -0.58437499999999998
      vertex 2.4370876181562993e-16 0.65308934544547781 -0.63750000000000007
    endloop
  endfacet
  facet normal -0.48381826175219672 0.87435176368871304 0.03780056784652485
    outer loop
      vertex -0.26681657906719047 0.59645028191140292 -0.84922595779215249
      vertex -0.4206900057235563 0.50215169560868955 -0.63749999999999996
      vertex -0.20937106249667872 0.61678726081603208 -0.58437499999999998
    endloop
  endfacet
  facet normal -0.78201750164325956 0.62234549318820975 0.033685519618352672
    outer loop
      vertex -0.54190421335028804 0.36131198972649076 -0.84948056835953567
      vertex -0.58418215274812424 0.28808675659686167 -0.47812499999999997
      vertex -0.4206900057235563 0.50215169560868955 -0.63749999999999996
    endloop
  endfacet
  facet normal -0.89720836929838266 0.44134859107742269 -0.015118307276640252
    outer loop
      vertex -0.54190421335028804 0.36131198972649076 -0.84948056835953567
      vertex -0.6169536992150072 0.20874545118835236 -0.84948056835953578
      vertex -0.58418215274812424 0.28808675659686167 -0.47812499999999997
    endloop
  endfacet
  facet normal -0.96247375543925384 0.27000318696015263 0.027249754531374855
    outer loop
      vertex -0.6169536992150072 0.20874545118835236 -0.84948056835953578
      vertex -0.64711596919931114 0.085194433573777831 -0.69062500000000004
      vertex -0.58418215274812424 0.28808675659686167 -0.47812499999999997
    endloop
  endfacet
  facet normal -0.92928371527263898 -0.3594686971608419 0.084935459559407553
    outer loop
      vertex -0.64801834119930546 -0.085313233101330488 -0.65520833333333339
      vertex -0.60135952384945957 -0.25191700768062886 -0.84982154598623261
      vertex -0.53632176374413032 -0.37615870593773726 -0.6640625
    endloop
  endfacet
  facet normal -0.072186004859201305 -0.99719398897742473 0.019832525047486203
    outer loop
      vertex -0.1691667331309992 -0.63133884299533372 -0.69062500000000004
      vertex 0.043242309368185884 -0.64987432096322795 -0.84948056835953567
      vertex 0.085123475211976399 -0.64657698693083054 -0.53125
    endloop
  endfacet
  facet normal 0.19606285528409984 -0.98059121351200995 -0.00047828954578600148
    outer loop
      vertex 0.043242309368185884 -0.64987432096322795 -0.84948056835953567
      vertex 0.20996871459546515 -0.61653845724175083 -0.84948056835953556
      vertex 0.20937106249667786 -0.6167872608160323 -0.58437499999999998
    endloop
  endfacet
  facet normal 0.22519860371202785 -0.9741168356498503 -0.019544293020609844
    outer loop
      vertex 0.043242309368185884 -0.64987432096322795 -0.84948056835953567
      vertex 0.20937106249667786 -0.6167872608160323 -0.58437499999999998
      vertex 0.085123475211976399 -0.64657698693083054 -0.53125
    endloop
  endfacet
  facet normal 0.45572754337530791 -0.89011930062385081 0.0001920052436328068
    outer loop
      vertex 0.20996871459546515 -0.61653845724175083 -0.84948056835953556
      vertex 0.39169295399757664 -0.52344613664194084 -0.60714285714285721
      vertex 0.20937106249667786 -0.6167872608160323 -0.58437499999999998
    endloop
  endfacet
  facet normal 0.74140358518666616 -0.67019499446535469 0.034049864404153078
    outer loop
      vertex 0.43399843077720007 -0.48897058002418525 -0.84973080353743524
      vertex 0.54158152608080756 -0.36187320641892745 -0.69062500000000004
      vertex 0.39169295399757664 -0.52344613664194084 -0.60714285714285721
    endloop
  endfacet
  facet normal 0.90722687188884676 -0.41791133470762809 0.047848921050182902
    outer loop
      vertex 0.54158152608080756 -0.36187320641892745 -0.69062500000000004
      vertex 0.58782094330772683 -0.27971173195623739 -0.84973894086623014
      vertex 0.63045969736286067 -0.168931166768749 -0.69062500000000004
    endloop
  endfacet
  facet normal 0.7996637340265218 0.59091184816550379 0.10658846176012098
    outer loop
      vertex 0.54158152608080501 0.36187320641893139 -0.69062500000000004
      vertex 0.46114412392478576 0.46114412392478449 -0.63749999999999996
      vertex 0.60645327112105241 0.24294049895900613 -0.51796874999999998
    endloop
  endfacet
  facet normal -0.81866951649008868 0.56933040073262553 -0.075120686708207166
    outer loop
      vertex -0.4206900057235563 0.50215169560868955 -0.63749999999999996
      vertex -0.58418215274812424 0.28808675659686167 -0.47812499999999997
      vertex -0.4707177505172303 0.45264498937157038 -0.46749999999999997
    endloop
  endfacet
  facet normal -0.95164625186627583 0.30698922197342227 -0.011270709872115777
    outer loop
      vertex -0.58418215274812424 0.28808675659686167 -0.47812499999999997
      vertex -0.64711596919931114 0.085194433573777831 -0.69062500000000004
      vertex -0.64566222474866553 0.097892689143745742 -0.46749999999999997
    endloop
  endfacet
  facet normal -0.99995957385223189 0.0065676898358180734 0.0061413444361596995
    outer loop
      vertex -0.64711596919931114 0.085194433573777831 -0.69062500000000004
      vertex -0.64801834119930546 -0.085313233101330488 -0.65520833333333339
      vertex -0.64566222474866553 0.097892689143745742 -0.46749999999999997
    endloop
  endfacet
  facet normal -0.92902495741506785 -0.35345086712584955 -0.10947654099356788
    outer loop
      vertex -0.64801834119930546 -0.085313233101330488 -0.65520833333333339
      vertex -0.53632176374413032 -0.37615870593773726 -0.6640625
      vertex -0.62523402938931627 -0.19769891398635026 -0.48571428571428571
    endloop
  endfacet
  facet normal -0.66880049176698741 -0.74034401827990715 -0.067798501527660329
    outer loop
      vertex -0.53632176374413032 -0.37615870593773726 -0.6640625
      vertex -0.33650779257235447 -0.55909606550889457 -0.63749999999999996
      vertex -0.42946790534896412 -0.4897142893474779 -0.47812499999999997
    endloop
  endfacet
  facet normal -0.37987158827603418 -0.9231680953349094 0.058806837836759024
    outer loop
      vertex -0.1691667331309992 -0.63133884299533372 -0.69062500000000004
      vertex -0.092833991853958783 -0.64667418847850633 -0.4382812499999999
      vertex -0.33650779257235447 -0.55909606550889457 -0.63749999999999996
    endloop
  endfacet
  facet normal -0.026897240007375721 -0.99825707905954864 -0.052529444956934568
    outer loop
      vertex -0.1691667331309992 -0.63133884299533372 -0.69062500000000004
      vertex 0.085123475211976399 -0.64657698693083054 -0.53125
      vertex -0.092833991853958783 -0.64667418847850633 -0.4382812499999999
    endloop
  endfacet
  facet normal 0.73711070397020773 -0.67558467540616007 0.015910890889515337
    outer loop
      vertex 0.39169295399757664 -0.52344613664194084 -0.60714285714285721
      vertex 0.54158152608080756 -0.36187320641892745 -0.69062500000000004
      vertex 0.55909606550889135 -0.3365077925723598 -0.42499999999999999
    endloop
  endfacet
  facet normal 0.90826331937724303 -0.41838877113136219 0.00292896995899387
    outer loop
      vertex 0.54158152608080756 -0.36187320641892745 -0.69062500000000004
      vertex 0.63045969736286067 -0.168931166768749 -0.69062500000000004
      vertex 0.6329750775814631 -0.16170407307367421 -0.43828125000000001
    endloop
  endfacet
  facet normal 0.92022226560003995 -0.39069800513277853 -0.023367727300634918
    outer loop
      vertex 0.54158152608080756 -0.36187320641892745 -0.69062500000000004
      vertex 0.6329750775814631 -0.16170407307367421 -0.43828125000000001
      vertex 0.55909606550889135 -0.3365077925723598 -0.42499999999999999
    endloop
  endfacet
  facet normal 0.99296960156687886 -0.11819031577386815 -0.0065130347294380681
    outer loop
      vertex 0.63045969736286067 -0.168931166768749 -0.69062500000000004
      vertex 0.65244529217280844 0.011876264184639241 -0.61979166666666674
      vertex 0.6329750775814631 -0.16170407307367421 -0.43828125000000001
    endloop
  endfacet
  facet normal 0.97934680915329142 0.20161779993485815 -0.01516872277728352
    outer loop
      vertex 0.65244529217280844 0.011876264184639241 -0.61979166666666674
      vertex 0.60645327112105241 0.24294049895900613 -0.51796874999999998
      vertex 0.64995996301578751 0.042600626667318876 -0.37187499999999996
    endloop
  endfacet
  facet normal 0.84337897181988308 0.53513761278978822 -0.048369879777435253
    outer loop
      vertex 0.60645327112105241 0.24294049895900613 -0.51796874999999998
      vertex 0.46114412392478576 0.46114412392478449 -0.63749999999999996
      vertex 0.51854372904618673 0.39789259774438634 -0.33645833333333336
    endloop
  endfacet
  facet normal 0.65971443414072006 0.75083607432067256 0.031969593133338928
    outer loop
      vertex 0.46114412392478576 0.46114412392478449 -0.63749999999999996
      vertex 0.36187320641892701 0.5415815260808079 -0.47812499999999997
      vertex 0.51854372904618673 0.39789259774438634 -0.33645833333333336
    endloop
  endfacet
  facet normal 0.14945847450024752 0.98876155556911982 -0.0035708022338639825
    outer loop
      vertex 0.18763206115227257 0.62511110970806105 -0.53125
      vertex 2.4370876181562993e-16 0.65308934544547781 -0.63750000000000007
      vertex 0.011876264184638646 0.65244529217280856 -0.31874999999999998
    endloop
  endfacet
  facet normal -0.1307142398738359 0.99139625948618704 0.0068734395321411934
    outer loop
      vertex 2.4370876181562993e-16 0.65308934544547781 -0.63750000000000007
      vertex -0.1976989139863512 0.62523402938931583 -0.3794642857142857
      vertex 0.011876264184638646 0.65244529217280856 -0.31874999999999998
    endloop
  endfacet
  facet normal -0.17823943971667808 0.98351776174547523 -0.030389380721813967
    outer loop
      vertex 2.4370876181562993e-16 0.65308934544547781 -0.63750000000000007
      vertex -0.20937106249667872 0.61678726081603208 -0.58437499999999998
      vertex -0.1976989139863512 0.62523402938931583 -0.3794642857142857
    endloop
  endfacet
  facet normal -0.47502255424511247 0.87992538326427339 -0.009213731365236285
    outer loop
      vertex -0.20937106249667872 0.61678726081603208 -0.58437499999999998
      vertex -0.4206900057235563 0.50215169560868955 -0.63749999999999996
      vertex -0.1976989139863512 0.62523402938931583 -0.3794642857142857
    endloop
  endfacet
  facet normal -0.55089426371976002 0.83075018322226157 0.079810044962037238
    outer loop
      vertex -0.4206900057235563 0.50215169560868955 -0.63749999999999996
      vertex -0.4707177505172303 0.45264498937157038 -0.46749999999999997
      vertex -0.1976989139863512 0.62523402938931583 -0.3794642857142857
    endloop
  endfacet
  facet normal -0.99367324380045041 -0.073884379824670401 0.084584767972811836
    outer loop
      vertex -0.64801834119930546 -0.085313233101330488 -0.65520833333333339
      vertex -0.62523402938931627 -0.19769891398635026 -0.48571428571428571
      vertex -0.64566222474866553 0.097892689143745742 -0.46749999999999997
    endloop
  endfacet
  facet normal -0.8892448981977038 -0.45721156888782549 0.014180701833416577
    outer loop
      vertex -0.62523402938931627 -0.19769891398635026 -0.48571428571428571
      vertex -0.53632176374413032 -0.37615870593773726 -0.6640625
      vertex -0.52484946345891481 -0.38776145455206601 -0.31874999999999998
    endloop
  endfacet
  facet normal -0.72928137494313594 -0.68421278959380527 0.0012388370806065961
    outer loop
      vertex -0.53632176374413032 -0.37615870593773726 -0.6640625
      vertex -0.42946790534896412 -0.4897142893474779 -0.47812499999999997
      vertex -0.52484946345891481 -0.38776145455206601 -0.31874999999999998
    endloop
  endfacet
  facet normal -0.61617990286863722 -0.78743032351374798 -0.016607616079097335
    outer loop
      vertex -0.42946790534896412 -0.4897142893474779 -0.47812499999999997
      vertex -0.33650779257235447 -0.55909606550889457 -0.63749999999999996
      vertex -0.35278496130086007 -0.55276145232616702 -0.33392857142857146
    endloop
  endfacet
  facet normal -0.33926635566113739 -0.94068925336617504 0.0014382342642606429
    outer loop
      vertex -0.33650779257235447 -0.55909606550889457 -0.63749999999999996
      vertex -0.092833991853958783 -0.64667418847850633 -0.4382812499999999
      vertex -0.35278496130086007 -0.55276145232616702 -0.33392857142857146
    endloop
  endfacet
  facet normal 0.25799819502235538 -0.96410341371774988 0.062781677446432829
    outer loop
      vertex 0.20937106249667786 -0.6167872608160323 -0.58437499999999998
      vertex 0.31593749960045009 -0.57097232969353284 -0.31875000000000009
      vertex 0.085123475211976399 -0.64657698693083054 -0.53125
    endloop
  endfacet
  facet normal 0.4527647746977207 -0.89119236162721649 -0.027932657772347127
    outer loop
      vertex 0.20937106249667786 -0.6167872608160323 -0.58437499999999998
      vertex 0.39169295399757664 -0.52344613664194084 -0.60714285714285721
      vertex 0.31593749960045009 -0.57097232969353284 -0.31875000000000009
    endloop
  endfacet
  facet normal 0.59610550758710734 -0.80253738747305969 0.024330341802641795
    outer loop
      vertex 0.39169295399757664 -0.52344613664194084 -0.60714285714285721
      vertex 0.45264498937156955 -0.47071775051723114 -0.36125000000000002
      vertex 0.31593749960045009 -0.57097232969353284 -0.31875000000000009
    endloop
  endfacet
  facet normal 0.76958896957352241 -0.63622351004871691 -0.054336573061375446
    outer loop
      vertex 0.39169295399757664 -0.52344613664194084 -0.60714285714285721
      vertex 0.55909606550889135 -0.3365077925723598 -0.42499999999999999
      vertex 0.45264498937156955 -0.47071775051723114 -0.36125000000000002
    endloop
  endfacet
  facet normal 0.99575114736189385 -0.089637166457925466 0.021091015074349524
    outer loop
      vertex 0.6329750775814631 -0.16170407307367421 -0.43828125000000001
      vertex 0.65244529217280844 0.011876264184639241 -0.61979166666666674
      vertex 0.64995996301578751 0.042600626667318876 -0.37187499999999996
    endloop
  endfacet
  facet normal 0.97907426056529179 0.20308258173118138 -0.013078887411601951
    outer loop
      vertex 0.64995996301578751 0.042600626667318876 -0.37187499999999996
      vertex 0.60645327112105241 0.24294049895900613 -0.51796874999999998
      vertex 0.61678726081603252 0.20937106249667742 -0.265625
    endloop
  endfacet
  facet normal 0.88240719779990096 0.46974778347706131 0.02635445293141794
    outer loop
      vertex 0.60645327112105241 0.24294049895900613 -0.51796874999999998
      vertex 0.51854372904618673 0.39789259774438634 -0.33645833333333336
      vertex 0.61678726081603252 0.20937106249667742 -0.265625
    endloop
  endfacet
  facet normal 0.43166332212885899 0.90203133450556938 0.0024995797203679316
    outer loop
      vertex 0.36187320641892701 0.5415815260808079 -0.47812499999999997
      vertex 0.18763206115227257 0.62511110970806105 -0.53125
      vertex 0.1813310352744027 0.62736093495013201 -0.255
    endloop
  endfacet
  facet normal 0.14815332131428735 0.98895335494010639 -0.0046749477273531782
    outer loop
      vertex 0.18763206115227257 0.62511110970806105 -0.53125
      vertex 0.011876264184638646 0.65244529217280856 -0.31874999999999998
      vertex 0.1813310352744027 0.62736093495013201 -0.255
    endloop
  endfacet
  facet normal -0.51457352430698422 0.8538759931977008 -0.078165697866324935
    outer loop
      vertex -0.1976989139863512 0.62523402938931583 -0.3794642857142857
      vertex -0.4707177505172303 0.45264498937157038 -0.46749999999999997
      vertex -0.36187320641893123 0.54158152608080512 -0.21249999999999994
    endloop
  endfacet
  facet normal -0.67478864709513964 0.73736570411120816 0.030856120172397371
    outer loop
      vertex -0.4707177505172303 0.45264498937157038 -0.46749999999999997
      vertex -0.51021354432444888 0.40760866801759044 -0.25499999999999995
      vertex -0.36187320641893123 0.54158152608080512 -0.21249999999999994
    endloop
  endfacet
  facet normal -0.82186852863156767 0.56876572765932099 -0.032212865211666317
    outer loop
      vertex -0.4707177505172303 0.45264498937157038 -0.46749999999999997
      vertex -0.58418215274812424 0.28808675659686167 -0.47812499999999997
      vertex -0.51021354432444888 0.40760866801759044 -0.25499999999999995
    endloop
  endfacet
  facet normal -0.95161495264936624 0.30609332544993856 -0.027126702880050677
    outer loop
      vertex -0.58418215274812424 0.28808675659686167 -0.47812499999999997
      vertex -0.64566222474866553 0.097892689143745742 -0.46749999999999997
      vertex -0.63328756130608577 0.15739367720602798 -0.2302083333333334
    endloop
  endfacet
  facet normal -0.99647528730384349 0.077300541406527715 0.032582634807214517
    outer loop
      vertex -0.64566222474866553 0.097892689143745742 -0.46749999999999997
      vertex -0.64995996301578751 -0.042600626667318349 -0.265625
      vertex -0.63328756130608577 0.15739367720602798 -0.2302083333333334
    endloop
  endfacet
  facet normal -0.99570147118175212 -0.064730380994666284 -0.066246192817246446
    outer loop
      vertex -0.64566222474866553 0.097892689143745742 -0.46749999999999997
      vertex -0.62523402938931627 -0.19769891398635026 -0.48571428571428571
      vertex -0.64995996301578751 -0.042600626667318349 -0.265625
    endloop
  endfacet
  facet normal -0.97758983213692807 -0.2073647681223228 0.036303898469288304
    outer loop
      vertex -0.62523402938931627 -0.19769891398635026 -0.48571428571428571
      vertex -0.6081062334681937 -0.23805355673107956 -0.255
      vertex -0.64995996301578751 -0.042600626667318349 -0.265625
    endloop
  endfacet
  facet normal -0.8771702003260321 -0.47981121888329575 -0.018805156040692425
    outer loop
      vertex -0.62523402938931627 -0.19769891398635026 -0.48571428571428571
      vertex -0.52484946345891481 -0.38776145455206601 -0.31874999999999998
      vertex -0.6081062334681937 -0.23805355673107956 -0.255
    endloop
  endfacet
  facet normal -0.68894884712520221 -0.72306723269842688 0.050232091761081454
    outer loop
      vertex -0.52484946345891481 -0.38776145455206601 -0.31874999999999998
      vertex -0.42946790534896412 -0.4897142893474779 -0.47812499999999997
      vertex -0.35278496130086007 -0.55276145232616702 -0.33392857142857146
    endloop
  endfacet
  facet normal 0.0021234527155120707 -0.99999318792230085 0.003019115360328283
    outer loop
      vertex -0.092833991853958783 -0.64667418847850633 -0.4382812499999999
      vertex 0.085123475211976399 -0.64657698693083054 -0.53125
      vertex 0.11439815526836225 -0.64568995204275736 -0.2580357142857142
    endloop
  endfacet
  facet normal 0.33860685626015991 -0.94034103697867166 -0.033228467727056066
    outer loop
      vertex 0.085123475211976399 -0.64657698693083054 -0.53125
      vertex 0.31593749960045009 -0.57097232969353284 -0.31875000000000009
      vertex 0.11439815526836225 -0.64568995204275736 -0.2580357142857142
    endloop
  endfacet
  facet normal 0.97735920026070311 0.21014099187850047 -0.024693262200020858
    outer loop
      vertex 0.64995996301578751 0.042600626667318876 -0.37187499999999996
      vertex 0.61678726081603252 0.20937106249667742 -0.265625
      vertex 0.64750207555990424 0.085245265440484691 -0.10625
    endloop
  endfacet
  facet normal 0.6759144829998821 0.73698006192230348 -1.4208279508680886e-15
    outer loop
      vertex 0.51854372904618673 0.39789259774438634 -0.33645833333333336
      vertex 0.36187320641892701 0.5415815260808079 -0.47812499999999997
      vertex 0.36187320641893056 0.54158152608080545 -0.053124999999999985
    endloop
  endfacet
  facet normal 0.65405229545041643 0.75613505628691846 -0.021803015158912854
    outer loop
      vertex 0.51854372904618673 0.39789259774438634 -0.33645833333333336
      vertex 0.36187320641893056 0.54158152608080545 -0.053124999999999985
      vertex 0.48971428934747591 0.42946790534896639 -0.10624999999999998
    endloop
  endfacet
  facet normal 0.42914611499259026 0.90323508124229002 1.603552874163137e-15
    outer loop
      vertex 0.36187320641892701 0.5415815260808079 -0.47812499999999997
      vertex 0.1813310352744027 0.62736093495013201 -0.255
      vertex 0.36187320641893056 0.54158152608080545 -0.053124999999999985
    endloop
  endfacet
  facet normal -0.12675064657783203 0.99190964110126811 -0.00703828689775245
    outer loop
      vertex -0.1976989139863512 0.62523402938931583 -0.3794642857142857
      vertex -0.16903196075483201 0.63083586564000904 -0.10624999999999998
      vertex 0.011876264184638646 0.65244529217280856 -0.31874999999999998
    endloop
  endfacet
  facet normal -0.43202343803935656 0.90146269716805338 0.026846873172734511
    outer loop
      vertex -0.1976989139863512 0.62523402938931583 -0.3794642857142857
      vertex -0.36187320641893123 0.54158152608080512 -0.21249999999999994
      vertex -0.16903196075483201 0.63083586564000904 -0.10624999999999998
    endloop
  endfacet
  facet normal -0.89355194651345615 0.44523350718477078 0.057723850893392367
    outer loop
      vertex -0.58418215274812424 0.28808675659686167 -0.47812499999999997
      vertex -0.63328756130608577 0.15739367720602798 -0.2302083333333334
      vertex -0.51021354432444888 0.40760866801759044 -0.25499999999999995
    endloop
  endfacet
  facet normal -0.34382239386620772 -0.93896472563408129 -0.011463223413370091
    outer loop
      vertex -0.35278496130086007 -0.55276145232616702 -0.33392857142857146
      vertex -0.092833991853958783 -0.64667418847850633 -0.4382812499999999
      vertex -0.12707297146855343 -0.63883896784564154 -0.053124999999999992
    endloop
  endfacet
  facet normal -0.33418314976918789 -0.9422910011497434 -0.02023095555229475
    outer loop
      vertex -0.35278496130086007 -0.55276145232616702 -0.33392857142857146
      vertex -0.12707297146855343 -0.63883896784564154 -0.053124999999999992
      vertex -0.32002014555132346 -0.56955488105114627 -0.092968750000000031
    endloop
  endfacet
  facet normal -0.012012259448018828 -0.99974215552507117 0.019269875169230209
    outer loop
      vertex -0.092833991853958783 -0.64667418847850633 -0.4382812499999999
      vertex 0.11439815526836225 -0.64568995204275736 -0.2580357142857142
      vertex -0.12707297146855343 -0.63883896784564154 -0.053124999999999992
    endloop
  endfacet
  facet normal 0.60292761994423871 -0.79527160891452331 0.063414140086270332
    outer loop
      vertex 0.45264498937156955 -0.47071775051723114 -0.36125000000000002
      vertex 0.51038984034626289 -0.40660560227419529 -0.10624999999999997
      vertex 0.31593749960045009 -0.57097232969353284 -0.31875000000000009
    endloop
  endfacet
  facet normal 0.8007020410313862 -0.59222708757606635 0.090240335933232149
    outer loop
      vertex 0.45264498937156955 -0.47071775051723114 -0.36125000000000002
      vertex 0.55909606550889135 -0.3365077925723598 -0.42499999999999999
      vertex 0.62190863817091824 -0.21110953585104189 -0.15937499999999999
    endloop
  endfacet
  facet normal 0.85876184389804988 -0.50800929640268688 -0.06674316619151506
    outer loop
      vertex 0.45264498937156955 -0.47071775051723114 -0.36125000000000002
      vertex 0.62190863817091824 -0.21110953585104189 -0.15937499999999999
      vertex 0.51038984034626289 -0.40660560227419529 -0.10624999999999997
    endloop
  endfacet
  facet normal 0.91971970368666078 -0.39120262964029501 -0.032805018107587229
    outer loop
      vertex 0.55909606550889135 -0.3365077925723598 -0.42499999999999999
      vertex 0.6329750775814631 -0.16170407307367421 -0.43828125000000001
      vertex 0.62190863817091824 -0.21110953585104189 -0.15937499999999999
    endloop
  endfacet
  facet normal 0.99561466769985096 -0.090486768956799662 0.023739800013351482
    outer loop
      vertex 0.6329750775814631 -0.16170407307367421 -0.43828125000000001
      vertex 0.64995996301578751 0.042600626667318876 -0.37187499999999996
      vertex 0.64750207555990424 0.085245265440484691 -0.10625
    endloop
  endfacet
  facet normal 0.99564554654612936 -0.090202192777643436 0.023526794532280123
    outer loop
      vertex 0.6329750775814631 -0.16170407307367421 -0.43828125000000001
      vertex 0.64750207555990424 0.085245265440484691 -0.10625
      vertex 0.62190863817091824 -0.21110953585104189 -0.15937499999999999
    endloop
  endfacet
  facet normal 0.96061098041093274 0.27626861980545697 0.030036544820177792
    outer loop
      vertex 0.61678726081603252 0.20937106249667742 -0.265625
      vertex 0.5841821527481238 0.288086756596862 0.053125000000000006
      vertex 0.64750207555990424 0.085245265440484691 -0.10625
    endloop
  endfacet
  facet normal 0.88989056742548278 0.45566711668545701 -0.021500157643937468
    outer loop
      vertex 0.61678726081603252 0.20937106249667742 -0.265625
      vertex 0.51854372904618673 0.39789259774438634 -0.33645833333333336
      vertex 0.5841821527481238 0.288086756596862 0.053125000000000006
    endloop
  endfacet
  facet normal 0.81862716845392991 0.57383147427928338 0.023811723909984081
    outer loop
      vertex 0.51854372904618673 0.39789259774438634 -0.33645833333333336
      vertex 0.48971428934747591 0.42946790534896639 -0.10624999999999998
      vertex 0.5841821527481238 0.288086756596862 0.053125000000000006
    endloop
  endfacet
  facet normal 0.43725890495073172 0.89929132265387679 -0.0089312395963813459
    outer loop
      vertex 0.36187320641893056 0.54158152608080545 -0.053124999999999985
      vertex 0.1813310352744027 0.62736093495013201 -0.255
      vertex 0.20937106249667572 0.61678726081603319 0.053124999999999992
    endloop
  endfacet
  facet normal 0.18468563295176604 0.98265209034974066 0.016914086215071625
    outer loop
      vertex 0.1813310352744027 0.62736093495013201 -0.255
      vertex 0.042600626667318217 0.64995996301578762 -0.053124999999999992
      vertex 0.20937106249667572 0.61678726081603319 0.053124999999999992
    endloop
  endfacet
  facet normal 0.14938406795847048 0.98874665894522862 -0.0080277434454952747
    outer loop
      vertex 0.1813310352744027 0.62736093495013201 -0.255
      vertex 0.011876264184638646 0.65244529217280856 -0.31874999999999998
      vertex 0.042600626667318217 0.64995996301578762 -0.053124999999999992
    endloop
  endfacet
  facet normal -0.095033881130344625 0.99526694048588316 0.020304645113197829
    outer loop
      vertex 0.011876264184638646 0.65244529217280856 -0.31874999999999998
      vertex -0.16903196075483201 0.63083586564000904 -0.10624999999999998
      vertex 0.042600626667318217 0.64995996301578762 -0.053124999999999992
    endloop
  endfacet
  facet normal -0.66851652246545146 0.74361959134157884 -0.010750002961985678
    outer loop
      vertex -0.36187320641893123 0.54158152608080512 -0.21249999999999994
      vertex -0.51021354432444888 0.40760866801759044 -0.25499999999999995
      vertex -0.48655965090507236 0.43299881228257031 0.030357142857142836
    endloop
  endfacet
  facet normal -0.83454258998837727 0.55057340501623386 0.020188887644478092
    outer loop
      vertex -0.51021354432444888 0.40760866801759044 -0.25499999999999995
      vertex -0.58418215274812324 0.2880867565968635 -0.053124999999999992
      vertex -0.48655965090507236 0.43299881228257031 0.030357142857142836
    endloop
  endfacet
  facet normal -0.89781065486844436 0.4345034282215724 -0.071713310259644128
    outer loop
      vertex -0.51021354432444888 0.40760866801759044 -0.25499999999999995
      vertex -0.63328756130608577 0.15739367720602798 -0.2302083333333334
      vertex -0.58418215274812324 0.2880867565968635 -0.053124999999999992
    endloop
  endfacet
  facet normal -0.99546265508545473 0.088964023156211436 -0.03375655364633777
    outer loop
      vertex -0.63328756130608577 0.15739367720602798 -0.2302083333333334
      vertex -0.64995996301578751 -0.042600626667318349 -0.265625
      vertex -0.64866650497061096 0.07770084566520559 0.013281249999999972
    endloop
  endfacet
  facet normal -0.99419037279350619 -0.097080725146170402 0.046484787294369424
    outer loop
      vertex -0.64995996301578751 -0.042600626667318349 -0.265625
      vertex -0.6252340293893156 -0.19769891398635189 -0.060714285714285721
      vertex -0.64866650497061096 0.07770084566520559 0.013281249999999972
    endloop
  endfacet
  facet normal -0.97649016386035514 -0.21139556580701019 -0.04217670732893463
    outer loop
      vertex -0.64995996301578751 -0.042600626667318349 -0.265625
      vertex -0.6081062334681937 -0.23805355673107956 -0.255
      vertex -0.6252340293893156 -0.19769891398635189 -0.060714285714285721
    endloop
  endfacet
  facet normal -0.87189115022982799 -0.48957572098253593 0.011019781093001507
    outer loop
      vertex -0.6081062334681937 -0.23805355673107956 -0.255
      vertex -0.52484946345891481 -0.38776145455206601 -0.31874999999999998
      vertex -0.51021354432444954 -0.4076086680175896 -0.042499999999999982
    endloop
  endfacet
  facet normal -0.87756619283401005 -0.47894513832402463 0.022116321362333432
    outer loop
      vertex -0.6081062334681937 -0.23805355673107956 -0.255
      vertex -0.51021354432444954 -0.4076086680175896 -0.042499999999999982
      vertex -0.6252340293893156 -0.19769891398635189 -0.060714285714285721
    endloop
  endfacet
  facet normal -0.68948797104894566 -0.72299776913817504 0.043365465523044114
    outer loop
      vertex -0.52484946345891481 -0.38776145455206601 -0.31874999999999998
      vertex -0.35278496130086007 -0.55276145232616702 -0.33392857142857146
      vertex -0.32002014555132346 -0.56955488105114627 -0.092968750000000031
    endloop
  endfacet
  facet normal -0.65124453876946486 -0.75860438019275334 -0.019998626835745791
    outer loop
      vertex -0.52484946345891481 -0.38776145455206601 -0.31874999999999998
      vertex -0.32002014555132346 -0.56955488105114627 -0.092968750000000031
      vertex -0.51021354432444954 -0.4076086680175896 -0.042499999999999982
    endloop
  endfacet
  facet normal -0.053741293612197594 -0.99810536421105589 -0.029959227193022724
    outer loop
      vertex -0.12707297146855343 -0.63883896784564154 -0.053124999999999992
      vertex 0.11439815526836225 -0.64568995204275736 -0.2580357142857142
      vertex 0.037873232196009902 -0.65022602501746218 0.030357142857142857
    endloop
  endfacet
  facet normal 0.19496162778156342 -0.98013829079538195 0.03631658862655654
    outer loop
      vertex 0.11439815526836225 -0.64568995204275736 -0.2580357142857142
      vertex 0.21384042301085213 -0.61522397451133348 0.030357142857142888
      vertex 0.037873232196009902 -0.65022602501746218 0.030357142857142857
    endloop
  endfacet
  facet normal 0.36246910201569649 -0.93015709288768655 0.058514379725519608
    outer loop
      vertex 0.11439815526836225 -0.64568995204275736 -0.2580357142857142
      vertex 0.31593749960045009 -0.57097232969353284 -0.31875000000000009
      vertex 0.38733155315364487 -0.52577272179790357 -0.042499999999999968
    endloop
  endfacet
  facet normal 0.43868313432788175 -0.89686266668675296 -0.056519596245832519
    outer loop
      vertex 0.11439815526836225 -0.64568995204275736 -0.2580357142857142
      vertex 0.38733155315364487 -0.52577272179790357 -0.042499999999999968
      vertex 0.21384042301085213 -0.61522397451133348 0.030357142857142888
    endloop
  endfacet
  facet normal 0.67947325488333177 -0.73156729780309204 -0.055905140043943299
    outer loop
      vertex 0.31593749960045009 -0.57097232969353284 -0.31875000000000009
      vertex 0.51038984034626289 -0.40660560227419529 -0.10624999999999997
      vertex 0.38733155315364487 -0.52577272179790357 -0.042499999999999968
    endloop
  endfacet
  facet normal -0.42003049924103686 0.90750998876449029 -1.1415320309868193e-15
    outer loop
      vertex -0.16903196075483201 0.63083586564000904 -0.10624999999999998
      vertex -0.36187320641893123 0.54158152608080512 -0.21249999999999994
      vertex -0.36187320641892862 0.54158152608080679 0.15937499999999999
    endloop
  endfacet
  facet normal -0.43903502874846118 0.89831121409720727 -0.016888047816110415
    outer loop
      vertex -0.16903196075483201 0.63083586564000904 -0.10624999999999998
      vertex -0.36187320641892862 0.54158152608080679 0.15937499999999999
      vertex -0.18234525322758929 0.62782479296245819 0.079687499999999994
    endloop
  endfacet
  facet normal -0.65672861403265215 0.75412699693801688 1.2303786301866099e-15
    outer loop
      vertex -0.36187320641893123 0.54158152608080512 -0.21249999999999994
      vertex -0.48655965090507236 0.43299881228257031 0.030357142857142836
      vertex -0.36187320641892862 0.54158152608080679 0.15937499999999999
    endloop
  endfacet
  facet normal -0.95179782267609891 0.30417982527318388 0.039440317516632323
    outer loop
      vertex -0.58418215274812324 0.2880867565968635 -0.053124999999999992
      vertex -0.63328756130608577 0.15739367720602798 -0.2302083333333334
      vertex -0.64866650497061096 0.07770084566520559 0.013281249999999972
    endloop
  endfacet
  facet normal 0.87401024836494479 -0.48212329137319421 0.060524521216823723
    outer loop
      vertex 0.62190863817091824 -0.21110953585104189 -0.15937499999999999
      vertex 0.63045969736286012 -0.16893116676875089 0.053125000000000061
      vertex 0.51038984034626289 -0.40660560227419529 -0.10624999999999997
    endloop
  endfacet
  facet normal 0.98963303381513079 -0.1431654475856548 -0.011406708528729714
    outer loop
      vertex 0.62190863817091824 -0.21110953585104189 -0.15937499999999999
      vertex 0.65030957457235228 -0.035951365188425968 0.10624999999999998
      vertex 0.63045969736286012 -0.16893116676875089 0.053125000000000061
    endloop
  endfacet
  facet normal 0.99552104941988551 -0.075860322148593992 -0.056418540263298234
    outer loop
      vertex 0.62190863817091824 -0.21110953585104189 -0.15937499999999999
      vertex 0.64750207555990424 0.085245265440484691 -0.10625
      vertex 0.65030957457235228 -0.035951365188425968 0.10624999999999998
    endloop
  endfacet
  facet normal 0.9981262491602958 0.057886512136507327 0.019827820098768194
    outer loop
      vertex 0.65030957457235228 -0.035951365188425968 0.10624999999999998
      vertex 0.64750207555990424 0.085245265440484691 -0.10625
      vertex 0.63787242428156576 0.13170814579265921 0.24285714285714288
    endloop
  endfacet
  facet normal 0.95109255019880601 0.30854986287689379 -0.014830477908060094
    outer loop
      vertex 0.64750207555990424 0.085245265440484691 -0.10625
      vertex 0.5841821527481238 0.288086756596862 0.053125000000000006
      vertex 0.63787242428156576 0.13170814579265921 0.24285714285714288
    endloop
  endfacet
  facet normal 0.83146961230254335 0.55557023301960518 -1.3442629482776533e-15
    outer loop
      vertex 0.5841821527481238 0.288086756596862 0.053125000000000006
      vertex 0.48971428934747591 0.42946790534896639 -0.10624999999999998
      vertex 0.48971428934747818 0.4294679053489639 0.265625
    endloop
  endfacet
  facet normal 0.65934581510006807 0.75183980747897827 1.0150032698477977e-15
    outer loop
      vertex 0.48971428934747591 0.42946790534896639 -0.10624999999999998
      vertex 0.36187320641893056 0.54158152608080545 -0.053124999999999985
      vertex 0.48971428934747818 0.4294679053489639 0.265625
    endloop
  endfacet
  facet normal 0.200914652644161 0.97956245433532152 -0.009523676256419181
    outer loop
      vertex 0.20937106249667572 0.61678726081603319 0.053124999999999992
      vertex 0.042600626667318217 0.64995996301578762 -0.053124999999999992
      vertex 0.042775998817483708 0.65263562497553107 0.22578124999999996
    endloop
  endfacet
  facet normal -0.092361711164350338 0.99568009809219149 0.0095108660971091087
    outer loop
      vertex 0.042600626667318217 0.64995996301578762 -0.053124999999999992
      vertex -0.16903196075483201 0.63083586564000904 -0.10624999999999998
      vertex -0.18234525322758929 0.62782479296245819 0.079687499999999994
    endloop
  endfacet
  facet normal -0.10346472148785703 0.99458797932865073 -0.0094764329993830328
    outer loop
      vertex 0.042600626667318217 0.64995996301578762 -0.053124999999999992
      vertex -0.18234525322758929 0.62782479296245819 0.079687499999999994
      vertex 0.042775998817483708 0.65263562497553107 0.22578124999999996
    endloop
  endfacet
  facet normal -0.82389616541549959 0.56639728876893969 -0.019728656538910049
    outer loop
      vertex -0.48655965090507236 0.43299881228257031 0.030357142857142836
      vertex -0.58418215274812324 0.2880867565968635 -0.053124999999999992
      vertex -0.57097232969353129 0.31593749960045314 0.19479166666666667
    endloop
  endfacet
  facet normal -0.95440341346081847 0.29801380476104239 0.017375170392985181
    outer loop
      vertex -0.58418215274812324 0.2880867565968635 -0.053124999999999992
      vertex -0.64866650497061096 0.07770084566520559 0.013281249999999972
      vertex -0.57097232969353129 0.31593749960045314 0.19479166666666667
    endloop
  endfacet
  facet normal -0.99625039121931847 -0.07179518050950888 -0.048276392273676423
    outer loop
      vertex -0.64866650497061096 0.07770084566520559 0.013281249999999972
      vertex -0.6252340293893156 -0.19769891398635189 -0.060714285714285721
      vertex -0.64667418847850633 -0.092833991853958839 0.22578125000000002
    endloop
  endfacet
  facet normal -0.93112536378630539 -0.35941245470882954 0.061872807548989599
    outer loop
      vertex -0.6252340293893156 -0.19769891398635189 -0.060714285714285721
      vertex -0.54607844672055095 -0.36487795272682477 0.15937499999999999
      vertex -0.64667418847850633 -0.092833991853958839 0.22578125000000002
    endloop
  endfacet
  facet normal -0.87380213875831758 -0.48339360262742115 -0.052919252075899793
    outer loop
      vertex -0.6252340293893156 -0.19769891398635189 -0.060714285714285721
      vertex -0.51021354432444954 -0.4076086680175896 -0.042499999999999982
      vertex -0.54607844672055095 -0.36487795272682477 0.15937499999999999
    endloop
  endfacet
  facet normal -0.64934486254916191 -0.76046300075538242 -0.0068756063826536234
    outer loop
      vertex -0.51021354432444954 -0.4076086680175896 -0.042499999999999982
      vertex -0.32002014555132346 -0.56955488105114627 -0.092968750000000031
      vertex -0.32680503296036373 -0.56604292125657485 0.15937499999999999
    endloop
  endfacet
  facet normal -0.67559012125347107 -0.7364053158589553 0.035849670003956488
    outer loop
      vertex -0.51021354432444954 -0.4076086680175896 -0.042499999999999982
      vertex -0.32680503296036373 -0.56604292125657485 0.15937499999999999
      vertex -0.54607844672055095 -0.36487795272682477 0.15937499999999999
    endloop
  endfacet
  facet normal -0.33868224361118116 -0.94089235850496089 0.0039884294489001201
    outer loop
      vertex -0.32002014555132346 -0.56955488105114627 -0.092968750000000031
      vertex -0.12707297146855343 -0.63883896784564154 -0.053124999999999992
      vertex -0.32680503296036373 -0.56604292125657485 0.15937499999999999
    endloop
  endfacet
  facet normal 0.45907722648790955 -0.88839300645337149 0.0024425816072816569
    outer loop
      vertex 0.21384042301085213 -0.61522397451133348 0.030357142857142888
      vertex 0.38733155315364487 -0.52577272179790357 -0.042499999999999968
      vertex 0.38776145455206601 -0.52484946345891492 0.21250000000000005
    endloop
  endfacet
  facet normal 0.70612439083994794 -0.70808647692273541 0.0013732662018142853
    outer loop
      vertex 0.38733155315364487 -0.52577272179790357 -0.042499999999999968
      vertex 0.5374634549789401 -0.37568003228796082 0.1517857142857143
      vertex 0.38776145455206601 -0.52484946345891492 0.21250000000000005
    endloop
  endfacet
  facet normal 0.6989056140864518 -0.71510684697147719 0.01237497527076797
    outer loop
      vertex 0.38733155315364487 -0.52577272179790357 -0.042499999999999968
      vertex 0.51038984034626289 -0.40660560227419529 -0.10624999999999997
      vertex 0.5374634549789401 -0.37568003228796082 0.1517857142857143
    endloop
  endfacet
  facet normal 0.90317762586041983 -0.42704899071319563 -0.043581368450019226
    outer loop
      vertex 0.51038984034626289 -0.40660560227419529 -0.10624999999999997
      vertex 0.63045969736286012 -0.16893116676875089 0.053125000000000061
      vertex 0.5374634549789401 -0.37568003228796082 0.1517857142857143
    endloop
  endfacet
  facet normal 0.65201223408001907 0.75819078398807438 0.0051751024657733253
    outer loop
      vertex 0.48971428934747818 0.4294679053489639 0.265625
      vertex 0.36187320641893056 0.54158152608080545 -0.053124999999999985
      vertex 0.34302931420444593 0.55524821426918725 0.31875000000000003
    endloop
  endfacet
  facet normal 0.43610334636775794 0.89982971188551841 -0.010970911305279246
    outer loop
      vertex 0.36187320641893056 0.54158152608080545 -0.053124999999999985
      vertex 0.20937106249667572 0.61678726081603319 0.053124999999999992
      vertex 0.34302931420444593 0.55524821426918725 0.31875000000000003
    endloop
  endfacet
  facet normal -0.11141924937292401 0.99376920067509478 0.0029200443074352948
    outer loop
      vertex -0.18234525322758929 0.62782479296245819 0.079687499999999994
      vertex -0.18133103527439998 0.62736093495013279 0.27625
      vertex 0.042775998817483708 0.65263562497553107 0.22578124999999996
    endloop
  endfacet
  facet normal -0.43144069537405333 0.90213078879554798 0.0043550295378472405
    outer loop
      vertex -0.18234525322758929 0.62782479296245819 0.079687499999999994
      vertex -0.36187320641892862 0.54158152608080679 0.15937499999999999
      vertex -0.18133103527439998 0.62736093495013279 0.27625
    endloop
  endfacet
  facet normal -0.93946165230799228 0.33982962539415584 -0.043904778181933252
    outer loop
      vertex -0.57097232969353129 0.31593749960045314 0.19479166666666667
      vertex -0.64866650497061096 0.07770084566520559 0.013281249999999972
      vertex -0.63328756130608699 0.15739367720602404 0.30104166666666665
    endloop
  endfacet
  facet normal -0.99828333396489566 0.040754056284156799 0.042065330431609482
    outer loop
      vertex -0.64866650497061096 0.07770084566520559 0.013281249999999972
      vertex -0.64667418847850633 -0.092833991853958839 0.22578125000000002
      vertex -0.63328756130608699 0.15739367720602404 0.30104166666666665
    endloop
  endfacet
  facet normal -0.35732980675976928 -0.93384199994247474 -0.015953944479808607
    outer loop
      vertex -0.32680503296036373 -0.56604292125657485 0.15937499999999999
      vertex -0.12707297146855343 -0.63883896784564154 -0.053124999999999992
      vertex -0.15739367720602529 -0.63328756130608654 0.30104166666666665
    endloop
  endfacet
  facet normal -0.073568528859664042 -0.99724649154955902 0.0093330945307592891
    outer loop
      vertex -0.12707297146855343 -0.63883896784564154 -0.053124999999999992
      vertex 0.037873232196009902 -0.65022602501746218 0.030357142857142857
      vertex -0.15739367720602529 -0.63328756130608654 0.30104166666666665
    endloop
  endfacet
  facet normal 0.19500597262330097 -0.98036122736952103 -0.029402967737400913
    outer loop
      vertex 0.037873232196009902 -0.65022602501746218 0.030357142857142857
      vertex 0.21384042301085213 -0.61522397451133348 0.030357142857142888
      vertex 0.097892689143744813 -0.64566222474866575 0.27625000000000005
    endloop
  endfacet
  facet normal 0.90886234678819544 -0.41676300914854381 -0.016668197146209613
    outer loop
      vertex 0.5374634549789401 -0.37568003228796082 0.1517857142857143
      vertex 0.63045969736286012 -0.16893116676875089 0.053125000000000061
      vertex 0.61678726081603208 -0.20937106249667922 0.31874999999999998
    endloop
  endfacet
  facet normal 0.98707255299624652 -0.15802620718007956 0.026748700262830383
    outer loop
      vertex 0.63045969736286012 -0.16893116676875089 0.053125000000000061
      vertex 0.65030957457235228 -0.035951365188425968 0.10624999999999998
      vertex 0.61678726081603208 -0.20937106249667922 0.31874999999999998
    endloop
  endfacet
  facet normal 0.99584276200267052 0.089140656063561419 -0.018738644653505429
    outer loop
      vertex 0.65030957457235228 -0.035951365188425968 0.10624999999999998
      vertex 0.63787242428156576 0.13170814579265921 0.24285714285714288
      vertex 0.65308934544547781 -2.5503336086036366e-16 0.42499999999999999
    endloop
  endfacet
  facet normal 0.94984111407483685 0.3125324878852011 -0.01119383890179884
    outer loop
      vertex 0.63787242428156576 0.13170814579265921 0.24285714285714288
      vertex 0.5841821527481238 0.288086756596862 0.053125000000000006
      vertex 0.59824863671456063 0.25974281368881508 0.4553571428571429
    endloop
  endfacet
  facet normal 0.83775092043158095 0.54597545376077394 0.0091760125738701015
    outer loop
      vertex 0.5841821527481238 0.288086756596862 0.053125000000000006
      vertex 0.48971428934747818 0.4294679053489639 0.265625
      vertex 0.59824863671456063 0.25974281368881508 0.4553571428571429
    endloop
  endfacet
  facet normal 0.28581662950675074 0.95514801606582356 0.077466907147002245
    outer loop
      vertex 0.20937106249667572 0.61678726081603319 0.053124999999999992
      vertex 0.042775998817483708 0.65263562497553107 0.22578124999999996
      vertex 0.34302931420444593 0.55524821426918725 0.31875000000000003
    endloop
  endfacet
  facet normal -0.64883457229826325 0.76081400686372891 -0.013256875592978867
    outer loop
      vertex -0.36187320641892862 0.54158152608080679 0.15937499999999999
      vertex -0.48655965090507236 0.43299881228257031 0.030357142857142836
      vertex -0.47071775051723275 0.45264498937156783 0.38250000000000001
    endloop
  endfacet
  facet normal -0.80872265359856532 0.58817934623844459 0.003567382094866399
    outer loop
      vertex -0.48655965090507236 0.43299881228257031 0.030357142857142836
      vertex -0.57097232969353129 0.31593749960045314 0.19479166666666667
      vertex -0.47071775051723275 0.45264498937156783 0.38250000000000001
    endloop
  endfacet
  facet normal -0.94002185985504261 -0.33949466508661125 -0.033200532712538214
    outer loop
      vertex -0.64667418847850633 -0.092833991853958839 0.22578125000000002
      vertex -0.54607844672055095 -0.36487795272682477 0.15937499999999999
      vertex -0.57183157603687818 -0.31539076667266364 0.38249999999999995
    endloop
  endfacet
  facet normal -0.79979203624116169 -0.59890799998666477 0.040520443200799131
    outer loop
      vertex -0.54607844672055095 -0.36487795272682477 0.15937499999999999
      vertex -0.44818556421490036 -0.47404005536013749 0.47812500000000002
      vertex -0.57183157603687818 -0.31539076667266364 0.38249999999999995
    endloop
  endfacet
  facet normal -0.67601876527639759 -0.73687254551072789 0.0041809887246118532
    outer loop
      vertex -0.54607844672055095 -0.36487795272682477 0.15937499999999999
      vertex -0.32680503296036373 -0.56604292125657485 0.15937499999999999
      vertex -0.32634995369415953 -0.56525470084603535 0.37187500000000001
    endloop
  endfacet
  facet normal -0.63539284848999811 -0.76916462710515832 -0.068276676090368499
    outer loop
      vertex -0.54607844672055095 -0.36487795272682477 0.15937499999999999
      vertex -0.32634995369415953 -0.56525470084603535 0.37187500000000001
      vertex -0.44818556421490036 -0.47404005536013749 0.47812500000000002
    endloop
  endfacet
  facet normal -0.37198788848242464 -0.92822790085722118 0.0042396807172485852
    outer loop
      vertex -0.32680503296036373 -0.56604292125657485 0.15937499999999999
      vertex -0.15739367720602529 -0.63328756130608654 0.30104166666666665
      vertex -0.32634995369415953 -0.56525470084603535 0.37187500000000001
    endloop
  endfacet
  facet normal -0.045523217389300978 -0.99852333360969303 0.029644374095470546
    outer loop
      vertex -0.15739367720602529 -0.63328756130608654 0.30104166666666665
      vertex 0.037873232196009902 -0.65022602501746218 0.030357142857142857
      vertex 0.097892689143744813 -0.64566222474866575 0.27625000000000005
    endloop
  endfacet
  facet normal 0.29395047648930672 -0.95560468383809627 0.020317617931285597
    outer loop
      vertex 0.097892689143744813 -0.64566222474866575 0.27625000000000005
      vertex 0.21384042301085213 -0.61522397451133348 0.030357142857142888
      vertex 0.29231383130355848 -0.58204887196490385 0.45535714285714274
    endloop
  endfacet
  facet normal 0.47699845351521414 -0.87868811874965946 -0.019485002239622656
    outer loop
      vertex 0.21384042301085213 -0.61522397451133348 0.030357142857142888
      vertex 0.38776145455206601 -0.52484946345891492 0.21250000000000005
      vertex 0.29231383130355848 -0.58204887196490385 0.45535714285714274
    endloop
  endfacet
  facet normal 0.71173443034860706 -0.70177714697353777 0.03070727343847859
    outer loop
      vertex 0.5374634549789401 -0.37568003228796082 0.1517857142857143
      vertex 0.5415815260808079 -0.36187320641892706 0.37187500000000001
      vertex 0.38776145455206601 -0.52484946345891492 0.21250000000000005
    endloop
  endfacet
  facet normal 0.89830100068975327 -0.43924914042966628 0.010747315552590899
    outer loop
      vertex 0.5374634549789401 -0.37568003228796082 0.1517857142857143
      vertex 0.61678726081603208 -0.20937106249667922 0.31874999999999998
      vertex 0.5415815260808079 -0.36187320641892706 0.37187500000000001
    endloop
  endfacet
  facet normal 0.98425414360214802 -0.17639676642382701 0.011312011192539842
    outer loop
      vertex 0.61678726081603208 -0.20937106249667922 0.31874999999999998
      vertex 0.65030957457235228 -0.035951365188425968 0.10624999999999998
      vertex 0.65308934544547781 -2.5503336086036366e-16 0.42499999999999999
    endloop
  endfacet
  facet normal 0.33584052900323397 0.93616207477012203 -0.10397936738088213
    outer loop
      vertex 0.34302931420444593 0.55524821426918725 0.31875000000000003
      vertex 0.042775998817483708 0.65263562497553107 0.22578124999999996
      vertex 0.12812809805731595 0.64414344741452079 0.42500000000000004
    endloop
  endfacet
  facet normal -0.11926806418116324 0.99232490352831837 -0.032656005634366207
    outer loop
      vertex 0.042775998817483708 0.65263562497553107 0.22578124999999996
      vertex -0.18133103527439998 0.62736093495013279 0.27625
      vertex -0.096935860717393643 0.64531336871044498 0.51354166666666667
    endloop
  endfacet
  facet normal 0.018784911088378747 0.99922653981878895 0.034546334641635569
    outer loop
      vertex 0.042775998817483708 0.65263562497553107 0.22578124999999996
      vertex -0.096935860717393643 0.64531336871044498 0.51354166666666667
      vertex 0.12812809805731595 0.64414344741452079 0.42500000000000004
    endloop
  endfacet
  facet normal -0.31088120791685886 0.94965970676705225 0.038721000855753931
    outer loop
      vertex -0.18133103527439998 0.62736093495013279 0.27625
      vertex -0.28808675659686089 0.58418215274812457 0.47812499999999997
      vertex -0.096935860717393643 0.64531336871044498 0.51354166666666667
    endloop
  endfacet
  facet normal -0.41559537485763365 0.90919742962248462 -0.025308464291815526
    outer loop
      vertex -0.18133103527439998 0.62736093495013279 0.27625
      vertex -0.36187320641892862 0.54158152608080679 0.15937499999999999
      vertex -0.28808675659686089 0.58418215274812457 0.47812499999999997
    endloop
  endfacet
  facet normal -0.59454062503413752 0.80349665672049886 0.030241822415291601
    outer loop
      vertex -0.36187320641892862 0.54158152608080679 0.15937499999999999
      vertex -0.47071775051723275 0.45264498937156783 0.38250000000000001
      vertex -0.28808675659686089 0.58418215274812457 0.47812499999999997
    endloop
  endfacet
  facet normal -0.80245109696120365 0.59668793206884674 -0.0059790224254552791
    outer loop
      vertex -0.47071775051723275 0.45264498937156783 0.38250000000000001
      vertex -0.57097232969353129 0.31593749960045314 0.19479166666666667
      vertex -0.56559196409673529 0.32654467272273829 0.53125
    endloop
  endfacet
  facet normal -0.92993626826066034 0.3677061170130197 0.003278488164504286
    outer loop
      vertex -0.57097232969353129 0.31593749960045314 0.19479166666666667
      vertex -0.63328756130608699 0.15739367720602404 0.30104166666666665
      vertex -0.56559196409673529 0.32654467272273829 0.53125
    endloop
  endfacet
  facet normal -0.9964115664787766 0.068329406599831499 -0.049950799603464914
    outer loop
      vertex -0.63328756130608699 0.15739367720602404 0.30104166666666665
      vertex -0.64667418847850633 -0.092833991853958839 0.22578125000000002
      vertex -0.64711596919931114 0.085194433573777845 0.47812499999999991
    endloop
  endfacet
  facet normal -0.99999846751081067 1.9536079970597949e-15 -0.0017507072942404033
    outer loop
      vertex -0.64667418847850633 -0.092833991853958839 0.22578125000000002
      vertex -0.64711596919931147 -0.085194433573776568 0.47812499999999997
      vertex -0.64711596919931114 0.085194433573777845 0.47812499999999991
    endloop
  endfacet
  facet normal -0.94946572061933643 -0.31377288922684982 0.0078370501490713056
    outer loop
      vertex -0.64667418847850633 -0.092833991853958839 0.22578125000000002
      vertex -0.57183157603687818 -0.31539076667266364 0.38249999999999995
      vertex -0.64711596919931147 -0.085194433573776568 0.47812499999999997
    endloop
  endfacet
  facet normal -0.05319636463900277 -0.9973334173367574 -0.049962000085861942
    outer loop
      vertex -0.15739367720602529 -0.63328756130608654 0.30104166666666665
      vertex 0.097892689143744813 -0.64566222474866575 0.27625000000000005
      vertex -0.073386538521036895 -0.6484136957940857 0.51354166666666656
    endloop
  endfacet
  facet normal 0.052307649508043445 -0.99828777540551927 0.026180666126803732
    outer loop
      vertex 0.097892689143744813 -0.64566222474866575 0.27625000000000005
      vertex 0.12707297146855223 -0.63883896784564165 0.47812499999999991
      vertex -0.073386538521036895 -0.6484136957940857 0.51354166666666656
    endloop
  endfacet
  facet normal 0.32316997546449078 -0.94622627360965894 -0.014731126537337718
    outer loop
      vertex 0.097892689143744813 -0.64566222474866575 0.27625000000000005
      vertex 0.29231383130355848 -0.58204887196490385 0.45535714285714274
      vertex 0.12707297146855223 -0.63883896784564165 0.47812499999999991
    endloop
  endfacet
  facet normal 0.55857101335514536 -0.82910203958339002 0.024253473938153188
    outer loop
      vertex 0.29231383130355848 -0.58204887196490385 0.45535714285714274
      vertex 0.38776145455206601 -0.52484946345891492 0.21250000000000005
      vertex 0.44818556421489675 -0.47404005536014093 0.55781250000000016
    endloop
  endfacet
  facet normal 0.74198045061127915 -0.6696906503792216 -0.031296065333172841
    outer loop
      vertex 0.38776145455206601 -0.52484946345891492 0.21250000000000005
      vertex 0.5415815260808079 -0.36187320641892706 0.37187500000000001
      vertex 0.44818556421489675 -0.47404005536014093 0.55781250000000016
    endloop
  endfacet
  facet normal 0.97797440176796535 0.19919866385305246 0.062337483152184597
    outer loop
      vertex 0.65308934544547781 -2.5503336086036366e-16 0.42499999999999999
      vertex 0.63787242428156576 0.13170814579265921 0.24285714285714288
      vertex 0.59824863671456063 0.25974281368881508 0.4553571428571429
    endloop
  endfacet
  facet normal 0.85233334399814076 0.52261392521476124 -0.020063795268269007
    outer loop
      vertex 0.59824863671456063 0.25974281368881508 0.4553571428571429
      vertex 0.48971428934747818 0.4294679053489639 0.265625
      vertex 0.49378054011360212 0.43303391156348009 0.53125
    endloop
  endfacet
  facet normal 0.64659704556460573 0.76256594138761935 -0.020135682326088256
    outer loop
      vertex 0.48971428934747818 0.4294679053489639 0.265625
      vertex 0.34302931420444593 0.55524821426918725 0.31875000000000003
      vertex 0.49378054011360212 0.43303391156348009 0.53125
    endloop
  endfacet
  facet normal 0.59784324683992429 0.80078472794989652 0.036431740146574833
    outer loop
      vertex 0.34302931420444593 0.55524821426918725 0.31875000000000003
      vertex 0.28808675659685873 0.58418215274812546 0.58437499999999998
      vertex 0.49378054011360212 0.43303391156348009 0.53125
    endloop
  endfacet
  facet normal 0.37191243712234384 0.92795355042317629 -0.024152585177163073
    outer loop
      vertex 0.34302931420444593 0.55524821426918725 0.31875000000000003
      vertex 0.12812809805731595 0.64414344741452079 0.42500000000000004
      vertex 0.28808675659685873 0.58418215274812546 0.58437499999999998
    endloop
  endfacet
  facet normal 0.29569084198214141 0.95327766865912289 0.061875782045319398
    outer loop
      vertex 0.12812809805731595 0.64414344741452079 0.42500000000000004
      vertex 0.085194433573777026 0.64711596919931136 0.58437499999999998
      vertex 0.28808675659685873 0.58418215274812546 0.58437499999999998
    endloop
  endfacet
  facet normal -0.0023924462444584222 0.99981102791307752 -0.019292088128627195
    outer loop
      vertex 0.12812809805731595 0.64414344741452079 0.42500000000000004
      vertex -0.096935860717393643 0.64531336871044498 0.51354166666666667
      vertex 0.085194433573777026 0.64711596919931136 0.58437499999999998
    endloop
  endfacet
  facet normal -0.56827369654950599 0.82161642841269922 -0.044849195893795497
    outer loop
      vertex -0.28808675659686089 0.58418215274812457 0.47812499999999997
      vertex -0.47071775051723275 0.45264498937156783 0.38250000000000001
      vertex -0.40373368951949901 0.51361927926709317 0.65078124999999998
    endloop
  endfacet
  facet normal -0.77027911897849555 0.63591341900194343 0.047793330067818704
    outer loop
      vertex -0.47071775051723275 0.45264498937156783 0.38250000000000001
      vertex -0.56559196409673529 0.32654467272273829 0.53125
      vertex -0.40373368951949901 0.51361927926709317 0.65078124999999998
    endloop
  endfacet
  facet normal -0.94954313093434817 0.30930290172994684 0.051957265871389192
    outer loop
      vertex -0.56559196409673529 0.32654467272273829 0.53125
      vertex -0.63328756130608699 0.15739367720602404 0.30104166666666665
      vertex -0.64711596919931114 0.085194433573777845 0.47812499999999991
    endloop
  endfacet
  facet normal -0.95358105090735168 -0.29971254652871038 -0.029250107755468616
    outer loop
      vertex -0.64711596919931147 -0.085194433573776568 0.47812499999999997
      vertex -0.57183157603687818 -0.31539076667266364 0.38249999999999995
      vertex -0.5819014647227394 -0.3023129792968095 0.57678571428571435
    endloop
  endfacet
  facet normal -0.78888398355180911 -0.61454196925701043 0.00047803466867250426
    outer loop
      vertex -0.57183157603687818 -0.31539076667266364 0.38249999999999995
      vertex -0.44818556421490036 -0.47404005536013749 0.47812500000000002
      vertex -0.5819014647227394 -0.3023129792968095 0.57678571428571435
    endloop
  endfacet
  facet normal -0.57203202050404012 -0.81888023237151997 0.047058820100284157
    outer loop
      vertex -0.44818556421490036 -0.47404005536013749 0.47812500000000002
      vertex -0.32634995369415953 -0.56525470084603535 0.37187500000000001
      vertex -0.24992647235614437 -0.60337587915827096 0.63749999999999996
    endloop
  endfacet
  facet normal -0.34697899252832443 -0.93521183195866997 0.070600340711198112
    outer loop
      vertex -0.32634995369415953 -0.56525470084603535 0.37187500000000001
      vertex -0.15739367720602529 -0.63328756130608654 0.30104166666666665
      vertex -0.073386538521036895 -0.6484136957940857 0.51354166666666656
    endloop
  endfacet
  facet normal -0.28344747506039558 -0.95736039922676464 -0.055844380865546925
    outer loop
      vertex -0.32634995369415953 -0.56525470084603535 0.37187500000000001
      vertex -0.073386538521036895 -0.6484136957940857 0.51354166666666656
      vertex -0.24992647235614437 -0.60337587915827096 0.63749999999999996
    endloop
  endfacet
  facet normal 0.77889588944287425 -0.62701873742944614 0.012988314801276216
    outer loop
      vertex 0.5415815260808079 -0.36187320641892706 0.37187500000000001
      vertex 0.56559196409673385 -0.32654467272274035 0.63749999999999996
      vertex 0.44818556421489675 -0.47404005536014093 0.55781250000000016
    endloop
  endfacet
  facet normal 0.89372427275848798 -0.4481161621088649 -0.021185597445749743
    outer loop
      vertex 0.5415815260808079 -0.36187320641892706 0.37187500000000001
      vertex 0.61678726081603208 -0.20937106249667922 0.31874999999999998
      vertex 0.56559196409673385 -0.32654467272274035 0.63749999999999996
    endloop
  endfacet
  facet normal 0.94065956011342011 -0.33829795657092349 0.026722360433997672
    outer loop
      vertex 0.61678726081603208 -0.20937106249667922 0.31874999999999998
      vertex 0.6388389678456412 -0.12707297146855356 0.58437499999999998
      vertex 0.56559196409673385 -0.32654467272274035 0.63749999999999996
    endloop
  endfacet
  facet normal 0.98750567633657382 -0.15379857998992585 -0.034329812060772721
    outer loop
      vertex 0.61678726081603208 -0.20937106249667922 0.31874999999999998
      vertex 0.65308934544547781 -2.5503336086036366e-16 0.42499999999999999
      vertex 0.6388389678456412 -0.12707297146855356 0.58437499999999998
    endloop
  endfacet
  facet normal 0.97592178834693488 0.21203211501524988 -0.05117660824908319
    outer loop
      vertex 0.65308934544547781 -2.5503336086036366e-16 0.42499999999999999
      vertex 0.59824863671456063 0.25974281368881508 0.4553571428571429
      vertex 0.64711596919931147 0.085194433573777026 0.6640625
    endloop
  endfacet
  facet normal 0.8547950199974127 0.51890102839569952 -0.0081973481997715657
    outer loop
      vertex 0.59824863671456063 0.25974281368881508 0.4553571428571429
      vertex 0.49378054011360212 0.43303391156348009 0.53125
      vertex 0.50198482380320231 0.42191668462985737 0.68303571428571441
    endloop
  endfacet
  facet normal 0.59637456605030847 0.80226789985095559 0.026525343297369639
    outer loop
      vertex 0.49378054011360212 0.43303391156348009 0.53125
      vertex 0.28808675659685873 0.58418215274812546 0.58437499999999998
      vertex 0.50198482380320231 0.42191668462985737 0.68303571428571441
    endloop
  endfacet
  facet normal 0.29607119940901883 0.95450390292028653 -0.035554805448002713
    outer loop
      vertex 0.28808675659685873 0.58418215274812546 0.58437499999999998
      vertex 0.085194433573777026 0.64711596919931136 0.58437499999999998
      vertex 0.18523465246667109 0.62593147647236924 0.84870907493262493
    endloop
  endfacet
  facet normal -0.29838698911218109 0.9537728654987071 -0.035812368910090688
    outer loop
      vertex -0.096935860717393643 0.64531336871044498 0.51354166666666667
      vertex -0.28808675659686089 0.58418215274812457 0.47812499999999997
      vertex -0.20937106249668069 0.61678726081603141 0.69062499999999993
    endloop
  endfacet
  facet normal -0.47500796551004792 0.8790220036619053 0.041082231928345689
    outer loop
      vertex -0.28808675659686089 0.58418215274812457 0.47812499999999997
      vertex -0.40373368951949901 0.51361927926709317 0.65078124999999998
      vertex -0.20937106249668069 0.61678726081603141 0.69062499999999993
    endloop
  endfacet
  facet normal -0.94167422615251928 0.33120356137384438 -0.059614199091625318
    outer loop
      vertex -0.56559196409673529 0.32654467272273829 0.53125
      vertex -0.64711596919931114 0.085194433573777845 0.47812499999999991
      vertex -0.640318009754829 0.14140473288188449 0.6830357142857143
    endloop
  endfacet
  facet normal -0.9994501559848068 1.9644731524659646e-15 0.033156985718631224
    outer loop
      vertex -0.64711596919931114 0.085194433573777845 0.47812499999999991
      vertex -0.64711596919931147 -0.085194433573776568 0.47812499999999997
      vertex -0.640318009754829 0.14140473288188449 0.6830357142857143
    endloop
  endfacet
  facet normal -0.99970670016621488 0.022921458605525025 0.0078179523005015572
    outer loop
      vertex -0.64711596919931147 -0.085194433573776568 0.47812499999999997
      vertex -0.64566222474866575 -0.097892689143745867 0.70125000000000004
      vertex -0.640318009754829 0.14140473288188449 0.6830357142857143
    endloop
  endfacet
  facet normal -0.9563687471840645 -0.29197766750804532 -0.010385619198883339
    outer loop
      vertex -0.64711596919931147 -0.085194433573776568 0.47812499999999997
      vertex -0.5819014647227394 -0.3023129792968095 0.57678571428571435
      vertex -0.64566222474866575 -0.097892689143745867 0.70125000000000004
    endloop
  endfacet
  facet normal 0.040453507781988633 -0.9983427904050739 -0.040929042919951385
    outer loop
      vertex -0.073386538521036895 -0.6484136957940857 0.51354166666666656
      vertex 0.12707297146855223 -0.63883896784564165 0.47812499999999991
      vertex 4.1118455026496741e-16 -0.65269990738831962 0.69062500000000016
    endloop
  endfacet
  facet normal 0.13736446548238282 -0.99036520619731361 0.017543146140060847
    outer loop
      vertex 0.12707297146855223 -0.63883896784564165 0.47812499999999991
      vertex 0.18133103527440175 -0.62736093495013234 0.70125000000000004
      vertex 4.1118455026496741e-16 -0.65269990738831962 0.69062500000000016
    endloop
  endfacet
  facet normal 0.32125159104683887 -0.94653653435883611 -0.02942795225357071
    outer loop
      vertex 0.12707297146855223 -0.63883896784564165 0.47812499999999991
      vertex 0.29231383130355848 -0.58204887196490385 0.45535714285714274
      vertex 0.18133103527440175 -0.62736093495013234 0.70125000000000004
    endloop
  endfacet
  facet normal 0.99744305842282144 -0.055701925052423044 0.044773214644273196
    outer loop
      vertex 0.6388389678456412 -0.12707297146855356 0.58437499999999998
      vertex 0.65308934544547781 -2.5503336086036366e-16 0.42499999999999999
      vertex 0.64711596919931147 0.085194433573777026 0.6640625
    endloop
  endfacet
  facet normal 0.96900346858413089 0.24615110540920229 -0.021021683513721232
    outer loop
      vertex 0.64711596919931147 0.085194433573777026 0.6640625
      vertex 0.59824863671456063 0.25974281368881508 0.4553571428571429
      vertex 0.6203389562677305 0.20646172861555526 0.84973080353743569
    endloop
  endfacet
  facet normal 0.8704897338440295 0.49186843767543187 0.017693594628583612
    outer loop
      vertex 0.59824863671456063 0.25974281368881508 0.4553571428571429
      vertex 0.50198482380320231 0.42191668462985737 0.68303571428571441
      vertex 0.6203389562677305 0.20646172861555526 0.84973080353743569
    endloop
  endfacet
  facet normal 0.62431722261004496 0.77759790717043042 -0.074629084924351122
    outer loop
      vertex 0.50198482380320231 0.42191668462985737 0.68303571428571441
      vertex 0.28808675659685873 0.58418215274812546 0.58437499999999998
      vertex 0.4229923268196315 0.50133695356791819 0.84973558206439892
    endloop
  endfacet
  facet normal 0.4636466397848244 0.88508894980094388 0.04061212080775449
    outer loop
      vertex 0.28808675659685873 0.58418215274812546 0.58437499999999998
      vertex 0.18523465246667109 0.62593147647236924 0.84870907493262493
      vertex 0.4229923268196315 0.50133695356791819 0.84973558206439892
    endloop
  endfacet
  facet normal 0.13672912750851821 0.99022355338503187 0.027612678469871168
    outer loop
      vertex 0.085194433573777026 0.64711596919931136 0.58437499999999998
      vertex -0.009021450498377449 0.65272794047547122 0.84964986263413544
      vertex 0.18523465246667109 0.62593147647236924 0.84870907493262493
    endloop
  endfacet
  facet normal -0.0014666949010943096 0.99976407541327283 -0.021671232524037801
    outer loop
      vertex 0.085194433573777026 0.64711596919931136 0.58437499999999998
      vertex -0.096935860717393643 0.64531336871044498 0.51354166666666667
      vertex -0.009021450498377449 0.65272794047547122 0.84964986263413544
    endloop
  endfacet
  facet normal -0.20006560074085777 0.979300574125607 0.030726876142168059
    outer loop
      vertex -0.096935860717393643 0.64531336871044498 0.51354166666666667
      vertex -0.20937106249668069 0.61678726081603141 0.69062499999999993
      vertex -0.009021450498377449 0.65272794047547122 0.84964986263413544
    endloop
  endfacet
  facet normal -0.74481625339894764 0.66638364811787221 -0.03437415008215447
    outer loop
      vertex -0.40373368951949901 0.51361927926709317 0.65078124999999998
      vertex -0.56559196409673529 0.32654467272273829 0.53125
      vertex -0.5233358029747579 0.39019839591060618 0.84964986263413544
    endloop
  endfacet
  facet normal -0.9144609995263554 0.40260449702889395 0.040874188889448701
    outer loop
      vertex -0.56559196409673529 0.32654467272273829 0.53125
      vertex -0.640318009754829 0.14140473288188449 0.6830357142857143
      vertex -0.5233358029747579 0.39019839591060618 0.84964986263413544
    endloop
  endfacet
  facet normal -0.96100426245996473 -0.27302993532868997 -0.043880086009381938
    outer loop
      vertex -0.64566222474866575 -0.097892689143745867 0.70125000000000004
      vertex -0.5819014647227394 -0.3023129792968095 0.57678571428571435
      vertex -0.61699057741565 -0.22267437423590067 0.84973558206439903
    endloop
  endfacet
  facet normal -0.84191252308773978 -0.53742355018819465 0.048571917515711951
    outer loop
      vertex -0.5819014647227394 -0.3023129792968095 0.57678571428571435
      vertex -0.47062155431427055 -0.4519796556727238 0.84965024704526504
      vertex -0.61699057741565 -0.22267437423590067 0.84973558206439903
    endloop
  endfacet
  facet normal -0.79218612198591332 -0.61016914662401944 -0.01160864509903675
    outer loop
      vertex -0.5819014647227394 -0.3023129792968095 0.57678571428571435
      vertex -0.44818556421490036 -0.47404005536013749 0.47812500000000002
      vertex -0.47062155431427055 -0.4519796556727238 0.84965024704526504
    endloop
  endfacet
  facet normal -0.61240667891875766 -0.79048021287449843 0.0099545301036924466
    outer loop
      vertex -0.44818556421490036 -0.47404005536013749 0.47812500000000002
      vertex -0.31971698401194804 -0.56889165898817096 0.84948363587889808
      vertex -0.47062155431427055 -0.4519796556727238 0.84965024704526504
    endloop
  endfacet
  facet normal -0.52615088795156673 -0.84967053400348935 -0.035003239193007581
    outer loop
      vertex -0.44818556421490036 -0.47404005536013749 0.47812500000000002
      vertex -0.24992647235614437 -0.60337587915827096 0.63749999999999996
      vertex -0.31971698401194804 -0.56889165898817096 0.84948363587889808
    endloop
  endfacet
  facet normal -0.20585226298016429 -0.97663794292586859 0.061669881331758443
    outer loop
      vertex -0.24992647235614437 -0.60337587915827096 0.63749999999999996
      vertex -0.073386538521036895 -0.6484136957940857 0.51354166666666656
      vertex 4.1118455026496741e-16 -0.65269990738831962 0.69062500000000016
    endloop
  endfacet
  facet normal 0.4420334923061639 -0.89634112432329804 0.034336285857127662
    outer loop
      vertex 0.18133103527440175 -0.62736093495013234 0.70125000000000004
      vertex 0.29231383130355848 -0.58204887196490385 0.45535714285714274
      vertex 0.41731709645576542 -0.50529560004124274 0.84973538932761228
    endloop
  endfacet
  facet normal 0.58073278330678646 -0.81368810074190134 -0.025712041999624246
    outer loop
      vertex 0.29231383130355848 -0.58204887196490385 0.45535714285714274
      vertex 0.44818556421489675 -0.47404005536014093 0.55781250000000016
      vertex 0.41731709645576542 -0.50529560004124274 0.84973538932761228
    endloop
  endfacet
  facet normal 0.93466340109737545 -0.35345000159544243 -0.038437260845025426
    outer loop
      vertex 0.56559196409673385 -0.32654467272274035 0.63749999999999996
      vertex 0.6388389678456412 -0.12707297146855356 0.58437499999999998
      vertex 0.60649434414516412 -0.24145343519273463 0.84964986263413544
    endloop
  endfacet
  facet normal 0.97652873635620074 -0.21369756846773719 0.026925383962690171
    outer loop
      vertex 0.6388389678456412 -0.12707297146855356 0.58437499999999998
      vertex 0.64987432096322773 -0.043242309368186495 0.84948056835953578
      vertex 0.60649434414516412 -0.24145343519273463 0.84964986263413544
    endloop
  endfacet
  facet normal 0.99909721231443072 -0.026489866910488501 -0.033212155855920154
    outer loop
      vertex 0.6388389678456412 -0.12707297146855356 0.58437499999999998
      vertex 0.64711596919931147 0.085194433573777026 0.6640625
      vertex 0.64987432096322773 -0.043242309368186495 0.84948056835953578
    endloop
  endfacet
  facet normal 0.99089349113460079 0.11713781449483845 0.066398958142848893
    outer loop
      vertex 0.64987432096322773 -0.043242309368186495 0.84948056835953578
      vertex 0.64711596919931147 0.085194433573777026 0.6640625
      vertex 0.6203389562677305 0.20646172861555526 0.84973080353743569
    endloop
  endfacet
  facet normal 0.82424606126362898 0.55162847782006574 0.12776718259909753
    outer loop
      vertex 0.50198482380320231 0.42191668462985737 0.68303571428571441
      vertex 0.4229923268196315 0.50133695356791819 0.84973558206439892
      vertex 0.6203389562677305 0.20646172861555526 0.84973080353743569
    endloop
  endfacet
  facet normal -0.21904865376931684 0.97411622226565753 0.05581462891334308
    outer loop
      vertex -0.009021450498377449 0.65272794047547122 0.84964986263413544
      vertex -0.20937106249668069 0.61678726081603141 0.69062499999999993
      vertex -0.28643132899620954 0.59032709321121279 0.84999774949379681
    endloop
  endfacet
  facet normal -0.45585149086747023 0.88704556251458955 -0.073140879794270239
    outer loop
      vertex -0.20937106249668069 0.61678726081603141 0.69062499999999993
      vertex -0.40373368951949901 0.51361927926709317 0.65078124999999998
      vertex -0.28643132899620954 0.59032709321121279 0.84999774949379681
    endloop
  endfacet
  facet normal -0.64302923747099061 0.76104391755153711 0.085589457968172675
    outer loop
      vertex -0.40373368951949901 0.51361927926709317 0.65078124999999998
      vertex -0.5233358029747579 0.39019839591060618 0.84964986263413544
      vertex -0.28643132899620954 0.59032709321121279 0.84999774949379681
    endloop
  endfacet
  facet normal -0.90755634793834095 0.41980287402091465 0.010345157350240908
    outer loop
      vertex -0.5233358029747579 0.39019839591060618 0.84964986263413544
      vertex -0.640318009754829 0.14140473288188449 0.6830357142857143
      vertex -0.64270631641613063 0.13212711322262086 0.84999774949379703
    endloop
  endfacet
  facet normal -0.99968651557303723 0.021327690762933862 -0.013114884222144456
    outer loop
      vertex -0.640318009754829 0.14140473288188449 0.6830357142857143
      vertex -0.64566222474866575 -0.097892689143745867 0.70125000000000004
      vertex -0.64270631641613063 0.13212711322262086 0.84999774949379703
    endloop
  endfacet
  facet normal -0.98883066094452421 -0.07176620831646531 0.13062746770833844
    outer loop
      vertex -0.64566222474866575 -0.097892689143745867 0.70125000000000004
      vertex -0.61699057741565 -0.22267437423590067 0.84973558206439903
      vertex -0.64270631641613063 0.13212711322262086 0.84999774949379703
    endloop
  endfacet
  facet normal -0.34127202946382085 -0.939095506210192 0.040410792141064279
    outer loop
      vertex -0.24992647235614437 -0.60337587915827096 0.63749999999999996
      vertex -0.12810948068688779 -0.6385005873353875 0.84999958016397992
      vertex -0.31971698401194804 -0.56889165898817096 0.84948363587889808
    endloop
  endfacet
  facet normal -0.18134628546794151 -0.98168919109760244 -0.058308291255317488
    outer loop
      vertex -0.24992647235614437 -0.60337587915827096 0.63749999999999996
      vertex 4.1118455026496741e-16 -0.65269990738831962 0.69062500000000016
      vertex -0.12810948068688779 -0.6385005873353875 0.84999958016397992
    endloop
  endfacet
  facet normal -0.023132945432275353 -0.99726079292127501 0.070255090475047619
    outer loop
      vertex 4.1118455026496741e-16 -0.65269990738831962 0.69062500000000016
      vertex 0.12388352357266628 -0.64434606834910957 0.84999774949379703
      vertex -0.12810948068688779 -0.6385005873353875 0.84999958016397992
    endloop
  endfacet
  facet normal 0.14150326095210727 -0.98822586228396814 -0.058193403861841672
    outer loop
      vertex 4.1118455026496741e-16 -0.65269990738831962 0.69062500000000016
      vertex 0.18133103527440175 -0.62736093495013234 0.70125000000000004
      vertex 0.12388352357266628 -0.64434606834910957 0.84999774949379703
    endloop
  endfacet
  facet normal 0.42744516947141198 -0.90190614425740101 0.062096167726391517
    outer loop
      vertex 0.18133103527440175 -0.62736093495013234 0.70125000000000004
      vertex 0.41731709645576542 -0.50529560004124274 0.84973538932761228
      vertex 0.12388352357266628 -0.64434606834910957 0.84999774949379703
    endloop
  endfacet
  facet normal 0.77831412487279394 -0.62769361645757926 0.015094597772136072
    outer loop
      vertex 0.44818556421489675 -0.47404005536014093 0.55781250000000016
      vertex 0.56559196409673385 -0.32654467272274035 0.63749999999999996
      vertex 0.41731709645576542 -0.50529560004124274 0.84973538932761228
    endloop
  endfacet
  facet normal 0.81029718510249993 -0.58096560636464045 0.076794765683153923
    outer loop
      vertex 0.56559196409673385 -0.32654467272274035 0.63749999999999996
      vertex 0.60649434414516412 -0.24145343519273463 0.84964986263413544
      vertex 0.41731709645576542 -0.50529560004124274 0.84973538932761228
    endloop
  endfacet
  facet normal 0.00073841018352990948 -0.00091478613143759757 0.9999993089581285
    outer loop
      vertex 0 0 0.84999999999999998
      vertex 0.64987432096322773 -0.043242309368186495 0.84948056835953578
      vertex 0.6203389562677305 0.20646172861555526 0.84973080353743569
    endloop
  endfacet
  facet normal 0.00020741265409920394 0.0034505883113520085 -0.99999402519229907
    outer loop
      vertex 0 0 -0.84999999999999998
      vertex 0.62617411915284171 0.18668154209903334 -0.84922595779215282
      vertex 0.65500364302188574 -0.038719644081431574 -0.84999774949379692
    endloop
  endfacet
  facet normal 0.0020098073756033728 -0.0025950681543190552 -0.99999461313328464
    outer loop
      vertex 0 0 -0.84999999999999998
      vertex 0.51670505398234101 0.39972923482463824 -0.84999884697292727
      vertex 0.62617411915284171 0.18668154209903334 -0.84922595779215282
    endloop
  endfacet
  facet normal 0.00035931050030947988 0.00022426499085322098 0.9999999103005851
    outer loop
      vertex 0 0 0.84999999999999998
      vertex 0.6203389562677305 0.20646172861555526 0.84973080353743569
      vertex 0.4229923268196315 0.50133695356791819 0.84973558206439892
    endloop
  endfacet
  facet normal -0.00073695807106725084 0.0009555042585122262 -0.99999927195194172
    outer loop
      vertex 0 0 -0.84999999999999998
      vertex 0.35404478875113532 0.54628234635882889 -0.84973894086622992
      vertex 0.51670505398234101 0.39972923482463824 -0.84999884697292727
    endloop
  endfacet
  facet normal -0.00021771090339551798 0.00061898117452945556 -0.99999978473211082
    outer loop
      vertex 0 0 -0.84999999999999998
      vertex 0.17765247429256742 0.62815185204230162 -0.84964986263413533
      vertex 0.35404478875113532 0.54628234635882889 -0.84973894086622992
    endloop
  endfacet
  facet normal -0.0028020894105550212 0.0028916242887596622 0.99999189336909522
    outer loop
      vertex 0 0 0.84999999999999998
      vertex 0.4229923268196315 0.50133695356791819 0.84973558206439892
      vertex 0.18523465246667109 0.62593147647236924 0.84870907493262493
    endloop
  endfacet
  facet normal 0.0049263556661153984 0.00060450289077125443 0.99998768272219518
    outer loop
      vertex 0 0 0.84999999999999998
      vertex 0.18523465246667109 0.62593147647236924 0.84870907493262493
      vertex -0.009021450498377449 0.65272794047547122 0.84964986263413544
    endloop
  endfacet
  facet normal 0.00067183522874546373 0.0003674017226245733 -0.99999970682665684
    outer loop
      vertex 0 0 -0.84999999999999998
      vertex -0.087689846074155711 0.64606961434407473 -0.8498215459862325
      vertex 0.17765247429256742 0.62815185204230162 -0.84964986263413533
    endloop
  endfacet
  facet normal 0.0011298767966842101 0.0005520373715650795 0.99999920931626973
    outer loop
      vertex 0 0 0.84999999999999998
      vertex -0.009021450498377449 0.65272794047547122 0.84964986263413544
      vertex -0.28643132899620954 0.59032709321121279 0.84999774949379681
    endloop
  endfacet
  facet normal -0.0032781968943760794 -0.00016873031374396491 -0.99999461246308874
    outer loop
      vertex 0 0 -0.84999999999999998
      vertex -0.26681657906719047 0.59645028191140292 -0.84922595779215249
      vertex -0.087689846074155711 0.64606961434407473 -0.8498215459862325
    endloop
  endfacet
  facet normal 0.0029980036367039217 0.0026388672389114861 -0.99999202414513788
    outer loop
      vertex 0 0 -0.84999999999999998
      vertex -0.43019635840817055 0.48890298862028614 -0.84999958016397992
      vertex -0.26681657906719047 0.59645028191140292 -0.84922595779215249
    endloop
  endfacet
  facet normal -0.0010438344904728576 -0.00050266436875067442 0.99999932886881926
    outer loop
      vertex 0 0 0.84999999999999998
      vertex -0.28643132899620954 0.59032709321121279 0.84999774949379681
      vertex -0.5233358029747579 0.39019839591060618 0.84964986263413544
    endloop
  endfacet
  facet normal -0.0023177232707871152 -0.0020385563190829848 -0.99999523621214026
    outer loop
      vertex 0 0 -0.84999999999999998
      vertex -0.54190421335028804 0.36131198972649076 -0.84948056835953567
      vertex -0.43019635840817055 0.48890298862028614 -0.84999958016397992
    endloop
  endfacet
  facet normal -0.00072179517161163279 0.00035506053324831316 -0.99999967647182164
    outer loop
      vertex 0 0 -0.84999999999999998
      vertex -0.6169536992150072 0.20874545118835236 -0.84948056835953578
      vertex -0.54190421335028804 0.36131198972649076 -0.84948056835953567
    endloop
  endfacet
  facet normal 0.00024986472065700204 0.0012324505899477972 0.99999920931626984
    outer loop
      vertex 0 0 0.84999999999999998
      vertex -0.5233358029747579 0.39019839591060618 0.84964986263413544
      vertex -0.64270631641613063 0.13212711322262086 0.84999774949379703
    endloop
  endfacet
  facet normal -1.1445318945895061e-05 0.0024545150131573099 -0.99999698760799016
    outer loop
      vertex 0 0 -0.84999999999999998
      vertex -0.65326942073066252 -0.0025764166218680469 -0.84999884697292727
      vertex -0.6169536992150072 0.20874545118835236 -0.84948056835953578
    endloop
  endfacet
  facet normal -0.00015775739918908835 -0.00075034691185419734 0.99999970604601418
    outer loop
      vertex 0 0 0.84999999999999998
      vertex -0.64270631641613063 0.13212711322262086 0.84999774949379703
      vertex -0.61699057741565 -0.22267437423590067 0.84973558206439903
    endloop
  endfacet
  facet normal 1.0385497304924231e-06 -0.00071086312154422179 -0.99999974733624009
    outer loop
      vertex 0 0 -0.84999999999999998
      vertex -0.60135952384945957 -0.25191700768062886 -0.84982154598623261
      vertex -0.65326942073066252 -0.0025764166218680469 -0.84999884697292727
    endloop
  endfacet
  facet normal -0.00056562376458687896 0.00064183554248654884 -0.99999963405837977
    outer loop
      vertex 0 0 -0.84999999999999998
      vertex -0.48890298862028575 -0.43019635840817105 -0.84999958016397981
      vertex -0.60135952384945957 -0.25191700768062886 -0.84982154598623261
    endloop
  endfacet
  facet normal -0.00023915702247332196 -0.00052480337101420732 0.99999983369265633
    outer loop
      vertex 0 0 0.84999999999999998
      vertex -0.61699057741565 -0.22267437423590067 0.84973558206439903
      vertex -0.47062155431427055 -0.4519796556727238 0.84965024704526504
    endloop
  endfacet
  facet normal 1.873819545687363e-06 -3.1054470129256726e-06 -0.99999999999342237
    outer loop
      vertex 0 0 -0.84999999999999998
      vertex -0.3244034681200611 -0.5670361221792326 -0.84999884697292738
      vertex -0.48890298862028575 -0.43019635840817105 -0.84999958016397981
    endloop
  endfacet
  facet normal 0.00027927717942150107 -0.0010646200489602565 0.99999939429402063
    outer loop
      vertex 0 0 0.84999999999999998
      vertex -0.47062155431427055 -0.4519796556727238 0.84965024704526504
      vertex -0.31971698401194804 -0.56889165898817096 0.84948363587889808
    endloop
  endfacet
  facet normal -3.6710022258028161e-06 6.6766083245753799e-08 -0.99999999999325961
    outer loop
      vertex 0 0 -0.84999999999999998
      vertex -0.1259858692013664 -0.63892299992336721 -0.84999958016397992
      vertex -0.3244034681200611 -0.5670361221792326 -0.84999884697292738
    endloop
  endfacet
  facet normal -0.002509989452629497 0.00050294959320496826 0.99999672349195945
    outer loop
      vertex 0 0 0.84999999999999998
      vertex -0.31971698401194804 -0.56889165898817096 0.84948363587889808
      vertex -0.12810948068688779 -0.6385005873353875 0.84999958016397992
    endloop
  endfacet
  facet normal 0.003028235995487385 -0.00059777904082996408 -0.99999523621214026
    outer loop
      vertex 0 0 -0.84999999999999998
      vertex 0.043242309368185884 -0.64987432096322795 -0.84948056835953567
      vertex -0.1259858692013664 -0.63892299992336721 -0.84999958016397992
    endloop
  endfacet
  facet normal 7.215928182260708e-06 -2.1053462734648479e-06 0.99999999997174893
    outer loop
      vertex 0 0 0.84999999999999998
      vertex -0.12810948068688779 -0.6385005873353875 0.84999958016397992
      vertex 0.12388352357266628 -0.64434606834910957 0.84999774949379703
    endloop
  endfacet
  facet normal 0.0001577126000650737 -0.00078878576800892758 -0.99999967647182164
    outer loop
      vertex 0 0 -0.84999999999999998
      vertex 0.20996871459546515 -0.61653845724175083 -0.84948056835953556
      vertex 0.043242309368185884 -0.64987432096322795 -0.84948056835953567
    endloop
  endfacet
  facet normal -0.00053373186253442915 -0.0010242642282964338 -0.99999933300632227
    outer loop
      vertex 0 0 -0.84999999999999998
      vertex 0.43399843077720007 -0.48897058002418525 -0.84973080353743524
      vertex 0.20996871459546515 -0.61653845724175083 -0.84948056835953556
    endloop
  endfacet
  facet normal 0.00082096256009057521 0.00015434753796561993 0.99999965109859534
    outer loop
      vertex 0 0 0.84999999999999998
      vertex 0.12388352357266628 -0.64434606834910957 0.84999774949379703
      vertex 0.41731709645576542 -0.50529560004124274 0.84973538932761228
    endloop
  endfacet
  facet normal 0.00031531634659802307 -0.00027066994438179425 -0.99999991365668772
    outer loop
      vertex 0 0 -0.84999999999999998
      vertex 0.58782094330772683 -0.27971173195623739 -0.84973894086623014
      vertex 0.43399843077720007 -0.48897058002418525 -0.84973080353743524
    endloop
  endfacet
  facet normal 0.00054950774427569519 -6.9843583572799746e-05 0.99999984658154462
    outer loop
      vertex 0 0 0.84999999999999998
      vertex 0.41731709645576542 -0.50529560004124274 0.84973538932761228
      vertex 0.60649434414516412 -0.24145343519273463 0.84964986263413544
    endloop
  endfacet
  facet normal -5.9074485101101829e-05 -0.0010574608538653485 -0.99999943914321654
    outer loop
      vertex 0 0 -0.84999999999999998
      vertex 0.65500364302188574 -0.038719644081431574 -0.84999774949379692
      vertex 0.58782094330772683 -0.27971173195623739 -0.84973894086623014
    endloop
  endfacet
  facet normal 0.00084382343615816487 0.00066943333651299682 0.99999941991034014
    outer loop
      vertex 0 0 0.84999999999999998
      vertex 0.60649434414516412 -0.24145343519273463 0.84964986263413544
      vertex 0.64987432096322773 -0.043242309368186495 0.84948056835953578
    endloop
  endfacet
endsolid line_w_1e_02
