solid standard_w_0e_00
  facet normal 0.83146961230254512 0.5555702330196024 0
    outer loop
      vertex 0.56291651245988394 0.3250000000000019 -0.84999999999999998
      vertex 0.51567967118930291 0.39569492885566843 -0.84999999999999998
      vertex 0.51567967118930291 0.39569492885566843 -0.74375000000000002
    endloop
  endfacet
  facet normal 0.75183980747897738 0.65934581510006884 0
    outer loop
      vertex 0.51567967118930291 0.39569492885566843 -0.84999999999999998
      vertex 0.45961940777125593 0.45961940777125593 -0.84999999999999998
      vertex 0.45961940777125593 0.45961940777125593 -0.74375000000000002
    endloop
  endfacet
  facet normal 0.75183980747897738 0.65934581510006884 -0
    outer loop
      vertex 0.51567967118930291 0.39569492885566843 -0.84999999999999998
      vertex 0.45961940777125593 0.45961940777125593 -0.74375000000000002
      vertex 0.51567967118930291 0.39569492885566843 -0.74375000000000002
    endloop
  endfacet
  facet normal 0.65934581510005252 0.7518398074789916 -0
    outer loop
      vertex 0.45961940777125593 0.45961940777125593 -0.84999999999999998
      vertex 0.39569492885564628 0.5156796711893199 -0.85000000000000009
      vertex 0.45961940777125593 0.45961940777125593 -0.74375000000000002
    endloop
  endfacet
  facet normal 0.19509032201612719 0.98078528040323054 -6.150824337566506e-17
    outer loop
      vertex 0.16823237931663848 0.62785178708789446 -0.84999999999999998
      vertex 0.084842024943033612 0.64443915989297673 -0.84999999999999998
      vertex 0.084842024943034708 0.64443915989297662 0.85000000000000009
    endloop
  endfacet
  facet normal 0.0654031292301437 0.99785892323860337 -6.3758544962579548e-17
    outer loop
      vertex 0.084842024943033612 0.64443915989297673 -0.84999999999999998
      vertex 3.9801020972288984e-17 0.65000000000000002 -0.84999999999999998
      vertex 0 0.65000000000000013 0.84999999999999987
    endloop
  endfacet
  facet normal 0.065403129230145449 0.99785892323860348 2.2988344697821987e-17
    outer loop
      vertex 0.084842024943033612 0.64443915989297673 -0.84999999999999998
      vertex 0 0.65000000000000013 0.84999999999999987
      vertex 0.084842024943034708 0.64443915989297662 0.85000000000000009
    endloop
  endfacet
  facet normal -0.0654031292301437 0.99785892323860359 3.000402115886096e-18
    outer loop
      vertex 3.9801020972288984e-17 0.65000000000000002 -0.84999999999999998
      vertex -0.084842024943033542 0.64443915989297673 -0.84999999999999998
      vertex -0.084842024943033473 0.64443915989297673 0.84999999999999987
    endloop
  endfacet
  facet normal -0.065403129230145088 0.99785892323860337 -6.6698650887563983e-17
    outer loop
      vertex 3.9801020972288984e-17 0.65000000000000002 -0.84999999999999998
      vertex -0.084842024943033473 0.64443915989297673 0.84999999999999987
      vertex 0 0.65000000000000013 0.84999999999999987
    endloop
  endfacet
  facet normal -0.19509032201612717 0.98078528040323076 2.1902935445968535e-16
    outer loop
      vertex -0.084842024943033542 0.64443915989297673 -0.84999999999999998
      vertex -0.16823237931663843 0.62785178708789446 -0.84999999999999998
      vertex -0.16823237931664434 0.62785178708789291 0.84999999999999998
    endloop
  endfacet
  facet normal -0.1950903220161313 0.98078528040322988 7.963006153817834e-18
    outer loop
      vertex -0.084842024943033542 0.64443915989297673 -0.84999999999999998
      vertex -0.16823237931664434 0.62785178708789291 0.84999999999999998
      vertex -0.084842024943033473 0.64443915989297673 0.84999999999999987
    endloop
  endfacet
  facet normal -0.32143946530316303 0.94693012949510524 -2.5206175150135798e-16
    outer loop
      vertex -0.16823237931663843 0.62785178708789446 -0.84999999999999998
      vertex -0.24874423103730869 0.60052169613233619 -0.84999999999999987
      vertex -0.16823237931664434 0.62785178708789291 0.84999999999999998
    endloop
  endfacet
  facet normal -0.75183980747896384 0.6593458151000845 0
    outer loop
      vertex -0.45961940777123883 0.4596194077712728 -0.85000000000000009
      vertex -0.5156796711893028 0.39569492885566859 -0.84999999999999998
      vertex -0.5156796711893028 0.39569492885566859 -0.74375000000000002
    endloop
  endfacet
  facet normal -0.83146961230254557 0.55557023301960184 0
    outer loop
      vertex -0.5156796711893028 0.39569492885566859 -0.84999999999999998
      vertex -0.56291651245988517 0.32499999999999996 -0.84999999999999998
      vertex -0.56291651245988517 0.32499999999999996 -0.74375000000000002
    endloop
  endfacet
  facet normal -0.83146961230254557 0.55557023301960184 0
    outer loop
      vertex -0.5156796711893028 0.39569492885566859 -0.84999999999999998
      vertex -0.56291651245988517 0.32499999999999996 -0.74375000000000002
      vertex -0.5156796711893028 0.39569492885566859 -0.74375000000000002
    endloop
  endfacet
  facet normal -0.89687274153268126 0.44228869021901546 0
    outer loop
      vertex -0.56291651245988517 0.32499999999999996 -0.84999999999999998
      vertex -0.60052169613232842 0.24874423103732762 -0.85000000000000009
      vertex -0.56291651245988517 0.32499999999999996 -0.74375000000000002
    endloop
  endfacet
  facet normal -0.99785892323860348 0.065403129230145962 0
    outer loop
      vertex -0.6444391598929764 0.084842024943035818 -0.84999999999999998
      vertex -0.65000000000000002 7.9602041944577967e-17 -0.84999999999999998
      vertex -0.65000000000000002 7.9602041944577967e-17 -0.74375000000000002
    endloop
  endfacet
  facet normal -0.99785892323860348 -0.065403129230143575 0
    outer loop
      vertex -0.65000000000000002 7.9602041944577967e-17 -0.84999999999999998
      vertex -0.64443915989297673 -0.084842024943033653 -0.84999999999999998
      vertex -0.64443915989297673 -0.084842024943033653 -0.74375000000000002
    endloop
  endfacet
  facet normal -0.99785892323860348 -0.065403129230143575 0
    outer loop
      vertex -0.65000000000000002 7.9602041944577967e-17 -0.84999999999999998
      vertex -0.64443915989297673 -0.084842024943033653 -0.74375000000000002
      vertex -0.65000000000000002 7.9602041944577967e-17 -0.74375000000000002
    endloop
  endfacet
  facet normal -0.98078528040323143 -0.19509032201612289 0
    outer loop
      vertex -0.64443915989297673 -0.084842024943033653 -0.84999999999999998
      vertex -0.62785178708789602 -0.16823237931663262 -0.84999999999999998
      vertex -0.64443915989297673 -0.084842024943033653 -0.74375000000000002
    endloop
  endfacet
  facet normal -0.89687274153268493 -0.4422886902190083 0
    outer loop
      vertex -0.60052169613233275 -0.24874423103731741 -0.84999999999999998
      vertex -0.56291651245988528 -0.32499999999999984 -0.84999999999999998
      vertex -0.56291651245988528 -0.32499999999999984 -0.74375000000000002
    endloop
  endfacet
  facet normal -0.83146961230254524 -0.55557023301960218 5.1906956604829374e-16
    outer loop
      vertex -0.56291651245988528 -0.32499999999999984 -0.84999999999999998
      vertex -0.51567967118930291 -0.39569492885566843 -0.84999999999999998
      vertex -0.51567967118929481 -0.39569492885567897 0.84999999999999987
    endloop
  endfacet
  facet normal -0.83146961230253946 -0.55557023301961073 0
    outer loop
      vertex -0.56291651245988528 -0.32499999999999984 -0.84999999999999998
      vertex -0.51567967118929481 -0.39569492885567897 0.84999999999999987
      vertex -0.56291651245988528 -0.32499999999999984 -0.74375000000000002
    endloop
  endfacet
  facet normal -0.75183980747896839 -0.65934581510007895 -5.0636269612245689e-16
    outer loop
      vertex -0.51567967118930291 -0.39569492885566843 -0.84999999999999998
      vertex -0.45961940777124421 -0.45961940777126753 -0.84999999999999998
      vertex -0.51567967118929481 -0.39569492885567897 0.84999999999999987
    endloop
  endfacet
  facet normal 0.6593458151000583 -0.7518398074789866 0
    outer loop
      vertex 0.39569492885565455 -0.51567967118931346 -0.84999999999999998
      vertex 0.45961940777125582 -0.45961940777125598 -0.84999999999999998
      vertex 0.45961940777125582 -0.45961940777125598 -0.74375000000000002
    endloop
  endfacet
  facet normal 0.75183980747897716 -0.65934581510006907 0
    outer loop
      vertex 0.45961940777125582 -0.45961940777125598 -0.84999999999999998
      vertex 0.51567967118930269 -0.39569492885566865 -0.84999999999999998
      vertex 0.51567967118930269 -0.39569492885566865 0.84999999999999998
    endloop
  endfacet
  facet normal 0.75183980747897716 -0.65934581510006907 0
    outer loop
      vertex 0.45961940777125582 -0.45961940777125598 -0.84999999999999998
      vertex 0.51567967118930269 -0.39569492885566865 0.84999999999999998
      vertex 0.45961940777125582 -0.45961940777125598 -0.74375000000000002
    endloop
  endfacet
  facet normal 0.83146961230255301 -0.55557023301959085 0
    outer loop
      vertex 0.51567967118930269 -0.39569492885566865 -0.84999999999999998
      vertex 0.56291651245989405 -0.32499999999998452 -0.8500000000000002
      vertex 0.51567967118930269 -0.39569492885566865 0.84999999999999998
    endloop
  endfacet
  facet normal -0.32143946530315382 0.94693012949510813 -7.440997247398423e-16
    outer loop
      vertex -0.16823237931664434 0.62785178708789291 0.84999999999999998
      vertex -0.24874423103730869 0.60052169613233619 -0.84999999999999987
      vertex -0.24874423103730819 0.60052169613233652 -0.63749999999999996
    endloop
  endfacet
  facet normal -0.44228869021898615 0.89687274153269581 -3.6588725179715749e-16
    outer loop
      vertex -0.24874423103730869 0.60052169613233619 -0.84999999999999987
      vertex -0.32499999999998169 0.56291651245989571 -0.84999999999999998
      vertex -0.24874423103730819 0.60052169613233652 -0.63749999999999996
    endloop
  endfacet
  facet normal -0.98078528040322954 0.19509032201613266 3.2404342851569279e-16
    outer loop
      vertex -0.62785178708789335 0.16823237931664217 -0.84999999999999998
      vertex -0.6444391598929764 0.084842024943035818 -0.84999999999999998
      vertex -0.64443915989297673 0.084842024943033792 -0.63749999999999996
    endloop
  endfacet
  facet normal -0.99785892323860348 0.065403129230144783 -9.4040835838300626e-16
    outer loop
      vertex -0.6444391598929764 0.084842024943035818 -0.84999999999999998
      vertex -0.65000000000000002 7.9602041944577967e-17 -0.74375000000000002
      vertex -0.64443915989297673 0.084842024943033792 -0.63749999999999996
    endloop
  endfacet
  facet normal -0.99785892323860359 -0.065403129230143603 0
    outer loop
      vertex -0.65000000000000002 7.9602041944577967e-17 -0.74375000000000002
      vertex -0.64443915989297673 -0.084842024943033653 -0.74375000000000002
      vertex -0.64443915989297673 -0.084842024943033653 -0.63749999999999996
    endloop
  endfacet
  facet normal -0.98078528040323143 -0.19509032201612286 0
    outer loop
      vertex -0.64443915989297673 -0.084842024943033653 -0.74375000000000002
      vertex -0.62785178708789602 -0.16823237931663262 -0.84999999999999998
      vertex -0.64443915989297673 -0.084842024943033653 -0.63749999999999996
    endloop
  endfacet
  facet normal -0.89687274153268481 -0.44228869021900846 0
    outer loop
      vertex -0.60052169613233275 -0.24874423103731741 -0.84999999999999998
      vertex -0.56291651245988528 -0.32499999999999984 -0.74375000000000002
      vertex -0.56291651245988528 -0.32499999999999984 -0.63749999999999996
    endloop
  endfacet
  facet normal -0.83146961230253957 -0.55557023301961073 0
    outer loop
      vertex -0.56291651245988528 -0.32499999999999984 -0.74375000000000002
      vertex -0.51567967118929481 -0.39569492885567897 0.84999999999999987
      vertex -0.56291651245988528 -0.32499999999999984 -0.63749999999999996
    endloop
  endfacet
  facet normal -0.32143946530317563 -0.94693012949510103 6.2708404222026636e-16
    outer loop
      vertex -0.24874423103731211 -0.60052169613233497 -0.84999999999999998
      vertex -0.16823237931665189 -0.62785178708789102 -0.84999999999999998
      vertex -0.16823237931663843 -0.62785178708789446 0.84999999999999998
    endloop
  endfacet
  facet normal -0.19509032201613583 -0.98078528040322888 -4.4080047769049585e-16
    outer loop
      vertex -0.16823237931665189 -0.62785178708789102 -0.84999999999999998
      vertex -0.084842024943033556 -0.64443915989297673 -0.84999999999999998
      vertex -0.16823237931663843 -0.62785178708789446 0.84999999999999998
    endloop
  endfacet
  facet normal 0.65934581510005852 -0.75183980747898649 -1.7602359079861472e-16
    outer loop
      vertex 0.39569492885565455 -0.51567967118931346 -0.84999999999999998
      vertex 0.45961940777125582 -0.45961940777125598 -0.74375000000000002
      vertex 0.45961940777125326 -0.45961940777125859 0.84999999999999987
    endloop
  endfacet
  facet normal 0.75183980747897561 -0.65934581510007084 1.2522890208312474e-16
    outer loop
      vertex 0.45961940777125582 -0.45961940777125598 -0.74375000000000002
      vertex 0.51567967118930269 -0.39569492885566865 0.84999999999999998
      vertex 0.45961940777125326 -0.45961940777125859 0.84999999999999987
    endloop
  endfacet
  facet normal 0.89687274153269392 -0.44228869021898992 -4.4705991526712815e-16
    outer loop
      vertex 0.56291651245989405 -0.32499999999998452 -0.8500000000000002
      vertex 0.60052169613233597 -0.24874423103730939 -0.84999999999999998
      vertex 0.60052169613233186 -0.24874423103731944 0.84999999999999998
    endloop
  endfacet
  facet normal 0.94693012949510436 -0.32143946530316553 3.8832618045227061e-16
    outer loop
      vertex 0.60052169613233597 -0.24874423103730939 -0.84999999999999998
      vertex 0.62785178708789369 -0.16823237931664145 -0.84999999999999998
      vertex 0.60052169613233186 -0.24874423103731944 0.84999999999999998
    endloop
  endfacet
  facet normal 0.32143946530316531 0.94693012949510436 1.2001608463543969e-17
    outer loop
      vertex 0.24874423103731105 0.60052169613233519 -0.84999999999999998
      vertex 0.16823237931663848 0.62785178708789446 -0.84999999999999998
      vertex 0.16823237931663645 0.62785178708789513 0.84999999999999987
    endloop
  endfacet
  facet normal 0.19509032201612544 0.98078528040323099 -1.5179447931456419e-16
    outer loop
      vertex 0.16823237931663848 0.62785178708789446 -0.84999999999999998
      vertex 0.084842024943034708 0.64443915989297662 0.85000000000000009
      vertex 0.16823237931663645 0.62785178708789513 0.84999999999999987
    endloop
  endfacet
  facet normal -0.32143946530316636 0.94693012949510402 0
    outer loop
      vertex -0.16823237931664434 0.62785178708789291 0.84999999999999998
      vertex -0.24874423103730819 0.60052169613233652 -0.63749999999999996
      vertex -0.24874423103730819 0.60052169613233652 -0.53125
    endloop
  endfacet
  facet normal -0.44228869021898704 0.89687274153269536 0
    outer loop
      vertex -0.24874423103730819 0.60052169613233652 -0.63749999999999996
      vertex -0.32499999999998169 0.56291651245989571 -0.84999999999999998
      vertex -0.24874423103730819 0.60052169613233652 -0.53125
    endloop
  endfacet
  facet normal -0.83146961230254557 0.55557023301960184 0
    outer loop
      vertex -0.5156796711893028 0.39569492885566859 -0.74375000000000002
      vertex -0.56291651245988517 0.32499999999999996 -0.74375000000000002
      vertex -0.56291651245988517 0.32499999999999996 -0.53125
    endloop
  endfacet
  facet normal -0.89687274153268126 0.44228869021901557 0
    outer loop
      vertex -0.56291651245988517 0.32499999999999996 -0.74375000000000002
      vertex -0.60052169613232842 0.24874423103732762 -0.85000000000000009
      vertex -0.56291651245988517 0.32499999999999996 -0.53125
    endloop
  endfacet
  facet normal -0.98078528040322965 0.19509032201613255 2.8118054114588931e-16
    outer loop
      vertex -0.62785178708789335 0.16823237931664217 -0.84999999999999998
      vertex -0.64443915989297673 0.084842024943033792 -0.63749999999999996
      vertex -0.64443915989297795 0.084842024943025507 0.84999999999999998
    endloop
  endfacet
  facet normal -0.99785892323860337 0.065403129230144172 -4.5496675609569404e-16
    outer loop
      vertex -0.64443915989297673 0.084842024943033792 -0.63749999999999996
      vertex -0.65000000000000002 7.9602041944577967e-17 -0.74375000000000002
      vertex -0.64443915989297795 0.084842024943025507 0.84999999999999998
    endloop
  endfacet
  facet normal -0.19509032201612717 -0.98078528040323065 0
    outer loop
      vertex -0.16823237931663843 -0.62785178708789446 0.84999999999999998
      vertex -0.084842024943033556 -0.64443915989297673 -0.84999999999999998
      vertex -0.084842024943033556 -0.64443915989297673 -0.53125
    endloop
  endfacet
  facet normal -0.065403129230146129 -0.99785892323860337 0
    outer loop
      vertex -0.084842024943033556 -0.64443915989297673 -0.84999999999999998
      vertex 2.5982733673424676e-16 -0.65000000000000024 -0.84999999999999998
      vertex -0.084842024943033556 -0.64443915989297673 -0.53125
    endloop
  endfacet
  facet normal 0.065403129230144172 -0.99785892323860359 6.1883293640152394e-17
    outer loop
      vertex 2.5982733673424676e-16 -0.65000000000000024 -0.84999999999999998
      vertex 0.084842024943031558 -0.64443915989297706 -0.84999999999999998
      vertex 0.084842024943033334 -0.64443915989297684 0.84999999999999998
    endloop
  endfacet
  facet normal 0.19509032201613408 -0.98078528040322921 -7.5748204535727033e-17
    outer loop
      vertex 0.084842024943031558 -0.64443915989297706 -0.84999999999999998
      vertex 0.16823237931664564 -0.62785178708789235 -0.84999999999999998
      vertex 0.084842024943033334 -0.64443915989297684 0.84999999999999998
    endloop
  endfacet
  facet normal 0.55557023301958386 0.83146961230255756 4.2305669834007895e-16
    outer loop
      vertex 0.39569492885564628 0.5156796711893199 -0.85000000000000009
      vertex 0.32500000000000007 0.56291651245988505 -0.84999999999999998
      vertex 0.32499999999998896 0.5629165124598916 0.84999999999999987
    endloop
  endfacet
  facet normal 0.44228869021900286 0.89687274153268759 -5.6729932702613519e-16
    outer loop
      vertex 0.32500000000000007 0.56291651245988505 -0.84999999999999998
      vertex 0.24874423103731105 0.60052169613233519 -0.84999999999999998
      vertex 0.32499999999998896 0.5629165124598916 0.84999999999999987
    endloop
  endfacet
  facet normal -0.83146961230254546 0.55557023301960196 0
    outer loop
      vertex -0.5156796711893028 0.39569492885566859 -0.74375000000000002
      vertex -0.56291651245988517 0.32499999999999996 -0.53125
      vertex -0.56291651245988517 0.32499999999999996 -0.42499999999999999
    endloop
  endfacet
  facet normal -0.89687274153268126 0.44228869021901557 0
    outer loop
      vertex -0.56291651245988517 0.32499999999999996 -0.53125
      vertex -0.60052169613232842 0.24874423103732762 -0.85000000000000009
      vertex -0.56291651245988517 0.32499999999999996 -0.42499999999999999
    endloop
  endfacet
  facet normal -0.99785892323860403 0.065403129230135679 0
    outer loop
      vertex -0.64443915989297795 0.084842024943025507 0.84999999999999998
      vertex -0.65000000000000002 7.9602041944577967e-17 -0.74375000000000002
      vertex -0.65000000000000002 7.9602041944577967e-17 -0.42499999999999999
    endloop
  endfacet
  facet normal -0.99785892323860348 -0.065403129230143589 0
    outer loop
      vertex -0.65000000000000002 7.9602041944577967e-17 -0.74375000000000002
      vertex -0.64443915989297673 -0.084842024943033653 -0.63749999999999996
      vertex -0.65000000000000002 7.9602041944577967e-17 -0.42499999999999999
    endloop
  endfacet
  facet normal -0.89687274153268493 -0.44228869021900841 0
    outer loop
      vertex -0.60052169613233275 -0.24874423103731741 -0.84999999999999998
      vertex -0.56291651245988528 -0.32499999999999984 -0.63749999999999996
      vertex -0.56291651245988528 -0.32499999999999984 -0.42499999999999999
    endloop
  endfacet
  facet normal -0.83146961230253946 -0.55557023301961073 0
    outer loop
      vertex -0.56291651245988528 -0.32499999999999984 -0.63749999999999996
      vertex -0.51567967118929481 -0.39569492885567897 0.84999999999999987
      vertex -0.56291651245988528 -0.32499999999999984 -0.42499999999999999
    endloop
  endfacet
  facet normal 0.94693012949510558 -0.3214394653031617 5.8807881471354508e-16
    outer loop
      vertex 0.60052169613233186 -0.24874423103731944 0.84999999999999998
      vertex 0.62785178708789369 -0.16823237931664145 -0.84999999999999998
      vertex 0.62785178708789424 -0.16823237931663904 -0.42499999999999999
    endloop
  endfacet
  facet normal 0.98078528040323076 -0.19509032201612717 -1.7259707340870721e-16
    outer loop
      vertex 0.62785178708789369 -0.16823237931664145 -0.84999999999999998
      vertex 0.64443915989297751 -0.08484202494302874 -0.85000000000000009
      vertex 0.62785178708789424 -0.16823237931663904 -0.42499999999999999
    endloop
  endfacet
  facet normal -0.32143946530316575 0.94693012949510424 0
    outer loop
      vertex -0.16823237931664434 0.62785178708789291 0.84999999999999998
      vertex -0.24874423103730819 0.60052169613233652 -0.53125
      vertex -0.24874423103730819 0.60052169613233652 -0.31874999999999998
    endloop
  endfacet
  facet normal -0.44228869021898704 0.89687274153269547 0
    outer loop
      vertex -0.24874423103730819 0.60052169613233652 -0.53125
      vertex -0.32499999999998169 0.56291651245989571 -0.84999999999999998
      vertex -0.24874423103730819 0.60052169613233652 -0.31874999999999998
    endloop
  endfacet
  facet normal -0.83146961230254535 0.55557023301960218 1.0001340386287098e-16
    outer loop
      vertex -0.5156796711893028 0.39569492885566859 -0.74375000000000002
      vertex -0.56291651245988517 0.32499999999999996 -0.42499999999999999
      vertex -0.56291651245988761 0.32499999999999607 0.84999999999999998
    endloop
  endfacet
  facet normal -0.89687274153268048 0.44228869021901723 -3.7016979077223088e-16
    outer loop
      vertex -0.56291651245988517 0.32499999999999996 -0.42499999999999999
      vertex -0.60052169613232842 0.24874423103732762 -0.85000000000000009
      vertex -0.56291651245988761 0.32499999999999607 0.84999999999999998
    endloop
  endfacet
  facet normal -0.89687274153268481 -0.44228869021900824 0
    outer loop
      vertex -0.60052169613233275 -0.24874423103731741 -0.84999999999999998
      vertex -0.56291651245988528 -0.32499999999999984 -0.42499999999999999
      vertex -0.56291651245988528 -0.32499999999999984 -0.31874999999999998
    endloop
  endfacet
  facet normal -0.83146961230253968 -0.55557023301961073 0
    outer loop
      vertex -0.56291651245988528 -0.32499999999999984 -0.42499999999999999
      vertex -0.51567967118929481 -0.39569492885567897 0.84999999999999987
      vertex -0.56291651245988528 -0.32499999999999984 -0.31874999999999998
    endloop
  endfacet
  facet normal -0.65934581510006163 -0.75183980747898371 4.4165919145854505e-16
    outer loop
      vertex -0.45961940777124421 -0.45961940777126753 -0.84999999999999998
      vertex -0.39569492885567237 -0.51567967118929969 -0.8500000000000002
      vertex -0.39569492885566859 -0.51567967118930269 -0.31874999999999998
    endloop
  endfacet
  facet normal -0.55557023301959918 -0.83146961230254723 -7.4404098244693133e-16
    outer loop
      vertex -0.39569492885567237 -0.51567967118929969 -0.8500000000000002
      vertex -0.3249999999999868 -0.56291651245989305 -0.8500000000000002
      vertex -0.39569492885566859 -0.51567967118930269 -0.31874999999999998
    endloop
  endfacet
  facet normal -0.19509032201612708 -0.98078528040323054 0
    outer loop
      vertex -0.16823237931663843 -0.62785178708789446 0.84999999999999998
      vertex -0.084842024943033556 -0.64443915989297673 -0.53125
      vertex -0.084842024943033556 -0.64443915989297673 -0.31874999999999998
    endloop
  endfacet
  facet normal -0.065403129230146129 -0.99785892323860348 0
    outer loop
      vertex -0.084842024943033556 -0.64443915989297673 -0.53125
      vertex 2.5982733673424676e-16 -0.65000000000000024 -0.84999999999999998
      vertex -0.084842024943033556 -0.64443915989297673 -0.31874999999999998
    endloop
  endfacet
  facet normal 0.94693012949510269 -0.32143946530317058 0
    outer loop
      vertex 0.60052169613233186 -0.24874423103731944 0.84999999999999998
      vertex 0.62785178708789424 -0.16823237931663904 -0.42499999999999999
      vertex 0.62785178708789424 -0.16823237931663904 -0.31874999999999998
    endloop
  endfacet
  facet normal 0.98078528040323087 -0.19509032201612628 0
    outer loop
      vertex 0.62785178708789424 -0.16823237931663904 -0.42499999999999999
      vertex 0.64443915989297751 -0.08484202494302874 -0.85000000000000009
      vertex 0.62785178708789424 -0.16823237931663904 -0.31874999999999998
    endloop
  endfacet
  facet normal 0.44228869021899075 0.89687274153269347 1.1201501232642482e-16
    outer loop
      vertex 0.32499999999998896 0.5629165124598916 0.84999999999999987
      vertex 0.24874423103731105 0.60052169613233519 -0.84999999999999998
      vertex 0.24874423103730842 0.60052169613233641 -0.21249999999999999
    endloop
  endfacet
  facet normal 0.32143946530315592 0.94693012949510746 -4.8450030453782378e-16
    outer loop
      vertex 0.24874423103731105 0.60052169613233519 -0.84999999999999998
      vertex 0.16823237931663645 0.62785178708789513 0.84999999999999987
      vertex 0.24874423103730842 0.60052169613233641 -0.21249999999999999
    endloop
  endfacet
  facet normal -0.32143946530316614 0.94693012949510424 0
    outer loop
      vertex -0.16823237931664434 0.62785178708789291 0.84999999999999998
      vertex -0.24874423103730819 0.60052169613233652 -0.31874999999999998
      vertex -0.24874423103730819 0.60052169613233652 -0.21249999999999999
    endloop
  endfacet
  facet normal -0.44228869021898692 0.89687274153269525 0
    outer loop
      vertex -0.24874423103730819 0.60052169613233652 -0.31874999999999998
      vertex -0.32499999999998169 0.56291651245989571 -0.84999999999999998
      vertex -0.24874423103730819 0.60052169613233652 -0.21249999999999999
    endloop
  endfacet
  facet normal -0.99785892323860403 0.065403129230135679 0
    outer loop
      vertex -0.64443915989297795 0.084842024943025507 0.84999999999999998
      vertex -0.65000000000000002 7.9602041944577967e-17 -0.42499999999999999
      vertex -0.65000000000000002 7.9602041944577967e-17 -0.21249999999999999
    endloop
  endfacet
  facet normal -0.99785892323860348 -0.065403129230143575 0
    outer loop
      vertex -0.65000000000000002 7.9602041944577967e-17 -0.42499999999999999
      vertex -0.64443915989297673 -0.084842024943033653 -0.63749999999999996
      vertex -0.65000000000000002 7.9602041944577967e-17 -0.21249999999999999
    endloop
  endfacet
  facet normal -0.65934581510006196 -0.75183980747898338 5.1061388735820128e-16
    outer loop
      vertex -0.45961940777124421 -0.45961940777126753 -0.84999999999999998
      vertex -0.39569492885566859 -0.51567967118930269 -0.31874999999999998
      vertex -0.39569492885565971 -0.51567967118930969 0.8500000000000002
    endloop
  endfacet
  facet normal -0.55557023301959929 -0.83146961230254712 -7.5395109606433641e-16
    outer loop
      vertex -0.39569492885566859 -0.51567967118930269 -0.31874999999999998
      vertex -0.3249999999999868 -0.56291651245989305 -0.8500000000000002
      vertex -0.39569492885565971 -0.51567967118930969 0.8500000000000002
    endloop
  endfacet
  facet normal -0.19509032201612225 -0.98078528040323165 3.6441247516576925e-16
    outer loop
      vertex -0.16823237931663843 -0.62785178708789446 0.84999999999999998
      vertex -0.084842024943033556 -0.64443915989297673 -0.31874999999999998
      vertex -0.084842024943025784 -0.64443915989297784 0.84999999999999998
    endloop
  endfacet
  facet normal -0.065403129230149321 -0.99785892323860303 -5.1299382436811924e-16
    outer loop
      vertex -0.084842024943033556 -0.64443915989297673 -0.31874999999999998
      vertex 2.5982733673424676e-16 -0.65000000000000024 -0.84999999999999998
      vertex -0.084842024943025784 -0.64443915989297784 0.84999999999999998
    endloop
  endfacet
  facet normal 0.55557023301958963 -0.83146961230255367 1.6642230402784114e-15
    outer loop
      vertex 0.32499999999999629 -0.56291651245988739 -0.84999999999999998
      vertex 0.39569492885565455 -0.51567967118931346 -0.84999999999999998
      vertex 0.39569492885566793 -0.51567967118930325 -0.21249999999999999
    endloop
  endfacet
  facet normal 0.65934581510008283 -0.75183980747896517 -1.790621408271919e-15
    outer loop
      vertex 0.39569492885565455 -0.51567967118931346 -0.84999999999999998
      vertex 0.45961940777125326 -0.45961940777125859 0.84999999999999987
      vertex 0.39569492885566793 -0.51567967118930325 -0.21249999999999999
    endloop
  endfacet
  facet normal 0.94693012949510291 -0.32143946530316986 0
    outer loop
      vertex 0.60052169613233186 -0.24874423103731944 0.84999999999999998
      vertex 0.62785178708789424 -0.16823237931663904 -0.31874999999999998
      vertex 0.62785178708789424 -0.16823237931663904 -0.21249999999999999
    endloop
  endfacet
  facet normal 0.98078528040323087 -0.19509032201612631 0
    outer loop
      vertex 0.62785178708789424 -0.16823237931663904 -0.31874999999999998
      vertex 0.64443915989297751 -0.08484202494302874 -0.85000000000000009
      vertex 0.62785178708789424 -0.16823237931663904 -0.21249999999999999
    endloop
  endfacet
  facet normal -0.32143946530316614 0.94693012949510424 0
    outer loop
      vertex -0.16823237931664434 0.62785178708789291 0.84999999999999998
      vertex -0.24874423103730819 0.60052169613233652 -0.21249999999999999
      vertex -0.24874423103730819 0.60052169613233652 -0.10625
    endloop
  endfacet
  facet normal -0.44228869021898698 0.89687274153269525 0
    outer loop
      vertex -0.24874423103730819 0.60052169613233652 -0.21249999999999999
      vertex -0.32499999999998169 0.56291651245989571 -0.84999999999999998
      vertex -0.24874423103730819 0.60052169613233652 -0.10625
    endloop
  endfacet
  facet normal -0.89687274153268481 -0.44228869021900824 0
    outer loop
      vertex -0.60052169613233275 -0.24874423103731741 -0.84999999999999998
      vertex -0.56291651245988528 -0.32499999999999984 -0.31874999999999998
      vertex -0.56291651245988528 -0.32499999999999984 -0.10625
    endloop
  endfacet
  facet normal -0.83146961230253946 -0.55557023301961073 0
    outer loop
      vertex -0.56291651245988528 -0.32499999999999984 -0.31874999999999998
      vertex -0.51567967118929481 -0.39569492885567897 0.84999999999999987
      vertex -0.56291651245988528 -0.32499999999999984 -0.10625
    endloop
  endfacet
  facet normal -0.44228869021899192 -0.89687274153269281 4.5263209062520554e-16
    outer loop
      vertex -0.3249999999999868 -0.56291651245989305 -0.8500000000000002
      vertex -0.24874423103731211 -0.60052169613233497 -0.84999999999999998
      vertex -0.24874423103730819 -0.60052169613233652 -0.10625
    endloop
  endfacet
  facet normal -0.32143946530315826 -0.94693012949510691 -2.8754301065236986e-16
    outer loop
      vertex -0.24874423103731211 -0.60052169613233497 -0.84999999999999998
      vertex -0.16823237931663843 -0.62785178708789446 0.84999999999999998
      vertex -0.24874423103730819 -0.60052169613233652 -0.10625
    endloop
  endfacet
  facet normal 0.9469301294951028 -0.32143946530317008 0
    outer loop
      vertex 0.60052169613233186 -0.24874423103731944 0.84999999999999998
      vertex 0.62785178708789424 -0.16823237931663904 -0.21249999999999999
      vertex 0.62785178708789424 -0.16823237931663904 -0.10625
    endloop
  endfacet
  facet normal 0.98078528040323087 -0.19509032201612631 0
    outer loop
      vertex 0.62785178708789424 -0.16823237931663904 -0.21249999999999999
      vertex 0.64443915989297751 -0.08484202494302874 -0.85000000000000009
      vertex 0.62785178708789424 -0.16823237931663904 -0.10625
    endloop
  endfacet
  facet normal 0.99785892323860315 0.065403129230148072 -8.4223391326420429e-17
    outer loop
      vertex 0.65000000000000002 0 -0.84999999999999998
      vertex 0.64443915989297595 0.084842024943039773 -0.85000000000000009
      vertex 0.65000000000000013 4.9531529218124201e-16 0.84999999999999998
    endloop
  endfacet
  facet normal -0.32143946530316625 0.94693012949510413 0
    outer loop
      vertex -0.16823237931664434 0.62785178708789291 0.84999999999999998
      vertex -0.24874423103730819 0.60052169613233652 -0.10625
      vertex -0.24874423103730819 0.60052169613233652 0
    endloop
  endfacet
  facet normal -0.44228869021898698 0.89687274153269525 0
    outer loop
      vertex -0.24874423103730819 0.60052169613233652 -0.10625
      vertex -0.32499999999998169 0.56291651245989571 -0.84999999999999998
      vertex -0.24874423103730819 0.60052169613233652 0
    endloop
  endfacet
  facet normal -0.55557023301958963 0.83146961230255367 -1.4401930156249758e-16
    outer loop
      vertex -0.32499999999998169 0.56291651245989571 -0.84999999999999998
      vertex -0.39569492885566804 0.51567967118930302 -0.8500000000000002
      vertex -0.39569492885566843 0.51567967118930291 0
    endloop
  endfacet
  facet normal -0.65934581510005474 0.75183980747898971 -2.0321921209496558e-16
    outer loop
      vertex -0.39569492885566804 0.51567967118930302 -0.8500000000000002
      vertex -0.45961940777123883 0.4596194077712728 -0.85000000000000009
      vertex -0.39569492885566843 0.51567967118930291 0
    endloop
  endfacet
  facet normal -0.75183980747896362 0.65934581510008461 2.1122830895832337e-16
    outer loop
      vertex -0.45961940777123883 0.4596194077712728 -0.85000000000000009
      vertex -0.5156796711893028 0.39569492885566859 -0.74375000000000002
      vertex -0.51567967118930746 0.39569492885566276 0.84999999999999998
    endloop
  endfacet
  facet normal -0.83146961230255056 0.55557023301959441 -4.0084965295146653e-16
    outer loop
      vertex -0.5156796711893028 0.39569492885566859 -0.74375000000000002
      vertex -0.56291651245988761 0.32499999999999607 0.84999999999999998
      vertex -0.51567967118930746 0.39569492885566276 0.84999999999999998
    endloop
  endfacet
  facet normal -0.99785892323860348 -0.065403129230143589 0
    outer loop
      vertex -0.65000000000000002 7.9602041944577967e-17 -0.21249999999999999
      vertex -0.64443915989297673 -0.084842024943033653 -0.63749999999999996
      vertex -0.64443915989297673 -0.084842024943033653 0
    endloop
  endfacet
  facet normal -0.98078528040323143 -0.19509032201612286 0
    outer loop
      vertex -0.64443915989297673 -0.084842024943033653 -0.63749999999999996
      vertex -0.62785178708789602 -0.16823237931663262 -0.84999999999999998
      vertex -0.64443915989297673 -0.084842024943033653 0
    endloop
  endfacet
  facet normal -0.8968727415326806 -0.44228869021901707 -1.1148160750581149e-15
    outer loop
      vertex -0.60052169613233275 -0.24874423103731741 -0.84999999999999998
      vertex -0.56291651245988528 -0.32499999999999984 -0.10625
      vertex -0.56291651245989227 -0.32499999999998808 0.84999999999999987
    endloop
  endfacet
  facet normal -0.83146961230254435 -0.55557023301960362 7.5557386056068739e-16
    outer loop
      vertex -0.56291651245988528 -0.32499999999999984 -0.10625
      vertex -0.51567967118929481 -0.39569492885567897 0.84999999999999987
      vertex -0.56291651245989227 -0.32499999999998808 0.84999999999999987
    endloop
  endfacet
  facet normal -0.44228869021898892 -0.89687274153269447 0
    outer loop
      vertex -0.3249999999999868 -0.56291651245989305 -0.8500000000000002
      vertex -0.24874423103730819 -0.60052169613233652 -0.10625
      vertex -0.24874423103730819 -0.60052169613233652 0
    endloop
  endfacet
  facet normal -0.32143946530316131 -0.94693012949510569 0
    outer loop
      vertex -0.24874423103730819 -0.60052169613233652 -0.10625
      vertex -0.16823237931663843 -0.62785178708789446 0.84999999999999998
      vertex -0.24874423103730819 -0.60052169613233652 0
    endloop
  endfacet
  facet normal 0.94693012949510291 -0.32143946530316986 0
    outer loop
      vertex 0.60052169613233186 -0.24874423103731944 0.84999999999999998
      vertex 0.62785178708789424 -0.16823237931663904 -0.10625
      vertex 0.62785178708789424 -0.16823237931663904 0
    endloop
  endfacet
  facet normal 0.98078528040323087 -0.19509032201612631 0
    outer loop
      vertex 0.62785178708789424 -0.16823237931663904 -0.10625
      vertex 0.64443915989297751 -0.08484202494302874 -0.85000000000000009
      vertex 0.62785178708789424 -0.16823237931663904 0
    endloop
  endfacet
  facet normal 0.99785892323860392 -0.065403129230138329 -4.5756132267265581e-17
    outer loop
      vertex 0.64443915989297751 -0.08484202494302874 -0.85000000000000009
      vertex 0.65000000000000002 0 -0.84999999999999998
      vertex 0.65000000000000013 4.9531529218124201e-16 0.84999999999999998
    endloop
  endfacet
  facet normal -0.32143946530316603 0.94693012949510413 0
    outer loop
      vertex -0.16823237931664434 0.62785178708789291 0.84999999999999998
      vertex -0.24874423103730819 0.60052169613233652 0
      vertex -0.24874423103730819 0.60052169613233652 0.10625
    endloop
  endfacet
  facet normal -0.44228869021898698 0.89687274153269525 0
    outer loop
      vertex -0.24874423103730819 0.60052169613233652 0
      vertex -0.32499999999998169 0.56291651245989571 -0.84999999999999998
      vertex -0.24874423103730819 0.60052169613233652 0.10625
    endloop
  endfacet
  facet normal -0.65934581510006274 0.75183980747898271 8.5511460302765808e-16
    outer loop
      vertex -0.39569492885566843 0.51567967118930291 0
      vertex -0.45961940777123883 0.4596194077712728 -0.85000000000000009
      vertex -0.45961940777125587 0.45961940777125593 0.84999999999999998
    endloop
  endfacet
  facet normal -0.7518398074789796 0.6593458151000664 -9.9181098319896868e-16
    outer loop
      vertex -0.45961940777123883 0.4596194077712728 -0.85000000000000009
      vertex -0.51567967118930746 0.39569492885566276 0.84999999999999998
      vertex -0.45961940777125587 0.45961940777125593 0.84999999999999998
    endloop
  endfacet
  facet normal -0.89687274153269592 0.44228869021898587 1.3708503889468856e-15
    outer loop
      vertex -0.56291651245988761 0.32499999999999607 0.84999999999999998
      vertex -0.60052169613232842 0.24874423103732762 -0.85000000000000009
      vertex -0.60052169613233641 0.24874423103730844 0.10625
    endloop
  endfacet
  facet normal -0.94693012949509969 0.32143946530317891 -1.4687222177771134e-15
    outer loop
      vertex -0.60052169613232842 0.24874423103732762 -0.85000000000000009
      vertex -0.62785178708789335 0.16823237931664217 -0.84999999999999998
      vertex -0.60052169613233641 0.24874423103730844 0.10625
    endloop
  endfacet
  facet normal -0.99785892323860337 -0.065403129230143159 1.7177302113448012e-16
    outer loop
      vertex -0.65000000000000002 7.9602041944577967e-17 -0.21249999999999999
      vertex -0.64443915989297673 -0.084842024943033653 0
      vertex -0.6444391598929764 -0.084842024943036498 0.84999999999999987
    endloop
  endfacet
  facet normal -0.9807852804032321 -0.19509032201612025 -2.6865224560698703e-16
    outer loop
      vertex -0.64443915989297673 -0.084842024943033653 0
      vertex -0.62785178708789602 -0.16823237931663262 -0.84999999999999998
      vertex -0.6444391598929764 -0.084842024943036498 0.84999999999999987
    endloop
  endfacet
  facet normal -0.44228869021898798 -0.89687274153269492 0
    outer loop
      vertex -0.3249999999999868 -0.56291651245989305 -0.8500000000000002
      vertex -0.24874423103730819 -0.60052169613233652 0
      vertex -0.24874423103730819 -0.60052169613233652 0.10625
    endloop
  endfacet
  facet normal -0.32143946530316131 -0.94693012949510569 0
    outer loop
      vertex -0.24874423103730819 -0.60052169613233652 0
      vertex -0.16823237931663843 -0.62785178708789446 0.84999999999999998
      vertex -0.24874423103730819 -0.60052169613233652 0.10625
    endloop
  endfacet
  facet normal 0.94693012949510269 -0.32143946530317019 0
    outer loop
      vertex 0.60052169613233186 -0.24874423103731944 0.84999999999999998
      vertex 0.62785178708789424 -0.16823237931663904 0
      vertex 0.62785178708789424 -0.16823237931663904 0.10625
    endloop
  endfacet
  facet normal 0.98078528040323087 -0.19509032201612631 0
    outer loop
      vertex 0.62785178708789424 -0.16823237931663904 0
      vertex 0.64443915989297751 -0.08484202494302874 -0.85000000000000009
      vertex 0.62785178708789424 -0.16823237931663904 0.10625
    endloop
  endfacet
  facet normal 0.98078528040322965 0.195090322016132 2.1602895234381621e-17
    outer loop
      vertex 0.64443915989297595 0.084842024943039773 -0.85000000000000009
      vertex 0.62785178708789458 0.16823237931663804 -0.84999999999999998
      vertex 0.62785178708789446 0.16823237931663848 0.21249999999999999
    endloop
  endfacet
  facet normal 0.94693012949510091 0.32143946530317574 -3.5404644624413858e-17
    outer loop
      vertex 0.62785178708789458 0.16823237931663804 -0.84999999999999998
      vertex 0.60052169613232997 0.2487442310373234 -0.85000000000000009
      vertex 0.62785178708789446 0.16823237931663848 0.21249999999999999
    endloop
  endfacet
  facet normal 0.83146961230254512 0.55557023301960251 0
    outer loop
      vertex 0.56291651245988394 0.3250000000000019 -0.84999999999999998
      vertex 0.51567967118930291 0.39569492885566843 -0.74375000000000002
      vertex 0.51567967118930291 0.39569492885566843 0.21249999999999999
    endloop
  endfacet
  facet normal 0.75183980747897738 0.65934581510006884 -0
    outer loop
      vertex 0.51567967118930291 0.39569492885566843 -0.74375000000000002
      vertex 0.45961940777125593 0.45961940777125593 -0.74375000000000002
      vertex 0.51567967118930291 0.39569492885566843 0.21249999999999999
    endloop
  endfacet
  facet normal -0.89687274153269037 0.44228869021899714 -5.4864495833348368e-17
    outer loop
      vertex -0.56291651245988761 0.32499999999999607 0.84999999999999998
      vertex -0.60052169613233641 0.24874423103730844 0.10625
      vertex -0.60052169613233675 0.24874423103730786 0.85000000000000009
    endloop
  endfacet
  facet normal -0.94693012949510447 0.32143946530316514 -1.721473676054695e-16
    outer loop
      vertex -0.60052169613233641 0.24874423103730844 0.10625
      vertex -0.62785178708789335 0.16823237931664217 -0.84999999999999998
      vertex -0.60052169613233675 0.24874423103730786 0.85000000000000009
    endloop
  endfacet
  facet normal -0.99785892323860403 0.065403129230135651 0
    outer loop
      vertex -0.64443915989297795 0.084842024943025507 0.84999999999999998
      vertex -0.65000000000000002 7.9602041944577967e-17 -0.21249999999999999
      vertex -0.65000000000000002 7.9602041944577967e-17 0.21249999999999999
    endloop
  endfacet
  facet normal -0.99785892323860326 -0.065403129230145296 0
    outer loop
      vertex -0.65000000000000002 7.9602041944577967e-17 -0.21249999999999999
      vertex -0.6444391598929764 -0.084842024943036498 0.84999999999999987
      vertex -0.65000000000000002 7.9602041944577967e-17 0.21249999999999999
    endloop
  endfacet
  facet normal -0.44228869021898859 -0.89687274153269458 0
    outer loop
      vertex -0.3249999999999868 -0.56291651245989305 -0.8500000000000002
      vertex -0.24874423103730819 -0.60052169613233652 0.10625
      vertex -0.24874423103730819 -0.60052169613233652 0.21249999999999999
    endloop
  endfacet
  facet normal -0.32143946530316131 -0.94693012949510569 0
    outer loop
      vertex -0.24874423103730819 -0.60052169613233652 0.10625
      vertex -0.16823237931663843 -0.62785178708789446 0.84999999999999998
      vertex -0.24874423103730819 -0.60052169613233652 0.21249999999999999
    endloop
  endfacet
  facet normal 0.94693012949510236 -0.32143946530317147 -1.7145154947918402e-16
    outer loop
      vertex 0.60052169613233186 -0.24874423103731944 0.84999999999999998
      vertex 0.62785178708789424 -0.16823237931663904 0.10625
      vertex 0.62785178708789413 -0.16823237931663976 0.84999999999999998
    endloop
  endfacet
  facet normal 0.98078528040323065 -0.19509032201612672 -4.2886599997022248e-17
    outer loop
      vertex 0.62785178708789424 -0.16823237931663904 0.10625
      vertex 0.64443915989297751 -0.08484202494302874 -0.85000000000000009
      vertex 0.62785178708789413 -0.16823237931663976 0.84999999999999998
    endloop
  endfacet
  facet normal 0.44228869021899186 0.89687274153269281 0
    outer loop
      vertex 0.32499999999998896 0.5629165124598916 0.84999999999999987
      vertex 0.24874423103730842 0.60052169613233641 -0.21249999999999999
      vertex 0.24874423103730842 0.60052169613233641 0.31874999999999998
    endloop
  endfacet
  facet normal 0.32143946530316164 0.94693012949510558 -0
    outer loop
      vertex 0.24874423103730842 0.60052169613233641 -0.21249999999999999
      vertex 0.16823237931663645 0.62785178708789513 0.84999999999999987
      vertex 0.24874423103730842 0.60052169613233641 0.31874999999999998
    endloop
  endfacet
  facet normal -0.32143946530316608 0.94693012949510424 0
    outer loop
      vertex -0.16823237931664434 0.62785178708789291 0.84999999999999998
      vertex -0.24874423103730819 0.60052169613233652 0.10625
      vertex -0.24874423103730819 0.60052169613233652 0.31874999999999998
    endloop
  endfacet
  facet normal -0.44228869021898692 0.89687274153269525 0
    outer loop
      vertex -0.24874423103730819 0.60052169613233652 0.10625
      vertex -0.32499999999998169 0.56291651245989571 -0.84999999999999998
      vertex -0.24874423103730819 0.60052169613233652 0.31874999999999998
    endloop
  endfacet
  facet normal -0.75183980747896761 -0.65934581510007995 -4.4105911103529289e-16
    outer loop
      vertex -0.51567967118929481 -0.39569492885567897 0.84999999999999987
      vertex -0.45961940777124421 -0.45961940777126753 -0.84999999999999998
      vertex -0.45961940777125154 -0.45961940777126031 0.84999999999999998
    endloop
  endfacet
  facet normal -0.65934581510005941 -0.7518398074789856 3.4957420549963946e-16
    outer loop
      vertex -0.45961940777124421 -0.45961940777126753 -0.84999999999999998
      vertex -0.39569492885565971 -0.51567967118930969 0.8500000000000002
      vertex -0.45961940777125154 -0.45961940777126031 0.84999999999999998
    endloop
  endfacet
  facet normal 0.98078528040323176 0.19509032201612206 8.3211152013925342e-16
    outer loop
      vertex 0.64443915989297595 0.084842024943039773 -0.85000000000000009
      vertex 0.62785178708789446 0.16823237931663848 0.21249999999999999
      vertex 0.62785178708789258 0.16823237931664525 0.84999999999999998
    endloop
  endfacet
  facet normal 0.94693012949510313 0.32143946530316886 -6.1127489685721629e-16
    outer loop
      vertex 0.62785178708789446 0.16823237931663848 0.21249999999999999
      vertex 0.60052169613232997 0.2487442310373234 -0.85000000000000009
      vertex 0.62785178708789258 0.16823237931664525 0.84999999999999998
    endloop
  endfacet
  facet normal 0.83146961230254612 0.55557023301960096 1.4401930156253727e-16
    outer loop
      vertex 0.56291651245988394 0.3250000000000019 -0.84999999999999998
      vertex 0.51567967118930291 0.39569492885566843 0.21249999999999999
      vertex 0.51567967118930269 0.39569492885566859 0.84999999999999987
    endloop
  endfacet
  facet normal 0.7518398074789775 0.65934581510006873 0
    outer loop
      vertex 0.51567967118930291 0.39569492885566843 0.21249999999999999
      vertex 0.45961940777125593 0.45961940777125593 -0.74375000000000002
      vertex 0.45961940777125593 0.45961940777125593 0.84999999999999998
    endloop
  endfacet
  facet normal 0.75183980747897783 0.65934581510006829 8.9629548629695183e-17
    outer loop
      vertex 0.51567967118930291 0.39569492885566843 0.21249999999999999
      vertex 0.45961940777125593 0.45961940777125593 0.84999999999999998
      vertex 0.51567967118930269 0.39569492885566859 0.84999999999999987
    endloop
  endfacet
  facet normal 0.65934581510005297 0.75183980747899137 -3.8105106871741162e-16
    outer loop
      vertex 0.45961940777125593 0.45961940777125593 -0.74375000000000002
      vertex 0.39569492885564628 0.5156796711893199 -0.85000000000000009
      vertex 0.39569492885565283 0.51567967118931501 0.85000000000000009
    endloop
  endfacet
  facet normal 0.65934581510005841 0.75183980747898671 -0
    outer loop
      vertex 0.45961940777125593 0.45961940777125593 -0.74375000000000002
      vertex 0.39569492885565283 0.51567967118931501 0.85000000000000009
      vertex 0.45961940777125593 0.45961940777125593 0.84999999999999998
    endloop
  endfacet
  facet normal 0.55557023301958086 0.83146961230255956 2.4856059649462067e-16
    outer loop
      vertex 0.39569492885564628 0.5156796711893199 -0.85000000000000009
      vertex 0.32499999999998896 0.5629165124598916 0.84999999999999987
      vertex 0.39569492885565283 0.51567967118931501 0.85000000000000009
    endloop
  endfacet
  facet normal -0.32143946530316614 0.94693012949510402 0
    outer loop
      vertex -0.16823237931664434 0.62785178708789291 0.84999999999999998
      vertex -0.24874423103730819 0.60052169613233652 0.31874999999999998
      vertex -0.24874423103730819 0.60052169613233652 0.42499999999999999
    endloop
  endfacet
  facet normal -0.44228869021898704 0.89687274153269547 0
    outer loop
      vertex -0.24874423103730819 0.60052169613233652 0.31874999999999998
      vertex -0.32499999999998169 0.56291651245989571 -0.84999999999999998
      vertex -0.24874423103730819 0.60052169613233652 0.42499999999999999
    endloop
  endfacet
  facet normal -0.55557023301958841 0.83146961230255445 0
    outer loop
      vertex -0.32499999999998169 0.56291651245989571 -0.84999999999999998
      vertex -0.39569492885566843 0.51567967118930291 0
      vertex -0.39569492885566843 0.51567967118930291 0.42499999999999999
    endloop
  endfacet
  facet normal -0.65934581510006918 0.75183980747897727 0
    outer loop
      vertex -0.39569492885566843 0.51567967118930291 0
      vertex -0.45961940777125587 0.45961940777125593 0.84999999999999998
      vertex -0.39569492885566843 0.51567967118930291 0.42499999999999999
    endloop
  endfacet
  facet normal -0.99785892323860403 0.065403129230135679 0
    outer loop
      vertex -0.64443915989297795 0.084842024943025507 0.84999999999999998
      vertex -0.65000000000000002 7.9602041944577967e-17 0.21249999999999999
      vertex -0.65000000000000002 7.9602041944577967e-17 0.42499999999999999
    endloop
  endfacet
  facet normal -0.99785892323860326 -0.065403129230145296 0
    outer loop
      vertex -0.65000000000000002 7.9602041944577967e-17 0.21249999999999999
      vertex -0.6444391598929764 -0.084842024943036498 0.84999999999999987
      vertex -0.65000000000000002 7.9602041944577967e-17 0.42499999999999999
    endloop
  endfacet
  facet normal -0.44228869021898826 -0.8968727415326947 0
    outer loop
      vertex -0.3249999999999868 -0.56291651245989305 -0.8500000000000002
      vertex -0.24874423103730819 -0.60052169613233652 0.21249999999999999
      vertex -0.24874423103730819 -0.60052169613233652 0.42499999999999999
    endloop
  endfacet
  facet normal -0.32143946530316131 -0.94693012949510569 0
    outer loop
      vertex -0.24874423103730819 -0.60052169613233652 0.21249999999999999
      vertex -0.16823237931663843 -0.62785178708789446 0.84999999999999998
      vertex -0.24874423103730819 -0.60052169613233652 0.42499999999999999
    endloop
  endfacet
  facet normal 0.19509032201612841 -0.98078528040323032 -3.6304865602221814e-16
    outer loop
      vertex 0.084842024943033334 -0.64443915989297684 0.84999999999999998
      vertex 0.16823237931664564 -0.62785178708789235 -0.84999999999999998
      vertex 0.1682323793166382 -0.62785178708789446 0.84999999999999998
    endloop
  endfacet
  facet normal 0.32143946530316037 -0.94693012949510602 2.7903739677745421e-16
    outer loop
      vertex 0.16823237931664564 -0.62785178708789235 -0.84999999999999998
      vertex 0.24874423103730192 -0.60052169613233908 -0.85000000000000009
      vertex 0.24874423103730797 -0.60052169613233652 0.84999999999999998
    endloop
  endfacet
  facet normal 0.32143946530316131 -0.94693012949510569 2.3149924558395942e-16
    outer loop
      vertex 0.16823237931664564 -0.62785178708789235 -0.84999999999999998
      vertex 0.24874423103730797 -0.60052169613233652 0.84999999999999998
      vertex 0.1682323793166382 -0.62785178708789446 0.84999999999999998
    endloop
  endfacet
  facet normal 0.44228869021899248 -0.89687274153269247 -2.2705109437569884e-16
    outer loop
      vertex 0.24874423103730192 -0.60052169613233908 -0.85000000000000009
      vertex 0.32499999999999629 -0.56291651245988739 -0.84999999999999998
      vertex 0.24874423103730797 -0.60052169613233652 0.84999999999999998
    endloop
  endfacet
  facet normal 0.55557023301959396 -0.8314696123025509 9.6492932046904684e-16
    outer loop
      vertex 0.32499999999999629 -0.56291651245988739 -0.84999999999999998
      vertex 0.39569492885566793 -0.51567967118930325 -0.21249999999999999
      vertex 0.39569492885568203 -0.51567967118929259 0.84999999999999998
    endloop
  endfacet
  facet normal 0.65934581510007728 -0.75183980747897006 -1.2079536847627222e-15
    outer loop
      vertex 0.39569492885566793 -0.51567967118930325 -0.21249999999999999
      vertex 0.45961940777125326 -0.45961940777125859 0.84999999999999987
      vertex 0.39569492885568203 -0.51567967118929259 0.84999999999999998
    endloop
  endfacet
  facet normal 0.44228869021899186 0.89687274153269281 0
    outer loop
      vertex 0.32499999999998896 0.5629165124598916 0.84999999999999987
      vertex 0.24874423103730842 0.60052169613233641 0.31874999999999998
      vertex 0.24874423103730842 0.60052169613233641 0.84999999999999998
    endloop
  endfacet
  facet normal 0.32143946530316164 0.94693012949510558 -0
    outer loop
      vertex 0.24874423103730842 0.60052169613233641 0.31874999999999998
      vertex 0.16823237931663645 0.62785178708789513 0.84999999999999987
      vertex 0.24874423103730842 0.60052169613233641 0.84999999999999998
    endloop
  endfacet
  facet normal -0.44228869021899297 0.89687274153269236 4.4105911103532381e-16
    outer loop
      vertex -0.24874423103730819 0.60052169613233652 0.42499999999999999
      vertex -0.32499999999998169 0.56291651245989571 -0.84999999999999998
      vertex -0.3249999999999908 0.56291651245989038 0.84999999999999998
    endloop
  endfacet
  facet normal -0.55557023301958841 0.83146961230255445 0
    outer loop
      vertex -0.32499999999998169 0.56291651245989571 -0.84999999999999998
      vertex -0.39569492885566843 0.51567967118930291 0.42499999999999999
      vertex -0.39569492885566676 0.51567967118930402 0.8500000000000002
    endloop
  endfacet
  facet normal -0.55557023301959463 0.83146961230255045 -3.6873887715020676e-16
    outer loop
      vertex -0.32499999999998169 0.56291651245989571 -0.84999999999999998
      vertex -0.39569492885566676 0.51567967118930402 0.8500000000000002
      vertex -0.3249999999999908 0.56291651245989038 0.84999999999999998
    endloop
  endfacet
  facet normal -0.65934581510006685 0.75183980747897916 6.1957998253787154e-16
    outer loop
      vertex -0.39569492885566843 0.51567967118930291 0.42499999999999999
      vertex -0.45961940777125587 0.45961940777125593 0.84999999999999998
      vertex -0.39569492885566676 0.51567967118930402 0.8500000000000002
    endloop
  endfacet
  facet normal -0.94693012949510447 0.32143946530316531 -1.8002412695318581e-16
    outer loop
      vertex -0.60052169613233675 0.24874423103730786 0.85000000000000009
      vertex -0.62785178708789335 0.16823237931664217 -0.84999999999999998
      vertex -0.62785178708789202 0.16823237931664706 0.84999999999999998
    endloop
  endfacet
  facet normal -0.98078528040322999 0.19509032201613113 2.0803288478330018e-16
    outer loop
      vertex -0.62785178708789335 0.16823237931664217 -0.84999999999999998
      vertex -0.64443915989297795 0.084842024943025507 0.84999999999999998
      vertex -0.62785178708789202 0.16823237931664706 0.84999999999999998
    endloop
  endfacet
  facet normal -0.99785892323860403 0.065403129230136525 -1.7102292060552283e-16
    outer loop
      vertex -0.64443915989297795 0.084842024943025507 0.84999999999999998
      vertex -0.65000000000000002 7.9602041944577967e-17 0.42499999999999999
      vertex -0.65000000000000013 -5.0215788311601048e-16 0.84999999999999987
    endloop
  endfacet
  facet normal -0.99785892323860326 -0.065403129230147058 -3.501965052949995e-16
    outer loop
      vertex -0.65000000000000002 7.9602041944577967e-17 0.42499999999999999
      vertex -0.6444391598929764 -0.084842024943036498 0.84999999999999987
      vertex -0.65000000000000013 -5.0215788311601048e-16 0.84999999999999987
    endloop
  endfacet
  facet normal -0.9807852804032311 -0.19509032201612536 -9.0012063476591234e-18
    outer loop
      vertex -0.6444391598929764 -0.084842024943036498 0.84999999999999987
      vertex -0.62785178708789602 -0.16823237931663262 -0.84999999999999998
      vertex -0.6278517870878958 -0.16823237931663382 0.84999999999999998
    endloop
  endfacet
  facet normal -0.94693012949510491 -0.3214394653031637 6.0008042317710765e-18
    outer loop
      vertex -0.62785178708789602 -0.16823237931663262 -0.84999999999999998
      vertex -0.60052169613233275 -0.24874423103731741 -0.84999999999999998
      vertex -0.60052169613233297 -0.24874423103731672 0.84999999999999998
    endloop
  endfacet
  facet normal -0.94693012949510424 -0.32143946530316586 -1.0198469474272511e-16
    outer loop
      vertex -0.62785178708789602 -0.16823237931663262 -0.84999999999999998
      vertex -0.60052169613233297 -0.24874423103731672 0.84999999999999998
      vertex -0.6278517870878958 -0.16823237931663382 0.84999999999999998
    endloop
  endfacet
  facet normal -0.89687274153269092 -0.44228869021899592 6.3384515335949575e-17
    outer loop
      vertex -0.60052169613233275 -0.24874423103731741 -0.84999999999999998
      vertex -0.56291651245989227 -0.32499999999998808 0.84999999999999987
      vertex -0.60052169613233297 -0.24874423103731672 0.84999999999999998
    endloop
  endfacet
  facet normal 0.94693012949510413 0.32143946530316642 -7.4409972473981312e-16
    outer loop
      vertex 0.62785178708789258 0.16823237931664525 0.84999999999999998
      vertex 0.60052169613232997 0.2487442310373234 -0.85000000000000009
      vertex 0.60052169613233641 0.24874423103730836 0.84999999999999998
    endloop
  endfacet
  facet normal 0.89687274153268259 0.44228869021901307 5.1667810655926295e-16
    outer loop
      vertex 0.60052169613232997 0.2487442310373234 -0.85000000000000009
      vertex 0.56291651245988394 0.3250000000000019 -0.84999999999999998
      vertex 0.60052169613233641 0.24874423103730836 0.84999999999999998
    endloop
  endfacet
  facet normal -0.32143946530316614 0.94693012949510413 0
    outer loop
      vertex -0.16823237931664434 0.62785178708789291 0.84999999999999998
      vertex -0.24874423103730819 0.60052169613233652 0.42499999999999999
      vertex -0.24874423103730819 0.60052169613233652 0.63749999999999996
    endloop
  endfacet
  facet normal -0.44228869021899497 0.89687274153269148 0
    outer loop
      vertex -0.24874423103730819 0.60052169613233652 0.42499999999999999
      vertex -0.3249999999999908 0.56291651245989038 0.84999999999999998
      vertex -0.24874423103730819 0.60052169613233652 0.63749999999999996
    endloop
  endfacet
  facet normal 0.99785892323860315 0.065403129230148627 -5.588248940837603e-17
    outer loop
      vertex 0.65000000000000013 4.9531529218124201e-16 0.84999999999999998
      vertex 0.64443915989297595 0.084842024943039773 -0.85000000000000009
      vertex 0.64443915989297618 0.084842024943037844 0.85000000000000009
    endloop
  endfacet
  facet normal 0.98078528040322888 0.19509032201613657 9.3266818074129383e-17
    outer loop
      vertex 0.64443915989297595 0.084842024943039773 -0.85000000000000009
      vertex 0.62785178708789258 0.16823237931664525 0.84999999999999998
      vertex 0.64443915989297618 0.084842024943037844 0.85000000000000009
    endloop
  endfacet
  facet normal -0.32143946530316608 0.94693012949510424 0
    outer loop
      vertex -0.16823237931664434 0.62785178708789291 0.84999999999999998
      vertex -0.24874423103730819 0.60052169613233652 0.63749999999999996
      vertex -0.24874423103730819 0.60052169613233652 0.84999999999999998
    endloop
  endfacet
  facet normal -0.44228869021899497 0.89687274153269148 0
    outer loop
      vertex -0.24874423103730819 0.60052169613233652 0.63749999999999996
      vertex -0.3249999999999908 0.56291651245989038 0.84999999999999998
      vertex -0.24874423103730819 0.60052169613233652 0.84999999999999998
    endloop
  endfacet
  facet normal -0.55557023301958597 -0.83146961230255634 5.4007238085948038e-17
    outer loop
      vertex -0.39569492885565971 -0.51567967118930969 0.8500000000000002
      vertex -0.3249999999999868 -0.56291651245989305 -0.8500000000000002
      vertex -0.32499999999998813 -0.56291651245989205 0.8500000000000002
    endloop
  endfacet
  facet normal -0.44228869021898853 -0.89687274153269447 0
    outer loop
      vertex -0.3249999999999868 -0.56291651245989305 -0.8500000000000002
      vertex -0.24874423103730819 -0.60052169613233652 0.42499999999999999
      vertex -0.24874423103730819 -0.60052169613233652 0.84999999999999998
    endloop
  endfacet
  facet normal -0.44228869021899159 -0.89687274153269314 1.8053469772502416e-16
    outer loop
      vertex -0.3249999999999868 -0.56291651245989305 -0.8500000000000002
      vertex -0.24874423103730819 -0.60052169613233652 0.84999999999999998
      vertex -0.32499999999998813 -0.56291651245989205 0.8500000000000002
    endloop
  endfacet
  facet normal -0.32143946530316131 -0.94693012949510569 0
    outer loop
      vertex -0.24874423103730819 -0.60052169613233652 0.42499999999999999
      vertex -0.16823237931663843 -0.62785178708789446 0.84999999999999998
      vertex -0.24874423103730819 -0.60052169613233652 0.84999999999999998
    endloop
  endfacet
  facet normal -0.065403129230136151 -0.99785892323860403 1.4739475394291684e-16
    outer loop
      vertex -0.084842024943025784 -0.64443915989297784 0.84999999999999998
      vertex 2.5982733673424676e-16 -0.65000000000000024 -0.84999999999999998
      vertex 7.1019472040694085e-16 -0.65000000000000002 0.84999999999999998
    endloop
  endfacet
  facet normal 0.065403129230143145 -0.99785892323860359 1.1300809069767426e-16
    outer loop
      vertex 2.5982733673424676e-16 -0.65000000000000024 -0.84999999999999998
      vertex 0.084842024943033334 -0.64443915989297684 0.84999999999999998
      vertex 7.1019472040694085e-16 -0.65000000000000002 0.84999999999999998
    endloop
  endfacet
  facet normal 0.83146961230254857 -0.55557023301959718 -3.8705187294927029e-16
    outer loop
      vertex 0.51567967118930269 -0.39569492885566865 0.84999999999999998
      vertex 0.56291651245989405 -0.32499999999998452 -0.8500000000000002
      vertex 0.56291651245988894 -0.32499999999999335 0.8500000000000002
    endloop
  endfacet
  facet normal 0.89687274153268648 -0.44228869021900502 3.9799505117008707e-16
    outer loop
      vertex 0.56291651245989405 -0.32499999999998452 -0.8500000000000002
      vertex 0.60052169613233186 -0.24874423103731944 0.84999999999999998
      vertex 0.56291651245988894 -0.32499999999999335 0.8500000000000002
    endloop
  endfacet
  facet normal 0.89687274153268826 0.4422886902190013 -1.3801849733076059e-16
    outer loop
      vertex 0.60052169613233641 0.24874423103730836 0.84999999999999998
      vertex 0.56291651245988394 0.3250000000000019 -0.84999999999999998
      vertex 0.56291651245988517 0.32499999999999996 0.84999999999999998
    endloop
  endfacet
  facet normal 0.8314696123025449 0.55557023301960284 3.7637431897582148e-17
    outer loop
      vertex 0.56291651245988394 0.3250000000000019 -0.84999999999999998
      vertex 0.51567967118930269 0.39569492885566859 0.84999999999999987
      vertex 0.56291651245988517 0.32499999999999996 0.84999999999999998
    endloop
  endfacet
  facet normal 0.44228869021900108 -0.89687274153268837 2.4903337561854461e-16
    outer loop
      vertex 0.24874423103730797 -0.60052169613233652 0.84999999999999998
      vertex 0.32499999999999629 -0.56291651245988739 -0.84999999999999998
      vertex 0.32500000000000007 -0.56291651245988505 0.84999999999999998
    endloop
  endfacet
  facet normal 0.55557023301961161 -0.83146961230253902 -9.3293089875175193e-17
    outer loop
      vertex 0.32499999999999629 -0.56291651245988739 -0.84999999999999998
      vertex 0.39569492885568203 -0.51567967118929259 0.84999999999999998
      vertex 0.32500000000000007 -0.56291651245988505 0.84999999999999998
    endloop
  endfacet
  facet normal 0.98078528040323043 -0.19509032201612805 -1.0801447617189795e-16
    outer loop
      vertex 0.62785178708789413 -0.16823237931663976 0.84999999999999998
      vertex 0.64443915989297751 -0.08484202494302874 -0.85000000000000009
      vertex 0.64443915989297673 -0.084842024943033598 0.84999999999999998
    endloop
  endfacet
  facet normal 0.99785892323860348 -0.065403129230144616 2.6930259060997638e-16
    outer loop
      vertex 0.64443915989297751 -0.08484202494302874 -0.85000000000000009
      vertex 0.65000000000000013 4.9531529218124201e-16 0.84999999999999998
      vertex 0.64443915989297673 -0.084842024943033598 0.84999999999999998
    endloop
  endfacet
  facet normal -2.1714244673948583e-15 -1.4508994429685288e-15 -1
    outer loop
      vertex 0.24874423103731105 0.60052169613233519 -0.84999999999999998
      vertex 0.64443915989297595 0.084842024943039773 -0.85000000000000009
      vertex 0.65000000000000002 0 -0.84999999999999998
    endloop
  endfacet
  facet normal 2.2240926597448399e-15 -1.1628020295921172e-15 1
    outer loop
      vertex 0.45961940777125326 -0.45961940777125859 0.84999999999999987
      vertex 0.65000000000000013 4.9531529218124201e-16 0.84999999999999998
      vertex 0.64443915989297618 0.084842024943037844 0.85000000000000009
    endloop
  endfacet
  facet normal 1.9634672504754149e-15 1.7219145645240344e-15 -1
    outer loop
      vertex 0.24874423103731105 0.60052169613233519 -0.84999999999999998
      vertex 0.62785178708789458 0.16823237931663804 -0.84999999999999998
      vertex 0.64443915989297595 0.084842024943039773 -0.85000000000000009
    endloop
  endfacet
  facet normal -3.230476899601143e-15 6.8877483759439989e-16 1
    outer loop
      vertex 0.45961940777125326 -0.45961940777125859 0.84999999999999987
      vertex 0.64443915989297618 0.084842024943037844 0.85000000000000009
      vertex 0.62785178708789258 0.16823237931664525 0.84999999999999998
    endloop
  endfacet
  facet normal -2.5653935922181982e-15 -2.2497897986877873e-15 -1
    outer loop
      vertex 0.24874423103731105 0.60052169613233519 -0.84999999999999998
      vertex 0.60052169613232997 0.2487442310373234 -0.85000000000000009
      vertex 0.62785178708789458 0.16823237931663804 -0.84999999999999998
    endloop
  endfacet
  facet normal -2.9112254539261491e-16 -9.8822787884671245e-17 1
    outer loop
      vertex 0.45961940777125326 -0.45961940777125859 0.84999999999999987
      vertex 0.62785178708789258 0.16823237931664525 0.84999999999999998
      vertex 0.60052169613233641 0.24874423103730836 0.84999999999999998
    endloop
  endfacet
  facet normal 2.2497897986885928e-15 2.5653935922191014e-15 -1
    outer loop
      vertex 0.24874423103731105 0.60052169613233519 -0.84999999999999998
      vertex 0.56291651245988394 0.3250000000000019 -0.84999999999999998
      vertex 0.60052169613232997 0.2487442310373234 -0.85000000000000009
    endloop
  endfacet
  facet normal -2.2647048278125156e-16 -1.116828827146756e-16 1
    outer loop
      vertex 0.45961940777125326 -0.45961940777125859 0.84999999999999987
      vertex 0.60052169613233641 0.24874423103730836 0.84999999999999998
      vertex 0.56291651245988517 0.32499999999999996 0.84999999999999998
    endloop
  endfacet
  facet normal 0 0 -1
    outer loop
      vertex 0.24874423103731105 0.60052169613233519 -0.84999999999999998
      vertex 0.51567967118930291 0.39569492885566843 -0.84999999999999998
      vertex 0.56291651245988394 0.3250000000000019 -0.84999999999999998
    endloop
  endfacet
  facet normal -2.1403774520429683e-15 1.4028774993855833e-16 1
    outer loop
      vertex 0.45961940777125326 -0.45961940777125859 0.84999999999999987
      vertex 0.56291651245988517 0.32499999999999996 0.84999999999999998
      vertex 0.51567967118930269 0.39569492885566859 0.84999999999999987
    endloop
  endfacet
  facet normal 0 0 -1
    outer loop
      vertex 0.24874423103731105 0.60052169613233519 -0.84999999999999998
      vertex 0.45961940777125593 0.45961940777125593 -0.84999999999999998
      vertex 0.51567967118930291 0.39569492885566843 -0.84999999999999998
    endloop
  endfacet
  facet normal 1.8426909074995612e-15 -1.2077634297567998e-16 1
    outer loop
      vertex 0.45961940777125326 -0.45961940777125859 0.84999999999999987
      vertex 0.51567967118930269 0.39569492885566859 0.84999999999999987
      vertex 0.45961940777125593 0.45961940777125593 0.84999999999999998
    endloop
  endfacet
  facet normal -5.5578861923833799e-15 -8.3179645037598877e-15 -1
    outer loop
      vertex 0.24874423103731105 0.60052169613233519 -0.84999999999999998
      vertex 0.39569492885564628 0.5156796711893199 -0.85000000000000009
      vertex 0.45961940777125593 0.45961940777125593 -0.84999999999999998
    endloop
  endfacet
  facet normal 1.6308548873471195e-15 -1.2077634297567936e-16 1
    outer loop
      vertex 0.45961940777125326 -0.45961940777125859 0.84999999999999987
      vertex 0.45961940777125593 0.45961940777125593 0.84999999999999998
      vertex 0.39569492885565283 0.51567967118931501 0.85000000000000009
    endloop
  endfacet
  facet normal 4.4246254718445535e-15 8.9722528858326388e-15 -1
    outer loop
      vertex 0.24874423103731105 0.60052169613233519 -0.84999999999999998
      vertex 0.32500000000000007 0.56291651245988505 -0.84999999999999998
      vertex 0.39569492885564628 0.5156796711893199 -0.85000000000000009
    endloop
  endfacet
  facet normal -3.4438291290479916e-15 -4.5338870610341859e-16 1
    outer loop
      vertex 0.45961940777125326 -0.45961940777125859 0.84999999999999987
      vertex 0.39569492885565283 0.51567967118931501 0.85000000000000009
      vertex 0.32499999999998896 0.5629165124598916 0.84999999999999987
    endloop
  endfacet
  facet normal 1.5570068894063333e-15 2.0498384575113699e-16 1
    outer loop
      vertex 0.45961940777125326 -0.45961940777125859 0.84999999999999987
      vertex 0.32499999999998896 0.5629165124598916 0.84999999999999987
      vertex 0.24874423103730842 0.60052169613233641 0.84999999999999998
    endloop
  endfacet
  facet normal -1.516930718772748e-15 -4.0646036106911827e-16 1
    outer loop
      vertex 0.45961940777125326 -0.45961940777125859 0.84999999999999987
      vertex 0.24874423103730842 0.60052169613233641 0.84999999999999998
      vertex 0.16823237931663645 0.62785178708789513 0.84999999999999987
    endloop
  endfacet
  facet normal 0 0 -1
    outer loop
      vertex 0.24874423103731105 0.60052169613233519 -0.84999999999999998
      vertex 0.084842024943033612 0.64443915989297673 -0.84999999999999998
      vertex 0.16823237931663848 0.62785178708789446 -0.84999999999999998
    endloop
  endfacet
  facet normal 2.8126215419869794e-15 7.5363967078978635e-16 1
    outer loop
      vertex 0.45961940777125326 -0.45961940777125859 0.84999999999999987
      vertex 0.16823237931663645 0.62785178708789513 0.84999999999999987
      vertex 0.084842024943034708 0.64443915989297662 0.85000000000000009
    endloop
  endfacet
  facet normal 0 0 -1
    outer loop
      vertex 0.24874423103731105 0.60052169613233519 -0.84999999999999998
      vertex 3.9801020972288984e-17 0.65000000000000002 -0.84999999999999998
      vertex 0.084842024943033612 0.64443915989297673 -0.84999999999999998
    endloop
  endfacet
  facet normal -2.6901894582579708e-15 -1.1143129589635717e-15 1
    outer loop
      vertex 0.45961940777125326 -0.45961940777125859 0.84999999999999987
      vertex 0.084842024943034708 0.64443915989297662 0.85000000000000009
      vertex 0 0.65000000000000013 0.84999999999999987
    endloop
  endfacet
  facet normal 0 0 -1
    outer loop
      vertex 0.24874423103731105 0.60052169613233519 -0.84999999999999998
      vertex -0.084842024943033542 0.64443915989297673 -0.84999999999999998
      vertex 3.9801020972288984e-17 0.65000000000000002 -0.84999999999999998
    endloop
  endfacet
  facet normal 0 0 1
    outer loop
      vertex 0.45961940777125326 -0.45961940777125859 0.84999999999999987
      vertex 0 0.65000000000000013 0.84999999999999987
      vertex -0.084842024943033473 0.64443915989297673 0.84999999999999987
    endloop
  endfacet
  facet normal 0 0 -1
    outer loop
      vertex 0.24874423103731105 0.60052169613233519 -0.84999999999999998
      vertex -0.16823237931663843 0.62785178708789446 -0.84999999999999998
      vertex -0.084842024943033542 0.64443915989297673 -0.84999999999999998
    endloop
  endfacet
  facet normal 1.2124264337373131e-15 5.9790255019699745e-16 1
    outer loop
      vertex 0.45961940777125326 -0.45961940777125859 0.84999999999999987
      vertex -0.084842024943033473 0.64443915989297673 0.84999999999999987
      vertex -0.16823237931664434 0.62785178708789291 0.84999999999999998
    endloop
  endfacet
  facet normal -2.231655825735844e-16 -3.4048488283669308e-15 -1
    outer loop
      vertex 0.24874423103731105 0.60052169613233519 -0.84999999999999998
      vertex -0.24874423103730869 0.60052169613233619 -0.84999999999999987
      vertex -0.16823237931663843 0.62785178708789446 -0.84999999999999998
    endloop
  endfacet
  facet normal 2.8976662138256746e-17 -8.5362494008121343e-17 1
    outer loop
      vertex 0.45961940777125326 -0.45961940777125859 0.84999999999999987
      vertex -0.16823237931664434 0.62785178708789291 0.84999999999999998
      vertex -0.24874423103730819 0.60052169613233652 0.84999999999999998
    endloop
  endfacet
  facet normal -2.2316558257357074e-16 3.4048488283678349e-15 -1
    outer loop
      vertex 0.24874423103731105 0.60052169613233519 -0.84999999999999998
      vertex -0.32499999999998169 0.56291651245989571 -0.84999999999999998
      vertex -0.24874423103730869 0.60052169613233619 -0.84999999999999987
    endloop
  endfacet
  facet normal 3.8844559969287172e-17 -7.8768975476256734e-17 1
    outer loop
      vertex 0.45961940777125326 -0.45961940777125859 0.84999999999999987
      vertex -0.24874423103730819 0.60052169613233652 0.84999999999999998
      vertex -0.3249999999999908 0.56291651245989038 0.84999999999999998
    endloop
  endfacet
  facet normal -3.4160708449986547e-16 5.211916945293634e-15 -1
    outer loop
      vertex 0.24874423103731105 0.60052169613233519 -0.84999999999999998
      vertex -0.39569492885566804 0.51567967118930302 -0.8500000000000002
      vertex -0.32499999999998169 0.56291651245989571 -0.84999999999999998
    endloop
  endfacet
  facet normal 2.12428627456899e-15 1.5214467339931753e-15 1
    outer loop
      vertex 0.45961940777125326 -0.45961940777125859 0.84999999999999987
      vertex -0.3249999999999908 0.56291651245989038 0.84999999999999998
      vertex -0.39569492885566676 0.51567967118930402 0.8500000000000002
    endloop
  endfacet
  facet normal 7.1219625676863463e-16 -2.7925141181502381e-15 -1
    outer loop
      vertex 0.24874423103731105 0.60052169613233519 -0.84999999999999998
      vertex -0.45961940777123883 0.4596194077712728 -0.85000000000000009
      vertex -0.39569492885566804 0.51567967118930302 -0.8500000000000002
    endloop
  endfacet
  facet normal -1.794176885628865e-15 -1.914953228604529e-15 1
    outer loop
      vertex 0.45961940777125326 -0.45961940777125859 0.84999999999999987
      vertex -0.39569492885566676 0.51567967118930402 0.8500000000000002
      vertex -0.45961940777125587 0.45961940777125593 0.84999999999999998
    endloop
  endfacet
  facet normal 6.083109186709979e-16 -2.2702472552790862e-15 -1
    outer loop
      vertex 0.24874423103731105 0.60052169613233519 -0.84999999999999998
      vertex -0.5156796711893028 0.39569492885566859 -0.84999999999999998
      vertex -0.45961940777123883 0.4596194077712728 -0.85000000000000009
    endloop
  endfacet
  facet normal 6.4346221360231013e-17 -5.6430121615444007e-17 1
    outer loop
      vertex 0.45961940777125326 -0.45961940777125859 0.84999999999999987
      vertex -0.45961940777125587 0.45961940777125593 0.84999999999999998
      vertex -0.51567967118930746 0.39569492885566276 0.84999999999999998
    endloop
  endfacet
  facet normal 0 0 -1
    outer loop
      vertex 0.24874423103731105 0.60052169613233519 -0.84999999999999998
      vertex -0.56291651245988517 0.32499999999999996 -0.84999999999999998
      vertex -0.5156796711893028 0.39569492885566859 -0.84999999999999998
    endloop
  endfacet
  facet normal 7.177538781006503e-17 -4.7958780863057752e-17 1
    outer loop
      vertex 0.45961940777125326 -0.45961940777125859 0.84999999999999987
      vertex -0.51567967118930746 0.39569492885566276 0.84999999999999998
      vertex -0.56291651245988761 0.32499999999999607 0.84999999999999998
    endloop
  endfacet
  facet normal -5.9358448998323419e-16 1.7486435196623816e-15 -1
    outer loop
      vertex 0.24874423103731105 0.60052169613233519 -0.84999999999999998
      vertex -0.60052169613232842 0.24874423103732762 -0.85000000000000009
      vertex -0.56291651245988517 0.32499999999999996 -0.84999999999999998
    endloop
  endfacet
  facet normal 8.8924754948643306e-16 1.0173916818249347e-15 1
    outer loop
      vertex 0.45961940777125326 -0.45961940777125859 0.84999999999999987
      vertex -0.56291651245988761 0.32499999999999607 0.84999999999999998
      vertex -0.60052169613233675 0.24874423103730786 0.85000000000000009
    endloop
  endfacet
  facet normal 8.1675007255650157e-16 -1.6562053087047515e-15 -1
    outer loop
      vertex 0.24874423103731105 0.60052169613233519 -0.84999999999999998
      vertex -0.62785178708789335 0.16823237931664217 -0.84999999999999998
      vertex -0.60052169613232842 0.24874423103732762 -0.85000000000000009
    endloop
  endfacet
  facet normal -5.8031582872167831e-16 -1.1819653386034766e-15 1
    outer loop
      vertex 0.45961940777125326 -0.45961940777125859 0.84999999999999987
      vertex -0.60052169613233675 0.24874423103730786 0.85000000000000009
      vertex -0.62785178708789202 0.16823237931664706 0.84999999999999998
    endloop
  endfacet
  facet normal 0 0 -1
    outer loop
      vertex 0.24874423103731105 0.60052169613233519 -0.84999999999999998
      vertex -0.6444391598929764 0.084842024943035818 -0.84999999999999998
      vertex -0.62785178708789335 0.16823237931664217 -0.84999999999999998
    endloop
  endfacet
  facet normal 9.1575458877319234e-17 -1.8215491319166222e-17 1
    outer loop
      vertex 0.45961940777125326 -0.45961940777125859 0.84999999999999987
      vertex -0.62785178708789202 0.16823237931664706 0.84999999999999998
      vertex -0.64443915989297795 0.084842024943025507 0.84999999999999998
    endloop
  endfacet
  facet normal 0 0 -1
    outer loop
      vertex 0.24874423103731105 0.60052169613233519 -0.84999999999999998
      vertex -0.65000000000000002 7.9602041944577967e-17 -0.84999999999999998
      vertex -0.6444391598929764 0.084842024943035818 -0.84999999999999998
    endloop
  endfacet
  facet normal -5.2770362210570426e-16 -1.2739892414009887e-15 1
    outer loop
      vertex 0.45961940777125326 -0.45961940777125859 0.84999999999999987
      vertex -0.64443915989297795 0.084842024943025507 0.84999999999999998
      vertex -0.65000000000000013 -5.0215788311601048e-16 0.84999999999999987
    endloop
  endfacet
  facet normal 0 0 -1
    outer loop
      vertex 0.24874423103731105 0.60052169613233519 -0.84999999999999998
      vertex -0.64443915989297673 -0.084842024943033653 -0.84999999999999998
      vertex -0.65000000000000002 7.9602041944577967e-17 -0.84999999999999998
    endloop
  endfacet
  facet normal 0 0 1
    outer loop
      vertex 0.45961940777125326 -0.45961940777125859 0.84999999999999987
      vertex -0.65000000000000013 -5.0215788311601048e-16 0.84999999999999987
      vertex -0.6444391598929764 -0.084842024943036498 0.84999999999999987
    endloop
  endfacet
  facet normal 0 0 -1
    outer loop
      vertex 0.24874423103731105 0.60052169613233519 -0.84999999999999998
      vertex -0.62785178708789602 -0.16823237931663262 -0.84999999999999998
      vertex -0.64443915989297673 -0.084842024943033653 -0.84999999999999998
    endloop
  endfacet
  facet normal 4.8465970656296087e-16 1.4277614550655164e-15 1
    outer loop
      vertex 0.45961940777125326 -0.45961940777125859 0.84999999999999987
      vertex -0.6444391598929764 -0.084842024943036498 0.84999999999999987
      vertex -0.6278517870878958 -0.16823237931663382 0.84999999999999998
    endloop
  endfacet
  facet normal 0 0 -1
    outer loop
      vertex 0.24874423103731105 0.60052169613233519 -0.84999999999999998
      vertex -0.60052169613233275 -0.24874423103731741 -0.84999999999999998
      vertex -0.62785178708789602 -0.16823237931663262 -0.84999999999999998
    endloop
  endfacet
  facet normal 1.1230725161063513e-16 3.8123174860471533e-17 1
    outer loop
      vertex 0.45961940777125326 -0.45961940777125859 0.84999999999999987
      vertex -0.6278517870878958 -0.16823237931663382 0.84999999999999998
      vertex -0.60052169613233297 -0.24874423103731672 0.84999999999999998
    endloop
  endfacet
  facet normal 0 0 -1
    outer loop
      vertex 0.24874423103731105 0.60052169613233519 -0.84999999999999998
      vertex -0.56291651245988528 -0.32499999999999984 -0.84999999999999998
      vertex -0.60052169613233275 -0.24874423103731741 -0.84999999999999998
    endloop
  endfacet
  facet normal -2.0498384575117298e-16 -1.5570068894065277e-15 1
    outer loop
      vertex 0.45961940777125326 -0.45961940777125859 0.84999999999999987
      vertex -0.60052169613233297 -0.24874423103731672 0.84999999999999998
      vertex -0.56291651245989227 -0.32499999999998808 0.84999999999999987
    endloop
  endfacet
  facet normal 0 0 -1
    outer loop
      vertex 0.24874423103731105 0.60052169613233519 -0.84999999999999998
      vertex -0.51567967118930291 -0.39569492885566843 -0.84999999999999998
      vertex -0.56291651245988528 -0.32499999999999984 -0.84999999999999998
    endloop
  endfacet
  facet normal 0 0 1
    outer loop
      vertex 0.45961940777125326 -0.45961940777125859 0.84999999999999987
      vertex -0.56291651245989227 -0.32499999999998808 0.84999999999999987
      vertex -0.51567967118929481 -0.39569492885567897 0.84999999999999987
    endloop
  endfacet
  facet normal 0 0 -1
    outer loop
      vertex 0.24874423103731105 0.60052169613233519 -0.84999999999999998
      vertex -0.45961940777124421 -0.45961940777126753 -0.84999999999999998
      vertex -0.51567967118930291 -0.39569492885566843 -0.84999999999999998
    endloop
  endfacet
  facet normal 1.2077634297567246e-16 1.8426909074997277e-15 1
    outer loop
      vertex 0.45961940777125326 -0.45961940777125859 0.84999999999999987
      vertex -0.51567967118929481 -0.39569492885567897 0.84999999999999987
      vertex -0.45961940777125154 -0.45961940777126031 0.84999999999999998
    endloop
  endfacet
  facet normal -2.1901616035274891e-15 1.4634191970681122e-15 -1
    outer loop
      vertex 0.24874423103731105 0.60052169613233519 -0.84999999999999998
      vertex -0.39569492885567237 -0.51567967118929969 -0.8500000000000002
      vertex -0.45961940777124421 -0.45961940777126753 -0.84999999999999998
    endloop
  endfacet
  facet normal 1.2077634297566824e-16 4.0985388884402862e-15 1
    outer loop
      vertex 0.45961940777125326 -0.45961940777125859 0.84999999999999987
      vertex -0.45961940777125154 -0.45961940777126031 0.84999999999999998
      vertex -0.39569492885565971 -0.51567967118930969 0.8500000000000002
    endloop
  endfacet
  facet normal 9.5917561726116108e-17 1.4355077562012947e-16 -1
    outer loop
      vertex 0.24874423103731105 0.60052169613233519 -0.84999999999999998
      vertex -0.3249999999999868 -0.56291651245989305 -0.8500000000000002
      vertex -0.39569492885567237 -0.51567967118929969 -0.8500000000000002
    endloop
  endfacet
  facet normal 3.546228525527044e-16 5.3073060470327366e-16 1
    outer loop
      vertex 0.45961940777125326 -0.45961940777125859 0.84999999999999987
      vertex -0.39569492885565971 -0.51567967118930969 0.8500000000000002
      vertex -0.32499999999998813 -0.56291651245989205 0.8500000000000002
    endloop
  endfacet
  facet normal 2.4179345782067111e-15 -1.001541295224104e-15 -1
    outer loop
      vertex 0.24874423103731105 0.60052169613233519 -0.84999999999999998
      vertex -0.24874423103731211 -0.60052169613233497 -0.84999999999999998
      vertex -0.3249999999999868 -0.56291651245989305 -0.8500000000000002
    endloop
  endfacet
  facet normal 9.4860865775301263e-16 -3.9810395180470618e-15 1
    outer loop
      vertex 0.45961940777125326 -0.45961940777125859 0.84999999999999987
      vertex -0.32499999999998813 -0.56291651245989205 0.8500000000000002
      vertex -0.24874423103730819 -0.60052169613233652 0.84999999999999998
    endloop
  endfacet
  facet normal 0 0 -1
    outer loop
      vertex 0.24874423103731105 0.60052169613233519 -0.84999999999999998
      vertex -0.16823237931665189 -0.62785178708789102 -0.84999999999999998
      vertex -0.24874423103731211 -0.60052169613233497 -0.84999999999999998
    endloop
  endfacet
  facet normal 9.882278788467244e-17 2.9112254539262364e-16 1
    outer loop
      vertex 0.45961940777125326 -0.45961940777125859 0.84999999999999987
      vertex -0.24874423103730819 -0.60052169613233652 0.84999999999999998
      vertex -0.16823237931663843 -0.62785178708789446 0.84999999999999998
    endloop
  endfacet
  facet normal 0 0 -1
    outer loop
      vertex 0.24874423103731105 0.60052169613233519 -0.84999999999999998
      vertex -0.084842024943033556 -0.64443915989297673 -0.84999999999999998
      vertex -0.16823237931665189 -0.62785178708789102 -0.84999999999999998
    endloop
  endfacet
  facet normal 7.5340199276976103e-17 3.7876075916978531e-16 1
    outer loop
      vertex 0.45961940777125326 -0.45961940777125859 0.84999999999999987
      vertex -0.16823237931663843 -0.62785178708789446 0.84999999999999998
      vertex -0.084842024943025784 -0.64443915989297784 0.84999999999999998
    endloop
  endfacet
  facet normal 0 0 -1
    outer loop
      vertex 0.24874423103731105 0.60052169613233519 -0.84999999999999998
      vertex 2.5982733673424676e-16 -0.65000000000000024 -0.84999999999999998
      vertex -0.084842024943033556 -0.64443915989297673 -0.84999999999999998
    endloop
  endfacet
  facet normal 3.3000453684564387e-17 5.0348962760166543e-16 1
    outer loop
      vertex 0.45961940777125326 -0.45961940777125859 0.84999999999999987
      vertex -0.084842024943025784 -0.64443915989297784 0.84999999999999998
      vertex 7.1019472040694085e-16 -0.65000000000000002 0.84999999999999998
    endloop
  endfacet
  facet normal 0 0 -1
    outer loop
      vertex 0.24874423103731105 0.60052169613233519 -0.84999999999999998
      vertex 0.084842024943031558 -0.64443915989297706 -0.84999999999999998
      vertex 2.5982733673424676e-16 -0.65000000000000024 -0.84999999999999998
    endloop
  endfacet
  facet normal -4.5407390853560574e-17 6.9278290928204867e-16 1
    outer loop
      vertex 0.45961940777125326 -0.45961940777125859 0.84999999999999987
      vertex 7.1019472040694085e-16 -0.65000000000000002 0.84999999999999998
      vertex 0.084842024943033334 -0.64443915989297684 0.84999999999999998
    endloop
  endfacet
  facet normal 0 0 -1
    outer loop
      vertex 0.24874423103731105 0.60052169613233519 -0.84999999999999998
      vertex 0.16823237931664564 -0.62785178708789235 -0.84999999999999998
      vertex 0.084842024943031558 -0.64443915989297706 -0.84999999999999998
    endloop
  endfacet
  facet normal -2.0026597785394183e-16 1.0068050593943213e-15 1
    outer loop
      vertex 0.45961940777125326 -0.45961940777125859 0.84999999999999987
      vertex 0.084842024943033334 -0.64443915989297684 0.84999999999999998
      vertex 0.1682323793166382 -0.62785178708789446 0.84999999999999998
    endloop
  endfacet
  facet normal -1.4103345625399834e-15 9.2438210956879816e-17 -1
    outer loop
      vertex 0.24874423103731105 0.60052169613233519 -0.84999999999999998
      vertex 0.24874423103730192 -0.60052169613233908 -0.85000000000000009
      vertex 0.16823237931664564 -0.62785178708789235 -0.84999999999999998
    endloop
  endfacet
  facet normal -5.4366843428757104e-16 1.6015955613813296e-15 1
    outer loop
      vertex 0.45961940777125326 -0.45961940777125859 0.84999999999999987
      vertex 0.1682323793166382 -0.62785178708789446 0.84999999999999998
      vertex 0.24874423103730797 -0.60052169613233652 0.84999999999999998
    endloop
  endfacet
  facet normal 1.4103345625397019e-15 9.2438210956858369e-17 -1
    outer loop
      vertex 0.24874423103731105 0.60052169613233519 -0.84999999999999998
      vertex 0.32499999999999629 -0.56291651245988739 -0.84999999999999998
      vertex 0.24874423103730192 -0.60052169613233908 -0.85000000000000009
    endloop
  endfacet
  facet normal -1.4833352497412473e-15 3.0079063323748404e-15 1
    outer loop
      vertex 0.45961940777125326 -0.45961940777125859 0.84999999999999987
      vertex 0.24874423103730797 -0.60052169613233652 0.84999999999999998
      vertex 0.32500000000000007 -0.56291651245988505 0.84999999999999998
    endloop
  endfacet
  facet normal 0 0 -1
    outer loop
      vertex 0.24874423103731105 0.60052169613233519 -0.84999999999999998
      vertex 0.39569492885565455 -0.51567967118931346 -0.84999999999999998
      vertex 0.32499999999999629 -0.56291651245988739 -0.84999999999999998
    endloop
  endfacet
  facet normal -5.5578861923856566e-15 8.3179645037631236e-15 1
    outer loop
      vertex 0.45961940777125326 -0.45961940777125859 0.84999999999999987
      vertex 0.32500000000000007 -0.56291651245988505 0.84999999999999998
      vertex 0.39569492885568203 -0.51567967118929259 0.84999999999999998
    endloop
  endfacet
  facet normal 0 0 -1
    outer loop
      vertex 0.24874423103731105 0.60052169613233519 -0.84999999999999998
      vertex 0.45961940777125582 -0.45961940777125598 -0.84999999999999998
      vertex 0.39569492885565455 -0.51567967118931346 -0.84999999999999998
    endloop
  endfacet
  facet normal 0 0 -1
    outer loop
      vertex 0.24874423103731105 0.60052169613233519 -0.84999999999999998
      vertex 0.51567967118930269 -0.39569492885566865 -0.84999999999999998
      vertex 0.45961940777125582 -0.45961940777125598 -0.84999999999999998
    endloop
  endfacet
  facet normal -3.3551875920399454e-15 -8.9901980574201795e-16 -1
    outer loop
      vertex 0.24874423103731105 0.60052169613233519 -0.84999999999999998
      vertex 0.56291651245989405 -0.32499999999998452 -0.8500000000000002
      vertex 0.51567967118930269 -0.39569492885566865 -0.84999999999999998
    endloop
  endfacet
  facet normal 6.7247423819561542e-15 -7.6342136860889112e-15 1
    outer loop
      vertex 0.45961940777125326 -0.45961940777125859 0.84999999999999987
      vertex 0.51567967118930269 -0.39569492885566865 0.84999999999999998
      vertex 0.56291651245988894 -0.32499999999999335 0.8500000000000002
    endloop
  endfacet
  facet normal 3.2091378651006507e-15 1.329268427249718e-15 -1
    outer loop
      vertex 0.24874423103731105 0.60052169613233519 -0.84999999999999998
      vertex 0.60052169613233597 -0.24874423103730939 -0.84999999999999998
      vertex 0.56291651245989405 -0.32499999999998452 -0.8500000000000002
    endloop
  endfacet
  facet normal -1.9643835339899637e-14 1.2599107634511665e-14 1
    outer loop
      vertex 0.45961940777125326 -0.45961940777125859 0.84999999999999987
      vertex 0.56291651245988894 -0.32499999999999335 0.8500000000000002
      vertex 0.60052169613233186 -0.24874423103731944 0.84999999999999998
    endloop
  endfacet
  facet normal 0 0 -1
    outer loop
      vertex 0.24874423103731105 0.60052169613233519 -0.84999999999999998
      vertex 0.62785178708789369 -0.16823237931664145 -0.84999999999999998
      vertex 0.60052169613233597 -0.24874423103730939 -0.84999999999999998
    endloop
  endfacet
  facet normal -1.6015955613813237e-15 5.436684342875882e-16 1
    outer loop
      vertex 0.45961940777125326 -0.45961940777125859 0.84999999999999987
      vertex 0.60052169613233186 -0.24874423103731944 0.84999999999999998
      vertex 0.62785178708789413 -0.16823237931663976 0.84999999999999998
    endloop
  endfacet
  facet normal -1.923765122125752e-15 -9.4869597073485721e-16 -1
    outer loop
      vertex 0.24874423103731105 0.60052169613233519 -0.84999999999999998
      vertex 0.64443915989297751 -0.08484202494302874 -0.85000000000000009
      vertex 0.62785178708789369 -0.16823237931664145 -0.84999999999999998
    endloop
  endfacet
  facet normal -1.006805059394282e-15 2.0026597785393362e-16 1
    outer loop
      vertex 0.45961940777125326 -0.45961940777125859 0.84999999999999987
      vertex 0.62785178708789413 -0.16823237931663976 0.84999999999999998
      vertex 0.64443915989297673 -0.084842024943033598 0.84999999999999998
    endloop
  endfacet
  facet normal 1.7834773721874786e-15 1.1916814813081146e-15 -1
    outer loop
      vertex 0.24874423103731105 0.60052169613233519 -0.84999999999999998
      vertex 0.65000000000000002 0 -0.84999999999999998
      vertex 0.64443915989297751 -0.08484202494302874 -0.85000000000000009
    endloop
  endfacet
  facet normal -6.9278290928203053e-16 4.5407390853560395e-17 1
    outer loop
      vertex 0.45961940777125326 -0.45961940777125859 0.84999999999999987
      vertex 0.64443915989297673 -0.084842024943033598 0.84999999999999998
      vertex 0.65000000000000013 4.9531529218124201e-16 0.84999999999999998
    endloop
  endfacet
endsolid standard_w_0e_00
