solid line_f_100_w_1e_03
  facet normal 2.9898964578786155e-05 -1.1915779602925922e-05 0.999999999482033
    outer loop
      vertex 0.4299123299567868 -0.10375071885453513 -6.096759719452418e-06
      vertex 1.1404603728339073 0.026024718803737752 -2.5795034982155091e-05
      vertex 0.27116224965443247 0.35447288482817851 4.109794784015481e-06
    endloop
  endfacet
  facet normal -2.5240445597196855e-05 -3.7694736316231736e-05 0.99999999897101344
    outer loop
      vertex -0.038332164775787658 0.42123163743719755 -1.1855285750980836e-06
      vertex 0.27116224965443247 0.35447288482817851 4.109794784015481e-06
      vertex -0.39152399283741246 0.68918012792956551 -0
    endloop
  endfacet
  facet normal -2.549790197429252e-05 -3.8034098140149729e-05 0.99999999895163216
    outer loop
      vertex -0.038332164775787658 0.42123163743719755 -1.1855285750980836e-06
      vertex -0.39152399283741246 0.68918012792956551 -0
      vertex -0.35473637664796343 0.26610090380996393 -1.5153429715643232e-05
    endloop
  endfacet
  facet normal -9.5383852998900912e-06 -6.4979064825111051e-07 0.99999999995429845
    outer loop
      vertex -0.35473637664796343 0.26610090380996393 -1.5153429715643232e-05
      vertex -1.1361361905699252 0.083777141585944404 -2.2725194490086495e-05
      vertex -0.36314153716162195 -0.26040632751098725 -1.5575720850298166e-05
    endloop
  endfacet
  facet normal -3.2716859451033965e-05 4.0240458471229007e-05 0.99999999865515621
    outer loop
      vertex -0.36314153716162195 -0.26040632751098725 -1.5575720850298166e-05
      vertex -0.40090079767507625 -0.67817207589490414 0
      vertex 0.12681982923742038 -0.42521767975134955 7.0863607165082103e-06
    endloop
  endfacet
  facet normal 3.6234598463278797e-05 4.8526338612126153e-06 0.99999999933175288
    outer loop
      vertex 1.1404603728339073 0.026024718803737752 -2.5795034982155091e-05
      vertex 0.63971980876646162 0.97940279429883148 -1.2277296431547485e-05
      vertex 0.27116224965443247 0.35447288482817851 4.109794784015481e-06
    endloop
  endfacet
  facet normal -4.7185585647879084e-06 -1.8170390004678343e-05 0.99999999982378607
    outer loop
      vertex 0.12681982923742038 -0.42521767975134955 7.0863607165082103e-06
      vertex -0.40090079767507625 -0.67817207589490414 0
      vertex 0.046101579067138458 -1.1596278949348942 -6.6390331098908212e-06
    endloop
  endfacet
  facet normal 1.2295366587101614e-05 2.9416668502209167e-05 0.99999999949174179
    outer loop
      vertex 0.4299123299567868 -0.10375071885453513 -6.096759719452418e-06
      vertex 0.12681982923742038 -0.42521767975134955 7.0863607165082103e-06
      vertex 1.0813459264956791 -0.408916137824887 -5.1294246273718772e-06
    endloop
  endfacet
  facet normal 1.9529491656451332e-05 4.4859283615589258e-05 0.99999999880312174
    outer loop
      vertex 1.0813459264956791 -0.408916137824887 -5.1294246273718772e-06
      vertex 1.1404603728339073 0.026024718803737752 -2.5795034982155091e-05
      vertex 0.4299123299567868 -0.10375071885453513 -6.096759719452418e-06
    endloop
  endfacet
  facet normal -1.306327816669022e-06 -3.5930590597586451e-05 0.99999999935364314
    outer loop
      vertex -0.35473637664796343 0.26610090380996393 -1.5153429715643232e-05
      vertex -0.39152399283741246 0.68918012792956551 -0
      vertex -1.1361361905699252 0.083777141585944404 -2.2725194490086495e-05
    endloop
  endfacet
  facet normal 7.0673146838380231e-06 3.6644613213013689e-05 0.99999999930361272
    outer loop
      vertex -0.36314153716162195 -0.26040632751098725 -1.5575720850298166e-05
      vertex -1.1361361905699252 0.083777141585944404 -2.2725194490086495e-05
      vertex -0.40090079767507625 -0.67817207589490414 0
    endloop
  endfacet
  facet normal -8.3696996867122533e-05 -5.8138760820175935e-05 0.99999999480734869
    outer loop
      vertex 1.1404603728339073 0.026024718803737752 -2.5795034982155091e-05
      vertex 1.0510749764479423 0.48525553712795 -6.577213415841221e-06
      vertex 0.63971980876646162 0.97940279429883148 -1.2277296431547485e-05
    endloop
  endfacet
  facet normal 5.4799457110395879e-06 2.2990443532825734e-05 0.99999999972070486
    outer loop
      vertex 0.63971980876646162 0.97940279429883148 -1.2277296431547485e-05
      vertex -0.092140771821455358 1.1618437636720962 -1.2461138986377164e-05
      vertex 0.27116224965443247 0.35447288482817851 4.109794784015481e-06
    endloop
  endfacet
  facet normal 5.389701983458329e-06 2.2949835406207546e-05 0.99999999972212805
    outer loop
      vertex 0.27116224965443247 0.35447288482817851 4.109794784015481e-06
      vertex -0.092140771821455358 1.1618437636720962 -1.2461138986377164e-05
      vertex -0.39152399283741246 0.68918012792956551 -0
    endloop
  endfacet
  facet normal -3.2063148481792679e-05 -9.6881867157224065e-06 0.99999999943904683
    outer loop
      vertex -0.40090079767507625 -0.67817207589490414 0
      vertex -1.0415259654889621 -0.53409831956997278 -1.91446464354178e-05
      vertex -0.54023230376061837 -1.0278744311251891 -7.855388484617927e-06
    endloop
  endfacet
  facet normal -6.5368783645285485e-06 -1.9858589086997321e-05 0.99999999978145282
    outer loop
      vertex -0.40090079767507625 -0.67817207589490414 0
      vertex -0.54023230376061837 -1.0278744311251891 -7.855388484617927e-06
      vertex 0.046101579067138458 -1.1596278949348942 -6.6390331098908212e-06
    endloop
  endfacet
  facet normal 2.6329546751185177e-05 -2.1582854421511019e-05 0.99999999942046769
    outer loop
      vertex 0.046101579067138458 -1.1596278949348942 -6.6390331098908212e-06
      vertex 0.70569028896858066 -0.933818228656071 -1.9132087736769068e-05
      vertex 0.12681982923742038 -0.42521767975134955 7.0863607165082103e-06
    endloop
  endfacet
  facet normal -5.3114980894233995e-05 6.0006463086851907e-05 0.99999999678901152
    outer loop
      vertex -0.39152399283741246 0.68918012792956551 -0
      vertex -0.092140771821455358 1.1618437636720962 -1.2461138986377164e-05
      vertex -0.86388218063428701 0.80694648184874718 -3.2156038592643169e-05
    endloop
  endfacet
  facet normal -5.9261852465976234e-05 3.5351500163003341e-05 0.99999999761915226
    outer loop
      vertex -0.39152399283741246 0.68918012792956551 -0
      vertex -0.86388218063428701 0.80694648184874718 -3.2156038592643169e-05
      vertex -1.1361361905699252 0.083777141585944404 -2.2725194490086495e-05
    endloop
  endfacet
  facet normal -2.9600394839403724e-05 1.2624680601436426e-06 0.99999999956111141
    outer loop
      vertex -1.1361361905699252 0.083777141585944404 -2.2725194490086495e-05
      vertex -1.0415259654889621 -0.53409831956997278 -1.91446464354178e-05
      vertex -0.40090079767507625 -0.67817207589490414 0
    endloop
  endfacet
  facet normal 1.3417328351403595e-05 -3.6279067024717281e-05 0.99999999925190231
    outer loop
      vertex 0.12681982923742038 -0.42521767975134955 7.0863607165082103e-06
      vertex 0.70569028896858066 -0.933818228656071 -1.9132087736769068e-05
      vertex 1.0813459264956791 -0.408916137824887 -5.1294246273718772e-06
    endloop
  endfacet
  facet normal 0.00010768518443339221 0.00012380776036502179 -0.99999998653776967
    outer loop
      vertex -0.17537926140509932 0.078305396185137918 -0.18004805860245665
      vertex -0.38175103592673715 0.6459740480018854 -0.18000000000000002
      vertex 0.18679894113136586 0.05025034734020889 -0.1800125308082049
    endloop
  endfacet
  facet normal 6.9272480531161625e-05 -8.3613925210282601e-05 -0.9999999941050175
    outer loop
      vertex -0.0054171454762871668 -0.17147577911227688 -0.18001539972038716
      vertex -0.36298653677638493 -0.65189143825920792 -0.17999999999999999
      vertex -0.17537926140509932 0.078305396185137918 -0.18004805860245665
    endloop
  endfacet
  facet normal -2.6324890538225583e-07 2.0783356494462887e-05 -0.99999999978399146
    outer loop
      vertex 0.18679894113136586 0.05025034734020889 -0.1800125308082049
      vertex -0.38175103592673715 0.6459740480018854 -0.18000000000000002
      vertex 0.36768052278919244 0.65546659736539614 -0.18000000000000005
    endloop
  endfacet
  facet normal 0.00036695031620274601 -0.00030517306637255632 -0.99999988610842605
    outer loop
      vertex -0.0054171454762871668 -0.17147577911227688 -0.18001539972038716
      vertex 0.18679894113136586 0.05025034734020889 -0.1800125308082049
      vertex -0.36298653677638493 -0.65189143825920792 -0.17999999999999999
    endloop
  endfacet
  facet normal -2.3460620128457747e-07 -1.7662850117753229e-05 -0.99999999984398436
    outer loop
      vertex -0.36298653677638493 -0.65189143825920792 -0.17999999999999999
      vertex 0.18679894113136586 0.05025034734020889 -0.1800125308082049
      vertex 0.37931156178928588 -0.66175098730913517 -0.18000000000000002
    endloop
  endfacet
  facet normal -8.897828416528626e-05 5.2312199570136773e-05 -0.99999999467314937
    outer loop
      vertex -0.38175103592673715 0.6459740480018854 -0.18000000000000002
      vertex -0.17537926140509932 0.078305396185137918 -0.18004805860245665
      vertex -0.76140558360486132 0.00021626099466005069 -0.17999999999999997
    endloop
  endfacet
  facet normal 2.263502955184011e-05 1.3939725269868209e-05 -0.99999999964666975
    outer loop
      vertex 0.18679894113136586 0.05025034734020889 -0.1800125308082049
      vertex 0.36768052278919244 0.65546659736539614 -0.18000000000000005
      vertex 0.7888572568451746 -0.028431229688678186 -0.17999999999999994
    endloop
  endfacet
  facet normal -7.583372492173339e-05 -4.6332224623803854e-05 -0.99999999605128553
    outer loop
      vertex -0.17537926140509932 0.078305396185137918 -0.18004805860245665
      vertex -0.36298653677638493 -0.65189143825920792 -0.17999999999999999
      vertex -0.76140558360486132 0.00021626099466005069 -0.17999999999999997
    endloop
  endfacet
  facet normal 1.9191393773199838e-05 -1.2410401866166629e-05 -0.99999999973883624
    outer loop
      vertex 0.18679894113136586 0.05025034734020889 -0.1800125308082049
      vertex 0.7888572568451746 -0.028431229688678186 -0.17999999999999994
      vertex 0.37931156178928588 -0.66175098730913517 -0.18000000000000002
    endloop
  endfacet
  facet normal 2.6204426550404768e-05 1.6137929315756809e-05 -0.99999999952644769
    outer loop
      vertex 0.7888572568451746 -0.028431229688678186 -0.17999999999999994
      vertex 0.36768052278919244 0.65546659736539614 -0.18000000000000005
      vertex 1.0532458937023705 0.49859837441686217 -0.17998456668087898
    endloop
  endfacet
  facet normal 4.1321166037354682e-05 8.2203018704702797e-05 -0.99999999576761245
    outer loop
      vertex 0.36768052278919244 0.65546659736539614 -0.18000000000000005
      vertex 0.44374560746853914 1.0953207340405364 -0.17996069956401559
      vertex 1.0532458937023705 0.49859837441686217 -0.17998456668087898
    endloop
  endfacet
  facet normal 4.5777927043757839e-05 8.143229977715151e-05 -0.99999999563658093
    outer loop
      vertex 0.36768052278919244 0.65546659736539614 -0.18000000000000005
      vertex -0.30085093627005122 1.1175647998782638 -0.17999297426497515
      vertex 0.44374560746853914 1.0953207340405364 -0.17996069956401559
    endloop
  endfacet
  facet normal -1.891132976542118e-07 1.4930390981367859e-05 -0.99999999988852373
    outer loop
      vertex 0.36768052278919244 0.65546659736539614 -0.18000000000000005
      vertex -0.38175103592673715 0.6459740480018854 -0.18000000000000002
      vertex -0.30085093627005122 1.1175647998782638 -0.17999297426497515
    endloop
  endfacet
  facet normal -6.0237330205711339e-05 -3.6803276071550833e-05 -0.99999999750849144
    outer loop
      vertex -0.76140558360486132 0.00021626099466005069 -0.17999999999999997
      vertex -0.36298653677638493 -0.65189143825920792 -0.17999999999999999
      vertex -0.89512800452554131 -0.76240239627141704 -0.17996387805330438
    endloop
  endfacet
  facet normal 1.098591669644572e-05 -7.1042073692654962e-06 -0.9999999999144199
    outer loop
      vertex 0.37931156178928588 -0.66175098730913517 -0.18000000000000002
      vertex 0.7888572568451746 -0.028431229688678186 -0.17999999999999994
      vertex 0.85308122750633253 -0.77818902916782329 -0.1799939680059236
    endloop
  endfacet
  facet normal -5.9853644090319827e-05 3.5189212784031109e-05 -0.99999999758963021
    outer loop
      vertex -0.38175103592673715 0.6459740480018854 -0.18000000000000002
      vertex -0.76140558360486132 0.00021626099466005069 -0.17999999999999997
      vertex -0.90658317648923137 0.74876975726470707 -0.17996496958368066
    endloop
  endfacet
  facet normal -4.0159170400219955e-05 3.9008841343961734e-05 -0.99999999843277565
    outer loop
      vertex -0.76140558360486132 0.00021626099466005069 -0.17999999999999997
      vertex -1.1652653824764245 -0.0087324882419082331 -0.17998413040583361
      vertex -0.90658317648923137 0.74876975726470707 -0.17996496958368066
    endloop
  endfacet
  facet normal -3.8394454131277443e-05 -4.0633345365382115e-05 -0.99999999843739862
    outer loop
      vertex -1.1652653824764245 -0.0087324882419082331 -0.17998413040583361
      vertex -0.76140558360486132 0.00021626099466005069 -0.17999999999999997
      vertex -0.89512800452554131 -0.76240239627141704 -0.17996387805330438
    endloop
  endfacet
  facet normal 1.0043371399932417e-05 -2.0356144818816108e-05 -0.99999999974237896
    outer loop
      vertex -0.36298653677638493 -0.65189143825920792 -0.17999999999999999
      vertex 0.40514179711882126 -1.0926880879863643 -0.17998331248141808
      vertex -0.24662744624881641 -1.1345899599234808 -0.17998900548142441
    endloop
  endfacet
  facet normal -5.1475725974922287e-07 -3.8754646198528425e-05 -0.99999999924890637
    outer loop
      vertex -0.36298653677638493 -0.65189143825920792 -0.17999999999999999
      vertex 0.37931156178928588 -0.66175098730913517 -0.18000000000000002
      vertex 0.40514179711882126 -1.0926880879863643 -0.17998331248141808
    endloop
  endfacet
  facet normal 3.2628596502901834e-06 -3.8528217019981441e-05 -0.99999999925246508
    outer loop
      vertex 0.40514179711882126 -1.0926880879863643 -0.17998331248141808
      vertex 0.37931156178928588 -0.66175098730913517 -0.18000000000000002
      vertex 0.85308122750633253 -0.77818902916782329 -0.1799939680059236
    endloop
  endfacet
  facet normal 6.7543848742076512e-05 -2.2594761985641963e-06 -0.99999999771636172
    outer loop
      vertex 0.7888572568451746 -0.028431229688678186 -0.17999999999999994
      vertex 1.1440212858834888 -0.24649179719495251 -0.17997551815182591
      vertex 0.85308122750633253 -0.77818902916782329 -0.1799939680059236
    endloop
  endfacet
  facet normal 6.6445064576529377e-05 -4.049110231924945e-06 -0.99999999778432902
    outer loop
      vertex 0.7888572568451746 -0.028431229688678186 -0.17999999999999994
      vertex 1.0532458937023705 0.49859837441686217 -0.17998456668087898
      vertex 1.1440212858834888 -0.24649179719495251 -0.17997551815182591
    endloop
  endfacet
  facet normal -6.1753072893449242e-05 2.5491519315305057e-05 -0.99999999776837012
    outer loop
      vertex -0.30085093627005122 1.1175647998782638 -0.17999297426497515
      vertex -0.38175103592673715 0.6459740480018854 -0.18000000000000002
      vertex -0.90658317648923137 0.74876975726470707 -0.17996496958368066
    endloop
  endfacet
  facet normal -6.0139492022052944e-05 -3.7274394548603067e-05 -0.99999999749693047
    outer loop
      vertex -0.36298653677638493 -0.65189143825920792 -0.17999999999999999
      vertex -0.24662744624881641 -1.1345899599234808 -0.17998900548142441
      vertex -0.89512800452554131 -0.76240239627141704 -0.17996387805330438
    endloop
  endfacet
  facet normal 5.7204310395935566e-06 0.00018205279627432947 0.99999998341202789
    outer loop
      vertex 0.18396122624440453 -0.010615799123735725 0.58003050073045181
      vertex 0.38992936556374247 0.19782132288942958 0.57999137594235561
      vertex 0.036165145912379786 0.15894412676057196 0.58000047732859594
    endloop
  endfacet
  facet normal -5.5089912559455316e-05 -0.00027714729915534838 0.99999996007723724
    outer loop
      vertex -0.18200783839744875 0.051411166792581307 0.58005892411369886
      vertex -0.40707531979259703 -0.18409246338850088 0.57998125596768213
      vertex -0.016360943565274129 -0.16693592209183281 0.58000753527863658
    endloop
  endfacet
  facet normal -3.1907354797374983e-05 -0.00010602410498329719 0.99999999387040495
    outer loop
      vertex 0.052866696158482322 -0.44024897885502356 0.57998076637711138
      vertex 0.18396122624440453 -0.010615799123735725 0.58003050073045181
      vertex -0.016360943565274129 -0.16693592209183281 0.58000753527863658
    endloop
  endfacet
  facet normal 0.00011291129767065844 0.00031443928518227191 0.9999999441894859
    outer loop
      vertex 0.036165145912379786 0.15894412676057196 0.58000047732859594
      vertex -0.28316204916979715 0.34559870203957399 0.57997784144408415
      vertex -0.18200783839744875 0.051411166792581307 0.58005892411369886
    endloop
  endfacet
  facet normal -6.2266395345477943e-05 -0.00011371376564360605 0.9999999915960377
    outer loop
      vertex -0.016360943565274129 -0.16693592209183281 0.58000753527863658
      vertex -0.40707531979259703 -0.18409246338850088 0.57998125596768213
      vertex 0.052866696158482322 -0.44024897885502356 0.57998076637711138
    endloop
  endfacet
  facet normal 0.00018425816701386492 5.6298782378357723e-06 0.99999998300861603
    outer loop
      vertex 0.18396122624440453 -0.010615799123735725 0.58003050073045181
      vertex 0.38788105228859732 -0.18492289364320086 0.5799939081641835
      vertex 0.38992936556374247 0.19782132288942958 0.57999137594235561
    endloop
  endfacet
  facet normal 2.3604699019113856e-05 1.9314363746932187e-05 0.99999999953488672
    outer loop
      vertex 0.38992936556374247 0.19782132288942958 0.57999137594235561
      vertex 0.11293647995398273 0.41059905508102007 0.5799938046095352
      vertex 0.036165145912379786 0.15894412676057196 0.58000047732859594
    endloop
  endfacet
  facet normal -0.00046587012485367228 0.00011542955225872563 0.99999988482051605
    outer loop
      vertex -0.18200783839744875 0.051411166792581307 0.58005892411369886
      vertex -0.28316204916979715 0.34559870203957399 0.57997784144408415
      vertex -0.40707531979259703 -0.18409246338850088 0.57998125596768213
    endloop
  endfacet
  facet normal 6.3844274857106714e-05 -0.00013524092350516664 0.99999998881690055
    outer loop
      vertex 0.18396122624440453 -0.010615799123735725 0.58003050073045181
      vertex 0.052866696158482322 -0.44024897885502356 0.57998076637711138
      vertex 0.38788105228859732 -0.18492289364320086 0.5799939081641835
    endloop
  endfacet
  facet normal -4.700537687194007e-05 4.0855089173121233e-05 0.99999999806067807
    outer loop
      vertex 0.036165145912379786 0.15894412676057196 0.58000047732859594
      vertex 0.11293647995398273 0.41059905508102007 0.5799938046095352
      vertex -0.28316204916979715 0.34559870203957399 0.57997784144408415
    endloop
  endfacet
  facet normal 0.97965234490180364 0.11935047479564885 -0.16135906325475122
    outer loop
      vertex 1.1440212858834888 -0.24649179719495251 -0.17997551815182591
      vertex 1.0532458937023705 0.49859837441686217 -0.17998456668087898
      vertex 1.1404603728339073 0.026024718803737752 -2.5795034982155091e-05
    endloop
  endfacet
  facet normal 0.98124762014747713 0.19099046581585361 0.025995190369681509
    outer loop
      vertex 1.0532458937023705 0.49859837441686217 -0.17998456668087898
      vertex 1.0510749764479423 0.48525553712795 -6.577213415841221e-06
      vertex 1.1404603728339073 0.026024718803737752 -2.5795034982155091e-05
    endloop
  endfacet
  facet normal 0.76732048550652088 0.63876013695434464 0.056610599361814361
    outer loop
      vertex 1.0532458937023705 0.49859837441686217 -0.17998456668087898
      vertex 0.63971980876646162 0.97940279429883148 -1.2277296431547485e-05
      vertex 1.0510749764479423 0.48525553712795 -6.577213415841221e-06
    endloop
  endfacet
  facet normal 0.6697771570822475 0.68413099233568264 -0.28872711195282075
    outer loop
      vertex 1.0532458937023705 0.49859837441686217 -0.17998456668087898
      vertex 0.44374560746853914 1.0953207340405364 -0.17996069956401559
      vertex 0.63971980876646162 0.97940279429883148 -1.2277296431547485e-05
    endloop
  endfacet
  facet normal 0.22746534393490181 0.91247586420400773 0.340069573107807
    outer loop
      vertex 0.44374560746853914 1.0953207340405364 -0.17996069956401559
      vertex -0.092140771821455358 1.1618437636720962 -1.2461138986377164e-05
      vertex 0.63971980876646162 0.97940279429883148 -1.2277296431547485e-05
    endloop
  endfacet
  facet normal 0.028762315025040765 0.96239610025796096 -0.27012307462093854
    outer loop
      vertex 0.44374560746853914 1.0953207340405364 -0.17996069956401559
      vertex -0.30085093627005122 1.1175647998782638 -0.17999297426497515
      vertex -0.092140771821455358 1.1618437636720962 -1.2461138986377164e-05
    endloop
  endfacet
  facet normal -0.40426899736474292 0.87908859282110219 0.2525268772656088
    outer loop
      vertex -0.30085093627005122 1.1175647998782638 -0.17999297426497515
      vertex -0.86388218063428701 0.80694648184874718 -3.2156038592643169e-05
      vertex -0.092140771821455358 1.1618437636720962 -1.2461138986377164e-05
    endloop
  endfacet
  facet normal -0.51408030118568959 0.84434644679735349 -0.15099841626160992
    outer loop
      vertex -0.30085093627005122 1.1175647998782638 -0.17999297426497515
      vertex -0.90658317648923137 0.74876975726470707 -0.17996496958368066
      vertex -0.86388218063428701 0.80694648184874718 -3.2156038592643169e-05
    endloop
  endfacet
  facet normal -0.94626168655724108 0.32314268379820743 -0.012947063819162517
    outer loop
      vertex -0.90658317648923137 0.74876975726470707 -0.17996496958368066
      vertex -1.1652653824764245 -0.0087324882419082331 -0.17998413040583361
      vertex -1.1361361905699252 0.083777141585944404 -2.2725194490086495e-05
    endloop
  endfacet
  facet normal -0.93044593909749185 0.35028953546185959 0.10755275804413801
    outer loop
      vertex -0.90658317648923137 0.74876975726470707 -0.17996496958368066
      vertex -1.1361361905699252 0.083777141585944404 -2.2725194490086495e-05
      vertex -0.86388218063428701 0.80694648184874718 -3.2156038592643169e-05
    endloop
  endfacet
  facet normal -0.96166185708162211 -0.1472500885729516 0.23135229423885945
    outer loop
      vertex -1.1652653824764245 -0.0087324882419082331 -0.17998413040583361
      vertex -1.0415259654889621 -0.53409831956997278 -1.91446464354178e-05
      vertex -1.1361361905699252 0.083777141585944404 -2.2725194490086495e-05
    endloop
  endfacet
  facet normal -0.89185565369129571 -0.31967579707320515 -0.32000137147281499
    outer loop
      vertex -1.1652653824764245 -0.0087324882419082331 -0.17998413040583361
      vertex -0.89512800452554131 -0.76240239627141704 -0.17996387805330438
      vertex -1.0415259654889621 -0.53409831956997278 -1.91446464354178e-05
    endloop
  endfacet
  facet normal -0.66581104495678889 -0.67594053768320739 0.31591144634230262
    outer loop
      vertex -0.89512800452554131 -0.76240239627141704 -0.17996387805330438
      vertex -0.54023230376061837 -1.0278744311251891 -7.855388484617927e-06
      vertex -1.0415259654889621 -0.53409831956997278 -1.91446464354178e-05
    endloop
  endfacet
  facet normal -0.47707353866368657 -0.83123488040203652 -0.28539343424458802
    outer loop
      vertex -0.89512800452554131 -0.76240239627141704 -0.17996387805330438
      vertex -0.24662744624881641 -1.1345899599234808 -0.17998900548142441
      vertex -0.54023230376061837 -1.0278744311251891 -7.855388484617927e-06
    endloop
  endfacet
  facet normal -0.21408194113702911 -0.95271296744647604 0.21565464089217154
    outer loop
      vertex -0.24662744624881641 -1.1345899599234808 -0.17998900548142441
      vertex 0.046101579067138458 -1.1596278949348942 -6.6390331098908212e-06
      vertex -0.54023230376061837 -1.0278744311251891 -7.855388484617927e-06
    endloop
  endfacet
  facet normal 0.062342262423221349 -0.96968040154940571 -0.23629084020955529
    outer loop
      vertex -0.24662744624881641 -1.1345899599234808 -0.17998900548142441
      vertex 0.40514179711882126 -1.0926880879863643 -0.17998331248141808
      vertex 0.046101579067138458 -1.1596278949348942 -6.6390331098908212e-06
    endloop
  endfacet
  facet normal 0.31072499160456263 -0.90761025835527909 0.28230054644050523
    outer loop
      vertex 0.40514179711882126 -1.0926880879863643 -0.17998331248141808
      vertex 0.70569028896858066 -0.933818228656071 -1.9132087736769068e-05
      vertex 0.046101579067138458 -1.1596278949348942 -6.6390331098908212e-06
    endloop
  endfacet
  facet normal 0.55910734221681313 -0.79634159781140545 -0.23073586516714095
    outer loop
      vertex 0.40514179711882126 -1.0926880879863643 -0.17998331248141808
      vertex 0.85308122750633253 -0.77818902916782329 -0.1799939680059236
      vertex 0.70569028896858066 -0.933818228656071 -1.9132087736769068e-05
    endloop
  endfacet
  facet normal 0.87018799312087702 -0.47615483577709999 -0.12668634099358722
    outer loop
      vertex 0.85308122750633253 -0.77818902916782329 -0.1799939680059236
      vertex 1.1440212858834888 -0.24649179719495251 -0.17997551815182591
      vertex 1.0813459264956791 -0.408916137824887 -5.1294246273718772e-06
    endloop
  endfacet
  facet normal 0.80264355209083305 -0.57443060216738895 0.16060140591109787
    outer loop
      vertex 0.85308122750633253 -0.77818902916782329 -0.1799939680059236
      vertex 1.0813459264956791 -0.408916137824887 -5.1294246273718772e-06
      vertex 0.70569028896858066 -0.933818228656071 -1.9132087736769068e-05
    endloop
  endfacet
  facet normal 0.9670233886758649 -0.13142141723055456 0.21816089669544339
    outer loop
      vertex 1.1440212858834888 -0.24649179719495251 -0.17997551815182591
      vertex 1.1404603728339073 0.026024718803737752 -2.5795034982155091e-05
      vertex 1.0813459264956791 -0.408916137824887 -5.1294246273718772e-06
    endloop
  endfacet
  facet normal -0.9952842561831251 -0.095088199705507498 -0.019169863608510807
    outer loop
      vertex 0.41999999999999998 0 0
      vertex 0.4299123299567868 -0.10375071885453513 -6.096759719452418e-06
      vertex 0.38992936556374247 0.19782132288942958 0.57999137594235561
    endloop
  endfacet
  facet normal 0.9397264547780404 0.32556750794031059 -0.10449874623090728
    outer loop
      vertex 0.4299123299567868 -0.10375071885453513 -6.096759719452418e-06
      vertex 0.27116224965443247 0.35447288482817851 4.109794784015481e-06
      vertex 0.38992936556374247 0.19782132288942958 0.57999137594235561
    endloop
  endfacet
  facet normal 0.60676034045816551 0.78987626887162943 0.08909191388967011
    outer loop
      vertex 0.27116224965443247 0.35447288482817851 4.109794784015481e-06
      vertex 0.11293647995398273 0.41059905508102007 0.5799938046095352
      vertex 0.38992936556374247 0.19782132288942958 0.57999137594235561
    endloop
  endfacet
  facet normal 0.21070898713936148 0.97684656863286179 -0.037047322290661405
    outer loop
      vertex 0.27116224965443247 0.35447288482817851 4.109794784015481e-06
      vertex -0.038332164775787658 0.42123163743719755 -1.1855285750980836e-06
      vertex 0.11293647995398273 0.41059905508102007 0.5799938046095352
    endloop
  endfacet
  facet normal -0.16164406679043075 0.98501027865396573 0.060215833611166426
    outer loop
      vertex -0.038332164775787658 0.42123163743719755 -1.1855285750980836e-06
      vertex -0.28316204916979715 0.34559870203957399 0.57997784144408415
      vertex 0.11293647995398273 0.41059905508102007 0.5799938046095352
    endloop
  endfacet
  facet normal -0.43918831568422917 0.89577343955551925 -0.068582565957570452
    outer loop
      vertex -0.038332164775787658 0.42123163743719755 -1.1855285750980836e-06
      vertex -0.35473637664796343 0.26610090380996393 -1.5153429715643232e-05
      vertex -0.28316204916979715 0.34559870203957399 0.57997784144408415
    endloop
  endfacet
  facet normal -0.96988285486634729 0.22689005783632993 0.088589782093257297
    outer loop
      vertex -0.35473637664796343 0.26610090380996393 -1.5153429715643232e-05
      vertex -0.40707531979259703 -0.18409246338850088 0.57998125596768213
      vertex -0.28316204916979715 0.34559870203957399 0.57997784144408415
    endloop
  endfacet
  facet normal -0.99685723375337432 0.015913889367522211 -0.077604147046203872
    outer loop
      vertex -0.35473637664796343 0.26610090380996393 -1.5153429715643232e-05
      vertex -0.36314153716162195 -0.26040632751098725 -1.5575720850298166e-05
      vertex -0.40707531979259703 -0.18409246338850088 0.57998125596768213
    endloop
  endfacet
  facet normal -0.485084664887037 -0.87099426843487282 0.077857897769150308
    outer loop
      vertex -0.36314153716162195 -0.26040632751098725 -1.5575720850298166e-05
      vertex 0.052866696158482322 -0.44024897885502356 0.57998076637711138
      vertex -0.40707531979259703 -0.18409246338850088 0.57998125596768213
    endloop
  endfacet
  facet normal -0.31814368324082726 -0.94580613817355375 -0.065079534472741868
    outer loop
      vertex -0.36314153716162195 -0.26040632751098725 -1.5575720850298166e-05
      vertex 0.12681982923742038 -0.42521767975134955 7.0863607165082103e-06
      vertex 0.052866696158482322 -0.44024897885502356 0.57998076637711138
    endloop
  endfacet
  facet normal 0.72691354940214381 -0.68536628127161103 -0.043240631256954661
    outer loop
      vertex 0.12681982923742038 -0.42521767975134955 7.0863607165082103e-06
      vertex 0.4299123299567868 -0.10375071885453513 -6.096759719452418e-06
      vertex 0.38788105228859732 -0.18492289364320086 0.5799939081641835
    endloop
  endfacet
  facet normal 0.60518624638172547 -0.79407015608596088 0.056587935145356587
    outer loop
      vertex 0.12681982923742038 -0.42521767975134955 7.0863607165082103e-06
      vertex 0.38788105228859732 -0.18492289364320086 0.5799939081641835
      vertex 0.052866696158482322 -0.44024897885502356 0.57998076637711138
    endloop
  endfacet
  facet normal 0.99742387740416716 -0.0053373907186490188 0.07153405513706966
    outer loop
      vertex 0.4299123299567868 -0.10375071885453513 -6.096759719452418e-06
      vertex 0.38992936556374247 0.19782132288942958 0.57999137594235561
      vertex 0.38788105228859732 -0.18492289364320086 0.5799939081641835
    endloop
  endfacet
  facet normal -0.75266818989674544 -0.65606934815569506 -0.055349853912346265
    outer loop
      vertex 0.18679894113136586 0.05025034734020889 -0.1800125308082049
      vertex 0.18396122624440453 -0.010615799123735725 0.58003050073045181
      vertex 0.036165145912379786 0.15894412676057196 0.58000047732859594
    endloop
  endfacet
  facet normal -0.076624889121183259 -0.98903334706988577 0.12626030552356968
    outer loop
      vertex 0.18679894113136586 0.05025034734020889 -0.1800125308082049
      vertex 0.036165145912379786 0.15894412676057196 0.58000047732859594
      vertex -0.17537926140509932 0.078305396185137918 -0.18004805860245665
    endloop
  endfacet
  facet normal 0.44191896498316419 -0.89662191379268541 -0.027870631405677075
    outer loop
      vertex -0.17537926140509932 0.078305396185137918 -0.18004805860245665
      vertex 0.036165145912379786 0.15894412676057196 0.58000047732859594
      vertex -0.18200783839744875 0.051411166792581307 0.58005892411369886
    endloop
  endfacet
  facet normal 0.82645036020110685 0.56235677875358181 0.027104529388199891
    outer loop
      vertex -0.17537926140509932 0.078305396185137918 -0.18004805860245665
      vertex -0.18200783839744875 0.051411166792581307 0.58005892411369886
      vertex -0.0054171454762871668 -0.17147577911227688 -0.18001539972038716
    endloop
  endfacet
  facet normal 0.79666003245398787 0.60437653329141794 0.0078612147317570404
    outer loop
      vertex -0.0054171454762871668 -0.17147577911227688 -0.18001539972038716
      vertex -0.18200783839744875 0.051411166792581307 0.58005892411369886
      vertex -0.016360943565274129 -0.16693592209183281 0.58000753527863658
    endloop
  endfacet
  facet normal -0.61514262062501124 0.7882991244145201 -0.013566382638501361
    outer loop
      vertex -0.0054171454762871668 -0.17147577911227688 -0.18001539972038716
      vertex -0.016360943565274129 -0.16693592209183281 0.58000753527863658
      vertex 0.18396122624440453 -0.010615799123735725 0.58003050073045181
    endloop
  endfacet
  facet normal -0.75467018745976111 0.65422875602723862 0.049574619983423079
    outer loop
      vertex -0.0054171454762871668 -0.17147577911227688 -0.18001539972038716
      vertex 0.18396122624440453 -0.010615799123735725 0.58003050073045181
      vertex 0.18679894113136586 0.05025034734020889 -0.1800125308082049
    endloop
  endfacet
  facet normal -0.90851085098766127 -0.01233094068282703 -0.41767928071614013
    outer loop
      vertex -0.32835409476818034 0.5790623021675998 -0.083076923076923076
      vertex -0.35167003924778611 0.78940843021190277 -0.038571428571428569
      vertex -0.28530025942447795 0.68999337408015882 -0.18000000000000002
    endloop
  endfacet
  facet normal -0.76253704603577221 -0.031706029787789185 -0.64616714640883288
    outer loop
      vertex 0.48794862554471041 -0.61449311202899681 -0.18000000000000002
      vertex 0.43934769258029771 -0.77958994167371654 -0.11454545454545455
      vertex 0.37338634905526036 -0.56226925996167032 -0.047368421052631574
    endloop
  endfacet
endsolid line_f_100_w_1e_03
