solid line_f_200_w_1e_03
  facet normal -9.5353401819852263e-06 2.4447819992329877e-06 0.9999999999515502
    outer loop
      vertex 0.3700091599762737 -0.21089758985098683 -2.5940616200029532e-06
      vertex 0.70870771814261935 0.049061928660739995 -0
      vertex 0.42447224749970364 0.022963631114853621 -2.6464772564442879e-06
    endloop
  endfacet
  facet normal 7.9200036580265053e-06 1.5147780736647954e-05 -0.99999999985390919
    outer loop
      vertex 0.42447224749970364 0.022963631114853621 -2.6464772564442879e-06
      vertex 0.70870771814261935 0.049061928660739995 -0
      vertex 0.82241788875474142 -0.010391332702093472 -0
    endloop
  endfacet
  facet normal -6.2435524104279759e-06 4.8533342615136792e-06 0.99999999996873146
    outer loop
      vertex 0.42447224749970364 0.022963631114853621 -2.6464772564442879e-06
      vertex 0.82241788875474142 -0.010391332702093472 -0
      vertex 0.3372800812519377 0.26299462712645788 -4.3558167730127847e-06
    endloop
  endfacet
  facet normal 4.4211332946141114e-06 -1.0673051424123861e-05 0.99999999993326982
    outer loop
      vertex 0.3372800812519377 0.26299462712645788 -4.3558167730127847e-06
      vertex 0.37676752985042439 0.6874651807115727 -0
      vertex 0.14299323169253017 0.39803591417074335 -2.0555461125629775e-06
    endloop
  endfacet
  facet normal 3.5253286751807423e-06 -9.9495029776420623e-06 0.99999999994428979
    outer loop
      vertex 0.14299323169253017 0.39803591417074335 -2.0555461125629775e-06
      vertex 0.37676752985042439 0.6874651807115727 -0
      vertex -0.038332164775787658 0.42123163743719755 -1.1855285750980836e-06
    endloop
  endfacet
  facet normal -9.9052428571922449e-09 -4.4375208971457313e-06 0.9999999999901541
    outer loop
      vertex -0.038332164775787658 0.42123163743719755 -1.1855285750980836e-06
      vertex 0.37676752985042439 0.6874651807115727 -0
      vertex -0.39152399283741246 0.68918012792956551 -0
    endloop
  endfacet
  facet normal -8.5887763509429846e-06 -1.5745616582339252e-05 0.99999999983915433
    outer loop
      vertex -0.038332164775787658 0.42123163743719755 -1.1855285750980836e-06
      vertex -0.39152399283741246 0.68918012792956551 -0
      vertex -0.29491599842625182 0.31579478093002578 -5.0494380544200204e-06
    endloop
  endfacet
  facet normal 1.2362167642518288e-06 1.7452126459130428e-05 0.99999999984694754
    outer loop
      vertex -0.29491599842625182 0.31579478093002578 -5.0494380544200204e-06
      vertex -0.75515871913375587 0.059065132701992706 -0
      vertex -0.4121217249561806 0.09007708963775754 -9.6529267729669055e-07
    endloop
  endfacet
  facet normal 3.3334649300788532e-06 -5.7464645944255113e-06 0.9999999999779331
    outer loop
      vertex -0.4121217249561806 0.09007708963775754 -9.6529267729669055e-07
      vertex -0.75515871913375587 0.059065132701992706 -0
      vertex -0.41377785067653411 -0.093923575564222941 -2.0171253482452243e-06
    endloop
  endfacet
  facet normal 1.5652997182111995e-05 2.1743489844218426e-05 0.9999999996411022
    outer loop
      vertex -0.41377785067653411 -0.093923575564222941 -2.0171253482452243e-06
      vertex -0.75515871913375587 0.059065132701992706 -0
      vertex -0.33539847141438184 -0.25635426388616528 2.8781247177341821e-07
    endloop
  endfacet
  facet normal 3.5344145506326718e-06 7.7377654404774179e-07 0.99999999999345468
    outer loop
      vertex -0.21049815527784096 -0.36689485623600387 -9.1382088104213256e-07
      vertex -0.40090079767507625 -0.67817207589490414 0
      vertex -0.016160046887895331 -0.42401020744113777 -1.5564978000146108e-06
    endloop
  endfacet
  facet normal 1.546160051920905e-06 8.3869893374429026e-06 0.99999999996363398
    outer loop
      vertex -0.016160046887895331 -0.42401020744113777 -1.5564978000146108e-06
      vertex 0.39600620799981895 -0.68557877629830255 -0
      vertex 0.19788898031801863 -0.37532563775566086 -2.295768821909901e-06
    endloop
  endfacet
  facet normal -3.3141769279167309e-06 5.2833414822461556e-06 0.99999999998055134
    outer loop
      vertex 0.19788898031801863 -0.37532563775566086 -2.295768821909901e-06
      vertex 0.39600620799981895 -0.68557877629830255 -0
      vertex 0.3700091599762737 -0.21089758985098683 -2.5940616200029532e-06
    endloop
  endfacet
  facet normal -1.9015381842124813e-06 -7.501219381379559e-06 0.99999999997005795
    outer loop
      vertex 0.3700091599762737 -0.21089758985098683 -2.5940616200029532e-06
      vertex 1.0112473583678023 -0.54215519892372588 -3.8595586980296175e-06
      vertex 0.70870771814261935 0.049061928660739995 -0
    endloop
  endfacet
  facet normal -6.5192749843462928e-06 4.3640500090543013e-06 0.99999999996922717
    outer loop
      vertex 0.82241788875474142 -0.010391332702093472 -0
      vertex 0.82048273824011753 0.80721426637207438 -3.5806875004935901e-06
      vertex 0.3372800812519377 0.26299462712645788 -4.3558167730127847e-06
    endloop
  endfacet
  facet normal 1.1118353241190384e-05 -1.1296077275747966e-05 0.99999999987439048
    outer loop
      vertex 0.3372800812519377 0.26299462712645788 -4.3558167730127847e-06
      vertex 0.82048273824011753 0.80721426637207438 -3.5806875004935901e-06
      vertex 0.37676752985042439 0.6874651807115727 -0
    endloop
  endfacet
  facet normal 7.9273875634492226e-06 -1.9133255527937494e-06 0.99999999996674782
    outer loop
      vertex -0.33539847141438184 -0.25635426388616528 2.8781247177341821e-07
      vertex -0.40090079767507625 -0.67817207589490414 0
      vertex -0.21049815527784096 -0.36689485623600387 -9.1382088104213256e-07
    endloop
  endfacet
  facet normal 4.8621602802476823e-06 -1.2361153881437955e-06 0.99999999998741562
    outer loop
      vertex -0.016160046887895331 -0.42401020744113777 -1.5564978000146108e-06
      vertex -0.40090079767507625 -0.67817207589490414 0
      vertex 0.1884001070248601 -1.1352146189338237 -3.4302327724760034e-06
    endloop
  endfacet
  facet normal -6.6649080934102214e-06 -4.5515881868739253e-06 0.99999999996743105
    outer loop
      vertex -0.016160046887895331 -0.42401020744113777 -1.5564978000146108e-06
      vertex 0.1884001070248601 -1.1352146189338237 -3.4302327724760034e-06
      vertex 0.39600620799981895 -0.68557877629830255 -0
    endloop
  endfacet
  facet normal 4.9362696926571487e-06 5.735196881429426e-06 0.99999999997137035
    outer loop
      vertex 0.3700091599762737 -0.21089758985098683 -2.5940616200029532e-06
      vertex 0.39600620799981895 -0.68557877629830255 -0
      vertex 1.0112473583678023 -0.54215519892372588 -3.8595586980296175e-06
    endloop
  endfacet
  facet normal -4.6600596708568163e-06 -8.9128193826395673e-06 0.99999999994942279
    outer loop
      vertex 1.0112473583678023 -0.54215519892372588 -3.8595586980296175e-06
      vertex 0.82241788875474142 -0.010391332702093472 -0
      vertex 0.70870771814261935 0.049061928660739995 -0
    endloop
  endfacet
  facet normal 1.6179640174318892e-05 -9.3371512675029932e-06 0.99999999982551846
    outer loop
      vertex -0.29491599842625182 0.31579478093002578 -5.0494380544200204e-06
      vertex -0.39152399283741246 0.68918012792956551 -0
      vertex -0.75515871913375587 0.059065132701992706 -0
    endloop
  endfacet
  facet normal -4.0570619182260113e-07 3.7256155285235085e-07 0.99999999999984834
    outer loop
      vertex -0.75515871913375587 0.059065132701992706 -0
      vertex -0.87460125586228687 -0.071003513262042156 0
      vertex -0.33539847141438184 -0.25635426388616528 2.8781247177341821e-07
    endloop
  endfacet
  facet normal -7.2938530109393161e-07 -5.6905145059714239e-07 0.99999999999957201
    outer loop
      vertex -0.33539847141438184 -0.25635426388616528 2.8781247177341821e-07
      vertex -0.87460125586228687 -0.071003513262042156 0
      vertex -0.40090079767507625 -0.67817207589490414 0
    endloop
  endfacet
  facet normal 4.2568646855832791e-06 -5.7464175195839118e-06 0.99999999997442879
    outer loop
      vertex 1.0112473583678023 -0.54215519892372588 -3.8595586980296175e-06
      vertex 1.1120691051884757 -0.30153629474322102 -2.906046545059042e-06
      vertex 0.82241788875474142 -0.010391332702093472 -0
    endloop
  endfacet
  facet normal 1.9173013780396187e-05 4.4248598240778929e-06 0.99999999980640808
    outer loop
      vertex 0.82241788875474142 -0.010391332702093472 -0
      vertex 1.0510749764479423 0.48525553712795 -6.577213415841221e-06
      vertex 0.82048273824011753 0.80721426637207438 -3.5806875004935901e-06
    endloop
  endfacet
  facet normal -4.0151252665919505e-06 4.9932786623767823e-06 0.99999999997947298
    outer loop
      vertex 0.34777293007121557 1.0969719157406501 -2.161198192332861e-06
      vertex 0.055092655203241414 1.1532573325564675 -3.6173949298076366e-06
      vertex 0.37676752985042439 0.6874651807115727 -0
    endloop
  endfacet
  facet normal 1.7361948613666477e-08 7.7781040706511691e-06 0.99999999996975031
    outer loop
      vertex 0.37676752985042439 0.6874651807115727 -0
      vertex 0.055092655203241414 1.1532573325564675 -3.6173949298076366e-06
      vertex -0.39152399283741246 0.68918012792956551 -0
    endloop
  endfacet
  facet normal -1.6084143339157571e-05 1.4770130551412792e-05 0.99999999976157172
    outer loop
      vertex -0.75515871913375587 0.059065132701992706 -0
      vertex -1.1529537303236566 0.1049954521961806 -7.0765887964646668e-06
      vertex -0.87460125586228687 -0.071003513262042156 0
    endloop
  endfacet
  facet normal -8.1275624598073115e-06 -8.7999136279561399e-06 0.99999999992825217
    outer loop
      vertex -0.40090079767507625 -0.67817207589490414 0
      vertex -0.91742034278308549 -0.70127405726001912 -4.4013403055400552e-06
      vertex -0.62345358358433522 -0.97196364213889619 -4.3941520759659819e-06
    endloop
  endfacet
  facet normal 2.700281720217651e-06 -4.0235954831237063e-06 0.9999999999882595
    outer loop
      vertex -0.40090079767507625 -0.67817207589490414 0
      vertex -0.34656027189147209 -1.0971229924010995 -1.8324237437668603e-06
      vertex 0.1884001070248601 -1.1352146189338237 -3.4302327724760034e-06
    endloop
  endfacet
  facet normal 6.1748587169053026e-06 -1.0479972163451197e-05 0.99999999992602062
    outer loop
      vertex 0.1884001070248601 -1.1352146189338237 -3.4302327724760034e-06
      vertex 0.53001841385496196 -1.0259084625339281 -4.3941520759668493e-06
      vertex 0.39600620799981895 -0.68557877629830255 -0
    endloop
  endfacet
  facet normal 1.4361940235965788e-05 6.6443554625236001e-06 0.99999999987479371
    outer loop
      vertex 0.82241788875474142 -0.010391332702093472 -0
      vertex 1.1538563038007716 0.047517897664688072 -5.1448682205565421e-06
      vertex 1.0510749764479423 0.48525553712795 -6.577213415841221e-06
    endloop
  endfacet
  facet normal 6.5916001089618801e-06 5.4772383502957113e-06 0.99999999996327538
    outer loop
      vertex 0.37676752985042439 0.6874651807115727 -0
      vertex 0.82048273824011753 0.80721426637207438 -3.5806875004935901e-06
      vertex 0.57770543165954813 0.99729698788381538 -3.0215249519557896e-06
    endloop
  endfacet
  facet normal 6.2203778283631741e-06 5.7179903468457205e-06 0.99999999996430566
    outer loop
      vertex 0.37676752985042439 0.6874651807115727 -0
      vertex 0.57770543165954813 0.99729698788381538 -3.0215249519557896e-06
      vertex 0.34777293007121557 1.0969719157406501 -2.161198192332861e-06
    endloop
  endfacet
  facet normal -1.2927882546669192e-05 1.2804527002497857e-05 0.99999999983445698
    outer loop
      vertex -0.39152399283741246 0.68918012792956551 -0
      vertex -0.29637325587815383 1.1138280293951301 -4.2073179699280523e-06
      vertex -0.65820022808051326 0.95235297827738397 -6.8173629169422656e-06
    endloop
  endfacet
  facet normal -1.4336035733470365e-05 1.1377628331078451e-05 0.99999999983251386
    outer loop
      vertex -0.39152399283741246 0.68918012792956551 -0
      vertex -0.65820022808051326 0.95235297827738397 -6.8173629169422656e-06
      vertex -1.0000792152715983 0.5833132052949157 -7.5197549175738676e-06
    endloop
  endfacet
  facet normal -1.3735710667842655e-05 7.9267775358731279e-06 0.99999999987424826
    outer loop
      vertex -0.39152399283741246 0.68918012792956551 -0
      vertex -1.0000792152715983 0.5833132052949157 -7.5197549175738676e-06
      vertex -0.75515871913375587 0.059065132701992706 -0
    endloop
  endfacet
  facet normal -2.4450088764617938e-05 1.5389072612124278e-06 0.99999999969991249
    outer loop
      vertex -0.87460125586228687 -0.071003513262042156 0
      vertex -1.1529537303236566 0.1049954521961806 -7.0765887964646668e-06
      vertex -1.1022410667687574 -0.34453875130052142 -5.1448682205530727e-06
    endloop
  endfacet
  facet normal -1.16651406833674e-05 -9.1009034831579314e-06 0.999999999890549
    outer loop
      vertex -0.87460125586228687 -0.071003513262042156 0
      vertex -1.1022410667687574 -0.34453875130052142 -5.1448682205530727e-06
      vertex -0.40090079767507625 -0.67817207589490414 0
    endloop
  endfacet
  facet normal -8.4192774784294769e-06 -2.2776804830949743e-06 0.99999999996196409
    outer loop
      vertex -0.40090079767507625 -0.67817207589490414 0
      vertex -1.1022410667687574 -0.34453875130052142 -5.1448682205530727e-06
      vertex -0.91742034278308549 -0.70127405726001912 -4.4013403055400552e-06
    endloop
  endfacet
  facet normal -1.1928039070788637e-05 -5.9209791900329409e-06 0.99999999991133193
    outer loop
      vertex -0.40090079767507625 -0.67817207589490414 0
      vertex -0.62345358358433522 -0.97196364213889619 -4.3941520759659819e-06
      vertex -0.34656027189147209 -1.0971229924010995 -1.8324237437668603e-06
    endloop
  endfacet
  facet normal -5.0960369110075807e-07 -4.9103358945940991e-05 0.99999999879430024
    outer loop
      vertex -0.34656027189147209 -1.0971229924010995 -1.8324237437668603e-06
      vertex -0.10245186070687722 -1.1480216035004547 -4.2073179699233546e-06
      vertex 0.1884001070248601 -1.1352146189338237 -3.4302327724760034e-06
    endloop
  endfacet
  facet normal 9.378890444857823e-06 -9.218315079413007e-06 0.99999999991352939
    outer loop
      vertex 0.39600620799981895 -0.68557877629830255 -0
      vertex 0.53001841385496196 -1.0259084625339281 -4.3941520759668493e-06
      vertex 0.84949984459880101 -0.78229938926594023 -5.1448682205565421e-06
    endloop
  endfacet
  facet normal 8.921802635296488e-06 -1.1361461266673532e-05 0.99999999989565935
    outer loop
      vertex 0.39600620799981895 -0.68557877629830255 -0
      vertex 0.84949984459880101 -0.78229938926594023 -5.1448682205565421e-06
      vertex 1.0112473583678023 -0.54215519892372588 -3.8595586980296175e-06
    endloop
  endfacet
  facet normal 1.4709877767607223e-05 4.6529654326439366e-06 0.99999999988098476
    outer loop
      vertex 0.82241788875474142 -0.010391332702093472 -0
      vertex 1.1120691051884757 -0.30153629474322102 -2.906046545059042e-06
      vertex 1.1538563038007716 0.047517897664688072 -5.1448682205565421e-06
    endloop
  endfacet
  facet normal -2.8619123936092107e-06 1.0549047876090201e-05 0.99999999994026367
    outer loop
      vertex 0.055092655203241414 1.1532573325564675 -3.6173949298076366e-06
      vertex -0.29637325587815383 1.1138280293951301 -4.2073179699280523e-06
      vertex -0.39152399283741246 0.68918012792956551 -0
    endloop
  endfacet
  facet normal -1.7053247638538965e-05 6.3768761750526791e-06 0.99999999983426091
    outer loop
      vertex -1.0000792152715983 0.5833132052949157 -7.5197549175738676e-06
      vertex -1.1529537303236566 0.1049954521961806 -7.0765887964646668e-06
      vertex -0.75515871913375587 0.059065132701992706 -0
    endloop
  endfacet
  facet normal -1.331471737104977e-05 -7.3436406348039055e-06 -0.99999999988439459
    outer loop
      vertex -0.072779133568257687 0.14988584021107865 -0.18000137676078198
      vertex -0.42370796200129796 0.59867650822340712 -0.18000000000000002
      vertex 0.093290098631839985 0.13681649521016204 -0.18000349194909998
    endloop
  endfacet
  facet normal 0.00011007794278014449 -0.00012942089053132267 0.99999998556653968
    outer loop
      vertex -0.14964001297585472 0.061068062431560287 -0.18000441094923555
      vertex -0.15499224613666823 -0.058111281208597904 -0.1800192460834209
      vertex -0.072779133568257687 0.14988584021107865 -0.18000137676078198
    endloop
  endfacet
  facet normal -6.9890988104276958e-05 -5.8286224394069268e-05 0.99999999585898303
    outer loop
      vertex -0.15499224613666823 -0.058111281208597904 -0.1800192460834209
      vertex -0.0054171454762871668 -0.17147577911227688 -0.18001539972038716
      vertex -0.072779133568257687 0.14988584021107865 -0.18000137676078198
    endloop
  endfacet
  facet normal 1.3941193356862889e-05 3.4340157477791529e-05 -0.99999999931319838
    outer loop
      vertex -0.0054171454762871668 -0.17147577911227688 -0.18001539972038716
      vertex 0.16813610572816012 -0.034206201632722456 -0.18000826632204195
      vertex 0.6135057581873804 0.025704344711395589 -0.18000000000000002
    endloop
  endfacet
  facet normal -9.3285567557107024e-05 2.4082086297219974e-05 -0.99999999535892803
    outer loop
      vertex -0.0054171454762871668 -0.17147577911227688 -0.18001539972038716
      vertex -0.26397864233894502 -0.53358459144388137 -0.17999999999999999
      vertex -0.072779133568257687 0.14988584021107865 -0.18000137676078198
    endloop
  endfacet
  facet normal -8.4135844079749541e-07 6.6188202735893234e-06 -0.99999999997774158
    outer loop
      vertex 0.093290098631839985 0.13681649521016204 -0.18000349194909998
      vertex -0.42370796200129796 0.59867650822340712 -0.18000000000000002
      vertex 0.29721979836952506 0.69031801401278414 -0.17999999999999999
    endloop
  endfacet
  facet normal 4.9746905740903056e-05 -7.8049342549491144e-05 -0.99999999571677278
    outer loop
      vertex -0.0054171454762871668 -0.17147577911227688 -0.18001539972038716
      vertex 0.6135057581873804 0.025704344711395589 -0.18000000000000002
      vertex -0.26397864233894502 -0.53358459144388137 -0.17999999999999999
    endloop
  endfacet
  facet normal -2.6806202840097035e-05 1.6185194963771159e-05 -0.99999999950973351
    outer loop
      vertex 0.16813610572816012 -0.034206201632722456 -0.18000826632204195
      vertex 0.093290098631839985 0.13681649521016204 -0.18000349194909998
      vertex 0.29721979836952506 0.69031801401278414 -0.17999999999999999
    endloop
  endfacet
  facet normal 1.7950483035607012e-05 4.5354560431933403e-06 -0.99999999982860499
    outer loop
      vertex 0.6135057581873804 0.025704344711395589 -0.18000000000000002
      vertex 0.16813610572816012 -0.034206201632722456 -0.18000826632204195
      vertex 0.46677061748066467 0.60645446749921916 -0.18000000000000002
    endloop
  endfacet
  facet normal 5.1862631850797562e-06 1.0485308667953156e-05 -0.99999999993158051
    outer loop
      vertex 0.16813610572816012 -0.034206201632722456 -0.18000826632204195
      vertex 0.29721979836952506 0.69031801401278414 -0.17999999999999999
      vertex 0.46677061748066467 0.60645446749921916 -0.18000000000000002
    endloop
  endfacet
  facet normal -4.0403927015379834e-17 1.3764334609032528e-17 -1
    outer loop
      vertex -0.26397864233894502 -0.53358459144388137 -0.17999999999999999
      vertex 0.6135057581873804 0.025704344711395589 -0.18000000000000002
      vertex 0.37931156178928588 -0.66175098730913517 -0.18000000000000002
    endloop
  endfacet
  facet normal -2.24995899818097e-06 1.3083723627866625e-06 -0.99999999999661293
    outer loop
      vertex -0.42370796200129796 0.59867650822340712 -0.18000000000000002
      vertex -0.072779133568257687 0.14988584021107865 -0.18000137676078198
      vertex -0.74653334110303471 0.043525782669554473 -0.17999999999999997
    endloop
  endfacet
  facet normal 2.4633245319080934e-16 6.2239551506370743e-17 -1
    outer loop
      vertex 0.6135057581873804 0.025704344711395589 -0.18000000000000002
      vertex 0.46677061748066467 0.60645446749921916 -0.18000000000000002
      vertex 0.83325581386822056 0.047870007753461383 -0.17999999999999997
    endloop
  endfacet
  facet normal -1.4499199553463369e-17 4.1693390727006123e-16 -1
    outer loop
      vertex 0.29721979836952506 0.69031801401278414 -0.17999999999999999
      vertex -0.42370796200129796 0.59867650822340712 -0.18000000000000002
      vertex -0.30184079700864069 0.73605590235937113 -0.17999999999999997
    endloop
  endfacet
  facet normal -1.2296285963693051e-06 -1.6703815490990025e-06 -0.99999999999784894
    outer loop
      vertex -0.072779133568257687 0.14988584021107865 -0.18000137676078198
      vertex -0.26397864233894502 -0.53358459144388137 -0.17999999999999999
      vertex -0.80735287933994992 -0.13358705752285327 -0.17999999999999999
    endloop
  endfacet
  facet normal 1.6626630292142723e-16 -5.66416483909138e-17 -1
    outer loop
      vertex 0.6135057581873804 0.025704344711395589 -0.18000000000000002
      vertex 0.72406481474488493 -0.13978042301007648 -0.17999999999999999
      vertex 0.37931156178928588 -0.66175098730913517 -0.18000000000000002
    endloop
  endfacet
  facet normal -2.1605371943534092e-06 7.4191613882573317e-07 -0.99999999999739075
    outer loop
      vertex -0.74653334110303471 0.043525782669554473 -0.17999999999999997
      vertex -0.072779133568257687 0.14988584021107865 -0.18000137676078198
      vertex -0.80735287933994992 -0.13358705752285327 -0.17999999999999999
    endloop
  endfacet
  facet normal 0 0 -1
    outer loop
      vertex -0.80735287933994992 -0.13358705752285327 -0.17999999999999999
      vertex -0.26397864233894502 -0.53358459144388137 -0.17999999999999999
      vertex -0.38524825704408672 -0.67849248804944262 -0.17999999999999999
    endloop
  endfacet
  facet normal 4.6668850977633831e-06 3.0619260376397349e-06 -0.99999999998442235
    outer loop
      vertex 0.83325581386822056 0.047870007753461383 -0.17999999999999997
      vertex 0.46677061748066467 0.60645446749921916 -0.18000000000000002
      vertex 0.88052834494659371 0.73900753901350547 -0.17999766317252655
    endloop
  endfacet
  facet normal -4.0313148907584717e-06 3.0212918603345359e-05 -0.99999999953546392
    outer loop
      vertex 0.46677061748066467 0.60645446749921916 -0.18000000000000002
      vertex 0.66191881973707645 0.94969525080946937 -0.17999041639800173
      vertex 0.88052834494659371 0.73900753901350547 -0.17999766317252655
    endloop
  endfacet
  facet normal 3.3265328795773116e-06 2.1100771929896795e-05 -0.99999999977184573
    outer loop
      vertex 0.29721979836952506 0.69031801401278414 -0.17999999999999999
      vertex -0.30085093627005122 1.1175647998782638 -0.17999297426497515
      vertex 0.19760622869842728 1.1405825944468833 -0.17999083043759281
    endloop
  endfacet
  facet normal 1.4057446138912871e-06 1.8412004485072828e-05 -0.99999999982951093
    outer loop
      vertex 0.29721979836952506 0.69031801401278414 -0.17999999999999999
      vertex -0.30184079700864069 0.73605590235937113 -0.17999999999999997
      vertex -0.30085093627005122 1.1175647998782638 -0.17999297426497515
    endloop
  endfacet
  facet normal -1.8647574035387346e-05 -1.4445125252898788e-05 -0.9999999997218032
    outer loop
      vertex -0.80735287933994992 -0.13358705752285327 -0.17999999999999999
      vertex -0.38524825704408672 -0.67849248804944262 -0.17999999999999999
      vertex -0.74249270864957184 -0.88812057170226444 -0.17999031015371236
    endloop
  endfacet
  facet normal 1.2555809399132425e-05 -1.0507627284720038e-05 -0.99999999986597077
    outer loop
      vertex -0.38524825704408672 -0.67849248804944262 -0.17999999999999999
      vertex -0.26397864233894502 -0.53358459144388137 -0.17999999999999999
      vertex -0.34278683165030482 -1.1023792160162555 -0.17999501281868685
    endloop
  endfacet
  facet normal 1.0207662808369732e-05 -5.939687408108112e-06 -0.9999999999302619
    outer loop
      vertex 0.72406481474488493 -0.13978042301007648 -0.17999999999999999
      vertex 0.83325581386822056 0.047870007753461383 -0.17999999999999997
      vertex 1.068743967379411 -0.43661528494038676 -0.17999471852514076
    endloop
  endfacet
  facet normal 1.0779064935673517e-05 2.1792535196776444e-05 -0.99999999970444875
    outer loop
      vertex 0.66191881973707645 0.94969525080946937 -0.17999041639800173
      vertex 0.46677061748066467 0.60645446749921916 -0.18000000000000002
      vertex 0.29721979836952506 0.69031801401278414 -0.17999999999999999
    endloop
  endfacet
  facet normal -2.0820640876532009e-05 1.8469672929970057e-05 -0.99999999961268593
    outer loop
      vertex -0.30184079700864069 0.73605590235937113 -0.17999999999999997
      vertex -0.42370796200129796 0.59867650822340712 -0.18000000000000002
      vertex -0.30085093627005122 1.1175647998782638 -0.17999297426497515
    endloop
  endfacet
  facet normal -1.7136795973438355e-05 5.8846779085031152e-06 -0.99999999983585042
    outer loop
      vertex -0.74653334110303471 0.043525782669554473 -0.17999999999999997
      vertex -0.80735287933994992 -0.13358705752285327 -0.17999999999999999
      vertex -1.1437722692595862 -0.15695411056574754 -0.17999437235713334
    endloop
  endfacet
  facet normal 1.0953815852717351e-05 -7.2348210910022202e-06 -0.9999999999138357
    outer loop
      vertex 0.37931156178928588 -0.66175098730913517 -0.18000000000000002
      vertex 0.72406481474488493 -0.13978042301007648 -0.17999999999999999
      vertex 0.85308122750633253 -0.77818902916782329 -0.1799939680059236
    endloop
  endfacet
  facet normal 2.3241338300251907e-05 -1.6390151727405758e-06 -0.99999999972857689
    outer loop
      vertex 1.1000677240087546 0.35052842288351355 -0.17999429499586686
      vertex 0.83325581386822056 0.047870007753461383 -0.17999999999999997
      vertex 0.9702499178213847 0.61888341727980833 -0.17999775197332629
    endloop
  endfacet
  facet normal 3.2403691198337183e-06 3.1594970967457317e-06 -0.99999999998975886
    outer loop
      vertex 0.83325581386822056 0.047870007753461383 -0.17999999999999997
      vertex 0.88052834494659371 0.73900753901350547 -0.17999766317252655
      vertex 0.9702499178213847 0.61888341727980833 -0.17999775197332629
    endloop
  endfacet
  facet normal -1.6532855651567412e-05 7.8080721515424045e-06 -0.99999999983284937
    outer loop
      vertex -0.42370796200129796 0.59867650822340712 -0.18000000000000002
      vertex -1.0045273383402864 0.57541159395788055 -0.17999057905121899
      vertex -0.70552838706716503 0.91418849324509033 -0.17999287716324783
    endloop
  endfacet
  facet normal -1.6606918258043974e-05 9.6570794840635206e-06 -0.99999999981547549
    outer loop
      vertex -0.42370796200129796 0.59867650822340712 -0.18000000000000002
      vertex -0.74653334110303471 0.043525782669554473 -0.17999999999999997
      vertex -1.0045273383402864 0.57541159395788055 -0.17999057905121899
    endloop
  endfacet
  facet normal -3.214287040762183e-06 1.6153245368546105e-05 -0.99999999986437049
    outer loop
      vertex -0.74653334110303471 0.043525782669554473 -0.17999999999999997
      vertex -1.1353012425161511 0.19812604944722798 -0.17999625309232878
      vertex -1.0045273383402864 0.57541159395788055 -0.17999057905121899
    endloop
  endfacet
  facet normal -1.5956230790034843e-05 -1.1112117446556512e-05 -0.99999999981095988
    outer loop
      vertex -1.1437722692595862 -0.15695411056574754 -0.17999437235713334
      vertex -0.80735287933994992 -0.13358705752285327 -0.17999999999999999
      vertex -1.022859959198317 -0.5360123949565514 -0.17999208952168236
    endloop
  endfacet
  facet normal -9.3889437407895676e-06 -7.4671163782875871e-06 -0.99999999992804489
    outer loop
      vertex -0.34278683165030482 -1.1023792160162555 -0.17999501281868685
      vertex -0.26397864233894502 -0.53358459144388137 -0.17999999999999999
      vertex -0.048943772141799416 -1.1498531198857196 -0.17999741720147625
    endloop
  endfacet
  facet normal 3.7569205811429741e-06 -2.8801236998095482e-06 -0.99999999998879507
    outer loop
      vertex -0.26397864233894502 -0.53358459144388137 -0.17999999999999999
      vertex 0.20316065283803461 -1.1343270869124582 -0.17999651478206896
      vertex -0.048943772141799416 -1.1498531198857196 -0.17999741720147625
    endloop
  endfacet
  facet normal -1.367773727024069e-06 -6.8651024637989772e-06 -0.99999999997549971
    outer loop
      vertex -0.26397864233894502 -0.53358459144388137 -0.17999999999999999
      vertex 0.37931156178928588 -0.66175098730913517 -0.18000000000000002
      vertex 0.20316065283803461 -1.1343270869124582 -0.17999651478206896
    endloop
  endfacet
  facet normal 1.2705114669668244e-05 -1.2110717052171501e-05 -0.99999999984595522
    outer loop
      vertex 0.37931156178928588 -0.66175098730913517 -0.18000000000000002
      vertex 0.53656644115247321 -1.0224110582710533 -0.17999363420665293
      vertex 0.20316065283803461 -1.1343270869124582 -0.17999651478206896
    endloop
  endfacet
  facet normal 9.4014486135444638e-06 -1.3551180383310967e-05 -0.99999999986398913
    outer loop
      vertex 0.53656644115247321 -1.0224110582710533 -0.17999363420665293
      vertex 0.37931156178928588 -0.66175098730913517 -0.18000000000000002
      vertex 0.85308122750633253 -0.77818902916782329 -0.1799939680059236
    endloop
  endfacet
  facet normal 8.7000639884656421e-06 -7.6902832794637352e-06 -0.99999999993258426
    outer loop
      vertex 0.72406481474488493 -0.13978042301007648 -0.17999999999999999
      vertex 1.068743967379411 -0.43661528494038676 -0.17999471852514076
      vertex 0.85308122750633253 -0.77818902916782329 -0.1799939680059236
    endloop
  endfacet
  facet normal 2.8820121360162064e-05 -6.5570537634671594e-06 -0.99999999956320273
    outer loop
      vertex 0.83325581386822056 0.047870007753461383 -0.17999999999999997
      vertex 1.1000677240087546 0.35052842288351355 -0.17999429499586686
      vertex 1.1538798988059655 -0.047225293068818473 -0.17999013602995662
    endloop
  endfacet
  facet normal 1.0190979255490506e-05 2.2619416825152541e-05 -0.99999999969225306
    outer loop
      vertex 0.29721979836952506 0.69031801401278414 -0.17999999999999999
      vertex 0.19760622869842728 1.1405825944468833 -0.17999083043759281
      vertex 0.66191881973707645 0.94969525080946937 -0.17999041639800173
    endloop
  endfacet
  facet normal -7.9961270882033434e-06 1.5433216636460963e-05 -0.99999999984893884
    outer loop
      vertex -0.30085093627005122 1.1175647998782638 -0.17999297426497515
      vertex -0.42370796200129796 0.59867650822340712 -0.18000000000000002
      vertex -0.70552838706716503 0.91418849324509033 -0.17999287716324783
    endloop
  endfacet
  facet normal -1.1633837678640427e-05 -5.0191051088895704e-06 -0.99999999991973132
    outer loop
      vertex -0.74653334110303471 0.043525782669554473 -0.17999999999999997
      vertex -1.1437722692595862 -0.15695411056574754 -0.17999437235713334
      vertex -1.1353012425161511 0.19812604944722798 -0.17999625309232878
    endloop
  endfacet
  facet normal -1.0965479848666048e-05 -1.3784767654920263e-05 -0.9999999998448692
    outer loop
      vertex -0.80735287933994992 -0.13358705752285327 -0.17999999999999999
      vertex -0.74249270864957184 -0.88812057170226444 -0.17999031015371236
      vertex -1.022859959198317 -0.5360123949565514 -0.17999208952168236
    endloop
  endfacet
  facet normal -1.9097488072033005e-05 -1.3678389754161493e-05 -0.99999999972409381
    outer loop
      vertex -0.38524825704408672 -0.67849248804944262 -0.17999999999999999
      vertex -0.34278683165030482 -1.1023792160162555 -0.17999501281868685
      vertex -0.74249270864957184 -0.88812057170226444 -0.17999031015371236
    endloop
  endfacet
  facet normal 3.2169260888868583e-05 4.7349321531988107e-06 -0.99999999947135942
    outer loop
      vertex 1.068743967379411 -0.43661528494038676 -0.17999471852514076
      vertex 0.83325581386822056 0.047870007753461383 -0.17999999999999997
      vertex 1.1538798988059655 -0.047225293068818473 -0.17999013602995662
    endloop
  endfacet
  facet normal 1.3312399768139798e-05 3.043000603257695e-05 0.99999999944839746
    outer loop
      vertex 0.15765234129251685 -0.067787656823486142 0.58000654559601916
      vertex 0.41830208769057858 0.05376118379354735 0.57999937699043846
      vertex 0.13000679742753779 0.098223397504931462 0.58000186190716363
    endloop
  endfacet
  facet normal -5.7098253090918016e-06 1.3978078673717889e-05 0.99999999988600563
    outer loop
      vertex 0.13000679742753779 0.098223397504931462 0.58000186190716363
      vertex 0.27112974841843529 0.32194492148221976 0.57999954049749747
      vertex 0.036165145912379786 0.15894412676057196 0.58000047732859594
    endloop
  endfacet
  facet normal -4.8209533371414606e-05 1.5634581033099173e-05 0.99999999871570044
    outer loop
      vertex -0.13365277807812848 -0.091991383713105154 0.5800007089675594
      vertex -0.34506339595623303 -0.25990243704359722 0.57999314217928166
      vertex -0.016360943565274129 -0.16693592209183281 0.58000753527863658
    endloop
  endfacet
  facet normal 3.2825801022233954e-05 -4.7630110677456298e-05 0.99999999832691955
    outer loop
      vertex -0.093950520845573038 -0.41367895611559602 0.57999832982062693
      vertex 0.15765234129251685 -0.067787656823486142 0.58000654559601916
      vertex -0.016360943565274129 -0.16693592209183281 0.58000753527863658
    endloop
  endfacet
  facet normal 2.6244416187406015e-05 3.8004457670899643e-05 0.99999999893344593
    outer loop
      vertex 0.036165145912379786 0.15894412676057196 0.58000047732859594
      vertex -0.1607742919733218 0.39625515831257369 0.57999662701210997
      vertex -0.10651326401900839 0.12959078862860468 0.58000533739786886
    endloop
  endfacet
  facet normal -1.3980800155844686e-05 -2.2558717428001585e-05 0.99999999964782071
    outer loop
      vertex -0.10651326401900839 0.12959078862860468 0.58000533739786886
      vertex -0.41341282532301771 0.073368318221104067 0.57999977838960937
      vertex -0.16224039125298104 0.0010746409160395411 0.58000165912857726
    endloop
  endfacet
  facet normal -3.6480331606362564e-05 -2.5836451745372404e-05 0.99999999900083159
    outer loop
      vertex -0.016360943565274129 -0.16693592209183281 0.58000753527863658
      vertex -0.34506339595623303 -0.25990243704359722 0.57999314217928166
      vertex -0.093950520845573038 -0.41367895611559602 0.57999832982062693
    endloop
  endfacet
  facet normal 4.0600687154952206e-05 -2.808709010494992e-05 0.99999999878134982
    outer loop
      vertex 0.15765234129251685 -0.067787656823486142 0.58000654559601916
      vertex 0.38788105228859732 -0.18492289364320086 0.5799939081641835
      vertex 0.41830208769057858 0.05376118379354735 0.57999937699043846
    endloop
  endfacet
  facet normal 9.3135662115968893e-06 4.5013626767089407e-06 0.99999999994649758
    outer loop
      vertex 0.41830208769057858 0.05376118379354735 0.57999937699043846
      vertex 0.27112974841843529 0.32194492148221976 0.57999954049749747
      vertex 0.13000679742753779 0.098223397504931462 0.58000186190716363
    endloop
  endfacet
  facet normal -9.4927573172746344e-06 -6.9657543013734132e-06 0.99999999993068289
    outer loop
      vertex -0.16224039125298104 0.0010746409160395411 0.58000165912857726
      vertex -0.41341282532301771 0.073368318221104067 0.57999977838960937
      vertex -0.42144250920806942 -0.017399032410246151 0.57999906990270578
    endloop
  endfacet
  facet normal -9.0631508797100958e-06 -1.2993515883580813e-05 0.99999999987451382
    outer loop
      vertex -0.16224039125298104 0.0010746409160395411 0.58000165912857726
      vertex -0.42144250920806942 -0.017399032410246151 0.57999906990270578
      vertex -0.13365277807812848 -0.091991383713105154 0.5800007089675594
    endloop
  endfacet
  facet normal -1.3100427042110673e-05 -2.8570000624771122e-05 0.99999999950606677
    outer loop
      vertex -0.13365277807812848 -0.091991383713105154 0.5800007089675594
      vertex -0.42144250920806942 -0.017399032410246151 0.57999906990270578
      vertex -0.34506339595623303 -0.25990243704359722 0.57999314217928166
    endloop
  endfacet
  facet normal 4.9591570990632048e-05 2.6604896007565819e-05 0.99999999841642784
    outer loop
      vertex 0.41830208769057858 0.05376118379354735 0.57999937699043846
      vertex 0.36712988168347194 0.20993986596435812 0.5799977595829251
      vertex 0.27112974841843529 0.32194492148221976 0.57999954049749747
    endloop
  endfacet
  facet normal -1.8274765677537922e-05 3.2090359805192211e-05 0.99999999931812089
    outer loop
      vertex 0.27112974841843529 0.32194492148221976 0.57999954049749747
      vertex 0.11293647995398273 0.41059905508102007 0.5799938046095352
      vertex 0.036165145912379786 0.15894412676057196 0.58000047732859594
    endloop
  endfacet
  facet normal -2.9067784546073619e-05 2.6749497470266509e-05 0.99999999921976412
    outer loop
      vertex -0.1607742919733218 0.39625515831257369 0.57999662701210997
      vertex -0.36739614479394245 0.2153182240109987 0.57999546094467513
      vertex -0.10651326401900839 0.12959078862860468 0.58000533739786886
    endloop
  endfacet
  facet normal -2.5180791029868787e-05 3.8578266857371713e-05 0.99999999893882241
    outer loop
      vertex -0.10651326401900839 0.12959078862860468 0.58000533739786886
      vertex -0.36739614479394245 0.2153182240109987 0.57999546094467513
      vertex -0.41341282532301771 0.073368318221104067 0.57999977838960937
    endloop
  endfacet
  facet normal 3.3863581539278752e-05 -4.1328836834758391e-05 0.99999999857259247
    outer loop
      vertex 0.15765234129251685 -0.067787656823486142 0.58000654559601916
      vertex 0.16076523768178971 -0.39630282643740061 0.57999286303233621
      vertex 0.38788105228859732 -0.18492289364320086 0.5799939081641835
    endloop
  endfacet
  facet normal 9.0670342072386599e-06 2.3749309368118823e-05 0.99999999967687958
    outer loop
      vertex 0.036165145912379786 0.15894412676057196 0.58000047732859594
      vertex 0.11293647995398273 0.41059905508102007 0.5799938046095352
      vertex -0.1607742919733218 0.39625515831257369 0.57999662701210997
    endloop
  endfacet
  facet normal 2.4287857938456927e-05 -4.1419573098824539e-05 0.99999999884725954
    outer loop
      vertex -0.093950520845573038 -0.41367895611559602 0.57999832982062693
      vertex 0.16076523768178971 -0.39630282643740061 0.57999286303233621
      vertex 0.15765234129251685 -0.067787656823486142 0.58000654559601916
    endloop
  endfacet
  facet normal 0.98852253997156692 0.13373666500984957 -0.070268715657859263
    outer loop
      vertex 1.1538798988059655 -0.047225293068818473 -0.17999013602995662
      vertex 1.1000677240087546 0.35052842288351355 -0.17999429499586686
      vertex 1.1538563038007716 0.047517897664688072 -5.1448682205565421e-06
    endloop
  endfacet
  facet normal 0.9692611819130611 0.22758400407292156 0.093478780087420055
    outer loop
      vertex 1.1000677240087546 0.35052842288351355 -0.17999429499586686
      vertex 1.0510749764479423 0.48525553712795 -6.577213415841221e-06
      vertex 1.1538563038007716 0.047517897664688072 -5.1448682205565421e-06
    endloop
  endfacet
  facet normal 0.89726711421254568 0.43405553051669521 -0.080669214577563556
    outer loop
      vertex 1.1000677240087546 0.35052842288351355 -0.17999429499586686
      vertex 0.9702499178213847 0.61888341727980833 -0.17999775197332629
      vertex 1.0510749764479423 0.48525553712795 -6.577213415841221e-06
    endloop
  endfacet
  facet normal 0.80053116282440195 0.59792246913172065 0.040479355904428742
    outer loop
      vertex 0.9702499178213847 0.61888341727980833 -0.17999775197332629
      vertex 0.88052834494659371 0.73900753901350547 -0.17999766317252655
      vertex 0.82048273824011753 0.80721426637207438 -3.5806875004935901e-06
    endloop
  endfacet
  facet normal 0.81116019323514488 0.58096590199387388 0.06706535343354994
    outer loop
      vertex 0.9702499178213847 0.61888341727980833 -0.17999775197332629
      vertex 0.82048273824011753 0.80721426637207438 -3.5806875004935901e-06
      vertex 1.0510749764479423 0.48525553712795 -6.577213415841221e-06
    endloop
  endfacet
  facet normal 0.69334715797145829 0.71941828561542787 -0.04131644775462006
    outer loop
      vertex 0.88052834494659371 0.73900753901350547 -0.17999766317252655
      vertex 0.66191881973707645 0.94969525080946937 -0.17999041639800173
      vertex 0.82048273824011753 0.80721426637207438 -3.5806875004935901e-06
    endloop
  endfacet
  facet normal 0.61450236452835405 0.78485399966603009 0.079944000383375485
    outer loop
      vertex 0.66191881973707645 0.94969525080946937 -0.17999041639800173
      vertex 0.57770543165954813 0.99729698788381538 -3.0215249519557896e-06
      vertex 0.82048273824011753 0.80721426637207438 -3.5806875004935901e-06
    endloop
  endfacet
  facet normal 0.37859989070906214 0.92090263542303896 -0.092738658745894889
    outer loop
      vertex 0.66191881973707645 0.94969525080946937 -0.17999041639800173
      vertex 0.19760622869842728 1.1405825944468833 -0.17999083043759281
      vertex 0.34777293007121557 1.0969719157406501 -2.161198192332861e-06
    endloop
  endfacet
  facet normal 0.39709860100846439 0.91603701405353966 -0.056470257312991913
    outer loop
      vertex 0.66191881973707645 0.94969525080946937 -0.17999041639800173
      vertex 0.34777293007121557 1.0969719157406501 -2.161198192332861e-06
      vertex 0.57770543165954813 0.99729698788381538 -3.0215249519557896e-06
    endloop
  endfacet
  facet normal 0.1882423339282964 0.97884919082183597 0.08011919460818745
    outer loop
      vertex 0.19760622869842728 1.1405825944468833 -0.17999083043759281
      vertex 0.055092655203241414 1.1532573325564675 -3.6173949298076366e-06
      vertex 0.34777293007121557 1.0969719157406501 -2.161198192332861e-06
    endloop
  endfacet
  facet normal -0.045867279507297166 0.99327943225811544 -0.10626458546286811
    outer loop
      vertex 0.19760622869842728 1.1405825944468833 -0.17999083043759281
      vertex -0.30085093627005122 1.1175647998782638 -0.17999297426497515
      vertex 0.055092655203241414 1.1532573325564675 -3.6173949298076366e-06
    endloop
  endfacet
  facet normal -0.11145543786460292 0.99349392633903411 0.023398796931882938
    outer loop
      vertex -0.30085093627005122 1.1175647998782638 -0.17999297426497515
      vertex -0.29637325587815383 1.1138280293951301 -4.2073179699280523e-06
      vertex 0.055092655203241414 1.1532573325564675 -3.6173949298076366e-06
    endloop
  endfacet
  facet normal -0.40736317907033054 0.91280299177022295 0.029085022830389516
    outer loop
      vertex -0.30085093627005122 1.1175647998782638 -0.17999297426497515
      vertex -0.65820022808051326 0.95235297827738397 -6.8173629169422656e-06
      vertex -0.29637325587815383 1.1138280293951301 -4.2073179699280523e-06
    endloop
  endfacet
  facet normal -0.44790572889561842 0.89124119054871997 -0.071201111590935756
    outer loop
      vertex -0.30085093627005122 1.1175647998782638 -0.17999297426497515
      vertex -0.70552838706716503 0.91418849324509033 -0.17999287716324783
      vertex -0.65820022808051326 0.95235297827738397 -6.8173629169422656e-06
    endloop
  endfacet
  facet normal -0.74971057696612753 0.661682223803019 -0.010520717095694746
    outer loop
      vertex -0.70552838706716503 0.91418849324509033 -0.17999287716324783
      vertex -1.0045273383402864 0.57541159395788055 -0.17999057905121899
      vertex -1.0000792152715983 0.5833132052949157 -7.5197549175738676e-06
    endloop
  endfacet
  facet normal -0.73271493209200012 0.67878809545274821 0.048739611826994947
    outer loop
      vertex -0.70552838706716503 0.91418849324509033 -0.17999287716324783
      vertex -1.0000792152715983 0.5833132052949157 -7.5197549175738676e-06
      vertex -0.65820022808051326 0.95235297827738397 -6.8173629169422656e-06
    endloop
  endfacet
  facet normal -0.94207732521512555 0.32653966528776895 0.076564745864311376
    outer loop
      vertex -1.0045273383402864 0.57541159395788055 -0.17999057905121899
      vertex -1.1353012425161511 0.19812604944722798 -0.17999625309232878
      vertex -1.1529537303236566 0.1049954521961806 -7.0765887964646668e-06
    endloop
  endfacet
  facet normal -0.95248296787717346 0.30442185215891948 0.010175059313065435
    outer loop
      vertex -1.0045273383402864 0.57541159395788055 -0.17999057905121899
      vertex -1.1529537303236566 0.1049954521961806 -7.0765887964646668e-06
      vertex -1.0000792152715983 0.5833132052949157 -7.5197549175738676e-06
    endloop
  endfacet
  facet normal -0.99606385664852748 0.023762304725521124 -0.085394065089987412
    outer loop
      vertex -1.1353012425161511 0.19812604944722798 -0.17999625309232878
      vertex -1.1437722692595862 -0.15695411056574754 -0.17999437235713334
      vertex -1.1529537303236566 0.1049954521961806 -7.0765887964646668e-06
    endloop
  endfacet
  facet normal -0.98747238894786871 -0.11139783973003994 0.11175331032711902
    outer loop
      vertex -1.1437722692595862 -0.15695411056574754 -0.17999437235713334
      vertex -1.1022410667687574 -0.34453875130052142 -5.1448682205530727e-06
      vertex -1.1529537303236566 0.1049954521961806 -7.0765887964646668e-06
    endloop
  endfacet
  facet normal -0.94826486232817031 -0.30247885332584001 -0.096438032769345608
    outer loop
      vertex -1.1437722692595862 -0.15695411056574754 -0.17999437235713334
      vertex -1.022859959198317 -0.5360123949565514 -0.17999208952168236
      vertex -1.1022410667687574 -0.34453875130052142 -5.1448682205530727e-06
    endloop
  endfacet
  facet normal -0.88369655204731279 -0.45783347331507618 0.09730834811024415
    outer loop
      vertex -1.022859959198317 -0.5360123949565514 -0.17999208952168236
      vertex -0.91742034278308549 -0.70127405726001912 -4.4013403055400552e-06
      vertex -1.1022410667687574 -0.34453875130052142 -5.1448682205530727e-06
    endloop
  endfacet
  facet normal -0.77729159244436208 -0.61892146218502231 -0.11293362635664346
    outer loop
      vertex -1.022859959198317 -0.5360123949565514 -0.17999208952168236
      vertex -0.74249270864957184 -0.88812057170226444 -0.17999031015371236
      vertex -0.91742034278308549 -0.70127405726001912 -4.4013403055400552e-06
    endloop
  endfacet
  facet normal -0.67365558690287897 -0.73158466378983256 0.10474745792645954
    outer loop
      vertex -0.74249270864957184 -0.88812057170226444 -0.17999031015371236
      vertex -0.62345358358433522 -0.97196364213889619 -4.3941520759659819e-06
      vertex -0.91742034278308549 -0.70127405726001912 -4.4013403055400552e-06
    endloop
  endfacet
  facet normal -0.47018890093823518 -0.87714924401658889 -0.097629919367072396
    outer loop
      vertex -0.74249270864957184 -0.88812057170226444 -0.17999031015371236
      vertex -0.34278683165030482 -1.1023792160162555 -0.17999501281868685
      vertex -0.62345358358433522 -0.97196364213889619 -4.3941520759659819e-06
    endloop
  endfacet
  facet normal -0.41182306032258981 -0.91108658462401437 0.017972264873550879
    outer loop
      vertex -0.34278683165030482 -1.1023792160162555 -0.17999501281868685
      vertex -0.34656027189147209 -1.0971229924010995 -1.8324237437668603e-06
      vertex -0.62345358358433522 -0.97196364213889619 -4.3941520759659819e-06
    endloop
  endfacet
  facet normal -0.20405783120681092 -0.97865716966401972 0.024301147881998521
    outer loop
      vertex -0.34278683165030482 -1.1023792160162555 -0.17999501281868685
      vertex -0.10245186070687722 -1.1480216035004547 -4.2073179699233546e-06
      vertex -0.34656027189147209 -1.0971229924010995 -1.8324237437668603e-06
    endloop
  endfacet
  facet normal -0.15938298824518379 -0.98651029925221223 -0.03734290464527662
    outer loop
      vertex -0.34278683165030482 -1.1023792160162555 -0.17999501281868685
      vertex -0.048943772141799416 -1.1498531198857196 -0.17999741720147625
      vertex -0.10245186070687722 -1.1480216035004547 -4.2073179699233546e-06
    endloop
  endfacet
  facet normal 0.061469260885793013 -0.99810896987400566 0.00011926108097527595
    outer loop
      vertex -0.048943772141799416 -1.1498531198857196 -0.17999741720147625
      vertex 0.20316065283803461 -1.1343270869124582 -0.17999651478206896
      vertex 0.1884001070248601 -1.1352146189338237 -3.4302327724760034e-06
    endloop
  endfacet
  facet normal 0.043978091250307758 -0.99876222755787969 0.023236615364587338
    outer loop
      vertex -0.048943772141799416 -1.1498531198857196 -0.17999741720147625
      vertex 0.1884001070248601 -1.1352146189338237 -3.4302327724760034e-06
      vertex -0.10245186070687722 -1.1480216035004547 -4.2073179699233546e-06
    endloop
  endfacet
  facet normal 0.318217711205253 -0.94799295895113789 -0.0068438333086687292
    outer loop
      vertex 0.20316065283803461 -1.1343270869124582 -0.17999651478206896
      vertex 0.53656644115247321 -1.0224110582710533 -0.17999363420665293
      vertex 0.53001841385496196 -1.0259084625339281 -4.3941520759668493e-06
    endloop
  endfacet
  facet normal 0.30468344547678905 -0.95223751920912958 0.020290516573885451
    outer loop
      vertex 0.20316065283803461 -1.1343270869124582 -0.17999651478206896
      vertex 0.53001841385496196 -1.0259084625339281 -4.3941520759668493e-06
      vertex 0.1884001070248601 -1.1352146189338237 -3.4302327724760034e-06
    endloop
  endfacet
  facet normal 0.61087658878036877 -0.79170366274522685 -0.0059248355126803997
    outer loop
      vertex 0.53656644115247321 -1.0224110582710533 -0.17999363420665293
      vertex 0.85308122750633253 -0.77818902916782329 -0.1799939680059236
      vertex 0.84949984459880101 -0.78229938926594023 -5.1448682205565421e-06
    endloop
  endfacet
  facet normal 0.60633648620302083 -0.79518074005003248 0.0066072802616806139
    outer loop
      vertex 0.53656644115247321 -1.0224110582710533 -0.17999363420665293
      vertex 0.84949984459880101 -0.78229938926594023 -5.1448682205565421e-06
      vertex 0.53001841385496196 -1.0259084625339281 -4.3941520759668493e-06
    endloop
  endfacet
  facet normal 0.84478664627386946 -0.53338126251167983 -0.042894650934523784
    outer loop
      vertex 0.85308122750633253 -0.77818902916782329 -0.1799939680059236
      vertex 1.068743967379411 -0.43661528494038676 -0.17999471852514076
      vertex 1.0112473583678023 -0.54215519892372588 -3.8595586980296175e-06
    endloop
  endfacet
  facet normal 0.82940268931946792 -0.5586386559428681 0.0037458024480795937
    outer loop
      vertex 0.85308122750633253 -0.77818902916782329 -0.1799939680059236
      vertex 1.0112473583678023 -0.54215519892372588 -3.8595586980296175e-06
      vertex 0.84949984459880101 -0.78229938926594023 -5.1448682205565421e-06
    endloop
  endfacet
  facet normal 0.92018139177480573 -0.38556554953553884 0.067863195052541958
    outer loop
      vertex 1.068743967379411 -0.43661528494038676 -0.17999471852514076
      vertex 1.1120691051884757 -0.30153629474322102 -2.906046545059042e-06
      vertex 1.0112473583678023 -0.54215519892372588 -3.8595586980296175e-06
    endloop
  endfacet
  facet normal 0.9741971989326873 -0.21299685556029729 -0.074646882809209447
    outer loop
      vertex 1.068743967379411 -0.43661528494038676 -0.17999471852514076
      vertex 1.1538798988059655 -0.047225293068818473 -0.17999013602995662
      vertex 1.1120691051884757 -0.30153629474322102 -2.906046545059042e-06
    endloop
  endfacet
  facet normal 0.99096423960002045 -0.11863338214441596 0.062577923223212442
    outer loop
      vertex 1.1538798988059655 -0.047225293068818473 -0.17999013602995662
      vertex 1.1538563038007716 0.047517897664688072 -5.1448682205565421e-06
      vertex 1.1120691051884757 -0.30153629474322102 -2.906046545059042e-06
    endloop
  endfacet
  facet normal 0.98135090763720012 -0.19111914989974857 0.020588021304655348
    outer loop
      vertex 0.41999999999999998 0 0
      vertex 0.42447224749970364 0.022963631114853621 -2.6464772564442879e-06
      vertex 0.41830208769057858 0.05376118379354735 0.57999937699043846
    endloop
  endfacet
  facet normal 0.93977084967373092 0.34137518997754868 -0.017138546359195102
    outer loop
      vertex 0.42447224749970364 0.022963631114853621 -2.6464772564442879e-06
      vertex 0.3372800812519377 0.26299462712645788 -4.3558167730127847e-06
      vertex 0.36712988168347194 0.20993986596435812 0.5799977595829251
    endloop
  endfacet
  facet normal 0.95027103572623695 0.31135782513462978 -0.006423658398324753
    outer loop
      vertex 0.42447224749970364 0.022963631114853621 -2.6464772564442879e-06
      vertex 0.36712988168347194 0.20993986596435812 0.5799977595829251
      vertex 0.41830208769057858 0.05376118379354735 0.57999937699043846
    endloop
  endfacet
  facet normal 0.75911207438390371 0.65063870153085568 0.020448437466193653
    outer loop
      vertex 0.3372800812519377 0.26299462712645788 -4.3558167730127847e-06
      vertex 0.27112974841843529 0.32194492148221976 0.57999954049749747
      vertex 0.36712988168347194 0.20993986596435812 0.5799977595829251
    endloop
  endfacet
  facet normal 0.57069795779794252 0.82107541758273894 0.011789809438187153
    outer loop
      vertex 0.3372800812519377 0.26299462712645788 -4.3558167730127847e-06
      vertex 0.14299323169253017 0.39803591417074335 -2.0555461125629775e-06
      vertex 0.11293647995398273 0.41059905508102007 0.5799938046095352
    endloop
  endfacet
  facet normal 0.48861644406436677 0.87187862009941308 -0.032888332329822439
    outer loop
      vertex 0.3372800812519377 0.26299462712645788 -4.3558167730127847e-06
      vertex 0.11293647995398273 0.41059905508102007 0.5799938046095352
      vertex 0.27112974841843529 0.32194492148221976 0.57999954049749747
    endloop
  endfacet
  facet normal 0.12687500257723255 0.99180667274106193 -0.014908307326170871
    outer loop
      vertex 0.14299323169253017 0.39803591417074335 -2.0555461125629775e-06
      vertex -0.038332164775787658 0.42123163743719755 -1.1855285750980836e-06
      vertex 0.11293647995398273 0.41059905508102007 0.5799938046095352
    endloop
  endfacet
  facet normal -0.052306463865433653 0.99812017469744163 0.031939798055759826
    outer loop
      vertex -0.038332164775787658 0.42123163743719755 -1.1855285750980836e-06
      vertex -0.1607742919733218 0.39625515831257369 0.57999662701210997
      vertex 0.11293647995398273 0.41059905508102007 0.5799938046095352
    endloop
  endfacet
  facet normal -0.3797756211947047 0.92419713604979248 -0.040374884068406926
    outer loop
      vertex -0.038332164775787658 0.42123163743719755 -1.1855285750980836e-06
      vertex -0.29491599842625182 0.31579478093002578 -5.0494380544200204e-06
      vertex -0.1607742919733218 0.39625515831257369 0.57999662701210997
    endloop
  endfacet
  facet normal -0.65804156175480766 0.75145360088964308 0.047945685032990133
    outer loop
      vertex -0.29491599842625182 0.31579478093002578 -5.0494380544200204e-06
      vertex -0.36739614479394245 0.2153182240109987 0.57999546094467513
      vertex -0.1607742919733218 0.39625515831257369 0.57999662701210997
    endloop
  endfacet
  facet normal -0.88705827973895224 0.46061158393051083 -0.031057641500879456
    outer loop
      vertex -0.29491599842625182 0.31579478093002578 -5.0494380544200204e-06
      vertex -0.4121217249561806 0.09007708963775754 -9.6529267729669055e-07
      vertex -0.36739614479394245 0.2153182240109987 0.57999546094467513
    endloop
  endfacet
  facet normal -0.9512425226736152 0.30836971845897143 0.0067660767857971142
    outer loop
      vertex -0.4121217249561806 0.09007708963775754 -9.6529267729669055e-07
      vertex -0.41341282532301771 0.073368318221104067 0.57999977838960937
      vertex -0.36739614479394245 0.2153182240109987 0.57999546094467513
    endloop
  endfacet
  facet normal -0.99610978759387203 0.088120303456850818 0.00032121389064327359
    outer loop
      vertex -0.4121217249561806 0.09007708963775754 -9.6529267729669055e-07
      vertex -0.42144250920806942 -0.017399032410246151 0.57999906990270578
      vertex -0.41341282532301771 0.073368318221104067 0.57999977838960937
    endloop
  endfacet
  facet normal -0.99985580933994744 0.008999435232780793 -0.014400371337219461
    outer loop
      vertex -0.4121217249561806 0.09007708963775754 -9.6529267729669055e-07
      vertex -0.41377785067653411 -0.093923575564222941 -2.0171253482452243e-06
      vertex -0.42144250920806942 -0.017399032410246151 0.57999906990270578
    endloop
  endfacet
  facet normal -0.9534608299115559 -0.30030363077414307 0.027021753611381445
    outer loop
      vertex -0.41377785067653411 -0.093923575564222941 -2.0171253482452243e-06
      vertex -0.34506339595623303 -0.25990243704359722 0.57999314217928166
      vertex -0.42144250920806942 -0.017399032410246151 0.57999906990270578
    endloop
  endfacet
  facet normal -0.90048793481310463 -0.43452211405948638 -0.017663851485579252
    outer loop
      vertex -0.41377785067653411 -0.093923575564222941 -2.0171253482452243e-06
      vertex -0.33539847141438184 -0.25635426388616528 2.8781247177341821e-07
      vertex -0.34506339595623303 -0.25990243704359722 0.57999314217928166
    endloop
  endfacet
  facet normal -0.66266745998064125 -0.74875079563273395 -0.015623172602040778
    outer loop
      vertex -0.33539847141438184 -0.25635426388616528 2.8781247177341821e-07
      vertex -0.21049815527784096 -0.36689485623600387 -9.1382088104213256e-07
      vertex -0.34506339595623303 -0.25990243704359722 0.57999314217928166
    endloop
  endfacet
  facet normal -0.52189730245858712 -0.85224288794064096 0.036128460263984294
    outer loop
      vertex -0.21049815527784096 -0.36689485623600387 -9.1382088104213256e-07
      vertex -0.093950520845573038 -0.41367895611559602 0.57999832982062693
      vertex -0.34506339595623303 -0.25990243704359722 0.57999314217928166
    endloop
  endfacet
  facet normal -0.281910820076615 -0.95921676105217268 -0.020724257292106085
    outer loop
      vertex -0.21049815527784096 -0.36689485623600387 -9.1382088104213256e-07
      vertex -0.016160046887895331 -0.42401020744113777 -1.5564978000146108e-06
      vertex -0.093950520845573038 -0.41367895611559602 0.57999832982062693
    endloop
  endfacet
  facet normal 0.068035510691708531 -0.99732046391885276 0.026889803524805831
    outer loop
      vertex -0.016160046887895331 -0.42401020744113777 -1.5564978000146108e-06
      vertex 0.16076523768178971 -0.39630282643740061 0.57999286303233621
      vertex -0.093950520845573038 -0.41367895611559602 0.57999832982062693
    endloop
  endfacet
  facet normal 0.22173236022430948 -0.9748799647786387 -0.021066910133136878
    outer loop
      vertex -0.016160046887895331 -0.42401020744113777 -1.5564978000146108e-06
      vertex 0.19788898031801863 -0.37532563775566086 -2.295768821909901e-06
      vertex 0.16076523768178971 -0.39630282643740061 0.57999286303233621
    endloop
  endfacet
  facet normal 0.69072225551210087 -0.7230350108609731 0.011096792759560076
    outer loop
      vertex 0.19788898031801863 -0.37532563775566086 -2.295768821909901e-06
      vertex 0.3700091599762737 -0.21089758985098683 -2.5940616200029532e-06
      vertex 0.38788105228859732 -0.18492289364320086 0.5799939081641835
    endloop
  endfacet
  facet normal 0.68119295852138606 -0.73190349498524621 0.017129719474150176
    outer loop
      vertex 0.19788898031801863 -0.37532563775566086 -2.295768821909901e-06
      vertex 0.38788105228859732 -0.18492289364320086 0.5799939081641835
      vertex 0.16076523768178971 -0.39630282643740061 0.57999286303233621
    endloop
  endfacet
  facet normal 0.97374557720271027 -0.2267720634405116 -0.019848982873014304
    outer loop
      vertex 0.3700091599762737 -0.21089758985098683 -2.5940616200029532e-06
      vertex 0.42447224749970364 0.022963631114853621 -2.6464772564442879e-06
      vertex 0.38788105228859732 -0.18492289364320086 0.5799939081641835
    endloop
  endfacet
  facet normal 0.99182760116727842 -0.1264119387574329 0.017263583126031632
    outer loop
      vertex 0.42447224749970364 0.022963631114853621 -2.6464772564442879e-06
      vertex 0.41830208769057858 0.05376118379354735 0.57999937699043846
      vertex 0.38788105228859732 -0.18492289364320086 0.5799939081641835
    endloop
  endfacet
  facet normal -0.98620130145411755 -0.16423104565541069 -0.020860408748044915
    outer loop
      vertex 0.16813610572816012 -0.034206201632722456 -0.18000826632204195
      vertex 0.15765234129251685 -0.067787656823486142 0.58000654559601916
      vertex 0.13000679742753779 0.098223397504931462 0.58000186190716363
    endloop
  endfacet
  facet normal -0.91584918764960899 -0.40081094576954601 0.023892493232671987
    outer loop
      vertex 0.16813610572816012 -0.034206201632722456 -0.18000826632204195
      vertex 0.13000679742753779 0.098223397504931462 0.58000186190716363
      vertex 0.093290098631839985 0.13681649521016204 -0.18000349194909998
    endloop
  endfacet
  facet normal -0.54317602834972445 -0.8394589274006925 -0.016386318485195887
    outer loop
      vertex 0.093290098631839985 0.13681649521016204 -0.18000349194909998
      vertex 0.13000679742753779 0.098223397504931462 0.58000186190716363
      vertex 0.036165145912379786 0.15894412676057196 0.58000047732859594
    endloop
  endfacet
  facet normal -0.078434325389845183 -0.99665110244918897 0.023122209830731686
    outer loop
      vertex 0.093290098631839985 0.13681649521016204 -0.18000349194909998
      vertex 0.036165145912379786 0.15894412676057196 0.58000047732859594
      vertex -0.072779133568257687 0.14988584021107865 -0.18000137676078198
    endloop
  endfacet
  facet normal 0.20148007242919494 -0.97934142533376423 -0.017209097569523477
    outer loop
      vertex -0.072779133568257687 0.14988584021107865 -0.18000137676078198
      vertex 0.036165145912379786 0.15894412676057196 0.58000047732859594
      vertex -0.10651326401900839 0.12959078862860468 0.58000533739786886
    endloop
  endfacet
  facet normal 0.756073328567896 -0.65428916592876718 0.016087547249368381
    outer loop
      vertex -0.072779133568257687 0.14988584021107865 -0.18000137676078198
      vertex -0.10651326401900839 0.12959078862860468 0.58000533739786886
      vertex -0.14964001297585472 0.061068062431560287 -0.18000441094923555
    endloop
  endfacet
  facet normal 0.91733967244800907 -0.39777604603766309 -0.01619081689175823
    outer loop
      vertex -0.14964001297585472 0.061068062431560287 -0.18000441094923555
      vertex -0.10651326401900839 0.12959078862860468 0.58000533739786886
      vertex -0.16224039125298104 0.0010746409160395411 0.58000165912857726
    endloop
  endfacet
  facet normal 0.99890836057464061 -0.044861663448076253 0.013019920382061661
    outer loop
      vertex -0.14964001297585472 0.061068062431560287 -0.18000441094923555
      vertex -0.16224039125298104 0.0010746409160395411 0.58000165912857726
      vertex -0.15499224613666823 -0.058111281208597904 -0.1800192460834209
    endloop
  endfacet
  facet normal 0.95582734023438087 0.29360698963010784 -0.013748865437357908
    outer loop
      vertex -0.15499224613666823 -0.058111281208597904 -0.1800192460834209
      vertex -0.16224039125298104 0.0010746409160395411 0.58000165912857726
      vertex -0.13365277807812848 -0.091991383713105154 0.5800007089675594
    endloop
  endfacet
  facet normal 0.60392263759342235 0.79682671721994391 0.018564227069592387
    outer loop
      vertex -0.15499224613666823 -0.058111281208597904 -0.1800192460834209
      vertex -0.13365277807812848 -0.091991383713105154 0.5800007089675594
      vertex -0.0054171454762871668 -0.17147577911227688 -0.18001539972038716
    endloop
  endfacet
  facet normal 0.5384284400367062 0.84266684959291438 0.002719477301185273
    outer loop
      vertex -0.0054171454762871668 -0.17147577911227688 -0.18001539972038716
      vertex -0.13365277807812848 -0.091991383713105154 0.5800007089675594
      vertex -0.016360943565274129 -0.16693592209183281 0.58000753527863658
    endloop
  endfacet
  facet normal -0.49501739875688089 0.86879574943539706 -0.01231749531999206
    outer loop
      vertex -0.0054171454762871668 -0.17147577911227688 -0.18001539972038716
      vertex -0.016360943565274129 -0.16693592209183281 0.58000753527863658
      vertex 0.15765234129251685 -0.067787656823486142 0.58000654559601916
    endloop
  endfacet
  facet normal -0.62014026909002862 0.78405700500495246 0.026089452957292696
    outer loop
      vertex -0.0054171454762871668 -0.17147577911227688 -0.18001539972038716
      vertex 0.15765234129251685 -0.067787656823486142 0.58000654559601916
      vertex 0.16813610572816012 -0.034206201632722456 -0.18000826632204195
    endloop
  endfacet
  facet normal -0.26168186922410824 -0.9565726149980357 0.12841896882936185
    outer loop
      vertex -0.29765551920579669 0.735760364103616 -0.067499999999999977
      vertex -0.42999129885671095 0.78102420910753323 -0
      vertex -0.46510431905463329 0.76646496560481436 -0.17999999999999999
    endloop
  endfacet
  facet normal 0.95421014516547942 -0.24884308299079178 -0.16601240589459818
    outer loop
      vertex -0.46510431905463329 0.76646496560481436 -0.17999999999999999
      vertex -0.42999129885671095 0.78102420910753323 -0
      vertex -0.4870442381919512 0.61683374890032405 -0.081818181818181845
    endloop
  endfacet
  facet normal -0.95982304968296139 0.20688328346225385 -0.18957589593926769
    outer loop
      vertex -0.32835409476818034 0.5790623021675998 -0.083076923076923076
      vertex -0.29765551920579669 0.735760364103616 -0.067499999999999977
      vertex -0.28530025942447795 0.68999337408015882 -0.18000000000000002
    endloop
  endfacet
  facet normal -0.6404443406374738 -0.75013592247728755 0.16470320080247453
    outer loop
      vertex -0.66610722601004302 0.0075496655002185997 -0.075000000000000011
      vertex -0.76357775278108819 0.10723451603064889 0
      vertex -0.81357698019735414 0.11040080365850216 -0.17999999999999997
    endloop
  endfacet
  facet normal 0.64486536462120647 -0.73975079366000684 -0.1921390766901627
    outer loop
      vertex -0.81357698019735414 0.11040080365850216 -0.17999999999999997
      vertex -0.76357775278108819 0.10723451603064889 0
      vertex -0.89458146895096169 0.014285255451406685 -0.081818181818181804
    endloop
  endfacet
  facet normal 0.03927586190274801 -0.98485051148486891 0.16889901331798349
    outer loop
      vertex 0.48794862554471041 -0.61449311202899681 -0.18000000000000002
      vertex 0.46510431905463345 -0.58453466429890999 -0
      vertex 0.30069679855354148 -0.60512282160307351 -0.081818181818181818
    endloop
  endfacet
  facet normal -0.96240572977035244 0.22034725591567061 -0.15881529559720997
    outer loop
      vertex 0.48794862554471041 -0.61449311202899681 -0.18000000000000002
      vertex 0.43934769258029771 -0.77958994167371654 -0.11454545454545455
      vertex 0.46510431905463345 -0.58453466429890999 -0
    endloop
  endfacet
endsolid line_f_200_w_1e_03
