solid line_r_0_08_w_1e_03
  facet normal -0 6.5857783072434997e-05 0.99999999783137627
    outer loop
      vertex -1 -1 1
      vertex -0.80000000000000004 -1 1
      vertex -0.99969589709114326 -0.66851603281133476 0.99997816920074956
    endloop
  endfacet
  facet normal 1.3697214565086418e-05 7.4109396442361081e-05 0.9999999971600918
    outer loop
      vertex -0.80000000000000004 -1 1
      vertex -0.46058644699421397 -0.99931512725875737 0.99999530022421934
      vertex -0.99969589709114326 -0.66851603281133476 0.99997816920074956
    endloop
  endfacet
  facet normal 0.00013218062974416038 -0.90279678165184674 0.43006738258945987
    outer loop
      vertex -0.11949790794979079 -0.99999413051321762 0.99846510454468451
      vertex 0.12603706972639006 -0.99922951816610217 0.99999471275224672
      vertex -0.46058644699421397 -0.99931512725875737 0.99999530022421934
    endloop
  endfacet
  facet normal -1.93029121082437e-05 -1.3428112770952097e-06 0.9999999998127973
    outer loop
      vertex 0.12603706972639006 -0.99922951816610217 0.99999471275224672
      vertex 0.39999999999999991 -1 1
      vertex 0.35897435897435898 -0.41025641025641013 1
    endloop
  endfacet
  facet normal 0.00011371078497332299 7.9103154764050589e-06 0.9999999935036421
    outer loop
      vertex 0.39999999999999991 -1 1
      vertex 0.72855629394202059 -0.99969964693921132 0.99996263722977774
      vertex 0.35897435897435898 -0.41025641025641013 1
    endloop
  endfacet
  facet normal 0.076306571875386572 -0.09562112027213196 0.99248874474551541
    outer loop
      vertex 0.72855629394202059 -0.99969964693921132 0.99996263722977774
      vertex 0.99987909085750704 -0.99980945839171909 0.97909165717278845
      vertex 0.99999433524221704 -0.79467353951890041 0.99884657386131404
    endloop
  endfacet
  facet normal -3.445129837880454e-05 -4.3591324428356565e-06 0.99999999939705297
    outer loop
      vertex -0.99969589709114326 -0.66851603281133476 0.99997816920074956
      vertex -0.46058644699421397 -0.99931512725875737 0.99999530022421934
      vertex -0.40000000000000008 -0.40000000000000002 1
    endloop
  endfacet
  facet normal -1.3563982295126356e-06 -6.4237008877183658e-05 0.99999999793588357
    outer loop
      vertex 0.35897435897435898 -0.41025641025641013 1
      vertex 0.72855629394202059 -0.99969964693921132 0.99996263722977774
      vertex 0.99441524249981283 -0.59999999999999998 0.99998867335020725
    endloop
  endfacet
  facet normal 1.0028142878103158e-06 -9.3736717699444808e-06 0.99999999995556432
    outer loop
      vertex -0.46058644699421397 -0.99931512725875737 0.99999530022421934
      vertex 0.12603706972639006 -0.99922951816610217 0.99999471275224672
      vertex 0.35897435897435898 -0.41025641025641013 1
    endloop
  endfacet
  facet normal -1.0582719528593625e-07 -7.8312124511593905e-06 0.99999999996933042
    outer loop
      vertex -0.46058644699421397 -0.99931512725875737 0.99999530022421934
      vertex 0.35897435897435898 -0.41025641025641013 1
      vertex -0.40000000000000008 -0.40000000000000002 1
    endloop
  endfacet
  facet normal 0.0083615770924280949 -0.0056268123060926245 0.99994921021609873
    outer loop
      vertex 0.72855629394202059 -0.99969964693921132 0.99996263722977774
      vertex 0.99999433524221704 -0.79467353951890041 0.99884657386131404
      vertex 0.99441524249981283 -0.59999999999999998 0.99998867335020725
    endloop
  endfacet
  facet normal -0.0013394603307694934 0.0029102104975894895 0.99999486824727357
    outer loop
      vertex -0.99969589709114326 -0.66851603281133476 0.99997816920074956
      vertex -0.40000000000000008 -0.40000000000000002 1
      vertex -0.99996211123024792 -0.3139003372049457 0.99894580099964869
    endloop
  endfacet
  facet normal 8.758703711741995e-06 -3.0362086907685474e-05 0.9999999995007145
    outer loop
      vertex 0.99441524249981283 -0.59999999999999998 0.99998867335020725
      vertex 0.99965709508708667 -0.33085605833583059 0.99999679921012508
      vertex 0.35897435897435898 -0.41025641025641013 1
    endloop
  endfacet
  facet normal -0.0022348132711973007 -0.0033288488273377288 0.99999196215526032
    outer loop
      vertex -0.99996211123024792 -0.3139003372049457 0.99894580099964869
      vertex -0.40000000000000008 -0.40000000000000002 1
      vertex -0.99934657260133519 -0.0034588563458856376 0.99998059769059533
    endloop
  endfacet
  facet normal -0 0 1
    outer loop
      vertex -0.40000000000000008 -0.40000000000000002 1
      vertex 0.35897435897435898 -0.41025641025641013 1
      vertex 0.17999999999999997 0.10000000000000001 1
    endloop
  endfacet
  facet normal -3.9101789851081936e-05 -1.0170985799414378e-05 0.99999999918380056
    outer loop
      vertex -0.99934657260133519 -0.0034588563458856376 0.99998059769059533
      vertex -0.40000000000000008 -0.40000000000000002 1
      vertex -0.57647058823529418 0.27843137254901967 1
    endloop
  endfacet
  facet normal 0 -0 1
    outer loop
      vertex -0.40000000000000008 -0.40000000000000002 1
      vertex 0.17999999999999997 0.10000000000000001 1
      vertex -0.57647058823529418 0.27843137254901967 1
    endloop
  endfacet
  facet normal 0 -0 1
    outer loop
      vertex 0.35897435897435898 -0.41025641025641013 1
      vertex 0.5 0.48000000000000004 1
      vertex 0.17999999999999997 0.10000000000000001 1
    endloop
  endfacet
  facet normal 1.7822297559946724e-06 2.5931195361076938e-05 0.99999999966219844
    outer loop
      vertex 0.35897435897435898 -0.41025641025641013 1
      vertex 0.99965709508708667 -0.33085605833583059 0.99999679921012508
      vertex 0.99958256293804593 0.33694849368318758 0.99997948237265122
    endloop
  endfacet
  facet normal -0.030999458722586276 2.2458754880797073e-05 0.99951940103957515
    outer loop
      vertex 0.99965709508708667 -0.33085605833583059 0.99999679921012508
      vertex 1 0 1
      vertex 0.99958256293804593 0.33694849368318758 0.99997948237265122
    endloop
  endfacet
  facet normal -0 0 1
    outer loop
      vertex -0.57647058823529418 0.27843137254901967 1
      vertex 0.17999999999999997 0.10000000000000001 1
      vertex -0.20666666666666667 0.5 1
    endloop
  endfacet
  facet normal 3.9287482501957054e-05 -6.2235355345842115e-06 0.99999999920888072
    outer loop
      vertex 0.35897435897435898 -0.41025641025641013 1
      vertex 0.99958256293804593 0.33694849368318758 0.99997948237265122
      vertex 0.5 0.48000000000000004 1
    endloop
  endfacet
  facet normal -0.00090582657577935029 0.0012900412370563815 0.9999987576351389
    outer loop
      vertex -0.99934657260133519 -0.0034588563458856376 0.99998059769059533
      vertex -0.57647058823529418 0.27843137254901967 1
      vertex -0.99996964756558826 0.32981360582836594 0.99955009753851565
    endloop
  endfacet
  facet normal -0.0012244032406465947 -0.0013357126261599212 0.99999835835289486
    outer loop
      vertex -0.99996964756558826 0.32981360582836594 0.99955009753851565
      vertex -0.57647058823529418 0.27843137254901967 1
      vertex -1 0.66666666666666674 1
    endloop
  endfacet
  facet normal 0 -0 1
    outer loop
      vertex 0.17999999999999997 0.10000000000000001 1
      vertex 0.5 0.48000000000000004 1
      vertex -0.20666666666666667 0.5 1
    endloop
  endfacet
  facet normal 0.0039623117461675076 0.0043225219049100073 0.99998280779721782
    outer loop
      vertex -1 0.66666666666666674 1
      vertex -0.57647058823529418 0.27843137254901967 1
      vertex -0.99988787396592882 0.99179954754039212 0.99859413755224269
    endloop
  endfacet
  facet normal -0.0034402427498204575 -7.1217254116443809e-05 0.99999407981143817
    outer loop
      vertex -0.57647058823529418 0.27843137254901967 1
      vertex -0.59308228730822865 0.99846510454468473 0.99999413051321762
      vertex -0.99988787396592882 0.99179954754039212 0.99859413755224269
    endloop
  endfacet
  facet normal -4.8175026361605245e-06 8.0405397980519935e-06 0.9999999999560707
    outer loop
      vertex -0.57647058823529418 0.27843137254901967 1
      vertex -0.20666666666666667 0.5 1
      vertex -0.59308228730822865 0.99846510454468473 0.99999413051321762
    endloop
  endfacet
  facet normal 3.9799630555045565e-05 -4.4349473276275107e-06 0.99999999919816041
    outer loop
      vertex 0.5 0.48000000000000004 1
      vertex 0.99958256293804593 0.33694849368318758 0.99997948237265122
      vertex 0.66851603281133465 0.99948582113764539 0.99999559701640217
    endloop
  endfacet
  facet normal -7.5664883052177929e-05 -6.213197695050112e-05 0.99999999520722149
    outer loop
      vertex 0.99958256293804593 0.33694849368318758 0.99997948237265122
      vertex 1 0.66666666666666674 1
      vertex 0.66851603281133465 0.99948582113764539 0.99999559701640217
    endloop
  endfacet
  facet normal 1.4585215881078849e-06 5.1534429446478702e-05 0.99999999867103762
    outer loop
      vertex -0.20666666666666667 0.5 1
      vertex 0.5 0.48000000000000004 1
      vertex -0.064212193190815531 0.99979079969416651 0.99997403579333577
    endloop
  endfacet
  facet normal 0.00098236991520574872 0.00099165823725549094 0.99999902578117061
    outer loop
      vertex 0.66851603281133465 0.99948582113764539 0.99999559701640217
      vertex 1 0.66666666666666674 1
      vertex 0.99992365755452473 0.9791829616076736 0.99969016533652011
    endloop
  endfacet
  facet normal -0.0010419382046733729 -0.14424667711139194 0.98954121213171298
    outer loop
      vertex -0.99988787396592882 0.99179954754039212 0.99859413755224269
      vertex -0.59308228730822865 0.99846510454468473 0.99999413051321762
      vertex -0.80000000000000016 1.0000000000000002 1.0000000000000002
    endloop
  endfacet
  facet normal 0.00063595102202548912 0.00050477132988309024 0.99999967038604687
    outer loop
      vertex -0.59308228730822865 0.99846510454468473 0.99999413051321762
      vertex -0.20666666666666667 0.5 1
      vertex -0.40095106611443471 0.99999781236833341 0.9998711707592407
    endloop
  endfacet
  facet normal -0.00030538872384794526 0.00013899454553067606 0.99999994370912026
    outer loop
      vertex -0.20666666666666667 0.5 1
      vertex -0.064212193190815531 0.99979079969416651 0.99997403579333577
      vertex -0.40095106611443471 0.99999781236833341 0.9998711707592407
    endloop
  endfacet
  facet normal 0.0045571989086527981 0.0049966078767032223 0.99997713266245913
    outer loop
      vertex -0.064212193190815531 0.99979079969416651 0.99997403579333577
      vertex 0.5 0.48000000000000004 1
      vertex 0.26666666666666661 0.99999413051321762 0.99846510454468473
    endloop
  endfacet
  facet normal -0.0038070189401164757 0.0012434346629485702 0.99999198020635571
    outer loop
      vertex 0.5 0.48000000000000004 1
      vertex 0.66851603281133465 0.99948582113764539 0.99999559701640217
      vertex 0.26666666666666661 0.99999413051321762 0.99846510454468473
    endloop
  endfacet
  facet normal -0.00094318879968816472 0.0013233121415540349 -0.99999867961906042
    outer loop
      vertex -0.9664017646119023 0.99989593357901507 -0.99959021080223032
      vertex -0.53428439944776807 0.9998711707592407 -0.99999781236833329
      vertex -0.99954985834604448 0.66992565893219203 -0.99999560009754962
    endloop
  endfacet
  facet normal 0.005074075215461684 0.0015080857326902452 -0.99998598962091989
    outer loop
      vertex -0.35476543209876554 0.99991730044190796 -0.99965900225126569
      vertex -0.11949790794979079 0.99999413051321762 -0.99846510454468451
      vertex -0.31851851851851859 0.65185185185185179 -1
    endloop
  endfacet
  facet normal -0.006070712487855531 0.0078790098246635607 -0.99995053260352473
    outer loop
      vertex -0.11949790794979079 0.99999413051321762 -0.99846510454468451
      vertex 0.1333333333333333 1 -1
      vertex -0.31851851851851859 0.65185185185185179 -1
    endloop
  endfacet
  facet normal 2.0306639890598138e-05 -2.6355426240989066e-05 -0.99999999944651596
    outer loop
      vertex 0.1333333333333333 1 -1
      vertex 0.39270373639305672 0.99922951816610217 -0.99999471275224672
      vertex -0.31851851851851859 0.65185185185185179 -1
    endloop
  endfacet
  facet normal -6.3991127352853133e-06 2.3186111411688998e-06 -0.99999999997683775
    outer loop
      vertex -0.99954985834604448 0.66992565893219203 -0.99999560009754962
      vertex -0.53428439944776807 0.9998711707592407 -0.99999781236833329
      vertex -0.31851851851851859 0.65185185185185179 -1
    endloop
  endfacet
  facet normal 0.0018870152087225431 0.0011762023050347092 -0.99999752785781404
    outer loop
      vertex -0.53428439944776807 0.9998711707592407 -0.99999781236833329
      vertex -0.35476543209876554 0.99991730044190796 -0.99965900225126569
      vertex -0.31851851851851859 0.65185185185185179 -1
    endloop
  endfacet
  facet normal 0.028828412251443367 0.018140074405114164 -0.99941976183565528
    outer loop
      vertex 0.72855629394202071 0.99897405738784251 -0.99999443383780351
      vertex 0.99969283247171836 0.99899059432605353 -0.99217315974562836
      vertex 0.99998443037533569 0.65351365685494567 -0.99843536436213953
    endloop
  endfacet
  facet normal 3.127053848551905e-06 8.8181186089358453e-06 -0.99999999995623123
    outer loop
      vertex -0.31851851851851859 0.65185185185185179 -1
      vertex 0.39270373639305672 0.99922951816610217 -0.99999471275224672
      vertex 0.2615384615384615 0.44615384615384612 -1
    endloop
  endfacet
  facet normal 8.3758728510756818e-07 9.3610795928639691e-06 -0.99999999995583422
    outer loop
      vertex 0.39270373639305672 0.99922951816610217 -0.99999471275224672
      vertex 0.72855629394202071 0.99897405738784251 -0.99999443383780351
      vertex 0.2615384615384615 0.44615384615384612 -1
    endloop
  endfacet
  facet normal 1.1951293462129065e-05 -2.7685259507488884e-08 -0.99999999992858291
    outer loop
      vertex 0.72855629394202071 0.99897405738784251 -0.99999443383780351
      vertex 0.99719147799823105 0.39999999999999997 -0.99999120671713215
      vertex 0.2615384615384615 0.44615384615384612 -1
    endloop
  endfacet
  facet normal 0.013366095852447912 0.0059892023714234804 -0.99989273271517354
    outer loop
      vertex 0.72855629394202071 0.99897405738784251 -0.99999443383780351
      vertex 0.99998443037533569 0.65351365685494567 -0.99843536436213953
      vertex 0.99719147799823105 0.39999999999999997 -0.99999120671713215
    endloop
  endfacet
  facet normal -3.4956462798753735e-05 -0.0010737387368287652 -0.99999942293141886
    outer loop
      vertex -0.99954985834604448 0.66992565893219203 -0.99999560009754962
      vertex -0.31851851851851859 0.65185185185185179 -1
      vertex -0.99992821076501481 0.32136133236784947 -0.9996213196359931
    endloop
  endfacet
  facet normal -0.00064897095632349307 0.0001922440088700215 -0.99999977093944326
    outer loop
      vertex -0.31851851851851859 0.65185185185185179 -1
      vertex -0.48505747126436777 0.089655172413793158 -1
      vertex -0.99992821076501481 0.32136133236784947 -0.9996213196359931
    endloop
  endfacet
  facet normal 0 -0 -1
    outer loop
      vertex -0.31851851851851859 0.65185185185185179 -1
      vertex 0.2615384615384615 0.44615384615384612 -1
      vertex -0.48505747126436777 0.089655172413793158 -1
    endloop
  endfacet
  facet normal -0.00047632260650389138 0.00057588320323742408 -0.99999972073761634
    outer loop
      vertex -0.99992821076501481 0.32136133236784947 -0.9996213196359931
      vertex -0.48505747126436777 0.089655172413793158 -1
      vertex -0.99994987889471609 0.05572227125625185 -0.99977428643110888
    endloop
  endfacet
  facet normal 0 0 -1
    outer loop
      vertex -0.48505747126436777 0.089655172413793158 -1
      vertex 0.2615384615384615 0.44615384615384612 -1
      vertex 0.14385964912280702 -0.17894736842105266 -1
    endloop
  endfacet
  facet normal 1.2366730351854268e-05 6.594025102222107e-06 -0.99999999990179134
    outer loop
      vertex 0.2615384615384615 0.44615384615384612 -1
      vertex 0.99719147799823105 0.39999999999999997 -0.99999120671713215
      vertex 0.56491228070175437 -0.12280701754385963 -1
    endloop
  endfacet
  facet normal 0 -0 -1
    outer loop
      vertex 0.2615384615384615 0.44615384615384612 -1
      vertex 0.56491228070175437 -0.12280701754385963 -1
      vertex 0.14385964912280702 -0.17894736842105266 -1
    endloop
  endfacet
  facet normal 8.1424544966974418e-05 -5.0505929004399624e-05 -0.99999999540959739
    outer loop
      vertex 0.99719147799823105 0.39999999999999997 -0.99999120671713215
      vertex 0.99979079969416662 0.064212193190815517 -0.99997403579333577
      vertex 0.56491228070175437 -0.12280701754385963 -1
    endloop
  endfacet
  facet normal 0 0 -1
    outer loop
      vertex -0.48505747126436777 0.089655172413793158 -1
      vertex 0.14385964912280702 -0.17894736842105266 -1
      vertex -0.21403508771929822 -0.51578947368421046 -1
    endloop
  endfacet
  facet normal 0.26442829012726016 0.00063409709257823839 -0.96440514168125957
    outer loop
      vertex -1 -0.26666666666666661 -1
      vertex -0.99994987889471609 0.05572227125625185 -0.99977428643110888
      vertex -0.99925464303464495 -0.52827623708537241 -0.99996764057081267
    endloop
  endfacet
  facet normal -0.00046015375476267102 0.00033053884645594728 -0.99999983950128368
    outer loop
      vertex -0.99994987889471609 0.05572227125625185 -0.99977428643110888
      vertex -0.48505747126436777 0.089655172413793158 -1
      vertex -0.99925464303464495 -0.52827623708537241 -0.99996764057081267
    endloop
  endfacet
  facet normal 2.5951293332493484e-05 7.8486838370672019e-05 -0.99999999658317329
    outer loop
      vertex 0.99979079969416662 0.064212193190815517 -0.99997403579333577
      vertex 1.0000000000000004 -0.26666666666666666 -0.99999999999999989
      vertex 0.56491228070175437 -0.12280701754385963 -1
    endloop
  endfacet
  facet normal -4.0919391241048496e-05 -1.8317233489198365e-05 -0.99999999899504122
    outer loop
      vertex -0.48505747126436777 0.089655172413793158 -1
      vertex -0.21403508771929822 -0.51578947368421046 -1
      vertex -0.99925464303464495 -0.52827623708537241 -0.99996764057081267
    endloop
  endfacet
  facet normal -5.6117111603121315e-05 -0.00016972004484923638 -0.99999998402298795
    outer loop
      vertex 0.56491228070175437 -0.12280701754385963 -1
      vertex 1.0000000000000004 -0.26666666666666666 -0.99999999999999989
      vertex 0.99986828893434376 -0.53425801640566739 -0.99995457699215062
    endloop
  endfacet
  facet normal 3.2427295247782948e-05 -3.4454001200769389e-05 -0.99999999888069613
    outer loop
      vertex 0.14385964912280702 -0.17894736842105266 -1
      vertex 0.53183683321264785 -0.99915492787864668 -0.99995915951701797
      vertex -0.21403508771929822 -0.51578947368421046 -1
    endloop
  endfacet
  facet normal 6.2451672681444752e-06 -4.6838754511083516e-05 -0.9999999988835645
    outer loop
      vertex 0.14385964912280702 -0.17894736842105266 -1
      vertex 0.56491228070175437 -0.12280701754385963 -1
      vertex 0.53183683321264785 -0.99915492787864668 -0.99995915951701797
    endloop
  endfacet
  facet normal 5.8266377503414102e-05 -4.8802158217306625e-05 -0.99999999711168941
    outer loop
      vertex 0.56491228070175437 -0.12280701754385963 -1
      vertex 0.99986828893434376 -0.53425801640566739 -0.99995457699215062
      vertex 0.53183683321264785 -0.99915492787864668 -0.99995915951701797
    endloop
  endfacet
  facet normal -0.034818143036137138 -0.0041566261363241474 -0.99938502058750001
    outer loop
      vertex -0.99925464303464495 -0.52827623708537241 -0.99996764057081267
      vertex -0.94351796053728287 -0.99910428197422663 -0.99995122210024479
      vertex -0.99999338998902731 -0.79190248149760556 -0.99884543290132932
    endloop
  endfacet
  facet normal 0.0012607179627356284 0.0001143724975171734 -0.99999919875425414
    outer loop
      vertex -0.99925464303464495 -0.52827623708537241 -0.99996764057081267
      vertex -0.52049689440993785 -0.99992570517905122 -0.99941800536454828
      vertex -0.94351796053728287 -0.99910428197422663 -0.99995122210024479
    endloop
  endfacet
  facet normal -2.2318748223834817e-05 -0.0011880011106149072 -0.99999929407736821
    outer loop
      vertex -0.99925464303464495 -0.52827623708537241 -0.99996764057081267
      vertex -0.21403508771929822 -0.51578947368421046 -1
      vertex -0.52049689440993785 -0.99992570517905122 -0.99941800536454828
    endloop
  endfacet
  facet normal 0.00050976926229219933 -0.00050334928119861403 -0.9999997433873673
    outer loop
      vertex 0.99986828893434376 -0.53425801640566739 -0.99995457699215062
      vertex 0.9997468292142252 -0.94711177185735729 -0.99974682921422509
      vertex 0.53183683321264785 -0.99915492787864668 -0.99995915951701797
    endloop
  endfacet
  facet normal 5.7313248834526164e-05 3.9470344267843133e-06 -0.99999999834980624
    outer loop
      vertex -0.21403508771929822 -0.51578947368421046 -1
      vertex 0.53183683321264785 -0.99915492787864668 -0.99995915951701797
      vertex -0.12958257713248639 -0.99974263826068388 -0.99999706993204274
    endloop
  endfacet
  facet normal -0.0014811826017257133 -0.00026452901512872862 -0.99999886806060967
    outer loop
      vertex -0.52049689440993785 -0.99992570517905122 -0.99941800536454828
      vertex -0.21403508771929822 -0.51578947368421046 -1
      vertex -0.12958257713248639 -0.99974263826068388 -0.99999706993204274
    endloop
  endfacet
  facet normal 1.9914364861312546e-05 0.042036279640021747 -0.99911608474563351
    outer loop
      vertex -0.12958257713248639 -0.99974263826068388 -0.99999706993204274
      vertex 0.53183683321264785 -0.99915492787864668 -0.99995915951701797
      vertex 0.26666666666666661 -1 -1
    endloop
  endfacet
  facet normal 0.00033271760134564961 0.001088486519091991 -0.99999935224783798
    outer loop
      vertex 0.53183683321264785 -0.99915492787864668 -0.99995915951701797
      vertex 0.9997468292142252 -0.94711177185735729 -0.99974682921422509
      vertex 0.79904893388556519 -0.99999781236833341 -0.99987117075924081
    endloop
  endfacet
  facet normal 0.99999911038184486 -0.00029484984988270574 -0.001300883962979222
    outer loop
      vertex 0.9997468292142252 -0.94711177185735729 -0.99974682921422509
      vertex 0.99986828893434376 -0.53425801640566739 -0.99995457699215062
      vertex 0.99999485888035466 -0.99910200336770061 -0.79730082716586859
    endloop
  endfacet
  facet normal 0.99999985174265738 -0.00049224917646997085 -0.00023282055643741962
    outer loop
      vertex 0.99986828893434376 -0.53425801640566739 -0.99995457699215062
      vertex 1.0000000000000004 -0.26666666666666666 -0.99999999999999989
      vertex 1 -0.46111111111111114 -0.58888888888888891
    endloop
  endfacet
  facet normal 0.99999975543158115 0.00063223286827041448 0.0002990290593181683
    outer loop
      vertex 1.0000000000000004 -0.26666666666666666 -0.99999999999999989
      vertex 0.99979079969416662 0.064212193190815517 -0.99997403579333577
      vertex 1 -0.46111111111111114 -0.58888888888888891
    endloop
  endfacet
  facet normal 0.9999684788670723 0.0077406307220642089 -0.0017674581461308448
    outer loop
      vertex 0.99979079969416662 0.064212193190815517 -0.99997403579333577
      vertex 0.99719147799823105 0.39999999999999997 -0.99999120671713215
      vertex 1 0.15757575757575756 -0.47272727272727266
    endloop
  endfacet
  facet normal 0.99988633827550877 -0.010952127958619122 -0.01036153575359402
    outer loop
      vertex 0.99719147799823105 0.39999999999999997 -0.99999120671713215
      vertex 0.99998443037533569 0.65351365685494567 -0.99843536436213953
      vertex 1 0.15757575757575756 -0.47272727272727266
    endloop
  endfacet
  facet normal 0.99999993384117536 0.00012305106842889926 -0.00034230991752296993
    outer loop
      vertex 0.99999485888035466 -0.99910200336770061 -0.79730082716586859
      vertex 0.99986828893434376 -0.53425801640566739 -0.99995457699215062
      vertex 1 -0.46111111111111114 -0.58888888888888891
    endloop
  endfacet
  facet normal 0.99999991280693634 7.7059230826814079e-05 -0.00041042416418629206
    outer loop
      vertex 1 -0.46111111111111114 -0.58888888888888891
      vertex 0.99979079969416662 0.064212193190815517 -0.99997403579333577
      vertex 1 0.15757575757575756 -0.47272727272727266
    endloop
  endfacet
  facet normal 0.99999946927428962 0.00085447757230767995 -0.00057560335066033925
    outer loop
      vertex 0.99998443037533569 0.65351365685494567 -0.99843536436213953
      vertex 0.99969283247171836 0.99899059432605353 -0.99217315974562836
      vertex 0.99995557036543381 0.9999555703654337 -0.53428439944776818
    endloop
  endfacet
  facet normal 0.99997665664283808 -0.0024765023980994833 0.0063681320089779983
    outer loop
      vertex 0.99833881116571077 -0.99999428062004647 -0.53760154206250865
      vertex 0.99999485888035466 -0.99910200336770061 -0.79730082716586859
      vertex 1 -0.46111111111111114 -0.58888888888888891
    endloop
  endfacet
  facet normal 0.99999997473439362 0.00020546755748041446 -9.1182756913880269e-05
    outer loop
      vertex 0.99998443037533569 0.65351365685494567 -0.99843536436213953
      vertex 0.99995557036543381 0.9999555703654337 -0.53428439944776818
      vertex 0.9999926090224539 0.99656970999087302 -0.13571154583812811
    endloop
  endfacet
  facet normal 0.9999818789519701 -0.0035456337315603881 -0.0048652080252693797
    outer loop
      vertex 0.99833881116571077 -0.99999428062004647 -0.53760154206250865
      vertex 1 -0.46111111111111114 -0.58888888888888891
      vertex 0.99999519881518784 -0.99948564263063 -0.19752272500249732
    endloop
  endfacet
  facet normal 1 0 0
    outer loop
      vertex 1 -0.46111111111111114 -0.58888888888888891
      vertex 1 0.15757575757575756 -0.47272727272727266
      vertex 1 0.027777777777777752 -0.044444444444444488
    endloop
  endfacet
  facet normal 0.999999999767896 1.5015838997594804e-05 -1.5450972015777044e-05
    outer loop
      vertex 1 0.15757575757575756 -0.47272727272727266
      vertex 0.99998443037533569 0.65351365685494567 -0.99843536436213953
      vertex 0.9999926090224539 0.99656970999087302 -0.13571154583812811
    endloop
  endfacet
  facet normal 0.9999999999663306 7.8532849319778863e-06 2.3800639475451856e-06
    outer loop
      vertex 1 0.15757575757575756 -0.47272727272727266
      vertex 0.9999926090224539 0.99656970999087302 -0.13571154583812811
      vertex 1 0.027777777777777752 -0.044444444444444488
    endloop
  endfacet
  facet normal 0.99999999994453381 -1.0347282684496697e-05 -1.966262612552606e-06
    outer loop
      vertex 0.99999519881518784 -0.99948564263063 -0.19752272500249732
      vertex 1 -0.46111111111111114 -0.58888888888888891
      vertex 1 -0.61777777777777776 0.23555555555555563
    endloop
  endfacet
  facet normal 1 0 -0
    outer loop
      vertex 1 -0.46111111111111114 -0.58888888888888891
      vertex 1 0.027777777777777752 -0.044444444444444488
      vertex 1 -0.61777777777777776 0.23555555555555563
    endloop
  endfacet
  facet normal 0.99999999996503153 -6.156256328021279e-06 -5.6601622930197976e-06
    outer loop
      vertex 0.99999519881518784 -0.99948564263063 -0.19752272500249732
      vertex 1 -0.61777777777777776 0.23555555555555563
      vertex 0.99999706993204274 -0.99974263826068344 0.13333333333333328
    endloop
  endfacet
  facet normal 0.99999999996368882 7.1995271529611212e-06 -4.5595150709827208e-06
    outer loop
      vertex 1 0.027777777777777752 -0.044444444444444488
      vertex 0.9999926090224539 0.99656970999087302 -0.13571154583812811
      vertex 1 0.39200000000000002 0.53066666666666662
    endloop
  endfacet
  facet normal 1 -0 0
    outer loop
      vertex 1 -0.61777777777777776 0.23555555555555563
      vertex 1 0.027777777777777752 -0.044444444444444488
      vertex 1 -0.25333333333333335 0.55200000000000016
    endloop
  endfacet
  facet normal 0.99999999647038906 -2.8794691682933703e-05 7.8930904347381694e-05
    outer loop
      vertex 0.99999706993204274 -0.99974263826068344 0.13333333333333328
      vertex 1 -0.61777777777777776 0.23555555555555563
      vertex 0.99996575356093376 -0.99991239840196688 0.5300281775950042
    endloop
  endfacet
  facet normal 1 0 -0
    outer loop
      vertex 1 0.027777777777777752 -0.044444444444444488
      vertex 1 0.39200000000000002 0.53066666666666662
      vertex 1 -0.25333333333333335 0.55200000000000016
    endloop
  endfacet
  facet normal 0.99999999996059885 3.0270285397841732e-06 -8.3450023950670419e-06
    outer loop
      vertex 0.9999926090224539 0.99656970999087302 -0.13571154583812811
      vertex 0.99999706993204274 0.99974263826068366 0.39999999999999991
      vertex 1 0.39200000000000002 0.53066666666666662
    endloop
  endfacet
  facet normal 0.99999606835123811 -0.0028041422011719666 8.2814157115537435e-06
    outer loop
      vertex 0.9999926090224539 0.99656970999087302 -0.13571154583812811
      vertex 1 1 0.1333333333333333
      vertex 0.99999706993204274 0.99974263826068366 0.39999999999999991
    endloop
  endfacet
  facet normal 0.99999999964991082 1.0081326658122349e-05 2.4465184470442303e-05
    outer loop
      vertex 1 0.39200000000000002 0.53066666666666662
      vertex 0.99999706993204274 0.99974263826068366 0.39999999999999991
      vertex 0.99999181764034972 0.99643925252605703 0.61604554865424421
    endloop
  endfacet
  facet normal 0.99999999465156342 -0.00010214111133242113 -1.6250121702072236e-05
    outer loop
      vertex 0.99996575356093376 -0.99991239840196688 0.5300281775950042
      vertex 1 -0.61777777777777776 0.23555555555555563
      vertex 0.99999433524221704 -0.79467353951890041 0.99884657386131404
    endloop
  endfacet
  facet normal 0.99999999996652567 -5.3645222203722572e-06 6.1782418830129909e-06
    outer loop
      vertex 1 -0.61777777777777776 0.23555555555555563
      vertex 1 -0.25333333333333335 0.55200000000000016
      vertex 0.99999433524221704 -0.79467353951890041 0.99884657386131404
    endloop
  endfacet
  facet normal 0.99999981292474271 -0.00058039275736547317 0.00019311842711458509
    outer loop
      vertex 0.99996575356093376 -0.99991239840196688 0.5300281775950042
      vertex 0.99999433524221704 -0.79467353951890041 0.99884657386131404
      vertex 0.99987909085750704 -0.99980945839171909 0.97909165717278845
    endloop
  endfacet
  facet normal 0.98709855964407323 0.15994412131562211 0.0073696407761461493
    outer loop
      vertex 0.99999181764034972 0.99643925252605703 0.61604554865424421
      vertex 0.99808138068085583 0.99999266314152202 0.79481171548117147
      vertex 0.99992365755452473 0.9791829616076736 0.99969016533652011
    endloop
  endfacet
  facet normal 0.9999993404584796 0.00072488697188883655 0.00089085435618424167
    outer loop
      vertex 0.99999433524221704 -0.79467353951890041 0.99884657386131404
      vertex 1 -0.25333333333333335 0.55200000000000016
      vertex 0.99965709508708667 -0.33085605833583059 0.99999679921012508
    endloop
  endfacet
  facet normal 0.12037245153094575 -0.0023743480705739296 0.99272596187652407
    outer loop
      vertex 0.99999433524221704 -0.79467353951890041 0.99884657386131404
      vertex 0.99965709508708667 -0.33085605833583059 0.99999679921012508
      vertex 0.99441524249981283 -0.59999999999999998 0.99998867335020725
    endloop
  endfacet
  facet normal 0.99999929117409536 -0.0010364221452425634 0.00058607204641692606
    outer loop
      vertex 1 -0.25333333333333335 0.55200000000000016
      vertex 1 0 1
      vertex 0.99965709508708667 -0.33085605833583059 0.99999679921012508
    endloop
  endfacet
  facet normal 1 -0 0
    outer loop
      vertex 1 -0.25333333333333335 0.55200000000000016
      vertex 1 0.39200000000000002 0.53066666666666662
      vertex 1 0 1
    endloop
  endfacet
  facet normal 0.99999869711871225 0.0012389363876552757 0.0010347934601438948
    outer loop
      vertex 1 0.39200000000000002 0.53066666666666662
      vertex 0.99958256293804593 0.33694849368318758 0.99997948237265122
      vertex 1 0 1
    endloop
  endfacet
  facet normal 0.99999892400922807 -0.0012660867659298695 0.00074094850506123053
    outer loop
      vertex 1 0.39200000000000002 0.53066666666666662
      vertex 1 0.66666666666666674 1
      vertex 0.99958256293804593 0.33694849368318758 0.99997948237265122
    endloop
  endfacet
  facet normal 0.99999999985382348 1.4756997480768814e-05 -8.6361973893135684e-06
    outer loop
      vertex 1 0.39200000000000002 0.53066666666666662
      vertex 0.99999181764034972 0.99643925252605703 0.61604554865424421
      vertex 1 0.66666666666666674 1
    endloop
  endfacet
  facet normal 0.99999995232071626 0.00024447011804377489 0.00018866087755619546
    outer loop
      vertex 0.99999181764034972 0.99643925252605703 0.61604554865424421
      vertex 0.99992365755452473 0.9791829616076736 0.99969016533652011
      vertex 1 0.66666666666666674 1
    endloop
  endfacet
  facet normal -0.98223785753050197 0.09886940206387751 -0.15947925435435414
    outer loop
      vertex -0.9664017646119023 0.99989593357901507 -0.99959021080223032
      vertex -0.99954985834604448 0.66992565893219203 -0.99999560009754962
      vertex -0.99980121808825606 0.99991923301511576 -0.79386745796241343
    endloop
  endfacet
  facet normal -0.99999945605064788 -0.00011410358231442493 -0.0010367636089248849
    outer loop
      vertex -0.99954985834604448 0.66992565893219203 -0.99999560009754962
      vertex -1 0.55294117647058827 -0.55294117647058827
      vertex -0.99980121808825606 0.99991923301511576 -0.79386745796241343
    endloop
  endfacet
  facet normal -0.9999991503191189 0.0010846820481186529 -0.00072306700562689791
    outer loop
      vertex -0.99954985834604448 0.66992565893219203 -0.99999560009754962
      vertex -0.99992821076501481 0.32136133236784947 -0.9996213196359931
      vertex -1 0.55294117647058827 -0.55294117647058827
    endloop
  endfacet
  facet normal -0.90228357496726574 -0.2440317503281744 -0.35543333436251884
    outer loop
      vertex -0.99999338998902731 -0.79190248149760556 -0.99884543290132932
      vertex -0.94351796053728287 -0.99910428197422663 -0.99995122210024479
      vertex -0.99968228752348909 -0.99993977907030562 -0.85680190930787581
    endloop
  endfacet
  facet normal -0.9999990498379232 -0.0011902440204391766 -0.00069544404677498875
    outer loop
      vertex -0.99994987889471609 0.05572227125625185 -0.99977428643110888
      vertex -0.99925464303464495 -0.52827623708537241 -0.99996764057081267
      vertex -1 -0.22564102564102562 -0.44615384615384618
    endloop
  endfacet
  facet normal -0.99999198809046919 0.0027900096715940308 -0.0028704705020767603
    outer loop
      vertex -0.99925464303464495 -0.52827623708537241 -0.99996764057081267
      vertex -0.99999338998902731 -0.79190248149760556 -0.99884543290132932
      vertex -1 -0.22564102564102562 -0.44615384615384618
    endloop
  endfacet
  facet normal -0.99999998853107586 -2.0579963876524613e-05 -0.00015004770272686438
    outer loop
      vertex -0.99992821076501481 0.32136133236784947 -0.9996213196359931
      vertex -1 -0.22564102564102562 -0.44615384615384618
      vertex -1 0.55294117647058827 -0.55294117647058827
    endloop
  endfacet
  facet normal -0.99999999546727758 8.1598069788159274e-05 -4.9063223003593762e-05
    outer loop
      vertex -0.99992821076501481 0.32136133236784947 -0.9996213196359931
      vertex -0.99994987889471609 0.05572227125625185 -0.99977428643110888
      vertex -1 -0.22564102564102562 -0.44615384615384618
    endloop
  endfacet
  facet normal -0.99999629345923469 -0.0023881769266498269 -0.001307546847774834
    outer loop
      vertex -0.99999338998902731 -0.79190248149760556 -0.99884543290132932
      vertex -0.99968228752348909 -0.99993977907030562 -0.85680190930787581
      vertex -0.99993336665000832 -0.9999333666500082 -0.66479128856624314
    endloop
  endfacet
  facet normal -0.11251078011379341 0.99365019621161821 0.00078225750113000876
    outer loop
      vertex -0.99731654111384038 0.99999076100161355 -0.52735784111248796
      vertex -0.99980121808825606 0.99991923301511576 -0.79386745796241343
      vertex -0.99999559701640206 0.99948582113764561 -0.2712900820283371
    endloop
  endfacet
  facet normal -0.99999990104610859 0.0002443415299800443 -0.00037175931706370568
    outer loop
      vertex -0.99980121808825606 0.99991923301511576 -0.79386745796241343
      vertex -1 0.55294117647058827 -0.55294117647058827
      vertex -0.99999559701640206 0.99948582113764561 -0.2712900820283371
    endloop
  endfacet
  facet normal -0.99999985322065921 -0.00038437698989601072 0.00038185467076819749
    outer loop
      vertex -1 -0.22564102564102562 -0.44615384615384618
      vertex -0.99999338998902731 -0.79190248149760556 -0.99884543290132932
      vertex -0.99966330676677817 -0.9999044570753397 -0.34380041268054767
    endloop
  endfacet
  facet normal -0.99999908190136233 0.0010623178639667706 0.00084123551295919397
    outer loop
      vertex -0.99999338998902731 -0.79190248149760556 -0.99884543290132932
      vertex -0.99993336665000832 -0.9999333666500082 -0.66479128856624314
      vertex -0.99966330676677817 -0.9999044570753397 -0.34380041268054767
    endloop
  endfacet
  facet normal -0.99999999995641553 9.2930485449147792e-06 8.9906463131856837e-07
    outer loop
      vertex -0.99999559701640206 0.99948582113764561 -0.2712900820283371
      vertex -1 0.55294117647058827 -0.55294117647058827
      vertex -0.99999530022421934 0.99931512725875726 0.060586446994213963
    endloop
  endfacet
  facet normal -1 0 0
    outer loop
      vertex -1 0.55294117647058827 -0.55294117647058827
      vertex -1 -0.22564102564102562 -0.44615384615384618
      vertex -1 0.39523809523809522 0.14761904761904759
    endloop
  endfacet
  facet normal -1 0 0
    outer loop
      vertex -1 -0.22564102564102562 -0.44615384615384618
      vertex -1 -0.38461538461538458 0.12307692307692307
      vertex -1 0.39523809523809522 0.14761904761904759
    endloop
  endfacet
  facet normal -0.99999968712674314 -0.00051430852061237363 -0.00060102675619347053
    outer loop
      vertex -1 -0.22564102564102562 -0.44615384615384618
      vertex -0.99966330676677817 -0.9999044570753397 -0.34380041268054767
      vertex -0.99982238010657198 -0.99982238010657198 -0.079201415213545609
    endloop
  endfacet
  facet normal -0.99999999996603384 8.040881730629464e-06 1.8100825327246665e-06
    outer loop
      vertex -0.99999530022421934 0.99931512725875726 0.060586446994213963
      vertex -1 0.55294117647058827 -0.55294117647058827
      vertex -1 0.39523809523809522 0.14761904761904759
    endloop
  endfacet
  facet normal -0.99999996231043564 -0.0002644336952252855 -7.3850851819674319e-05
    outer loop
      vertex -1 -0.22564102564102562 -0.44615384615384618
      vertex -0.99982238010657198 -0.99982238010657198 -0.079201415213545609
      vertex -1 -0.38461538461538458 0.12307692307692307
    endloop
  endfacet
  facet normal -0.99999989907495068 -0.00014940128643468068 -0.00042370903219823315
    outer loop
      vertex -0.99982238010657198 -0.99982238010657198 -0.079201415213545609
      vertex -0.9999401506934168 -0.99988660431389398 0.19877276326207438
      vertex -1 -0.38461538461538458 0.12307692307692307
    endloop
  endfacet
  facet normal -0.99999999787874794 1.6845107424274471e-05 6.2918569443195773e-05
    outer loop
      vertex -0.99999530022421934 0.99931512725875726 0.060586446994213963
      vertex -1 0.39523809523809522 0.14761904761904759
      vertex -0.99996575356093376 0.99991239840196688 0.5300281775950042
    endloop
  endfacet
  facet normal -1 -0 0
    outer loop
      vertex -1 0.39523809523809522 0.14761904761904759
      vertex -1 -0.38461538461538458 0.12307692307692307
      vertex -1 0.098039215686274564 0.47450980392156866
    endloop
  endfacet
  facet normal -0.99999998630648457 -0.00011223518910495198 -0.00012161534778559631
    outer loop
      vertex -1 -0.38461538461538458 0.12307692307692307
      vertex -0.9999401506934168 -0.99988660431389398 0.19877276326207438
      vertex -0.99999706993204274 -0.99974263826068344 0.66666666666666663
    endloop
  endfacet
  facet normal -0.99999999868242917 3.1235714108495245e-05 4.073661662999166e-05
    outer loop
      vertex -1 -0.38461538461538458 0.12307692307692307
      vertex -0.99999706993204274 -0.99974263826068344 0.66666666666666663
      vertex -0.99996211123024792 -0.3139003372049457 0.99894580099964869
    endloop
  endfacet
  facet normal -0.99999998517531397 -4.7952538991771562e-05 0.00016537812960248821
    outer loop
      vertex -0.99996575356093376 0.99991239840196688 0.5300281775950042
      vertex -1 0.39523809523809522 0.14761904761904759
      vertex -0.99988787396592882 0.99179954754039212 0.99859413755224269
    endloop
  endfacet
  facet normal -0.9999999983838741 -3.3464879907474001e-05 4.5960350087517936e-05
    outer loop
      vertex -1 -0.38461538461538458 0.12307692307692307
      vertex -0.99996211123024792 -0.3139003372049457 0.99894580099964869
      vertex -1 0.098039215686274564 0.47450980392156866
    endloop
  endfacet
  facet normal -0.99999999134453288 0.00012359285285451315 4.5119183583410226e-05
    outer loop
      vertex -1 0.39523809523809522 0.14761904761904759
      vertex -0.99996964756558826 0.32981360582836594 0.99955009753851565
      vertex -0.99988787396592882 0.99179954754039212 0.99859413755224269
    endloop
  endfacet
  facet normal -0.99999999832678221 4.2802678519610365e-05 3.8914860247906235e-05
    outer loop
      vertex -1 0.39523809523809522 0.14761904761904759
      vertex -1 0.098039215686274564 0.47450980392156866
      vertex -0.99996964756558826 0.32981360582836594 0.99955009753851565
    endloop
  endfacet
  facet normal -0.99999786499845644 -0.0018684222123423156 0.00088260804748998732
    outer loop
      vertex -0.99996964756558826 0.32981360582836594 0.99955009753851565
      vertex -1 0.098039215686274564 0.47450980392156866
      vertex -0.99934657260133519 -0.0034588563458856376 0.99998059769059533
    endloop
  endfacet
  facet normal -0.99999672398352135 0.0019773601334805661 0.001625444286182057
    outer loop
      vertex -1 0.098039215686274564 0.47450980392156866
      vertex -0.99996211123024792 -0.3139003372049457 0.99894580099964869
      vertex -0.99934657260133519 -0.0034588563458856376 0.99998059769059533
    endloop
  endfacet
  facet normal -0.99705964675791492 1.2505617535723417e-05 -0.076629371983538128
    outer loop
      vertex -0.99988787396592882 0.99179954754039212 0.99859413755224269
      vertex -0.99996964756558826 0.32981360582836594 0.99955009753851565
      vertex -1 0.66666666666666674 1
    endloop
  endfacet
  facet normal -0.99999836906213935 -0.00074592195319032602 0.0016448323625873292
    outer loop
      vertex -0.99996211123024792 -0.3139003372049457 0.99894580099964869
      vertex -0.99999706993204274 -0.99974263826068344 0.66666666666666663
      vertex -0.99969589709114326 -0.66851603281133476 0.99997816920074956
    endloop
  endfacet
  facet normal -0.99999957915805116 0.00091739762566030224 -8.0818910267480893e-06
    outer loop
      vertex -0.99999706993204274 -0.99974263826068344 0.66666666666666663
      vertex -1 -1 1
      vertex -0.99969589709114326 -0.66851603281133476 0.99997816920074956
    endloop
  endfacet
  facet normal -4.9544453800542366e-06 0.99999811314631937 -0.0019425960091023736
    outer loop
      vertex 0.72855629394202071 0.99897405738784251 -0.99999443383780351
      vertex 0.55714285714285727 1 -0.47142857142857153
      vertex 0.99969283247171836 0.99899059432605353 -0.99217315974562836
    endloop
  endfacet
  facet normal 0.00076063380941938377 0.99999827536201402 -0.0016943167371378739
    outer loop
      vertex 0.72855629394202071 0.99897405738784251 -0.99999443383780351
      vertex 0.39270373639305672 0.99922951816610217 -0.99999471275224672
      vertex 0.55714285714285727 1 -0.47142857142857153
    endloop
  endfacet
  facet normal 0.0026569789260130258 0.89745642752266741 0.44109511577576788
    outer loop
      vertex 0.39270373639305672 0.99922951816610217 -0.99999471275224672
      vertex 0.1333333333333333 1 -1
      vertex -0.11949790794979079 0.99999413051321762 -0.99846510454468451
    endloop
  endfacet
  facet normal 0.0014870564773904851 0.9999970505356458 -0.0019203080592613208
    outer loop
      vertex 0.39270373639305672 0.99922951816610217 -0.99999471275224672
      vertex -0.11949790794979079 0.99999413051321762 -0.99846510454468451
      vertex 0.55714285714285727 1 -0.47142857142857153
    endloop
  endfacet
  facet normal -4.7131542498234127e-05 0.99389302857780681 -0.11034783877835003
    outer loop
      vertex -0.53428439944776807 0.9998711707592407 -0.99999781236833329
      vertex -0.9664017646119023 0.99989593357901507 -0.99959021080223032
      vertex -0.35476543209876554 0.99991730044190796 -0.99965900225126569
    endloop
  endfacet
  facet normal -3.4947309334362754e-05 0.99999999231714154 -0.00011893024284469341
    outer loop
      vertex -0.35476543209876554 0.99991730044190796 -0.99965900225126569
      vertex -0.9664017646119023 0.99989593357901507 -0.99959021080223032
      vertex -0.99980121808825606 0.99991923301511576 -0.79386745796241343
    endloop
  endfacet
  facet normal -0.00019879350104820364 0.99999775982314199 -0.0021073276541004006
    outer loop
      vertex 0.99969283247171836 0.99899059432605353 -0.99217315974562836
      vertex 0.55714285714285727 1 -0.47142857142857153
      vertex 0.99995557036543381 0.9999555703654337 -0.53428439944776818
    endloop
  endfacet
  facet normal -2.3040043723409342e-06 0.99999999996389966 -8.1787565567959068e-06
    outer loop
      vertex -0.11949790794979079 0.99999413051321762 -0.99846510454468451
      vertex -0.14999999999999999 1 -0.27222222222222225
      vertex 0.55714285714285727 1 -0.47142857142857153
    endloop
  endfacet
  facet normal -0.00032645410304148225 0.99999994647639012 -2.1793011614453373e-05
    outer loop
      vertex -0.11949790794979079 0.99999413051321762 -0.99846510454468451
      vertex -0.35476543209876554 0.99991730044190796 -0.99965900225126569
      vertex -0.14999999999999999 1 -0.27222222222222225
    endloop
  endfacet
  facet normal 2.5488647809845094e-05 0.99999999237147141 -0.00012086102030756057
    outer loop
      vertex -0.35476543209876554 0.99991730044190796 -0.99965900225126569
      vertex -0.99731654111384038 0.99999076100161355 -0.52735784111248796
      vertex -0.14999999999999999 1 -0.27222222222222225
    endloop
  endfacet
  facet normal -8.2385110079382775e-05 0.9999999607961344 -0.00026761992362822856
    outer loop
      vertex -0.35476543209876554 0.99991730044190796 -0.99965900225126569
      vertex -0.99980121808825606 0.99991923301511576 -0.79386745796241343
      vertex -0.99731654111384038 0.99999076100161355 -0.52735784111248796
    endloop
  endfacet
  facet normal -6.7261315999640055e-06 0.99999999988113097 -1.3874330202863001e-05
    outer loop
      vertex -0.99731654111384038 0.99999076100161355 -0.52735784111248796
      vertex -0.65490196078431373 1 -0.027450980392156904
      vertex -0.14999999999999999 1 -0.27222222222222225
    endloop
  endfacet
  facet normal 0.0013061015646551519 0.99996306789238731 0.0084945247040557337
    outer loop
      vertex 0.99995557036543381 0.9999555703654337 -0.53428439944776818
      vertex 0.55714285714285727 1 -0.47142857142857153
      vertex 0.9999926090224539 0.99656970999087302 -0.13571154583812811
    endloop
  endfacet
  facet normal 0 1 0
    outer loop
      vertex 0.55714285714285727 1 -0.47142857142857153
      vertex -0.14999999999999999 1 -0.27222222222222225
      vertex 0.50617283950617287 1 0.14567901234567904
    endloop
  endfacet
  facet normal -0.0028621145166630555 0.99999401856039327 0.0019419433383159478
    outer loop
      vertex -0.99731654111384038 0.99999076100161355 -0.52735784111248796
      vertex -0.99999559701640206 0.99948582113764561 -0.2712900820283371
      vertex -0.65490196078431373 1 -0.027450980392156904
    endloop
  endfacet
  facet normal -0.0018533860143078913 0.99999815021066563 0.00051433017488114051
    outer loop
      vertex -0.65490196078431373 1 -0.027450980392156904
      vertex -0.99999559701640206 0.99948582113764561 -0.2712900820283371
      vertex -0.99999530022421934 0.99931512725875726 0.060586446994213963
    endloop
  endfacet
  facet normal 0.0072893250488820721 0.99997325127309244 0.00060206200032206941
    outer loop
      vertex 0.9999926090224539 0.99656970999087302 -0.13571154583812811
      vertex 0.55714285714285727 1 -0.47142857142857153
      vertex 0.50617283950617287 1 0.14567901234567904
    endloop
  endfacet
  facet normal -0.00031872086835116792 0.99991867950845481 -0.012748834734046656
    outer loop
      vertex 0.9999926090224539 0.99656970999087302 -0.13571154583812811
      vertex 0.50617283950617287 1 0.14567901234567904
      vertex 1 1 0.1333333333333333
    endloop
  endfacet
  facet normal 0 1 0
    outer loop
      vertex 0.50617283950617287 1 0.14567901234567904
      vertex -0.14999999999999999 1 -0.27222222222222225
      vertex 0.18431372549019609 1 0.41176470588235303
    endloop
  endfacet
  facet normal 0 1 0
    outer loop
      vertex -0.14999999999999999 1 -0.27222222222222225
      vertex -0.65490196078431373 1 -0.027450980392156904
      vertex -0.50107526881720421 1 0.57849462365591386
    endloop
  endfacet
  facet normal 2.4127658444984023e-05 0.9999995339936979 0.00096510633779935649
    outer loop
      vertex 1 1 0.1333333333333333
      vertex 0.50617283950617287 1 0.14567901234567904
      vertex 0.99999706993204274 0.99974263826068366 0.39999999999999991
    endloop
  endfacet
  facet normal 0 1 -0
    outer loop
      vertex -0.14999999999999999 1 -0.27222222222222225
      vertex -0.50107526881720421 1 0.57849462365591386
      vertex 0.18431372549019609 1 0.41176470588235303
    endloop
  endfacet
  facet normal -0.00018003286800412284 0.99999998274967605 4.5703542274115571e-05
    outer loop
      vertex -0.65490196078431373 1 -0.027450980392156904
      vertex -0.99996575356093376 0.99991239840196688 0.5300281775950042
      vertex -0.50107526881720421 1 0.57849462365591386
    endloop
  endfacet
  facet normal -0.0023091354862562774 0.99999652475633249 -0.0012721511560846407
    outer loop
      vertex -0.65490196078431373 1 -0.027450980392156904
      vertex -0.99999530022421934 0.99931512725875726 0.060586446994213963
      vertex -0.99996575356093376 0.99991239840196688 0.5300281775950042
    endloop
  endfacet
  facet normal 0.00084518732657812756 0.99999944489850345 -0.00062917491055114797
    outer loop
      vertex 0.99999706993204274 0.99974263826068366 0.39999999999999991
      vertex 0.50617283950617287 1 0.14567901234567904
      vertex 0.99808138068085583 0.99999266314152202 0.79481171548117147
    endloop
  endfacet
  facet normal 0.95697244911897783 0.29014452128210405 0.0044596409277113704
    outer loop
      vertex 0.99999706993204274 0.99974263826068366 0.39999999999999991
      vertex 0.99808138068085583 0.99999266314152202 0.79481171548117147
      vertex 0.99999181764034972 0.99643925252605703 0.61604554865424421
    endloop
  endfacet
  facet normal 4.2553878647310648e-06 0.99999999995832001 8.077850361988662e-06
    outer loop
      vertex 0.50617283950617287 1 0.14567901234567904
      vertex 0.26666666666666661 0.99999413051321762 0.99846510454468473
      vertex 0.99808138068085583 0.99999266314152202 0.79481171548117147
    endloop
  endfacet
  facet normal 7.4106889237993092e-06 0.99999999993236388 8.9640210999668488e-06
    outer loop
      vertex 0.50617283950617287 1 0.14567901234567904
      vertex 0.18431372549019609 1 0.41176470588235303
      vertex 0.26666666666666661 0.99999413051321762 0.99846510454468473
    endloop
  endfacet
  facet normal 2.3533055642330817e-06 0.99999999995043864 9.6739070918170347e-06
    outer loop
      vertex 0.18431372549019609 1 0.41176470588235303
      vertex -0.50107526881720421 1 0.57849462365591386
      vertex 0.26666666666666661 0.99999413051321762 0.99846510454468473
    endloop
  endfacet
  facet normal -0.00060937297473761653 0.99999917818301454 0.0011279618224901472
    outer loop
      vertex 0.26666666666666661 0.99999413051321762 0.99846510454468473
      vertex -0.50107526881720421 1 0.57849462365591386
      vertex -0.064212193190815531 0.99979079969416651 0.99997403579333577
    endloop
  endfacet
  facet normal -0.0018573905030051378 0.9998484126693522 0.017311897154733847
    outer loop
      vertex -0.50107526881720421 1 0.57849462365591386
      vertex -0.99996575356093376 0.99991239840196688 0.5300281775950042
      vertex -0.99988787396592882 0.99179954754039212 0.99859413755224269
    endloop
  endfacet
  facet normal 0.060931488928272208 0.99308763801718736 0.10032096926579133
    outer loop
      vertex 0.99808138068085583 0.99999266314152202 0.79481171548117147
      vertex 0.66851603281133465 0.99948582113764539 0.99999559701640217
      vertex 0.99992365755452473 0.9791829616076736 0.99969016533652011
    endloop
  endfacet
  facet normal 0.0012478699117801683 0.99998921086557024 0.0044744802086425827
    outer loop
      vertex 0.99808138068085583 0.99999266314152202 0.79481171548117147
      vertex 0.26666666666666661 0.99999413051321762 0.99846510454468473
      vertex 0.66851603281133465 0.99948582113764539 0.99999559701640217
    endloop
  endfacet
  facet normal 0.00061480019842064383 0.99999980108500564 -0.00014089238915893312
    outer loop
      vertex -0.50107526881720421 1 0.57849462365591386
      vertex -0.40095106611443471 0.99999781236833341 0.9998711707592407
      vertex -0.064212193190815531 0.99979079969416651 0.99997403579333577
    endloop
  endfacet
  facet normal -0.0079759167992881491 0.99996638611426658 0.0019003664869079342
    outer loop
      vertex -0.40095106611443471 0.99999781236833341 0.9998711707592407
      vertex -0.50107526881720421 1 0.57849462365591386
      vertex -0.59308228730822865 0.99846510454468473 0.99999413051321762
    endloop
  endfacet
  facet normal 0.0074177451783536677 0.99995865101296366 0.0052605437744441663
    outer loop
      vertex -0.50107526881720421 1 0.57849462365591386
      vertex -0.80000000000000016 1.0000000000000002 1.0000000000000002
      vertex -0.59308228730822865 0.99846510454468473 0.99999413051321762
    endloop
  endfacet
  facet normal -0.040770625886077688 0.99875009118171398 -0.028913862235535215
    outer loop
      vertex -0.50107526881720421 1 0.57849462365591386
      vertex -0.99988787396592882 0.99179954754039212 0.99859413755224269
      vertex -0.80000000000000016 1.0000000000000002 1.0000000000000002
    endloop
  endfacet
  facet normal -0.0019334433050864253 -0.99997638369056896 -0.0065949873478368419
    outer loop
      vertex -0.94351796053728287 -0.99910428197422663 -0.99995122210024479
      vertex -0.52049689440993785 -0.99992570517905122 -0.99941800536454828
      vertex -0.99968228752348909 -0.99993977907030562 -0.85680190930787581
    endloop
  endfacet
  facet normal 0.00046687410052686698 -0.99999942499235606 -0.00096542401634617939
    outer loop
      vertex -0.12958257713248639 -0.99974263826068388 -0.99999706993204274
      vertex 0.24137931034482768 -1 -0.55402298850574716
      vertex -0.52049689440993785 -0.99992570517905122 -0.99941800536454828
    endloop
  endfacet
  facet normal -0.00064949472280769773 -0.99999978840016546 -3.6827020365384683e-05
    outer loop
      vertex -0.12958257713248639 -0.99974263826068388 -0.99999706993204274
      vertex 0.26666666666666661 -1 -1
      vertex 0.24137931034482768 -1 -0.55402298850574716
    endloop
  endfacet
  facet normal 0.0031868609030811777 -0.99999490561987825 0.00018069829862831313
    outer loop
      vertex 0.26666666666666661 -1 -1
      vertex 0.53183683321264785 -0.99915492787864668 -0.99995915951701797
      vertex 0.24137931034482768 -1 -0.55402298850574716
    endloop
  endfacet
  facet normal 0.24742323082111622 -0.93838220641303438 -0.24128941033009751
    outer loop
      vertex 0.79904893388556519 -0.99999781236833341 -0.99987117075924081
      vertex 0.9997468292142252 -0.94711177185735729 -0.99974682921422509
      vertex 0.99999485888035466 -0.99910200336770061 -0.79730082716586859
    endloop
  endfacet
  facet normal 0.007870658530500443 -0.99996329490943903 -0.0033854937829590421
    outer loop
      vertex 0.79904893388556519 -0.99999781236833341 -0.99987117075924081
      vertex 0.99999485888035466 -0.99910200336770061 -0.79730082716586859
      vertex 0.99833881116571077 -0.99999428062004647 -0.53760154206250865
    endloop
  endfacet
  facet normal -0.0031547966869019074 -0.99999408829620073 0.0013677099526682452
    outer loop
      vertex 0.53183683321264785 -0.99915492787864668 -0.99995915951701797
      vertex 0.79904893388556519 -0.99999781236833341 -0.99987117075924081
      vertex 0.99833881116571077 -0.99999428062004647 -0.53760154206250865
    endloop
  endfacet
  facet normal 0.026360464308761666 -0.99965250028057995 6.7854342046951138e-05
    outer loop
      vertex -0.99968228752348909 -0.99993977907030562 -0.85680190930787581
      vertex -0.99966330676677817 -0.9999044570753397 -0.34380041268054767
      vertex -0.99993336665000832 -0.9999333666500082 -0.66479128856624314
    endloop
  endfacet
  facet normal 4.986224262443567e-05 -0.99999999638659698 6.8851745360209394e-05
    outer loop
      vertex -0.99968228752348909 -0.99993977907030562 -0.85680190930787581
      vertex -0.52049689440993785 -0.99992570517905122 -0.99941800536454828
      vertex -0.99966330676677817 -0.9999044570753397 -0.34380041268054767
    endloop
  endfacet
  facet normal 4.7988722517545449e-05 -0.99999826198797892 -0.0018637913252360263
    outer loop
      vertex 0.53183683321264785 -0.99915492787864668 -0.99995915951701797
      vertex 0.99833881116571077 -0.99999428062004647 -0.53760154206250865
      vertex 0.24137931034482768 -1 -0.55402298850574716
    endloop
  endfacet
  facet normal -5.2986238553284498e-05 -0.99999999569527298 -7.6170287074659628e-05
    outer loop
      vertex -0.52049689440993785 -0.99992570517905122 -0.99941800536454828
      vertex 0.24137931034482768 -1 -0.55402298850574716
      vertex -0.20701754385964918 -1 -0.24210526315789477
    endloop
  endfacet
  facet normal -0.00011400473337756247 -0.99999999220541869 -5.0912507398836742e-05
    outer loop
      vertex -0.99966330676677817 -0.9999044570753397 -0.34380041268054767
      vertex -0.52049689440993785 -0.99992570517905122 -0.99941800536454828
      vertex -0.20701754385964918 -1 -0.24210526315789477
    endloop
  endfacet
  facet normal -0.00016032170501622547 -0.99999993906827511 0.00031009739886789299
    outer loop
      vertex -0.99966330676677817 -0.9999044570753397 -0.34380041268054767
      vertex -0.20701754385964918 -1 -0.24210526315789477
      vertex -0.99982238010657198 -0.99982238010657198 -0.079201415213545609
    endloop
  endfacet
  facet normal 0 -1 0
    outer loop
      vertex -0.20701754385964918 -1 -0.24210526315789477
      vertex 0.24137931034482768 -1 -0.55402298850574716
      vertex 0.52727272727272734 -1 0.06060606060606058
    endloop
  endfacet
  facet normal 7.6327491089052195e-06 -0.99999999996456812 -3.5503572869712137e-06
    outer loop
      vertex 0.24137931034482768 -1 -0.55402298850574716
      vertex 0.99833881116571077 -0.99999428062004647 -0.53760154206250865
      vertex 0.52727272727272734 -1 0.06060606060606058
    endloop
  endfacet
  facet normal 0.0018997108199897456 -0.99999709086711863 0.0014863902919656498
    outer loop
      vertex 0.99833881116571077 -0.99999428062004647 -0.53760154206250865
      vertex 0.99999519881518784 -0.99948564263063 -0.19752272500249732
      vertex 0.52727272727272734 -1 0.06060606060606058
    endloop
  endfacet
  facet normal -0.00026099416204628743 -0.99999994976879236 -0.0001798456559882126
    outer loop
      vertex -0.99982238010657198 -0.99982238010657198 -0.079201415213545609
      vertex -0.20701754385964918 -1 -0.24210526315789477
      vertex -0.65866666666666662 -1 0.41333333333333327
    endloop
  endfacet
  facet normal -0.00018696383853404093 -0.99999995581334222 -0.00023112299019082864
    outer loop
      vertex -0.99982238010657198 -0.99982238010657198 -0.079201415213545609
      vertex -0.65866666666666662 -1 0.41333333333333327
      vertex -0.9999401506934168 -0.99988660431389398 0.19877276326207438
    endloop
  endfacet
  facet normal 0 -1 0
    outer loop
      vertex -0.20701754385964918 -1 -0.24210526315789477
      vertex -0.21739130434782608 -1 0.41449275362318844
      vertex -0.65866666666666662 -1 0.41333333333333327
    endloop
  endfacet
  facet normal 0 -1 0
    outer loop
      vertex -0.20701754385964918 -1 -0.24210526315789477
      vertex 0.52727272727272734 -1 0.06060606060606058
      vertex -0.21739130434782608 -1 0.41449275362318844
    endloop
  endfacet
  facet normal 0.00066392489194283001 -0.99999947792136812 -0.00077676298102331842
    outer loop
      vertex 0.52727272727272734 -1 0.06060606060606058
      vertex 0.99999519881518784 -0.99948564263063 -0.19752272500249732
      vertex 0.99999706993204274 -0.99974263826068344 0.13333333333333328
    endloop
  endfacet
  facet normal 0.00018651345428474938 -0.99999998260564882 -1.1972436313555276e-06
    outer loop
      vertex 0.52727272727272734 -1 0.06060606060606058
      vertex 0.99996575356093376 -0.99991239840196688 0.5300281775950042
      vertex 0.53066666666666662 -1 0.58933333333333326
    endloop
  endfacet
  facet normal 0.00061025162593649678 -0.99999972225234646 -0.00042788804977413243
    outer loop
      vertex 0.52727272727272734 -1 0.06060606060606058
      vertex 0.99999706993204274 -0.99974263826068344 0.13333333333333328
      vertex 0.99996575356093376 -0.99991239840196688 0.5300281775950042
    endloop
  endfacet
  facet normal -0.00052567802773253796 -0.99999981451455811 0.00030762551994478895
    outer loop
      vertex -0.9999401506934168 -0.99988660431389398 0.19877276326207438
      vertex -0.65866666666666662 -1 0.41333333333333327
      vertex -0.99999706993204274 -0.99974263826068344 0.66666666666666663
    endloop
  endfacet
  facet normal 0 -1 0
    outer loop
      vertex -0.21739130434782608 -1 0.41449275362318844
      vertex 0.52727272727272734 -1 0.06060606060606058
      vertex 0.53066666666666662 -1 0.58933333333333326
    endloop
  endfacet
  facet normal -2.4449666594139439e-06 -0.9999999999422966 1.0460825521577435e-05
    outer loop
      vertex -0.21739130434782608 -1 0.41449275362318844
      vertex 0.53066666666666662 -1 0.58933333333333326
      vertex -0.11949790794979079 -0.99999413051321762 0.99846510454468451
    endloop
  endfacet
  facet normal 0.00021563804763633345 -0.99999995046677392 0.00022927425098522958
    outer loop
      vertex 0.53066666666666662 -1 0.58933333333333326
      vertex 0.99996575356093376 -0.99991239840196688 0.5300281775950042
      vertex 0.99987909085750704 -0.99980945839171909 0.97909165717278845
    endloop
  endfacet
  facet normal -0.00091816458261486701 -0.99999955402336427 -0.00022119419490267267
    outer loop
      vertex -0.99999706993204274 -0.99974263826068344 0.66666666666666663
      vertex -0.65866666666666662 -1 0.41333333333333327
      vertex -0.80000000000000004 -1 1
    endloop
  endfacet
  facet normal 0 -0.99999970194234145 -0.00077208498782377929
    outer loop
      vertex -0.99999706993204274 -0.99974263826068344 0.66666666666666663
      vertex -0.80000000000000004 -1 1
      vertex -1 -1 1
    endloop
  endfacet
  facet normal 0.0020178143878143021 -0.99999784605884512 0.00048610982979162764
    outer loop
      vertex -0.65866666666666662 -1 0.41333333333333327
      vertex -0.46058644699421397 -0.99931512725875737 0.99999530022421934
      vertex -0.80000000000000004 -1 1
    endloop
  endfacet
  facet normal -3.0699995431452809e-06 -0.99999931736690395 0.0011684418261210037
    outer loop
      vertex -0.65866666666666662 -1 0.41333333333333327
      vertex -0.21739130434782608 -1 0.41449275362318844
      vertex -0.46058644699421397 -0.99931512725875737 0.99999530022421934
    endloop
  endfacet
  facet normal -0.0019891499485079683 -0.99999796264326635 0.00034349934361110451
    outer loop
      vertex -0.21739130434782608 -1 0.41449275362318844
      vertex -0.11949790794979079 -0.99999413051321762 0.99846510454468451
      vertex -0.46058644699421397 -0.99931512725875737 0.99999530022421934
    endloop
  endfacet
  facet normal -1.1287772322269749e-05 -0.99999999992984345 -3.5915639207221943e-06
    outer loop
      vertex -0.11949790794979079 -0.99999413051321762 0.99846510454468451
      vertex 0.53066666666666662 -1 0.58933333333333326
      vertex 0.39999999999999991 -1 1
    endloop
  endfacet
  facet normal -0.002047929089277133 -0.72345182307048794 0.69037183146651693
    outer loop
      vertex -0.11949790794979079 -0.99999413051321762 0.99846510454468451
      vertex 0.39999999999999991 -1 1
      vertex 0.12603706972639006 -0.99922951816610217 0.99999471275224672
    endloop
  endfacet
  facet normal 0.00091419277662642125 -0.99999953982023027 0.00029087951983567951
    outer loop
      vertex 0.53066666666666662 -1 0.58933333333333326
      vertex 0.72855629394202059 -0.99969964693921132 0.99996263722977774
      vertex 0.39999999999999991 -1 1
    endloop
  endfacet
  facet normal -0.00033600511209731305 -0.99999954449313522 0.00089337231145068569
    outer loop
      vertex 0.53066666666666662 -1 0.58933333333333326
      vertex 0.99987909085750704 -0.99980945839171909 0.97909165717278845
      vertex 0.72855629394202059 -0.99969964693921132 0.99996263722977774
    endloop
  endfacet
endsolid line_r_0_08_w_1e_03
