solid line_r_0_05_w_1e_03
  facet normal -0 6.5857783072434997e-05 0.99999999783137627
    outer loop
      vertex -1 -1 1
      vertex -0.80000000000000004 -1 1
      vertex -0.99969589709114326 -0.66851603281133476 0.99997816920074956
    endloop
  endfacet
  facet normal 0.00038973813788248531 0.00030064773426631661 0.99999987885755448
    outer loop
      vertex -0.80000000000000004 -1 1
      vertex -0.3197673749064317 -0.99989777218471665 0.99981280427370722
      vertex -0.99969589709114326 -0.66851603281133476 0.99997816920074956
    endloop
  endfacet
  facet normal 0.00091575328472793518 -0.00016254259839269786 0.99999956748781904
    outer loop
      vertex 0.25916515426497272 -0.99961395739102543 0.99999560489806416
      vertex 0.96278826966203057 -0.99953946802969884 0.99935127154794112
      vertex 0.35897435897435898 -0.41025641025641013 1
    endloop
  endfacet
  facet normal 9.7479166462084046e-05 -0.00029900879105571992 0.99999995054577628
    outer loop
      vertex -0.99969589709114326 -0.66851603281133476 0.99997816920074956
      vertex -0.3197673749064317 -0.99989777218471665 0.99981280427370722
      vertex -0.40000000000000008 -0.40000000000000002 1
    endloop
  endfacet
  facet normal 1.813763856080185e-05 -0.0010822919565107306 0.9999994141574019
    outer loop
      vertex 0.35897435897435898 -0.41025641025641013 1
      vertex 0.96278826966203057 -0.99953946802969884 0.99935127154794112
      vertex 0.99833394002189846 -0.40710194730813293 0.99999181757209099
    endloop
  endfacet
  facet normal -0.00031577717101424188 4.6020224436119127e-05 0.99999994908345724
    outer loop
      vertex -0.3197673749064317 -0.99989777218471665 0.99981280427370722
      vertex 0.25916515426497272 -0.99961395739102543 0.99999560489806416
      vertex 0.35897435897435898 -0.41025641025641013 1
    endloop
  endfacet
  facet normal -4.2244733168966023e-06 -0.000312611025450353 0.99999995112824913
    outer loop
      vertex -0.3197673749064317 -0.99989777218471665 0.99981280427370722
      vertex 0.35897435897435898 -0.41025641025641013 1
      vertex -0.40000000000000008 -0.40000000000000002 1
    endloop
  endfacet
  facet normal 0.029135400522573674 -0.0028288364864104349 0.99957147124181289
    outer loop
      vertex 0.96278826966203057 -0.99953946802969884 0.99935127154794112
      vertex 0.99999433524221704 -0.79467353951890041 0.99884657386131404
      vertex 0.99833394002189846 -0.40710194730813293 0.99999181757209099
    endloop
  endfacet
  facet normal -0.00034264722252139878 0.00068395670347956073 0.99999970739801147
    outer loop
      vertex -0.99969589709114326 -0.66851603281133476 0.99997816920074956
      vertex -0.40000000000000008 -0.40000000000000002 1
      vertex -0.99988922894321886 -0.1672399024840219 0.99963525168615741
    endloop
  endfacet
  facet normal -0 0 1
    outer loop
      vertex -0.40000000000000008 -0.40000000000000002 1
      vertex 0.35897435897435898 -0.41025641025641013 1
      vertex 0.33999999999999997 0.29000000000000004 1
    endloop
  endfacet
  facet normal -0.00060118086078231813 1.7641876275779259e-05 0.99999981913515212
    outer loop
      vertex -0.99988922894321886 -0.1672399024840219 0.99963525168615741
      vertex -0.40000000000000008 -0.40000000000000002 1
      vertex -0.37657657657657656 0.39819819819819818 1
    endloop
  endfacet
  facet normal 0 0 1
    outer loop
      vertex -0.40000000000000008 -0.40000000000000002 1
      vertex 0.33999999999999997 0.29000000000000004 1
      vertex -0.37657657657657656 0.39819819819819818 1
    endloop
  endfacet
  facet normal 1.2739391598533288e-05 1.1848556519753504e-05 0.99999999984865973
    outer loop
      vertex 0.35897435897435898 -0.41025641025641013 1
      vertex 0.99833394002189846 -0.40710194730813293 0.99999181757209099
      vertex 0.99970262924970299 0.46369944962909793 0.99998148239625229
    endloop
  endfacet
  facet normal -0.012680936949121618 3.1798991960984846e-05 0.99991959318083001
    outer loop
      vertex 0.99833394002189846 -0.40710194730813293 0.99999181757209099
      vertex 1 0 1
      vertex 0.99970262924970299 0.46369944962909793 0.99998148239625229
    endloop
  endfacet
  facet normal 2.7870779892059955e-05 7.551950611543173e-07 0.99999999961132469
    outer loop
      vertex 0.35897435897435898 -0.41025641025641013 1
      vertex 0.99970262924970299 0.46369944962909793 0.99998148239625229
      vertex 0.33999999999999997 0.29000000000000004 1
    endloop
  endfacet
  facet normal -0.00056190979723998581 -2.5648731511650992e-05 0.99999984179974855
    outer loop
      vertex -0.99988922894321886 -0.1672399024840219 0.99963525168615741
      vertex -0.37657657657657656 0.39819819819819818 1
      vertex -0.99997197009214456 0.4571815239776405 0.99965122081313895
    endloop
  endfacet
  facet normal -0.00041397639656387737 0.0015378543800815812 0.99999873181292021
    outer loop
      vertex -0.99997197009214456 0.4571815239776405 0.99965122081313895
      vertex -0.37657657657657656 0.39819819819819818 1
      vertex -0.99841387704366957 0.99613499176151132 0.99882303282549578
    endloop
  endfacet
  facet normal -0.0028832980204252494 -0.0010301767786217557 0.99999531265317954
    outer loop
      vertex -0.37657657657657656 0.39819819819819818 1
      vertex -0.59308228730822865 0.99846510454468473 0.99999413051321762
      vertex -0.99841387704366957 0.99613499176151132 0.99882303282549578
    endloop
  endfacet
  facet normal 3.0106045404442365e-05 -7.7342419548354082e-06 0.99999999951690377
    outer loop
      vertex 0.33999999999999997 0.29000000000000004 1
      vertex 0.99970262924970299 0.46369944962909793 0.99998148239625229
      vertex 0.66851603281133465 0.99948582113764539 0.99999559701640217
    endloop
  endfacet
  facet normal 1.0085790295449334e-05 6.6796316411327263e-05 0.99999999771826442
    outer loop
      vertex -0.37657657657657656 0.39819819819819818 1
      vertex 0.33999999999999997 0.29000000000000004 1
      vertex -0.19627022799735308 0.99988302433873366 0.99995799113785666
    endloop
  endfacet
  facet normal 0.097099225425249694 0.059993947803265849 0.99346487942392592
    outer loop
      vertex 0.66851603281133465 0.99948582113764539 0.99999559701640217
      vertex 0.99970262924970299 0.46369944962909793 0.99998148239625229
      vertex 0.99971094558491025 0.99930207449033615 0.96763637982195949
    endloop
  endfacet
  facet normal 9.0922164369413962e-05 4.2572152988412945e-05 0.99999999496038594
    outer loop
      vertex -0.59308228730822865 0.99846510454468473 0.99999413051321762
      vertex -0.37657657657657656 0.39819819819819818 1
      vertex -0.19627022799735308 0.99988302433873366 0.99995799113785666
    endloop
  endfacet
  facet normal 0.0032241910556691112 0.0024948422836792526 0.99999169014248113
    outer loop
      vertex -0.19627022799735308 0.99988302433873366 0.99995799113785666
      vertex 0.33999999999999997 0.29000000000000004 1
      vertex 0.26666666666666661 0.99999413051321762 0.99846510454468473
    endloop
  endfacet
  facet normal -0.0038063515461615799 0.0017686758732305397 0.999991191697988
    outer loop
      vertex 0.33999999999999997 0.29000000000000004 1
      vertex 0.66851603281133465 0.99948582113764539 0.99999559701640217
      vertex 0.26666666666666661 0.99999413051321762 0.99846510454468473
    endloop
  endfacet
  facet normal -0.023471226222587831 0.028798816640537312 -0.99930962654210065
    outer loop
      vertex -0.99662839180202945 0.99986471156998191 -0.9891387211197642
      vertex -0.53428439944776807 0.9998711707592407 -0.99999781236833329
      vertex -0.99994718089169776 0.65751107531212249 -0.9989269622089143
    endloop
  endfacet
  facet normal 0.0012102706115320471 0.0015639491380553215 -0.99999804465215847
    outer loop
      vertex -0.35476543209876554 0.99991730044190796 -0.99965900225126569
      vertex -2.0858092875900248e-17 0.99999471275224672 -0.99922951816610228
      vertex -0.075268817204301119 0.56559139784946233 -1
    endloop
  endfacet
  facet normal -0.0019444084166982962 0.0021105547577615394 -0.99999588240878456
    outer loop
      vertex -2.0858092875900248e-17 0.99999471275224672 -0.99922951816610228
      vertex 0.39270373639305672 0.99922951816610217 -0.99999471275224672
      vertex -0.075268817204301119 0.56559139784946233 -1
    endloop
  endfacet
  facet normal -0.0012961243645253945 -0.0013649119508366216 -0.99999822853692999
    outer loop
      vertex -0.99994718089169776 0.65751107531212249 -0.9989269622089143
      vertex -0.53428439944776807 0.9998711707592407 -0.99999781236833329
      vertex -0.075268817204301119 0.56559139784946233 -1
    endloop
  endfacet
  facet normal 0.001886801235613157 0.0019993074633100588 -0.99999622136824329
    outer loop
      vertex -0.53428439944776807 0.9998711707592407 -0.99999781236833329
      vertex -0.35476543209876554 0.99991730044190796 -0.99965900225126569
      vertex -0.075268817204301119 0.56559139784946233 -1
    endloop
  endfacet
  facet normal 0.02882954224317209 0.016102949459159493 -0.99945462754082293
    outer loop
      vertex 0.72855629394202071 0.99897405738784251 -0.99999443383780351
      vertex 0.99969283247171836 0.99899059432605353 -0.99217315974562836
      vertex 0.99976424815074605 0.52833937441267287 -0.99975410811190335
    endloop
  endfacet
  facet normal 8.3905241695254299e-07 1.1287278542778565e-05 -0.99999999993594668
    outer loop
      vertex 0.39270373639305672 0.99922951816610217 -0.99999471275224672
      vertex 0.72855629394202071 0.99897405738784251 -0.99999443383780351
      vertex -0.075268817204301119 0.56559139784946233 -1
    endloop
  endfacet
  facet normal 0.00021533475917153211 -0.00038655290281244402 -0.99999990210389267
    outer loop
      vertex 0.72855629394202071 0.99897405738784251 -0.99999443383780351
      vertex 0.99976424815074605 0.52833937441267287 -0.99975410811190335
      vertex -0.075268817204301119 0.56559139784946233 -1
    endloop
  endfacet
  facet normal -0.00095510982551236484 0.0020655601413840014 -0.99999741060990932
    outer loop
      vertex -0.99994718089169776 0.65751107531212249 -0.9989269622089143
      vertex -0.075268817204301119 0.56559139784946233 -1
      vertex -0.99992821076501481 0.32136133236784947 -0.9996213196359931
    endloop
  endfacet
  facet normal -0.00053008728733236878 0.00045641357896520252 -0.99999975534702645
    outer loop
      vertex -0.075268817204301119 0.56559139784946233 -1
      vertex -0.48505747126436777 0.089655172413793158 -1
      vertex -0.99992821076501481 0.32136133236784947 -0.9996213196359931
    endloop
  endfacet
  facet normal -0.00050069442897071094 0.00052172697574383786 -0.99999973855299151
    outer loop
      vertex -0.99992821076501481 0.32136133236784947 -0.9996213196359931
      vertex -0.48505747126436777 0.089655172413793158 -1
      vertex -0.99995722937844644 -0.068904529868254794 -0.99982491738780555
    endloop
  endfacet
  facet normal 0 0 -1
    outer loop
      vertex -0.48505747126436777 0.089655172413793158 -1
      vertex -0.075268817204301119 0.56559139784946233 -1
      vertex 0.35438596491228069 -0.15087719298245614 -1
    endloop
  endfacet
  facet normal 0.00023358351756339049 0.00014007630847877257 -0.99999996290868332
    outer loop
      vertex -0.075268817204301119 0.56559139784946233 -1
      vertex 0.99976424815074605 0.52833937441267287 -0.99975410811190335
      vertex 0.35438596491228069 -0.15087719298245614 -1
    endloop
  endfacet
  facet normal -1.616410658441564e-05 0.00037738159847235998 -0.99999992866092291
    outer loop
      vertex 0.99976424815074605 0.52833937441267287 -0.99975410811190335
      vertex 0.99985092059342751 -0.064416212946158485 -0.99997780457990515
      vertex 0.35438596491228069 -0.15087719298245614 -1
    endloop
  endfacet
  facet normal -3.2634494531292374e-05 -0.00011389241602520445 -0.99999999298175368
    outer loop
      vertex -0.48505747126436777 0.089655172413793158 -1
      vertex 0.35438596491228069 -0.15087719298245614 -1
      vertex -0.46346498156924693 -0.99909525517598163 -0.99987670424247488
    endloop
  endfacet
  facet normal -0.00035458245335894575 4.7249196142708955e-05 -0.99999993601939652
    outer loop
      vertex -0.99995722937844644 -0.068904529868254794 -0.99982491738780555
      vertex -0.48505747126436777 0.089655172413793158 -1
      vertex -0.9997491661448471 -0.65578718326665253 -0.99985272089875943
    endloop
  endfacet
  facet normal -0.00011872376416609573 -0.00011559976859462499 -0.99999998627068054
    outer loop
      vertex -0.48505747126436777 0.089655172413793158 -1
      vertex -0.46346498156924693 -0.99909525517598163 -0.99987670424247488
      vertex -0.9997491661448471 -0.65578718326665253 -0.99985272089875943
    endloop
  endfacet
  facet normal 4.1008676946822983e-05 -4.9435523367457374e-05 -0.99999999793720873
    outer loop
      vertex 0.35438596491228069 -0.15087719298245614 -1
      vertex 0.99985092059342751 -0.064416212946158485 -0.99997780457990515
      vertex 0.99986828893434376 -0.53425801640566739 -0.99995457699215062
    endloop
  endfacet
  facet normal -9.5212025538882447e-05 -5.3555227848572127e-05 -0.9999999940332539
    outer loop
      vertex 0.35438596491228069 -0.15087719298245614 -1
      vertex 0.41601413811854271 -0.99929838407504823 -0.99996043035276461
      vertex -0.46346498156924693 -0.99909525517598163 -0.99987670424247488
    endloop
  endfacet
  facet normal 4.4593477193517921e-05 -4.3399944519318215e-05 -0.99999999806393336
    outer loop
      vertex 0.35438596491228069 -0.15087719298245614 -1
      vertex 0.99986828893434376 -0.53425801640566739 -0.99995457699215062
      vertex 0.41601413811854271 -0.99929838407504823 -0.99996043035276461
    endloop
  endfacet
  facet normal -0.0018535007459075626 -0.0028255086574338027 -0.99999429050160671
    outer loop
      vertex -0.9997491661448471 -0.65578718326665253 -0.99985272089875943
      vertex -0.46346498156924693 -0.99909525517598163 -0.99987670424247488
      vertex -0.99445049406541908 -0.99978775755766336 -0.99889055989713282
    endloop
  endfacet
  facet normal 0.01064975945937929 -0.013358095750480588 -0.99985406130163745
    outer loop
      vertex 0.99986828893434376 -0.53425801640566739 -0.99995457699215062
      vertex 0.99805513268411084 -0.99547716440750789 -0.99381198068660481
      vertex 0.41601413811854271 -0.99929838407504823 -0.99996043035276461
    endloop
  endfacet
  facet normal -5.8620692186096673e-05 0.15349019939489916 -0.98815016837185643
    outer loop
      vertex -0.46346498156924693 -0.99909525517598163 -0.99987670424247488
      vertex 0.41601413811854271 -0.99929838407504823 -0.99996043035276461
      vertex -0.12958257713248639 -0.99974263826068388 -0.99999706993204274
    endloop
  endfacet
  facet normal 0.99999999463859368 3.6961577057038717e-05 -9.6729801459087005e-05
    outer loop
      vertex 0.99986828893434376 -0.53425801640566739 -0.99995457699215062
      vertex 0.99985092059342751 -0.064416212946158485 -0.99997780457990515
      vertex 0.99992901308458459 -0.9987139510276295 -0.5496577145866246
    endloop
  endfacet
  facet normal 0.99999996315626105 0.00014630581331139566 -0.00022865276213215272
    outer loop
      vertex 0.99985092059342751 -0.064416212946158485 -0.99997780457990515
      vertex 0.99976424815074605 0.52833937441267287 -0.99975410811190335
      vertex 1 0.089855072463768088 -0.24927536231884057
    endloop
  endfacet
  facet normal 0.99998302620248447 -0.0039877335428789937 -0.0042479745894386193
    outer loop
      vertex 0.99805513268411084 -0.99547716440750789 -0.99381198068660481
      vertex 0.99986828893434376 -0.53425801640566739 -0.99995457699215062
      vertex 0.99992901308458459 -0.9987139510276295 -0.5496577145866246
    endloop
  endfacet
  facet normal 0.99999998066868379 -1.1038744454484173e-05 -0.00019631805372898528
    outer loop
      vertex 0.99992901308458459 -0.9987139510276295 -0.5496577145866246
      vertex 0.99985092059342751 -0.064416212946158485 -0.99997780457990515
      vertex 1 0.089855072463768088 -0.24927536231884057
    endloop
  endfacet
  facet normal 0.99999982222220452 0.00016098589446256602 -0.00057414205661284379
    outer loop
      vertex 0.99976424815074605 0.52833937441267287 -0.99975410811190335
      vertex 0.99969283247171836 0.99899059432605353 -0.99217315974562836
      vertex 0.99995557036543381 0.9999555703654337 -0.53428439944776818
    endloop
  endfacet
  facet normal 0.99999994170399176 -0.00033354291410500706 -7.3083086963633348e-05
    outer loop
      vertex 0.99976424815074605 0.52833937441267287 -0.99975410811190335
      vertex 0.99995557036543381 0.9999555703654337 -0.53428439944776818
      vertex 0.99999300657144852 0.99827240113418114 -0.014360918088018548
    endloop
  endfacet
  facet normal 0.99999996083644704 7.7259774148408748e-05 -0.00026899448254400144
    outer loop
      vertex 1 0.089855072463768088 -0.24927536231884057
      vertex 0.99976424815074605 0.52833937441267287 -0.99975410811190335
      vertex 0.99999300657144852 0.99827240113418114 -0.014360918088018548
    endloop
  endfacet
  facet normal 0.99992760705859196 0.012031397899425254 -0.00016157556668644
    outer loop
      vertex 0.99999519881518784 -0.99948564263063 -0.19752272500249732
      vertex 0.99992901308458459 -0.9987139510276295 -0.5496577145866246
      vertex 0.99998906869959459 -0.99429376932870928 0.15114275009366801
    endloop
  endfacet
  facet normal 0.99999999548378737 -4.1636599236021229e-05 -8.5433124580092898e-05
    outer loop
      vertex 0.99992901308458459 -0.9987139510276295 -0.5496577145866246
      vertex 1 0.089855072463768088 -0.24927536231884057
      vertex 0.99998906869959459 -0.99429376932870928 0.15114275009366801
    endloop
  endfacet
  facet normal 0.99999999997074085 7.6471449187638887e-06 1.9849606256360216e-07
    outer loop
      vertex 1 0.089855072463768088 -0.24927536231884057
      vertex 0.99999300657144852 0.99827240113418114 -0.014360918088018548
      vertex 1 0.069333333333333386 0.54133333333333333
    endloop
  endfacet
  facet normal 0.99999999994814448 -1.0180439685221253e-05 -2.6425250392787083e-07
    outer loop
      vertex 0.99998906869959459 -0.99429376932870928 0.15114275009366801
      vertex 1 0.089855072463768088 -0.24927536231884057
      vertex 1 0.069333333333333386 0.54133333333333333
    endloop
  endfacet
  facet normal 0.99999999995048461 1.658705044745883e-06 -9.812217094503087e-06
    outer loop
      vertex 0.99999300657144852 0.99827240113418114 -0.014360918088018548
      vertex 0.99999706993204274 0.99974263826068366 0.39999999999999991
      vertex 1 0.069333333333333386 0.54133333333333333
    endloop
  endfacet
  facet normal 0.99999986975093325 7.972799755609333e-05 0.00050412455104096568
    outer loop
      vertex 1 0.069333333333333386 0.54133333333333333
      vertex 0.99999706993204274 0.99974263826068366 0.39999999999999991
      vertex 0.99971094558491025 0.99930207449033615 0.96763637982195949
    endloop
  endfacet
  facet normal 0.99999996171807015 -0.000270656656742081 5.7522450920236747e-05
    outer loop
      vertex 0.99996575356093376 -0.99991239840196688 0.5300281775950042
      vertex 0.99998906869959459 -0.99429376932870928 0.15114275009366801
      vertex 0.99999433524221704 -0.79467353951890041 0.99884657386131404
    endloop
  endfacet
  facet normal 0.9999999999530631 -8.7545281517511318e-06 -4.1511688422430498e-06
    outer loop
      vertex 0.99998906869959459 -0.99429376932870928 0.15114275009366801
      vertex 1 0.069333333333333386 0.54133333333333333
      vertex 0.99999433524221704 -0.79467353951890041 0.99884657386131404
    endloop
  endfacet
  facet normal 0.9809534342175632 -0.17796091565637553 0.077847751383795932
    outer loop
      vertex 0.99996575356093376 -0.99991239840196688 0.5300281775950042
      vertex 0.99999433524221704 -0.79467353951890041 0.99884657386131404
      vertex 0.96278826966203057 -0.99953946802969884 0.99935127154794112
    endloop
  endfacet
  facet normal 0.999958462895714 0.0042601120413921613 0.0080575386214276363
    outer loop
      vertex 0.99999433524221704 -0.79467353951890041 0.99884657386131404
      vertex 1 0.069333333333333386 0.54133333333333333
      vertex 0.99833394002189846 -0.40710194730813293 0.99999181757209099
    endloop
  endfacet
  facet normal 0.99999143457888595 -0.0040924408658810233 -0.00061862478205178305
    outer loop
      vertex 1 0.069333333333333386 0.54133333333333333
      vertex 1 0 1
      vertex 0.99833394002189846 -0.40710194730813293 0.99999181757209099
    endloop
  endfacet
  facet normal 0.99999978966551761 0.00064130436883029333 9.6941358078997896e-05
    outer loop
      vertex 1 0.069333333333333386 0.54133333333333333
      vertex 0.99970262924970299 0.46369944962909793 0.99998148239625229
      vertex 1 0 1
    endloop
  endfacet
  facet normal 0.99999980189566706 2.2461351219400555e-05 0.00062905016869444874
    outer loop
      vertex 1 0.069333333333333386 0.54133333333333333
      vertex 0.99971094558491025 0.99930207449033615 0.96763637982195949
      vertex 0.99970262924970299 0.46369944962909793 0.99998148239625229
    endloop
  endfacet
  facet normal -0.99999992577068886 -0.00035451554207330401 -0.00015092165903583324
    outer loop
      vertex -0.99995722937844644 -0.068904529868254794 -0.99982491738780555
      vertex -0.9997491661448471 -0.65578718326665253 -0.99985272089875943
      vertex -1 -0.3051282051282051 -0.16153846153846155
    endloop
  endfacet
  facet normal -0.99999999027554487 -5.6169888532865791e-05 -0.0001276473808545383
    outer loop
      vertex -0.99992821076501481 0.32136133236784947 -0.9996213196359931
      vertex -1 -0.3051282051282051 -0.16153846153846155
      vertex -0.99994718089169776 0.65751107531212249 -0.9989269622089143
    endloop
  endfacet
  facet normal -0.99999999678250251 7.4371696617503506e-05 -3.0064026121121564e-05
    outer loop
      vertex -0.99992821076501481 0.32136133236784947 -0.9996213196359931
      vertex -0.99995722937844644 -0.068904529868254794 -0.99982491738780555
      vertex -1 -0.3051282051282051 -0.16153846153846155
    endloop
  endfacet
  facet normal -0.99974599137209097 -0.015445086346236881 -0.016413471393716513
    outer loop
      vertex -0.9997491661448471 -0.65578718326665253 -0.99985272089875943
      vertex -0.99445049406541908 -0.99978775755766336 -0.99889055989713282
      vertex -0.99993336665000832 -0.9999333666500082 -0.66479128856624314
    endloop
  endfacet
  facet normal -0.1330244537528194 0.99111264493836815 -0.00046877183801552518
    outer loop
      vertex -0.99731654111384038 0.99999076100161355 -0.52735784111248796
      vertex -0.99662839180202945 0.99986471156998191 -0.9891387211197642
      vertex -0.9994937754072345 0.99991611676499126 -0.067337553427473953
    endloop
  endfacet
  facet normal -0.99994731836512363 0.0097824121168994353 -0.003108843446238001
    outer loop
      vertex -0.99662839180202945 0.99986471156998191 -0.9891387211197642
      vertex -0.99994718089169776 0.65751107531212249 -0.9989269622089143
      vertex -0.9994937754072345 0.99991611676499126 -0.067337553427473953
    endloop
  endfacet
  facet normal -0.99999992468474974 -0.00035821475283672708 -0.00014937431360525355
    outer loop
      vertex -1 -0.3051282051282051 -0.16153846153846155
      vertex -0.9997491661448471 -0.65578718326665253 -0.99985272089875943
      vertex -0.99973460397233904 -0.99987624638424444 -0.2721800396743963
    endloop
  endfacet
  facet normal -0.99999934354841802 0.0010279869060804091 0.00050610834220050352
    outer loop
      vertex -0.9997491661448471 -0.65578718326665253 -0.99985272089875943
      vertex -0.99993336665000832 -0.9999333666500082 -0.66479128856624314
      vertex -0.99973460397233904 -0.99987624638424444 -0.2721800396743963
    endloop
  endfacet
  facet normal -0.9999999991000198 2.514138156503652e-05 -3.4174133956636638e-05
    outer loop
      vertex -0.99994718089169776 0.65751107531212249 -0.9989269622089143
      vertex -1 -0.3051282051282051 -0.16153846153846155
      vertex -1 0.28296296296296297 0.27111111111111114
    endloop
  endfacet
  facet normal -0.99999966328497314 0.00079746583996239415 0.00019359280612814094
    outer loop
      vertex -0.9994937754072345 0.99991611676499126 -0.067337553427473953
      vertex -0.99994718089169776 0.65751107531212249 -0.9989269622089143
      vertex -1 0.28296296296296297 0.27111111111111114
    endloop
  endfacet
  facet normal -0.99999985592647733 -0.00031249583192040218 -0.00043645547280346964
    outer loop
      vertex -0.99973460397233904 -0.99987624638424444 -0.2721800396743963
      vertex -0.9999401506934168 -0.99988660431389398 0.19877276326207438
      vertex -1 -0.3051282051282051 -0.16153846153846155
    endloop
  endfacet
  facet normal -0.99999963239561396 0.0003331001541285358 -0.00079009678175356152
    outer loop
      vertex -0.9994937754072345 0.99991611676499126 -0.067337553427473953
      vertex -1 0.28296296296296297 0.27111111111111114
      vertex -0.99996575356093376 0.99991239840196688 0.5300281775950042
    endloop
  endfacet
  facet normal -0.99999998147449365 -0.00014920953985629809 -0.0001216039705773399
    outer loop
      vertex -1 -0.3051282051282051 -0.16153846153846155
      vertex -0.9999401506934168 -0.99988660431389398 0.19877276326207438
      vertex -0.99999706993204274 -0.99974263826068344 0.66666666666666663
    endloop
  endfacet
  facet normal -0.99999999186947286 9.5940406213953093e-05 8.4002931690388427e-05
    outer loop
      vertex -1 -0.3051282051282051 -0.16153846153846155
      vertex -0.99999706993204274 -0.99974263826068344 0.66666666666666663
      vertex -0.99988922894321886 -0.1672399024840219 0.99963525168615741
    endloop
  endfacet
  facet normal -0.99999389650046899 -0.0011443874740419452 0.0033011118003460371
    outer loop
      vertex -0.99996575356093376 0.99991239840196688 0.5300281775950042
      vertex -1 0.28296296296296297 0.27111111111111114
      vertex -0.99841387704366957 0.99613499176151132 0.99882303282549578
    endloop
  endfacet
  facet normal -0.99999999158025543 -7.6899250185990343e-05 0.00010452748072825051
    outer loop
      vertex -1 -0.3051282051282051 -0.16153846153846155
      vertex -0.99988922894321886 -0.1672399024840219 0.99963525168615741
      vertex -1 0.28296296296296297 0.27111111111111114
    endloop
  endfacet
  facet normal -0.99999561115053059 0.0028899447168654296 -0.0006526095390167715
    outer loop
      vertex -1 0.28296296296296297 0.27111111111111114
      vertex -0.99997197009214456 0.4571815239776405 0.99965122081313895
      vertex -0.99841387704366957 0.99613499176151132 0.99882303282549578
    endloop
  endfacet
  facet normal -0.99999998875917395 -0.00013251029659030268 7.0161766045880505e-05
    outer loop
      vertex -0.99997197009214456 0.4571815239776405 0.99965122081313895
      vertex -1 0.28296296296296297 0.27111111111111114
      vertex -0.99988922894321886 -0.1672399024840219 0.99963525168615741
    endloop
  endfacet
  facet normal -0.9999990991059412 -0.00038479928500054428 0.0012859692127813428
    outer loop
      vertex -0.99988922894321886 -0.1672399024840219 0.99963525168615741
      vertex -0.99999706993204274 -0.99974263826068344 0.66666666666666663
      vertex -0.99969589709114326 -0.66851603281133476 0.99997816920074956
    endloop
  endfacet
  facet normal -0.99999957915805116 0.00091739762566030224 -8.0818910267480893e-06
    outer loop
      vertex -0.99999706993204274 -0.99974263826068344 0.66666666666666663
      vertex -1 -1 1
      vertex -0.99969589709114326 -0.66851603281133476 0.99997816920074956
    endloop
  endfacet
  facet normal -4.9544453800542366e-06 0.99999811314631937 -0.0019425960091023736
    outer loop
      vertex 0.72855629394202071 0.99897405738784251 -0.99999443383780351
      vertex 0.55714285714285727 1 -0.47142857142857153
      vertex 0.99969283247171836 0.99899059432605353 -0.99217315974562836
    endloop
  endfacet
  facet normal 0.00076063380941938377 0.99999827536201402 -0.0016943167371378739
    outer loop
      vertex 0.72855629394202071 0.99897405738784251 -0.99999443383780351
      vertex 0.39270373639305672 0.99922951816610217 -0.99999471275224672
      vertex 0.55714285714285727 1 -0.47142857142857153
    endloop
  endfacet
  facet normal 0.0019445020140695776 0.99999598224785868 -0.0020626197074454494
    outer loop
      vertex 0.39270373639305672 0.99922951816610217 -0.99999471275224672
      vertex -2.0858092875900248e-17 0.99999471275224672 -0.99922951816610228
      vertex 0.55714285714285727 1 -0.47142857142857153
    endloop
  endfacet
  facet normal -0.00023887822239648782 0.99995412197413736 -0.0095758490029306809
    outer loop
      vertex -0.53428439944776807 0.9998711707592407 -0.99999781236833329
      vertex -0.99662839180202945 0.99986471156998191 -0.9891387211197642
      vertex -0.35476543209876554 0.99991730044190796 -0.99965900225126569
    endloop
  endfacet
  facet normal -0.00019879350104820364 0.99999775982314199 -0.0021073276541004006
    outer loop
      vertex 0.99969283247171836 0.99899059432605353 -0.99217315974562836
      vertex 0.55714285714285727 1 -0.47142857142857153
      vertex 0.99995557036543381 0.9999555703654337 -0.53428439944776818
    endloop
  endfacet
  facet normal -2.1751677098427233e-06 0.99999999996782418 -7.721412069601063e-06
    outer loop
      vertex -2.0858092875900248e-17 0.99999471275224672 -0.99922951816610228
      vertex -0.14999999999999999 1 -0.27222222222222225
      vertex 0.55714285714285727 1 -0.47142857142857153
    endloop
  endfacet
  facet normal -0.00021814372948877558 0.99999997483999503 -5.2281190650535082e-05
    outer loop
      vertex -2.0858092875900248e-17 0.99999471275224672 -0.99922951816610228
      vertex -0.35476543209876554 0.99991730044190796 -0.99965900225126569
      vertex -0.14999999999999999 1 -0.27222222222222225
    endloop
  endfacet
  facet normal 2.5488647809845094e-05 0.99999999237147141 -0.00012086102030756057
    outer loop
      vertex -0.35476543209876554 0.99991730044190796 -0.99965900225126569
      vertex -0.99731654111384038 0.99999076100161355 -0.52735784111248796
      vertex -0.14999999999999999 1 -0.27222222222222225
    endloop
  endfacet
  facet normal -8.6407664817798809e-05 0.99999995897710425 -0.00027309248454335326
    outer loop
      vertex -0.35476543209876554 0.99991730044190796 -0.99965900225126569
      vertex -0.99662839180202945 0.99986471156998191 -0.9891387211197642
      vertex -0.99731654111384038 0.99999076100161355 -0.52735784111248796
    endloop
  endfacet
  facet normal -5.9677798747698088e-05 0.99999998510044352 0.00016198047119860446
    outer loop
      vertex -0.99731654111384038 0.99999076100161355 -0.52735784111248796
      vertex -0.9994937754072345 0.99991611676499126 -0.067337553427473953
      vertex -0.14999999999999999 1 -0.27222222222222225
    endloop
  endfacet
  facet normal 0.00055985625435566377 0.99999460326692513 0.0032372825023050038
    outer loop
      vertex 0.99995557036543381 0.9999555703654337 -0.53428439944776818
      vertex 0.55714285714285727 1 -0.47142857142857153
      vertex 0.99999300657144852 0.99827240113418114 -0.014360918088018548
    endloop
  endfacet
  facet normal 0 1 0
    outer loop
      vertex 0.55714285714285727 1 -0.47142857142857153
      vertex -0.14999999999999999 1 -0.27222222222222225
      vertex 0.38181818181818178 1 0.24848484848484853
    endloop
  endfacet
  facet normal 0.0031174791631689157 0.99999485244281505 0.00075921771562442145
    outer loop
      vertex 0.99999300657144852 0.99827240113418114 -0.014360918088018548
      vertex 0.55714285714285727 1 -0.47142857142857153
      vertex 0.38181818181818178 1 0.24848484848484853
    endloop
  endfacet
  facet normal -0.00010965965488881101 0.99999999296339359 -4.5254532110212918e-05
    outer loop
      vertex -0.14999999999999999 1 -0.27222222222222225
      vertex -0.9994937754072345 0.99991611676499126 -0.067337553427473953
      vertex -0.50107526881720421 1 0.57849462365591386
    endloop
  endfacet
  facet normal 0.0012859783667694734 0.9999928782730535 -0.0035481914849813823
    outer loop
      vertex 0.99999300657144852 0.99827240113418114 -0.014360918088018548
      vertex 0.38181818181818178 1 0.24848484848484853
      vertex 0.99999706993204274 0.99974263826068366 0.39999999999999991
    endloop
  endfacet
  facet normal 0 1 -0
    outer loop
      vertex -0.14999999999999999 1 -0.27222222222222225
      vertex -0.50107526881720421 1 0.57849462365591386
      vertex 0.38181818181818178 1 0.24848484848484853
    endloop
  endfacet
  facet normal -0.00017618402625794638 0.9999999844610783 6.0853975485807692e-06
    outer loop
      vertex -0.9994937754072345 0.99991611676499126 -0.067337553427473953
      vertex -0.99996575356093376 0.99991239840196688 0.5300281775950042
      vertex -0.50107526881720421 1 0.57849462365591386
    endloop
  endfacet
  facet normal 0.0002260637975171235 0.99999967316471716 0.00077625100218278362
    outer loop
      vertex 0.99999706993204274 0.99974263826068366 0.39999999999999991
      vertex 0.38181818181818178 1 0.24848484848484853
      vertex 0.99971094558491025 0.99930207449033615 0.96763637982195949
    endloop
  endfacet
  facet normal 0.00095055149657193125 0.99999953640270678 0.00015377328694890684
    outer loop
      vertex 0.38181818181818178 1 0.24848484848484853
      vertex 0.26666666666666661 0.99999413051321762 0.99846510454468473
      vertex 0.99971094558491025 0.99930207449033615 0.96763637982195949
    endloop
  endfacet
  facet normal 3.1033938371096677e-06 0.9999999999607172 8.3026816163431673e-06
    outer loop
      vertex 0.38181818181818178 1 0.24848484848484853
      vertex -0.50107526881720421 1 0.57849462365591386
      vertex 0.26666666666666661 0.99999413051321762 0.99846510454468473
    endloop
  endfacet
  facet normal -0.00023855143179907212 0.99999987026583614 0.00045006835619201498
    outer loop
      vertex 0.26666666666666661 0.99999413051321762 0.99846510454468473
      vertex -0.50107526881720421 1 0.57849462365591386
      vertex -0.19627022799735308 0.99988302433873366 0.99995799113785666
    endloop
  endfacet
  facet normal -0.00095866242993002885 0.99996705326809132 0.0080606044857441071
    outer loop
      vertex -0.50107526881720421 1 0.57849462365591386
      vertex -0.99996575356093376 0.99991239840196688 0.5300281775950042
      vertex -0.99841387704366957 0.99613499176151132 0.99882303282549578
    endloop
  endfacet
  facet normal 0.0012382510256805858 0.99997476637063665 0.0069952381223392333
    outer loop
      vertex 0.99971094558491025 0.99930207449033615 0.96763637982195949
      vertex 0.26666666666666661 0.99999413051321762 0.99846510454468473
      vertex 0.66851603281133465 0.99948582113764539 0.99999559701640217
    endloop
  endfacet
  facet normal -0.0035729799289953412 0.99998952263014518 0.0028615457992957763
    outer loop
      vertex -0.19627022799735308 0.99988302433873366 0.99995799113785666
      vertex -0.50107526881720421 1 0.57849462365591386
      vertex -0.59308228730822865 0.99846510454468473 0.99999413051321762
    endloop
  endfacet
  facet normal -0.0057554378309151522 0.99998059289147756 0.0023851154654849671
    outer loop
      vertex -0.50107526881720421 1 0.57849462365591386
      vertex -0.99841387704366957 0.99613499176151132 0.99882303282549578
      vertex -0.59308228730822865 0.99846510454468473 0.99999413051321762
    endloop
  endfacet
  facet normal -0.0019388771457141732 -0.99999809899436021 0.0002067923584313951
    outer loop
      vertex -0.12958257713248639 -0.99974263826068388 -0.99999706993204274
      vertex 0.063888888888888926 -1 -0.43055555555555558
      vertex -0.46346498156924693 -0.99909525517598163 -0.99987670424247488
    endloop
  endfacet
  facet normal 0.00081430222047059278 -0.99999940301304324 -0.00072861886528896352
    outer loop
      vertex -0.12958257713248639 -0.99974263826068388 -0.99999706993204274
      vertex 0.41601413811854271 -0.99929838407504823 -0.99996043035276461
      vertex 0.063888888888888926 -1 -0.43055555555555558
    endloop
  endfacet
  facet normal 0.006642161421596255 -0.99995118361270285 -0.0073151953633733731
    outer loop
      vertex 0.41601413811854271 -0.99929838407504823 -0.99996043035276461
      vertex 0.99805513268411084 -0.99547716440750789 -0.99381198068660481
      vertex 0.99992901308458459 -0.9987139510276295 -0.5496577145866246
    endloop
  endfacet
  facet normal 0.034342099959414049 -0.99941012791656325 0.00012801631260117002
    outer loop
      vertex -0.99445049406541908 -0.99978775755766336 -0.99889055989713282
      vertex -0.99973460397233904 -0.99987624638424444 -0.2721800396743963
      vertex -0.99993336665000832 -0.9999333666500082 -0.66479128856624314
    endloop
  endfacet
  facet normal 0.0013039735424707189 -0.99999914352221597 -0.00011228461541085712
    outer loop
      vertex -0.99445049406541908 -0.99978775755766336 -0.99889055989713282
      vertex -0.46346498156924693 -0.99909525517598163 -0.99987670424247488
      vertex -0.99973460397233904 -0.99987624638424444 -0.2721800396743963
    endloop
  endfacet
  facet normal 0.0013210915656840247 -0.99999904115624938 -0.00041521519371299169
    outer loop
      vertex 0.41601413811854271 -0.99929838407504823 -0.99996043035276461
      vertex 0.99992901308458459 -0.9987139510276295 -0.5496577145866246
      vertex 0.063888888888888926 -1 -0.43055555555555558
    endloop
  endfacet
  facet normal -0.00031019616138527509 -0.99999910450462748 -0.0013018326637350343
    outer loop
      vertex -0.99973460397233904 -0.99987624638424444 -0.2721800396743963
      vertex -0.46346498156924693 -0.99909525517598163 -0.99987670424247488
      vertex 0.063888888888888926 -1 -0.43055555555555558
    endloop
  endfacet
  facet normal 0.0012761305127291999 -0.99999889039598144 -0.00076856861777423928
    outer loop
      vertex 0.063888888888888926 -1 -0.43055555555555558
      vertex 0.99992901308458459 -0.9987139510276295 -0.5496577145866246
      vertex 0.52907801418439715 -1 0.34184397163120567
    endloop
  endfacet
  facet normal -0.0014174467835952739 -0.9999965947566366 -0.0021911913989663035
    outer loop
      vertex 0.99992901308458459 -0.9987139510276295 -0.5496577145866246
      vertex 0.99999519881518784 -0.99948564263063 -0.19752272500249732
      vertex 0.52907801418439715 -1 0.34184397163120567
    endloop
  endfacet
  facet normal -0.00012787573630442957 -0.99999998882863617 -7.7398471973733689e-05
    outer loop
      vertex -0.99973460397233904 -0.99987624638424444 -0.2721800396743963
      vertex 0.063888888888888926 -1 -0.43055555555555558
      vertex -0.44722222222222219 -1 0.41388888888888886
    endloop
  endfacet
  facet normal -0.00019656691675882273 -0.99999998043697447 -2.2079352893293627e-05
    outer loop
      vertex -0.99973460397233904 -0.99987624638424444 -0.2721800396743963
      vertex -0.44722222222222219 -1 0.41388888888888886
      vertex -0.9999401506934168 -0.99988660431389398 0.19877276326207438
    endloop
  endfacet
  facet normal 0 -1 0
    outer loop
      vertex 0.063888888888888926 -1 -0.43055555555555558
      vertex 0.52907801418439715 -1 0.34184397163120567
      vertex -0.44722222222222219 -1 0.41388888888888886
    endloop
  endfacet
  facet normal 0.018142730972891749 -0.9997245725540872 0.014886918566067112
    outer loop
      vertex 0.52907801418439715 -1 0.34184397163120567
      vertex 0.99999519881518784 -0.99948564263063 -0.19752272500249732
      vertex 0.99998906869959459 -0.99429376932870928 0.15114275009366801
    endloop
  endfacet
  facet normal 0.0061114616059879607 -0.9998713956194849 -0.014827078572061796
    outer loop
      vertex 0.52907801418439715 -1 0.34184397163120567
      vertex 0.99998906869959459 -0.99429376932870928 0.15114275009366801
      vertex 0.99996575356093376 -0.99991239840196688 0.5300281775950042
    endloop
  endfacet
  facet normal -0.0003248965437363845 -0.99999989989686056 0.00030764997126007449
    outer loop
      vertex -0.9999401506934168 -0.99988660431389398 0.19877276326207438
      vertex -0.44722222222222219 -1 0.41388888888888886
      vertex -0.99999706993204274 -0.99974263826068344 0.66666666666666663
    endloop
  endfacet
  facet normal 1.2671609242485487e-05 -0.99999998517645095 0.00017171641761822625
    outer loop
      vertex -0.44722222222222219 -1 0.41388888888888886
      vertex 0.52907801418439715 -1 0.34184397163120567
      vertex -0.3197673749064317 -0.99989777218471665 0.99981280427370722
    endloop
  endfacet
  facet normal -0.00012748604687150782 -0.99999968414231832 0.00078451422647687105
    outer loop
      vertex 0.52907801418439715 -1 0.34184397163120567
      vertex 0.99996575356093376 -0.99991239840196688 0.5300281775950042
      vertex 0.96278826966203057 -0.99953946802969884 0.99935127154794112
    endloop
  endfacet
  facet normal -0.00064239403259116535 -0.99999971891416783 -0.00038665422814728909
    outer loop
      vertex -0.99999706993204274 -0.99974263826068344 0.66666666666666663
      vertex -0.44722222222222219 -1 0.41388888888888886
      vertex -0.80000000000000004 -1 1
    endloop
  endfacet
  facet normal 0 -0.99999970194234145 -0.00077208498782377929
    outer loop
      vertex -0.99999706993204274 -0.99974263826068344 0.66666666666666663
      vertex -0.80000000000000004 -1 1
      vertex -1 -1 1
    endloop
  endfacet
  facet normal 0.00021292139919143669 -0.99999996912019651 0.00012815648197778419
    outer loop
      vertex -0.44722222222222219 -1 0.41388888888888886
      vertex -0.3197673749064317 -0.99989777218471665 0.99981280427370722
      vertex -0.80000000000000004 -1 1
    endloop
  endfacet
  facet normal 0.00048998924944526037 -0.99999956987414096 0.0007875036942513367
    outer loop
      vertex -0.3197673749064317 -0.99989777218471665 0.99981280427370722
      vertex 0.52907801418439715 -1 0.34184397163120567
      vertex 0.25916515426497272 -0.99961395739102543 0.99999560489806416
    endloop
  endfacet
  facet normal 0.00010644250992734153 -0.99999979575361864 0.00063020846782594914
    outer loop
      vertex 0.52907801418439715 -1 0.34184397163120567
      vertex 0.96278826966203057 -0.99953946802969884 0.99935127154794112
      vertex 0.25916515426497272 -0.99961395739102543 0.99999560489806416
    endloop
  endfacet
endsolid line_r_0_05_w_1e_03
