solid line_w_1e_04
  facet normal 0.45076282315473387 0.027882128481914931 0.89220819553111719
    outer loop
      vertex 0.86815539939786668 -0.064395466256237724 0.16394874861088937
      vertex 0.78018007582052629 0.29149905412789306 0.19727382747615785
      vertex 0.77771519587788251 -0.16751208202293708 0.21286355617865066
    endloop
  endfacet
  facet normal 0.33240323561679053 0.030231001408956286 0.94265273325085097
    outer loop
      vertex 0.77771519587788251 -0.16751208202293708 0.21286355617865066
      vertex 0.78018007582052629 0.29149905412789306 0.19727382747615785
      vertex 0.69266375543545 0.23315167938131959 0.23000550749478124
    endloop
  endfacet
  facet normal -0.1971528872586519 0.0086607742493096367 0.98033449905375658
    outer loop
      vertex 0.69266375543545 0.23315167938131959 0.23000550749478124
      vertex 0.6004180164148728 0.1240136093901336 0.21241835370629619
      vertex 0.5736903144333303 -0.27252473607929506 0.21054642680184091
    endloop
  endfacet
  facet normal -0.59523604611852998 0.036331016910860887 0.80272916143080408
    outer loop
      vertex 0.5736903144333303 -0.27252473607929506 0.21054642680184091
      vertex 0.6004180164148728 0.1240136093901336 0.21241835370629619
      vertex 0.5313675215076562 0.10871525267954343 0.16190874142004374
    endloop
  endfacet
  facet normal 0.32914397414388169 0.00019058292191195784 -0.94427972972150653
    outer loop
      vertex 0.71760935891955369 -0.092642069626585527 -0.23000059935598252
      vertex 0.81678575585421054 0.19506384821594358 -0.19537299459689128
      vertex 0.81155378868955141 -0.18717130476762248 -0.19727382747615752
    endloop
  endfacet
  facet normal 0.82967428587390146 0.053095326080168558 -0.55571707343581966
    outer loop
      vertex 0.81678575585421054 0.19506384821594358 -0.19537299459689128
      vertex 0.88529868741234319 0.24043712279121643 -0.088749446023547937
      vertex 0.93511661269103274 -0.012256367980231711 -0.038515595701340631
    endloop
  endfacet
  facet normal 0.97842243997623635 0.11955646584038947 0.16851047571799185
    outer loop
      vertex 0.93511661269103274 -0.012256367980231711 -0.038515595701340631
      vertex 0.8827955536085077 0.29759929627120496 0.045436752607331612
      vertex 0.91938009511683005 -0.063875961079618099 0.089478927777765879
    endloop
  endfacet
  facet normal 0.81626909161221495 0.15056460616179304 0.5577051814802455
    outer loop
      vertex 0.91938009511683005 -0.063875961079618099 0.089478927777765879
      vertex 0.8827955536085077 0.29759929627120496 0.045436752607331612
      vertex 0.78018007582052629 0.29149905412789306 0.19727382747615785
    endloop
  endfacet
  facet normal 0.81425479429694358 0.14873687710742087 0.56112963863333232
    outer loop
      vertex 0.91938009511683005 -0.063875961079618099 0.089478927777765879
      vertex 0.78018007582052629 0.29149905412789306 0.19727382747615785
      vertex 0.86815539939786668 -0.064395466256237724 0.16394874861088937
    endloop
  endfacet
  facet normal 0.98156409659142618 0.18176071749255959 -0.059118236266379263
    outer loop
      vertex 0.88529868741234319 0.24043712279121643 -0.088749446023547937
      vertex 0.8827955536085077 0.29759929627120496 0.045436752607331612
      vertex 0.93511661269103274 -0.012256367980231711 -0.038515595701340631
    endloop
  endfacet
  facet normal -0.12203762987747545 -0.056533050292283268 0.99091413912535253
    outer loop
      vertex 0.69266375543545 0.23315167938131959 0.23000550749478124
      vertex 0.43917371537577815 0.45196945165274127 0.21127039531023858
      vertex 0.6004180164148728 0.1240136093901336 0.21241835370629619
    endloop
  endfacet
  facet normal -0.53225267173963331 -0.25886843031028667 0.80603612153222404
    outer loop
      vertex 0.6004180164148728 0.1240136093901336 0.21241835370629619
      vertex 0.43917371537577815 0.45196945165274127 0.21127039531023858
      vertex 0.5313675215076562 0.10871525267954343 0.16190874142004374
    endloop
  endfacet
  facet normal -0.39139897192499323 -0.14427239030237582 -0.90884119744457958
    outer loop
      vertex 0.57648829972687587 0.073979863664887555 -0.19567590877204949
      vertex 0.48047500795596598 0.55071458163188747 -0.23000550749478135
      vertex 0.71760935891955369 -0.092642069626585527 -0.23000059935598252
    endloop
  endfacet
  facet normal 0.16607907513313555 0.061207454634792276 -0.98421104865778264
    outer loop
      vertex 0.71760935891955369 -0.092642069626585527 -0.23000059935598252
      vertex 0.48047500795596598 0.55071458163188747 -0.23000550749478135
      vertex 0.81678575585421054 0.19506384821594358 -0.19537299459689128
    endloop
  endfacet
  facet normal 0.75514127312023749 0.39118036446503068 0.52606043387366852
    outer loop
      vertex 0.8827955536085077 0.29759929627120496 0.045436752607331612
      vertex 0.74287499490467379 0.56757741987622579 0.045531129684020948
      vertex 0.78018007582052629 0.29149905412789306 0.19727382747615785
    endloop
  endfacet
  facet normal -0.56168197513027107 -0.26363626680874597 0.7842252722508406
    outer loop
      vertex 0.43917371537577815 0.45196945165274127 0.21127039531023858
      vertex 0.3878777258624525 0.34028716137114645 0.13698621084702317
      vertex 0.5313675215076562 0.10871525267954343 0.16190874142004374
    endloop
  endfacet
  facet normal -0.73839435456025027 -0.39902498894044608 0.54364771254428013
    outer loop
      vertex 0.5313675215076562 0.10871525267954343 0.16190874142004374
      vertex 0.3878777258624525 0.34028716137114645 0.13698621084702317
      vertex 0.48273444370234203 0.097071579588247983 0.087308029070848669
    endloop
  endfacet
  facet normal -0.89411086958663033 -0.39269157737518828 0.21531158339863313
    outer loop
      vertex 0.48273444370234203 0.097071579588247983 0.087308029070848669
      vertex 0.3878777258624525 0.34028716137114645 0.13698621084702317
      vertex 0.35853292716384444 0.31048110462600498 -0.039233248979223749
    endloop
  endfacet
  facet normal -0.88786479487878944 -0.44297314633520524 0.12438206317927852
    outer loop
      vertex 0.48273444370234203 0.097071579588247983 0.087308029070848669
      vertex 0.35853292716384444 0.31048110462600498 -0.039233248979223749
      vertex 0.46624209599930555 0.092638802935056913 -0.046204597324128391
    endloop
  endfacet
  facet normal -0.76476788804299811 -0.36105164954382235 -0.53364012572138664
    outer loop
      vertex 0.46624209599930555 0.092638802935056913 -0.046204597324128391
      vertex 0.35853292716384444 0.31048110462600498 -0.039233248979223749
      vertex 0.43465514193297294 0.38079649216199191 -0.19589933919743266
    endloop
  endfacet
  facet normal -0.77236998238462129 -0.35742843804204338 -0.52506144591848003
    outer loop
      vertex 0.46624209599930555 0.092638802935056913 -0.046204597324128391
      vertex 0.43465514193297294 0.38079649216199191 -0.19589933919743266
      vertex 0.57648829972687587 0.073979863664887555 -0.19567590877204949
    endloop
  endfacet
  facet normal -0.26162047716690129 -0.12163743448125935 -0.95747535762534397
    outer loop
      vertex 0.57648829972687587 0.073979863664887555 -0.19567590877204949
      vertex 0.43465514193297294 0.38079649216199191 -0.19589933919743266
      vertex 0.48047500795596598 0.55071458163188747 -0.23000550749478135
    endloop
  endfacet
  facet normal 0.65236311919968204 0.35691486582584681 -0.66860611667900494
    outer loop
      vertex 0.81678575585421054 0.19506384821594358 -0.19537299459689128
      vertex 0.61297966734413556 0.62441343748042 -0.16503274654000266
      vertex 0.72589803404164188 0.56092407696997126 -0.088749446023549755
    endloop
  endfacet
  facet normal 0.71119485976046226 0.35372711382339272 -0.60751872431758758
    outer loop
      vertex 0.81678575585421054 0.19506384821594358 -0.19537299459689128
      vertex 0.72589803404164188 0.56092407696997126 -0.088749446023549755
      vertex 0.88529868741234319 0.24043712279121643 -0.088749446023547937
    endloop
  endfacet
  facet normal 0.88728662329496666 0.44130990555520244 -0.13404482601232351
    outer loop
      vertex 0.88529868741234319 0.24043712279121643 -0.088749446023547937
      vertex 0.72589803404164188 0.56092407696997126 -0.088749446023549755
      vertex 0.74287499490467379 0.56757741987622579 0.045531129684020948
    endloop
  endfacet
  facet normal 0.8738578290067972 0.45295280230660862 -0.17665291836286615
    outer loop
      vertex 0.88529868741234319 0.24043712279121643 -0.088749446023547937
      vertex 0.74287499490467379 0.56757741987622579 0.045531129684020948
      vertex 0.8827955536085077 0.29759929627120496 0.045436752607331612
    endloop
  endfacet
  facet normal 0.69697590661972664 0.41543887172508148 0.58449561970249297
    outer loop
      vertex 0.74287499490467379 0.56757741987622579 0.045531129684020948
      vertex 0.63649831766531872 0.53731788366299982 0.19388633667355681
      vertex 0.78018007582052629 0.29149905412789306 0.19727382747615785
    endloop
  endfacet
  facet normal 0.25065729417289306 0.15966766068247773 0.9548178669307088
    outer loop
      vertex 0.78018007582052629 0.29149905412789306 0.19727382747615785
      vertex 0.63649831766531872 0.53731788366299982 0.19388633667355681
      vertex 0.69266375543545 0.23315167938131959 0.23000550749478124
    endloop
  endfacet
  facet normal 0.34829546699610103 0.24114709685844374 -0.90583571653292205
    outer loop
      vertex 0.48047500795596598 0.55071458163188747 -0.23000550749478135
      vertex 0.43557075988466126 0.67738946439341674 -0.21354851214933357
      vertex 0.81678575585421054 0.19506384821594358 -0.19537299459689128
    endloop
  endfacet
  facet normal 0.31698708212781823 0.21573372093689938 -0.92356816284171017
    outer loop
      vertex 0.81678575585421054 0.19506384821594358 -0.19537299459689128
      vertex 0.43557075988466126 0.67738946439341674 -0.21354851214933357
      vertex 0.61297966734413556 0.62441343748042 -0.16503274654000266
    endloop
  endfacet
  facet normal -0.53412732710542776 -0.81444129178055669 0.22670108222509572
    outer loop
      vertex 0.3878777258624525 0.34028716137114645 0.13698621084702317
      vertex 0.23783950892008929 0.41335025900433275 0.045968082663851134
      vertex 0.35853292716384444 0.31048110462600498 -0.039233248979223749
    endloop
  endfacet
  facet normal -0.43657937475193226 -0.72232524252584984 -0.53632517519801737
    outer loop
      vertex 0.35853292716384444 0.31048110462600498 -0.039233248979223749
      vertex 0.28633163140615342 0.41790891756079229 -0.12514423471088909
      vertex 0.43465514193297294 0.38079649216199191 -0.19589933919743266
    endloop
  endfacet
  facet normal 0.55759557083820399 0.60588147049877128 0.56744587679166725
    outer loop
      vertex 0.74287499490467379 0.56757741987622579 0.045531129684020948
      vertex 0.51920182837951068 0.77351327850234164 0.045436752607331342
      vertex 0.42929398799106494 0.71717867352427045 0.19393427516355499
    endloop
  endfacet
  facet normal 0.55617261381474226 0.64058426735998897 0.52945615498674081
    outer loop
      vertex 0.74287499490467379 0.56757741987622579 0.045531129684020948
      vertex 0.42929398799106494 0.71717867352427045 0.19393427516355499
      vertex 0.63649831766531872 0.53731788366299982 0.19388633667355681
    endloop
  endfacet
  facet normal 0.15596151191253105 0.17941284666407187 0.97133260897277185
    outer loop
      vertex 0.63649831766531872 0.53731788366299982 0.19388633667355681
      vertex 0.42929398799106494 0.71717867352427045 0.19393427516355499
      vertex 0.27392622318786308 0.65700375105230424 0.22999560504797675
    endloop
  endfacet
  facet normal 0.14470936712827179 0.14298606213419823 0.97908844600510447
    outer loop
      vertex 0.63649831766531872 0.53731788366299982 0.19388633667355681
      vertex 0.27392622318786308 0.65700375105230424 0.22999560504797675
      vertex 0.69266375543545 0.23315167938131959 0.23000550749478124
    endloop
  endfacet
  facet normal -0.4101488086786908 -0.40518053459339948 0.81707202199442475
    outer loop
      vertex 0.69266375543545 0.23315167938131959 0.23000550749478124
      vertex 0.27392622318786308 0.65700375105230424 0.22999560504797675
      vertex 0.43917371537577815 0.45196945165274127 0.21127039531023858
    endloop
  endfacet
  facet normal 0.62095379353806768 0.71292674891806906 -0.32580951024762206
    outer loop
      vertex 0.61297966734413556 0.62441343748042 -0.16503274654000266
      vertex 0.45598598527016765 0.79601542521946733 -0.088749446023549811
      vertex 0.72589803404164188 0.56092407696997126 -0.088749446023549755
    endloop
  endfacet
  facet normal 0.64606642949146287 0.74175895848555851 -0.17997726576035106
    outer loop
      vertex 0.72589803404164188 0.56092407696997126 -0.088749446023549755
      vertex 0.45598598527016765 0.79601542521946733 -0.088749446023549811
      vertex 0.51920182837951068 0.77351327850234164 0.045436752607331342
    endloop
  endfacet
  facet normal 0.67237072552239074 0.73022664845522001 -0.12118848685560163
    outer loop
      vertex 0.72589803404164188 0.56092407696997126 -0.088749446023549755
      vertex 0.51920182837951068 0.77351327850234164 0.045436752607331342
      vertex 0.74287499490467379 0.56757741987622579 0.045531129684020948
    endloop
  endfacet
  facet normal -0.25508640286644185 -0.45153873793970573 0.8550109328028952
    outer loop
      vertex 0.43917371537577815 0.45196945165274127 0.21127039531023858
      vertex 0.13797656968419419 0.52740846443490119 0.16125038014524989
      vertex 0.3878777258624525 0.34028716137114645 0.13698621084702317
    endloop
  endfacet
  facet normal -0.55542665293741988 -0.77937379357205916 0.28996158900763458
    outer loop
      vertex 0.3878777258624525 0.34028716137114645 0.13698621084702317
      vertex 0.13797656968419419 0.52740846443490119 0.16125038014524989
      vertex 0.23783950892008929 0.41335025900433275 0.045968082663851134
    endloop
  endfacet
  facet normal -0.71832307769142156 -0.65962747985941339 -0.22114145669738863
    outer loop
      vertex 0.35853292716384444 0.31048110462600498 -0.039233248979223749
      vertex 0.23783950892008929 0.41335025900433275 0.045968082663851134
      vertex 0.28633163140615342 0.41790891756079229 -0.12514423471088909
    endloop
  endfacet
  facet normal -0.44896549881838488 -0.67240435382327368 -0.5884746093335419
    outer loop
      vertex 0.43465514193297294 0.38079649216199191 -0.19589933919743266
      vertex 0.28633163140615342 0.41790891756079229 -0.12514423471088909
      vertex 0.091219455623073362 0.62356150331789661 -0.21127039531023875
    endloop
  endfacet
  facet normal -0.080047455805656656 -0.17537078888716079 -0.98124282989693035
    outer loop
      vertex 0.43465514193297294 0.38079649216199191 -0.19589933919743266
      vertex 0.091219455623073362 0.62356150331789661 -0.21127039531023875
      vertex 0.48047500795596598 0.55071458163188747 -0.23000550749478135
    endloop
  endfacet
  facet normal 0.37939324739088287 0.76527118839930086 0.5200199727319349
    outer loop
      vertex 0.51920182837951068 0.77351327850234164 0.045436752607331342
      vertex 0.30131048697217372 0.88153577411960982 0.045436752607331377
      vertex 0.42929398799106494 0.71717867352427045 0.19393427516355499
    endloop
  endfacet
  facet normal -0.25236050637323815 -0.78823063947519212 0.56125451785760461
    outer loop
      vertex 0.13797656968419419 0.52740846443490119 0.16125038014524989
      vertex 0.052185079985720147 0.47545293498842367 0.049708607222588894
      vertex 0.23783950892008929 0.41335025900433275 0.045968082663851134
    endloop
  endfacet
  facet normal -0.38723322200517912 -0.912186044806372 -0.13404123035840443
    outer loop
      vertex 0.23783950892008929 0.41335025900433275 0.045968082663851134
      vertex 0.090330698494948847 0.50183411254194987 -0.13004809078921251
      vertex 0.28633163140615342 0.41790891756079229 -0.12514423471088909
    endloop
  endfacet
  facet normal 0.37422170979443625 0.73300461741324641 -0.5680337514350613
    outer loop
      vertex 0.43557075988466126 0.67738946439341674 -0.21354851214933357
      vertex 0.16249390751992512 0.85524049459607021 -0.16394874861089126
      vertex 0.61297966734413556 0.62441343748042 -0.16503274654000266
    endloop
  endfacet
  facet normal 0.30996718409724594 0.60836800111920253 -0.73062214584356122
    outer loop
      vertex 0.61297966734413556 0.62441343748042 -0.16503274654000266
      vertex 0.16249390751992512 0.85524049459607021 -0.16394874861089126
      vertex 0.45598598527016765 0.79601542521946733 -0.088749446023549811
    endloop
  endfacet
  facet normal 0.44340291707165402 0.89438459862081254 -0.058907069883299468
    outer loop
      vertex 0.45598598527016765 0.79601542521946733 -0.088749446023549811
      vertex 0.30131048697217372 0.88153577411960982 0.045436752607331377
      vertex 0.51920182837951068 0.77351327850234164 0.045436752607331342
    endloop
  endfacet
  facet normal 0.29358861796165525 0.75655341643434459 0.58432238660253855
    outer loop
      vertex 0.30131048697217372 0.88153577411960982 0.045436752607331377
      vertex 0.10440251235424183 0.8918670067627702 0.13099536190900193
      vertex 0.42929398799106494 0.71717867352427045 0.19393427516355499
    endloop
  endfacet
  facet normal 0.16340972681243529 0.58905115412699305 0.79140128822534939
    outer loop
      vertex 0.42929398799106494 0.71717867352427045 0.19393427516355499
      vertex 0.10440251235424183 0.8918670067627702 0.13099536190900193
      vertex 0.0645667897900562 0.79292644878276031 0.21286355617865049
    endloop
  endfacet
  facet normal 0.10921453877217895 0.28813099128334285 0.95134258623424317
    outer loop
      vertex 0.42929398799106494 0.71717867352427045 0.19393427516355499
      vertex 0.0645667897900562 0.79292644878276031 0.21286355617865049
      vertex 0.27392622318786308 0.65700375105230424 0.22999560504797675
    endloop
  endfacet
  facet normal -0.046791299207469703 -0.12818439413779636 0.99064591828665149
    outer loop
      vertex 0.27392622318786308 0.65700375105230424 0.22999560504797675
      vertex -0.0083166583002121531 0.62139628720095363 0.21205697332354495
      vertex 0.43917371537577815 0.45196945165274127 0.21127039531023858
    endloop
  endfacet
  facet normal -0.28721766802129967 -0.76129848695262392 0.58131800672269884
    outer loop
      vertex 0.43917371537577815 0.45196945165274127 0.21127039531023858
      vertex -0.0083166583002121531 0.62139628720095363 0.21205697332354495
      vertex 0.13797656968419419 0.52740846443490119 0.16125038014524989
    endloop
  endfacet
  facet normal -0.21146763306817176 -0.54141377085415909 -0.81372757658446426
    outer loop
      vertex 0.28633163140615342 0.41790891756079229 -0.12514423471088909
      vertex 0.090330698494948847 0.50183411254194987 -0.13004809078921251
      vertex 0.091219455623073362 0.62356150331789661 -0.21127039531023875
    endloop
  endfacet
  facet normal 0.27924946482880419 0.87122528048920411 -0.4037155521271556
    outer loop
      vertex 0.16249390751992512 0.85524049459607021 -0.16394874861089126
      vertex 0.099435929324653713 0.92677124165824132 -0.053201247621520842
      vertex 0.45598598527016765 0.79601542521946733 -0.088749446023549811
    endloop
  endfacet
  facet normal 0.31586140257857626 0.92208685102072352 -0.22357865178898556
    outer loop
      vertex 0.45598598527016765 0.79601542521946733 -0.088749446023549811
      vertex 0.099435929324653713 0.92677124165824132 -0.053201247621520842
      vertex 0.30131048697217372 0.88153577411960982 0.045436752607331377
    endloop
  endfacet
  facet normal 0.12988943077801429 0.97482681707753471 0.1812219977779905
    outer loop
      vertex 0.30131048697217372 0.88153577411960982 0.045436752607331377
      vertex 0.099435929324653713 0.92677124165824132 -0.053201247621520842
      vertex 0.10440251235424183 0.8918670067627702 0.13099536190900193
    endloop
  endfacet
  facet normal -0.31430933761042174 -0.92740485982779408 -0.20280499564529297
    outer loop
      vertex 0.23783950892008929 0.41335025900433275 0.045968082663851134
      vertex 0.052185079985720147 0.47545293498842367 0.049708607222588894
      vertex 0.090330698494948847 0.50183411254194987 -0.13004809078921251
    endloop
  endfacet
  facet normal -0.1781922961635298 -0.80757688100423053 -0.56219844081556103
    outer loop
      vertex 0.091219455623073362 0.62356150331789661 -0.21127039531023875
      vertex -0.18902710059115937 0.69843718423042833 -0.23000059935598258
      vertex 0.48047500795596598 0.55071458163188747 -0.23000550749478135
    endloop
  endfacet
  facet normal 0.038592315522258926 0.17493914200812613 -0.98382261092947587
    outer loop
      vertex 0.48047500795596598 0.55071458163188747 -0.23000550749478135
      vertex -0.18902710059115937 0.69843718423042833 -0.23000059935598258
      vertex -0.17099164577588769 0.78698172177792891 -0.21354851214933396
    endloop
  endfacet
  facet normal 0.024833196837086818 0.13744477915894865 -0.99019808372708862
    outer loop
      vertex 0.48047500795596598 0.55071458163188747 -0.23000550749478135
      vertex -0.17099164577588769 0.78698172177792891 -0.21354851214933396
      vertex 0.43557075988466126 0.67738946439341674 -0.21354851214933357
    endloop
  endfacet
  facet normal 0.064918753842317073 0.35930709379333742 -0.93095862837687171
    outer loop
      vertex 0.43557075988466126 0.67738946439341674 -0.21354851214933357
      vertex -0.17099164577588769 0.78698172177792891 -0.21354851214933396
      vertex 0.16249390751992512 0.85524049459607021 -0.16394874861089126
    endloop
  endfacet
  facet normal 0.0081039890485637908 0.63554490437372702 0.77202137268737014
    outer loop
      vertex 0.10440251235424183 0.8918670067627702 0.13099536190900193
      vertex -0.16249390751992754 0.85524049459606954 0.16394874861089093
      vertex 0.0645667897900562 0.79292644878276031 0.21286355617865049
    endloop
  endfacet
  facet normal 0.0066233533782636004 0.1350863118217713 0.99081169732114982
    outer loop
      vertex 0.0645667897900562 0.79292644878276031 0.21286355617865049
      vertex -0.30962024947242101 0.68787926962548596 0.22968694354408628
      vertex 0.27392622318786308 0.65700375105230424 0.22999560504797675
    endloop
  endfacet
  facet normal -0.018062819790083992 -0.33195846051465017 0.94312105004287439
    outer loop
      vertex 0.27392622318786308 0.65700375105230424 0.22999560504797675
      vertex -0.30962024947242101 0.68787926962548596 0.22968694354408628
      vertex -0.0083166583002121531 0.62139628720095363 0.21205697332354495
    endloop
  endfacet
  facet normal -0.06514195660164214 0.98063339200716204 0.18470158626995459
    outer loop
      vertex 0.099435929324653713 0.92677124165824132 -0.053201247621520842
      vertex -0.24384311742951473 0.90252308540570225 -0.045531129684020538
      vertex -0.29281783738650291 0.87384072450828787 0.089478927777764172
    endloop
  endfacet
  facet normal -0.064075039085070062 0.9801789774431543 0.18746616106577499
    outer loop
      vertex 0.099435929324653713 0.92677124165824132 -0.053201247621520842
      vertex -0.29281783738650291 0.87384072450828787 0.089478927777764172
      vertex 0.10440251235424183 0.8918670067627702 0.13099536190900193
    endloop
  endfacet
  facet normal -0.080884502751406517 0.92451488982979668 0.37246465026584286
    outer loop
      vertex 0.10440251235424183 0.8918670067627702 0.13099536190900193
      vertex -0.29281783738650291 0.87384072450828787 0.089478927777764172
      vertex -0.16249390751992754 0.85524049459606954 0.16394874861089093
    endloop
  endfacet
  facet normal -0.013267025857736444 -0.49139441797913797 0.87083609939174789
    outer loop
      vertex -0.0083166583002121531 0.62139628720095363 0.21205697332354495
      vertex -0.16402345895181211 0.48313554657918506 0.13166719347109515
      vertex 0.13797656968419419 0.52740846443490119 0.16125038014524989
    endloop
  endfacet
  facet normal 0.10148879013436649 -0.92939870535868963 0.35484936516028021
    outer loop
      vertex 0.13797656968419419 0.52740846443490119 0.16125038014524989
      vertex -0.16402345895181211 0.48313554657918506 0.13166719347109515
      vertex 0.052185079985720147 0.47545293498842367 0.049708607222588894
    endloop
  endfacet
  facet normal 0.068231186181367087 -0.98907421391544548 -0.13067786576091289
    outer loop
      vertex 0.052185079985720147 0.47545293498842367 0.049708607222588894
      vertex -0.16405757482301001 0.48445457103665623 -0.13133030706646287
      vertex 0.090330698494948847 0.50183411254194987 -0.13004809078921251
    endloop
  endfacet
  facet normal 0.042088618181546751 -0.55475546258295672 -0.830948208346307
    outer loop
      vertex 0.090330698494948847 0.50183411254194987 -0.13004809078921251
      vertex -0.16405757482301001 0.48445457103665623 -0.13133030706646287
      vertex 0.091219455623073362 0.62356150331789661 -0.21127039531023875
    endloop
  endfacet
  facet normal -0.078789031618122327 0.80860416808911961 -0.58305367492674409
    outer loop
      vertex -0.17099164577588769 0.78698172177792891 -0.21354851214933396
      vertex -0.34230563164391042 0.80527204597471491 -0.16503274654000355
      vertex 0.16249390751992512 0.85524049459607021 -0.16394874861089126
    endloop
  endfacet
  facet normal -0.078304082432318678 0.80384830268145735 -0.58965784735774762
    outer loop
      vertex 0.16249390751992512 0.85524049459607021 -0.16394874861089126
      vertex -0.34230563164391042 0.80527204597471491 -0.16503274654000355
      vertex -0.24384311742951473 0.90252308540570225 -0.045531129684020538
    endloop
  endfacet
  facet normal -0.070579783552033815 0.81912703720044566 -0.56925336281920014
    outer loop
      vertex 0.16249390751992512 0.85524049459607021 -0.16394874861089126
      vertex -0.24384311742951473 0.90252308540570225 -0.045531129684020538
      vertex 0.099435929324653713 0.92677124165824132 -0.053201247621520842
    endloop
  endfacet
  facet normal -0.078263231062145763 0.42333058182619138 0.90258854698827828
    outer loop
      vertex -0.16249390751992754 0.85524049459606954 0.16394874861089093
      vertex -0.30962024947242101 0.68787926962548596 0.22968694354408628
      vertex 0.0645667897900562 0.79292644878276031 0.21286355617865049
    endloop
  endfacet
  facet normal 0.10532670635173916 -0.92519606700330115 0.36457992612144435
    outer loop
      vertex 0.052185079985720147 0.47545293498842367 0.049708607222588894
      vertex -0.16402345895181211 0.48313554657918506 0.13166719347109515
      vertex -0.21008368042003867 0.42600756152344965 -2.8027785283178898e-17
    endloop
  endfacet
  facet normal 0.23439378669843614 -0.91602228906101879 -0.32551915258641761
    outer loop
      vertex 0.052185079985720147 0.47545293498842367 0.049708607222588894
      vertex -0.21008368042003867 0.42600756152344965 -2.8027785283178898e-17
      vertex -0.16405757482301001 0.48445457103665623 -0.13133030706646287
    endloop
  endfacet
  facet normal 0.037248879267819404 -0.09498297947022484 0.99478176229977722
    outer loop
      vertex -0.30962024947242101 0.68787926962548596 0.22968694354408628
      vertex -0.4519694516527421 0.43917371537577782 0.21127039531023872
      vertex -0.0083166583002121531 0.62139628720095363 0.21205697332354495
    endloop
  endfacet
  facet normal 0.28729030900461716 -0.70227029955854403 0.6513683325968378
    outer loop
      vertex -0.0083166583002121531 0.62139628720095363 0.21205697332354495
      vertex -0.4519694516527421 0.43917371537577782 0.21127039531023872
      vertex -0.16402345895181211 0.48313554657918506 0.13166719347109515
    endloop
  endfacet
  facet normal 0.17776599402622112 -0.71486288975848988 -0.67629157928663486
    outer loop
      vertex -0.16405757482301001 0.48445457103665623 -0.13133030706646287
      vertex -0.3368698185621854 0.51802528742571496 -0.2122400822185645
      vertex 0.091219455623073362 0.62356150331789661 -0.21127039531023875
    endloop
  endfacet
  facet normal 0.032974653662548356 -0.12464443732836655 -0.99165338524049307
    outer loop
      vertex 0.091219455623073362 0.62356150331789661 -0.21127039531023875
      vertex -0.3368698185621854 0.51802528742571496 -0.2122400822185645
      vertex -0.18902710059115937 0.69843718423042833 -0.23000059935598258
    endloop
  endfacet
  facet normal -0.44396332742453959 0.89556862778055213 0.029212956669771587
    outer loop
      vertex -0.24384311742951473 0.90252308540570225 -0.045531129684020538
      vertex -0.57066229744866248 0.74050788508873189 -0.045531129684020885
      vertex -0.29281783738650291 0.87384072450828787 0.089478927777764172
    endloop
  endfacet
  facet normal -0.29616679395063411 0.66599448297157304 0.68464339536172392
    outer loop
      vertex -0.29281783738650291 0.87384072450828787 0.089478927777764172
      vertex -0.48408343630735018 0.6749392285143182 0.20022385028049561
      vertex -0.16249390751992754 0.85524049459606954 0.16394874861089093
    endloop
  endfacet
  facet normal -0.18030873892704385 0.49286129772810067 0.85122059412840312
    outer loop
      vertex -0.16249390751992754 0.85524049459606954 0.16394874861089093
      vertex -0.48408343630735018 0.6749392285143182 0.20022385028049561
      vertex -0.30962024947242101 0.68787926962548596 0.22968694354408628
    endloop
  endfacet
  facet normal 0.30082552887570552 -0.42001766481078628 0.85620626161197044
    outer loop
      vertex -0.4519694516527421 0.43917371537577782 0.21127039531023872
      vertex -0.3877608435294686 0.38319544669099692 0.16125038014524995
      vertex -0.16402345895181211 0.48313554657918506 0.13166719347109515
    endloop
  endfacet
  facet normal -0.41747405899318457 0.84213412922050812 -0.34135834319637126
    outer loop
      vertex -0.34230563164391042 0.80527204597471491 -0.16503274654000355
      vertex -0.57066229744866248 0.74050788508873189 -0.045531129684020885
      vertex -0.24384311742951473 0.90252308540570225 -0.045531129684020538
    endloop
  endfacet
  facet normal -0.52743505521455558 0.7945976584136577 0.30071053153215443
    outer loop
      vertex -0.57066229744866248 0.74050788508873189 -0.045531129684020885
      vertex -0.70907557366685914 0.61259779133830417 0.049686842400629989
      vertex -0.29281783738650291 0.87384072450828787 0.089478927777764172
    endloop
  endfacet
  facet normal -0.50516872596718054 0.73636833495320886 0.45007358685323284
    outer loop
      vertex -0.29281783738650291 0.87384072450828787 0.089478927777764172
      vertex -0.70907557366685914 0.61259779133830417 0.049686842400629989
      vertex -0.48408343630735018 0.6749392285143182 0.20022385028049561
    endloop
  endfacet
  facet normal 0.3883787994782435 -0.68800591195538741 0.61303325621884031
    outer loop
      vertex -0.3877608435294686 0.38319544669099692 0.16125038014524995
      vertex -0.38150894650033257 0.28759628102560009 0.049998837546904158
      vertex -0.16402345895181211 0.48313554657918506 0.13166719347109515
    endloop
  endfacet
  facet normal 0.64301377449247221 -0.7587252365895748 0.10425594071820543
    outer loop
      vertex -0.16402345895181211 0.48313554657918506 0.13166719347109515
      vertex -0.38150894650033257 0.28759628102560009 0.049998837546904158
      vertex -0.21008368042003867 0.42600756152344965 -2.8027785283178898e-17
    endloop
  endfacet
  facet normal 0.52765704565498261 -0.82926124310903992 -0.18412993468718053
    outer loop
      vertex -0.21008368042003867 0.42600756152344965 -2.8027785283178898e-17
      vertex -0.36048919653161493 0.35951784927039393 -0.13156572767959868
      vertex -0.16405757482301001 0.48445457103665623 -0.13133030706646287
    endloop
  endfacet
  facet normal 0.29857422973368103 -0.46786555142361064 -0.83183847899097541
    outer loop
      vertex -0.16405757482301001 0.48445457103665623 -0.13133030706646287
      vertex -0.36048919653161493 0.35951784927039393 -0.13156572767959868
      vertex -0.3368698185621854 0.51802528742571496 -0.2122400822185645
    endloop
  endfacet
  facet normal -0.099386040936592215 0.20130650362055447 -0.97447324563941606
    outer loop
      vertex -0.18902710059115937 0.69843718423042833 -0.23000059935598258
      vertex -0.5343443163739503 0.53005141841945069 -0.22956696901167914
      vertex -0.17099164577588769 0.78698172177792891 -0.21354851214933396
    endloop
  endfacet
  facet normal -0.2175757252151963 0.36415520959182568 -0.90556710801807228
    outer loop
      vertex -0.17099164577588769 0.78698172177792891 -0.21354851214933396
      vertex -0.5343443163739503 0.53005141841945069 -0.22956696901167914
      vertex -0.34230563164391042 0.80527204597471491 -0.16503274654000355
    endloop
  endfacet
  facet normal -0.55505606231328786 0.59185688491200927 0.5844811335462593
    outer loop
      vertex -0.70907557366685914 0.61259779133830417 0.049686842400629989
      vertex -0.7196468971830603 0.48984580936537858 0.16394874861088871
      vertex -0.48408343630735018 0.6749392285143182 0.20022385028049561
    endloop
  endfacet
  facet normal 0.56418444018269598 -0.78790288146137466 -0.24678931670678303
    outer loop
      vertex -0.21008368042003867 0.42600756152344965 -2.8027785283178898e-17
      vertex -0.38150894650033257 0.28759628102560009 0.049998837546904158
      vertex -0.36048919653161493 0.35951784927039393 -0.13156572767959868
    endloop
  endfacet
  facet normal 0.076630412972538697 -0.1596843717173603 -0.98418935232854965
    outer loop
      vertex -0.3368698185621854 0.51802528742571496 -0.2122400822185645
      vertex -0.5343443163739503 0.53005141841945069 -0.22956696901167914
      vertex -0.18902710059115937 0.69843718423042833 -0.23000059935598258
    endloop
  endfacet
  facet normal -0.36527207863083244 0.44641613085546067 -0.81687755917563987
    outer loop
      vertex -0.5343443163739503 0.53005141841945069 -0.22956696901167914
      vertex -0.69163522781467091 0.52254029307465455 -0.16333808311659792
      vertex -0.34230563164391042 0.80527204597471491 -0.16503274654000355
    endloop
  endfacet
  facet normal -0.49634792811918921 0.6095583794098467 -0.6181240299025994
    outer loop
      vertex -0.34230563164391042 0.80527204597471491 -0.16503274654000355
      vertex -0.69163522781467091 0.52254029307465455 -0.16333808311659792
      vertex -0.57066229744866248 0.74050788508873189 -0.045531129684020885
    endloop
  endfacet
  facet normal -0.17568138148260398 0.15513886657361309 0.97214607147209042
    outer loop
      vertex -0.48408343630735018 0.6749392285143182 0.20022385028049561
      vertex -0.72883932301878351 0.21430919372702142 0.22950192899566327
      vertex -0.30962024947242101 0.68787926962548596 0.22968694354408628
    endloop
  endfacet
  facet normal 0.22457244482181463 -0.19917123104939868 0.95388575717903445
    outer loop
      vertex -0.30962024947242101 0.68787926962548596 0.22968694354408628
      vertex -0.72883932301878351 0.21430919372702142 0.22950192899566327
      vertex -0.4519694516527421 0.43917371537577782 0.21127039531023872
    endloop
  endfacet
  facet normal 0.56281124298920748 -0.44000707455104288 -0.69974086568527361
    outer loop
      vertex -0.36048919653161493 0.35951784927039393 -0.13156572767959868
      vertex -0.60632032001619118 0.17183016917790819 -0.2112703953102387
      vertex -0.3368698185621854 0.51802528742571496 -0.2122400822185645
    endloop
  endfacet
  facet normal 0.083128164462706516 -0.067485174531528247 -0.99425120542622958
    outer loop
      vertex -0.3368698185621854 0.51802528742571496 -0.2122400822185645
      vertex -0.60632032001619118 0.17183016917790819 -0.2112703953102387
      vertex -0.5343443163739503 0.53005141841945069 -0.22956696901167914
    endloop
  endfacet
  facet normal -0.68123384464329384 0.60268776074896313 -0.41555735098289048
    outer loop
      vertex -0.69163522781467091 0.52254029307465455 -0.16333808311659792
      vertex -0.79601542521946911 0.4559859852701646 -0.088749446023549533
      vertex -0.57066229744866248 0.74050788508873189 -0.045531129684020885
    endloop
  endfacet
  facet normal -0.74281142451184745 0.6248529917538046 -0.24039535417931832
    outer loop
      vertex -0.57066229744866248 0.74050788508873189 -0.045531129684020885
      vertex -0.79601542521946911 0.4559859852701646 -0.088749446023549533
      vertex -0.70907557366685914 0.61259779133830417 0.049686842400629989
    endloop
  endfacet
  facet normal -0.76575272364791269 0.47229034237486478 0.4365370530954234
    outer loop
      vertex -0.70907557366685914 0.61259779133830417 0.049686842400629989
      vertex -0.84634149230966382 0.35393481652019898 0.088749446023548506
      vertex -0.7196468971830603 0.48984580936537858 0.16394874861088871
    endloop
  endfacet
  facet normal -0.3216378276027364 0.22929451429267031 0.91868010404616951
    outer loop
      vertex -0.7196468971830603 0.48984580936537858 0.16394874861088871
      vertex -0.72883932301878351 0.21430919372702142 0.22950192899566327
      vertex -0.48408343630735018 0.6749392285143182 0.20022385028049561
    endloop
  endfacet
  facet normal 0.90821588840451639 -0.41432524368587698 -0.058978746122934772
    outer loop
      vertex -0.38150894650033257 0.28759628102560009 0.049998837546904158
      vertex -0.45882029057046403 0.13188661084618358 -0.046662152586463841
      vertex -0.36048919653161493 0.35951784927039393 -0.13156572767959868
    endloop
  endfacet
  facet normal 0.75909636541277103 -0.48842958468174213 -0.43035944142628246
    outer loop
      vertex -0.36048919653161493 0.35951784927039393 -0.13156572767959868
      vertex -0.45882029057046403 0.13188661084618358 -0.046662152586463841
      vertex -0.53702550592118858 0.11032679156442132 -0.16013669607412789
    endloop
  endfacet
  facet normal 0.44726146598281974 -0.21738414380244372 -0.86758360696256664
    outer loop
      vertex -0.36048919653161493 0.35951784927039393 -0.13156572767959868
      vertex -0.53702550592118858 0.11032679156442132 -0.16013669607412789
      vertex -0.60632032001619118 0.17183016917790819 -0.2112703953102387
    endloop
  endfacet
  facet normal -0.3860811436465138 0.24618927106721961 -0.88900629544002152
    outer loop
      vertex -0.5343443163739503 0.53005141841945069 -0.22956696901167914
      vertex -0.79565954561178864 0.21618328146443938 -0.20300032395038048
      vertex -0.69163522781467091 0.52254029307465455 -0.16333808311659792
    endloop
  endfacet
  facet normal -0.88436497797093849 0.46639744619409795 -0.019287506891374786
    outer loop
      vertex -0.70907557366685914 0.61259779133830417 0.049686842400629989
      vertex -0.90340332412396451 0.24206619113860359 -7.5074267046189962e-16
      vertex -0.84634149230966382 0.35393481652019898 0.088749446023548506
    endloop
  endfacet
  facet normal 0.48692851515519092 -0.20100542016061035 0.84999849540738459
    outer loop
      vertex -0.4519694516527421 0.43917371537577782 0.21127039531023872
      vertex -0.57286852442573966 0.079013260441763739 0.19535860528551546
      vertex -0.3877608435294686 0.38319544669099692 0.16125038014524995
    endloop
  endfacet
  facet normal 0.79536511700816703 -0.43690358840603871 0.420130438179039
    outer loop
      vertex -0.3877608435294686 0.38319544669099692 0.16125038014524995
      vertex -0.57286852442573966 0.079013260441763739 0.19535860528551546
      vertex -0.38150894650033257 0.28759628102560009 0.049998837546904158
    endloop
  endfacet
  facet normal -0.67666814818080667 0.31586988392584719 -0.66509129724138583
    outer loop
      vertex -0.69163522781467091 0.52254029307465455 -0.16333808311659792
      vertex -0.79565954561178864 0.21618328146443938 -0.20300032395038048
      vertex -0.79601542521946911 0.4559859852701646 -0.088749446023549533
    endloop
  endfacet
  facet normal -0.88700578507584882 0.46033058568984614 0.036283455188559945
    outer loop
      vertex -0.79601542521946911 0.4559859852701646 -0.088749446023549533
      vertex -0.90340332412396451 0.24206619113860359 -7.5074267046189962e-16
      vertex -0.70907557366685914 0.61259779133830417 0.049686842400629989
    endloop
  endfacet
  facet normal -0.66926412660646184 0.23361460306292384 0.70534370775774446
    outer loop
      vertex -0.84634149230966382 0.35393481652019898 0.088749446023548506
      vertex -0.86815539939786579 0.064395466256238015 0.16394874861089015
      vertex -0.7196468971830603 0.48984580936537858 0.16394874861088871
    endloop
  endfacet
  facet normal -0.58898110112424262 0.20559085819881687 0.78155848248454751
    outer loop
      vertex -0.7196468971830603 0.48984580936537858 0.16394874861088871
      vertex -0.86815539939786579 0.064395466256238015 0.16394874861089015
      vertex -0.72883932301878351 0.21430919372702142 0.22950192899566327
    endloop
  endfacet
  facet normal 0.13795113255988792 -0.089884354725621063 0.98635201008615725
    outer loop
      vertex -0.72883932301878351 0.21430919372702142 0.22950192899566327
      vertex -0.57286852442573966 0.079013260441763739 0.19535860528551546
      vertex -0.4519694516527421 0.43917371537577782 0.21127039531023872
    endloop
  endfacet
  facet normal 0.72158500596716857 -0.20012089103229952 0.66277198804400284
    outer loop
      vertex -0.57286852442573966 0.079013260441763739 0.19535860528551546
      vertex -0.4952054018679638 -0.0011431403409560433 0.086600968570072406
      vertex -0.38150894650033257 0.28759628102560009 0.049998837546904158
    endloop
  endfacet
  facet normal 0.91748243892766657 -0.37726036649648248 -0.12609754212624696
    outer loop
      vertex -0.38150894650033257 0.28759628102560009 0.049998837546904158
      vertex -0.4952054018679638 -0.0011431403409560433 0.086600968570072406
      vertex -0.45882029057046403 0.13188661084618358 -0.046662152586463841
    endloop
  endfacet
  facet normal 0.48970888667976775 -0.14233053618438798 -0.86019022592466543
    outer loop
      vertex -0.60632032001619118 0.17183016917790819 -0.2112703953102387
      vertex -0.71713494496421248 -0.096245601379002274 -0.23000059935598255
      vertex -0.5343443163739503 0.53005141841945069 -0.22956696901167914
    endloop
  endfacet
  facet normal -0.15572652080686905 0.046133416665312212 -0.98672233104565565
    outer loop
      vertex -0.5343443163739503 0.53005141841945069 -0.22956696901167914
      vertex -0.71713494496421248 -0.096245601379002274 -0.23000059935598255
      vertex -0.79565954561178864 0.21618328146443938 -0.20300032395038048
    endloop
  endfacet
  facet normal -0.77836786536069247 0.26908801339878979 -0.56721698424759059
    outer loop
      vertex -0.79565954561178864 0.21618328146443938 -0.20300032395038048
      vertex -0.89817510156867286 0.070976750197769722 -0.13120861362392761
      vertex -0.79601542521946911 0.4559859852701646 -0.088749446023549533
    endloop
  endfacet
  facet normal -0.8762727942683517 0.27606175876879979 -0.39488719322182603
    outer loop
      vertex -0.79601542521946911 0.4559859852701646 -0.088749446023549533
      vertex -0.89817510156867286 0.070976750197769722 -0.13120861362392761
      vertex -0.90340332412396451 0.24206619113860359 -7.5074267046189962e-16
    endloop
  endfacet
  facet normal -0.91489643437124157 0.18001248457322486 0.36133090066110152
    outer loop
      vertex -0.90340332412396451 0.24206619113860359 -7.5074267046189962e-16
      vertex -0.93356679337771953 -0.0038546677253288452 0.046141568056997824
      vertex -0.84634149230966382 0.35393481652019898 0.088749446023548506
    endloop
  endfacet
  facet normal -0.900148215622111 0.17177852893553852 0.40028155954162042
    outer loop
      vertex -0.84634149230966382 0.35393481652019898 0.088749446023548506
      vertex -0.93356679337771953 -0.0038546677253288452 0.046141568056997824
      vertex -0.86815539939786579 0.064395466256238015 0.16394874861089015
    endloop
  endfacet
  facet normal 0.82351578671104608 -0.0013947088145616589 -0.56729163912841973
    outer loop
      vertex -0.45882029057046403 0.13188661084618358 -0.046662152586463841
      vertex -0.45836436397527092 -0.13223201274754556 -0.045350955188452079
      vertex -0.53702550592118858 0.11032679156442132 -0.16013669607412789
    endloop
  endfacet
  facet normal -0.98326581520531997 0.090990063822656189 -0.15782631255328222
    outer loop
      vertex -0.89817510156867286 0.070976750197769722 -0.13120861362392761
      vertex -0.93356679337771953 -0.0038546677253288452 0.046141568056997824
      vertex -0.90340332412396451 0.24206619113860359 -7.5074267046189962e-16
    endloop
  endfacet
  facet normal -0.83907920511130674 -0.11399337003345572 0.53193194972495605
    outer loop
      vertex -0.93356679337771953 -0.0038546677253288452 0.046141568056997824
      vertex -0.90075861486955244 -0.24534818910910219 0.046141568056997762
      vertex -0.86815539939786579 0.064395466256238015 0.16394874861089015
    endloop
  endfacet
  facet normal -0.41987154415393463 -0.0066606931295934606 0.90755910087267821
    outer loop
      vertex -0.86815539939786579 0.064395466256238015 0.16394874861089015
      vertex -0.7227331790076289 -0.22132794846709872 0.22912966761357426
      vertex -0.72883932301878351 0.21430919372702142 0.22950192899566327
    endloop
  endfacet
  facet normal 0.21565515305968366 0.0021883359421808976 0.97646713520968464
    outer loop
      vertex -0.72883932301878351 0.21430919372702142 0.22950192899566327
      vertex -0.7227331790076289 -0.22132794846709872 0.22912966761357426
      vertex -0.57286852442573966 0.079013260441763739 0.19535860528551546
    endloop
  endfacet
  facet normal 0.85042574239311852 0.13353472225139684 0.50886592991509616
    outer loop
      vertex -0.57286852442573966 0.079013260441763739 0.19535860528551546
      vertex -0.51263141073120022 -0.17714255787389088 0.16190874142004269
      vertex -0.4952054018679638 -0.0011431403409560433 0.086600968570072406
    endloop
  endfacet
  facet normal 0.96392364319819168 0.0029852857489683342 0.26616216514095759
    outer loop
      vertex -0.4952054018679638 -0.0011431403409560433 0.086600968570072406
      vertex -0.45836436397527092 -0.13223201274754556 -0.045350955188452079
      vertex -0.45882029057046403 0.13188661084618358 -0.046662152586463841
    endloop
  endfacet
  facet normal -0.51032837347981275 -0.054091097421625697 -0.85827682271000016
    outer loop
      vertex -0.71713494496421248 -0.096245601379002274 -0.23000059935598255
      vertex -0.71591007540251694 -0.36885110447830272 -0.21354851214933357
      vertex -0.79565954561178864 0.21618328146443938 -0.20300032395038048
    endloop
  endfacet
  facet normal -0.5189486434649766 -0.055361123281007965 -0.85301081556737923
    outer loop
      vertex -0.79565954561178864 0.21618328146443938 -0.20300032395038048
      vertex -0.71591007540251694 -0.36885110447830272 -0.21354851214933357
      vertex -0.89817510156867286 0.070976750197769722 -0.13120861362392761
    endloop
  endfacet
  facet normal -0.97604334240020718 -0.04358207872245478 -0.21316659252908676
    outer loop
      vertex -0.89817510156867286 0.070976750197769722 -0.13120861362392761
      vertex -0.89630962010287774 -0.18047651791274449 -0.088340426576729997
      vertex -0.93356679337771953 -0.0038546677253288452 0.046141568056997824
    endloop
  endfacet
  facet normal -0.78116826951091312 -0.14842033947814745 0.60642191380137023
    outer loop
      vertex -0.90075861486955244 -0.24534818910910219 0.046141568056997762
      vertex -0.78404236343929545 -0.37830959003248643 0.16394874861089137
      vertex -0.86815539939786579 0.064395466256238015 0.16394874861089015
    endloop
  endfacet
  facet normal -0.57821466918592335 -0.10985957935228163 0.80845449418180171
    outer loop
      vertex -0.86815539939786579 0.064395466256238015 0.16394874861089015
      vertex -0.78404236343929545 -0.37830959003248643 0.16394874861089137
      vertex -0.7227331790076289 -0.22132794846709872 0.22912966761357426
    endloop
  endfacet
  facet normal 0.11700086747719134 0.053128890865855059 0.99170969439899548
    outer loop
      vertex -0.7227331790076289 -0.22132794846709872 0.22912966761357426
      vertex -0.49441037488377715 -0.39077911754791678 0.21127039531023889
      vertex -0.57286852442573966 0.079013260441763739 0.19535860528551546
    endloop
  endfacet
  facet normal 0.91115815752593887 0.1649580414755048 0.377597214669947
    outer loop
      vertex -0.57286852442573966 0.079013260441763739 0.19535860528551546
      vertex -0.49441037488377715 -0.39077911754791678 0.21127039531023889
      vertex -0.51263141073120022 -0.17714255787389088 0.16190874142004269
    endloop
  endfacet
  facet normal 0.91064215028135009 0.1063733142262826 -0.39926882191259988
    outer loop
      vertex -0.45836436397527092 -0.13223201274754556 -0.045350955188452079
      vertex -0.50660475995678 -0.28118772203500447 -0.1950612433860705
      vertex -0.53702550592118858 0.11032679156442132 -0.16013669607412789
    endloop
  endfacet
  facet normal 0.65504833243052007 0.11747886603786636 -0.74639828390374274
    outer loop
      vertex -0.53702550592118858 0.11032679156442132 -0.16013669607412789
      vertex -0.50660475995678 -0.28118772203500447 -0.1950612433860705
      vertex -0.60632032001619118 0.17183016917790819 -0.2112703953102387
    endloop
  endfacet
  facet normal 0.16450299330165993 0.00091649163489145632 -0.98637615808467161
    outer loop
      vertex -0.60632032001619118 0.17183016917790819 -0.2112703953102387
      vertex -0.50660475995678 -0.28118772203500447 -0.1950612433860705
      vertex -0.71713494496421248 -0.096245601379002274 -0.23000059935598255
    endloop
  endfacet
  facet normal -0.53686707275107626 -0.065005352125044658 -0.84115875457061584
    outer loop
      vertex -0.71591007540251694 -0.36885110447830272 -0.21354851214933357
      vertex -0.79835078221094913 -0.3377035309024205 -0.16333808311659848
      vertex -0.89817510156867286 0.070976750197769722 -0.13120861362392761
    endloop
  endfacet
  facet normal -0.71930582868054416 -0.1219304436450214 -0.68390941778770964
    outer loop
      vertex -0.89817510156867286 0.070976750197769722 -0.13120861362392761
      vertex -0.79835078221094913 -0.3377035309024205 -0.16333808311659848
      vertex -0.89630962010287774 -0.18047651791274449 -0.088340426576729997
    endloop
  endfacet
  facet normal -0.98620005638408548 -0.13398051968108646 -0.097255689468599346
    outer loop
      vertex -0.89630962010287774 -0.18047651791274449 -0.088340426576729997
      vertex -0.90075861486955244 -0.24534818910910219 0.046141568056997762
      vertex -0.93356679337771953 -0.0038546677253288452 0.046141568056997824
    endloop
  endfacet
  facet normal -0.83226449449101603 -0.34876812413351549 0.43092529143460856
    outer loop
      vertex -0.90075861486955244 -0.24534818910910219 0.046141568056997762
      vertex -0.80656522533202046 -0.47012163686213976 0.046141568056997165
      vertex -0.78404236343929545 -0.37830959003248643 0.16394874861089137
    endloop
  endfacet
  facet normal 0.67737510883040064 0.23168307672834179 0.69820191484605088
    outer loop
      vertex -0.51263141073120022 -0.17714255787389088 0.16190874142004269
      vertex -0.3921769599546952 -0.30236886230189786 0.086600968570072531
      vertex -0.4952054018679638 -0.0011431403409560433 0.086600968570072406
    endloop
  endfacet
  facet normal 0.94463436049824512 0.32309394332695973 -0.057238350356269049
    outer loop
      vertex -0.4952054018679638 -0.0011431403409560433 0.086600968570072406
      vertex -0.3921769599546952 -0.30236886230189786 0.086600968570072531
      vertex -0.45836436397527092 -0.13223201274754556 -0.045350955188452079
    endloop
  endfacet
  facet normal -0.83850578739832571 -0.30802082085352417 -0.4494788297798184
    outer loop
      vertex -0.79835078221094913 -0.3377035309024205 -0.16333808311659848
      vertex -0.7929031596233771 -0.46137658740924531 -0.088749446023548936
      vertex -0.89630962010287774 -0.18047651791274449 -0.088340426576729997
    endloop
  endfacet
  facet normal -0.92072838822578662 -0.3386613113549235 -0.19382402148987779
    outer loop
      vertex -0.89630962010287774 -0.18047651791274449 -0.088340426576729997
      vertex -0.7929031596233771 -0.46137658740924531 -0.088749446023548936
      vertex -0.90075861486955244 -0.24534818910910219 0.046141568056997762
    endloop
  endfacet
  facet normal -0.91588684859487179 -0.38381084404945426 -0.11764572478845157
    outer loop
      vertex -0.7929031596233771 -0.46137658740924531 -0.088749446023548936
      vertex -0.80656522533202046 -0.47012163686213976 0.046141568056997165
      vertex -0.90075861486955244 -0.24534818910910219 0.046141568056997762
    endloop
  endfacet
  facet normal -0.69959337869347626 -0.4925708665686076 0.51763215307406985
    outer loop
      vertex -0.80656522533202046 -0.47012163686213976 0.046141568056997165
      vertex -0.6508740000562071 -0.6464725918404961 0.088749446023548006
      vertex -0.78404236343929545 -0.37830959003248643 0.16394874861089137
    endloop
  endfacet
  facet normal -0.36133301481042551 -0.23368599928474454 0.90267896073094511
    outer loop
      vertex -0.78404236343929545 -0.37830959003248643 0.16394874861089137
      vertex -0.52990623812309656 -0.64253562396415642 0.1972738274761574
      vertex -0.7227331790076289 -0.22132794846709872 0.22912966761357426
    endloop
  endfacet
  facet normal -0.17552521528824713 -0.15389490801143316 0.97237197413652721
    outer loop
      vertex -0.7227331790076289 -0.22132794846709872 0.22912966761357426
      vertex -0.52990623812309656 -0.64253562396415642 0.1972738274761574
      vertex -0.36335500341615362 -0.62571470061528589 0.23000059935598252
    endloop
  endfacet
  facet normal 0.22361269867796058 0.20077857528773899 0.95377425248084013
    outer loop
      vertex -0.7227331790076289 -0.22132794846709872 0.22912966761357426
      vertex -0.36335500341615362 -0.62571470061528589 0.23000059935598252
      vertex -0.49441037488377715 -0.39077911754791678 0.21127039531023889
    endloop
  endfacet
  facet normal 0.33893270837813233 0.23914588425059494 0.90990871258465533
    outer loop
      vertex -0.49441037488377715 -0.39077911754791678 0.21127039531023889
      vertex -0.32930421012569405 -0.43446053829190279 0.16125038014524951
      vertex -0.51263141073120022 -0.17714255787389088 0.16190874142004269
    endloop
  endfacet
  facet normal 0.77161035670399469 0.54891444577813009 0.32141933458213484
    outer loop
      vertex -0.51263141073120022 -0.17714255787389088 0.16190874142004269
      vertex -0.32930421012569405 -0.43446053829190279 0.16125038014524951
      vertex -0.3921769599546952 -0.30236886230189786 0.086600968570072531
    endloop
  endfacet
  facet normal 0.81874786070305683 0.51514373950689329 0.25353277547690328
    outer loop
      vertex -0.3921769599546952 -0.30236886230189786 0.086600968570072531
      vertex -0.32021827745030584 -0.35070090986229141 -0.047575236369127319
      vertex -0.45836436397527092 -0.13223201274754556 -0.045350955188452079
    endloop
  endfacet
  facet normal 0.65427195044355912 0.42012296226747176 -0.62882820502772097
    outer loop
      vertex -0.45836436397527092 -0.13223201274754556 -0.045350955188452079
      vertex -0.32021827745030584 -0.35070090986229141 -0.047575236369127319
      vertex -0.50660475995678 -0.28118772203500447 -0.1950612433860705
    endloop
  endfacet
  facet normal 0.34122382734069184 0.21558639560772375 -0.91492557384950157
    outer loop
      vertex -0.50660475995678 -0.28118772203500447 -0.1950612433860705
      vertex -0.35801716548859636 -0.66090557944429484 -0.22911906998705905
      vertex -0.71713494496421248 -0.096245601379002274 -0.23000059935598255
    endloop
  endfacet
  facet normal -0.092526459493875876 -0.060397459618691203 -0.99387675350877225
    outer loop
      vertex -0.71713494496421248 -0.096245601379002274 -0.23000059935598255
      vertex -0.35801716548859636 -0.66090557944429484 -0.22911906998705905
      vertex -0.71591007540251694 -0.36885110447830272 -0.21354851214933357
    endloop
  endfacet
  facet normal -0.58211162433537189 -0.395282404570164 -0.71056166336980497
    outer loop
      vertex -0.71591007540251694 -0.36885110447830272 -0.21354851214933357
      vertex -0.60834640112152172 -0.61751299782538227 -0.16333808311659781
      vertex -0.79835078221094913 -0.3377035309024205 -0.16333808311659848
    endloop
  endfacet
  facet normal -0.6238250852304803 -0.42360789479617977 -0.65680942023050537
    outer loop
      vertex -0.79835078221094913 -0.3377035309024205 -0.16333808311659848
      vertex -0.60834640112152172 -0.61751299782538227 -0.16333808311659781
      vertex -0.7929031596233771 -0.46137658740924531 -0.088749446023548936
    endloop
  endfacet
  facet normal -0.75504396454606015 -0.65339634555370685 0.054606109728020574
    outer loop
      vertex -0.80656522533202046 -0.47012163686213976 0.046141568056997165
      vertex -0.61277713124627664 -0.7017104232043665 -0.045436752607332147
      vertex -0.6508740000562071 -0.6464725918404961 0.088749446023548006
    endloop
  endfacet
  facet normal -0.57950361673065653 -0.47373745434440073 0.663135267156992
    outer loop
      vertex -0.6508740000562071 -0.6464725918404961 0.088749446023548006
      vertex -0.52990623812309656 -0.64253562396415642 0.1972738274761574
      vertex -0.78404236343929545 -0.37830959003248643 0.16394874861089137
    endloop
  endfacet
  facet normal 0.1442758630101599 0.14426245339551214 -0.97896517807988526
    outer loop
      vertex -0.50660475995678 -0.28118772203500447 -0.1950612433860705
      vertex -0.31455956650076217 -0.48528896789447962 -0.19683521909515
      vertex -0.35801716548859636 -0.66090557944429484 -0.22911906998705905
    endloop
  endfacet
  facet normal -0.67642301404688998 -0.58710978586477347 -0.44469540745272035
    outer loop
      vertex -0.60834640112152172 -0.61751299782538227 -0.16333808311659781
      vertex -0.61277713124627664 -0.7017104232043665 -0.045436752607332147
      vertex -0.7929031596233771 -0.46137658740924531 -0.088749446023548936
    endloop
  endfacet
  facet normal -0.78411913535573818 -0.6091128322035767 -0.11890643049855154
    outer loop
      vertex -0.7929031596233771 -0.46137658740924531 -0.088749446023548936
      vertex -0.61277713124627664 -0.7017104232043665 -0.045436752607332147
      vertex -0.80656522533202046 -0.47012163686213976 0.046141568056997165
    endloop
  endfacet
  facet normal 0.62425197263336507 0.59181052709165616 -0.50997036647912075
    outer loop
      vertex -0.32021827745030584 -0.35070090986229141 -0.047575236369127319
      vertex -0.31455956650076217 -0.48528896789447962 -0.19683521909515
      vertex -0.50660475995678 -0.28118772203500447 -0.1950612433860705
    endloop
  endfacet
  facet normal -0.2914469381641705 -0.3088809083000208 -0.90534593759649917
    outer loop
      vertex -0.71591007540251694 -0.36885110447830272 -0.21354851214933357
      vertex -0.35801716548859636 -0.66090557944429484 -0.22911906998705905
      vertex -0.60834640112152172 -0.61751299782538227 -0.16333808311659781
    endloop
  endfacet
  facet normal -0.54025267303247293 -0.81223862210098041 0.21998970441538554
    outer loop
      vertex -0.61277713124627664 -0.7017104232043665 -0.045436752607332147
      vertex -0.41028123515786469 -0.83639861231915291 -0.045436752607332008
      vertex -0.34407276036510875 -0.83442287961343065 0.12445334290438931
    endloop
  endfacet
  facet normal -0.52884319039175132 -0.82710229859814544 0.19033304397801751
    outer loop
      vertex -0.61277713124627664 -0.7017104232043665 -0.045436752607332147
      vertex -0.34407276036510875 -0.83442287961343065 0.12445334290438931
      vertex -0.6508740000562071 -0.6464725918404961 0.088749446023548006
    endloop
  endfacet
  facet normal -0.47947521097653045 -0.67648404383959104 0.55899271953170004
    outer loop
      vertex -0.6508740000562071 -0.6464725918404961 0.088749446023548006
      vertex -0.34407276036510875 -0.83442287961343065 0.12445334290438931
      vertex -0.52990623812309656 -0.64253562396415642 0.1972738274761574
    endloop
  endfacet
  facet normal 0.40957019407591894 0.58876359343491314 0.69685700625754088
    outer loop
      vertex -0.32930421012569405 -0.43446053829190279 0.16125038014524951
      vertex -0.15730076794226527 -0.46659608132210112 0.087308029070848447
      vertex -0.3921769599546952 -0.30236886230189786 0.086600968570072531
    endloop
  endfacet
  facet normal 0.5665225100461394 0.81086703575287267 0.14678860970923924
    outer loop
      vertex -0.3921769599546952 -0.30236886230189786 0.086600968570072531
      vertex -0.15730076794226527 -0.46659608132210112 0.087308029070848447
      vertex -0.14388148823098756 -0.45204188709049276 -0.04488097658725744
    endloop
  endfacet
  facet normal 0.49829217021780131 0.86585820759106946 -0.044659572846303758
    outer loop
      vertex -0.3921769599546952 -0.30236886230189786 0.086600968570072531
      vertex -0.14388148823098756 -0.45204188709049276 -0.04488097658725744
      vertex -0.32021827745030584 -0.35070090986229141 -0.047575236369127319
    endloop
  endfacet
  facet normal -0.29982044448666639 -0.47857870998616064 -0.8252697252509632
    outer loop
      vertex -0.35801716548859636 -0.66090557944429484 -0.22911906998705905
      vertex -0.27273503480720052 -0.82671408259853651 -0.16394874861089104
      vertex -0.60834640112152172 -0.61751299782538227 -0.16333808311659781
    endloop
  endfacet
  facet normal -0.43730067617981028 -0.69989224483426804 -0.56472910694733058
    outer loop
      vertex -0.60834640112152172 -0.61751299782538227 -0.16333808311659781
      vertex -0.27273503480720052 -0.82671408259853651 -0.16394874861089104
      vertex -0.41028123515786469 -0.83639861231915291 -0.045436752607332008
    endloop
  endfacet
  facet normal -0.47165651859972957 -0.70910827450799763 -0.52412363377992499
    outer loop
      vertex -0.60834640112152172 -0.61751299782538227 -0.16333808311659781
      vertex -0.41028123515786469 -0.83639861231915291 -0.045436752607332008
      vertex -0.61277713124627664 -0.7017104232043665 -0.045436752607332147
    endloop
  endfacet
  facet normal -0.23451894402673071 -0.5351106400259712 0.81157714841140194
    outer loop
      vertex -0.52990623812309656 -0.64253562396415642 0.1972738274761574
      vertex -0.34407276036510875 -0.83442287961343065 0.12445334290438931
      vertex -0.16751208202293652 -0.77771519587788296 0.21286355617865049
    endloop
  endfacet
  facet normal -0.15397290554506965 -0.30436619558769373 0.94002849070732053
    outer loop
      vertex -0.52990623812309656 -0.64253562396415642 0.1972738274761574
      vertex -0.16751208202293652 -0.77771519587788296 0.21286355617865049
      vertex -0.36335500341615362 -0.62571470061528589 0.23000059935598252
    endloop
  endfacet
  facet normal 0.095619793440699236 0.1319988029967091 0.986627169253814
    outer loop
      vertex -0.36335500341615362 -0.62571470061528589 0.23000059935598252
      vertex -0.10301043084582055 -0.56976302396201273 0.19728342958567663
      vertex -0.49441037488377715 -0.39077911754791678 0.21127039531023889
    endloop
  endfacet
  facet normal 0.36479669821563088 0.7551709726972522 0.54464683141138359
    outer loop
      vertex -0.49441037488377715 -0.39077911754791678 0.21127039531023889
      vertex -0.10301043084582055 -0.56976302396201273 0.19728342958567663
      vertex -0.32930421012569405 -0.43446053829190279 0.16125038014524951
    endloop
  endfacet
  facet normal 0.40400528175918665 0.68692288822868453 -0.60408333691490146
    outer loop
      vertex -0.32021827745030584 -0.35070090986229141 -0.047575236369127319
      vertex -0.14388148823098756 -0.45204188709049276 -0.04488097658725744
      vertex -0.31455956650076217 -0.48528896789447962 -0.19683521909515
    endloop
  endfacet
  facet normal -0.29601496976716857 -0.94678684784169265 0.12637168364682724
    outer loop
      vertex -0.41028123515786469 -0.83639861231915291 -0.045436752607332008
      vertex -0.12009896677490632 -0.92713732736179499 -0.045531129684021031
      vertex -0.34407276036510875 -0.83442287961343065 0.12445334290438931
    endloop
  endfacet
  facet normal 0.3707634543688329 0.76163699265555274 0.53145418647621523
    outer loop
      vertex -0.32930421012569405 -0.43446053829190279 0.16125038014524951
      vertex -0.10301043084582055 -0.56976302396201273 0.19728342958567663
      vertex -0.15730076794226527 -0.46659608132210112 0.087308029070848447
    endloop
  endfacet
  facet normal 0.21771993058874964 0.87339194825950706 -0.43564267070604173
    outer loop
      vertex -0.14388148823098756 -0.45204188709049276 -0.04488097658725744
      vertex -0.003228223063291521 -0.54514842081331394 -0.16125038014524878
      vertex -0.31455956650076217 -0.48528896789447962 -0.19683521909515
    endloop
  endfacet
  facet normal 0.20850228152029063 0.6500095515909452 -0.7307628763431897
    outer loop
      vertex -0.31455956650076217 -0.48528896789447962 -0.19683521909515
      vertex -0.003228223063291521 -0.54514842081331394 -0.16125038014524878
      vertex 0.073278364805074186 -0.62592349273352799 -0.2112703953102385
    endloop
  endfacet
  facet normal 0.010596416017106871 0.13097566334673291 -0.99132895225473761
    outer loop
      vertex -0.31455956650076217 -0.48528896789447962 -0.19683521909515
      vertex 0.073278364805074186 -0.62592349273352799 -0.2112703953102385
      vertex 0.018369287415229717 -0.75947202619600218 -0.22950192899566341
    endloop
  endfacet
  facet normal 0.043567570993973258 0.1701912632471376 -0.98444745957924462
    outer loop
      vertex -0.31455956650076217 -0.48528896789447962 -0.19683521909515
      vertex 0.018369287415229717 -0.75947202619600218 -0.22950192899566341
      vertex -0.35801716548859636 -0.66090557944429484 -0.22911906998705905
    endloop
  endfacet
  facet normal -0.10869947080744305 -0.41156570194466569 -0.90487463111139133
    outer loop
      vertex -0.35801716548859636 -0.66090557944429484 -0.22911906998705905
      vertex 0.018369287415229717 -0.75947202619600218 -0.22950192899566341
      vertex -0.27273503480720052 -0.82671408259853651 -0.16394874861089104
    endloop
  endfacet
  facet normal -0.27483195448935821 -0.8785057287636624 -0.39076218000336949
    outer loop
      vertex -0.27273503480720052 -0.82671408259853651 -0.16394874861089104
      vertex -0.12009896677490632 -0.92713732736179499 -0.045531129684021031
      vertex -0.41028123515786469 -0.83639861231915291 -0.045436752607332008
    endloop
  endfacet
  facet normal -0.17643859005303356 -0.94307952060106537 0.28190502259264988
    outer loop
      vertex -0.12009896677490632 -0.92713732736179499 -0.045531129684021031
      vertex 0.056673689640807573 -0.91985215692706523 0.089478927777765505
      vertex -0.34407276036510875 -0.83442287961343065 0.12445334290438931
    endloop
  endfacet
  facet normal -0.12797986926677296 -0.82543527631439928 0.5497979244033494
    outer loop
      vertex -0.34407276036510875 -0.83442287961343065 0.12445334290438931
      vertex 0.056673689640807573 -0.91985215692706523 0.089478927777765505
      vertex 0.049472464423163734 -0.86913350461360428 0.16394874861088959
    endloop
  endfacet
  facet normal -0.13224602364514826 -0.69306173650965575 0.7086440704728062
    outer loop
      vertex -0.34407276036510875 -0.83442287961343065 0.12445334290438931
      vertex 0.049472464423163734 -0.86913350461360428 0.16394874861088959
      vertex -0.16751208202293652 -0.77771519587788296 0.21286355617865049
    endloop
  endfacet
  facet normal -0.027711573676344574 -0.14717640846657118 0.98872198998265515
    outer loop
      vertex -0.16751208202293652 -0.77771519587788296 0.21286355617865049
      vertex 0.16424531497943753 -0.72654925562316486 0.22977825924144121
      vertex -0.36335500341615362 -0.62571470061528589 0.23000059935598252
    endloop
  endfacet
  facet normal 0.056646063680281217 0.29428761402522385 0.95403669934697499
    outer loop
      vertex -0.36335500341615362 -0.62571470061528589 0.23000059935598252
      vertex 0.16424531497943753 -0.72654925562316486 0.22977825924144121
      vertex -0.10301043084582055 -0.56976302396201273 0.19728342958567663
    endloop
  endfacet
  facet normal 0.046947050136905685 0.73997789066745179 0.67099083138802396
    outer loop
      vertex -0.10301043084582055 -0.56976302396201273 0.19728342958567663
      vertex 0.097071579588246984 -0.48273444370234281 0.087308029070849696
      vertex -0.15730076794226527 -0.46659608132210112 0.087308029070848447
    endloop
  endfacet
  facet normal 0.062964081059410065 0.99243781567283584 0.10536938131579901
    outer loop
      vertex -0.15730076794226527 -0.46659608132210112 0.087308029070848447
      vertex 0.097071579588246984 -0.48273444370234281 0.087308029070849696
      vertex 0.083293202107066255 -0.46753942707993251 -0.047575236369127527
    endloop
  endfacet
  facet normal 0.068970626870630283 0.99084060710822786 0.11609454739336716
    outer loop
      vertex -0.15730076794226527 -0.46659608132210112 0.087308029070848447
      vertex 0.083293202107066255 -0.46753942707993251 -0.047575236369127527
      vertex -0.14388148823098756 -0.45204188709049276 -0.04488097658725744
    endloop
  endfacet
  facet normal 0.0481132770429782 0.807490427059395 -0.58791523434898429
    outer loop
      vertex -0.14388148823098756 -0.45204188709049276 -0.04488097658725744
      vertex 0.083293202107066255 -0.46753942707993251 -0.047575236369127527
      vertex -0.003228223063291521 -0.54514842081331394 -0.16125038014524878
    endloop
  endfacet
  facet normal -0.046386934320749855 -0.58708086377338431 -0.80819818838909763
    outer loop
      vertex 0.018369287415229717 -0.75947202619600218 -0.22950192899566341
      vertex 0.1195681750189688 -0.85855174437154991 -0.16333808311659759
      vertex -0.27273503480720052 -0.82671408259853651 -0.16394874861089104
    endloop
  endfacet
  facet normal -0.064021093789025874 -0.8003018869223778 -0.59616959779792389
    outer loop
      vertex -0.27273503480720052 -0.82671408259853651 -0.16394874861089104
      vertex 0.1195681750189688 -0.85855174437154991 -0.16333808311659759
      vertex -0.12009896677490632 -0.92713732736179499 -0.045531129684021031
    endloop
  endfacet
  facet normal 0.045430535015627278 -0.9989519164133126 -0.0055798908917720283
    outer loop
      vertex -0.12009896677490632 -0.92713732736179499 -0.045531129684021031
      vertex 0.1836692260850141 -0.91332302390851827 -0.04543675260733171
      vertex 0.056673689640807573 -0.91985215692706523 0.089478927777765505
    endloop
  endfacet
  facet normal 0.020805514665171543 -0.43283606105204409 0.9012325309333149
    outer loop
      vertex 0.049472464423163734 -0.86913350461360428 0.16394874861088959
      vertex 0.16424531497943753 -0.72654925562316486 0.22977825924144121
      vertex -0.16751208202293652 -0.77771519587788296 0.21286355617865049
    endloop
  endfacet
  facet normal -0.042414795344200971 0.1329284849586079 0.99021765436822962
    outer loop
      vertex 0.16424531497943753 -0.72654925562316486 0.22977825924144121
      vertex 0.20590373999669526 -0.58261061003554271 0.21224008221856436
      vertex -0.10301043084582055 -0.56976302396201273 0.19728342958567663
    endloop
  endfacet
  facet normal -0.021273946542666223 0.49782463566849716 0.86701675377124499
    outer loop
      vertex -0.10301043084582055 -0.56976302396201273 0.19728342958567663
      vertex 0.20590373999669526 -0.58261061003554271 0.21224008221856436
      vertex 0.24555992594190548 -0.49017213070330096 0.16013669607412817
    endloop
  endfacet
  facet normal -0.15981725302098365 0.89464597353853381 0.41721340782400101
    outer loop
      vertex -0.10301043084582055 -0.56976302396201273 0.19728342958567663
      vertex 0.24555992594190548 -0.49017213070330096 0.16013669607412817
      vertex 0.097071579588246984 -0.48273444370234281 0.087308029070849696
    endloop
  endfacet
  facet normal 0.040949944891079268 -0.89746414247045669 -0.43918243930419759
    outer loop
      vertex 0.1195681750189688 -0.85855174437154991 -0.16333808311659759
      vertex 0.1836692260850141 -0.91332302390851827 -0.04543675260733171
      vertex -0.12009896677490632 -0.92713732736179499 -0.045531129684021031
    endloop
  endfacet
  facet normal 0.28518493340673357 -0.91249359086296011 0.29330018818919595
    outer loop
      vertex 0.1836692260850141 -0.91332302390851827 -0.04543675260733171
      vertex 0.46763597138441598 -0.80996926188463059 -4.5409016658844346e-17
      vertex 0.50900693341866843 -0.76827849080434341 0.089478927777765532
    endloop
  endfacet
  facet normal 0.30800973894493322 -0.91917710969219846 0.24544539460533843
    outer loop
      vertex 0.1836692260850141 -0.91332302390851827 -0.04543675260733171
      vertex 0.50900693341866843 -0.76827849080434341 0.089478927777765532
      vertex 0.056673689640807573 -0.91985215692706523 0.089478927777765505
    endloop
  endfacet
  facet normal 0.26137415325821822 -0.78000500751402291 0.56857342556753276
    outer loop
      vertex 0.056673689640807573 -0.91985215692706523 0.089478927777765505
      vertex 0.50900693341866843 -0.76827849080434341 0.089478927777765532
      vertex 0.41687890594465571 -0.72034401865705366 0.19758987830001495
    endloop
  endfacet
  facet normal 0.26640882918886555 -0.78446724538288304 0.56003346029644441
    outer loop
      vertex 0.056673689640807573 -0.91985215692706523 0.089478927777765505
      vertex 0.41687890594465571 -0.72034401865705366 0.19758987830001495
      vertex 0.049472464423163734 -0.86913350461360428 0.16394874861088959
    endloop
  endfacet
  facet normal 0.12176443032676793 -0.4951685195736748 0.86022180902974854
    outer loop
      vertex 0.049472464423163734 -0.86913350461360428 0.16394874861088959
      vertex 0.41687890594465571 -0.72034401865705366 0.19758987830001495
      vertex 0.16424531497943753 -0.72654925562316486 0.22977825924144121
    endloop
  endfacet
  facet normal -0.38805870912883345 0.91059509498532354 0.14222169756381375
    outer loop
      vertex 0.097071579588246984 -0.48273444370234281 0.087308029070849696
      vertex 0.29286989890209614 -0.37762411555949993 -0.051431041933345245
      vertex 0.083293202107066255 -0.46753942707993251 -0.047575236369127527
    endloop
  endfacet
  facet normal -0.29248548006651098 0.87869517550985277 -0.37728905693906889
    outer loop
      vertex 0.083293202107066255 -0.46753942707993251 -0.047575236369127527
      vertex 0.32930421012569305 -0.43446053829190318 -0.16125038014524917
      vertex -0.003228223063291521 -0.54514842081331394 -0.16125038014524878
    endloop
  endfacet
  facet normal -0.14038407625682259 0.42174678379667163 -0.89578008545104526
    outer loop
      vertex -0.003228223063291521 -0.54514842081331394 -0.16125038014524878
      vertex 0.32930421012569305 -0.43446053829190318 -0.16125038014524917
      vertex 0.073278364805074186 -0.62592349273352799 -0.2112703953102385
    endloop
  endfacet
  facet normal 0.13637515249473839 -0.45004735419551001 -0.88252999765654316
    outer loop
      vertex 0.018369287415229717 -0.75947202619600218 -0.22950192899566341
      vertex 0.47610922424672153 -0.69529632111487083 -0.19149500854876678
      vertex 0.1195681750189688 -0.85855174437154991 -0.16333808311659759
    endloop
  endfacet
  facet normal 0.28978225439581162 -0.7379793151566808 -0.60943644085183946
    outer loop
      vertex 0.1195681750189688 -0.85855174437154991 -0.16333808311659759
      vertex 0.47610922424672153 -0.69529632111487083 -0.19149500854876678
      vertex 0.51500825254451088 -0.7642685375651177 -0.089478927777767767
    endloop
  endfacet
  facet normal 0.28901622399438204 -0.79850042823283973 -0.52807829758474334
    outer loop
      vertex 0.1195681750189688 -0.85855174437154991 -0.16333808311659759
      vertex 0.51500825254451088 -0.7642685375651177 -0.089478927777767767
      vertex 0.1836692260850141 -0.91332302390851827 -0.04543675260733171
    endloop
  endfacet
  facet normal 0.36679962628564555 -0.8927160256040505 -0.26175586294564451
    outer loop
      vertex 0.1836692260850141 -0.91332302390851827 -0.04543675260733171
      vertex 0.51500825254451088 -0.7642685375651177 -0.089478927777767767
      vertex 0.46763597138441598 -0.80996926188463059 -4.5409016658844346e-17
    endloop
  endfacet
  facet normal -0.30867629239030969 0.64873275516981332 0.6956038807295104
    outer loop
      vertex 0.24555992594190548 -0.49017213070330096 0.16013669607412817
      vertex 0.36270564718933368 -0.31381091160710917 0.04764279712797901
      vertex 0.097071579588246984 -0.48273444370234281 0.087308029070849696
    endloop
  endfacet
  facet normal -0.54629762254388947 0.82474395847604054 -0.1461379846589016
    outer loop
      vertex 0.097071579588246984 -0.48273444370234281 0.087308029070849696
      vertex 0.36270564718933368 -0.31381091160710917 0.04764279712797901
      vertex 0.29286989890209614 -0.37762411555949993 -0.051431041933345245
    endloop
  endfacet
  facet normal -0.34502944238073052 0.78193978271648279 -0.51915783736330312
    outer loop
      vertex 0.083293202107066255 -0.46753942707993251 -0.047575236369127527
      vertex 0.29286989890209614 -0.37762411555949993 -0.051431041933345245
      vertex 0.32930421012569305 -0.43446053829190318 -0.16125038014524917
    endloop
  endfacet
  facet normal -0.091227544274223402 0.17142607546451175 -0.98096413584622455
    outer loop
      vertex 0.073278364805074186 -0.62592349273352799 -0.2112703953102385
      vertex 0.62141765915028491 -0.43125187137395632 -0.22822678452113007
      vertex 0.018369287415229717 -0.75947202619600218 -0.22950192899566341
    endloop
  endfacet
  facet normal 0.10830408189869072 -0.19520323073490514 -0.97476454826523984
    outer loop
      vertex 0.018369287415229717 -0.75947202619600218 -0.22950192899566341
      vertex 0.62141765915028491 -0.43125187137395632 -0.22822678452113007
      vertex 0.47610922424672153 -0.69529632111487083 -0.19149500854876678
    endloop
  endfacet
  facet normal -0.12713725994362868 0.15614494821488481 0.97951767328670336
    outer loop
      vertex 0.16424531497943753 -0.72654925562316486 0.22977825924144121
      vertex 0.5736903144333303 -0.27252473607929506 0.21054642680184091
      vertex 0.20590373999669526 -0.58261061003554271 0.21224008221856436
    endloop
  endfacet
  facet normal -0.48427586041356591 0.57797729637787865 0.65682504207164505
    outer loop
      vertex 0.20590373999669526 -0.58261061003554271 0.21224008221856436
      vertex 0.5736903144333303 -0.27252473607929506 0.21054642680184091
      vertex 0.24555992594190548 -0.49017213070330096 0.16013669607412817
    endloop
  endfacet
  facet normal -0.45220461948944329 0.73622468762826743 -0.50347213571266092
    outer loop
      vertex 0.32930421012569305 -0.43446053829190318 -0.16125038014524917
      vertex 0.5152543414602555 -0.35478196579916155 -0.2117520354236139
      vertex 0.073278364805074186 -0.62592349273352799 -0.2112703953102385
    endloop
  endfacet
  facet normal -0.071307865394416275 0.11447572855559027 -0.99086351022961716
    outer loop
      vertex 0.073278364805074186 -0.62592349273352799 -0.2112703953102385
      vertex 0.5152543414602555 -0.35478196579916155 -0.2117520354236139
      vertex 0.62141765915028491 -0.43125187137395632 -0.22822678452113007
    endloop
  endfacet
  facet normal 0.65866579764851962 -0.75106439618773957 0.045405283692382573
    outer loop
      vertex 0.46763597138441598 -0.80996926188463059 -4.5409016658844346e-17
      vertex 0.74200111987632678 -0.5693574843917103 -8.1263163760119819e-16
      vertex 0.50900693341866843 -0.76827849080434341 0.089478927777765532
    endloop
  endfacet
  facet normal 0.50257390403694469 -0.54595232967506835 0.67033985761211401
    outer loop
      vertex 0.50900693341866843 -0.76827849080434341 0.089478927777765532
      vertex 0.75812130149503187 -0.48169931597721699 0.13611226945126992
      vertex 0.41687890594465571 -0.72034401865705366 0.19758987830001495
    endloop
  endfacet
  facet normal 0.12867745261700306 -0.19169904198768969 0.97298180378103727
    outer loop
      vertex 0.41687890594465571 -0.72034401865705366 0.19758987830001495
      vertex 0.60818495709488363 -0.42787811246953122 0.22991181749329659
      vertex 0.16424531497943753 -0.72654925562316486 0.22977825924144121
    endloop
  endfacet
  facet normal -0.07260744360553438 0.10747905595506738 0.99155252592289667
    outer loop
      vertex 0.16424531497943753 -0.72654925562316486 0.22977825924144121
      vertex 0.60818495709488363 -0.42787811246953122 0.22991181749329659
      vertex 0.5736903144333303 -0.27252473607929506 0.21054642680184091
    endloop
  endfacet
  facet normal 0.65894409897207828 -0.75138173802677732 -0.034902122997538414
    outer loop
      vertex 0.51500825254451088 -0.7642685375651177 -0.089478927777767767
      vertex 0.74200111987632678 -0.5693574843917103 -8.1263163760119819e-16
      vertex 0.46763597138441598 -0.80996926188463059 -4.5409016658844346e-17
    endloop
  endfacet
  facet normal 0.68284281524588131 -0.64836027992701606 0.33668180390398361
    outer loop
      vertex 0.74200111987632678 -0.5693574843917103 -8.1263163760119819e-16
      vertex 0.75812130149503187 -0.48169931597721699 0.13611226945126992
      vertex 0.50900693341866843 -0.76827849080434341 0.089478927777765532
    endloop
  endfacet
  facet normal 0.40070279319377411 -0.35543060044475622 0.84445625096519206
    outer loop
      vertex 0.75812130149503187 -0.48169931597721699 0.13611226945126992
      vertex 0.60818495709488363 -0.42787811246953122 0.22991181749329659
      vertex 0.41687890594465571 -0.72034401865705366 0.19758987830001495
    endloop
  endfacet
  facet normal -0.33964837615961124 0.30607623000438777 0.88935725217622208
    outer loop
      vertex 0.5736903144333303 -0.27252473607929506 0.21054642680184091
      vertex 0.50488685565257196 -0.2056367796106911 0.16125038014524923
      vertex 0.24555992594190548 -0.49017213070330096 0.16013669607412817
    endloop
  endfacet
  facet normal -0.71134486227136862 0.6472509381549848 0.27396114683951045
    outer loop
      vertex 0.24555992594190548 -0.49017213070330096 0.16013669607412817
      vertex 0.50488685565257196 -0.2056367796106911 0.16125038014524923
      vertex 0.36270564718933368 -0.31381091160710917 0.04764279712797901
    endloop
  endfacet
  facet normal 0.45366453520181738 -0.36288885110421032 -0.81394113499956822
    outer loop
      vertex 0.62141765915028491 -0.43125187137395632 -0.22822678452113007
      vertex 0.74948980883324134 -0.49273952448033925 -0.1294297430727602
      vertex 0.47610922424672153 -0.69529632111487083 -0.19149500854876678
    endloop
  endfacet
  facet normal 0.5597496586345122 -0.57164501664060685 -0.59991857331516851
    outer loop
      vertex 0.47610922424672153 -0.69529632111487083 -0.19149500854876678
      vertex 0.74948980883324134 -0.49273952448033925 -0.1294297430727602
      vertex 0.51500825254451088 -0.7642685375651177 -0.089478927777767767
    endloop
  endfacet
  facet normal 0.68617717710679871 -0.64269041631736123 -0.34074904312640697
    outer loop
      vertex 0.51500825254451088 -0.7642685375651177 -0.089478927777767767
      vertex 0.74948980883324134 -0.49273952448033925 -0.1294297430727602
      vertex 0.74200111987632678 -0.5693574843917103 -8.1263163760119819e-16
    endloop
  endfacet
  facet normal -0.86714869521324389 0.45052023993305002 -0.21233147152656354
    outer loop
      vertex 0.36270564718933368 -0.31381091160710917 0.04764279712797901
      vertex 0.45005720794081994 -0.14964252661249913 0.03923324897922386
      vertex 0.48064999159864391 -0.17057782210360375 -0.13012585036204405
    endloop
  endfacet
  facet normal -0.72544196778061976 0.68467818656962542 0.070354333330019281
    outer loop
      vertex 0.36270564718933368 -0.31381091160710917 0.04764279712797901
      vertex 0.48064999159864391 -0.17057782210360375 -0.13012585036204405
      vertex 0.29286989890209614 -0.37762411555949993 -0.051431041933345245
    endloop
  endfacet
  facet normal -0.73050511479193203 0.47665180637325127 -0.48904532790319444
    outer loop
      vertex 0.29286989890209614 -0.37762411555949993 -0.051431041933345245
      vertex 0.48064999159864391 -0.17057782210360375 -0.13012585036204405
      vertex 0.32930421012569305 -0.43446053829190318 -0.16125038014524917
    endloop
  endfacet
  facet normal -0.37256497629134033 0.31656995866060722 -0.87234098821198047
    outer loop
      vertex 0.32930421012569305 -0.43446053829190318 -0.16125038014524917
      vertex 0.48064999159864391 -0.17057782210360375 -0.13012585036204405
      vertex 0.5152543414602555 -0.35478196579916155 -0.2117520354236139
    endloop
  endfacet
  facet normal -0.13075448886843447 0.03195366431468348 -0.99089970581165221
    outer loop
      vertex 0.5152543414602555 -0.35478196579916155 -0.2117520354236139
      vertex 0.71760935891955369 -0.092642069626585527 -0.23000059935598252
      vertex 0.62141765915028491 -0.43125187137395632 -0.22822678452113007
    endloop
  endfacet
  facet normal 0.88611504931255503 -0.43029833008230955 0.17217278097941027
    outer loop
      vertex 0.74200111987632678 -0.5693574843917103 -8.1263163760119819e-16
      vertex 0.8827955536085067 -0.29759929627120801 -0.045436752607331599
      vertex 0.75812130149503187 -0.48169931597721699 0.13611226945126992
    endloop
  endfacet
  facet normal 0.45221823668455691 -0.23816990480418979 0.85951949533182381
    outer loop
      vertex 0.75812130149503187 -0.48169931597721699 0.13611226945126992
      vertex 0.77771519587788251 -0.16751208202293708 0.21286355617865066
      vertex 0.60818495709488363 -0.42787811246953122 0.22991181749329659
    endloop
  endfacet
  facet normal 0.25701598972028944 -0.078058671246469563 -0.96324951329929864
    outer loop
      vertex 0.71760935891955369 -0.092642069626585527 -0.23000059935598252
      vertex 0.81155378868955141 -0.18717130476762248 -0.19727382747615752
      vertex 0.62141765915028491 -0.43125187137395632 -0.22822678452113007
    endloop
  endfacet
  facet normal 0.4969190345407779 -0.28306446288805054 -0.82033284888571945
    outer loop
      vertex 0.62141765915028491 -0.43125187137395632 -0.22822678452113007
      vertex 0.81155378868955141 -0.18717130476762248 -0.19727382747615752
      vertex 0.74948980883324134 -0.49273952448033925 -0.1294297430727602
    endloop
  endfacet
  facet normal 0.77253596491564502 -0.28310213157726893 -0.56836728090932553
    outer loop
      vertex 0.74948980883324134 -0.49273952448033925 -0.1294297430727602
      vertex 0.81155378868955141 -0.18717130476762248 -0.19727382747615752
      vertex 0.8827955536085067 -0.29759929627120801 -0.045436752607331599
    endloop
  endfacet
  facet normal 0.84677182024007736 -0.47779990893086627 -0.23384766723865716
    outer loop
      vertex 0.74948980883324134 -0.49273952448033925 -0.1294297430727602
      vertex 0.8827955536085067 -0.29759929627120801 -0.045436752607331599
      vertex 0.74200111987632678 -0.5693574843917103 -8.1263163760119819e-16
    endloop
  endfacet
  facet normal 0.90073062327278541 -0.31415536905926789 0.29998458025347696
    outer loop
      vertex 0.8827955536085067 -0.29759929627120801 -0.045436752607331599
      vertex 0.91938009511683005 -0.063875961079618099 0.089478927777765879
      vertex 0.75812130149503187 -0.48169931597721699 0.13611226945126992
    endloop
  endfacet
  facet normal 0.79912482675449859 -0.24726407907455114 0.54795984019269783
    outer loop
      vertex 0.75812130149503187 -0.48169931597721699 0.13611226945126992
      vertex 0.91938009511683005 -0.063875961079618099 0.089478927777765879
      vertex 0.86815539939786668 -0.064395466256237724 0.16394874861088937
    endloop
  endfacet
  facet normal 0.64545575368423735 -0.21900312428042368 0.73172706769076579
    outer loop
      vertex 0.75812130149503187 -0.48169931597721699 0.13611226945126992
      vertex 0.86815539939786668 -0.064395466256237724 0.16394874861088937
      vertex 0.77771519587788251 -0.16751208202293708 0.21286355617865066
    endloop
  endfacet
  facet normal -0.73970956284428646 0.42050041094046153 0.52536574596714769
    outer loop
      vertex 0.50488685565257196 -0.2056367796106911 0.16125038014524923
      vertex 0.45005720794081994 -0.14964252661249913 0.03923324897922386
      vertex 0.36270564718933368 -0.31381091160710917 0.04764279712797901
    endloop
  endfacet
  facet normal 0.9822779275591873 -0.18126857400309032 0.047663163018352633
    outer loop
      vertex 0.8827955536085067 -0.29759929627120801 -0.045436752607331599
      vertex 0.93511661269103274 -0.012256367980231711 -0.038515595701340631
      vertex 0.91938009511683005 -0.063875961079618099 0.089478927777765879
    endloop
  endfacet
  facet normal 0.12440010944168922 -0.016038795791711649 0.99210249964428954
    outer loop
      vertex 0.77771519587788251 -0.16751208202293708 0.21286355617865066
      vertex 0.69266375543545 0.23315167938131959 0.23000550749478124
      vertex 0.60818495709488363 -0.42787811246953122 0.22991181749329659
    endloop
  endfacet
  facet normal -0.33567840687256795 0.042765917658485086 0.94100535782020001
    outer loop
      vertex 0.60818495709488363 -0.42787811246953122 0.22991181749329659
      vertex 0.69266375543545 0.23315167938131959 0.23000550749478124
      vertex 0.5736903144333303 -0.27252473607929506 0.21054642680184091
    endloop
  endfacet
  facet normal -0.76818224348663111 0.13318839715062725 -0.62622431416888713
    outer loop
      vertex 0.48064999159864391 -0.17057782210360375 -0.13012585036204405
      vertex 0.57648829972687587 0.073979863664887555 -0.19567590877204949
      vertex 0.5152543414602555 -0.35478196579916155 -0.2117520354236139
    endloop
  endfacet
  facet normal -0.16752517239043477 0.060819260488188989 -0.98399000714906892
    outer loop
      vertex 0.5152543414602555 -0.35478196579916155 -0.2117520354236139
      vertex 0.57648829972687587 0.073979863664887555 -0.19567590877204949
      vertex 0.71760935891955369 -0.092642069626585527 -0.23000059935598252
    endloop
  endfacet
  facet normal 0.85151753394933771 -0.1439065366876873 -0.5041912316526278
    outer loop
      vertex 0.81155378868955141 -0.18717130476762248 -0.19727382747615752
      vertex 0.93511661269103274 -0.012256367980231711 -0.038515595701340631
      vertex 0.8827955536085067 -0.29759929627120801 -0.045436752607331599
    endloop
  endfacet
  facet normal -0.55267755908123661 0.044814052523420238 0.83218941136284252
    outer loop
      vertex 0.5736903144333303 -0.27252473607929506 0.21054642680184091
      vertex 0.5313675215076562 0.10871525267954343 0.16190874142004374
      vertex 0.50488685565257196 -0.2056367796106911 0.16125038014524923
    endloop
  endfacet
  facet normal -0.84061563112411897 0.069687590903949034 0.53713033835727697
    outer loop
      vertex 0.50488685565257196 -0.2056367796106911 0.16125038014524923
      vertex 0.5313675215076562 0.10871525267954343 0.16190874142004374
      vertex 0.48273444370234203 0.097071579588247983 0.087308029070848669
    endloop
  endfacet
  facet normal -0.90499664035385741 0.037288473232485762 0.42378137136054123
    outer loop
      vertex 0.50488685565257196 -0.2056367796106911 0.16125038014524923
      vertex 0.48273444370234203 0.097071579588247983 0.087308029070848669
      vertex 0.45005720794081994 -0.14964252661249913 0.03923324897922386
    endloop
  endfacet
  facet normal -0.98711502483556957 0.107679575122655 0.11835977714273305
    outer loop
      vertex 0.45005720794081994 -0.14964252661249913 0.03923324897922386
      vertex 0.48273444370234203 0.097071579588247983 0.087308029070848669
      vertex 0.46624209599930555 0.092638802935056913 -0.046204597324128391
    endloop
  endfacet
  facet normal -0.98400605969417021 0.0029247387157352472 -0.17811097773185605
    outer loop
      vertex 0.45005720794081994 -0.14964252661249913 0.03923324897922386
      vertex 0.46624209599930555 0.092638802935056913 -0.046204597324128391
      vertex 0.48064999159864391 -0.17057782210360375 -0.13012585036204405
    endloop
  endfacet
  facet normal -0.7870175327771608 0.14788161876964051 -0.5989444297523947
    outer loop
      vertex 0.48064999159864391 -0.17057782210360375 -0.13012585036204405
      vertex 0.46624209599930555 0.092638802935056913 -0.046204597324128391
      vertex 0.57648829972687587 0.073979863664887555 -0.19567590877204949
    endloop
  endfacet
  facet normal 0.79328874014264827 -0.0078308930937212324 -0.60879524626613546
    outer loop
      vertex 0.81155378868955141 -0.18717130476762248 -0.19727382747615752
      vertex 0.81678575585421054 0.19506384821594358 -0.19537299459689128
      vertex 0.93511661269103274 -0.012256367980231711 -0.038515595701340631
    endloop
  endfacet
endsolid line_w_1e_04
