solid line_w_1e_03
  facet normal 0.97829665201273941 -0.014398757655647567 0.20670833664523283
    outer loop
      vertex 0.92971472785450815 -0.059177346508248747 -0.045431058309324042
      vertex 0.91403669576949387 0.18002319938309394 0.045431058309323626
      vertex 0.8917694271688803 -0.10533544300832522 0.1309389031866465
    endloop
  endfacet
  facet normal 0.88950301665024956 0.066069956387616355 0.45212735399779175
    outer loop
      vertex 0.8917694271688803 -0.10533544300832522 0.1309389031866465
      vertex 0.91403669576949387 0.18002319938309394 0.045431058309323626
      vertex 0.85498970412386754 0.16289018688786636 0.1641021674710067
    endloop
  endfacet
  facet normal 0.45132337317040128 0.016070459709888081 0.89221575482323978
    outer loop
      vertex 0.85498970412386754 0.16289018688786636 0.1641021674710067
      vertex 0.72616338139903347 0.22151863600027225 0.22821238306267022
      vertex 0.73771214220304882 -0.16028804814994291 0.22924753991526206
    endloop
  endfacet
  facet normal -0.63337221520769249 0.025435854974063997 0.77342915272482393
    outer loop
      vertex 0.58921078701354834 0.20847687322719874 0.21153721190176655
      vertex 0.48959151197309564 0.1623259749296404 0.13147533016950716
      vertex 0.55385489738830318 -0.17747764496674884 0.19527669865771935
    endloop
  endfacet
  facet normal 0.97333376751623113 0.13440812855096307 -0.1858919901235315
    outer loop
      vertex 0.92971472785450815 -0.059177346508248747 -0.045431058309324042
      vertex 0.87716111021175158 0.20102429176448047 -0.13246544532055593
      vertex 0.91403669576949387 0.18002319938309394 0.045431058309323626
    endloop
  endfacet
  facet normal -0.12077576346959308 -0.0009618259396085158 0.99267934895876564
    outer loop
      vertex 0.73771214220304882 -0.16028804814994291 0.22924753991526206
      vertex 0.72616338139903347 0.22151863600027225 0.22821238306267022
      vertex 0.58921078701354834 0.20847687322719874 0.21153721190176655
    endloop
  endfacet
  facet normal -0.78537108242307707 -0.16262961959961547 -0.59728039455727033
    outer loop
      vertex 0.48139560697963868 -0.036242314296339895 -0.054705547347314157
      vertex 0.42731763453515603 0.20742453444613185 -0.049944251212604387
      vertex 0.54070179647634842 0.068039563418118731 -0.16108219878646141
    endloop
  endfacet
  facet normal -0.042227685106058378 -0.012862971357785791 -0.99902520817966955
    outer loop
      vertex 0.64381302188649925 0.054841372834803635 -0.22480265815478695
      vertex 0.68623694288968695 0.30131682107209096 -0.22976937027329455
      vertex 0.75741786660017829 -0.030470428905225905 -0.22850617465921072
    endloop
  endfacet
  facet normal 0.49396842252759676 0.10268776812471542 -0.86339470685380171
    outer loop
      vertex 0.75741786660017829 -0.030470428905225905 -0.22850617465921072
      vertex 0.68623694288968695 0.30131682107209096 -0.22976937027329455
      vertex 0.87716111021175158 0.20102429176448047 -0.13246544532055593
    endloop
  endfacet
  facet normal 0.84148901785931951 0.28387962712565878 0.45968314100601365
    outer loop
      vertex 0.91403669576949387 0.18002319938309394 0.045431058309323626
      vertex 0.83629821805904381 0.41045916240304359 0.045431058309323251
      vertex 0.85498970412386754 0.16289018688786636 0.1641021674710067
    endloop
  endfacet
  facet normal -0.93907374939946919 -0.2136732325585422 0.26922897852349759
    outer loop
      vertex 0.48959151197309564 0.1623259749296404 0.13147533016950716
      vertex 0.42731763453515603 0.20742453444613185 -0.049944251212604387
      vertex 0.48139560697963868 -0.036242314296339895 -0.054705547347314157
    endloop
  endfacet
  facet normal -0.53266258982193848 -0.23221963533195086 -0.81384556665898289
    outer loop
      vertex 0.54070179647634842 0.068039563418118731 -0.16108219878646141
      vertex 0.50123433513593119 0.28042263195485484 -0.19585129960145001
      vertex 0.64381302188649925 0.054841372834803635 -0.22480265815478695
    endloop
  endfacet
  facet normal -0.18157045240229558 0.011437673809053674 -0.98331142087960288
    outer loop
      vertex 0.64381302188649925 0.054841372834803635 -0.22480265815478695
      vertex 0.50123433513593119 0.28042263195485484 -0.19585129960145001
      vertex 0.68623694288968695 0.30131682107209096 -0.22976937027329455
    endloop
  endfacet
  facet normal 0.53249782895575493 0.22097077131508025 -0.81707893154934919
    outer loop
      vertex 0.68623694288968695 0.30131682107209096 -0.22976937027329455
      vertex 0.73705191248380608 0.50173543296784751 -0.14245159289707651
      vertex 0.87716111021175158 0.20102429176448047 -0.13246544532055593
    endloop
  endfacet
  facet normal 0.93582638878915014 0.3157047099433784 -0.15671472861676305
    outer loop
      vertex 0.87716111021175158 0.20102429176448047 -0.13246544532055593
      vertex 0.83629821805904381 0.41045916240304359 0.045431058309323251
      vertex 0.91403669576949387 0.18002319938309394 0.045431058309323626
    endloop
  endfacet
  facet normal 0.72381634965739339 0.34192636400201437 0.59931315150679598
    outer loop
      vertex 0.83629821805904381 0.41045916240304359 0.045431058309323251
      vertex 0.67191924650356483 0.50365758709741792 0.19078610090473425
      vertex 0.85498970412386754 0.16289018688786636 0.1641021674710067
    endloop
  endfacet
  facet normal 0.51021101636662658 0.20876837096539941 0.83432636663513571
    outer loop
      vertex 0.85498970412386754 0.16289018688786636 0.1641021674710067
      vertex 0.67191924650356483 0.50365758709741792 0.19078610090473425
      vertex 0.72616338139903347 0.22151863600027225 0.22821238306267022
    endloop
  endfacet
  facet normal -0.81505384091878341 -0.5622124487051875 0.14001570956308917
    outer loop
      vertex 0.48959151197309564 0.1623259749296404 0.13147533016950716
      vertex 0.36951564136378545 0.32538754869332948 0.087244201493267906
      vertex 0.42731763453515603 0.20742453444613185 -0.049944251212604387
    endloop
  endfacet
  facet normal -0.81319897981045031 -0.23805910670075039 -0.53106993979332306
    outer loop
      vertex 0.42731763453515603 0.20742453444613185 -0.049944251212604387
      vertex 0.50123433513593119 0.28042263195485484 -0.19585129960145001
      vertex 0.54070179647634842 0.068039563418118731 -0.16108219878646141
    endloop
  endfacet
  facet normal 0.87643741505204442 0.3994247771360474 -0.26891877008998305
    outer loop
      vertex 0.87716111021175158 0.20102429176448047 -0.13246544532055593
      vertex 0.73705191248380608 0.50173543296784751 -0.14245159289707651
      vertex 0.83629821805904381 0.41045916240304359 0.045431058309323251
    endloop
  endfacet
  facet normal 0.71819248955049642 0.47792562847690467 0.5057535383941627
    outer loop
      vertex 0.83629821805904381 0.41045916240304359 0.045431058309323251
      vertex 0.70156739883602992 0.61292301182105002 0.045431058309323466
      vertex 0.67191924650356483 0.50365758709741792 0.19078610090473425
    endloop
  endfacet
  facet normal 0.21725923505840575 0.16929149501469348 0.96132138980547333
    outer loop
      vertex 0.72616338139903347 0.22151863600027225 0.22821238306267022
      vertex 0.67191924650356483 0.50365758709741792 0.19078610090473425
      vertex 0.39651474605584258 0.63431367060292221 0.23001877354622707
    endloop
  endfacet
  facet normal -0.11156612651425164 -0.093423566542392159 0.98935586955812083
    outer loop
      vertex 0.72616338139903347 0.22151863600027225 0.22821238306267022
      vertex 0.39651474605584258 0.63431367060292221 0.23001877354622707
      vertex 0.58921078701354834 0.20847687322719874 0.21153721190176655
    endloop
  endfacet
  facet normal -0.78036093503403459 -0.5973775041518431 0.18487003166041241
    outer loop
      vertex 0.36951564136378545 0.32538754869332948 0.087244201493267906
      vertex 0.3279501526262939 0.33949741567774705 -0.042615496791245953
      vertex 0.42731763453515603 0.20742453444613185 -0.049944251212604387
    endloop
  endfacet
  facet normal -0.15975725392764309 -0.16531362910963993 -0.97321581565863324
    outer loop
      vertex 0.50123433513593119 0.28042263195485484 -0.19585129960145001
      vertex 0.35387216929309517 0.51517613104987015 -0.21153721190176633
      vertex 0.68623694288968695 0.30131682107209096 -0.22976937027329455
    endloop
  endfacet
  facet normal 0.40717784739701146 0.27607406650689487 -0.8706258153716111
    outer loop
      vertex 0.68623694288968695 0.30131682107209096 -0.22976937027329455
      vertex 0.51636057719179329 0.6048530111010314 -0.21296699990186307
      vertex 0.73705191248380608 0.50173543296784751 -0.14245159289707651
    endloop
  endfacet
  facet normal 0.82065550187012348 0.54611027294338244 -0.16819071625984633
    outer loop
      vertex 0.73705191248380608 0.50173543296784751 -0.14245159289707651
      vertex 0.70156739883602992 0.61292301182105002 0.045431058309323466
      vertex 0.83629821805904381 0.41045916240304359 0.045431058309323251
    endloop
  endfacet
  facet normal -0.15990905072421568 -0.11491149664388059 0.98042054417252178
    outer loop
      vertex 0.39651474605584258 0.63431367060292221 0.23001877354622707
      vertex 0.26505833996709616 0.52000496522287321 0.19518019970469008
      vertex 0.58921078701354834 0.20847687322719874 0.21153721190176655
    endloop
  endfacet
  facet normal -0.4428203400701009 -0.41914881077316973 0.79260609437957119
    outer loop
      vertex 0.58921078701354834 0.20847687322719874 0.21153721190176655
      vertex 0.26505833996709616 0.52000496522287321 0.19518019970469008
      vertex 0.48959151197309564 0.1623259749296404 0.13147533016950716
    endloop
  endfacet
  facet normal -0.81421282674519713 -0.54618030953257868 0.19683633364420272
    outer loop
      vertex 0.48959151197309564 0.1623259749296404 0.13147533016950716
      vertex 0.26505833996709616 0.52000496522287321 0.19518019970469008
      vertex 0.36951564136378545 0.32538754869332948 0.087244201493267906
    endloop
  endfacet
  facet normal -0.78926271415113514 -0.58314112689605169 -0.19238189668777694
    outer loop
      vertex 0.42731763453515603 0.20742453444613185 -0.049944251212604387
      vertex 0.3279501526262939 0.33949741567774705 -0.042615496791245953
      vertex 0.24537028842605765 0.4899586813560533 -0.15989755221021951
    endloop
  endfacet
  facet normal -0.56341943164154573 -0.58849434751741736 -0.57985597090033203
    outer loop
      vertex 0.42731763453515603 0.20742453444613185 -0.049944251212604387
      vertex 0.24537028842605765 0.4899586813560533 -0.15989755221021951
      vertex 0.50123433513593119 0.28042263195485484 -0.19585129960145001
    endloop
  endfacet
  facet normal -0.35748347701294569 -0.28385467157906541 -0.88973708986726852
    outer loop
      vertex 0.50123433513593119 0.28042263195485484 -0.19585129960145001
      vertex 0.24537028842605765 0.4899586813560533 -0.15989755221021951
      vertex 0.35387216929309517 0.51517613104987015 -0.21153721190176633
    endloop
  endfacet
  facet normal -0.16094168196697833 -0.16719848170019061 -0.97269853640415804
    outer loop
      vertex 0.35387216929309517 0.51517613104987015 -0.21153721190176633
      vertex 0.26466438480633503 0.70213666118357709 -0.22891388644561361
      vertex 0.68623694288968695 0.30131682107209096 -0.22976937027329455
    endloop
  endfacet
  facet normal 0.10681351145090516 0.11445187142527477 -0.98766980458996501
    outer loop
      vertex 0.68623694288968695 0.30131682107209096 -0.22976937027329455
      vertex 0.26466438480633503 0.70213666118357709 -0.22891388644561361
      vertex 0.51636057719179329 0.6048530111010314 -0.21296699990186307
    endloop
  endfacet
  facet normal 0.69588628263143704 0.66792781000008994 -0.26384602000766222
    outer loop
      vertex 0.73705191248380608 0.50173543296784751 -0.14245159289707651
      vertex 0.51008934216750357 0.74263887632971803 -0.13121030150977095
      vertex 0.70156739883602992 0.61292301182105002 0.045431058309323466
    endloop
  endfacet
  facet normal 0.54653186237567408 0.64889807517076459 0.52937152496885775
    outer loop
      vertex 0.70156739883602992 0.61292301182105002 0.045431058309323466
      vertex 0.46901708158918992 0.80869632999093555 0.045542943153791489
      vertex 0.39125528020203298 0.77747020062264205 0.1641021674710067
    endloop
  endfacet
  facet normal 0.54417347837134955 0.61355377758413843 0.57221236219559246
    outer loop
      vertex 0.70156739883602992 0.61292301182105002 0.045431058309323466
      vertex 0.39125528020203298 0.77747020062264205 0.1641021674710067
      vertex 0.67191924650356483 0.50365758709741792 0.19078610090473425
    endloop
  endfacet
  facet normal 0.31501250840544687 0.40647454039398195 0.85763953241417767
    outer loop
      vertex 0.67191924650356483 0.50365758709741792 0.19078610090473425
      vertex 0.39125528020203298 0.77747020062264205 0.1641021674710067
      vertex 0.39651474605584258 0.63431367060292221 0.23001877354622707
    endloop
  endfacet
  facet normal 0.45992370384645337 0.46850637086074781 -0.75430230485068217
    outer loop
      vertex 0.51636057719179329 0.6048530111010314 -0.21296699990186307
      vertex 0.51008934216750357 0.74263887632971803 -0.13121030150977095
      vertex 0.73705191248380608 0.50173543296784751 -0.14245159289707651
    endloop
  endfacet
  facet normal 0.63808728248202484 0.75803234344020731 -0.13502439125303267
    outer loop
      vertex 0.51008934216750357 0.74263887632971803 -0.13121030150977095
      vertex 0.46901708158918992 0.80869632999093555 0.045542943153791489
      vertex 0.70156739883602992 0.61292301182105002 0.045431058309323466
    endloop
  endfacet
  facet normal -0.48118457279018184 -0.60832779474766174 0.63118832454836871
    outer loop
      vertex 0.26505833996709616 0.52000496522287321 0.19518019970469008
      vertex 0.16120419780166106 0.44614606044758659 0.044823432946212438
      vertex 0.36951564136378545 0.32538754869332948 0.087244201493267906
    endloop
  endfacet
  facet normal -0.51098047014371484 -0.85669883974510885 0.070470256925120836
    outer loop
      vertex 0.36951564136378545 0.32538754869332948 0.087244201493267906
      vertex 0.16120419780166106 0.44614606044758659 0.044823432946212438
      vertex 0.3279501526262939 0.33949741567774705 -0.042615496791245953
    endloop
  endfacet
  facet normal -0.56113919597416806 -0.82528200692139897 -0.063501273949836748
    outer loop
      vertex 0.3279501526262939 0.33949741567774705 -0.042615496791245953
      vertex 0.16120419780166106 0.44614606044758659 0.044823432946212438
      vertex 0.12924051524224764 0.47798419518096735 -0.08650250870691592
    endloop
  endfacet
  facet normal -0.33637649105850448 -0.68683289495919808 -0.64429141750075725
    outer loop
      vertex 0.3279501526262939 0.33949741567774705 -0.042615496791245953
      vertex 0.12924051524224764 0.47798419518096735 -0.08650250870691592
      vertex 0.24537028842605765 0.4899586813560533 -0.15989755221021951
    endloop
  endfacet
  facet normal 0.24682040736002711 0.50278736690482073 -0.82842292954236085
    outer loop
      vertex 0.51636057719179329 0.6048530111010314 -0.21296699990186307
      vertex 0.26466438480633503 0.70213666118357709 -0.22891388644561361
      vertex 0.51008934216750357 0.74263887632971803 -0.13121030150977095
    endloop
  endfacet
  facet normal 0.44859240084047952 0.86635279992638958 -0.21953970931901948
    outer loop
      vertex 0.51008934216750357 0.74263887632971803 -0.13121030150977095
      vertex 0.29208145676591596 0.86638516242769226 -0.088342153618849145
      vertex 0.46901708158918992 0.80869632999093555 0.045542943153791489
    endloop
  endfacet
  facet normal 0.2689169670577658 0.94862379587803891 0.16672299998018603
    outer loop
      vertex 0.46901708158918992 0.80869632999093555 0.045542943153791489
      vertex 0.061368873118791988 0.93724825885261442 -0.028375465687716865
      vertex 0.11461397983016064 0.89532227834105793 0.12429375316222002
    endloop
  endfacet
  facet normal 0.30279296998855232 0.8538066510333171 0.42347446201250788
    outer loop
      vertex 0.46901708158918992 0.80869632999093555 0.045542943153791489
      vertex 0.11461397983016064 0.89532227834105793 0.12429375316222002
      vertex 0.39125528020203298 0.77747020062264205 0.1641021674710067
    endloop
  endfacet
  facet normal 0.1407323495644619 0.41834269435462151 0.89732034183238141
    outer loop
      vertex 0.39125528020203298 0.77747020062264205 0.1641021674710067
      vertex 0.012051575169975888 0.79949580951171628 0.21330641900406921
      vertex 0.39651474605584258 0.63431367060292221 0.23001877354622707
    endloop
  endfacet
  facet normal 0.01604624776961253 -0.08493869153231802 -0.99625696314419498
    outer loop
      vertex 0.35387216929309517 0.51517613104987015 -0.21153721190176633
      vertex 0.0096354397507178967 0.66434785410064656 -0.2297997279957783
      vertex 0.26466438480633503 0.70213666118357709 -0.22891388644561361
    endloop
  endfacet
  facet normal 0.21777242011377509 0.57783209259478563 -0.78656547458258075
    outer loop
      vertex 0.26466438480633503 0.70213666118357709 -0.22891388644561361
      vertex 0.021549556159528825 0.83935900084830939 -0.19541665330905067
      vertex 0.51008934216750357 0.74263887632971803 -0.13121030150977095
    endloop
  endfacet
  facet normal 0.22387981871517804 0.64693532516727925 -0.72893930599382939
    outer loop
      vertex 0.51008934216750357 0.74263887632971803 -0.13121030150977095
      vertex 0.021549556159528825 0.83935900084830939 -0.19541665330905067
      vertex 0.29208145676591596 0.86638516242769226 -0.088342153618849145
    endloop
  endfacet
  facet normal 0.29777572692571275 0.95447100138789975 0.017740461195899903
    outer loop
      vertex 0.29208145676591596 0.86638516242769226 -0.088342153618849145
      vertex 0.061368873118791988 0.93724825885261442 -0.028375465687716865
      vertex 0.46901708158918992 0.80869632999093555 0.045542943153791489
    endloop
  endfacet
  facet normal 0.1374625341141669 0.59113474646302877 0.79477277459598616
    outer loop
      vertex 0.39125528020203298 0.77747020062264205 0.1641021674710067
      vertex 0.11461397983016064 0.89532227834105793 0.12429375316222002
      vertex 0.012051575169975888 0.79949580951171628 0.21330641900406921
    endloop
  endfacet
  facet normal 0.014740477094839883 0.1345527901865696 0.99079678289143902
    outer loop
      vertex 0.012051575169975888 0.79949580951171628 0.21330641900406921
      vertex -0.18563075125500805 0.6981401009024415 0.23001178733513547
      vertex 0.39651474605584258 0.63431367060292221 0.23001877354622707
    endloop
  endfacet
  facet normal -0.032832454986876626 -0.29935253863892231 0.95357752045125677
    outer loop
      vertex 0.39651474605584258 0.63431367060292221 0.23001877354622707
      vertex -0.18563075125500805 0.6981401009024415 0.23001178733513547
      vertex -0.078182013288670957 0.57041350750360054 0.19361466870702063
    endloop
  endfacet
  facet normal -0.040839661195890886 -0.2480245093314544 0.96789253785959939
    outer loop
      vertex 0.39651474605584258 0.63431367060292221 0.23001877354622707
      vertex -0.078182013288670957 0.57041350750360054 0.19361466870702063
      vertex 0.26505833996709616 0.52000496522287321 0.19518019970469008
    endloop
  endfacet
  facet normal -0.053896459302819694 -0.88101709475927048 0.47000430893402889
    outer loop
      vertex 0.26505833996709616 0.52000496522287321 0.19518019970469008
      vertex -0.13122806551901747 0.48457197973900207 0.083318459172072479
      vertex 0.16120419780166106 0.44614606044758659 0.044823432946212438
    endloop
  endfacet
  facet normal -0.22233511136819045 -0.60652573231926821 -0.76334371962273317
    outer loop
      vertex 0.24537028842605765 0.4899586813560533 -0.15989755221021951
      vertex 0.0096354397507178967 0.66434785410064656 -0.2297997279957783
      vertex 0.35387216929309517 0.51517613104987015 -0.21153721190176633
    endloop
  endfacet
  facet normal -0.025395961470764707 0.19437923488740752 -0.98059765356927164
    outer loop
      vertex 0.0096354397507178967 0.66434785410064656 -0.2297997279957783
      vertex 0.021549556159528825 0.83935900084830939 -0.19541665330905067
      vertex 0.26466438480633503 0.70213666118357709 -0.22891388644561361
    endloop
  endfacet
  facet normal 0.12293127190410987 0.84316395495493957 -0.52341422167608553
    outer loop
      vertex 0.021549556159528825 0.83935900084830939 -0.19541665330905067
      vertex 0.061368873118791988 0.93724825885261442 -0.028375465687716865
      vertex 0.29208145676591596 0.86638516242769226 -0.088342153618849145
    endloop
  endfacet
  facet normal -0.11406217098378472 -0.75667546964571286 0.64376397444009392
    outer loop
      vertex 0.26505833996709616 0.52000496522287321 0.19518019970469008
      vertex -0.078182013288670957 0.57041350750360054 0.19361466870702063
      vertex -0.13122806551901747 0.48457197973900207 0.083318459172072479
    endloop
  endfacet
  facet normal -0.092733619219255797 -0.96221249817587562 0.25602262443119883
    outer loop
      vertex -0.13122806551901747 0.48457197973900207 0.083318459172072479
      vertex -0.12370622937651328 0.46167793324591672 9.4139825580876613e-18
      vertex 0.16120419780166106 0.44614606044758659 0.044823432946212438
    endloop
  endfacet
  facet normal -0.016559717480968999 -0.97262966909815951 -0.2317699345190298
    outer loop
      vertex 0.16120419780166106 0.44614606044758659 0.044823432946212438
      vertex -0.12370622937651328 0.46167793324591672 9.4139825580876613e-18
      vertex 0.12924051524224764 0.47798419518096735 -0.08650250870691592
    endloop
  endfacet
  facet normal -0.026242991498612884 -0.97918257189976499 -0.20127790808969914
    outer loop
      vertex 0.12924051524224764 0.47798419518096735 -0.08650250870691592
      vertex -0.13449749953820039 0.49413223981223664 -0.13067332446028729
      vertex 0.24537028842605765 0.4899586813560533 -0.15989755221021951
    endloop
  endfacet
  facet normal -0.073279442908079792 -0.45482690573743489 -0.88755991857698946
    outer loop
      vertex 0.24537028842605765 0.4899586813560533 -0.15989755221021951
      vertex -0.13449749953820039 0.49413223981223664 -0.13067332446028729
      vertex 0.0096354397507178967 0.66434785410064656 -0.2297997279957783
    endloop
  endfacet
  facet normal -0.053004446796240563 0.95806952189440975 0.28159069557931343
    outer loop
      vertex 0.061368873118791988 0.93724825885261442 -0.028375465687716865
      vertex -0.25894298459376536 0.89543338682371887 0.053600260054854396
      vertex 0.11461397983016064 0.89532227834105793 0.12429375316222002
    endloop
  endfacet
  facet normal -0.09117352463902903 0.87077990085274382 0.4831456847326509
    outer loop
      vertex 0.11461397983016064 0.89532227834105793 0.12429375316222002
      vertex -0.25894298459376536 0.89543338682371887 0.053600260054854396
      vertex -0.21867521236208531 0.83872820451471164 0.16339962167380939
    endloop
  endfacet
  facet normal -0.035208309311080412 0.70012542082492313 0.71315129535756949
    outer loop
      vertex 0.11461397983016064 0.89532227834105793 0.12429375316222002
      vertex -0.21867521236208531 0.83872820451471164 0.16339962167380939
      vertex 0.012051575169975888 0.79949580951171628 0.21330641900406921
    endloop
  endfacet
  facet normal -0.019324106573418372 -0.9707062908365699 -0.23949086795835817
    outer loop
      vertex -0.12370622937651328 0.46167793324591672 9.4139825580876613e-18
      vertex -0.13449749953820039 0.49413223981223664 -0.13067332446028729
      vertex 0.12924051524224764 0.47798419518096735 -0.08650250870691592
    endloop
  endfacet
  facet normal -0.039791412707411253 0.86619429254555769 -0.49812055873678729
    outer loop
      vertex 0.021549556159528825 0.83935900084830939 -0.19541665330905067
      vertex -0.24856235849425806 0.86836333842972802 -0.12340290941492994
      vertex 0.061368873118791988 0.93724825885261442 -0.028375465687716865
    endloop
  endfacet
  facet normal 0.084489056510617971 -0.20669074237267218 0.97475152543988308
    outer loop
      vertex -0.18563075125500805 0.6981401009024415 0.23001178733513547
      vertex -0.29014763733935134 0.5066988231408619 0.19847697469378228
      vertex -0.078182013288670957 0.57041350750360054 0.19361466870702063
    endloop
  endfacet
  facet normal -0.025419681998026449 0.1943806729422633 -0.98059675389715217
    outer loop
      vertex 0.0096354397507178967 0.66434785410064656 -0.2297997279957783
      vertex -0.35653700747932981 0.61543806525058187 -0.23000279873236931
      vertex 0.021549556159528825 0.83935900084830939 -0.19541665330905067
    endloop
  endfacet
  facet normal -0.16761932930203233 0.97300463465080367 -0.15863713749432354
    outer loop
      vertex -0.24856235849425806 0.86836333842972802 -0.12340290941492994
      vertex -0.25894298459376536 0.89543338682371887 0.053600260054854396
      vertex 0.061368873118791988 0.93724825885261442 -0.028375465687716865
    endloop
  endfacet
  facet normal -0.12777442261572117 0.40195305812259541 0.90670140398651222
    outer loop
      vertex -0.21867521236208531 0.83872820451471164 0.16339962167380939
      vertex -0.48349294138839055 0.67798891907616943 0.19733881574853029
      vertex 0.012051575169975888 0.79949580951171628 0.21330641900406921
    endloop
  endfacet
  facet normal -0.12656739794931604 0.39670486833358104 0.9091787179739611
    outer loop
      vertex 0.012051575169975888 0.79949580951171628 0.21330641900406921
      vertex -0.48349294138839055 0.67798891907616943 0.19733881574853029
      vertex -0.18563075125500805 0.6981401009024415 0.23001178733513547
    endloop
  endfacet
  facet normal 0.31235406248869829 -0.66152765668635682 -0.68177422882202277
    outer loop
      vertex -0.13449749953820039 0.49413223981223664 -0.13067332446028729
      vertex -0.35426483076490972 0.45697411973173324 -0.19530482964840623
      vertex 0.0096354397507178967 0.66434785410064656 -0.2297997279957783
    endloop
  endfacet
  facet normal 0.029046690554311819 -0.21340907686828914 -0.97653103160015697
    outer loop
      vertex 0.0096354397507178967 0.66434785410064656 -0.2297997279957783
      vertex -0.35426483076490972 0.45697411973173324 -0.19530482964840623
      vertex -0.35653700747932981 0.61543806525058187 -0.23000279873236931
    endloop
  endfacet
  facet normal -0.10427454515616355 0.32143635773697543 -0.94117240033761207
    outer loop
      vertex -0.35653700747932981 0.61543806525058187 -0.23000279873236931
      vertex -0.50322036795592862 0.6629069943658179 -0.1975394791904968
      vertex 0.021549556159528825 0.83935900084830939 -0.19541665330905067
    endloop
  endfacet
  facet normal -0.1691943577983212 0.51330769876434812 -0.84136108519378472
    outer loop
      vertex 0.021549556159528825 0.83935900084830939 -0.19541665330905067
      vertex -0.50322036795592862 0.6629069943658179 -0.1975394791904968
      vertex -0.24856235849425806 0.86836333842972802 -0.12340290941492994
    endloop
  endfacet
  facet normal -0.38569978653139808 0.75181996204132351 0.5347919402401432
    outer loop
      vertex -0.25894298459376536 0.89543338682371887 0.053600260054854396
      vertex -0.56765292067521211 0.7427899693804102 0.045542943153791107
      vertex -0.48349294138839055 0.67798891907616943 0.19733881574853029
    endloop
  endfacet
  facet normal -0.38878213372191278 0.75270096650333396 0.53130942728657071
    outer loop
      vertex -0.25894298459376536 0.89543338682371887 0.053600260054854396
      vertex -0.48349294138839055 0.67798891907616943 0.19733881574853029
      vertex -0.21867521236208531 0.83872820451471164 0.16339962167380939
    endloop
  endfacet
  facet normal 0.25785157281324228 -0.81865969028043273 0.51313631513242486
    outer loop
      vertex -0.078182013288670957 0.57041350750360054 0.19361466870702063
      vertex -0.29014763733935134 0.5066988231408619 0.19847697469378228
      vertex -0.13122806551901747 0.48457197973900207 0.083318459172072479
    endloop
  endfacet
  facet normal -0.38448268634924576 0.6955614270527688 -0.60693275170646666
    outer loop
      vertex -0.24856235849425806 0.86836333842972802 -0.12340290941492994
      vertex -0.50322036795592862 0.6629069943658179 -0.1975394791904968
      vertex -0.56075948129266595 0.72598746548164761 -0.088797390073069526
    endloop
  endfacet
  facet normal -0.42344153359971837 0.89598919222302587 -0.13379325484585608
    outer loop
      vertex -0.24856235849425806 0.86836333842972802 -0.12340290941492994
      vertex -0.56075948129266595 0.72598746548164761 -0.088797390073069526
      vertex -0.56765292067521211 0.7427899693804102 0.045542943153791107
    endloop
  endfacet
  facet normal -0.43406993695280077 0.88637328752718925 -0.16101454900733103
    outer loop
      vertex -0.24856235849425806 0.86836333842972802 -0.12340290941492994
      vertex -0.56765292067521211 0.7427899693804102 0.045542943153791107
      vertex -0.25894298459376536 0.89543338682371887 0.053600260054854396
    endloop
  endfacet
  facet normal 0.57351296763318516 -0.7752221985713228 0.26478938573670541
    outer loop
      vertex -0.13122806551901747 0.48457197973900207 0.083318459172072479
      vertex -0.38022884255371603 0.28896077586493546 0.049944867070894967
      vertex -0.12370622937651328 0.46167793324591672 9.4139825580876613e-18
    endloop
  endfacet
  facet normal 0.53653892432263706 -0.834035003952595 -0.12849745082491801
    outer loop
      vertex -0.12370622937651328 0.46167793324591672 9.4139825580876613e-18
      vertex -0.38022884255371603 0.28896077586493546 0.049944867070894967
      vertex -0.39214161081804 0.30231929923164358 -0.086502508706916822
    endloop
  endfacet
  facet normal 0.55194944919286992 -0.79748850348080391 -0.24364706514061518
    outer loop
      vertex -0.12370622937651328 0.46167793324591672 9.4139825580876613e-18
      vertex -0.39214161081804 0.30231929923164358 -0.086502508706916822
      vertex -0.13449749953820039 0.49413223981223664 -0.13067332446028729
    endloop
  endfacet
  facet normal 0.31763294741881443 -0.59640142089381876 -0.73716664050258729
    outer loop
      vertex -0.13449749953820039 0.49413223981223664 -0.13067332446028729
      vertex -0.39214161081804 0.30231929923164358 -0.086502508706916822
      vertex -0.35426483076490972 0.45697411973173324 -0.19530482964840623
    endloop
  endfacet
  facet normal -0.11841491631007509 0.16189344571146375 0.97967771222527411
    outer loop
      vertex -0.48349294138839055 0.67798891907616943 0.19733881574853029
      vertex -0.67195859380165557 0.34676165196731934 0.22929460971764309
      vertex -0.18563075125500805 0.6981401009024415 0.23001178733513547
    endloop
  endfacet
  facet normal 0.10476614054883011 -0.1470098307406292 0.98357112882603159
    outer loop
      vertex -0.18563075125500805 0.6981401009024415 0.23001178733513547
      vertex -0.67195859380165557 0.34676165196731934 0.22929460971764309
      vertex -0.54679075116835929 0.2183232785330744 0.19676513178260813
    endloop
  endfacet
  facet normal 0.39196516356870315 -0.3538748490409796 0.8491972101725157
    outer loop
      vertex -0.18563075125500805 0.6981401009024415 0.23001178733513547
      vertex -0.54679075116835929 0.2183232785330744 0.19676513178260813
      vertex -0.29014763733935134 0.5066988231408619 0.19847697469378228
    endloop
  endfacet
  facet normal 0.39989447909729492 -0.62363791247445366 0.67168456861238734
    outer loop
      vertex -0.29014763733935134 0.5066988231408619 0.19847697469378228
      vertex -0.38022884255371603 0.28896077586493546 0.049944867070894967
      vertex -0.13122806551901747 0.48457197973900207 0.083318459172072479
    endloop
  endfacet
  facet normal -0.62428659458290436 0.57436159939689579 0.52950448625325164
    outer loop
      vertex -0.56765292067521211 0.7427899693804102 0.045542943153791107
      vertex -0.77361717088663551 0.51902592077727516 0.045431058309323445
      vertex -0.74769712652341602 0.43844367544612456 0.16339962167380662
    endloop
  endfacet
  facet normal -0.59051005391785494 0.57041114432799112 0.57090192034040643
    outer loop
      vertex -0.56765292067521211 0.7427899693804102 0.045542943153791107
      vertex -0.74769712652341602 0.43844367544612456 0.16339962167380662
      vertex -0.48349294138839055 0.67798891907616943 0.19733881574853029
    endloop
  endfacet
  facet normal -0.38798212955238648 0.30467925857151623 0.869850801312677
    outer loop
      vertex -0.48349294138839055 0.67798891907616943 0.19733881574853029
      vertex -0.74769712652341602 0.43844367544612456 0.16339962167380662
      vertex -0.67195859380165557 0.34676165196731934 0.22929460971764309
    endloop
  endfacet
  facet normal 0.6600272692814102 -0.59015818731004765 0.464841174763858
    outer loop
      vertex -0.29014763733935134 0.5066988231408619 0.19847697469378228
      vertex -0.54679075116835929 0.2183232785330744 0.19676513178260813
      vertex -0.38022884255371603 0.28896077586493546 0.049944867070894967
    endloop
  endfacet
  facet normal 0.14109491851204048 -0.06888864604362184 -0.98759636411661489
    outer loop
      vertex -0.35426483076490972 0.45697411973173324 -0.19530482964840623
      vertex -0.58921078701354812 0.20847687322719846 -0.21153721190176636
      vertex -0.72283472584255282 0.19531212986686095 -0.22970937015063142
    endloop
  endfacet
  facet normal 0.23407743404193823 -0.20475029303087619 -0.95041310616810859
    outer loop
      vertex -0.35426483076490972 0.45697411973173324 -0.19530482964840623
      vertex -0.72283472584255282 0.19531212986686095 -0.22970937015063142
      vertex -0.35653700747932981 0.61543806525058187 -0.23000279873236931
    endloop
  endfacet
  facet normal -0.17464167909354125 0.15158638980895339 -0.9728935452289097
    outer loop
      vertex -0.35653700747932981 0.61543806525058187 -0.23000279873236931
      vertex -0.72283472584255282 0.19531212986686095 -0.22970937015063142
      vertex -0.69924484472421622 0.45267544631775181 -0.19384419278046339
    endloop
  endfacet
  facet normal -0.17006487190364236 0.14143034262555951 -0.97523094574014346
    outer loop
      vertex -0.35653700747932981 0.61543806525058187 -0.23000279873236931
      vertex -0.69924484472421622 0.45267544631775181 -0.19384419278046339
      vertex -0.50322036795592862 0.6629069943658179 -0.1975394791904968
    endloop
  endfacet
  facet normal -0.63243591524129339 0.58068574372556936 -0.51266839199114855
    outer loop
      vertex -0.50322036795592862 0.6629069943658179 -0.1975394791904968
      vertex -0.69924484472421622 0.45267544631775181 -0.19384419278046339
      vertex -0.82803269305244975 0.40445547822740069 -0.089586911599420074
    endloop
  endfacet
  facet normal -0.60624603442786584 0.50544919795664212 -0.6139925520928361
    outer loop
      vertex -0.50322036795592862 0.6629069943658179 -0.1975394791904968
      vertex -0.82803269305244975 0.40445547822740069 -0.089586911599420074
      vertex -0.56075948129266595 0.72598746548164761 -0.088797390073069526
    endloop
  endfacet
  facet normal -0.74869030246102719 0.62290520697071816 -0.22683018787097634
    outer loop
      vertex -0.56075948129266595 0.72598746548164761 -0.088797390073069526
      vertex -0.82803269305244975 0.40445547822740069 -0.089586911599420074
      vertex -0.77361717088663551 0.51902592077727516 0.045431058309323445
    endloop
  endfacet
  facet normal -0.73027888023121468 0.67224803530160371 -0.12155384042216474
    outer loop
      vertex -0.56075948129266595 0.72598746548164761 -0.088797390073069526
      vertex -0.77361717088663551 0.51902592077727516 0.045431058309323445
      vertex -0.56765292067521211 0.7427899693804102 0.045542943153791107
    endloop
  endfacet
  facet normal 0.90438879696342045 -0.40975837587852332 -0.11907551101906691
    outer loop
      vertex -0.38022884255371603 0.28896077586493546 0.049944867070894967
      vertex -0.46167793324591655 0.12370622937651382 4.0838280405309341e-17
      vertex -0.39214161081804 0.30231929923164358 -0.086502508706916822
    endloop
  endfacet
  facet normal 0.84050746375028462 -0.43401196129255631 -0.32431592750750399
    outer loop
      vertex -0.39214161081804 0.30231929923164358 -0.086502508706916822
      vertex -0.49686664053266205 0.13491717921181073 -0.13388731277860411
      vertex -0.35426483076490972 0.45697411973173324 -0.19530482964840623
    endloop
  endfacet
  facet normal 0.42552067887456801 -0.3477411266612857 -0.83546888672078401
    outer loop
      vertex -0.35426483076490972 0.45697411973173324 -0.19530482964840623
      vertex -0.49686664053266205 0.13491717921181073 -0.13388731277860411
      vertex -0.58921078701354812 0.20847687322719846 -0.21153721190176636
    endloop
  endfacet
  facet normal -0.80139205127220925 0.39708208989123589 0.44732157788925098
    outer loop
      vertex -0.77361717088663551 0.51902592077727516 0.045431058309323445
      vertex -0.88159059821911512 0.30111368394844307 0.045431058309323334
      vertex -0.74769712652341602 0.43844367544612456 0.16339962167380662
    endloop
  endfacet
  facet normal -0.47062225292544213 0.16395454685154856 -0.86696805109420538
    outer loop
      vertex -0.69924484472421622 0.45267544631775181 -0.19384419278046339
      vertex -0.72283472584255282 0.19531212986686095 -0.22970937015063142
      vertex -0.85498970412386899 0.16289018688786663 -0.16410216747100514
    endloop
  endfacet
  facet normal -0.66534688470448 0.28685186995962081 -0.68922385892735327
    outer loop
      vertex -0.69924484472421622 0.45267544631775181 -0.19384419278046339
      vertex -0.85498970412386899 0.16289018688786663 -0.16410216747100514
      vertex -0.82803269305244975 0.40445547822740069 -0.089586911599420074
    endloop
  endfacet
  facet normal -0.8959284179093272 0.4439239545882947 -0.015613856832303727
    outer loop
      vertex -0.82803269305244975 0.40445547822740069 -0.089586911599420074
      vertex -0.88159059821911512 0.30111368394844307 0.045431058309323334
      vertex -0.77361717088663551 0.51902592077727516 0.045431058309323445
    endloop
  endfacet
  facet normal -0.7713535779729459 0.24892038561891819 0.58570666666144722
    outer loop
      vertex -0.88159059821911512 0.30111368394844307 0.045431058309323334
      vertex -0.86801571905137831 0.063947780429783899 0.16410216747100959
      vertex -0.74769712652341602 0.43844367544612456 0.16339962167380662
    endloop
  endfacet
  facet normal -0.52221028399261382 0.16934449494255904 0.83583423076887864
    outer loop
      vertex -0.74769712652341602 0.43844367544612456 0.16339962167380662
      vertex -0.86801571905137831 0.063947780429783899 0.16410216747100959
      vertex -0.67195859380165557 0.34676165196731934 0.22929460971764309
    endloop
  endfacet
  facet normal 0.22899094826846247 -0.023308769936304541 0.97314944733846853
    outer loop
      vertex -0.67195859380165557 0.34676165196731934 0.22929460971764309
      vertex -0.71492339929245508 -0.045618005453810832 0.23000638568472351
      vertex -0.54679075116835929 0.2183232785330744 0.19676513178260813
    endloop
  endfacet
  facet normal 0.68456933309446144 -0.11962129227179598 0.71906576515770082
    outer loop
      vertex -0.54679075116835929 0.2183232785330744 0.19676513178260813
      vertex -0.51037043209861921 0.033086274708468637 0.13127665271367786
      vertex -0.38022884255371603 0.28896077586493546 0.049944867070894967
    endloop
  endfacet
  facet normal 0.89400200257844509 -0.44748761150131622 0.022699271763144614
    outer loop
      vertex -0.38022884255371603 0.28896077586493546 0.049944867070894967
      vertex -0.51037043209861921 0.033086274708468637 0.13127665271367786
      vertex -0.46167793324591655 0.12370622937651382 4.0838280405309341e-17
    endloop
  endfacet
  facet normal 0.84980512777679329 -0.45756320465361772 -0.2616622986816779
    outer loop
      vertex -0.46167793324591655 0.12370622937651382 4.0838280405309341e-17
      vertex -0.49686664053266205 0.13491717921181073 -0.13388731277860411
      vertex -0.39214161081804 0.30231929923164358 -0.086502508706916822
    endloop
  endfacet
  facet normal -0.89514879751630483 0.15743825650963358 0.41703935748598159
    outer loop
      vertex -0.88159059821911512 0.30111368394844307 0.045431058309323334
      vertex -0.9352899191402444 0.016678970342585569 0.037546965141501902
      vertex -0.86801571905137831 0.063947780429783899 0.16410216747100959
    endloop
  endfacet
  facet normal -0.40383263166504918 0.069683074632995931 0.91217513379403903
    outer loop
      vertex -0.86801571905137831 0.063947780429783899 0.16410216747100959
      vertex -0.79159812903927873 -0.14415045980520536 0.21383038303495072
      vertex -0.67195859380165557 0.34676165196731934 0.22929460971764309
    endloop
  endfacet
  facet normal -0.24082249092402849 0.028129463095282997 0.9701614613924413
    outer loop
      vertex -0.67195859380165557 0.34676165196731934 0.22929460971764309
      vertex -0.79159812903927873 -0.14415045980520536 0.21383038303495072
      vertex -0.71492339929245508 -0.045618005453810832 0.23000638568472351
    endloop
  endfacet
  facet normal -0.94868674476664216 0.1849793015719956 -0.25646855225155485
    outer loop
      vertex -0.85498970412386899 0.16289018688786663 -0.16410216747100514
      vertex -0.91932508646116484 -0.063747627681510002 -0.089586911599419283
      vertex -0.82803269305244975 0.40445547822740069 -0.089586911599420074
    endloop
  endfacet
  facet normal -0.95347014316598744 0.18591199057596092 -0.23734240634811807
    outer loop
      vertex -0.82803269305244975 0.40445547822740069 -0.089586911599420074
      vertex -0.91932508646116484 -0.063747627681510002 -0.089586911599419283
      vertex -0.9352899191402444 0.016678970342585569 0.037546965141501902
    endloop
  endfacet
  facet normal -0.95378785297797553 0.18659688910517433 -0.23552140558330334
    outer loop
      vertex -0.82803269305244975 0.40445547822740069 -0.089586911599420074
      vertex -0.9352899191402444 0.016678970342585569 0.037546965141501902
      vertex -0.88159059821911512 0.30111368394844307 0.045431058309323334
    endloop
  endfacet
  facet normal 0.65052272790055632 0.015083327049032607 -0.75933699615516614
    outer loop
      vertex -0.49686664053266205 0.13491717921181073 -0.13388731277860411
      vertex -0.56185261754954186 -0.12403246300691119 -0.19470441693782475
      vertex -0.58921078701354812 0.20847687322719846 -0.21153721190176636
    endloop
  endfacet
  facet normal -0.44748993739038784 0.014621836931209393 -0.89416942344228256
    outer loop
      vertex -0.72283472584255282 0.19531212986686095 -0.22970937015063142
      vertex -0.76913447323977868 -0.21856566968543367 -0.21330641900406866
      vertex -0.85498970412386899 0.16289018688786663 -0.16410216747100514
    endloop
  endfacet
  facet normal -0.86323794562271194 -0.097491781711820102 0.49529345012399933
    outer loop
      vertex -0.9352899191402444 0.016678970342585569 0.037546965141501902
      vertex -0.90079732486598463 -0.24515279674576093 0.046125456815980528
      vertex -0.86801571905137831 0.063947780429783899 0.16410216747100959
    endloop
  endfacet
  facet normal 0.15454951802160463 0.025936538496821857 0.98764454256078005
    outer loop
      vertex -0.71492339929245508 -0.045618005453810832 0.23000638568472351
      vertex -0.55695831462231238 -0.28360076512024363 0.21153721190176644
      vertex -0.54679075116835929 0.2183232785330744 0.19676513178260813
    endloop
  endfacet
  facet normal 0.87015855616820437 -0.0031245236660116418 0.49276193489262765
    outer loop
      vertex -0.54679075116835929 0.2183232785330744 0.19676513178260813
      vertex -0.55695831462231238 -0.28360076512024363 0.21153721190176644
      vertex -0.51037043209861921 0.033086274708468637 0.13127665271367786
    endloop
  endfacet
  facet normal 0.92752981550934599 0.03994456605315929 0.37160849423018211
    outer loop
      vertex -0.51037043209861921 0.033086274708468637 0.13127665271367786
      vertex -0.44977529306701119 -0.15267813876311873 9.7938689490535554e-17
      vertex -0.46167793324591655 0.12370622937651382 4.0838280405309341e-17
    endloop
  endfacet
  facet normal 0.99292337158656407 0.042760774412717903 -0.11079121954737457
    outer loop
      vertex -0.46167793324591655 0.12370622937651382 4.0838280405309341e-17
      vertex -0.44977529306701119 -0.15267813876311873 9.7938689490535554e-17
      vertex -0.45788699859793236 -0.18844494723355229 -0.086502508706916878
    endloop
  endfacet
  facet normal 0.96566925418215421 0.080199152128674928 -0.24708498037137647
    outer loop
      vertex -0.46167793324591655 0.12370622937651382 4.0838280405309341e-17
      vertex -0.45788699859793236 -0.18844494723355229 -0.086502508706916878
      vertex -0.49686664053266205 0.13491717921181073 -0.13388731277860411
    endloop
  endfacet
  facet normal 0.71624649614039293 -0.015894720507036983 -0.69766633473789819
    outer loop
      vertex -0.49686664053266205 0.13491717921181073 -0.13388731277860411
      vertex -0.45788699859793236 -0.18844494723355229 -0.086502508706916878
      vertex -0.56185261754954186 -0.12403246300691119 -0.19470441693782475
    endloop
  endfacet
  facet normal 0.49715357490607409 -0.0030191207870431586 -0.86765731015636804
    outer loop
      vertex -0.58921078701354812 0.20847687322719846 -0.21153721190176636
      vertex -0.56185261754954186 -0.12403246300691119 -0.19470441693782475
      vertex -0.62492036257554651 -0.36239883655720728 -0.23001178733513547
    endloop
  endfacet
  facet normal 0.13241514986006739 0.023784744740095981 -0.99090893325531393
    outer loop
      vertex -0.58921078701354812 0.20847687322719846 -0.21153721190176636
      vertex -0.62492036257554651 -0.36239883655720728 -0.23001178733513547
      vertex -0.72283472584255282 0.19531212986686095 -0.22970937015063142
    endloop
  endfacet
  facet normal -0.13838572626049686 -0.023758774375644227 -0.99009338519531687
    outer loop
      vertex -0.72283472584255282 0.19531212986686095 -0.22970937015063142
      vertex -0.62492036257554651 -0.36239883655720728 -0.23001178733513547
      vertex -0.76913447323977868 -0.21856566968543367 -0.21330641900406866
    endloop
  endfacet
  facet normal -0.6477834974707628 -0.047723003112853983 -0.76032825501781587
    outer loop
      vertex -0.76913447323977868 -0.21856566968543367 -0.21330641900406866
      vertex -0.82188789718934419 -0.28642781218984209 -0.16410216747100725
      vertex -0.85498970412386899 0.16289018688786663 -0.16410216747100514
    endloop
  endfacet
  facet normal -0.67604797494779079 -0.049805281762875422 -0.73517247600648905
    outer loop
      vertex -0.85498970412386899 0.16289018688786663 -0.16410216747100514
      vertex -0.82188789718934419 -0.28642781218984209 -0.16410216747100725
      vertex -0.91932508646116484 -0.063747627681510002 -0.089586911599419283
    endloop
  endfacet
  facet normal -0.7808543398223079 -0.14876612985204979 0.60674140998411408
    outer loop
      vertex -0.90079732486598463 -0.24515279674576093 0.046125456815980528
      vertex -0.78369755379760131 -0.37862745715786911 0.16410216747100914
      vertex -0.86801571905137831 0.063947780429783899 0.16410216747100959
    endloop
  endfacet
  facet normal -0.79478386131198764 -0.1514199423456605 0.58769942560635891
    outer loop
      vertex -0.86801571905137831 0.063947780429783899 0.16410216747100959
      vertex -0.78369755379760131 -0.37862745715786911 0.16410216747100914
      vertex -0.79159812903927873 -0.14415045980520536 0.21383038303495072
    endloop
  endfacet
  facet normal 0.64260029330641255 0.098054919215027542 0.75990137245582534
    outer loop
      vertex -0.55695831462231238 -0.28360076512024363 0.21153721190176644
      vertex -0.48130809179376188 -0.16073662507848135 0.13171068321883903
      vertex -0.51037043209861921 0.033086274708468637 0.13127665271367786
    endloop
  endfacet
  facet normal 0.96026934977456546 0.14452004922971515 0.23873988199329846
    outer loop
      vertex -0.51037043209861921 0.033086274708468637 0.13127665271367786
      vertex -0.48130809179376188 -0.16073662507848135 0.13171068321883903
      vertex -0.44977529306701119 -0.15267813876311873 9.7938689490535554e-17
    endloop
  endfacet
  facet normal -0.99042645596465984 -0.13181728830375605 -0.040983384798333272
    outer loop
      vertex -0.91932508646116484 -0.063747627681510002 -0.089586911599419283
      vertex -0.90079732486598463 -0.24515279674576093 0.046125456815980528
      vertex -0.9352899191402444 0.016678970342585569 0.037546965141501902
    endloop
  endfacet
  facet normal -0.83198324424724646 -0.34798872297908706 0.43209689882156171
    outer loop
      vertex -0.90079732486598463 -0.24515279674576093 0.046125456815980528
      vertex -0.79790285804596284 -0.48187493048612401 0.053600260054854416
      vertex -0.78369755379760131 -0.37862745715786911 0.16410216747100914
    endloop
  endfacet
  facet normal -0.90245048060992239 -0.2875355194723444 -0.32079036003079792
    outer loop
      vertex -0.82188789718934419 -0.28642781218984209 -0.16410216747100725
      vertex -0.79297034191800264 -0.46120172672544735 -0.088797390073067389
      vertex -0.91932508646116484 -0.063747627681510002 -0.089586911599419283
    endloop
  endfacet
  facet normal -0.91860526329983572 -0.29256176528671141 -0.26565387956919229
    outer loop
      vertex -0.91932508646116484 -0.063747627681510002 -0.089586911599419283
      vertex -0.79297034191800264 -0.46120172672544735 -0.088797390073067389
      vertex -0.90079732486598463 -0.24515279674576093 0.046125456815980528
    endloop
  endfacet
  facet normal -0.12802958813675988 -0.06286240312617801 0.98977610742770183
    outer loop
      vertex -0.79159812903927873 -0.14415045980520536 0.21383038303495072
      vertex -0.47327038266803834 -0.53778398466922739 0.23000638568472351
      vertex -0.71492339929245508 -0.045618005453810832 0.23000638568472351
    endloop
  endfacet
  facet normal 0.40170764845577267 0.1972380642912131 0.89427518760546454
    outer loop
      vertex -0.71492339929245508 -0.045618005453810832 0.23000638568472351
      vertex -0.47327038266803834 -0.53778398466922739 0.23000638568472351
      vertex -0.55695831462231238 -0.28360076512024363 0.21153721190176644
    endloop
  endfacet
  facet normal 0.4782087030898064 0.25214285971354217 0.84127309156102359
    outer loop
      vertex -0.55695831462231238 -0.28360076512024363 0.21153721190176644
      vertex -0.38960955086713933 -0.32886718548770005 0.12997745290450527
      vertex -0.48130809179376188 -0.16073662507848135 0.13171068321883903
    endloop
  endfacet
  facet normal 0.85475734289061756 0.46378324117866415 0.23301285367203337
    outer loop
      vertex -0.48130809179376188 -0.16073662507848135 0.13171068321883903
      vertex -0.38960955086713933 -0.32886718548770005 0.12997745290450527
      vertex -0.44977529306701119 -0.15267813876311873 9.7938689490535554e-17
    endloop
  endfacet
  facet normal 0.76932924164923078 0.38368665258037415 -0.51080042147113258
    outer loop
      vertex -0.45788699859793236 -0.18844494723355229 -0.086502508706916878
      vertex -0.43457780975970767 -0.38073590995128026 -0.19583490720692201
      vertex -0.56185261754954186 -0.12403246300691119 -0.19470441693782475
    endloop
  endfacet
  facet normal 0.18486140388218583 0.095962467815267002 -0.97806823183534142
    outer loop
      vertex -0.56185261754954186 -0.12403246300691119 -0.19470441693782475
      vertex -0.43457780975970767 -0.38073590995128026 -0.19583490720692201
      vertex -0.62492036257554651 -0.36239883655720728 -0.23001178733513547
    endloop
  endfacet
  facet normal -0.91238471700021162 -0.3994092395573966 -0.089590108497678109
    outer loop
      vertex -0.79297034191800264 -0.46120172672544735 -0.088797390073067389
      vertex -0.79790285804596284 -0.48187493048612401 0.053600260054854416
      vertex -0.90079732486598463 -0.24515279674576093 0.046125456815980528
    endloop
  endfacet
  facet normal -0.33467949499473099 -0.20628082468581668 0.91947694750711995
    outer loop
      vertex -0.78369755379760131 -0.37862745715786911 0.16410216747100914
      vertex -0.52974982546952587 -0.64249476354090063 0.19733881574852996
      vertex -0.79159812903927873 -0.14415045980520536 0.21383038303495072
    endloop
  endfacet
  facet normal -0.2499775465601459 -0.16293249652255617 0.95444446029755836
    outer loop
      vertex -0.79159812903927873 -0.14415045980520536 0.21383038303495072
      vertex -0.52974982546952587 -0.64249476354090063 0.19733881574852996
      vertex -0.47327038266803834 -0.53778398466922739 0.23000638568472351
    endloop
  endfacet
  facet normal 0.82396714534049353 0.49057226273657878 0.28357891041639749
    outer loop
      vertex -0.38960955086713933 -0.32886718548770005 0.12997745290450527
      vertex -0.31257430372484635 -0.35635140892611483 -0.046310392067068593
      vertex -0.44977529306701119 -0.15267813876311873 9.7938689490535554e-17
    endloop
  endfacet
  facet normal 0.75436375447224724 0.57865034506103563 -0.30999855499547013
    outer loop
      vertex -0.44977529306701119 -0.15267813876311873 9.7938689490535554e-17
      vertex -0.31257430372484635 -0.35635140892611483 -0.046310392067068593
      vertex -0.45788699859793236 -0.18844494723355229 -0.086502508706916878
    endloop
  endfacet
  facet normal -0.28604431705815542 -0.17743543230821684 -0.94164500531799655
    outer loop
      vertex -0.62492036257554651 -0.36239883655720728 -0.23001178733513547
      vertex -0.60515375677344374 -0.56646369138846209 -0.19756409175333955
      vertex -0.76913447323977868 -0.21856566968543367 -0.21330641900406866
    endloop
  endfacet
  facet normal -0.46217973855174821 -0.25626201044603492 -0.84895210187288772
    outer loop
      vertex -0.76913447323977868 -0.21856566968543367 -0.21330641900406866
      vertex -0.60515375677344374 -0.56646369138846209 -0.19756409175333955
      vertex -0.82188789718934419 -0.28642781218984209 -0.16410216747100725
    endloop
  endfacet
  facet normal -0.61611499316142748 -0.39544613477611512 -0.68119356257404895
    outer loop
      vertex -0.82188789718934419 -0.28642781218984209 -0.16410216747100725
      vertex -0.60515375677344374 -0.56646369138846209 -0.19756409175333955
      vertex -0.79297034191800264 -0.46120172672544735 -0.088797390073067389
    endloop
  endfacet
  facet normal -0.62567755889517618 -0.5457756107950279 0.55736574612752054
    outer loop
      vertex -0.79790285804596284 -0.48187493048612401 0.053600260054854416
      vertex -0.61556288562632866 -0.69925229164352909 0.045431058309324264
      vertex -0.52974982546952587 -0.64249476354090063 0.19733881574852996
    endloop
  endfacet
  facet normal -0.624722000653678 -0.52887720932089233 0.57446611680778081
    outer loop
      vertex -0.79790285804596284 -0.48187493048612401 0.053600260054854416
      vertex -0.52974982546952587 -0.64249476354090063 0.19733881574852996
      vertex -0.78369755379760131 -0.37862745715786911 0.16410216747100914
    endloop
  endfacet
  facet normal 0.66454027499242529 0.4285936799749131 -0.61212227569216371
    outer loop
      vertex -0.45788699859793236 -0.18844494723355229 -0.086502508706916878
      vertex -0.31257430372484635 -0.35635140892611483 -0.046310392067068593
      vertex -0.43457780975970767 -0.38073590995128026 -0.19583490720692201
    endloop
  endfacet
  facet normal -0.62739932720335645 -0.55376618749047335 -0.5474605865421196
    outer loop
      vertex -0.60515375677344374 -0.56646369138846209 -0.19756409175333955
      vertex -0.55611480899051413 -0.72955144788940718 -0.08879739007306936
      vertex -0.79297034191800264 -0.46120172672544735 -0.088797390073067389
    endloop
  endfacet
  facet normal -0.73752753982608599 -0.65096948018617051 -0.17969937079530418
    outer loop
      vertex -0.79297034191800264 -0.46120172672544735 -0.088797390073067389
      vertex -0.55611480899051413 -0.72955144788940718 -0.08879739007306936
      vertex -0.61556288562632866 -0.69925229164352909 0.045431058309324264
    endloop
  endfacet
  facet normal -0.76292701604313662 -0.63549628175365969 -0.11868801147878723
    outer loop
      vertex -0.79297034191800264 -0.46120172672544735 -0.088797390073067389
      vertex -0.61556288562632866 -0.69925229164352909 0.045431058309324264
      vertex -0.79790285804596284 -0.48187493048612401 0.053600260054854416
    endloop
  endfacet
  facet normal 0.085645466356422353 0.10022480522034528 0.99127183078665904
    outer loop
      vertex -0.47327038266803834 -0.53778398466922739 0.23000638568472351
      vertex -0.19329297694144956 -0.59436502527388591 0.21153721190176664
      vertex -0.55695831462231238 -0.28360076512024363 0.21153721190176644
    endloop
  endfacet
  facet normal 0.45077211071439771 0.52750657935703271 0.72009812729733524
    outer loop
      vertex -0.55695831462231238 -0.28360076512024363 0.21153721190176644
      vertex -0.19329297694144956 -0.59436502527388591 0.21153721190176664
      vertex -0.22582229881098792 -0.45751644169610239 0.13165196438746632
    endloop
  endfacet
  facet normal 0.47408413449788295 0.61181248968467805 0.63319010643189078
    outer loop
      vertex -0.55695831462231238 -0.28360076512024363 0.21153721190176644
      vertex -0.22582229881098792 -0.45751644169610239 0.13165196438746632
      vertex -0.38960955086713933 -0.32886718548770005 0.12997745290450527
    endloop
  endfacet
  facet normal -0.46149419833034605 -0.5840897670153139 -0.66772917337452575
    outer loop
      vertex -0.60515375677344374 -0.56646369138846209 -0.19756409175333955
      vertex -0.37862745715786833 -0.78369755379760186 -0.16410216747100914
      vertex -0.55611480899051413 -0.72955144788940718 -0.08879739007306936
    endloop
  endfacet
  facet normal -0.47245071509159542 -0.70419601596230785 0.52999838953741474
    outer loop
      vertex -0.61556288562632866 -0.69925229164352909 0.045431058309324264
      vertex -0.41360827852255716 -0.83474524584866427 0.04543105830932314
      vertex -0.52974982546952587 -0.64249476354090063 0.19733881574852996
    endloop
  endfacet
  facet normal 0.57354767525510841 0.73491097921957849 0.36186864582605249
    outer loop
      vertex -0.38960955086713933 -0.32886718548770005 0.12997745290450527
      vertex -0.22582229881098792 -0.45751644169610239 0.13165196438746632
      vertex -0.15267813876312064 -0.44977529306701053 1.9530742180179899e-16
    endloop
  endfacet
  facet normal 0.48631128656659905 0.87040305557222852 0.076810503243157649
    outer loop
      vertex -0.38960955086713933 -0.32886718548770005 0.12997745290450527
      vertex -0.15267813876312064 -0.44977529306701053 1.9530742180179899e-16
      vertex -0.31257430372484635 -0.35635140892611483 -0.046310392067068593
    endloop
  endfacet
  facet normal 0.40744654052831325 0.78832359586978407 -0.4610132588184887
    outer loop
      vertex -0.31257430372484635 -0.35635140892611483 -0.046310392067068593
      vertex -0.16352973796976894 -0.48296314524456052 -0.13108740401806548
      vertex -0.43457780975970767 -0.38073590995128026 -0.19583490720692201
    endloop
  endfacet
  facet normal 0.3863634338405913 0.56044024956233685 -0.73255035571721105
    outer loop
      vertex -0.43457780975970767 -0.38073590995128026 -0.19583490720692201
      vertex -0.16352973796976894 -0.48296314524456052 -0.13108740401806548
      vertex -0.12978588423252821 -0.6113816994788881 -0.21153721190176591
    endloop
  endfacet
  facet normal 0.045726905032962735 0.12787583122740462 -0.99073549544972228
    outer loop
      vertex -0.43457780975970767 -0.38073590995128026 -0.19583490720692201
      vertex -0.12978588423252821 -0.6113816994788881 -0.21153721190176591
      vertex -0.21219498663521538 -0.72358613430089003 -0.22982317082106396
    endloop
  endfacet
  facet normal 0.19288652390720734 0.21991027108636027 -0.95626056154466488
    outer loop
      vertex -0.43457780975970767 -0.38073590995128026 -0.19583490720692201
      vertex -0.21219498663521538 -0.72358613430089003 -0.22982317082106396
      vertex -0.62492036257554651 -0.36239883655720728 -0.23001178733513547
    endloop
  endfacet
  facet normal -0.14766792373428422 -0.16924763621090594 -0.97444826539792584
    outer loop
      vertex -0.62492036257554651 -0.36239883655720728 -0.23001178733513547
      vertex -0.21219498663521538 -0.72358613430089003 -0.22982317082106396
      vertex -0.60515375677344374 -0.56646369138846209 -0.19756409175333955
    endloop
  endfacet
  facet normal -0.22223229711591078 -0.37064771487757198 -0.90179436545956504
    outer loop
      vertex -0.60515375677344374 -0.56646369138846209 -0.19756409175333955
      vertex -0.21219498663521538 -0.72358613430089003 -0.22982317082106396
      vertex -0.37862745715786833 -0.78369755379760186 -0.16410216747100914
    endloop
  endfacet
  facet normal -0.55615919232299049 -0.82896495859622676 -0.05919501849137903
    outer loop
      vertex -0.55611480899051413 -0.72955144788940718 -0.08879739007306936
      vertex -0.41360827852255716 -0.83474524584866427 0.04543105830932314
      vertex -0.61556288562632866 -0.69925229164352909 0.045431058309324264
    endloop
  endfacet
  facet normal -0.39179038434956936 -0.70438106530797306 0.59190168910624164
    outer loop
      vertex -0.41360827852255716 -0.83474524584866427 0.04543105830932314
      vertex -0.27917688166581933 -0.78480486830531215 0.19384419278046316
      vertex -0.52974982546952587 -0.64249476354090063 0.19733881574852996
    endloop
  endfacet
  facet normal -0.12049675950253964 -0.23584454970607407 0.96429138714567297
    outer loop
      vertex -0.52974982546952587 -0.64249476354090063 0.19733881574852996
      vertex -0.27917688166581933 -0.78480486830531215 0.19384419278046316
      vertex -0.47327038266803834 -0.53778398466922739 0.23000638568472351
    endloop
  endfacet
  facet normal 0.54128069314324301 0.80337498932770712 -0.24820120417330169
    outer loop
      vertex -0.15267813876312064 -0.44977529306701053 1.9530742180179899e-16
      vertex -0.16352973796976894 -0.48296314524456052 -0.13108740401806548
      vertex -0.31257430372484635 -0.35635140892611483 -0.046310392067068593
    endloop
  endfacet
  facet normal -0.40941927476795403 -0.83694229549277066 -0.36318514763653836
    outer loop
      vertex -0.37862745715786833 -0.78369755379760186 -0.16410216747100914
      vertex -0.2345958375875167 -0.8868335745125453 -0.088797390073069221
      vertex -0.55611480899051413 -0.72955144788940718 -0.08879739007306936
    endloop
  endfacet
  facet normal -0.42753694492123129 -0.87397876490584059 -0.23102657687175621
    outer loop
      vertex -0.55611480899051413 -0.72955144788940718 -0.08879739007306936
      vertex -0.2345958375875167 -0.8868335745125453 -0.088797390073069221
      vertex -0.41360827852255716 -0.83474524584866427 0.04543105830932314
    endloop
  endfacet
  facet normal -0.27578893934889026 -0.80744565585546779 0.52150932280540074
    outer loop
      vertex -0.41360827852255716 -0.83474524584866427 0.04543105830932314
      vertex -0.18346695075747779 -0.9133516910309486 0.045431058309323327
      vertex -0.27917688166581933 -0.78480486830531215 0.19384419278046316
    endloop
  endfacet
  facet normal -0.073834025342794929 -0.20101143185609183 0.97680240630582149
    outer loop
      vertex -0.27917688166581933 -0.78480486830531215 0.19384419278046316
      vertex -0.0010510732410926164 -0.71125350270261389 0.23000279873236926
      vertex -0.47327038266803834 -0.53778398466922739 0.23000638568472351
    endloop
  endfacet
  facet normal 0.13493518802170637 0.36730199687068338 0.92026177695716294
    outer loop
      vertex -0.47327038266803834 -0.53778398466922739 0.23000638568472351
      vertex -0.0010510732410926164 -0.71125350270261389 0.23000279873236926
      vertex -0.19329297694144956 -0.59436502527388591 0.21153721190176664
    endloop
  endfacet
  facet normal 0.13664132627074918 0.52343522309818891 0.84103787975044264
    outer loop
      vertex -0.19329297694144956 -0.59436502527388591 0.21153721190176664
      vertex 0.0049334400630183543 -0.50970741173343581 0.12664365470184522
      vertex -0.22582229881098792 -0.45751644169610239 0.13165196438746632
    endloop
  endfacet
  facet normal -0.3225668280901251 -0.94440039792515895 -0.063706591610895008
    outer loop
      vertex -0.2345958375875167 -0.8868335745125453 -0.088797390073069221
      vertex -0.18346695075747779 -0.9133516910309486 0.045431058309323327
      vertex -0.41360827852255716 -0.83474524584866427 0.04543105830932314
    endloop
  endfacet
  facet normal -0.17987884720632039 -0.79800320091457944 0.57518213781185035
    outer loop
      vertex -0.18346695075747779 -0.9133516910309486 0.045431058309323327
      vertex 0.021170281871045488 -0.89424243697529615 0.13594005012582541
      vertex -0.27917688166581933 -0.78480486830531215 0.19384419278046316
    endloop
  endfacet
  facet normal -0.065135180824318697 -0.60045835267530356 0.79699885503145107
    outer loop
      vertex -0.27917688166581933 -0.78480486830531215 0.19384419278046316
      vertex 0.021170281871045488 -0.89424243697529615 0.13594005012582541
      vertex 0.041445205331731697 -0.79420255959725761 0.21296699990186346
    endloop
  endfacet
  facet normal -0.064693973339607011 -0.23245241626077112 0.97045379281450772
    outer loop
      vertex -0.27917688166581933 -0.78480486830531215 0.19384419278046316
      vertex 0.041445205331731697 -0.79420255959725761 0.21296699990186346
      vertex -0.0010510732410926164 -0.71125350270261389 0.23000279873236926
    endloop
  endfacet
  facet normal 0.22073321407171742 0.95876562379808716 0.17901208570550226
    outer loop
      vertex -0.22582229881098792 -0.45751644169610239 0.13165196438746632
      vertex 0.0049334400630183543 -0.50970741173343581 0.12664365470184522
      vertex -0.15267813876312064 -0.44977529306701053 1.9530742180179899e-16
    endloop
  endfacet
  facet normal 0.027108628183934984 0.5358025444531388 -0.84390802557833711
    outer loop
      vertex -0.16352973796976894 -0.48296314524456052 -0.13108740401806548
      vertex 0.032672328839223198 -0.54127211818746879 -0.16180559415667622
      vertex -0.12978588423252821 -0.6113816994788881 -0.21153721190176591
    endloop
  endfacet
  facet normal -0.11997143577328483 -0.5623389447054068 -0.81815754342675717
    outer loop
      vertex -0.21219498663521538 -0.72358613430089003 -0.22982317082106396
      vertex 0.0058547978032632 -0.86674654362896486 -0.16339962167380956
      vertex -0.37862745715786833 -0.78369755379760186 -0.16410216747100914
    endloop
  endfacet
  facet normal -0.15275742908219822 -0.71299234156864377 -0.68432966377664772
    outer loop
      vertex -0.37862745715786833 -0.78369755379760186 -0.16410216747100914
      vertex 0.0058547978032632 -0.86674654362896486 -0.16339962167380956
      vertex -0.2345958375875167 -0.8868335745125453 -0.088797390073069221
    endloop
  endfacet
  facet normal 0.0066288389921023124 -0.98133294432259244 0.19220226554535824
    outer loop
      vertex -0.18346695075747779 -0.9133516910309486 0.045431058309323327
      vertex 0.062681047172412352 -0.92948508318031109 -0.045431058309323508
      vertex 0.021170281871045488 -0.89424243697529615 0.13594005012582541
    endloop
  endfacet
  facet normal 0.060916095030521575 0.92940001052793275 0.36401215611145604
    outer loop
      vertex 0.0049334400630183543 -0.50970741173343581 0.12664365470184522
      vertex 0.092664499762117644 -0.4658558991721824 4.5920894888530356e-17
      vertex -0.15267813876312064 -0.44977529306701053 1.9530742180179899e-16
    endloop
  endfacet
  facet normal 0.063986042293072171 0.97623835459291974 -0.20703734304076082
    outer loop
      vertex -0.15267813876312064 -0.44977529306701053 1.9530742180179899e-16
      vertex 0.092664499762117644 -0.4658558991721824 4.5920894888530356e-17
      vertex 0.12098430164318967 -0.4934736814726477 -0.12147309243949606
    endloop
  endfacet
  facet normal 0.044146404985960015 0.96759363058011372 -0.24862353265049172
    outer loop
      vertex -0.15267813876312064 -0.44977529306701053 1.9530742180179899e-16
      vertex 0.12098430164318967 -0.4934736814726477 -0.12147309243949606
      vertex -0.16352973796976894 -0.48296314524456052 -0.13108740401806548
    endloop
  endfacet
  facet normal 0.049025163798240512 0.58966266907114584 -0.80616032525698511
    outer loop
      vertex -0.16352973796976894 -0.48296314524456052 -0.13108740401806548
      vertex 0.12098430164318967 -0.4934736814726477 -0.12147309243949606
      vertex 0.032672328839223198 -0.54127211818746879 -0.16180559415667622
    endloop
  endfacet
  facet normal 0.0077740626953855902 -0.41110277923496441 -0.91155585065013778
    outer loop
      vertex -0.21219498663521538 -0.72358613430089003 -0.22982317082106396
      vertex 0.2984168185490767 -0.77263152654966838 -0.20334950469140561
      vertex 0.0058547978032632 -0.86674654362896486 -0.16339962167380956
    endloop
  endfacet
  facet normal -0.063321628451482523 -0.89345823100355226 -0.44466027574121736
    outer loop
      vertex 0.0058547978032632 -0.86674654362896486 -0.16339962167380956
      vertex 0.062681047172412352 -0.92948508318031109 -0.045431058309323508
      vertex -0.2345958375875167 -0.8868335745125453 -0.088797390073069221
    endloop
  endfacet
  facet normal -0.11917817107750579 -0.98169758690140818 -0.14854767386456377
    outer loop
      vertex -0.2345958375875167 -0.8868335745125453 -0.088797390073069221
      vertex 0.062681047172412352 -0.92948508318031109 -0.045431058309323508
      vertex -0.18346695075747779 -0.9133516910309486 0.045431058309323327
    endloop
  endfacet
  facet normal -0.010868950224123928 0.13856696443975788 0.99029342231834339
    outer loop
      vertex -0.0010510732410926164 -0.71125350270261389 0.23000279873236926
      vertex 0.28360076512024435 -0.55695831462231171 0.21153721190176639
      vertex -0.19329297694144956 -0.59436502527388591 0.21153721190176664
    endloop
  endfacet
  facet normal -0.051623872767560947 0.65814666499694086 0.75111779576434157
    outer loop
      vertex -0.19329297694144956 -0.59436502527388591 0.21153721190176664
      vertex 0.28360076512024435 -0.55695831462231171 0.21153721190176639
      vertex 0.19690935724216357 -0.47660785752604834 0.13517404769147531
    endloop
  endfacet
  facet normal -0.17033771491692173 0.86750462682960827 0.46735509551742732
    outer loop
      vertex -0.19329297694144956 -0.59436502527388591 0.21153721190176664
      vertex 0.19690935724216357 -0.47660785752604834 0.13517404769147531
      vertex 0.0049334400630183543 -0.50970741173343581 0.12664365470184522
    endloop
  endfacet
  facet normal 0.19293390232447605 -0.96048092159220799 0.20063127520711252
    outer loop
      vertex 0.062681047172412352 -0.92948508318031109 -0.045431058309323508
      vertex 0.3011136839484424 -0.88159059821911501 -0.045431058309324014
      vertex 0.33142832941917472 -0.84023413168441585 0.12340290941493101
    endloop
  endfacet
  facet normal 0.17591576811217258 -0.95801327596451491 0.22641600121290614
    outer loop
      vertex 0.062681047172412352 -0.92948508318031109 -0.045431058309323508
      vertex 0.33142832941917472 -0.84023413168441585 0.12340290941493101
      vertex 0.021170281871045488 -0.89424243697529615 0.13594005012582541
    endloop
  endfacet
  facet normal 0.13936793239089568 -0.62169944480845341 0.77075701731865365
    outer loop
      vertex 0.021170281871045488 -0.89424243697529615 0.13594005012582541
      vertex 0.33142832941917472 -0.84023413168441585 0.12340290941493101
      vertex 0.041445205331731697 -0.79420255959725761 0.21296699990186346
    endloop
  endfacet
  facet normal -0.14320343626425261 0.77152911517683764 -0.61986740539937746
    outer loop
      vertex 0.032672328839223198 -0.54127211818746879 -0.16180559415667622
      vertex 0.340539666751765 -0.52408462443799231 -0.21153721190176655
      vertex -0.12978588423252821 -0.6113816994788881 -0.21153721190176591
    endloop
  endfacet
  facet normal -0.049409608096847829 0.26620137205262395 -0.96265025847657482
    outer loop
      vertex -0.12978588423252821 -0.6113816994788881 -0.21153721190176591
      vertex 0.340539666751765 -0.52408462443799231 -0.21153721190176655
      vertex 0.44086693964025031 -0.57227154204259501 -0.23001178733513544
    endloop
  endfacet
  facet normal -0.044944666459566171 0.19275580050265073 -0.98021690371540759
    outer loop
      vertex -0.12978588423252821 -0.6113816994788881 -0.21153721190176591
      vertex 0.44086693964025031 -0.57227154204259501 -0.23001178733513544
      vertex -0.21219498663521538 -0.72358613430089003 -0.22982317082106396
    endloop
  endfacet
  facet normal 0.036090296484526461 -0.15699313184454255 -0.98694004227881094
    outer loop
      vertex -0.21219498663521538 -0.72358613430089003 -0.22982317082106396
      vertex 0.44086693964025031 -0.57227154204259501 -0.23001178733513544
      vertex 0.2984168185490767 -0.77263152654966838 -0.20334950469140561
    endloop
  endfacet
  facet normal 0.18330014565849476 -0.80767979742289042 -0.5604055687058197
    outer loop
      vertex 0.0058547978032632 -0.86674654362896486 -0.16339962167380956
      vertex 0.2984168185490767 -0.77263152654966838 -0.20334950469140561
      vertex 0.3011136839484424 -0.88159059821911501 -0.045431058309324014
    endloop
  endfacet
  facet normal 0.16765742921467397 -0.83464730762076622 -0.5246473656757773
    outer loop
      vertex 0.0058547978032632 -0.86674654362896486 -0.16339962167380956
      vertex 0.3011136839484424 -0.88159059821911501 -0.045431058309324014
      vertex 0.062681047172412352 -0.92948508318031109 -0.045431058309323508
    endloop
  endfacet
  facet normal 0.17021087020813236 -0.53626554864921838 0.82670884898792707
    outer loop
      vertex 0.33142832941917472 -0.84023413168441585 0.12340290941493101
      vertex 0.4834929413883936 -0.6779889190761661 0.19733881574853074
      vertex 0.041445205331731697 -0.79420255959725761 0.21296699990186346
    endloop
  endfacet
  facet normal 0.092382956226054927 -0.22083346493377751 0.97092634641577047
    outer loop
      vertex 0.041445205331731697 -0.79420255959725761 0.21296699990186346
      vertex 0.4834929413883936 -0.6779889190761661 0.19733881574853074
      vertex 0.47140898718925162 -0.53941638469244446 0.23000638568472345
    endloop
  endfacet
  facet normal 0.061916345901988835 -0.17025732543995101 0.9834524946555272
    outer loop
      vertex 0.041445205331731697 -0.79420255959725761 0.21296699990186346
      vertex 0.47140898718925162 -0.53941638469244446 0.23000638568472345
      vertex -0.0010510732410926164 -0.71125350270261389 0.23000279873236926
    endloop
  endfacet
  facet normal -0.12339669887505902 0.339255379822756 0.93256583787315273
    outer loop
      vertex -0.0010510732410926164 -0.71125350270261389 0.23000279873236926
      vertex 0.47140898718925162 -0.53941638469244446 0.23000638568472345
      vertex 0.28360076512024435 -0.55695831462231171 0.21153721190176639
    endloop
  endfacet
  facet normal -0.17518423419781204 0.96153185495442217 0.21158207862773798
    outer loop
      vertex 0.0049334400630183543 -0.50970741173343581 0.12664365470184522
      vertex 0.19690935724216357 -0.47660785752604834 0.13517404769147531
      vertex 0.092664499762117644 -0.4658558991721824 4.5920894888530356e-17
    endloop
  endfacet
  facet normal -0.44615137176893965 0.84457812070476901 -0.29603505112654122
    outer loop
      vertex 0.092664499762117644 -0.4658558991721824 4.5920894888530356e-17
      vertex 0.29043817878787775 -0.37747735696059492 -0.045921640203450714
      vertex 0.12098430164318967 -0.4934736814726477 -0.12147309243949606
    endloop
  endfacet
  facet normal -0.1422067705150189 0.77853666832175439 -0.61127562563720095
    outer loop
      vertex 0.032672328839223198 -0.54127211818746879 -0.16180559415667622
      vertex 0.12098430164318967 -0.4934736814726477 -0.12147309243949606
      vertex 0.340539666751765 -0.52408462443799231 -0.21153721190176655
    endloop
  endfacet
  facet normal 0.41213196632152455 -0.89930365139848623 0.14628802041624483
    outer loop
      vertex 0.3011136839484424 -0.88159059821911501 -0.045431058309324014
      vertex 0.51777706502186149 -0.77490813928775171 5.4719269656400335e-16
      vertex 0.33142832941917472 -0.84023413168441585 0.12340290941493101
    endloop
  endfacet
  facet normal -0.32350304348724973 0.89036594543046821 0.32030339378813188
    outer loop
      vertex 0.19690935724216357 -0.47660785752604834 0.13517404769147531
      vertex 0.29043817878787775 -0.37747735696059492 -0.045921640203450714
      vertex 0.092664499762117644 -0.4658558991721824 4.5920894888530356e-17
    endloop
  endfacet
  facet normal 0.36707630831387605 -0.76269006850167109 -0.53250243500248184
    outer loop
      vertex 0.2984168185490767 -0.77263152654966838 -0.20334950469140561
      vertex 0.58531323379640476 -0.68491755414205702 -0.131210301509771
      vertex 0.3011136839484424 -0.88159059821911501 -0.045431058309324014
    endloop
  endfacet
  facet normal 0.4716823953129109 -0.82142396291149256 -0.32059069092326081
    outer loop
      vertex 0.3011136839484424 -0.88159059821911501 -0.045431058309324014
      vertex 0.58531323379640476 -0.68491755414205702 -0.131210301509771
      vertex 0.51777706502186149 -0.77490813928775171 5.4719269656400335e-16
    endloop
  endfacet
  facet normal 0.51346415287112601 -0.77707835093302591 0.36401071444058658
    outer loop
      vertex 0.51777706502186149 -0.77490813928775171 5.4719269656400335e-16
      vertex 0.66270721222362783 -0.65753696862212252 0.046125456815980632
      vertex 0.33142832941917472 -0.84023413168441585 0.12340290941493101
    endloop
  endfacet
  facet normal 0.5044073044766183 -0.70191900819599229 0.50287471314810284
    outer loop
      vertex 0.33142832941917472 -0.84023413168441585 0.12340290941493101
      vertex 0.66270721222362783 -0.65753696862212252 0.046125456815980632
      vertex 0.4834929413883936 -0.6779889190761661 0.19733881574853074
    endloop
  endfacet
  facet normal -0.32036935039706838 0.44772884402178836 0.83480678097214411
    outer loop
      vertex 0.28360076512024435 -0.55695831462231171 0.21153721190176639
      vertex 0.3834798352450246 -0.33654155913199074 0.13165196438746671
      vertex 0.19690935724216357 -0.47660785752604834 0.13517404769147531
    endloop
  endfacet
  facet normal -0.49083231505438168 0.84780491959807913 -0.20077464183419866
    outer loop
      vertex 0.29043817878787775 -0.37747735696059492 -0.045921640203450714
      vertex 0.38128066477404049 -0.3464206491043022 -0.13686140146013437
      vertex 0.12098430164318967 -0.4934736814726477 -0.12147309243949606
    endloop
  endfacet
  facet normal -0.29167501179335592 0.42670698479727409 -0.85606473856862275
    outer loop
      vertex 0.12098430164318967 -0.4934736814726477 -0.12147309243949606
      vertex 0.38128066477404049 -0.3464206491043022 -0.13686140146013437
      vertex 0.340539666751765 -0.52408462443799231 -0.21153721190176655
    endloop
  endfacet
  facet normal -0.59388847290075075 0.79428901906072524 0.12806809108893999
    outer loop
      vertex 0.19690935724216357 -0.47660785752604834 0.13517404769147531
      vertex 0.3834798352450246 -0.33654155913199074 0.13165196438746671
      vertex 0.29043817878787775 -0.37747735696059492 -0.045921640203450714
    endloop
  endfacet
  facet normal 0.25659950965070294 -0.30450136901816455 -0.91729799297342984
    outer loop
      vertex 0.44086693964025031 -0.57227154204259501 -0.23001178733513544
      vertex 0.66707698969598384 -0.43299388048097265 -0.21296699990186296
      vertex 0.2984168185490767 -0.77263152654966838 -0.20334950469140561
    endloop
  endfacet
  facet normal 0.33445309662131545 -0.38736033243319651 -0.85912344806649088
    outer loop
      vertex 0.2984168185490767 -0.77263152654966838 -0.20334950469140561
      vertex 0.66707698969598384 -0.43299388048097265 -0.21296699990186296
      vertex 0.58531323379640476 -0.68491755414205702 -0.131210301509771
    endloop
  endfacet
  facet normal 0.65235138741505272 -0.73844668296782245 -0.17068732744839615
    outer loop
      vertex 0.58531323379640476 -0.68491755414205702 -0.131210301509771
      vertex 0.66270721222362783 -0.65753696862212252 0.046125456815980632
      vertex 0.51777706502186149 -0.77490813928775171 5.4719269656400335e-16
    endloop
  endfacet
  facet normal 0.64563575981035393 -0.52244701451700926 0.55695922891749539
    outer loop
      vertex 0.66270721222362783 -0.65753696862212252 0.046125456815980632
      vertex 0.82495047013934697 -0.41070560800738892 0.089586911599418853
      vertex 0.72060218393381981 -0.43219505363752436 0.19039121723099095
    endloop
  endfacet
  facet normal 0.5778619610679584 -0.54015097450070393 0.61181081936872717
    outer loop
      vertex 0.66270721222362783 -0.65753696862212252 0.046125456815980632
      vertex 0.72060218393381981 -0.43219505363752436 0.19039121723099095
      vertex 0.4834929413883936 -0.6779889190761661 0.19733881574853074
    endloop
  endfacet
  facet normal 0.2383659694767708 -0.203099586188392 0.94970112281996544
    outer loop
      vertex 0.4834929413883936 -0.6779889190761661 0.19733881574853074
      vertex 0.72060218393381981 -0.43219505363752436 0.19039121723099095
      vertex 0.47140898718925162 -0.53941638469244446 0.23000638568472345
    endloop
  endfacet
  facet normal -0.10820373922817651 0.11934899243352989 0.98693858411865831
    outer loop
      vertex 0.47140898718925162 -0.53941638469244446 0.23000638568472345
      vertex 0.55385489738830318 -0.17747764496674884 0.19527669865771935
      vertex 0.28360076512024435 -0.55695831462231171 0.21153721190176639
    endloop
  endfacet
  facet normal -0.67193865160361144 0.50187061696436197 0.54463229091647802
    outer loop
      vertex 0.28360076512024435 -0.55695831462231171 0.21153721190176639
      vertex 0.55385489738830318 -0.17747764496674884 0.19527669865771935
      vertex 0.3834798352450246 -0.33654155913199074 0.13165196438746671
    endloop
  endfacet
  facet normal 0.75217453290931557 -0.61635728990266414 -0.23310333165035677
    outer loop
      vertex 0.58531323379640476 -0.68491755414205702 -0.131210301509771
      vertex 0.82803269305244986 -0.40445547822740119 -0.089586911599419158
      vertex 0.66270721222362783 -0.65753696862212252 0.046125456815980632
    endloop
  endfacet
  facet normal 0.83205139581556176 -0.55345282185534928 0.03715439007340051
    outer loop
      vertex 0.66270721222362783 -0.65753696862212252 0.046125456815980632
      vertex 0.86406927964538194 -0.35790921445906865 6.5393097706676169e-17
      vertex 0.82495047013934697 -0.41070560800738892 0.089586911599418853
    endloop
  endfacet
  facet normal -0.83059764622567733 0.44696208326849596 0.33216328244502091
    outer loop
      vertex 0.3834798352450246 -0.33654155913199074 0.13165196438746671
      vertex 0.45150890771521607 -0.14581352351276697 0.045117978879370503
      vertex 0.29043817878787775 -0.37747735696059492 -0.045921640203450714
    endloop
  endfacet
  facet normal -0.64947878231115963 0.62292742761211195 -0.43604900098058985
    outer loop
      vertex 0.29043817878787775 -0.37747735696059492 -0.045921640203450714
      vertex 0.45150890771521607 -0.14581352351276697 0.045117978879370503
      vertex 0.38128066477404049 -0.3464206491043022 -0.13686140146013437
    endloop
  endfacet
  facet normal -0.61801450403665958 0.4208324184505367 -0.6640467968309115
    outer loop
      vertex 0.38128066477404049 -0.3464206491043022 -0.13686140146013437
      vertex 0.53227138175571487 -0.21800601615474674 -0.19600393886622933
      vertex 0.340539666751765 -0.52408462443799231 -0.21153721190176655
    endloop
  endfacet
  facet normal -0.12093383182860809 0.12572568968017367 -0.98466647108231253
    outer loop
      vertex 0.340539666751765 -0.52408462443799231 -0.21153721190176655
      vertex 0.53227138175571487 -0.21800601615474674 -0.19600393886622933
      vertex 0.44086693964025031 -0.57227154204259501 -0.23001178733513544
    endloop
  endfacet
  facet normal 0.62175464861636986 -0.41695794464998892 -0.66299866464208734
    outer loop
      vertex 0.66707698969598384 -0.43299388048097265 -0.21296699990186296
      vertex 0.82641371283663712 -0.27309518922483167 -0.16410216747100681
      vertex 0.58531323379640476 -0.68491755414205702 -0.131210301509771
    endloop
  endfacet
  facet normal 0.5801327999173248 -0.39646588190601928 -0.71152002005886494
    outer loop
      vertex 0.58531323379640476 -0.68491755414205702 -0.131210301509771
      vertex 0.82641371283663712 -0.27309518922483167 -0.16410216747100681
      vertex 0.82803269305244986 -0.40445547822740119 -0.089586911599419158
    endloop
  endfacet
  facet normal 0.8263948720727361 -0.56162407034641137 -0.040619195208858504
    outer loop
      vertex 0.82803269305244986 -0.40445547822740119 -0.089586911599419158
      vertex 0.86406927964538194 -0.35790921445906865 6.5393097706676169e-17
      vertex 0.66270721222362783 -0.65753696862212252 0.046125456815980632
    endloop
  endfacet
  facet normal 0.2184426687530662 -0.15150656441257918 0.96401688854912448
    outer loop
      vertex 0.72060218393381981 -0.43219505363752436 0.19039121723099095
      vertex 0.73771214220304882 -0.16028804814994291 0.22924753991526206
      vertex 0.47140898718925162 -0.53941638469244446 0.23000638568472345
    endloop
  endfacet
  facet normal -0.19235392111451449 0.1370560500097765 0.97170757339211322
    outer loop
      vertex 0.47140898718925162 -0.53941638469244446 0.23000638568472345
      vertex 0.73771214220304882 -0.16028804814994291 0.22924753991526206
      vertex 0.55385489738830318 -0.17747764496674884 0.19527669865771935
    endloop
  endfacet
  facet normal -0.66776839274257749 0.49172417610612179 0.55883155627322134
    outer loop
      vertex 0.55385489738830318 -0.17747764496674884 0.19527669865771935
      vertex 0.45150890771521607 -0.14581352351276697 0.045117978879370503
      vertex 0.3834798352450246 -0.33654155913199074 0.13165196438746671
    endloop
  endfacet
  facet normal -0.95396482564821183 0.29716225848311123 0.040567272020600863
    outer loop
      vertex 0.45150890771521607 -0.14581352351276697 0.045117978879370503
      vertex 0.48139560697963868 -0.036242314296339895 -0.054705547347314157
      vertex 0.38128066477404049 -0.3464206491043022 -0.13686140146013437
    endloop
  endfacet
  facet normal -0.59921888558899894 0.38004067032418554 -0.70463168822656697
    outer loop
      vertex 0.38128066477404049 -0.3464206491043022 -0.13686140146013437
      vertex 0.48139560697963868 -0.036242314296339895 -0.054705547347314157
      vertex 0.53227138175571487 -0.21800601615474674 -0.19600393886622933
    endloop
  endfacet
  facet normal -0.27114401873343769 0.16105480073046 -0.94896905759184413
    outer loop
      vertex 0.53227138175571487 -0.21800601615474674 -0.19600393886622933
      vertex 0.75741786660017829 -0.030470428905225905 -0.22850617465921072
      vertex 0.44086693964025031 -0.57227154204259501 -0.23001178733513544
    endloop
  endfacet
  facet normal 0.11402455007528756 -0.063864538162939702 -0.99142307959082876
    outer loop
      vertex 0.44086693964025031 -0.57227154204259501 -0.23001178733513544
      vertex 0.75741786660017829 -0.030470428905225905 -0.22850617465921072
      vertex 0.66707698969598384 -0.43299388048097265 -0.21296699990186296
    endloop
  endfacet
  facet normal 0.6993123821855094 -0.24400214199568165 0.6718817952761833
    outer loop
      vertex 0.82495047013934697 -0.41070560800738892 0.089586911599418853
      vertex 0.8917694271688803 -0.10533544300832522 0.1309389031866465
      vertex 0.72060218393381981 -0.43219505363752436 0.19039121723099095
    endloop
  endfacet
  facet normal 0.56952959723949237 -0.15129329939702488 0.80792720923718364
    outer loop
      vertex 0.72060218393381981 -0.43219505363752436 0.19039121723099095
      vertex 0.8917694271688803 -0.10533544300832522 0.1309389031866465
      vertex 0.73771214220304882 -0.16028804814994291 0.22924753991526206
    endloop
  endfacet
  facet normal 0.40396844986676739 -0.12564475123034735 -0.90610313320311675
    outer loop
      vertex 0.66707698969598384 -0.43299388048097265 -0.21296699990186296
      vertex 0.75741786660017829 -0.030470428905225905 -0.22850617465921072
      vertex 0.82641371283663712 -0.27309518922483167 -0.16410216747100681
    endloop
  endfacet
  facet normal 0.96905274381974116 -0.18875224829307338 0.15908918398100194
    outer loop
      vertex 0.86406927964538194 -0.35790921445906865 6.5393097706676169e-17
      vertex 0.92971472785450815 -0.059177346508248747 -0.045431058309324042
      vertex 0.8917694271688803 -0.10533544300832522 0.1309389031866465
    endloop
  endfacet
  facet normal 0.93353659627123298 -0.24029371587103199 0.26602321991738342
    outer loop
      vertex 0.86406927964538194 -0.35790921445906865 6.5393097706676169e-17
      vertex 0.8917694271688803 -0.10533544300832522 0.1309389031866465
      vertex 0.82495047013934697 -0.41070560800738892 0.089586911599418853
    endloop
  endfacet
  facet normal -0.90149299642212832 0.078529396790767966 -0.42560957606887873
    outer loop
      vertex 0.48139560697963868 -0.036242314296339895 -0.054705547347314157
      vertex 0.54070179647634842 0.068039563418118731 -0.16108219878646141
      vertex 0.53227138175571487 -0.21800601615474674 -0.19600393886622933
    endloop
  endfacet
  facet normal -0.5108948054692477 0.11899602184724974 -0.85136739691455665
    outer loop
      vertex 0.53227138175571487 -0.21800601615474674 -0.19600393886622933
      vertex 0.54070179647634842 0.068039563418118731 -0.16108219878646141
      vertex 0.64381302188649925 0.054841372834803635 -0.22480265815478695
    endloop
  endfacet
  facet normal -0.085065605908928421 -0.070130088892621137 -0.99390422744007889
    outer loop
      vertex 0.53227138175571487 -0.21800601615474674 -0.19600393886622933
      vertex 0.64381302188649925 0.054841372834803635 -0.22480265815478695
      vertex 0.75741786660017829 -0.030470428905225905 -0.22850617465921072
    endloop
  endfacet
  facet normal 0.89389908967633003 -0.21279101176903989 -0.3945432837929656
    outer loop
      vertex 0.82641371283663712 -0.27309518922483167 -0.16410216747100681
      vertex 0.92971472785450815 -0.059177346508248747 -0.045431058309324042
      vertex 0.82803269305244986 -0.40445547822740119 -0.089586911599419158
    endloop
  endfacet
  facet normal 0.93697114837796458 -0.24394034961915637 -0.25015629701241199
    outer loop
      vertex 0.82803269305244986 -0.40445547822740119 -0.089586911599419158
      vertex 0.92971472785450815 -0.059177346508248747 -0.045431058309324042
      vertex 0.86406927964538194 -0.35790921445906865 6.5393097706676169e-17
    endloop
  endfacet
  facet normal 0.54500837519599432 -0.028868797137587873 0.83793344814373605
    outer loop
      vertex 0.8917694271688803 -0.10533544300832522 0.1309389031866465
      vertex 0.85498970412386754 0.16289018688786636 0.1641021674710067
      vertex 0.73771214220304882 -0.16028804814994291 0.22924753991526206
    endloop
  endfacet
  facet normal -0.17937445695332474 -0.02500209495473367 0.98346311544489273
    outer loop
      vertex 0.73771214220304882 -0.16028804814994291 0.22924753991526206
      vertex 0.58921078701354834 0.20847687322719874 0.21153721190176655
      vertex 0.55385489738830318 -0.17747764496674884 0.19527669865771935
    endloop
  endfacet
  facet normal -0.8303141480683659 -0.052862579279410862 0.55478280725832851
    outer loop
      vertex 0.55385489738830318 -0.17747764496674884 0.19527669865771935
      vertex 0.48959151197309564 0.1623259749296404 0.13147533016950716
      vertex 0.45150890771521607 -0.14581352351276697 0.045117978879370503
    endloop
  endfacet
  facet normal -0.98017570054742176 0.15553605330639406 -0.12273602640725106
    outer loop
      vertex 0.45150890771521607 -0.14581352351276697 0.045117978879370503
      vertex 0.48959151197309564 0.1623259749296404 0.13147533016950716
      vertex 0.48139560697963868 -0.036242314296339895 -0.054705547347314157
    endloop
  endfacet
  facet normal 0.64694832953038461 -0.018379082389103234 -0.76231231673663746
    outer loop
      vertex 0.75741786660017829 -0.030470428905225905 -0.22850617465921072
      vertex 0.87716111021175158 0.20102429176448047 -0.13246544532055593
      vertex 0.82641371283663712 -0.27309518922483167 -0.16410216747100681
    endloop
  endfacet
  facet normal 0.7914921688085873 -0.044041057919797691 -0.60959046246802762
    outer loop
      vertex 0.82641371283663712 -0.27309518922483167 -0.16410216747100681
      vertex 0.87716111021175158 0.20102429176448047 -0.13246544532055593
      vertex 0.92971472785450815 -0.059177346508248747 -0.045431058309324042
    endloop
  endfacet
endsolid line_w_1e_03
