solid line_w_1e_02
  facet normal -0.13988206334032854 0.022218480363426916 0.98991885904148347
    outer loop
      vertex 0.71214641460531714 -0.23883904675700704 0.22950722911793969
      vertex 0.7564136541348857 0.10960949606938392 0.22794164190993668
      vertex 0.61791627528825677 0.0035985762606915838 0.21075043737354324
    endloop
  endfacet
  facet normal -0.55080992833363274 -0.02506383808105914 0.83425429388750805
    outer loop
      vertex 0.61791627528825677 0.0035985762606915838 0.21075043737354324
      vertex 0.49169394467623184 0.1314409588982958 0.1312539426163577
      vertex 0.50389352938695808 -0.088361192162438359 0.1327050191826159
    endloop
  endfacet
  facet normal -0.98805958736942689 -0.053886943818217313 0.14434143235152494
    outer loop
      vertex 0.50389352938695808 -0.088361192162438359 0.1327050191826159
      vertex 0.49169394467623184 0.1314409588982958 0.1312539426163577
      vertex 0.47239555481340922 0.029519249797450013 -0.038899617153754534
    endloop
  endfacet
  facet normal -0.78774562347244703 0.22404420522538809 -0.5738127105641091
    outer loop
      vertex 0.49461628348717135 -0.11021056562568775 -0.12396210584959987
      vertex 0.47239555481340922 0.029519249797450013 -0.038899617153754534
      vertex 0.57737513046058542 -0.00052492546144263658 -0.19474911820379659
    endloop
  endfacet
  facet normal -0.32752035770578536 -0.017708985038280851 -0.94467815002634015
    outer loop
      vertex 0.57737513046058542 -0.00052492546144263658 -0.19474911820379659
      vertex 0.66684852415508222 0.22653555709408166 -0.23002607321265708
      vertex 0.69589622221265346 -0.28556176972372194 -0.23049712100768957
    endloop
  endfacet
  facet normal 0.20306079457059759 0.012418822094536474 -0.97908737432679716
    outer loop
      vertex 0.69589622221265346 -0.28556176972372194 -0.23049712100768957
      vertex 0.66684852415508222 0.22653555709408166 -0.23002607321265708
      vertex 0.80649478254131557 0.15085720263332869 -0.20202362431465604
    endloop
  endfacet
  facet normal 0.95892342684707743 0.16837666606584586 0.22828744987057112
    outer loop
      vertex 0.92575558799105007 0.11924492507840322 -0.046065730224905073
      vertex 0.87872756658239759 0.34177599210316878 -0.012655079356266663
      vertex 0.89506442067697845 0.056157124118218049 0.1293840939005845
    endloop
  endfacet
  facet normal 0.92237277404250972 0.21301883593740842 0.32225989704118757
    outer loop
      vertex 0.89506442067697845 0.056157124118218049 0.1293840939005845
      vertex 0.87872756658239759 0.34177599210316878 -0.012655079356266663
      vertex 0.82655257158580242 0.35073693521843341 0.13075694809014488
    endloop
  endfacet
  facet normal 0.608606999027131 0.1379050653365142 0.7813960031185988
    outer loop
      vertex 0.89506442067697845 0.056157124118218049 0.1293840939005845
      vertex 0.82655257158580242 0.35073693521843341 0.13075694809014488
      vertex 0.7564136541348857 0.10960949606938392 0.22794164190993668
    endloop
  endfacet
  facet normal -0.91768344530933399 -0.28624244466644722 0.27554011881496726
    outer loop
      vertex 0.49169394467623184 0.1314409588982958 0.1312539426163577
      vertex 0.39317910998986055 0.27622873621726896 -0.04643715290190794
      vertex 0.47239555481340922 0.029519249797450013 -0.038899617153754534
    endloop
  endfacet
  facet normal -0.22275557618914338 -0.06336277682964396 -0.97281298911408431
    outer loop
      vertex 0.57737513046058542 -0.00052492546144263658 -0.19474911820379659
      vertex 0.49470283845147334 0.30112104403124879 -0.19546602084897532
      vertex 0.66684852415508222 0.22653555709408166 -0.23002607321265708
    endloop
  endfacet
  facet normal 0.79151580439918168 0.26191074022964961 -0.55218248391149949
    outer loop
      vertex 0.88937468254663565 0.035262585812561364 -0.13804970248194806
      vertex 0.80649478254131557 0.15085720263332869 -0.20202362431465604
      vertex 0.92575558799105007 0.11924492507840322 -0.046065730224905073
    endloop
  endfacet
  facet normal -0.071763073928926641 -0.067619761822991953 0.99512694116442924
    outer loop
      vertex 0.7564136541348857 0.10960949606938392 0.22794164190993668
      vertex 0.56500738655821903 0.33849381785506666 0.2296913696296618
      vertex 0.61791627528825677 0.0035985762606915838 0.21075043737354324
    endloop
  endfacet
  facet normal -0.62670014958457598 -0.14234183292276459 0.76614993644250728
    outer loop
      vertex 0.61791627528825677 0.0035985762606915838 0.21075043737354324
      vertex 0.56500738655821903 0.33849381785506666 0.2296913696296618
      vertex 0.49169394467623184 0.1314409588982958 0.1312539426163577
    endloop
  endfacet
  facet normal -0.77529030236961605 -0.26643552194065129 -0.57265789062916261
    outer loop
      vertex 0.47239555481340922 0.029519249797450013 -0.038899617153754534
      vertex 0.39317910998986055 0.27622873621726896 -0.04643715290190794
      vertex 0.49470283845147334 0.30112104403124879 -0.19546602084897532
    endloop
  endfacet
  facet normal -0.82734610548925325 -0.22797128839158101 -0.51334930934096734
    outer loop
      vertex 0.47239555481340922 0.029519249797450013 -0.038899617153754534
      vertex 0.49470283845147334 0.30112104403124879 -0.19546602084897532
      vertex 0.57737513046058542 -0.00052492546144263658 -0.19474911820379659
    endloop
  endfacet
  facet normal 0.25098898016044446 0.10716687908302017 -0.96203939205503697
    outer loop
      vertex 0.66684852415508222 0.22653555709408166 -0.23002607321265708
      vertex 0.72085954470114444 0.42177496634456058 -0.19418620073714954
      vertex 0.80649478254131557 0.15085720263332869 -0.20202362431465604
    endloop
  endfacet
  facet normal 0.78239636373231314 0.26363275253955248 -0.56422841279651381
    outer loop
      vertex 0.80649478254131557 0.15085720263332869 -0.20202362431465604
      vertex 0.72085954470114444 0.42177496634456058 -0.19418620073714954
      vertex 0.87872756658239759 0.34177599210316878 -0.012655079356266663
    endloop
  endfacet
  facet normal 0.79281739554792974 0.250935703497431 -0.55540242169695919
    outer loop
      vertex 0.80649478254131557 0.15085720263332869 -0.20202362431465604
      vertex 0.87872756658239759 0.34177599210316878 -0.012655079356266663
      vertex 0.92575558799105007 0.11924492507840322 -0.046065730224905073
    endloop
  endfacet
  facet normal 0.80692676948143283 0.53012981557074046 0.26044494108581068
    outer loop
      vertex 0.87872756658239759 0.34177599210316878 -0.012655079356266663
      vertex 0.7421053943564484 0.5661469283857935 -0.046065730224904976
      vertex 0.82655257158580242 0.35073693521843341 0.13075694809014488
    endloop
  endfacet
  facet normal 0.50229490994032289 0.19355902722174595 0.84275425031797635
    outer loop
      vertex 0.82655257158580242 0.35073693521843341 0.13075694809014488
      vertex 0.64899703985608559 0.52007535273213246 0.19769017379986942
      vertex 0.7564136541348857 0.10960949606938392 0.22794164190993668
    endloop
  endfacet
  facet normal 0.13934378268097641 0.10900329457526826 0.98422639265561973
    outer loop
      vertex 0.7564136541348857 0.10960949606938392 0.22794164190993668
      vertex 0.64899703985608559 0.52007535273213246 0.19769017379986942
      vertex 0.56500738655821903 0.33849381785506666 0.2296913696296618
    endloop
  endfacet
  facet normal -0.45276919736561 -0.24699339922396882 0.85673468160025512
    outer loop
      vertex 0.56500738655821903 0.33849381785506666 0.2296913696296618
      vertex 0.3627668027428736 0.36386087174563814 0.13012400791067164
      vertex 0.49169394467623184 0.1314409588982958 0.1312539426163577
    endloop
  endfacet
  facet normal -0.87113801143405745 -0.48279908207730055 0.089574613479668747
    outer loop
      vertex 0.49169394467623184 0.1314409588982958 0.1312539426163577
      vertex 0.3627668027428736 0.36386087174563814 0.13012400791067164
      vertex 0.39317910998986055 0.27622873621726896 -0.04643715290190794
    endloop
  endfacet
  facet normal 0.8297533787908794 0.51049379910666792 0.22562227606945331
    outer loop
      vertex 0.7421053943564484 0.5661469283857935 -0.046065730224904976
      vertex 0.65816765428196833 0.6618595770332103 0.046065730224905066
      vertex 0.82655257158580242 0.35073693521843341 0.13075694809014488
    endloop
  endfacet
  facet normal 0.68401307225558072 0.51171632643598741 0.51987740693584639
    outer loop
      vertex 0.82655257158580242 0.35073693521843341 0.13075694809014488
      vertex 0.65816765428196833 0.6618595770332103 0.046065730224905066
      vertex 0.64899703985608559 0.52007535273213246 0.19769017379986942
    endloop
  endfacet
  facet normal -0.44629318621030117 -0.382336911529713 0.80909880609489082
    outer loop
      vertex 0.56500738655821903 0.33849381785506666 0.2296913696296618
      vertex 0.41826778416948746 0.50773315746483272 0.22872432052307617
      vertex 0.3627668027428736 0.36386087174563814 0.13012400791067164
    endloop
  endfacet
  facet normal -0.26853609435003445 -0.18143679117737466 -0.94602804231084336
    outer loop
      vertex 0.49470283845147334 0.30112104403124879 -0.19546602084897532
      vertex 0.39691186613066765 0.62827231794656946 -0.23045110598262486
      vertex 0.66684852415508222 0.22653555709408166 -0.23002607321265708
    endloop
  endfacet
  facet normal 0.18952263187666274 0.12631466414275253 -0.97371750401697443
    outer loop
      vertex 0.66684852415508222 0.22653555709408166 -0.23002607321265708
      vertex 0.39691186613066765 0.62827231794656946 -0.23045110598262486
      vertex 0.72085954470114444 0.42177496634456058 -0.19418620073714954
    endloop
  endfacet
  facet normal 0.7721158188270415 0.39616054940755741 -0.4968842736595207
    outer loop
      vertex 0.72085954470114444 0.42177496634456058 -0.19418620073714954
      vertex 0.7421053943564484 0.5661469283857935 -0.046065730224904976
      vertex 0.87872756658239759 0.34177599210316878 -0.012655079356266663
    endloop
  endfacet
  facet normal 0.12636189536013495 0.11519249564012296 0.98527324146614004
    outer loop
      vertex 0.64899703985608559 0.52007535273213246 0.19769017379986942
      vertex 0.41826778416948746 0.50773315746483272 0.22872432052307617
      vertex 0.56500738655821903 0.33849381785506666 0.2296913696296618
    endloop
  endfacet
  facet normal 0.23308398559432575 0.19846861841232508 -0.95198847848330981
    outer loop
      vertex 0.39691186613066765 0.62827231794656946 -0.23045110598262486
      vertex 0.54633333129545658 0.62862266039584636 -0.1937938528702452
      vertex 0.72085954470114444 0.42177496634456058 -0.19418620073714954
    endloop
  endfacet
  facet normal 0.61414668855241239 0.51930891578485294 -0.59425759980539317
    outer loop
      vertex 0.72085954470114444 0.42177496634456058 -0.19418620073714954
      vertex 0.54633333129545658 0.62862266039584636 -0.1937938528702452
      vertex 0.7421053943564484 0.5661469283857935 -0.046065730224904976
    endloop
  endfacet
  facet normal 0.58394871162704631 0.57502147061517539 0.57302199828686651
    outer loop
      vertex 0.65816765428196833 0.6618595770332103 0.046065730224905066
      vertex 0.49277577698201663 0.77458168073533962 0.10149596486896759
      vertex 0.64899703985608559 0.52007535273213246 0.19769017379986942
    endloop
  endfacet
  facet normal -0.57989152746497874 -0.64150438106948193 -0.50219313559923795
    outer loop
      vertex 0.39317910998986055 0.27622873621726896 -0.04643715290190794
      vertex 0.25537841980163695 0.51730104910057439 -0.19526334516165222
      vertex 0.49470283845147334 0.30112104403124879 -0.19546602084897532
    endloop
  endfacet
  facet normal -0.13093298561140812 -0.144031181662755 -0.98087286229547266
    outer loop
      vertex 0.49470283845147334 0.30112104403124879 -0.19546602084897532
      vertex 0.25537841980163695 0.51730104910057439 -0.19526334516165222
      vertex 0.39691186613066765 0.62827231794656946 -0.23045110598262486
    endloop
  endfacet
  facet normal 0.59417656005656272 0.60286303770225891 -0.53245692149858914
    outer loop
      vertex 0.54633333129545658 0.62862266039584636 -0.1937938528702452
      vertex 0.4556230919551007 0.77370094312906046 -0.13075694809014379
      vertex 0.7421053943564484 0.5661469283857935 -0.046065730224904976
    endloop
  endfacet
  facet normal 0.61443100290279618 0.75602191186043266 -0.22562227606945259
    outer loop
      vertex 0.7421053943564484 0.5661469283857935 -0.046065730224904976
      vertex 0.4556230919551007 0.77370094312906046 -0.13075694809014379
      vertex 0.65816765428196833 0.6618595770332103 0.046065730224905066
    endloop
  endfacet
  facet normal 0.29575902263252929 0.49120659758500179 0.81929401256228962
    outer loop
      vertex 0.49277577698201663 0.77458168073533962 0.10149596486896759
      vertex 0.16313913190244952 0.7819546497517792 0.21607187963045488
      vertex 0.64899703985608559 0.52007535273213246 0.19769017379986942
    endloop
  endfacet
  facet normal 0.123189907778828 0.15980323463471 0.97943206646593295
    outer loop
      vertex 0.64899703985608559 0.52007535273213246 0.19769017379986942
      vertex 0.16313913190244952 0.7819546497517792 0.21607187963045488
      vertex 0.41826778416948746 0.50773315746483272 0.22872432052307617
    endloop
  endfacet
  facet normal -0.56415743944768049 -0.77415901859630731 0.28706131303580246
    outer loop
      vertex 0.3627668027428736 0.36386087174563814 0.13012400791067164
      vertex 0.16102735613901867 0.44615802499752577 -0.0444091805117715
      vertex 0.39317910998986055 0.27622873621726896 -0.04643715290190794
    endloop
  endfacet
  facet normal -0.47566820275329319 -0.64267453195677182 -0.60059071493288685
    outer loop
      vertex 0.39317910998986055 0.27622873621726896 -0.04643715290190794
      vertex 0.16102735613901867 0.44615802499752577 -0.0444091805117715
      vertex 0.25537841980163695 0.51730104910057439 -0.19526334516165222
    endloop
  endfacet
  facet normal 0.2058738972458907 0.49540528771772163 -0.84391322974231764
    outer loop
      vertex 0.54633333129545658 0.62862266039584636 -0.1937938528702452
      vertex 0.39691186613066765 0.62827231794656946 -0.23045110598262486
      vertex 0.4556230919551007 0.77370094312906046 -0.13075694809014379
    endloop
  endfacet
  facet normal 0.54024103534662793 0.8367273364166502 -0.089593460814398951
    outer loop
      vertex 0.4556230919551007 0.77370094312906046 -0.13075694809014379
      vertex 0.49277577698201663 0.77458168073533962 0.10149596486896759
      vertex 0.65816765428196833 0.6618595770332103 0.046065730224905066
    endloop
  endfacet
  facet normal 0.36007875075683166 0.91267303891284024 0.19331636582297085
    outer loop
      vertex 0.49277577698201663 0.77458168073533962 0.10149596486896759
      vertex 0.29858662602384023 0.88231601351644895 -0.045428140010192755
      vertex 0.2906439071150162 0.84842209955184611 0.12938409390058381
    endloop
  endfacet
  facet normal 0.29456062200577116 0.49837931736605862 0.81538463070217027
    outer loop
      vertex 0.49277577698201663 0.77458168073533962 0.10149596486896759
      vertex 0.2906439071150162 0.84842209955184611 0.12938409390058381
      vertex 0.16313913190244952 0.7819546497517792 0.21607187963045488
    endloop
  endfacet
  facet normal 0.056404169859532463 0.09831912862751499 0.99355519150592908
    outer loop
      vertex 0.16313913190244952 0.7819546497517792 0.21607187963045488
      vertex 0.17318688673255403 0.63669981750007865 0.22987543416172529
      vertex 0.41826778416948746 0.50773315746483272 0.22872432052307617
    endloop
  endfacet
  facet normal -0.25537969300964669 -0.49273395217075594 0.83186204672198238
    outer loop
      vertex 0.41826778416948746 0.50773315746483272 0.22872432052307617
      vertex 0.17318688673255403 0.63669981750007865 0.22987543416172529
      vertex 0.13201576283440425 0.49153992642574518 0.13125394261635742
    endloop
  endfacet
  facet normal -0.25923608337277698 -0.47594800686986599 0.84039880285144664
    outer loop
      vertex 0.41826778416948746 0.50773315746483272 0.22872432052307617
      vertex 0.13201576283440425 0.49153992642574518 0.13125394261635742
      vertex 0.3627668027428736 0.36386087174563814 0.13012400791067164
    endloop
  endfacet
  facet normal -0.47850776462641781 -0.86607539608097106 0.14471947863165427
    outer loop
      vertex 0.3627668027428736 0.36386087174563814 0.13012400791067164
      vertex 0.13201576283440425 0.49153992642574518 0.13125394261635742
      vertex 0.16102735613901867 0.44615802499752577 -0.0444091805117715
    endloop
  endfacet
  facet normal 0.5336190470449641 0.84107638999770151 -0.088550656797444754
    outer loop
      vertex 0.4556230919551007 0.77370094312906046 -0.13075694809014379
      vertex 0.29858662602384023 0.88231601351644895 -0.045428140010192755
      vertex 0.49277577698201663 0.77458168073533962 0.10149596486896759
    endloop
  endfacet
  facet normal -0.029771368726424923 -0.26742378027028274 -0.96311898919609451
    outer loop
      vertex 0.25537841980163695 0.51730104910057439 -0.19526334516165222
      vertex -0.065285111813263672 0.68058606425658752 -0.23068960521926565
      vertex 0.39691186613066765 0.62827231794656946 -0.23045110598262486
    endloop
  endfacet
  facet normal 0.025503094071415541 0.22087739224717845 -0.97496808654789846
    outer loop
      vertex 0.39691186613066765 0.62827231794656946 -0.23045110598262486
      vertex -0.065285111813263672 0.68058606425658752 -0.23068960521926565
      vertex 0.1588272136381228 0.81756985894508893 -0.19379385287024531
    endloop
  endfacet
  facet normal 0.24949672471432036 0.47699619791376574 -0.8427490798171412
    outer loop
      vertex 0.39691186613066765 0.62827231794656946 -0.23045110598262486
      vertex 0.1588272136381228 0.81756985894508893 -0.19379385287024531
      vertex 0.4556230919551007 0.77370094312906046 -0.13075694809014379
    endloop
  endfacet
  facet normal 0.23707343647329071 0.78854783830845021 -0.56744029854938494
    outer loop
      vertex 0.4556230919551007 0.77370094312906046 -0.13075694809014379
      vertex 0.1588272136381228 0.81756985894508893 -0.19379385287024531
      vertex 0.29858662602384023 0.88231601351644895 -0.045428140010192755
    endloop
  endfacet
  facet normal 0.19061860842684877 0.96300715502813306 0.19047772963271317
    outer loop
      vertex 0.29858662602384023 0.88231601351644895 -0.045428140010192755
      vertex 0.060052345363956601 0.92953172983182586 -0.04542814001019338
      vertex 0.061152658486074575 0.89473699605589563 0.12938409390058542
    endloop
  endfacet
  facet normal 0.19402094745311166 0.96137771758361645 0.19521464105725492
    outer loop
      vertex 0.29858662602384023 0.88231601351644895 -0.045428140010192755
      vertex 0.061152658486074575 0.89473699605589563 0.12938409390058542
      vertex 0.2906439071150162 0.84842209955184611 0.12938409390058381
    endloop
  endfacet
  facet normal 0.13693997491914339 0.67854034454468104 0.72168583476075643
    outer loop
      vertex 0.2906439071150162 0.84842209955184611 0.12938409390058381
      vertex 0.061152658486074575 0.89473699605589563 0.12938409390058542
      vertex 0.16313913190244952 0.7819546497517792 0.21607187963045488
    endloop
  endfacet
  facet normal 0.051865979889356602 -0.73281885354339382 -0.67844413773092815
    outer loop
      vertex 0.16102735613901867 0.44615802499752577 -0.0444091805117715
      vertex -0.12464644609145287 0.49832809212823381 -0.12259978975312942
      vertex -0.00084708440812996993 0.57472651852964984 -0.19565699415376686
    endloop
  endfacet
  facet normal -0.18706866438835085 -0.83818951378402196 -0.51229254707292338
    outer loop
      vertex 0.16102735613901867 0.44615802499752577 -0.0444091805117715
      vertex -0.00084708440812996993 0.57472651852964984 -0.19565699415376686
      vertex 0.25537841980163695 0.51730104910057439 -0.19526334516165222
    endloop
  endfacet
  facet normal -0.078325104175487562 -0.35586083131243362 -0.93125090431823077
    outer loop
      vertex 0.25537841980163695 0.51730104910057439 -0.19526334516165222
      vertex -0.00084708440812996993 0.57472651852964984 -0.19565699415376686
      vertex -0.065285111813263672 0.68058606425658752 -0.23068960521926565
    endloop
  endfacet
  facet normal 0.16569302734461541 0.83708286503606788 -0.5213809526175508
    outer loop
      vertex 0.1588272136381228 0.81756985894508893 -0.19379385287024531
      vertex 0.060052345363956601 0.92953172983182586 -0.04542814001019338
      vertex 0.29858662602384023 0.88231601351644895 -0.045428140010192755
    endloop
  endfacet
  facet normal 0.017165352989525096 0.095766460547931156 0.99525581419596165
    outer loop
      vertex 0.16313913190244952 0.7819546497517792 0.21607187963045488
      vertex -0.13723871477360614 0.69077554094150306 0.23002607321265714
      vertex 0.17318688673255403 0.63669981750007865 0.22987543416172529
    endloop
  endfacet
  facet normal -0.044010296363323126 -0.2553348646298168 0.96585050640276915
    outer loop
      vertex 0.17318688673255403 0.63669981750007865 0.22987543416172529
      vertex -0.13723871477360614 0.69077554094150306 0.23002607321265714
      vertex -0.15118020024781434 0.55956536560693637 0.19470373187886875
    endloop
  endfacet
  facet normal 0.046719407101062455 -0.57038871662404633 0.82004512616568759
    outer loop
      vertex 0.17318688673255403 0.63669981750007865 0.22987543416172529
      vertex -0.15118020024781434 0.55956536560693637 0.19470373187886875
      vertex 0.13201576283440425 0.49153992642574518 0.13125394261635742
    endloop
  endfacet
  facet normal -0.093692620400759902 -0.85920229574225682 0.50298420240965291
    outer loop
      vertex 0.13201576283440425 0.49153992642574518 0.13125394261635742
      vertex -0.15118020024781434 0.55956536560693637 0.19470373187886875
      vertex -0.09282019118731584 0.46615373563858026 0.046008038487222312
    endloop
  endfacet
  facet normal 0.013620675915651744 -0.96757439413595092 0.25221869280457443
    outer loop
      vertex 0.13201576283440425 0.49153992642574518 0.13125394261635742
      vertex -0.09282019118731584 0.46615373563858026 0.046008038487222312
      vertex 0.16102735613901867 0.44615802499752577 -0.0444091805117715
    endloop
  endfacet
  facet normal -0.13443226864532729 -0.97772355497248886 -0.1611974416634116
    outer loop
      vertex 0.16102735613901867 0.44615802499752577 -0.0444091805117715
      vertex -0.09282019118731584 0.46615373563858026 0.046008038487222312
      vertex -0.12464644609145287 0.49832809212823381 -0.12259978975312942
    endloop
  endfacet
  facet normal 0.0056254412901045707 0.25147997495659713 -0.96784615337672397
    outer loop
      vertex -0.065285111813263672 0.68058606425658752 -0.23068960521926565
      vertex -0.16936408814365517 0.82109637970401461 -0.19478509672094479
      vertex 0.1588272136381228 0.81756985894508893 -0.19379385287024531
    endloop
  endfacet
  facet normal 0.010418239559284777 0.8015002445691839 -0.59790368642451408
    outer loop
      vertex 0.1588272136381228 0.81756985894508893 -0.19379385287024531
      vertex -0.16936408814365517 0.82109637970401461 -0.19478509672094479
      vertex 0.060052345363956601 0.92953172983182586 -0.04542814001019338
    endloop
  endfacet
  facet normal -0.087423827475855712 0.97834640528070549 0.18760433274259286
    outer loop
      vertex 0.060052345363956601 0.92953172983182586 -0.04542814001019338
      vertex -0.24303912082948972 0.90249289143821843 -0.045663026400630399
      vertex -0.26938232186030819 0.8682929956753056 0.12041161144523076
    endloop
  endfacet
  facet normal -0.083476840893222118 0.97723734683918551 0.19503534289250551
    outer loop
      vertex 0.060052345363956601 0.92953172983182586 -0.04542814001019338
      vertex -0.26938232186030819 0.8682929956753056 0.12041161144523076
      vertex 0.061152658486074575 0.89473699605589563 0.12938409390058542
    endloop
  endfacet
  facet normal -0.067755000790618164 0.56877443790308146 0.81969805334397194
    outer loop
      vertex 0.061152658486074575 0.89473699605589563 0.12938409390058542
      vertex -0.26938232186030819 0.8682929956753056 0.12041161144523076
      vertex 0.16313913190244952 0.7819546497517792 0.21607187963045488
    endloop
  endfacet
  facet normal -0.076228392924624078 0.8588807781916229 -0.50647116498876965
    outer loop
      vertex -0.16936408814365517 0.82109637970401461 -0.19478509672094479
      vertex -0.24303912082948972 0.90249289143821843 -0.045663026400630399
      vertex 0.060052345363956601 0.92953172983182586 -0.04542814001019338
    endloop
  endfacet
  facet normal -0.043261447931299671 0.6364910535959748 0.77006985775004433
    outer loop
      vertex -0.26938232186030819 0.8682929956753056 0.12041161144523076
      vertex -0.28734398740601519 0.77177641522341234 0.19917705293356525
      vertex 0.16313913190244952 0.7819546497517792 0.21607187963045488
    endloop
  endfacet
  facet normal -0.042364775558145065 0.28606777183444054 0.95727240413039516
    outer loop
      vertex 0.16313913190244952 0.7819546497517792 0.21607187963045488
      vertex -0.28734398740601519 0.77177641522341234 0.19917705293356525
      vertex -0.13723871477360614 0.69077554094150306 0.23002607321265714
    endloop
  endfacet
  facet normal -0.24320921805262699 -0.43495937978917509 -0.86698305299910328
    outer loop
      vertex -0.00084708440812996993 0.57472651852964984 -0.19565699415376686
      vertex -0.12464644609145287 0.49832809212823381 -0.12259978975312942
      vertex -0.065285111813263672 0.68058606425658752 -0.23068960521926565
    endloop
  endfacet
  facet normal -0.44055064578448111 0.89052330655426215 0.11350492933146275
    outer loop
      vertex -0.24303912082948972 0.90249289143821843 -0.045663026400630399
      vertex -0.56990794671457479 0.74078766567867804 -0.045663026400630309
      vertex -0.26938232186030819 0.8682929956753056 0.12041161144523076
    endloop
  endfacet
  facet normal -0.33321676351728569 0.6325766529745348 0.69915189095260266
    outer loop
      vertex -0.26938232186030819 0.8682929956753056 0.12041161144523076
      vertex -0.55271341126582907 0.70761107702495285 0.13075694809014388
      vertex -0.28734398740601519 0.77177641522341234 0.19917705293356525
    endloop
  endfacet
  facet normal -0.32491885997368525 0.46659539851629944 0.82262778248538171
    outer loop
      vertex -0.28734398740601519 0.77177641522341234 0.19917705293356525
      vertex -0.55271341126582907 0.70761107702495285 0.13075694809014388
      vertex -0.44766773222866424 0.60917889643900491 0.22807839347503597
    endloop
  endfacet
  facet normal -0.069261006133951822 0.2403882843959857 0.968202657378334
    outer loop
      vertex -0.28734398740601519 0.77177641522341234 0.19917705293356525
      vertex -0.44766773222866424 0.60917889643900491 0.22807839347503597
      vertex -0.13723871477360614 0.69077554094150306 0.23002607321265714
    endloop
  endfacet
  facet normal 0.06381384489313266 -0.26573645898440656 0.96193135283469378
    outer loop
      vertex -0.13723871477360614 0.69077554094150306 0.23002607321265714
      vertex -0.44766773222866424 0.60917889643900491 0.22807839347503597
      vertex -0.15118020024781434 0.55956536560693637 0.19470373187886875
    endloop
  endfacet
  facet normal 0.44403816403431895 -0.66985514177722361 0.59508335375445243
    outer loop
      vertex -0.15118020024781434 0.55956536560693637 0.19470373187886875
      vertex -0.36079786420676557 0.36190350845124575 0.1286179164256841
      vertex -0.09282019118731584 0.46615373563858026 0.046008038487222312
    endloop
  endfacet
  facet normal 0.40513142968551952 -0.89553636946112813 0.18407372341903902
    outer loop
      vertex -0.09282019118731584 0.46615373563858026 0.046008038487222312
      vertex -0.36079786420676557 0.36190350845124575 0.1286179164256841
      vertex -0.31311414991972475 0.35703825944335621 1.2229571180099961e-16
    endloop
  endfacet
  facet normal 0.47062048680170326 -0.84931861807152154 -0.23911135982970141
    outer loop
      vertex -0.09282019118731584 0.46615373563858026 0.046008038487222312
      vertex -0.31311414991972475 0.35703825944335621 1.2229571180099961e-16
      vertex -0.33545819070423077 0.38006279084341782 -0.12576034264111413
    endloop
  endfacet
  facet normal 0.47649326526714442 -0.84266382673132445 -0.25074258368608837
    outer loop
      vertex -0.09282019118731584 0.46615373563858026 0.046008038487222312
      vertex -0.33545819070423077 0.38006279084341782 -0.12576034264111413
      vertex -0.12464644609145287 0.49832809212823381 -0.12259978975312942
    endloop
  endfacet
  facet normal 0.26711805371162706 -0.5544428552120827 -0.78818847091643385
    outer loop
      vertex -0.12464644609145287 0.49832809212823381 -0.12259978975312942
      vertex -0.41826778416948712 0.50773315746483294 -0.22872432052307617
      vertex -0.065285111813263672 0.68058606425658752 -0.23068960521926565
    endloop
  endfacet
  facet normal -0.086443876968055458 0.16535689642740661 -0.98243806570115533
    outer loop
      vertex -0.065285111813263672 0.68058606425658752 -0.23068960521926565
      vertex -0.41826778416948712 0.50773315746483294 -0.22872432052307617
      vertex -0.46580139155331857 0.69041699115428412 -0.19379385287024531
    endloop
  endfacet
  facet normal -0.085574246021480088 0.18669573542102028 -0.9786836827052241
    outer loop
      vertex -0.065285111813263672 0.68058606425658752 -0.23068960521926565
      vertex -0.46580139155331857 0.69041699115428412 -0.19379385287024531
      vertex -0.16936408814365517 0.82109637970401461 -0.19478509672094479
    endloop
  endfacet
  facet normal -0.34800144463046162 0.7855362680143092 -0.51169108470762215
    outer loop
      vertex -0.16936408814365517 0.82109637970401461 -0.19478509672094479
      vertex -0.46580139155331857 0.69041699115428412 -0.19379385287024531
      vertex -0.56990794671457479 0.74078766567867804 -0.045663026400630309
    endloop
  endfacet
  facet normal -0.36184131728783647 0.73142130059831745 -0.57800842739052594
    outer loop
      vertex -0.16936408814365517 0.82109637970401461 -0.19478509672094479
      vertex -0.56990794671457479 0.74078766567867804 -0.045663026400630309
      vertex -0.24303912082948972 0.90249289143821843 -0.045663026400630399
    endloop
  endfacet
  facet normal -0.47687913310869923 0.85421801682351006 0.20711801500498453
    outer loop
      vertex -0.56990794671457479 0.74078766567867804 -0.045663026400630309
      vertex -0.55271341126582907 0.70761107702495285 0.13075694809014388
      vertex -0.26938232186030819 0.8682929956753056 0.12041161144523076
    endloop
  endfacet
  facet normal 0.091686162163589213 -0.11728567101693659 0.98885677377556502
    outer loop
      vertex -0.44766773222866424 0.60917889643900491 0.22807839347503597
      vertex -0.51176163553888121 0.28788120301167341 0.19591287426058232
      vertex -0.15118020024781434 0.55956536560693637 0.19470373187886875
    endloop
  endfacet
  facet normal 0.544572618138214 -0.72085312567817472 0.42873235797417525
    outer loop
      vertex -0.15118020024781434 0.55956536560693637 0.19470373187886875
      vertex -0.51176163553888121 0.28788120301167341 0.19591287426058232
      vertex -0.36079786420676557 0.36190350845124575 0.1286179164256841
    endloop
  endfacet
  facet normal -0.39950168760374427 0.39268085598290187 0.82837198585315275
    outer loop
      vertex -0.55271341126582907 0.70761107702495285 0.13075694809014388
      vertex -0.7170233817375633 0.54044705694744077 0.13075694809014535
      vertex -0.44766773222866424 0.60917889643900491 0.22807839347503597
    endloop
  endfacet
  facet normal 0.1580877113027275 -0.12953414463718563 0.97889181266786485
    outer loop
      vertex -0.44766773222866424 0.60917889643900491 0.22807839347503597
      vertex -0.63599320768656975 0.39352537938028548 0.22995546456824345
      vertex -0.51176163553888121 0.28788120301167341 0.19591287426058232
    endloop
  endfacet
  facet normal 0.28376117293053804 -0.483686751944713 -0.82796541155428649
    outer loop
      vertex -0.12464644609145287 0.49832809212823381 -0.12259978975312942
      vertex -0.33545819070423077 0.38006279084341782 -0.12576034264111413
      vertex -0.41826778416948712 0.50773315746483294 -0.22872432052307617
    endloop
  endfacet
  facet normal -0.039595852678225379 0.17770873766254117 -0.98328621113543058
    outer loop
      vertex -0.41826778416948712 0.50773315746483294 -0.22872432052307617
      vertex -0.58588426846997699 0.4671352547896403 -0.22931182435543832
      vertex -0.46580139155331857 0.69041699115428412 -0.19379385287024531
    endloop
  endfacet
  facet normal -0.42530744866787096 0.36076983123706641 -0.83003536248572274
    outer loop
      vertex -0.46580139155331857 0.69041699115428412 -0.19379385287024531
      vertex -0.58588426846997699 0.4671352547896403 -0.22931182435543832
      vertex -0.72093831908767503 0.53474762886014948 -0.13072325550414768
    endloop
  endfacet
  facet normal -0.52390463332420012 0.62357305354771109 -0.58024183067977697
    outer loop
      vertex -0.46580139155331857 0.69041699115428412 -0.19379385287024531
      vertex -0.72093831908767503 0.53474762886014948 -0.13072325550414768
      vertex -0.56990794671457479 0.74078766567867804 -0.045663026400630309
    endloop
  endfacet
  facet normal -0.76593612211016182 0.63727631040167732 0.08497506132785132
    outer loop
      vertex -0.56990794671457479 0.74078766567867804 -0.045663026400630309
      vertex -0.84264353773122092 0.41257016090036941 -0.042518580189270933
      vertex -0.7170233817375633 0.54044705694744077 0.13075694809014535
    endloop
  endfacet
  facet normal -0.69913962619401648 0.68720297156225318 0.19737238652177252
    outer loop
      vertex -0.56990794671457479 0.74078766567867804 -0.045663026400630309
      vertex -0.7170233817375633 0.54044705694744077 0.13075694809014535
      vertex -0.55271341126582907 0.70761107702495285 0.13075694809014388
    endloop
  endfacet
  facet normal -0.39634855802966829 0.35349762526534373 0.84731767919686729
    outer loop
      vertex -0.7170233817375633 0.54044705694744077 0.13075694809014535
      vertex -0.63599320768656975 0.39352537938028548 0.22995546456824345
      vertex -0.44766773222866424 0.60917889643900491 0.22807839347503597
    endloop
  endfacet
  facet normal 0.77378671544427913 -0.58437100625661709 -0.24446808799633385
    outer loop
      vertex -0.31311414991972475 0.35703825944335621 1.2229571180099961e-16
      vertex -0.47500809924707532 0.19886146168264471 -0.13432204217561997
      vertex -0.33545819070423077 0.38006279084341782 -0.12576034264111413
    endloop
  endfacet
  facet normal -0.75797360550730075 0.62816191976090907 -0.1757515744354857
    outer loop
      vertex -0.56990794671457479 0.74078766567867804 -0.045663026400630309
      vertex -0.72093831908767503 0.53474762886014948 -0.13072325550414768
      vertex -0.84264353773122092 0.41257016090036941 -0.042518580189270933
    endloop
  endfacet
  facet normal -0.45207237477773332 0.31429600393540641 0.83477457428521129
    outer loop
      vertex -0.7170233817375633 0.54044705694744077 0.13075694809014535
      vertex -0.79895710196988967 0.33424970103757246 0.16401986045003858
      vertex -0.63599320768656975 0.39352537938028548 0.22995546456824345
    endloop
  endfacet
  facet normal 0.8208022813143695 -0.47170435866177851 0.32214688110954409
    outer loop
      vertex -0.36079786420676557 0.36190350845124575 0.1286179164256841
      vertex -0.44892989141494366 0.15215154790365212 0.046040848017640648
      vertex -0.31311414991972475 0.35703825944335621 1.2229571180099961e-16
    endloop
  endfacet
  facet normal 0.77663954001814484 -0.57342500874892122 -0.26079644211856895
    outer loop
      vertex -0.31311414991972475 0.35703825944335621 1.2229571180099961e-16
      vertex -0.44892989141494366 0.15215154790365212 0.046040848017640648
      vertex -0.47500809924707532 0.19886146168264471 -0.13432204217561997
    endloop
  endfacet
  facet normal 0.50163102628425515 -0.34892228612725557 -0.79159304678144715
    outer loop
      vertex -0.33545819070423077 0.38006279084341782 -0.12576034264111413
      vertex -0.47500809924707532 0.19886146168264471 -0.13432204217561997
      vertex -0.6308198228991605 0.18940767262597857 -0.22889255091982591
    endloop
  endfacet
  facet normal 0.49354715628996398 -0.32912546200223308 -0.80503890264999411
    outer loop
      vertex -0.33545819070423077 0.38006279084341782 -0.12576034264111413
      vertex -0.6308198228991605 0.18940767262597857 -0.22889255091982591
      vertex -0.41826778416948712 0.50773315746483294 -0.22872432052307617
    endloop
  endfacet
  facet normal 0.0040285290549421527 -0.0021614462486422357 -0.99998954949727736
    outer loop
      vertex -0.41826778416948712 0.50773315746483294 -0.22872432052307617
      vertex -0.6308198228991605 0.18940767262597857 -0.22889255091982591
      vertex -0.58588426846997699 0.4671352547896403 -0.22931182435543832
    endloop
  endfacet
  facet normal -0.44048391408287879 0.33478280531004317 -0.83300323811073207
    outer loop
      vertex -0.58588426846997699 0.4671352547896403 -0.22931182435543832
      vertex -0.77881174677053666 0.29147171165872504 -0.19789259833266803
      vertex -0.72093831908767503 0.53474762886014948 -0.13072325550414768
    endloop
  endfacet
  facet normal -0.85491455528596816 0.41112585973423477 0.31638051554730984
    outer loop
      vertex -0.84264353773122092 0.41257016090036941 -0.042518580189270933
      vertex -0.91346549698056145 0.18428513848255307 0.062757031528550833
      vertex -0.7170233817375633 0.54044705694744077 0.13075694809014535
    endloop
  endfacet
  facet normal -0.84196260533181988 0.39401631806127047 0.36857850225466748
    outer loop
      vertex -0.7170233817375633 0.54044705694744077 0.13075694809014535
      vertex -0.91346549698056145 0.18428513848255307 0.062757031528550833
      vertex -0.79895710196988967 0.33424970103757246 0.16401986045003858
    endloop
  endfacet
  facet normal 0.54457444062927207 -0.49528527912528769 0.67685387706291622
    outer loop
      vertex -0.51176163553888121 0.28788120301167341 0.19591287426058232
      vertex -0.44892989141494366 0.15215154790365212 0.046040848017640648
      vertex -0.36079786420676557 0.36190350845124575 0.1286179164256841
    endloop
  endfacet
  facet normal -0.18599627873907829 0.028610997992087783 -0.98213379693864111
    outer loop
      vertex -0.58588426846997699 0.4671352547896403 -0.22931182435543832
      vertex -0.6308198228991605 0.18940767262597857 -0.22889255091982591
      vertex -0.77881174677053666 0.29147171165872504 -0.19789259833266803
    endloop
  endfacet
  facet normal -0.75004058724205913 0.33576032884309093 -0.56982814871219423
    outer loop
      vertex -0.77881174677053666 0.29147171165872504 -0.19789259833266803
      vertex -0.84264353773122092 0.41257016090036941 -0.042518580189270933
      vertex -0.72093831908767503 0.53474762886014948 -0.13072325550414768
    endloop
  endfacet
  facet normal -0.41623984886722237 0.14607154289854624 0.89744498024682817
    outer loop
      vertex -0.79895710196988967 0.33424970103757246 0.16401986045003858
      vertex -0.83430230646862613 0.041410998437432837 0.19529009890271498
      vertex -0.63599320768656975 0.39352537938028548 0.22995546456824345
    endloop
  endfacet
  facet normal -0.19098688862119828 0.010931908094236213 0.98153171205020839
    outer loop
      vertex -0.63599320768656975 0.39352537938028548 0.22995546456824345
      vertex -0.83430230646862613 0.041410998437432837 0.19529009890271498
      vertex -0.65385818716574151 0.088599246142831725 0.22987543416172523
    endloop
  endfacet
  facet normal 0.25233766738449187 -0.01503786641930476 0.96752238433666682
    outer loop
      vertex -0.63599320768656975 0.39352537938028548 0.22995546456824345
      vertex -0.65385818716574151 0.088599246142831725 0.22987543416172523
      vertex -0.51176163553888121 0.28788120301167341 0.19591287426058232
    endloop
  endfacet
  facet normal 0.98403443414125602 -0.074586786612578379 -0.16159530836972832
    outer loop
      vertex -0.44892989141494366 0.15215154790365212 0.046040848017640648
      vertex -0.47913006391919016 0.048098709093692849 -0.089835886263503209
      vertex -0.47500809924707532 0.19886146168264471 -0.13432204217561997
    endloop
  endfacet
  facet normal -0.76266126065571715 0.15899984356687211 0.6269504376270445
    outer loop
      vertex -0.91346549698056145 0.18428513848255307 0.062757031528550833
      vertex -0.83430230646862613 0.041410998437432837 0.19529009890271498
      vertex -0.79895710196988967 0.33424970103757246 0.16401986045003858
    endloop
  endfacet
  facet normal -0.80501251784178951 0.25990907914346284 -0.53329364959356085
    outer loop
      vertex -0.77881174677053666 0.29147171165872504 -0.19789259833266803
      vertex -0.88636864990077269 0.081125781267113423 -0.13804970248194759
      vertex -0.84264353773122092 0.41257016090036941 -0.042518580189270933
    endloop
  endfacet
  facet normal -0.95484394500654912 0.19145078589784059 -0.22719955383633422
    outer loop
      vertex -0.84264353773122092 0.41257016090036941 -0.042518580189270933
      vertex -0.88636864990077269 0.081125781267113423 -0.13804970248194759
      vertex -0.91346549698056145 0.18428513848255307 0.062757031528550833
    endloop
  endfacet
  facet normal 0.42871142375780641 -0.15397345054872658 0.89022395590417225
    outer loop
      vertex -0.65385818716574151 0.088599246142831725 0.22987543416172523
      vertex -0.50464392268461555 -0.066137524937516373 0.13125394261635767
      vertex -0.51176163553888121 0.28788120301167341 0.19591287426058232
    endloop
  endfacet
  facet normal 0.89967328194431473 -0.060868032647797707 0.43229974364685014
    outer loop
      vertex -0.51176163553888121 0.28788120301167341 0.19591287426058232
      vertex -0.50464392268461555 -0.066137524937516373 0.13125394261635767
      vertex -0.44892989141494366 0.15215154790365212 0.046040848017640648
    endloop
  endfacet
  facet normal 0.96685115925912768 -0.25455969009810392 -0.019954949672656656
    outer loop
      vertex -0.44892989141494366 0.15215154790365212 0.046040848017640648
      vertex -0.50464392268461555 -0.066137524937516373 0.13125394261635767
      vertex -0.47913006391919016 0.048098709093692849 -0.089835886263503209
    endloop
  endfacet
  facet normal 0.69781728378361008 -0.22019803861435572 -0.6815892181095996
    outer loop
      vertex -0.47500809924707532 0.19886146168264471 -0.13432204217561997
      vertex -0.47913006391919016 0.048098709093692849 -0.089835886263503209
      vertex -0.65062034529986579 -0.066067749722151015 -0.22852594991171404
    endloop
  endfacet
  facet normal 0.52025295960230777 -0.041546037292115784 -0.85300104619535
    outer loop
      vertex -0.47500809924707532 0.19886146168264471 -0.13432204217561997
      vertex -0.65062034529986579 -0.066067749722151015 -0.22852594991171404
      vertex -0.6308198228991605 0.18940767262597857 -0.22889255091982591
    endloop
  endfacet
  facet normal -0.1890359047127477 0.013242178494461106 -0.98188088454667133
    outer loop
      vertex -0.6308198228991605 0.18940767262597857 -0.22889255091982591
      vertex -0.65062034529986579 -0.066067749722151015 -0.22852594991171404
      vertex -0.81611608665319102 -0.14140686259718238 -0.19768006657779974
    endloop
  endfacet
  facet normal -0.19424055706255436 0.01625758573669531 -0.98081919684416985
    outer loop
      vertex -0.6308198228991605 0.18940767262597857 -0.22889255091982591
      vertex -0.81611608665319102 -0.14140686259718238 -0.19768006657779974
      vertex -0.77881174677053666 0.29147171165872504 -0.19789259833266803
    endloop
  endfacet
  facet normal -0.55484611322752764 0.047407379535760276 -0.83060118649196379
    outer loop
      vertex -0.77881174677053666 0.29147171165872504 -0.19789259833266803
      vertex -0.81611608665319102 -0.14140686259718238 -0.19768006657779974
      vertex -0.88636864990077269 0.081125781267113423 -0.13804970248194759
    endloop
  endfacet
  facet normal -0.96540596942718271 0.15482618488602945 -0.20980983453594013
    outer loop
      vertex -0.88636864990077269 0.081125781267113423 -0.13804970248194759
      vertex -0.92941786099991386 -0.061789648018125774 -0.045428140010192859
      vertex -0.91346549698056145 0.18428513848255307 0.062757031528550833
    endloop
  endfacet
  facet normal -0.96113523552529267 -0.056499203484243768 0.27023489603932715
    outer loop
      vertex -0.92941786099991386 -0.061789648018125774 -0.045428140010192859
      vertex -0.87069921526948901 -0.2181512388908447 0.13072325550414798
      vertex -0.91346549698056145 0.18428513848255307 0.062757031528550833
    endloop
  endfacet
  facet normal -0.86117848465353963 -0.0056757828243709733 0.50827099372201412
    outer loop
      vertex -0.91346549698056145 0.18428513848255307 0.062757031528550833
      vertex -0.87069921526948901 -0.2181512388908447 0.13072325550414798
      vertex -0.83430230646862613 0.041410998437432837 0.19529009890271498
    endloop
  endfacet
  facet normal -0.20524762290207391 0.069334111906515436 0.97625109178898395
    outer loop
      vertex -0.83430230646862613 0.041410998437432837 0.19529009890271498
      vertex -0.73553859132405941 -0.14220476873763621 0.2290947770117461
      vertex -0.65385818716574151 0.088599246142831725 0.22987543416172523
    endloop
  endfacet
  facet normal -0.0020751974310956258 -0.0026479165351637763 0.99999434103081042
    outer loop
      vertex -0.65385818716574151 0.088599246142831725 0.22987543416172523
      vertex -0.73553859132405941 -0.14220476873763621 0.2290947770117461
      vertex -0.59050229688048761 -0.30702985074260175 0.22895931213074877
    endloop
  endfacet
  facet normal 0.61682160578673861 0.096968835075385312 0.78110700397499455
    outer loop
      vertex -0.65385818716574151 0.088599246142831725 0.22987543416172523
      vertex -0.59050229688048761 -0.30702985074260175 0.22895931213074877
      vertex -0.50464392268461555 -0.066137524937516373 0.13125394261635767
    endloop
  endfacet
  facet normal 0.96114396804991253 0.183853650297155 0.20591286495428099
    outer loop
      vertex -0.50464392268461555 -0.066137524937516373 0.13125394261635767
      vertex -0.4501110727256839 -0.15269222426694579 -0.046008038487222236
      vertex -0.47913006391919016 0.048098709093692849 -0.089835886263503209
    endloop
  endfacet
  facet normal -0.82427336741576285 -0.11147072074281389 -0.55511052429778029
    outer loop
      vertex -0.88636864990077269 0.081125781267113423 -0.13804970248194759
      vertex -0.81611608665319102 -0.14140686259718238 -0.19768006657779974
      vertex -0.92941786099991386 -0.061789648018125774 -0.045428140010192859
    endloop
  endfacet
  facet normal -0.96494217407595029 -0.23819897873245 0.1102172727860577
    outer loop
      vertex -0.92941786099991386 -0.061789648018125774 -0.045428140010192859
      vertex -0.85075758036937077 -0.38702423979297695 -0.059653908481326456
      vertex -0.87069921526948901 -0.2181512388908447 0.13072325550414798
    endloop
  endfacet
  facet normal -0.53327434579797039 -0.13303420110105199 0.83541628751847508
    outer loop
      vertex -0.83430230646862613 0.041410998437432837 0.19529009890271498
      vertex -0.87069921526948901 -0.2181512388908447 0.13072325550414798
      vertex -0.73553859132405941 -0.14220476873763621 0.2290947770117461
    endloop
  endfacet
  facet normal 0.92921117152934529 0.054511433019656809 -0.36550663793590016
    outer loop
      vertex -0.4501110727256839 -0.15269222426694579 -0.046008038487222236
      vertex -0.50086954007963969 -0.28865143747840571 -0.19532589155711988
      vertex -0.47913006391919016 0.048098709093692849 -0.089835886263503209
    endloop
  endfacet
  facet normal 0.5176602856571807 0.22515463943460215 -0.82542911082321313
    outer loop
      vertex -0.47913006391919016 0.048098709093692849 -0.089835886263503209
      vertex -0.50086954007963969 -0.28865143747840571 -0.19532589155711988
      vertex -0.65062034529986579 -0.066067749722151015 -0.22852594991171404
    endloop
  endfacet
  facet normal -0.16789449629698239 -0.034557240908945921 -0.98519908405049961
    outer loop
      vertex -0.65062034529986579 -0.066067749722151015 -0.22852594991171404
      vertex -0.56560644712534625 -0.4345603645340545 -0.23008835244938494
      vertex -0.81611608665319102 -0.14140686259718238 -0.19768006657779974
    endloop
  endfacet
  facet normal -0.8317441485762922 -0.17816496615752372 -0.52579360603109992
    outer loop
      vertex -0.81611608665319102 -0.14140686259718238 -0.19768006657779974
      vertex -0.85075758036937077 -0.38702423979297695 -0.059653908481326456
      vertex -0.92941786099991386 -0.061789648018125774 -0.045428140010192859
    endloop
  endfacet
  facet normal -0.95614840294618708 -0.26153273797072313 0.13183648399814404
    outer loop
      vertex -0.85075758036937077 -0.38702423979297695 -0.059653908481326456
      vertex -0.82317742257848225 -0.42957915430579696 0.055953092372311129
      vertex -0.87069921526948901 -0.2181512388908447 0.13072325550414798
    endloop
  endfacet
  facet normal -0.52284145444604446 -0.15518737085504211 0.83818476092079153
    outer loop
      vertex -0.87069921526948901 -0.2181512388908447 0.13072325550414798
      vertex -0.68816579836611158 -0.45385026338243839 0.20094467684108586
      vertex -0.73553859132405941 -0.14220476873763621 0.2290947770117461
    endloop
  endfacet
  facet normal -0.12133122169597052 -0.10757527107102999 0.98676557281644028
    outer loop
      vertex -0.73553859132405941 -0.14220476873763621 0.2290947770117461
      vertex -0.68816579836611158 -0.45385026338243839 0.20094467684108586
      vertex -0.59050229688048761 -0.30702985074260175 0.22895931213074877
    endloop
  endfacet
  facet normal 0.49673211911759113 0.16829404359682532 0.85143074687656017
    outer loop
      vertex -0.59050229688048761 -0.30702985074260175 0.22895931213074877
      vertex -0.44092045632330423 -0.254221974075858 0.13125394261635795
      vertex -0.50464392268461555 -0.066137524937516373 0.13125394261635767
    endloop
  endfacet
  facet normal 0.93864240193150461 0.31801431643499734 0.13348159363236911
    outer loop
      vertex -0.50464392268461555 -0.066137524937516373 0.13125394261635767
      vertex -0.44092045632330423 -0.254221974075858 0.13125394261635795
      vertex -0.4501110727256839 -0.15269222426694579 -0.046008038487222236
    endloop
  endfacet
  facet normal 0.32678380861905026 0.079384419859434466 -0.94175923478775037
    outer loop
      vertex -0.65062034529986579 -0.066067749722151015 -0.22852594991171404
      vertex -0.50086954007963969 -0.28865143747840571 -0.19532589155711988
      vertex -0.56560644712534625 -0.4345603645340545 -0.23008835244938494
    endloop
  endfacet
  facet normal -0.22601353393369059 -0.085865453670550526 -0.97033242053677415
    outer loop
      vertex -0.56560644712534625 -0.4345603645340545 -0.23008835244938494
      vertex -0.74530966005533972 -0.37169889517691279 -0.19379385287024486
      vertex -0.81611608665319102 -0.14140686259718238 -0.19768006657779974
    endloop
  endfacet
  facet normal -0.74946984013723195 -0.24084124403515728 -0.61667694451492994
    outer loop
      vertex -0.81611608665319102 -0.14140686259718238 -0.19768006657779974
      vertex -0.74530966005533972 -0.37169889517691279 -0.19379385287024486
      vertex -0.85075758036937077 -0.38702423979297695 -0.059653908481326456
    endloop
  endfacet
  facet normal -0.70971959442541688 -0.37125501990697973 0.59872181143039216
    outer loop
      vertex -0.82317742257848225 -0.42957915430579696 0.055953092372311129
      vertex -0.68816579836611158 -0.45385026338243839 0.20094467684108586
      vertex -0.87069921526948901 -0.2181512388908447 0.13072325550414798
    endloop
  endfacet
  facet normal -0.67954860991120514 -0.48339279318415762 0.55185604487526174
    outer loop
      vertex -0.82317742257848225 -0.42957915430579696 0.055953092372311129
      vertex -0.70088955118968188 -0.61350579294818808 0.045428140010192838
      vertex -0.68816579836611158 -0.45385026338243839 0.20094467684108586
    endloop
  endfacet
  facet normal 0.3860293522860388 0.42316443139293103 0.81970311892630898
    outer loop
      vertex -0.59050229688048761 -0.30702985074260175 0.22895931213074877
      vertex -0.35502047282485266 -0.45273063001658342 0.19327870054705706
      vertex -0.44092045632330423 -0.254221974075858 0.13125394261635795
    endloop
  endfacet
  facet normal 0.71810826966023866 0.61929569486014868 0.31747969285178462
    outer loop
      vertex -0.44092045632330423 -0.254221974075858 0.13125394261635795
      vertex -0.32835802001877518 -0.33910714522607405 0.042230940676561253
      vertex -0.4501110727256839 -0.15269222426694579 -0.046008038487222236
    endloop
  endfacet
  facet normal 0.85875329066605066 0.49006331263262892 -0.14960192305503195
    outer loop
      vertex -0.4501110727256839 -0.15269222426694579 -0.046008038487222236
      vertex -0.32835802001877518 -0.33910714522607405 0.042230940676561253
      vertex -0.33309594247166863 -0.3821239743378258 -0.12587970761736558
    endloop
  endfacet
  facet normal 0.55614513962532552 0.51164311445702437 -0.65492282530069401
    outer loop
      vertex -0.4501110727256839 -0.15269222426694579 -0.046008038487222236
      vertex -0.33309594247166863 -0.3821239743378258 -0.12587970761736558
      vertex -0.50086954007963969 -0.28865143747840571 -0.19532589155711988
    endloop
  endfacet
  facet normal -0.25312194834161555 -0.17415962590813913 -0.95162897390279244
    outer loop
      vertex -0.56560644712534625 -0.4345603645340545 -0.23008835244938494
      vertex -0.56732310112792828 -0.60798683746577309 -0.19789259833266781
      vertex -0.74530966005533972 -0.37169889517691279 -0.19379385287024486
    endloop
  endfacet
  facet normal -0.65901582158940386 -0.48646064564463171 -0.57363244951262238
    outer loop
      vertex -0.74530966005533972 -0.37169889517691279 -0.19379385287024486
      vertex -0.56732310112792828 -0.60798683746577309 -0.19789259833266781
      vertex -0.85075758036937077 -0.38702423979297695 -0.059653908481326456
    endloop
  endfacet
  facet normal -0.83286123644814014 -0.55345896021608043 -0.0050339029202229012
    outer loop
      vertex -0.85075758036937077 -0.38702423979297695 -0.059653908481326456
      vertex -0.70088955118968188 -0.61350579294818808 0.045428140010192838
      vertex -0.82317742257848225 -0.42957915430579696 0.055953092372311129
    endloop
  endfacet
  facet normal -0.66211923388966687 -0.4951584684364842 0.562508854373863
    outer loop
      vertex -0.70088955118968188 -0.61350579294818808 0.045428140010192838
      vertex -0.56939269291297001 -0.68412187303903238 0.1380497024819477
      vertex -0.68816579836611158 -0.45385026338243839 0.20094467684108586
    endloop
  endfacet
  facet normal 0.73771671222878654 0.47050379698109374 0.48414897451582334
    outer loop
      vertex -0.44092045632330423 -0.254221974075858 0.13125394261635795
      vertex -0.35502047282485266 -0.45273063001658342 0.19327870054705706
      vertex -0.32835802001877518 -0.33910714522607405 0.042230940676561253
    endloop
  endfacet
  facet normal -0.67248848530468919 -0.55956914900608123 -0.48439818807796431
    outer loop
      vertex -0.56732310112792828 -0.60798683746577309 -0.19789259833266781
      vertex -0.56395738257217809 -0.74339794748080112 -0.046140435684758604
      vertex -0.85075758036937077 -0.38702423979297695 -0.059653908481326456
    endloop
  endfacet
  facet normal -0.74931142184828814 -0.61256610751699136 -0.25158528774389521
    outer loop
      vertex -0.85075758036937077 -0.38702423979297695 -0.059653908481326456
      vertex -0.56395738257217809 -0.74339794748080112 -0.046140435684758604
      vertex -0.70088955118968188 -0.61350579294818808 0.045428140010192838
    endloop
  endfacet
  facet normal -0.58250663027869987 -0.7786011484514882 0.23338011335882405
    outer loop
      vertex -0.70088955118968188 -0.61350579294818808 0.045428140010192838
      vertex -0.56395738257217809 -0.74339794748080112 -0.046140435684758604
      vertex -0.56939269291297001 -0.68412187303903238 0.1380497024819477
    endloop
  endfacet
  facet normal -0.35659948638685851 -0.41284358739621829 0.83809127107639647
    outer loop
      vertex -0.56939269291297001 -0.68412187303903238 0.1380497024819477
      vertex -0.34460144357125 -0.75680469124712191 0.1978925983326682
      vertex -0.68816579836611158 -0.45385026338243839 0.20094467684108586
    endloop
  endfacet
  facet normal -0.11771816970528717 -0.14339733887183115 0.98263911774654811
    outer loop
      vertex -0.68816579836611158 -0.45385026338243839 0.20094467684108586
      vertex -0.34460144357125 -0.75680469124712191 0.1978925983326682
      vertex -0.27463413921388513 -0.60173244891348676 0.22890435976302553
    endloop
  endfacet
  facet normal -0.10834634708148232 -0.11631188503223321 0.98728547769849606
    outer loop
      vertex -0.68816579836611158 -0.45385026338243839 0.20094467684108586
      vertex -0.27463413921388513 -0.60173244891348676 0.22890435976302553
      vertex -0.59050229688048761 -0.30702985074260175 0.22895931213074877
    endloop
  endfacet
  facet normal 0.37537200692621764 0.40217553438639581 0.83507526364825369
    outer loop
      vertex -0.59050229688048761 -0.30702985074260175 0.22895931213074877
      vertex -0.27463413921388513 -0.60173244891348676 0.22890435976302553
      vertex -0.35502047282485266 -0.45273063001658342 0.19327870054705706
    endloop
  endfacet
  facet normal 0.56920357659670395 0.623240958848017 -0.5362629910815444
    outer loop
      vertex -0.33309594247166863 -0.3821239743378258 -0.12587970761736558
      vertex -0.24502324910588394 -0.52339875947739833 -0.19658557603959959
      vertex -0.50086954007963969 -0.28865143747840571 -0.19532589155711988
    endloop
  endfacet
  facet normal 0.14803803429404669 0.16657480199047439 -0.97485259180257045
    outer loop
      vertex -0.50086954007963969 -0.28865143747840571 -0.19532589155711988
      vertex -0.24502324910588394 -0.52339875947739833 -0.19658557603959959
      vertex -0.56560644712534625 -0.4345603645340545 -0.23008835244938494
    endloop
  endfacet
  facet normal -0.58295431583687507 -0.77829911460470269 0.23326970196040619
    outer loop
      vertex -0.56395738257217809 -0.74339794748080112 -0.046140435684758604
      vertex -0.39155933800741277 -0.84192672108458066 0.055953092372311296
      vertex -0.56939269291297001 -0.68412187303903238 0.1380497024819477
    endloop
  endfacet
  facet normal -0.38616903251747581 -0.72912762073403814 0.56501892977778823
    outer loop
      vertex -0.56939269291297001 -0.68412187303903238 0.1380497024819477
      vertex -0.39155933800741277 -0.84192672108458066 0.055953092372311296
      vertex -0.34460144357125 -0.75680469124712191 0.1978925983326682
    endloop
  endfacet
  facet normal 0.4216101847524652 0.68733132638338568 0.59145625356829878
    outer loop
      vertex -0.35502047282485266 -0.45273063001658342 0.19327870054705706
      vertex -0.15269222426694626 -0.45011107272568379 0.046008038487222208
      vertex -0.32835802001877518 -0.33910714522607405 0.042230940676561253
    endloop
  endfacet
  facet normal 0.52394753510566361 0.82150161144588973 -0.22497573835528509
    outer loop
      vertex -0.32835802001877518 -0.33910714522607405 0.042230940676561253
      vertex -0.15269222426694626 -0.45011107272568379 0.046008038487222208
      vertex -0.33309594247166863 -0.3821239743378258 -0.12587970761736558
    endloop
  endfacet
  facet normal -0.51366030140398622 -0.64580943385548384 -0.5648745612123327
    outer loop
      vertex -0.56732310112792828 -0.60798683746577309 -0.19789259833266781
      vertex -0.39440874227005623 -0.80544129753321925 -0.12938409390058481
      vertex -0.56395738257217809 -0.74339794748080112 -0.046140435684758604
    endloop
  endfacet
  facet normal 0.39787842986082744 0.91576537046692275 -0.05537636052561018
    outer loop
      vertex -0.15269222426694626 -0.45011107272568379 0.046008038487222208
      vertex -0.09676377244204791 -0.48243794906261378 -0.086740109247945493
      vertex -0.33309594247166863 -0.3821239743378258 -0.12587970761736558
    endloop
  endfacet
  facet normal 0.369254691711214 0.58968534257820715 -0.71827722322072751
    outer loop
      vertex -0.33309594247166863 -0.3821239743378258 -0.12587970761736558
      vertex -0.09676377244204791 -0.48243794906261378 -0.086740109247945493
      vertex -0.24502324910588394 -0.52339875947739833 -0.19658557603959959
    endloop
  endfacet
  facet normal 0.1553901913457483 0.19557727929965751 -0.96829923900376758
    outer loop
      vertex -0.24502324910588394 -0.52339875947739833 -0.19658557603959959
      vertex -0.21660750031364992 -0.71194621993599516 -0.23010834398754368
      vertex -0.56560644712534625 -0.4345603645340545 -0.23008835244938494
    endloop
  endfacet
  facet normal -0.14256230523449617 -0.17929765861060895 -0.97341067322224273
    outer loop
      vertex -0.56560644712534625 -0.4345603645340545 -0.23008835244938494
      vertex -0.21660750031364992 -0.71194621993599516 -0.23010834398754368
      vertex -0.56732310112792828 -0.60798683746577309 -0.19789259833266781
    endloop
  endfacet
  facet normal -0.22205762873334328 -0.48744687517680463 -0.8444441683152849
    outer loop
      vertex -0.56732310112792828 -0.60798683746577309 -0.19789259833266781
      vertex -0.21660750031364992 -0.71194621993599516 -0.23010834398754368
      vertex -0.39440874227005623 -0.80544129753321925 -0.12938409390058481
    endloop
  endfacet
  facet normal -0.41117311677563112 -0.89556880203774292 -0.16997996604804738
    outer loop
      vertex -0.39440874227005623 -0.80544129753321925 -0.12938409390058481
      vertex -0.39155933800741277 -0.84192672108458066 0.055953092372311296
      vertex -0.56395738257217809 -0.74339794748080112 -0.046140435684758604
    endloop
  endfacet
  facet normal -0.2435552292271449 -0.79412536674624656 0.5568175214612523
    outer loop
      vertex -0.39155933800741277 -0.84192672108458066 0.055953092372311296
      vertex -0.18257440339129127 -0.91340139488297944 0.045428140010193088
      vertex -0.34460144357125 -0.75680469124712191 0.1978925983326682
    endloop
  endfacet
  facet normal -0.10753477298341232 -0.14808631772711023 0.98311073389594894
    outer loop
      vertex -0.34460144357125 -0.75680469124712191 0.1978925983326682
      vertex -0.072330786976244316 -0.74064464254369522 0.2301083439875436
      vertex -0.27463413921388513 -0.60173244891348676 0.22890435976302553
    endloop
  endfacet
  facet normal 0.16727895665344944 0.31372078433597655 0.93466412156268908
    outer loop
      vertex -0.27463413921388513 -0.60173244891348676 0.22890435976302553
      vertex 0.0023452993494051068 -0.54341102316079537 0.15975708702937608
      vertex -0.35502047282485266 -0.45273063001658342 0.19327870054705706
    endloop
  endfacet
  facet normal 0.26090613460077344 0.88985744954001855 0.37427491022751763
    outer loop
      vertex -0.35502047282485266 -0.45273063001658342 0.19327870054705706
      vertex 0.0023452993494051068 -0.54341102316079537 0.15975708702937608
      vertex -0.15269222426694626 -0.45011107272568379 0.046008038487222208
    endloop
  endfacet
  facet normal -0.18162304334242943 -0.53999115748360194 -0.82184099433318214
    outer loop
      vertex -0.21660750031364992 -0.71194621993599516 -0.23010834398754368
      vertex -0.17250604275915093 -0.88007704490153715 -0.12938409390058428
      vertex -0.39440874227005623 -0.80544129753321925 -0.12938409390058481
    endloop
  endfacet
  facet normal -0.31266178943108486 -0.92958799978627082 -0.19521464105725364
    outer loop
      vertex -0.39440874227005623 -0.80544129753321925 -0.12938409390058481
      vertex -0.17250604275915093 -0.88007704490153715 -0.12938409390058428
      vertex -0.18257440339129127 -0.91340139488297944 0.045428140010193088
    endloop
  endfacet
  facet normal -0.32645554413352179 -0.92835159203101025 -0.17773603820827932
    outer loop
      vertex -0.39440874227005623 -0.80544129753321925 -0.12938409390058481
      vertex -0.18257440339129127 -0.91340139488297944 0.045428140010193088
      vertex -0.39155933800741277 -0.84192672108458066 0.055953092372311296
    endloop
  endfacet
  facet normal -0.22863862631382303 -0.79018516742067757 0.5686227042122779
    outer loop
      vertex -0.18257440339129127 -0.91340139488297944 0.045428140010193088
      vertex -0.035262585812561691 -0.88937468254663599 0.13804970248194717
      vertex -0.34460144357125 -0.75680469124712191 0.1978925983326682
    endloop
  endfacet
  facet normal -0.06759092459330264 -0.53722549289945121 0.84072601761308896
    outer loop
      vertex -0.34460144357125 -0.75680469124712191 0.1978925983326682
      vertex -0.035262585812561691 -0.88937468254663599 0.13804970248194717
      vertex -0.072330786976244316 -0.74064464254369522 0.2301083439875436
    endloop
  endfacet
  facet normal 0.16122314078515174 0.83353168535105937 -0.52842409898791864
    outer loop
      vertex -0.09676377244204791 -0.48243794906261378 -0.086740109247945493
      vertex 0.023777092161561143 -0.57356306331624596 -0.19370285637764928
      vertex -0.24502324910588394 -0.52339875947739833 -0.19658557603959959
    endloop
  endfacet
  facet normal 0.044381182598497104 0.18135702595981854 -0.9824153601029294
    outer loop
      vertex -0.24502324910588394 -0.52339875947739833 -0.19658557603959959
      vertex 0.023777092161561143 -0.57356306331624596 -0.19370285637764928
      vertex -0.21660750031364992 -0.71194621993599516 -0.23010834398754368
    endloop
  endfacet
  facet normal -0.065978924997073959 -0.52547610420161772 -0.84824621742116901
    outer loop
      vertex -0.21660750031364992 -0.71194621993599516 -0.23010834398754368
      vertex 0.060770235851558552 -0.74662018098700533 -0.23020353672559618
      vertex -0.17250604275915093 -0.88007704490153715 -0.12938409390058428
    endloop
  endfacet
  facet normal -0.014487192078897648 -0.96201941758133469 0.27259633427861596
    outer loop
      vertex -0.18257440339129127 -0.91340139488297944 0.045428140010193088
      vertex 0.060951562251698198 -0.92994113575468396 4.7704895589362195e-17
      vertex -0.035262585812561691 -0.88937468254663599 0.13804970248194717
    endloop
  endfacet
  facet normal -0.00062635514241273665 0.0077547838878423529 0.99996973504506048
    outer loop
      vertex -0.072330786976244316 -0.74064464254369522 0.2301083439875436
      vertex 0.17795482620622199 -0.63834557156023319 0.22947178521560602
      vertex -0.27463413921388513 -0.60173244891348676 0.22890435976302553
    endloop
  endfacet
  facet normal 0.051758219453736348 0.65153296706836972 0.75685261414760641
    outer loop
      vertex -0.27463413921388513 -0.60173244891348676 0.22890435976302553
      vertex 0.17795482620622199 -0.63834557156023319 0.22947178521560602
      vertex 0.0023452993494051068 -0.54341102316079537 0.15975708702937608
    endloop
  endfacet
  facet normal 0.052674678270220696 0.80611850823107567 0.58940506356531575
    outer loop
      vertex 0.0023452993494051068 -0.54341102316079537 0.15975708702937608
      vertex 0.092820191187315784 -0.46615373563858031 0.046008038487222444
      vertex -0.15269222426694626 -0.45011107272568379 0.046008038487222208
    endloop
  endfacet
  facet normal 0.063740848781404832 0.97547207919249546 -0.21069249372603696
    outer loop
      vertex -0.15269222426694626 -0.45011107272568379 0.046008038487222208
      vertex 0.092820191187315784 -0.46615373563858031 0.046008038487222444
      vertex -0.09676377244204791 -0.48243794906261378 -0.086740109247945493
    endloop
  endfacet
  facet normal 0.026122172906857269 0.2116490859618532 -0.97699656933590939
    outer loop
      vertex 0.023777092161561143 -0.57356306331624596 -0.19370285637764928
      vertex 0.060770235851558552 -0.74662018098700533 -0.23020353672559618
      vertex -0.21660750031364992 -0.71194621993599516 -0.23010834398754368
    endloop
  endfacet
  facet normal -0.035285686519988438 -0.56240348947919927 -0.82610969934291012
    outer loop
      vertex 0.060770235851558552 -0.74662018098700533 -0.23020353672559618
      vertex 0.061152658486073666 -0.89473699605589641 -0.12938409390058472
      vertex -0.17250604275915093 -0.88007704490153715 -0.12938409390058428
    endloop
  endfacet
  facet normal -0.060427780331443505 -0.9631325863714193 -0.26215282648431509
    outer loop
      vertex -0.17250604275915093 -0.88007704490153715 -0.12938409390058428
      vertex 0.061152658486073666 -0.89473699605589641 -0.12938409390058472
      vertex 0.060951562251698198 -0.92994113575468396 4.7704895589362195e-17
    endloop
  endfacet
  facet normal -0.10210009912541647 -0.97607930500884199 -0.1919498895337946
    outer loop
      vertex -0.17250604275915093 -0.88007704490153715 -0.12938409390058428
      vertex 0.060951562251698198 -0.92994113575468396 4.7704895589362195e-17
      vertex -0.18257440339129127 -0.91340139488297944 0.045428140010193088
    endloop
  endfacet
  facet normal 0.069404581550227037 -0.94299969329484645 0.32547593229863203
    outer loop
      vertex 0.060951562251698198 -0.92994113575468396 4.7704895589362195e-17
      vertex 0.23555138136594148 -0.88629383521310667 0.089227376766033289
      vertex -0.035262585812561691 -0.88937468254663599 0.13804970248194717
    endloop
  endfacet
  facet normal 0.11791950561986522 -0.78792867166289005 0.60437024957050978
    outer loop
      vertex -0.035262585812561691 -0.88937468254663599 0.13804970248194717
      vertex 0.23555138136594148 -0.88629383521310667 0.089227376766033289
      vertex 0.15882721363812263 -0.81756985894508849 0.19379385287024564
    endloop
  endfacet
  facet normal -0.045007877094521816 -0.53385653879180095 0.84437638940740323
    outer loop
      vertex -0.035262585812561691 -0.88937468254663599 0.13804970248194717
      vertex 0.15882721363812263 -0.81756985894508849 0.19379385287024564
      vertex -0.072330786976244316 -0.74064464254369522 0.2301083439875436
    endloop
  endfacet
  facet normal 0.085574741394445861 -0.20329848625679786 0.97537002676982443
    outer loop
      vertex -0.072330786976244316 -0.74064464254369522 0.2301083439875436
      vertex 0.15882721363812263 -0.81756985894508849 0.19379385287024564
      vertex 0.17795482620622199 -0.63834557156023319 0.22947178521560602
    endloop
  endfacet
  facet normal -0.03594536485144241 0.99683227283919829 -0.070946110336896004
    outer loop
      vertex 0.092820191187315784 -0.46615373563858031 0.046008038487222444
      vertex 0.17534019782997184 -0.47526808094292194 -0.12386294153202047
      vertex -0.09676377244204791 -0.48243794906261378 -0.086740109247945493
    endloop
  endfacet
  facet normal -0.11588493068588064 0.6878193893414658 -0.71657181809352621
    outer loop
      vertex -0.09676377244204791 -0.48243794906261378 -0.086740109247945493
      vertex 0.17534019782997184 -0.47526808094292194 -0.12386294153202047
      vertex 0.023777092161561143 -0.57356306331624596 -0.19370285637764928
    endloop
  endfacet
  facet normal 0.22895203212744814 -0.97303588006404673 0.027966821283405382
    outer loop
      vertex 0.060951562251698198 -0.92994113575468396 4.7704895589362195e-17
      vertex 0.38125853206625959 -0.85543677775093308 -0.030018359124017922
      vertex 0.23555138136594148 -0.88629383521310667 0.089227376766033289
    endloop
  endfacet
  facet normal -0.11228162871759495 0.18203479777816081 -0.97686036271843291
    outer loop
      vertex 0.023777092161561143 -0.57356306331624596 -0.19370285637764928
      vertex 0.35082645137334922 -0.56073759595193584 -0.22890435976302548
      vertex 0.060770235851558552 -0.74662018098700533 -0.23020353672559618
    endloop
  endfacet
  facet normal 0.096967473634743603 -0.58120466955095551 -0.80795943038562268
    outer loop
      vertex 0.060770235851558552 -0.74662018098700533 -0.23020353672559618
      vertex 0.30497592420442626 -0.7294845099927092 -0.21322164860964371
      vertex 0.29064390711501675 -0.84842209955184522 -0.12938409390058467
    endloop
  endfacet
  facet normal 0.11279503197957118 -0.55890166408704156 -0.82152675588897484
    outer loop
      vertex 0.060770235851558552 -0.74662018098700533 -0.23020353672559618
      vertex 0.29064390711501675 -0.84842209955184522 -0.12938409390058467
      vertex 0.061152658486073666 -0.89473699605589641 -0.12938409390058472
    endloop
  endfacet
  facet normal 0.19193828941376606 -0.95105810488890341 -0.24217385115252466
    outer loop
      vertex 0.061152658486073666 -0.89473699605589641 -0.12938409390058472
      vertex 0.29064390711501675 -0.84842209955184522 -0.12938409390058467
      vertex 0.38125853206625959 -0.85543677775093308 -0.030018359124017922
    endloop
  endfacet
  facet normal 0.19600632825593761 -0.94627993567819324 -0.25716882123713969
    outer loop
      vertex 0.061152658486073666 -0.89473699605589641 -0.12938409390058472
      vertex 0.38125853206625959 -0.85543677775093308 -0.030018359124017922
      vertex 0.060951562251698198 -0.92994113575468396 4.7704895589362195e-17
    endloop
  endfacet
  facet normal 0.25563325507602569 -0.71112882947623723 0.65494078112986087
    outer loop
      vertex 0.23555138136594148 -0.88629383521310667 0.089227376766033289
      vertex 0.41339519509939787 -0.72569760788528692 0.19418620073714932
      vertex 0.15882721363812263 -0.81756985894508849 0.19379385287024564
    endloop
  endfacet
  facet normal 0.071418894198085919 -0.20206531352590856 0.97676453181982337
    outer loop
      vertex 0.15882721363812263 -0.81756985894508849 0.19379385287024564
      vertex 0.41339519509939787 -0.72569760788528692 0.19418620073714932
      vertex 0.17795482620622199 -0.63834557156023319 0.22947178521560602
    endloop
  endfacet
  facet normal -0.17455705969430788 0.35230698727814513 0.91946159225161495
    outer loop
      vertex 0.17795482620622199 -0.63834557156023319 0.22947178521560602
      vertex 0.33029943456222932 -0.46951274875156118 0.19370285637764906
      vertex 0.0023452993494051068 -0.54341102316079537 0.15975708702937608
    endloop
  endfacet
  facet normal -0.24067809425861281 0.88113729884040826 0.40702716805671757
    outer loop
      vertex 0.0023452993494051068 -0.54341102316079537 0.15975708702937608
      vertex 0.33029943456222932 -0.46951274875156118 0.19370285637764906
      vertex 0.092820191187315784 -0.46615373563858031 0.046008038487222444
    endloop
  endfacet
  facet normal -0.10487290650221262 0.67838155783913123 -0.72718645165152229
    outer loop
      vertex 0.023777092161561143 -0.57356306331624596 -0.19370285637764928
      vertex 0.17534019782997184 -0.47526808094292194 -0.12386294153202047
      vertex 0.35082645137334922 -0.56073759595193584 -0.22890435976302548
    endloop
  endfacet
  facet normal 0.4367321236674277 -0.84239118617353792 0.31566143510742395
    outer loop
      vertex 0.38125853206625959 -0.85543677775093308 -0.030018359124017922
      vertex 0.60528555984426413 -0.69414730236600997 0.090455758575793854
      vertex 0.23555138136594148 -0.88629383521310667 0.089227376766033289
    endloop
  endfacet
  facet normal 0.39756292048306724 -0.76821054786850262 0.50179306332446372
    outer loop
      vertex 0.23555138136594148 -0.88629383521310667 0.089227376766033289
      vertex 0.60528555984426413 -0.69414730236600997 0.090455758575793854
      vertex 0.41339519509939787 -0.72569760788528692 0.19418620073714932
    endloop
  endfacet
  facet normal -0.35557135511630455 0.7263184513605131 0.58824358783927322
    outer loop
      vertex 0.33029943456222932 -0.46951274875156118 0.19370285637764906
      vertex 0.30637868161675141 -0.36289700232558897 0.047602635054938391
      vertex 0.092820191187315784 -0.46615373563858031 0.046008038487222444
    endloop
  endfacet
  facet normal -0.41986773213012502 0.87225484979727497 -0.25076396176691529
    outer loop
      vertex 0.092820191187315784 -0.46615373563858031 0.046008038487222444
      vertex 0.30637868161675141 -0.36289700232558897 0.047602635054938391
      vertex 0.17534019782997184 -0.47526808094292194 -0.12386294153202047
    endloop
  endfacet
  facet normal 0.0768122283236852 -0.11293614302950312 -0.99062874437276949
    outer loop
      vertex 0.060770235851558552 -0.74662018098700533 -0.23020353672559618
      vertex 0.35082645137334922 -0.56073759595193584 -0.22890435976302548
      vertex 0.30497592420442626 -0.7294845099927092 -0.21322164860964371
    endloop
  endfacet
  facet normal 0.29210557141210586 -0.57427796939189035 -0.76477392020199964
    outer loop
      vertex 0.30497592420442626 -0.7294845099927092 -0.21322164860964371
      vertex 0.56252402099395959 -0.63323721097870322 -0.18712435369101221
      vertex 0.29064390711501675 -0.84842209955184522 -0.12938409390058467
    endloop
  endfacet
  facet normal 0.4764830571312258 -0.73249229885137224 -0.48622929610453658
    outer loop
      vertex 0.29064390711501675 -0.84842209955184522 -0.12938409390058467
      vertex 0.56252402099395959 -0.63323721097870322 -0.18712435369101221
      vertex 0.38125853206625959 -0.85543677775093308 -0.030018359124017922
    endloop
  endfacet
  facet normal 0.55652872700517153 -0.82760625455590675 0.073100365511720403
    outer loop
      vertex 0.38125853206625959 -0.85543677775093308 -0.030018359124017922
      vertex 0.61481476885913433 -0.69974161012515768 -0.045428140010193178
      vertex 0.60528555984426413 -0.69414730236600997 0.090455758575793854
    endloop
  endfacet
  facet normal 0.092911729715214622 -0.14734570512363851 0.98471145705884044
    outer loop
      vertex 0.41339519509939787 -0.72569760788528692 0.19418620073714932
      vertex 0.52691489935420988 -0.41254387807016613 0.23033338354636207
      vertex 0.17795482620622199 -0.63834557156023319 0.22947178521560602
    endloop
  endfacet
  facet normal -0.28578393811729352 0.43840676244998467 0.85213088862703112
    outer loop
      vertex 0.17795482620622199 -0.63834557156023319 0.22947178521560602
      vertex 0.52691489935420988 -0.41254387807016613 0.23033338354636207
      vertex 0.33029943456222932 -0.46951274875156118 0.19370285637764906
    endloop
  endfacet
  facet normal -0.550365849704612 0.82613698454882578 -0.12081024062344096
    outer loop
      vertex 0.30637868161675141 -0.36289700232558897 0.047602635054938391
      vertex 0.38406816665389043 -0.33722981953912945 -0.13080136733165729
      vertex 0.17534019782997184 -0.47526808094292194 -0.12386294153202047
    endloop
  endfacet
  facet normal -0.30642774605130113 0.42042330727347016 -0.85401772765625683
    outer loop
      vertex 0.17534019782997184 -0.47526808094292194 -0.12386294153202047
      vertex 0.38406816665389043 -0.33722981953912945 -0.13080136733165729
      vertex 0.35082645137334922 -0.56073759595193584 -0.22890435976302548
    endloop
  endfacet
  facet normal 0.14843181514297854 -0.13142227642169088 -0.98015110136830497
    outer loop
      vertex 0.35082645137334922 -0.56073759595193584 -0.22890435976302548
      vertex 0.56252402099395959 -0.63323721097870322 -0.18712435369101221
      vertex 0.30497592420442626 -0.7294845099927092 -0.21322164860964371
    endloop
  endfacet
  facet normal 0.45345587280471611 -0.73073005235366439 -0.51030516556872507
    outer loop
      vertex 0.56252402099395959 -0.63323721097870322 -0.18712435369101221
      vertex 0.61481476885913433 -0.69974161012515768 -0.045428140010193178
      vertex 0.38125853206625959 -0.85543677775093308 -0.030018359124017922
    endloop
  endfacet
  facet normal 0.46346542238085398 -0.55940633448828259 0.68721492649077442
    outer loop
      vertex 0.60528555984426413 -0.69414730236600997 0.090455758575793854
      vertex 0.62371109611482223 -0.55193389697570527 0.19379385287024586
      vertex 0.41339519509939787 -0.72569760788528692 0.19418620073714932
    endloop
  endfacet
  facet normal 0.1356723355492975 -0.16200483505625804 0.97741876940490235
    outer loop
      vertex 0.41339519509939787 -0.72569760788528692 0.19418620073714932
      vertex 0.62371109611482223 -0.55193389697570527 0.19379385287024586
      vertex 0.52691489935420988 -0.41254387807016613 0.23033338354636207
    endloop
  endfacet
  facet normal -0.42455512220381963 0.4160935231859621 -0.80412631356845499
    outer loop
      vertex 0.38406816665389043 -0.33722981953912945 -0.13080136733165729
      vertex 0.54318823184773524 -0.36128435107231682 -0.22725906581621419
      vertex 0.35082645137334922 -0.56073759595193584 -0.22890435976302548
    endloop
  endfacet
  facet normal 0.75007060685240767 -0.65654631931968754 0.07963049242489853
    outer loop
      vertex 0.61481476885913433 -0.69974161012515768 -0.045428140010193178
      vertex 0.80027790026022827 -0.48605422595759251 -0.030544117503130866
      vertex 0.60528555984426413 -0.69414730236600997 0.090455758575793854
    endloop
  endfacet
  facet normal -0.2910970709078502 0.46821721270279182 0.8342872029689169
    outer loop
      vertex 0.33029943456222932 -0.46951274875156118 0.19370285637764906
      vertex 0.52691489935420988 -0.41254387807016613 0.23033338354636207
      vertex 0.42445372922247071 -0.21869366355074107 0.085790649099365582
    endloop
  endfacet
  facet normal -0.73935883367657584 0.4804825230903183 0.47168322004198449
    outer loop
      vertex 0.33029943456222932 -0.46951274875156118 0.19370285637764906
      vertex 0.42445372922247071 -0.21869366355074107 0.085790649099365582
      vertex 0.30637868161675141 -0.36289700232558897 0.047602635054938391
    endloop
  endfacet
  facet normal -0.72483481450035847 0.65224005217885295 -0.2218048827730317
    outer loop
      vertex 0.30637868161675141 -0.36289700232558897 0.047602635054938391
      vertex 0.42445372922247071 -0.21869366355074107 0.085790649099365582
      vertex 0.38406816665389043 -0.33722981953912945 -0.13080136733165729
    endloop
  endfacet
  facet normal -0.048349189535074624 0.054857094920448102 -0.99732294419019085
    outer loop
      vertex 0.35082645137334922 -0.56073759595193584 -0.22890435976302548
      vertex 0.54318823184773524 -0.36128435107231682 -0.22725906581621419
      vertex 0.69589622221265346 -0.28556176972372194 -0.23049712100768957
    endloop
  endfacet
  facet normal 0.13337928015264913 -0.17290573492395966 -0.97586555142415321
    outer loop
      vertex 0.35082645137334922 -0.56073759595193584 -0.22890435976302548
      vertex 0.69589622221265346 -0.28556176972372194 -0.23049712100768957
      vertex 0.56252402099395959 -0.63323721097870322 -0.18712435369101221
    endloop
  endfacet
  facet normal 0.66959810735416125 -0.54609210607141012 -0.50341015714248083
    outer loop
      vertex 0.56252402099395959 -0.63323721097870322 -0.18712435369101221
      vertex 0.80027790026022827 -0.48605422595759251 -0.030544117503130866
      vertex 0.61481476885913433 -0.69974161012515768 -0.045428140010193178
    endloop
  endfacet
  facet normal 0.77669276874419235 -0.55898983398891833 0.29030795455433533
    outer loop
      vertex 0.80027790026022827 -0.48605422595759251 -0.030544117503130866
      vertex 0.80322708838897494 -0.39889871424863471 0.129384093900584
      vertex 0.60528555984426413 -0.69414730236600997 0.090455758575793854
    endloop
  endfacet
  facet normal 0.63868378300885187 -0.50476302837726372 0.58077302838967615
    outer loop
      vertex 0.60528555984426413 -0.69414730236600997 0.090455758575793854
      vertex 0.80322708838897494 -0.39889871424863471 0.129384093900584
      vertex 0.62371109611482223 -0.55193389697570527 0.19379385287024586
    endloop
  endfacet
  facet normal 0.50033268559819744 -0.23633321040361158 0.83295487115594535
    outer loop
      vertex 0.62371109611482223 -0.55193389697570527 0.19379385287024586
      vertex 0.80322708838897494 -0.39889871424863471 0.129384093900584
      vertex 0.71214641460531714 -0.23883904675700704 0.22950722911793969
    endloop
  endfacet
  facet normal 0.14809449222494958 -0.1532749247403658 0.97702344844863864
    outer loop
      vertex 0.62371109611482223 -0.55193389697570527 0.19379385287024586
      vertex 0.71214641460531714 -0.23883904675700704 0.22950722911793969
      vertex 0.52691489935420988 -0.41254387807016613 0.23033338354636207
    endloop
  endfacet
  facet normal 0.47964638198760984 -0.28742261070327191 -0.82905222459306593
    outer loop
      vertex 0.69589622221265346 -0.28556176972372194 -0.23049712100768957
      vertex 0.80544129753322147 -0.39440874227005168 -0.12938409390058489
      vertex 0.56252402099395959 -0.63323721097870322 -0.18712435369101221
    endloop
  endfacet
  facet normal 0.66857693163344833 -0.56239655197820659 -0.486533662566762
    outer loop
      vertex 0.56252402099395959 -0.63323721097870322 -0.18712435369101221
      vertex 0.80544129753322147 -0.39440874227005168 -0.12938409390058489
      vertex 0.80027790026022827 -0.48605422595759251 -0.030544117503130866
    endloop
  endfacet
  facet normal -0.68733445549299044 0.16426221269927077 0.70752333655597111
    outer loop
      vertex 0.52691489935420988 -0.41254387807016613 0.23033338354636207
      vertex 0.50389352938695808 -0.088361192162438359 0.1327050191826159
      vertex 0.42445372922247071 -0.21869366355074107 0.085790649099365582
    endloop
  endfacet
  facet normal -0.89581070825071696 0.43841564209038508 -0.07290335900234092
    outer loop
      vertex 0.42445372922247071 -0.21869366355074107 0.085790649099365582
      vertex 0.49461628348717135 -0.11021056562568775 -0.12396210584959987
      vertex 0.38406816665389043 -0.33722981953912945 -0.13080136733165729
    endloop
  endfacet
  facet normal -0.47262777702638975 0.25555675559125479 -0.84339417181692977
    outer loop
      vertex 0.38406816665389043 -0.33722981953912945 -0.13080136733165729
      vertex 0.49461628348717135 -0.11021056562568775 -0.12396210584959987
      vertex 0.54318823184773524 -0.36128435107231682 -0.22725906581621419
    endloop
  endfacet
  facet normal 0.92330735094906213 -0.33402432376226743 0.18955549799091864
    outer loop
      vertex 0.80027790026022827 -0.48605422595759251 -0.030544117503130866
      vertex 0.91374105305143272 -0.18086682646720514 -0.045428140010192353
      vertex 0.87910037336433777 -0.17741610214894901 0.12938409390058397
    endloop
  endfacet
  facet normal 0.93426870849032173 -0.32005237472522546 0.15718924189832498
    outer loop
      vertex 0.80027790026022827 -0.48605422595759251 -0.030544117503130866
      vertex 0.87910037336433777 -0.17741610214894901 0.12938409390058397
      vertex 0.80322708838897494 -0.39889871424863471 0.129384093900584
    endloop
  endfacet
  facet normal 0.55545607167307109 -0.19028255273772018 0.80948199644287133
    outer loop
      vertex 0.80322708838897494 -0.39889871424863471 0.129384093900584
      vertex 0.87910037336433777 -0.17741610214894901 0.12938409390058397
      vertex 0.71214641460531714 -0.23883904675700704 0.22950722911793969
    endloop
  endfacet
  facet normal -0.049758170024378878 0.057802245440490257 0.9970872704722803
    outer loop
      vertex 0.71214641460531714 -0.23883904675700704 0.22950722911793969
      vertex 0.61791627528825677 0.0035985762606915838 0.21075043737354324
      vertex 0.52691489935420988 -0.41254387807016613 0.23033338354636207
    endloop
  endfacet
  facet normal -0.64902427190707179 0.17674842278258834 0.73995100481002307
    outer loop
      vertex 0.52691489935420988 -0.41254387807016613 0.23033338354636207
      vertex 0.61791627528825677 0.0035985762606915838 0.21075043737354324
      vertex 0.50389352938695808 -0.088361192162438359 0.1327050191826159
    endloop
  endfacet
  facet normal -0.73811332800050766 0.12961257515665514 -0.66210973062572909
    outer loop
      vertex 0.49461628348717135 -0.11021056562568775 -0.12396210584959987
      vertex 0.57737513046058542 -0.00052492546144263658 -0.19474911820379659
      vertex 0.54318823184773524 -0.36128435107231682 -0.22725906581621419
    endloop
  endfacet
  facet normal -0.068654915646838191 0.095991546482937853 -0.99301164422243282
    outer loop
      vertex 0.54318823184773524 -0.36128435107231682 -0.22725906581621419
      vertex 0.57737513046058542 -0.00052492546144263658 -0.19474911820379659
      vertex 0.69589622221265346 -0.28556176972372194 -0.23049712100768957
    endloop
  endfacet
  facet normal 0.50984264647225186 -0.25120129448593753 -0.8227748084906098
    outer loop
      vertex 0.69589622221265346 -0.28556176972372194 -0.23049712100768957
      vertex 0.81756985894508938 -0.15882721363812283 -0.19379385287024509
      vertex 0.80544129753322147 -0.39440874227005168 -0.12938409390058489
    endloop
  endfacet
  facet normal 0.80999929966786488 -0.19309516296191037 -0.55372862719772908
    outer loop
      vertex 0.80544129753322147 -0.39440874227005168 -0.12938409390058489
      vertex 0.81756985894508938 -0.15882721363812283 -0.19379385287024509
      vertex 0.91374105305143272 -0.18086682646720514 -0.045428140010192353
    endloop
  endfacet
  facet normal 0.89680025159356824 -0.34681218896375715 -0.27471915537122604
    outer loop
      vertex 0.80544129753322147 -0.39440874227005168 -0.12938409390058489
      vertex 0.91374105305143272 -0.18086682646720514 -0.045428140010192353
      vertex 0.80027790026022827 -0.48605422595759251 -0.030544117503130866
    endloop
  endfacet
  facet normal 0.53036952287378636 -0.063580349424161284 0.84537903237171297
    outer loop
      vertex 0.87910037336433777 -0.17741610214894901 0.12938409390058397
      vertex 0.7564136541348857 0.10960949606938392 0.22794164190993668
      vertex 0.71214641460531714 -0.23883904675700704 0.22950722911793969
    endloop
  endfacet
  facet normal -0.83829960965457129 0.36525519362499548 0.40477451498699901
    outer loop
      vertex 0.50389352938695808 -0.088361192162438359 0.1327050191826159
      vertex 0.47239555481340922 0.029519249797450013 -0.038899617153754534
      vertex 0.42445372922247071 -0.21869366355074107 0.085790649099365582
    endloop
  endfacet
  facet normal -0.95276486187597109 0.032322294758638626 -0.30198408440842939
    outer loop
      vertex 0.42445372922247071 -0.21869366355074107 0.085790649099365582
      vertex 0.47239555481340922 0.029519249797450013 -0.038899617153754534
      vertex 0.49461628348717135 -0.11021056562568775 -0.12396210584959987
    endloop
  endfacet
  facet normal 0.98658205929461706 -0.039159633985226115 0.15850035755207503
    outer loop
      vertex 0.91374105305143272 -0.18086682646720514 -0.045428140010192353
      vertex 0.92575558799105007 0.11924492507840322 -0.046065730224905073
      vertex 0.89506442067697845 0.056157124118218049 0.1293840939005845
    endloop
  endfacet
  facet normal 0.97847781341953943 -0.066876098589877489 0.1952146410572573
    outer loop
      vertex 0.91374105305143272 -0.18086682646720514 -0.045428140010192353
      vertex 0.89506442067697845 0.056157124118218049 0.1293840939005845
      vertex 0.87910037336433777 -0.17741610214894901 0.12938409390058397
    endloop
  endfacet
  facet normal 0.56893298406626169 -0.038884906547325376 0.82146407327664939
    outer loop
      vertex 0.87910037336433777 -0.17741610214894901 0.12938409390058397
      vertex 0.89506442067697845 0.056157124118218049 0.1293840939005845
      vertex 0.7564136541348857 0.10960949606938392 0.22794164190993668
    endloop
  endfacet
  facet normal 0.30258717139608599 -0.014504732056168501 -0.95301134119930309
    outer loop
      vertex 0.69589622221265346 -0.28556176972372194 -0.23049712100768957
      vertex 0.80649478254131557 0.15085720263332869 -0.20202362431465604
      vertex 0.81756985894508938 -0.15882721363812283 -0.19379385287024509
    endloop
  endfacet
  facet normal 0.61177984828732357 0.00085742807781776528 -0.79102761143125122
    outer loop
      vertex 0.81756985894508938 -0.15882721363812283 -0.19379385287024509
      vertex 0.80649478254131557 0.15085720263332869 -0.20202362431465604
      vertex 0.88937468254663565 0.035262585812561364 -0.13804970248194806
    endloop
  endfacet
  facet normal 0.82036988214941664 -0.14460419078789769 -0.55324757972243266
    outer loop
      vertex 0.81756985894508938 -0.15882721363812283 -0.19379385287024509
      vertex 0.88937468254663565 0.035262585812561364 -0.13804970248194806
      vertex 0.91374105305143272 -0.18086682646720514 -0.045428140010192353
    endloop
  endfacet
  facet normal 0.940712607397168 -0.038376069659450417 -0.33702680540502195
    outer loop
      vertex 0.91374105305143272 -0.18086682646720514 -0.045428140010192353
      vertex 0.88937468254663565 0.035262585812561364 -0.13804970248194806
      vertex 0.92575558799105007 0.11924492507840322 -0.046065730224905073
    endloop
  endfacet
endsolid line_w_1e_02
