solid standard_w_0e_00
  facet normal 0.85009660684086208 0.030811670360398769 0.52572464276202091
    outer loop
      vertex 0.90910850771971285 -0.12284785569505512 0.088744112293873426
      vertex 0.92638064425958733 0.11202821700588925 0.047049455033973273
      vertex 0.84098093046511047 -0.052823822454831491 0.19480241790037411
    endloop
  endfacet
  facet normal 0.20756944143550585 0.017877918119380283 0.97805690377700882
    outer loop
      vertex 0.76919119759130705 -0.22030991242861434 0.21309957145759301
      vertex 0.84098093046511047 -0.052823822454831491 0.19480241790037411
      vertex 0.6593357177520357 0.12876404808585074 0.23003306974508902
    endloop
  endfacet
  facet normal -0.72890336398249922 -0.064835641430178573 0.68153959941835629
    outer loop
      vertex 0.54102370038004288 0.038448105822121291 0.16192045267046928
      vertex 0.45707800585544089 0.1905673991644859 0.086612213476628591
      vertex 0.48314092308679141 -0.095049593543326594 0.087315308527845165
    endloop
  endfacet
  facet normal -0.99573809135286306 -0.090900729871601249 -0.015579176414923571
    outer loop
      vertex 0.48314092308679141 -0.095049593543326594 0.087315308527845165
      vertex 0.45707800585544089 0.1905673991644859 0.086612213476628591
      vertex 0.47638287305933036 0.0018661628310885159 -0.046226099533269213
    endloop
  endfacet
  facet normal -0.99111610382770077 0.0066440189761929171 -0.13283345115309667
    outer loop
      vertex 0.47638287305933036 0.0018661628310885159 -0.046226099533269213
      vertex 0.49324561489755792 0.2393984347140318 -0.16016401153756138
      vertex 0.48675504650336721 -0.17205447719496034 -0.13231556017359861
    endloop
  endfacet
  facet normal -0.46248827312077068 -0.052608278203794039 -0.88506325553047305
    outer loop
      vertex 0.48675504650336721 -0.17205447719496034 -0.13231556017359861
      vertex 0.49324561489755792 0.2393984347140318 -0.16016401153756138
      vertex 0.60244709613352854 0.1526896841830585 -0.21207307693072486
    endloop
  endfacet
  facet normal 0.78971744815913325 0.12853164084140328 0.59985495694846358
    outer loop
      vertex 0.92638064425958733 0.11202821700588925 0.047049455033973273
      vertex 0.81833089429654127 0.36135096648599446 0.13587577897791109
      vertex 0.84098093046511047 -0.052823822454831491 0.19480241790037411
    endloop
  endfacet
  facet normal -0.38013817381756337 -0.18541231334690439 0.9061551980019743
    outer loop
      vertex 0.6593357177520357 0.12876404808585074 0.23003306974508902
      vertex 0.48083061893708096 0.3270709162014146 0.19572540679805522
      vertex 0.54102370038004288 0.038448105822121291 0.16192045267046928
    endloop
  endfacet
  facet normal -0.8110020883582344 -0.20522339113763155 -0.54786765957533345
    outer loop
      vertex 0.47638287305933036 0.0018661628310885159 -0.046226099533269213
      vertex 0.42276025588802746 0.21621875491426701 -0.047142582425651933
      vertex 0.49324561489755792 0.2393984347140318 -0.16016401153756138
    endloop
  endfacet
  facet normal 0.97563736584299465 0.1904411728145908 -0.1089214857957129
    outer loop
      vertex 0.90910850771971219 0.12284785569505505 -0.088744112293875452
      vertex 0.87700985091326489 0.3176706006632467 -0.035626740393431736
      vertex 0.92638064425958733 0.11202821700588925 0.047049455033973273
    endloop
  endfacet
  facet normal 0.91967064580408375 0.3150424292830924 0.23442305986764017
    outer loop
      vertex 0.87700985091326489 0.3176706006632467 -0.035626740393431736
      vertex 0.81833089429654127 0.36135096648599446 0.13587577897791109
      vertex 0.92638064425958733 0.11202821700588925 0.047049455033973273
    endloop
  endfacet
  facet normal 0.45248840883733155 0.14981842511430954 0.87909537557885487
    outer loop
      vertex 0.81833089429654127 0.36135096648599446 0.13587577897791109
      vertex 0.61489204333622682 0.52021107897118546 0.21351644459484903
      vertex 0.84098093046511047 -0.052823822454831491 0.19480241790037411
    endloop
  endfacet
  facet normal 0.2567635403342059 0.069824756466118965 0.96394864372511646
    outer loop
      vertex 0.84098093046511047 -0.052823822454831491 0.19480241790037411
      vertex 0.61489204333622682 0.52021107897118546 0.21351644459484903
      vertex 0.6593357177520357 0.12876404808585074 0.23003306974508902
    endloop
  endfacet
  facet normal -0.84829463952540729 -0.23262924525685447 0.47568880458098389
    outer loop
      vertex 0.54102370038004288 0.038448105822121291 0.16192045267046928
      vertex 0.48083061893708096 0.3270709162014146 0.19572540679805522
      vertex 0.45707800585544089 0.1905673991644859 0.086612213476628591
    endloop
  endfacet
  facet normal -0.95099381766824498 -0.23705251865533969 0.19853680302638244
    outer loop
      vertex 0.45707800585544089 0.1905673991644859 0.086612213476628591
      vertex 0.42276025588802746 0.21621875491426701 -0.047142582425651933
      vertex 0.47638287305933036 0.0018661628310885159 -0.046226099533269213
    endloop
  endfacet
  facet normal 0.7896208391920736 0.25661836291453388 -0.55735621116900635
    outer loop
      vertex 0.82141783403251822 0.13765894973647957 -0.1972664752394232
      vertex 0.7474084633274356 0.43909178988933922 -0.16333151553957448
      vertex 0.87700985091326489 0.3176706006632467 -0.035626740393431736
    endloop
  endfacet
  facet normal 0.76439650957308936 0.2837838996555162 -0.57893408471844676
    outer loop
      vertex 0.82141783403251822 0.13765894973647957 -0.1972664752394232
      vertex 0.87700985091326489 0.3176706006632467 -0.035626740393431736
      vertex 0.90910850771971219 0.12284785569505505 -0.088744112293875452
    endloop
  endfacet
  facet normal 0.8833086585938944 0.42700959888905521 0.19346476710156651
    outer loop
      vertex 0.87700985091326489 0.3176706006632467 -0.035626740393431736
      vertex 0.73448125384680929 0.57890580635568933 0.038530449582554409
      vertex 0.81833089429654127 0.36135096648599446 0.13587577897791109
    endloop
  endfacet
  facet normal 0.11127573988297584 0.054502518771203254 0.99229390059653755
    outer loop
      vertex 0.61489204333622682 0.52021107897118546 0.21351644459484903
      vertex 0.44205198177302085 0.57299980326717503 0.22999925002697169
      vertex 0.6593357177520357 0.12876404808585074 0.23003306974508902
    endloop
  endfacet
  facet normal -0.38100667491808904 -0.18628830592382326 0.90561061209765736
    outer loop
      vertex 0.6593357177520357 0.12876404808585074 0.23003306974508902
      vertex 0.44205198177302085 0.57299980326717503 0.22999925002697169
      vertex 0.48083061893708096 0.3270709162014146 0.19572540679805522
    endloop
  endfacet
  facet normal 0.38802912094408987 0.21438384091718737 -0.89636653778069553
    outer loop
      vertex 0.66788678024248971 0.27868616383128297 -0.22999925002697169
      vertex 0.5202110789711849 0.61489204333622749 -0.21351644459484898
      vertex 0.82141783403251822 0.13765894973647957 -0.1972664752394232
    endloop
  endfacet
  facet normal 0.34900343019911073 0.18902081255085434 -0.9178604132066428
    outer loop
      vertex 0.82141783403251822 0.13765894973647957 -0.1972664752394232
      vertex 0.5202110789711849 0.61489204333622749 -0.21351644459484898
      vertex 0.7474084633274356 0.43909178988933922 -0.16333151553957448
    endloop
  endfacet
  facet normal 0.8055786715770924 0.40626563443423358 -0.4312670149429893
    outer loop
      vertex 0.7474084633274356 0.43909178988933922 -0.16333151553957448
      vertex 0.72588713463430588 0.56094361769221657 -0.088744112293875729
      vertex 0.87700985091326489 0.3176706006632467 -0.035626740393431736
    endloop
  endfacet
  facet normal 0.8547311499773258 0.50286677095158105 -0.12868438884017086
    outer loop
      vertex 0.87700985091326489 0.3176706006632467 -0.035626740393431736
      vertex 0.72588713463430588 0.56094361769221657 -0.088744112293875729
      vertex 0.73448125384680929 0.57890580635568933 0.038530449582554409
    endloop
  endfacet
  facet normal 0.68752554114849873 0.50043056021254606 0.52619187058887695
    outer loop
      vertex 0.81833089429654127 0.36135096648599446 0.13587577897791109
      vertex 0.73448125384680929 0.57890580635568933 0.038530449582554409
      vertex 0.61757364474555687 0.6082958197434768 0.16333151553957603
    endloop
  endfacet
  facet normal 0.5782973624919574 0.39049547823313596 0.71629982689815042
    outer loop
      vertex 0.81833089429654127 0.36135096648599446 0.13587577897791109
      vertex 0.61757364474555687 0.6082958197434768 0.16333151553957603
      vertex 0.61489204333622682 0.52021107897118546 0.21351644459484903
    endloop
  endfacet
  facet normal -0.67123370856988784 -0.54380721947097876 -0.503705287376217
    outer loop
      vertex 0.49324561489755792 0.2393984347140318 -0.16016401153756138
      vertex 0.31880616834733488 0.48791493116701745 -0.19600923443373669
      vertex 0.60244709613352854 0.1526896841830585 -0.21207307693072486
    endloop
  endfacet
  facet normal -0.13762453199286417 -0.069098998474037193 -0.9880712608934793
    outer loop
      vertex 0.60244709613352854 0.1526896841830585 -0.21207307693072486
      vertex 0.31880616834733488 0.48791493116701745 -0.19600923443373669
      vertex 0.66788678024248971 0.27868616383128297 -0.22999925002697169
    endloop
  endfacet
  facet normal -0.46671929610895574 -0.50123318342806644 0.72865519587122074
    outer loop
      vertex 0.48083061893708096 0.3270709162014146 0.19572540679805522
      vertex 0.25560584351754995 0.44702586706118375 0.13397967710637626
      vertex 0.45707800585544089 0.1905673991644859 0.086612213476628591
    endloop
  endfacet
  facet normal -0.77595966646272063 -0.62513885545083314 0.08419030483782329
    outer loop
      vertex 0.45707800585544089 0.1905673991644859 0.086612213476628591
      vertex 0.25560584351754995 0.44702586706118375 0.13397967710637626
      vertex 0.31023165573056749 0.35492771968206283 -0.046405741926275959
    endloop
  endfacet
  facet normal -0.77401193987453643 -0.62833731507209489 0.078087997923163024
    outer loop
      vertex 0.45707800585544089 0.1905673991644859 0.086612213476628591
      vertex 0.31023165573056749 0.35492771968206283 -0.046405741926275959
      vertex 0.42276025588802746 0.21621875491426701 -0.047142582425651933
    endloop
  endfacet
  facet normal -0.66311902667045997 -0.53517996025207948 -0.52331211204424133
    outer loop
      vertex 0.42276025588802746 0.21621875491426701 -0.047142582425651933
      vertex 0.31023165573056749 0.35492771968206283 -0.046405741926275959
      vertex 0.49324561489755792 0.2393984347140318 -0.16016401153756138
    endloop
  endfacet
  facet normal 0.53745314562456781 0.50092541837515236 -0.67839357417647728
    outer loop
      vertex 0.5202110789711849 0.61489204333622749 -0.21351644459484898
      vertex 0.47737823619968545 0.7280003265012206 -0.16393141127054478
      vertex 0.7474084633274356 0.43909178988933922 -0.16333151553957448
    endloop
  endfacet
  facet normal 0.54296084486025287 0.50609039632845565 -0.67012389279352447
    outer loop
      vertex 0.7474084633274356 0.43909178988933922 -0.16333151553957448
      vertex 0.47737823619968545 0.7280003265012206 -0.16393141127054478
      vertex 0.72588713463430588 0.56094361769221657 -0.088744112293875729
    endloop
  endfacet
  facet normal 0.61595484251869015 0.66645092125930017 0.42005095111236879
    outer loop
      vertex 0.73448125384680929 0.57890580635568933 0.038530449582554409
      vertex 0.51922387678145965 0.77350002171023124 0.045437539517300153
      vertex 0.61757364474555687 0.6082958197434768 0.16333151553957603
    endloop
  endfacet
  facet normal -0.66308963684758893 -0.54017956083359442 -0.51818739425323523
    outer loop
      vertex 0.31023165573056749 0.35492771968206283 -0.046405741926275959
      vertex 0.31880616834733488 0.48791493116701745 -0.19600923443373669
      vertex 0.49324561489755792 0.2393984347140318 -0.16016401153756138
    endloop
  endfacet
  facet normal -0.3057651255778488 -0.36745328322165388 -0.87834262826643539
    outer loop
      vertex 0.31880616834733488 0.48791493116701745 -0.19600923443373669
      vertex 0.14072948027878293 0.71735519883097254 -0.23000387138485345
      vertex 0.66788678024248971 0.27868616383128297 -0.22999925002697169
    endloop
  endfacet
  facet normal 0.063989402140739879 0.076886854528645035 -0.99498430541107619
    outer loop
      vertex 0.66788678024248971 0.27868616383128297 -0.22999925002697169
      vertex 0.14072948027878293 0.71735519883097254 -0.23000387138485345
      vertex 0.5202110789711849 0.61489204333622749 -0.21351644459484898
    endloop
  endfacet
  facet normal 0.58854362934888993 0.67574904163612315 -0.44382387168864351
    outer loop
      vertex 0.47737823619968545 0.7280003265012206 -0.16393141127054478
      vertex 0.45596843762015304 0.79602930747019141 -0.088744112293874522
      vertex 0.72588713463430588 0.56094361769221657 -0.088744112293875729
    endloop
  endfacet
  facet normal 0.64604439016671977 0.74176977838079272 -0.18001178243387511
    outer loop
      vertex 0.72588713463430588 0.56094361769221657 -0.088744112293875729
      vertex 0.45596843762015304 0.79602930747019141 -0.088744112293874522
      vertex 0.51922387678145965 0.77350002171023124 0.045437539517300153
    endloop
  endfacet
  facet normal 0.66054739856179778 0.73595807690637705 -0.14846832419579847
    outer loop
      vertex 0.72588713463430588 0.56094361769221657 -0.088744112293875729
      vertex 0.51922387678145965 0.77350002171023124 0.045437539517300153
      vertex 0.73448125384680929 0.57890580635568933 0.038530449582554409
    endloop
  endfacet
  facet normal 0.47539195346703533 0.68073090807128633 0.55732209840920344
    outer loop
      vertex 0.51922387678145965 0.77350002171023124 0.045437539517300153
      vertex 0.33156765036346075 0.83449760240818749 0.13100264037109746
      vertex 0.61757364474555687 0.6082958197434768 0.16333151553957603
    endloop
  endfacet
  facet normal 0.27643260639683676 0.46937230924866324 0.83861472049519192
    outer loop
      vertex 0.61757364474555687 0.6082958197434768 0.16333151553957603
      vertex 0.33156765036346075 0.83449760240818749 0.13100264037109746
      vertex 0.61489204333622682 0.52021107897118546 0.21351644459484903
    endloop
  endfacet
  facet normal -0.073855235908068986 -0.14906845571873847 0.98606490640251165
    outer loop
      vertex 0.44205198177302085 0.57299980326717503 0.22999925002697169
      vertex 0.11339750433880036 0.61528928923106463 0.21177648854271264
      vertex 0.48083061893708096 0.3270709162014146 0.19572540679805522
    endloop
  endfacet
  facet normal -0.50668233000558682 -0.67575576153924832 0.53537572526835764
    outer loop
      vertex 0.48083061893708096 0.3270709162014146 0.19572540679805522
      vertex 0.11339750433880036 0.61528928923106463 0.21177648854271264
      vertex 0.25560584351754995 0.44702586706118375 0.13397967710637626
    endloop
  endfacet
  facet normal -0.49935628630585405 -0.82350338688525437 0.26923125954342797
    outer loop
      vertex 0.25560584351754995 0.44702586706118375 0.13397967710637626
      vertex 0.15887350316617055 0.44710099593303748 -0.045204691918694931
      vertex 0.31023165573056749 0.35492771968206283 -0.046405741926275959
    endloop
  endfacet
  facet normal -0.41233350149757109 -0.66903724294763556 -0.61836093917046453
    outer loop
      vertex 0.31023165573056749 0.35492771968206283 -0.046405741926275959
      vertex 0.15887350316617055 0.44710099593303748 -0.045204691918694931
      vertex 0.31880616834733488 0.48791493116701745 -0.19600923443373669
    endloop
  endfacet
  facet normal 0.3709236801278234 0.91450245076445213 0.16155770197128602
    outer loop
      vertex 0.51922387678145965 0.77350002171023124 0.045437539517300153
      vertex 0.2453718557173715 0.90075373876626397 -0.046143588912738662
      vertex 0.33156765036346075 0.83449760240818749 0.13100264037109746
    endloop
  endfacet
  facet normal 0.2585410109963388 0.4565717583528876 0.85129241457183413
    outer loop
      vertex 0.33156765036346075 0.83449760240818749 0.13100264037109746
      vertex 0.13795967352073527 0.82442645220672928 0.19520361748596871
      vertex 0.61489204333622682 0.52021107897118546 0.21351644459484903
    endloop
  endfacet
  facet normal 0.19845148052576173 0.36585652592527701 0.90926674431380161
    outer loop
      vertex 0.61489204333622682 0.52021107897118546 0.21351644459484903
      vertex 0.13795967352073527 0.82442645220672928 0.19520361748596871
      vertex 0.44205198177302085 0.57299980326717503 0.22999925002697169
    endloop
  endfacet
  facet normal -0.25520844423754147 -0.95707755401384276 0.13737250668432024
    outer loop
      vertex 0.25560584351754995 0.44702586706118375 0.13397967710637626
      vertex 0.095049593543325803 0.48314092308679168 0.087315308527845456
      vertex 0.15887350316617055 0.44710099593303748 -0.045204691918694931
    endloop
  endfacet
  facet normal 0.43572665015281736 0.89842376517345568 -0.054562116144404357
    outer loop
      vertex 0.45596843762015304 0.79602930747019141 -0.088744112293874522
      vertex 0.2453718557173715 0.90075373876626397 -0.046143588912738662
      vertex 0.51922387678145965 0.77350002171023124 0.045437539517300153
    endloop
  endfacet
  facet normal -0.051238625607906943 -0.18517110355539868 -0.98136958667664476
    outer loop
      vertex 0.31880616834733488 0.48791493116701745 -0.19600923443373669
      vertex 0.0043832306837895416 0.5802835334377382 -0.19702149000426286
      vertex 0.14072948027878293 0.71735519883097254 -0.23000387138485345
    endloop
  endfacet
  facet normal 0.13734880669805979 0.36021067106045884 -0.92270449102233865
    outer loop
      vertex 0.14072948027878293 0.71735519883097254 -0.23000387138485345
      vertex 0.042869521126446285 0.83070064818569311 -0.20032232975685699
      vertex 0.5202110789711849 0.61489204333622749 -0.21351644459484898
    endloop
  endfacet
  facet normal 0.17987121964007782 0.45129095244938344 -0.87406110803680037
    outer loop
      vertex 0.5202110789711849 0.61489204333622749 -0.21351644459484898
      vertex 0.042869521126446285 0.83070064818569311 -0.20032232975685699
      vertex 0.47737823619968545 0.7280003265012206 -0.16393141127054478
    endloop
  endfacet
  facet normal 0.22770549475613458 0.73851161604133153 -0.63462650482774885
    outer loop
      vertex 0.47737823619968545 0.7280003265012206 -0.16393141127054478
      vertex 0.042869521126446285 0.83070064818569311 -0.20032232975685699
      vertex 0.2453718557173715 0.90075373876626397 -0.046143588912738662
    endloop
  endfacet
  facet normal 0.25085137819877601 0.75227629303843924 -0.60922406796524287
    outer loop
      vertex 0.47737823619968545 0.7280003265012206 -0.16393141127054478
      vertex 0.2453718557173715 0.90075373876626397 -0.046143588912738662
      vertex 0.45596843762015304 0.79602930747019141 -0.088744112293874522
    endloop
  endfacet
  facet normal 0.26050858910049346 0.93901869891341672 0.22445301979662494
    outer loop
      vertex 0.2453718557173715 0.90075373876626397 -0.046143588912738662
      vertex 0.062911056689068712 0.92948260701960472 0.045437539517300556
      vertex 0.33156765036346075 0.83449760240818749 0.13100264037109746
    endloop
  endfacet
  facet normal 0.130266752538548 0.84120019646926769 0.52479786836755171
    outer loop
      vertex 0.33156765036346075 0.83449760240818749 0.13100264037109746
      vertex 0.062911056689068712 0.92948260701960472 0.045437539517300556
      vertex 0.13795967352073527 0.82442645220672928 0.19520361748596871
    endloop
  endfacet
  facet normal 0.051506029312270558 0.19776685523680348 0.97889498921703988
    outer loop
      vertex 0.13795967352073527 0.82442645220672928 0.19520361748596871
      vertex -0.17315938971742292 0.73751161617631633 0.22913308055582601
      vertex 0.44205198177302085 0.57299980326717503 0.22999925002697169
    endloop
  endfacet
  facet normal -0.097896044611123334 -0.36121135037950586 0.9273309683206481
    outer loop
      vertex 0.44205198177302085 0.57299980326717503 0.22999925002697169
      vertex -0.17315938971742292 0.73751161617631633 0.22913308055582601
      vertex 0.11339750433880036 0.61528928923106463 0.21177648854271264
    endloop
  endfacet
  facet normal -0.079710880443668544 -0.47304617720075987 0.87742434988701024
    outer loop
      vertex 0.11339750433880036 0.61528928923106463 0.21177648854271264
      vertex -0.1070482445273213 0.5050484053662041 0.13231556017359924
      vertex 0.25560584351754995 0.44702586706118375 0.13397967710637626
    endloop
  endfacet
  facet normal -0.15317846929508036 -0.96367518692684417 -0.21878411881562138
    outer loop
      vertex 0.25560584351754995 0.44702586706118375 0.13397967710637626
      vertex -0.1070482445273213 0.5050484053662041 0.13231556017359924
      vertex 0.095049593543325803 0.48314092308679168 0.087315308527845456
    endloop
  endfacet
  facet normal -0.10019671927672205 -0.79627570679143422 -0.59657825657660668
    outer loop
      vertex 0.15887350316617055 0.44710099593303748 -0.045204691918694931
      vertex -0.037976736419592462 0.47332288284648044 -0.047142582425651787
      vertex 0.0043832306837895416 0.5802835334377382 -0.19702149000426286
    endloop
  endfacet
  facet normal -0.24480035903262898 -0.83863343555038772 -0.48658683191641111
    outer loop
      vertex 0.15887350316617055 0.44710099593303748 -0.045204691918694931
      vertex 0.0043832306837895416 0.5802835334377382 -0.19702149000426286
      vertex 0.31880616834733488 0.48791493116701745 -0.19600923443373669
    endloop
  endfacet
  facet normal -0.13129392864823081 -0.97079762503988332 0.20078315546139666
    outer loop
      vertex 0.095049593543325803 0.48314092308679168 0.087315308527845456
      vertex -0.037976736419592462 0.47332288284648044 -0.047142582425651787
      vertex 0.15887350316617055 0.44710099593303748 -0.045204691918694931
    endloop
  endfacet
  facet normal 0.05242008565101746 0.88145478220240614 -0.4693501907455121
    outer loop
      vertex 0.042869521126446285 0.83070064818569311 -0.20032232975685699
      vertex -0.18334821653947719 0.90318138163452022 -0.089466646819698292
      vertex 0.2453718557173715 0.90075373876626397 -0.046143588912738662
    endloop
  endfacet
  facet normal 0.030146228976235805 0.96930457153340788 -0.24400789430456743
    outer loop
      vertex 0.2453718557173715 0.90075373876626397 -0.046143588912738662
      vertex -0.18334821653947719 0.90318138163452022 -0.089466646819698292
      vertex 0.062911056689068712 0.92948260701960472 0.045437539517300556
    endloop
  endfacet
  facet normal -0.11937180074079462 0.96093414859088089 0.24971170429080589
    outer loop
      vertex 0.062911056689068712 0.92948260701960472 0.045437539517300556
      vertex -0.24206648142111711 0.90340440747303996 2.9434181364796615e-16
      vertex -0.2928064775555001 0.87385212899036202 0.089466646819698611
    endloop
  endfacet
  facet normal -0.063147035078144106 0.83563435008104381 0.54564428424154787
    outer loop
      vertex 0.062911056689068712 0.92948260701960472 0.045437539517300556
      vertex -0.2928064775555001 0.87385212899036202 0.089466646819698611
      vertex -0.27269161791422819 0.82674889616033298 0.16393141127054356
    endloop
  endfacet
  facet normal -0.040145553525097265 0.80843793064285863 0.58721073460049766
    outer loop
      vertex 0.062911056689068712 0.92948260701960472 0.045437539517300556
      vertex -0.27269161791422819 0.82674889616033298 0.16393141127054356
      vertex 0.13795967352073527 0.82442645220672928 0.19520361748596871
    endloop
  endfacet
  facet normal -0.060661622080230342 0.54387638658815052 0.83696991804867882
    outer loop
      vertex 0.13795967352073527 0.82442645220672928 0.19520361748596871
      vertex -0.27269161791422819 0.82674889616033298 0.16393141127054356
      vertex -0.17315938971742292 0.73751161617631633 0.22913308055582601
    endloop
  endfacet
  facet normal -0.074489381444987721 -0.98651597305725258 0.14573114613851429
    outer loop
      vertex 0.095049593543325803 0.48314092308679168 0.087315308527845456
      vertex -0.1070482445273213 0.5050484053662041 0.13231556017359924
      vertex -0.037976736419592462 0.47332288284648044 -0.047142582425651787
    endloop
  endfacet
  facet normal -0.093702464449704231 0.73487568797653335 -0.67169752967914709
    outer loop
      vertex 0.042869521126446285 0.83070064818569311 -0.20032232975685699
      vertex -0.28695203351627036 0.82190813735105828 -0.16393141127054356
      vertex -0.18334821653947719 0.90318138163452022 -0.089466646819698292
    endloop
  endfacet
  facet normal -0.077212320057890707 0.99559657744536245 -0.053157432315326214
    outer loop
      vertex -0.18334821653947719 0.90318138163452022 -0.089466646819698292
      vertex -0.24206648142111711 0.90340440747303996 2.9434181364796615e-16
      vertex 0.062911056689068712 0.92948260701960472 0.045437539517300556
    endloop
  endfacet
  facet normal 0.018948459436943708 -0.096888927198633013 0.99511481331113982
    outer loop
      vertex -0.17315938971742292 0.73751161617631633 0.22913308055582601
      vertex -0.31802651587908942 0.53396233808523375 0.2120730769307245
      vertex 0.11339750433880036 0.61528928923106463 0.21177648854271264
    endloop
  endfacet
  facet normal 0.14173406063901686 -0.74951405643563163 0.64663756097228098
    outer loop
      vertex 0.11339750433880036 0.61528928923106463 0.21177648854271264
      vertex -0.31802651587908942 0.53396233808523375 0.2120730769307245
      vertex -0.1070482445273213 0.5050484053662041 0.13231556017359924
    endloop
  endfacet
  facet normal 0.20078512307552346 -0.82334813459898137 -0.53083253819253062
    outer loop
      vertex -0.037976736419592462 0.47332288284648044 -0.047142582425651787
      vertex -0.25942324191699073 0.51562706249803825 -0.19651969395838595
      vertex 0.0043832306837895416 0.5802835334377382 -0.19702149000426286
    endloop
  endfacet
  facet normal 0.27541906715679737 -0.92287547463156328 0.26915645221700718
    outer loop
      vertex -0.1070482445273213 0.5050484053662041 0.13231556017359924
      vertex -0.20918994089187759 0.42244163507600796 -0.046405741926275883
      vertex -0.037976736419592462 0.47332288284648044 -0.047142582425651787
    endloop
  endfacet
  facet normal 0.23222668042371539 -0.78965688023071623 -0.56790208698654554
    outer loop
      vertex -0.037976736419592462 0.47332288284648044 -0.047142582425651787
      vertex -0.20918994089187759 0.42244163507600796 -0.046405741926275883
      vertex -0.25942324191699073 0.51562706249803825 -0.19651969395838595
    endloop
  endfacet
  facet normal 0.12298134519537342 -0.50839388499736937 -0.85229762784558893
    outer loop
      vertex 0.0043832306837895416 0.5802835334377382 -0.19702149000426286
      vertex -0.25942324191699073 0.51562706249803825 -0.19651969395838595
      vertex -0.51306164825227263 0.51039834857328603 -0.22999925002697175
    endloop
  endfacet
  facet normal 0.10431167117381182 -0.32954880025082162 -0.93835849413226424
    outer loop
      vertex 0.0043832306837895416 0.5802835334377382 -0.19702149000426286
      vertex -0.51306164825227263 0.51039834857328603 -0.22999925002697175
      vertex 0.14072948027878293 0.71735519883097254 -0.23000387138485345
    endloop
  endfacet
  facet normal -0.054208437127641333 0.17122626784324693 -0.98373930009156962
    outer loop
      vertex 0.14072948027878293 0.71735519883097254 -0.23000387138485345
      vertex -0.51306164825227263 0.51039834857328603 -0.22999925002697175
      vertex -0.5417303853765506 0.59602011811879263 -0.21351644459484898
    endloop
  endfacet
  facet normal -0.059902378817275309 0.20415392717248002 -0.97710433374951589
    outer loop
      vertex 0.14072948027878293 0.71735519883097254 -0.23000387138485345
      vertex -0.5417303853765506 0.59602011811879263 -0.21351644459484898
      vertex 0.042869521126446285 0.83070064818569311 -0.20032232975685699
    endloop
  endfacet
  facet normal -0.11218730215442857 0.33211760676271884 -0.93654252680458405
    outer loop
      vertex 0.042869521126446285 0.83070064818569311 -0.20032232975685699
      vertex -0.5417303853765506 0.59602011811879263 -0.21351644459484898
      vertex -0.28695203351627036 0.82190813735105828 -0.16393141127054356
    endloop
  endfacet
  facet normal -0.44382951375822843 0.89503374841143679 0.04393121807675629
    outer loop
      vertex -0.24206648142111711 0.90340440747303996 2.9434181364796615e-16
      vertex -0.578905806355695 0.73448125384680485 0.038530449582553375
      vertex -0.2928064775555001 0.87385212899036202 0.089466646819698611
    endloop
  endfacet
  facet normal -0.19724911623622193 0.42535924240202394 0.88326796672765484
    outer loop
      vertex -0.27269161791422819 0.82674889616033298 0.16393141127054356
      vertex -0.53047515355698238 0.64227443594836831 0.19520203705224148
      vertex -0.17315938971742292 0.73751161617631633 0.22913308055582601
    endloop
  endfacet
  facet normal 0.25480555480402473 -0.470738646026509 0.84467701305181875
    outer loop
      vertex -0.31802651587908942 0.53396233808523375 0.2120730769307245
      vertex -0.34089091704907593 0.38270901215281888 0.13467685515495748
      vertex -0.1070482445273213 0.5050484053662041 0.13231556017359924
    endloop
  endfacet
  facet normal -0.4229809077456626 0.8432049207246175 -0.3318020695361118
    outer loop
      vertex -0.28695203351627036 0.82190813735105828 -0.16393141127054356
      vertex -0.58486990219543289 0.68533858012928217 -0.1312087466043434
      vertex -0.18334821653947719 0.90318138163452022 -0.089466646819698292
    endloop
  endfacet
  facet normal -0.44460452080418755 0.86444530212187609 -0.23465110210671794
    outer loop
      vertex -0.18334821653947719 0.90318138163452022 -0.089466646819698292
      vertex -0.58486990219543289 0.68533858012928217 -0.1312087466043434
      vertex -0.578905806355695 0.73448125384680485 0.038530449582553375
    endloop
  endfacet
  facet normal -0.45480320463683888 0.8383337171084948 -0.30058380497145232
    outer loop
      vertex -0.18334821653947719 0.90318138163452022 -0.089466646819698292
      vertex -0.578905806355695 0.73448125384680485 0.038530449582553375
      vertex -0.24206648142111711 0.90340440747303996 2.9434181364796615e-16
    endloop
  endfacet
  facet normal -0.44246915180804497 0.70637251117229005 0.55250242095254409
    outer loop
      vertex -0.2928064775555001 0.87385212899036202 0.089466646819698611
      vertex -0.578905806355695 0.73448125384680485 0.038530449582553375
      vertex -0.53047515355698238 0.64227443594836831 0.19520203705224148
    endloop
  endfacet
  facet normal -0.43502492635202555 0.7032249130005428 0.56234156452088224
    outer loop
      vertex -0.2928064775555001 0.87385212899036202 0.089466646819698611
      vertex -0.53047515355698238 0.64227443594836831 0.19520203705224148
      vertex -0.27269161791422819 0.82674889616033298 0.16393141127054356
    endloop
  endfacet
  facet normal 0.41023171816011744 -0.77484431897170125 0.48096384351911392
    outer loop
      vertex -0.1070482445273213 0.5050484053662041 0.13231556017359924
      vertex -0.34089091704907593 0.38270901215281888 0.13467685515495748
      vertex -0.4004558535721362 0.26757604678664093 1.4535411395859293e-16
    endloop
  endfacet
  facet normal 0.62922119088368733 -0.77722619508242208 -0.00036690682038931319
    outer loop
      vertex -0.1070482445273213 0.5050484053662041 0.13231556017359924
      vertex -0.4004558535721362 0.26757604678664093 1.4535411395859293e-16
      vertex -0.20918994089187759 0.42244163507600796 -0.046405741926275883
    endloop
  endfacet
  facet normal 0.56900870643069357 -0.78041714012713104 -0.25918753712680498
    outer loop
      vertex -0.20918994089187759 0.42244163507600796 -0.046405741926275883
      vertex -0.4004558535721362 0.26757604678664093 1.4535411395859293e-16
      vertex -0.39218097820505504 0.30237446551458291 -0.086612213476629965
    endloop
  endfacet
  facet normal 0.52565002052040366 -0.59877311719368653 -0.60428702621606467
    outer loop
      vertex -0.20918994089187759 0.42244163507600796 -0.046405741926275883
      vertex -0.39218097820505504 0.30237446551458291 -0.086612213476629965
      vertex -0.45592839293109655 0.35667416674255964 -0.19586829272632994
    endloop
  endfacet
  facet normal 0.51569359772264456 -0.63985998824541979 -0.56977127754077472
    outer loop
      vertex -0.20918994089187759 0.42244163507600796 -0.046405741926275883
      vertex -0.45592839293109655 0.35667416674255964 -0.19586829272632994
      vertex -0.25942324191699073 0.51562706249803825 -0.19651969395838595
    endloop
  endfacet
  facet normal -0.33467701556189144 0.54606341925978619 -0.7679883055105049
    outer loop
      vertex -0.5417303853765506 0.59602011811879263 -0.21351644459484898
      vertex -0.58486990219543289 0.68533858012928217 -0.1312087466043434
      vertex -0.28695203351627036 0.82190813735105828 -0.16393141127054356
    endloop
  endfacet
  facet normal -0.1283124060705321 0.13117942472867591 0.98301977852749467
    outer loop
      vertex -0.53047515355698238 0.64227443594836831 0.19520203705224148
      vertex -0.71116752171953512 0.42798052591970948 0.2002130036985863
      vertex -0.17315938971742292 0.73751161617631633 0.22913308055582601
    endloop
  endfacet
  facet normal 0.13240597425545653 -0.16769002375707509 -0.9769077305016145
    outer loop
      vertex -0.25942324191699073 0.51562706249803825 -0.19651969395838595
      vertex -0.45592839293109655 0.35667416674255964 -0.19586829272632994
      vertex -0.51306164825227263 0.51039834857328603 -0.22999925002697175
    endloop
  endfacet
  facet normal -0.59943270308461194 0.56023527003464302 0.57167899793667976
    outer loop
      vertex -0.578905806355695 0.73448125384680485 0.038530449582553375
      vertex -0.7735000217102338 0.51922387678145576 0.045437539517300118
      vertex -0.71116752171953512 0.42798052591970948 0.2002130036985863
    endloop
  endfacet
  facet normal -0.64410210567618775 0.55540548865963058 0.52598214858515679
    outer loop
      vertex -0.578905806355695 0.73448125384680485 0.038530449582553375
      vertex -0.71116752171953512 0.42798052591970948 0.2002130036985863
      vertex -0.53047515355698238 0.64227443594836831 0.19520203705224148
    endloop
  endfacet
  facet normal -0.12686942440620391 0.12862226371373181 0.9835448451534855
    outer loop
      vertex -0.71116752171953512 0.42798052591970948 0.2002130036985863
      vertex -0.67865190203540693 0.23230709580131009 0.22999628976667028
      vertex -0.17315938971742292 0.73751161617631633 0.22913308055582601
    endloop
  endfacet
  facet normal 0.16815857454791977 -0.16659435838652392 0.97158067784399371
    outer loop
      vertex -0.17315938971742292 0.73751161617631633 0.22913308055582601
      vertex -0.67865190203540693 0.23230709580131009 0.22999628976667028
      vertex -0.57736307464346392 0.23001852824041996 0.21207307693072475
    endloop
  endfacet
  facet normal 0.46728618694860108 -0.39870656271384486 0.78909866071103429
    outer loop
      vertex -0.17315938971742292 0.73751161617631633 0.22913308055582601
      vertex -0.57736307464346392 0.23001852824041996 0.21207307693072475
      vertex -0.31802651587908942 0.53396233808523375 0.2120730769307245
    endloop
  endfacet
  facet normal 0.52627851753870125 -0.44904109006131138 0.72207549564696927
    outer loop
      vertex -0.31802651587908942 0.53396233808523375 0.2120730769307245
      vertex -0.57736307464346392 0.23001852824041996 0.21207307693072475
      vertex -0.34089091704907593 0.38270901215281888 0.13467685515495748
    endloop
  endfacet
  facet normal 0.78407265332145937 -0.59839620529364546 0.16477880872130352
    outer loop
      vertex -0.34089091704907593 0.38270901215281888 0.13467685515495748
      vertex -0.44079528174955307 0.2500844927089837 0.12842769688650549
      vertex -0.4004558535721362 0.26757604678664093 1.4535411395859293e-16
    endloop
  endfacet
  facet normal -0.75320157531512022 0.61918501547505833 -0.22202996093764649
    outer loop
      vertex -0.58486990219543289 0.68533858012928217 -0.1312087466043434
      vertex -0.8281572883153725 0.40436206850986567 -0.089466646819698181
      vertex -0.7735000217102338 0.51922387678145576 0.045437539517300118
    endloop
  endfacet
  facet normal -0.73429067553818494 0.65851435630554445 -0.16485158888275872
    outer loop
      vertex -0.58486990219543289 0.68533858012928217 -0.1312087466043434
      vertex -0.7735000217102338 0.51922387678145576 0.045437539517300118
      vertex -0.578905806355695 0.73448125384680485 0.038530449582553375
    endloop
  endfacet
  facet normal 0.51740919012644593 -0.4247614928925374 0.74287643934129333
    outer loop
      vertex -0.57736307464346392 0.23001852824041996 0.21207307693072475
      vertex -0.44079528174955307 0.2500844927089837 0.12842769688650549
      vertex -0.34089091704907593 0.38270901215281888 0.13467685515495748
    endloop
  endfacet
  facet normal -0.5695010803030689 0.3911514985737769 -0.72295852211390821
    outer loop
      vertex -0.5417303853765506 0.59602011811879263 -0.21351644459484898
      vertex -0.8267488961603332 0.27269161791422725 -0.16393141127054378
      vertex -0.58486990219543289 0.68533858012928217 -0.1312087466043434
    endloop
  endfacet
  facet normal -0.57987392305591146 0.39634662283827654 -0.71179743461496114
    outer loop
      vertex -0.58486990219543289 0.68533858012928217 -0.1312087466043434
      vertex -0.8267488961603332 0.27269161791422725 -0.16393141127054378
      vertex -0.8281572883153725 0.40436206850986567 -0.089466646819698181
    endloop
  endfacet
  facet normal -0.77458957330678846 0.35673796657427043 0.52225378517427912
    outer loop
      vertex -0.7735000217102338 0.51922387678145576 0.045437539517300118
      vertex -0.89928226724154792 0.25763540398966472 0.037565742032316808
      vertex -0.71116752171953512 0.42798052591970948 0.2002130036985863
    endloop
  endfacet
  facet normal 0.76989296904465765 -0.26462211944034125 -0.58072364349878469
    outer loop
      vertex -0.39218097820505504 0.30237446551458291 -0.086612213476629965
      vertex -0.50985501455153803 0.056825827249045335 -0.13072753825382777
      vertex -0.45592839293109655 0.35667416674255964 -0.19586829272632994
    endloop
  endfacet
  facet normal -0.21708237293369773 0.1139461744103918 -0.96948002181515402
    outer loop
      vertex -0.51306164825227263 0.51039834857328603 -0.22999925002697175
      vertex -0.78269662787523642 0.14259833812995976 -0.21285232931659059
      vertex -0.5417303853765506 0.59602011811879263 -0.21351644459484898
    endloop
  endfacet
  facet normal -0.3895251497005861 0.20569413391895891 -0.89775279505110173
    outer loop
      vertex -0.5417303853765506 0.59602011811879263 -0.21351644459484898
      vertex -0.78269662787523642 0.14259833812995976 -0.21285232931659059
      vertex -0.8267488961603332 0.27269161791422725 -0.16393141127054378
    endloop
  endfacet
  facet normal -0.90117434083030223 0.43343901602721147 -0.0039276983632564799
    outer loop
      vertex -0.8281572883153725 0.40436206850986567 -0.089466646819698181
      vertex -0.89928226724154792 0.25763540398966472 0.037565742032316808
      vertex -0.7735000217102338 0.51922387678145576 0.045437539517300118
    endloop
  endfacet
  facet normal -0.76401816472196316 0.29666140756459308 0.57294698990105308
    outer loop
      vertex -0.89928226724154792 0.25763540398966472 0.037565742032316808
      vertex -0.85854853497211192 0.11964708144764995 0.16333151553957548
      vertex -0.71116752171953512 0.42798052591970948 0.2002130036985863
    endloop
  endfacet
  facet normal 0.53113322154688003 -0.11642726316639669 0.83925097161743889
    outer loop
      vertex -0.57736307464346392 0.23001852824041996 0.21207307693072475
      vertex -0.54141365247427242 0.032498586564510303 0.16192045267046901
      vertex -0.44079528174955307 0.2500844927089837 0.12842769688650549
    endloop
  endfacet
  facet normal 0.83636413146806121 -0.31803320572249144 0.44648619200547651
    outer loop
      vertex -0.44079528174955307 0.2500844927089837 0.12842769688650549
      vertex -0.54141365247427242 0.032498586564510303 0.16192045267046901
      vertex -0.46817775842395071 0.063452501096386754 0.04678250849229601
    endloop
  endfacet
  facet normal 0.93292832279459559 -0.25016590012256268 0.25896286788559225
    outer loop
      vertex -0.44079528174955307 0.2500844927089837 0.12842769688650549
      vertex -0.46817775842395071 0.063452501096386754 0.04678250849229601
      vertex -0.4004558535721362 0.26757604678664093 1.4535411395859293e-16
    endloop
  endfacet
  facet normal 0.90441985198200825 -0.41872372338834657 -0.081824047887169529
    outer loop
      vertex -0.4004558535721362 0.26757604678664093 1.4535411395859293e-16
      vertex -0.50985501455153803 0.056825827249045335 -0.13072753825382777
      vertex -0.39218097820505504 0.30237446551458291 -0.086612213476629965
    endloop
  endfacet
  facet normal 0.68556167956785397 -0.27016063823827041 -0.67603136987479617
    outer loop
      vertex -0.50985501455153803 0.056825827249045335 -0.13072753825382777
      vertex -0.62482674851508391 -0.032116004932205261 -0.21177648854271278
      vertex -0.45592839293109655 0.35667416674255964 -0.19586829272632994
    endloop
  endfacet
  facet normal 0.30114377821111299 -0.091987195933683735 -0.94913159289373239
    outer loop
      vertex -0.45592839293109655 0.35667416674255964 -0.19586829272632994
      vertex -0.62482674851508391 -0.032116004932205261 -0.21177648854271278
      vertex -0.71660462628854005 -0.14450286326305953 -0.23000387138485345
    endloop
  endfacet
  facet normal 0.30796162138760158 -0.095707642549037825 -0.94657259991509646
    outer loop
      vertex -0.45592839293109655 0.35667416674255964 -0.19586829272632994
      vertex -0.71660462628854005 -0.14450286326305953 -0.23000387138485345
      vertex -0.51306164825227263 0.51039834857328603 -0.22999925002697175
    endloop
  endfacet
  facet normal -0.10968129123233428 0.034095901827216439 -0.99338184190783185
    outer loop
      vertex -0.51306164825227263 0.51039834857328603 -0.22999925002697175
      vertex -0.71660462628854005 -0.14450286326305953 -0.23000387138485345
      vertex -0.78269662787523642 0.14259833812995976 -0.21285232931659059
    endloop
  endfacet
  facet normal -0.89192327727790566 0.13113071239896651 0.43275582458885498
    outer loop
      vertex -0.89928226724154792 0.25763540398966472 0.037565742032316808
      vertex -0.93356820879257418 -0.0038787899418756579 0.046143588912739626
      vertex -0.85854853497211192 0.11964708144764995 0.16333151553957548
    endloop
  endfacet
  facet normal -0.41508238568410549 0.090117035781458008 0.90530963374789908
    outer loop
      vertex -0.85854853497211192 0.11964708144764995 0.16333151553957548
      vertex -0.76321628580314271 -0.084891033930808657 0.22740142479238251
      vertex -0.71116752171953512 0.42798052591970948 0.2002130036985863
    endloop
  endfacet
  facet normal -0.34626500183348596 0.084670371058079064 0.93430802028567816
    outer loop
      vertex -0.71116752171953512 0.42798052591970948 0.2002130036985863
      vertex -0.76321628580314271 -0.084891033930808657 0.22740142479238251
      vertex -0.67865190203540693 0.23230709580131009 0.22999628976667028
    endloop
  endfacet
  facet normal 0.91486014422258322 -0.34975896225639996 -0.20174138106585962
    outer loop
      vertex -0.4004558535721362 0.26757604678664093 1.4535411395859293e-16
      vertex -0.46817775842395071 0.063452501096386754 0.04678250849229601
      vertex -0.50985501455153803 0.056825827249045335 -0.13072753825382777
    endloop
  endfacet
  facet normal -0.92448928834292432 0.18011683754919527 -0.33597244019483208
    outer loop
      vertex -0.8267488961603332 0.27269161791422725 -0.16393141127054378
      vertex -0.91938628426527969 -0.063890820501318585 -0.089466646819697043
      vertex -0.8281572883153725 0.40436206850986567 -0.089466646819698181
    endloop
  endfacet
  facet normal -0.93246776864107139 0.18167127269286978 -0.31224895375916722
    outer loop
      vertex -0.8281572883153725 0.40436206850986567 -0.089466646819698181
      vertex -0.91938628426527969 -0.063890820501318585 -0.089466646819697043
      vertex -0.89928226724154792 0.25763540398966472 0.037565742032316808
    endloop
  endfacet
  facet normal 0.17419848941443739 -0.002087144708686118 0.98470834774195615
    outer loop
      vertex -0.67865190203540693 0.23230709580131009 0.22999628976667028
      vertex -0.57876369112901105 -0.2495967073616045 0.2113042796245003
      vertex -0.57736307464346392 0.23001852824041996 0.21207307693072475
    endloop
  endfacet
  facet normal 0.80655623630673146 -0.0033029581718399164 0.59114814398933457
    outer loop
      vertex -0.57736307464346392 0.23001852824041996 0.21207307693072475
      vertex -0.57876369112901105 -0.2495967073616045 0.2113042796245003
      vertex -0.54141365247427242 0.032498586564510303 0.16192045267046901
    endloop
  endfacet
  facet normal 0.83892164632462252 0.03530742111306729 0.54310575152757279
    outer loop
      vertex -0.54141365247427242 0.032498586564510303 0.16192045267046901
      vertex -0.45975201644195313 -0.1243011351330129 0.045973383135131531
      vertex -0.46817775842395071 0.063452501096386754 0.04678250849229601
    endloop
  endfacet
  facet normal -0.68854685492522227 0.039150849732017726 -0.72413426899839917
    outer loop
      vertex -0.78269662787523642 0.14259833812995976 -0.21285232931659059
      vertex -0.81555712635329369 -0.17514194756479992 -0.19878561388081001
      vertex -0.8267488961603332 0.27269161791422725 -0.16393141127054378
    endloop
  endfacet
  facet normal -0.70524805768885535 0.0374753898979059 -0.70796947128961507
    outer loop
      vertex -0.8267488961603332 0.27269161791422725 -0.16393141127054378
      vertex -0.81555712635329369 -0.17514194756479992 -0.19878561388081001
      vertex -0.91938628426527969 -0.063890820501318585 -0.089466646819697043
    endloop
  endfacet
  facet normal -0.97986274763424952 0.12331423823180504 -0.15704328845247995
    outer loop
      vertex -0.91938628426527969 -0.063890820501318585 -0.089466646819697043
      vertex -0.93356820879257418 -0.0038787899418756579 0.046143588912739626
      vertex -0.89928226724154792 0.25763540398966472 0.037565742032316808
    endloop
  endfacet
  facet normal -0.78478335109658504 -0.06986168083916508 0.61582013396115987
    outer loop
      vertex -0.93356820879257418 -0.0038787899418756579 0.046143588912739626
      vertex -0.8738521289903628 -0.29280647755549971 0.089466646819696974
      vertex -0.81150377988435718 -0.32734644590569623 0.16500319318504919
    endloop
  endfacet
  facet normal -0.7980278207811754 -0.081757224424546499 0.59704887028922715
    outer loop
      vertex -0.93356820879257418 -0.0038787899418756579 0.046143588912739626
      vertex -0.81150377988435718 -0.32734644590569623 0.16500319318504919
      vertex -0.85854853497211192 0.11964708144764995 0.16333151553957548
    endloop
  endfacet
  facet normal -0.64964856916343416 -0.065541043398436041 0.75740419078200727
    outer loop
      vertex -0.85854853497211192 0.11964708144764995 0.16333151553957548
      vertex -0.81150377988435718 -0.32734644590569623 0.16500319318504919
      vertex -0.76321628580314271 -0.084891033930808657 0.22740142479238251
    endloop
  endfacet
  facet normal 0.064434141641347656 -0.025338961899912662 0.99760020970365559
    outer loop
      vertex -0.67865190203540693 0.23230709580131009 0.22999628976667028
      vertex -0.76321628580314271 -0.084891033930808657 0.22740142479238251
      vertex -0.57876369112901105 -0.2495967073616045 0.2113042796245003
    endloop
  endfacet
  facet normal 0.97218537404878091 0.044619215165706452 -0.22992330052351834
    outer loop
      vertex -0.46817775842395071 0.063452501096386754 0.04678250849229601
      vertex -0.45975201644195313 -0.1243011351330129 0.045973383135131531
      vertex -0.50985501455153803 0.056825827249045335 -0.13072753825382777
    endloop
  endfacet
  facet normal -0.29761410536452459 -0.011482902002782014 -0.95461719408863999
    outer loop
      vertex -0.71660462628854005 -0.14450286326305953 -0.23000387138485345
      vertex -0.81555712635329369 -0.17514194756479992 -0.19878561388081001
      vertex -0.78269662787523642 0.14259833812995976 -0.21285232931659059
    endloop
  endfacet
  facet normal -0.97972118469661529 -0.19703659158967976 0.036372817204366692
    outer loop
      vertex -0.93356820879257418 -0.0038787899418756579 0.046143588912739626
      vertex -0.86407964144759652 -0.35791350645806541 1.098121381686638e-15
      vertex -0.8738521289903628 -0.29280647755549971 0.089466646819696974
    endloop
  endfacet
  facet normal 0.5310687857993539 0.077399222809929363 0.84378629110576264
    outer loop
      vertex -0.57876369112901105 -0.2495967073616045 0.2113042796245003
      vertex -0.46899498980888299 -0.21765781743072235 0.13928749429929546
      vertex -0.54141365247427242 0.032498586564510303 0.16192045267046901
    endloop
  endfacet
  facet normal 0.91546520191811231 0.23550039407662204 0.32628672738373132
    outer loop
      vertex -0.54141365247427242 0.032498586564510303 0.16192045267046901
      vertex -0.46899498980888299 -0.21765781743072235 0.13928749429929546
      vertex -0.45975201644195313 -0.1243011351330129 0.045973383135131531
    endloop
  endfacet
  facet normal 0.9807006892573541 0.15491424266657866 -0.11928007171858655
    outer loop
      vertex -0.45975201644195313 -0.1243011351330129 0.045973383135131531
      vertex -0.47010322447777186 -0.19547521793448444 -0.13156940070905454
      vertex -0.50985501455153803 0.056825827249045335 -0.13072753825382777
    endloop
  endfacet
  facet normal 0.52867245004120689 0.086113729838981662 -0.84444648504250786
    outer loop
      vertex -0.50985501455153803 0.056825827249045335 -0.13072753825382777
      vertex -0.47010322447777186 -0.19547521793448444 -0.13156940070905454
      vertex -0.62482674851508391 -0.032116004932205261 -0.21177648854271278
    endloop
  endfacet
  facet normal -0.98156186473561557 -0.19025145759145401 -0.018457751246245678
    outer loop
      vertex -0.91938628426527969 -0.063890820501318585 -0.089466646819697043
      vertex -0.86407964144759652 -0.35791350645806541 1.098121381686638e-15
      vertex -0.93356820879257418 -0.0038787899418756579 0.046143588912739626
    endloop
  endfacet
  facet normal -0.80845479638876783 -0.21688123672731194 -0.54714108907267012
    outer loop
      vertex -0.81555712635329369 -0.17514194756479992 -0.19878561388081001
      vertex -0.80141683507102024 -0.40281294062271639 -0.12943278882400269
      vertex -0.91938628426527969 -0.063890820501318585 -0.089466646819697043
    endloop
  endfacet
  facet normal -0.89962252128054232 -0.27293952802680432 -0.34085676353175931
    outer loop
      vertex -0.91938628426527969 -0.063890820501318585 -0.089466646819697043
      vertex -0.80141683507102024 -0.40281294062271639 -0.12943278882400269
      vertex -0.86407964144759652 -0.35791350645806541 1.098121381686638e-15
    endloop
  endfacet
  facet normal -0.32594780453687561 -0.17422161256825416 0.92919581274977125
    outer loop
      vertex -0.81150377988435718 -0.32734644590569623 0.16500319318504919
      vertex -0.55945593903604363 -0.61872221587698961 0.19878561388081006
      vertex -0.76321628580314271 -0.084891033930808657 0.22740142479238251
    endloop
  endfacet
  facet normal 0.6957692588672777 0.35142336382607364 -0.62642378448814207
    outer loop
      vertex -0.47010322447777186 -0.19547521793448444 -0.13156940070905454
      vertex -0.390886971675309 -0.49444241511983689 -0.21130427962450002
      vertex -0.62482674851508391 -0.032116004932205261 -0.21177648854271278
    endloop
  endfacet
  facet normal 0.12223906813073206 0.06084184994136934 -0.99063407952595806
    outer loop
      vertex -0.62482674851508391 -0.032116004932205261 -0.21177648854271278
      vertex -0.390886971675309 -0.49444241511983689 -0.21130427962450002
      vertex -0.71660462628854005 -0.14450286326305953 -0.23000387138485345
    endloop
  endfacet
  facet normal -0.8103373177353782 -0.55275410333938857 0.19446421965724489
    outer loop
      vertex -0.86407964144759652 -0.35791350645806541 1.098121381686638e-15
      vertex -0.69911030625112447 -0.61574385705352763 -0.045437539517300445
      vertex -0.61264158428310911 -0.70904846055120885 0.04966648433020826
    endloop
  endfacet
  facet normal -0.79571950545374448 -0.52776244501526248 0.2971485659934443
    outer loop
      vertex -0.86407964144759652 -0.35791350645806541 1.098121381686638e-15
      vertex -0.61264158428310911 -0.70904846055120885 0.04966648433020826
      vertex -0.8738521289903628 -0.29280647755549971 0.089466646819696974
    endloop
  endfacet
  facet normal -0.76153953432931853 -0.51546628856278509 0.39287662568393172
    outer loop
      vertex -0.8738521289903628 -0.29280647755549971 0.089466646819696974
      vertex -0.61264158428310911 -0.70904846055120885 0.04966648433020826
      vertex -0.81150377988435718 -0.32734644590569623 0.16500319318504919
    endloop
  endfacet
  facet normal 0.44578259844281187 0.33742222756155726 0.82911043611389379
    outer loop
      vertex -0.57876369112901105 -0.2495967073616045 0.2113042796245003
      vertex -0.30890937078014558 -0.40854737869678759 0.13090139524607186
      vertex -0.46899498980888299 -0.21765781743072235 0.13928749429929546
    endloop
  endfacet
  facet normal 0.76383288137352356 0.41687339334862328 0.49272294776134046
    outer loop
      vertex -0.46899498980888299 -0.21765781743072235 0.13928749429929546
      vertex -0.29097671119891821 -0.37920823294031614 1.8806043410977817e-16
      vertex -0.45975201644195313 -0.1243011351330129 0.045973383135131531
    endloop
  endfacet
  facet normal 0.77049423527146377 0.56379391514508459 -0.29744756623448715
    outer loop
      vertex -0.45975201644195313 -0.1243011351330129 0.045973383135131531
      vertex -0.29097671119891821 -0.37920823294031614 1.8806043410977817e-16
      vertex -0.34149340559244973 -0.3788285043907651 -0.13013632506586795
    endloop
  endfacet
  facet normal 0.7898684782999229 0.55194949206694233 -0.26731918224326623
    outer loop
      vertex -0.45975201644195313 -0.1243011351330129 0.045973383135131531
      vertex -0.34149340559244973 -0.3788285043907651 -0.13013632506586795
      vertex -0.47010322447777186 -0.19547521793448444 -0.13156940070905454
    endloop
  endfacet
  facet normal 0.49983541420246425 0.34438905730979652 -0.79470795636782232
    outer loop
      vertex -0.47010322447777186 -0.19547521793448444 -0.13156940070905454
      vertex -0.34149340559244973 -0.3788285043907651 -0.13013632506586795
      vertex -0.390886971675309 -0.49444241511983689 -0.21130427962450002
    endloop
  endfacet
  facet normal -0.25526282733524164 -0.14898214087832692 -0.95532466244734249
    outer loop
      vertex -0.71660462628854005 -0.14450286326305953 -0.23000387138485345
      vertex -0.56787312344706853 -0.60925968205330505 -0.19726647523942342
      vertex -0.81555712635329369 -0.17514194756479992 -0.19878561388081001
    endloop
  endfacet
  facet normal -0.48892288302554882 -0.28184172143127101 -0.82554203921704872
    outer loop
      vertex -0.81555712635329369 -0.17514194756479992 -0.19878561388081001
      vertex -0.56787312344706853 -0.60925968205330505 -0.19726647523942342
      vertex -0.80141683507102024 -0.40281294062271639 -0.12943278882400269
    endloop
  endfacet
  facet normal -0.63142206863165495 -0.52756299628326897 -0.56831633462143349
    outer loop
      vertex -0.80141683507102024 -0.40281294062271639 -0.12943278882400269
      vertex -0.56787312344706853 -0.60925968205330505 -0.19726647523942342
      vertex -0.69911030625112447 -0.61574385705352763 -0.045437539517300445
    endloop
  endfacet
  facet normal -0.83717402662713714 -0.49445543002751507 -0.23378083081640896
    outer loop
      vertex -0.80141683507102024 -0.40281294062271639 -0.12943278882400269
      vertex -0.69911030625112447 -0.61574385705352763 -0.045437539517300445
      vertex -0.86407964144759652 -0.35791350645806541 1.098121381686638e-15
    endloop
  endfacet
  facet normal -0.66381005837956197 -0.51088445386041614 0.54621724725411869
    outer loop
      vertex -0.61264158428310911 -0.70904846055120885 0.04966648433020826
      vertex -0.55945593903604363 -0.61872221587698961 0.19878561388081006
      vertex -0.81150377988435718 -0.32734644590569623 0.16500319318504919
    endloop
  endfacet
  facet normal -0.15006160925044876 -0.10994656906129556 0.98254428163865226
    outer loop
      vertex -0.55945593903604363 -0.61872221587698961 0.19878561388081006
      vertex -0.30919299411815071 -0.68160730105783518 0.22997083521075604
      vertex -0.76321628580314271 -0.084891033930808657 0.22740142479238251
    endloop
  endfacet
  facet normal 0.26743318223003748 0.20753349270830151 0.94096192401531786
    outer loop
      vertex -0.76321628580314271 -0.084891033930808657 0.22740142479238251
      vertex -0.30919299411815071 -0.68160730105783518 0.22997083521075604
      vertex -0.57876369112901105 -0.2495967073616045 0.2113042796245003
    endloop
  endfacet
  facet normal 0.74883024993147695 0.61740514665028368 0.24096502168842601
    outer loop
      vertex -0.46899498980888299 -0.21765781743072235 0.13928749429929546
      vertex -0.30890937078014558 -0.40854737869678759 0.13090139524607186
      vertex -0.29097671119891821 -0.37920823294031614 1.8806043410977817e-16
    endloop
  endfacet
  facet normal 0.36747406476941497 0.29490525187353761 -0.88203951393304891
    outer loop
      vertex -0.390886971675309 -0.49444241511983689 -0.21130427962450002
      vertex -0.31561343923552476 -0.6441452847532444 -0.22999628976667028
      vertex -0.71660462628854005 -0.14450286326305953 -0.23000387138485345
    endloop
  endfacet
  facet normal -0.14345632507228848 -0.11514669660847161 -0.98293515607943871
    outer loop
      vertex -0.71660462628854005 -0.14450286326305953 -0.23000387138485345
      vertex -0.31561343923552476 -0.6441452847532444 -0.22999628976667028
      vertex -0.56787312344706853 -0.60925968205330505 -0.19726647523942342
    endloop
  endfacet
  facet normal 0.12619308407260968 0.12128491199813317 0.98456349498335971
    outer loop
      vertex -0.30919299411815071 -0.68160730105783518 0.22997083521075604
      vertex -0.16466929956086432 -0.56063298729649558 0.19654460124614348
      vertex -0.57876369112901105 -0.2495967073616045 0.2113042796245003
    endloop
  endfacet
  facet normal 0.54950123520349103 0.71072954041244518 0.43921738683134132
    outer loop
      vertex -0.57876369112901105 -0.2495967073616045 0.2113042796245003
      vertex -0.16466929956086432 -0.56063298729649558 0.19654460124614348
      vertex -0.30890937078014558 -0.40854737869678759 0.13090139524607186
    endloop
  endfacet
  facet normal -0.56671310549247678 -0.64132444559668922 -0.51724192747994846
    outer loop
      vertex -0.56787312344706853 -0.60925968205330505 -0.19726647523942342
      vertex -0.40935026536260799 -0.80261705199632938 -0.1312087466043434
      vertex -0.69911030625112447 -0.61574385705352763 -0.045437539517300445
    endloop
  endfacet
  facet normal -0.57551090450422238 -0.78089841309815611 -0.2428680036923625
    outer loop
      vertex -0.69911030625112447 -0.61574385705352763 -0.045437539517300445
      vertex -0.40935026536260799 -0.80261705199632938 -0.1312087466043434
      vertex -0.61264158428310911 -0.70904846055120885 0.04966648433020826
    endloop
  endfacet
  facet normal -0.41426125455478952 -0.70546259389634314 0.57507403139746716
    outer loop
      vertex -0.61264158428310911 -0.70904846055120885 0.04966648433020826
      vertex -0.35367755184946181 -0.86398890895506308 0.046143588912739196
      vertex -0.55945593903604363 -0.61872221587698961 0.19878561388081006
    endloop
  endfacet
  facet normal 0.26185766532205984 0.47710542475743839 -0.83892846940552934
    outer loop
      vertex -0.34149340559244973 -0.3788285043907651 -0.13013632506586795
      vertex -0.13590800371017817 -0.49411297759900363 -0.13152945241746838
      vertex -0.390886971675309 -0.49444241511983689 -0.21130427962450002
    endloop
  endfacet
  facet normal -0.36755328623057598 -0.69380331335719114 0.61930730994853223
    outer loop
      vertex -0.35367755184946181 -0.86398890895506308 0.046143588912739196
      vertex -0.17721657956736409 -0.85233135558270667 0.16393141127054256
      vertex -0.55945593903604363 -0.61872221587698961 0.19878561388081006
    endloop
  endfacet
  facet normal -0.22977365107518538 -0.50049818664164558 0.83468894472132749
    outer loop
      vertex -0.55945593903604363 -0.61872221587698961 0.19878561388081006
      vertex -0.17721657956736409 -0.85233135558270667 0.16393141127054256
      vertex -0.30919299411815071 -0.68160730105783518 0.22997083521075604
    endloop
  endfacet
  facet normal 0.47983266715123213 0.85790036939398451 -0.18375953778838264
    outer loop
      vertex -0.29097671119891821 -0.37920823294031614 1.8806043410977817e-16
      vertex -0.13590800371017817 -0.49411297759900363 -0.13152945241746838
      vertex -0.34149340559244973 -0.3788285043907651 -0.13013632506586795
    endloop
  endfacet
  facet normal -0.17124391856307142 -0.38904789760310293 -0.90516145174536122
    outer loop
      vertex -0.31561343923552476 -0.6441452847532444 -0.22999628976667028
      vertex -0.038388638170844334 -0.80451109631996498 -0.21351644459484936
      vertex -0.56787312344706853 -0.60925968205330505 -0.19726647523942342
    endloop
  endfacet
  facet normal -0.19495142107655275 -0.45641883340394135 -0.86814502932080284
    outer loop
      vertex -0.56787312344706853 -0.60925968205330505 -0.19726647523942342
      vertex -0.038388638170844334 -0.80451109631996498 -0.21351644459484936
      vertex -0.40935026536260799 -0.80261705199632938 -0.1312087466043434
    endloop
  endfacet
  facet normal -0.51014776317213728 -0.84960605410239698 -0.13386116898869396
    outer loop
      vertex -0.40935026536260799 -0.80261705199632938 -0.1312087466043434
      vertex -0.35367755184946181 -0.86398890895506308 0.046143588912739196
      vertex -0.61264158428310911 -0.70904846055120885 0.04966648433020826
    endloop
  endfacet
  facet normal -0.25142098053823358 -0.851095950290499 0.46089388577448676
    outer loop
      vertex -0.35367755184946181 -0.86398890895506308 0.046143588912739196
      vertex -0.12284785569505478 -0.90910850771971219 0.088744112293874841
      vertex -0.17721657956736409 -0.85233135558270667 0.16393141127054256
    endloop
  endfacet
  facet normal 0.35880391080291074 0.63541337274985921 0.68374673624316873
    outer loop
      vertex -0.16466929956086432 -0.56063298729649558 0.19654460124614348
      vertex -0.030989457715940919 -0.47434569438635604 0.046206845445284452
      vertex -0.30890937078014558 -0.40854737869678759 0.13090139524607186
    endloop
  endfacet
  facet normal 0.29393055646597388 0.9233053403432786 0.24720856876165409
    outer loop
      vertex -0.30890937078014558 -0.40854737869678759 0.13090139524607186
      vertex -0.030989457715940919 -0.47434569438635604 0.046206845445284452
      vertex -0.29097671119891821 -0.37920823294031614 1.8806043410977817e-16
    endloop
  endfacet
  facet normal 0.37515011522194175 0.87060936749635454 -0.31827931173194607
    outer loop
      vertex -0.29097671119891821 -0.37920823294031614 1.8806043410977817e-16
      vertex -0.030989457715940919 -0.47434569438635604 0.046206845445284452
      vertex -0.13590800371017817 -0.49411297759900363 -0.13152945241746838
    endloop
  endfacet
  facet normal -0.33324411131588261 -0.91841817370779044 -0.2132051136266076
    outer loop
      vertex -0.40935026536260799 -0.80261705199632938 -0.1312087466043434
      vertex -0.17623456441251625 -0.89715366709796274 -0.088340587216418506
      vertex -0.35367755184946181 -0.86398890895506308 0.046143588912739196
    endloop
  endfacet
  facet normal -0.19317111744001544 -0.98113611896399611 0.007538929051461302
    outer loop
      vertex -0.35367755184946181 -0.86398890895506308 0.046143588912739196
      vertex -0.0038787899418757672 -0.93356820879257452 -0.046143588912739168
      vertex -0.12284785569505478 -0.90910850771971219 0.088744112293874841
    endloop
  endfacet
  facet normal -0.081464291701457303 -0.41372395396082712 0.90675027383320883
    outer loop
      vertex -0.17721657956736409 -0.85233135558270667 0.16393141127054256
      vertex 0.071435577278173124 -0.75985577553922512 0.22846476311669275
      vertex -0.30919299411815071 -0.68160730105783518 0.22997083521075604
    endloop
  endfacet
  facet normal 0.15908953906981779 0.8441409253218588 -0.51197325785172521
    outer loop
      vertex -0.13590800371017817 -0.49411297759900363 -0.13152945241746838
      vertex 0.19530192088260864 -0.60448470208930405 -0.21059072130413098
      vertex -0.390886971675309 -0.49444241511983689 -0.21130427962450002
    endloop
  endfacet
  facet normal 0.026959314779290582 0.13718999917140157 -0.99017781204891786
    outer loop
      vertex -0.390886971675309 -0.49444241511983689 -0.21130427962450002
      vertex 0.19530192088260864 -0.60448470208930405 -0.21059072130413098
      vertex -0.31561343923552476 -0.6441452847532444 -0.22999628976667028
    endloop
  endfacet
  facet normal -0.1480218461668811 -0.74539348045555665 -0.64998314774438559
    outer loop
      vertex -0.038388638170844334 -0.80451109631996498 -0.21351644459484936
      vertex 0.064448900808341494 -0.86817094800943717 -0.16393141127054356
      vertex -0.40935026536260799 -0.80261705199632938 -0.1312087466043434
    endloop
  endfacet
  facet normal -0.14376670372349792 -0.68037522732728895 -0.71862416111610117
    outer loop
      vertex -0.40935026536260799 -0.80261705199632938 -0.1312087466043434
      vertex 0.064448900808341494 -0.86817094800943717 -0.16393141127054356
      vertex -0.17623456441251625 -0.89715366709796274 -0.088340587216418506
    endloop
  endfacet
  facet normal -0.20107201402378186 -0.97928724556115332 -0.023802013731392641
    outer loop
      vertex -0.17623456441251625 -0.89715366709796274 -0.088340587216418506
      vertex -0.0038787899418757672 -0.93356820879257452 -0.046143588912739168
      vertex -0.35367755184946181 -0.86398890895506308 0.046143588912739196
    endloop
  endfacet
  facet normal 0.047605737606246756 0.21278715984122051 0.97593817342784162
    outer loop
      vertex -0.30919299411815071 -0.68160730105783518 0.22997083521075604
      vertex 0.071435577278173124 -0.75985577553922512 0.22846476311669275
      vertex -0.16466929956086432 -0.56063298729649558 0.19654460124614348
    endloop
  endfacet
  facet normal 0.026514584121190257 0.99168300614498528 -0.12594360703158247
    outer loop
      vertex -0.030989457715940919 -0.47434569438635604 0.046206845445284452
      vertex 0.09949564560316386 -0.50042462854474656 -0.13166861884180314
      vertex -0.13590800371017817 -0.49411297759900363 -0.13152945241746838
    endloop
  endfacet
  facet normal 0.0011589593637381726 0.42741580192679213 -0.90405441709914258
    outer loop
      vertex 0.19530192088260864 -0.60448470208930405 -0.21059072130413098
      vertex 0.40094990839642203 -0.64362369059723412 -0.22883108846241565
      vertex -0.31561343923552476 -0.6441452847532444 -0.22999628976667028
    endloop
  endfacet
  facet normal 0.0016903579776591387 -0.09933355525824189 -0.99505275613389721
    outer loop
      vertex -0.31561343923552476 -0.6441452847532444 -0.22999628976667028
      vertex 0.40094990839642203 -0.64362369059723412 -0.22883108846241565
      vertex -0.038388638170844334 -0.80451109631996498 -0.21351644459484936
    endloop
  endfacet
  facet normal -0.056644999692920084 -0.8585742682636317 -0.50955036049968461
    outer loop
      vertex 0.064448900808341494 -0.86817094800943717 -0.16393141127054356
      vertex -0.0038787899418757672 -0.93356820879257452 -0.046143588912739168
      vertex -0.17623456441251625 -0.89715366709796274 -0.088340587216418506
    endloop
  endfacet
  facet normal 0.010650664486943228 -0.98220666479176577 0.18750101595624011
    outer loop
      vertex -0.0038787899418757672 -0.93356820879257452 -0.046143588912739168
      vertex 0.17980038637310364 -0.91409383482538553 0.045437539517300528
      vertex -0.12284785569505478 -0.90910850771971219 0.088744112293874841
    endloop
  endfacet
  facet normal 0.060719454899745791 -0.85062225712982031 0.52225944076871189
    outer loop
      vertex -0.12284785569505478 -0.90910850771971219 0.088744112293874841
      vertex 0.17980038637310364 -0.91409383482538553 0.045437539517300528
      vertex 0.21801281054095034 -0.83898237492913641 0.1633315155395767
    endloop
  endfacet
  facet normal 0.02754979648976846 -0.78804145481883603 0.61500542615523701
    outer loop
      vertex -0.12284785569505478 -0.90910850771971219 0.088744112293874841
      vertex 0.21801281054095034 -0.83898237492913641 0.1633315155395767
      vertex -0.17721657956736409 -0.85233135558270667 0.16393141127054256
    endloop
  endfacet
  facet normal 0.021836486639577539 -0.61095956856235856 0.79136058369957762
    outer loop
      vertex -0.17721657956736409 -0.85233135558270667 0.16393141127054256
      vertex 0.21801281054095034 -0.83898237492913641 0.1633315155395767
      vertex 0.071435577278173124 -0.75985577553922512 0.22846476311669275
    endloop
  endfacet
  facet normal -0.03455516777953855 0.11805430460220782 0.99240572426030316
    outer loop
      vertex 0.071435577278173124 -0.75985577553922512 0.22846476311669275
      vertex 0.2846000981181856 -0.55717383964419653 0.21177648854271289
      vertex -0.16466929956086432 -0.56063298729649558 0.19654460124614348
    endloop
  endfacet
  facet normal -0.029232101317166248 0.71333604247061477 0.70021223551502176
    outer loop
      vertex -0.16466929956086432 -0.56063298729649558 0.19654460124614348
      vertex 0.2846000981181856 -0.55717383964419653 0.21177648854271289
      vertex 0.17716525589567622 -0.51263766279667955 0.16192045267046851
    endloop
  endfacet
  facet normal -0.080810114811861802 0.89379193345698682 0.44114136626631906
    outer loop
      vertex -0.16466929956086432 -0.56063298729649558 0.19654460124614348
      vertex 0.17716525589567622 -0.51263766279667955 0.16192045267046851
      vertex -0.030989457715940919 -0.47434569438635604 0.046206845445284452
    endloop
  endfacet
  facet normal 0.015982754770282208 0.61351206009910075 -0.78952359284755413
    outer loop
      vertex -0.13590800371017817 -0.49411297759900363 -0.13152945241746838
      vertex 0.09949564560316386 -0.50042462854474656 -0.13166861884180314
      vertex 0.19530192088260864 -0.60448470208930405 -0.21059072130413098
    endloop
  endfacet
  facet normal -0.16180742820072355 0.81256224101916286 0.55996514235172135
    outer loop
      vertex 0.17716525589567622 -0.51263766279667955 0.16192045267046851
      vertex 0.21033518956167058 -0.42629015037232387 0.046206845445284556
      vertex -0.030989457715940919 -0.47434569438635604 0.046206845445284452
    endloop
  endfacet
  facet normal -0.18771688834806144 0.94267399939159924 -0.2759132122606105
    outer loop
      vertex -0.030989457715940919 -0.47434569438635604 0.046206845445284452
      vertex 0.21033518956167058 -0.42629015037232387 0.046206845445284556
      vertex 0.09949564560316386 -0.50042462854474656 -0.13166861884180314
    endloop
  endfacet
  facet normal 0.16331821403286775 -0.89970714515150152 -0.40478909808497732
    outer loop
      vertex 0.064448900808341494 -0.86817094800943717 -0.16393141127054356
      vertex 0.33156765036346814 -0.8344976024081856 -0.13100264037109594
      vertex -0.0038787899418757672 -0.93356820879257452 -0.046143588912739168
    endloop
  endfacet
  facet normal 0.21914149553539702 -0.94613799011201438 -0.23832731400598536
    outer loop
      vertex -0.0038787899418757672 -0.93356820879257452 -0.046143588912739168
      vertex 0.33156765036346814 -0.8344976024081856 -0.13100264037109594
      vertex 0.17980038637310364 -0.91409383482538553 0.045437539517300528
    endloop
  endfacet
  facet normal 0.30861135168485859 -0.84437773813405803 0.43793295029588331
    outer loop
      vertex 0.17980038637310364 -0.91409383482538553 0.045437539517300528
      vertex 0.45371284813247842 -0.81806433060214201 0.037565742032317224
      vertex 0.21801281054095034 -0.83898237492913641 0.1633315155395767
    endloop
  endfacet
  facet normal -0.39793116540633089 0.90808525039730537 -0.13050657304987481
    outer loop
      vertex 0.21033518956167058 -0.42629015037232387 0.046206845445284556
      vertex 0.30890937078014324 -0.40854737869678887 -0.13090139524607136
      vertex 0.09949564560316386 -0.50042462854474656 -0.13166861884180314
    endloop
  endfacet
  facet normal 0.15097797398292634 -0.49379542255453474 -0.85637125829642324
    outer loop
      vertex -0.038388638170844334 -0.80451109631996498 -0.21351644459484936
      vertex 0.40094990839642203 -0.64362369059723412 -0.22883108846241565
      vertex 0.33156765036346814 -0.8344976024081856 -0.13100264037109594
    endloop
  endfacet
  facet normal 0.16353525365972235 -0.42811625059784819 -0.88880408234013575
    outer loop
      vertex -0.038388638170844334 -0.80451109631996498 -0.21351644459484936
      vertex 0.33156765036346814 -0.8344976024081856 -0.13100264037109594
      vertex 0.064448900808341494 -0.86817094800943717 -0.16393141127054356
    endloop
  endfacet
  facet normal 0.32374870488268492 -0.93521012242206736 -0.14341827988818534
    outer loop
      vertex 0.33156765036346814 -0.8344976024081856 -0.13100264037109594
      vertex 0.45371284813247842 -0.81806433060214201 0.037565742032317224
      vertex 0.17980038637310364 -0.91409383482538553 0.045437539517300528
    endloop
  endfacet
  facet normal 0.37199650619418517 -0.72781446316712384 0.57611171363206193
    outer loop
      vertex 0.45371284813247842 -0.81806433060214201 0.037565742032317224
      vertex 0.56831730976502726 -0.65946181936822512 0.16393141127054411
      vertex 0.21801281054095034 -0.83898237492913641 0.1633315155395767
    endloop
  endfacet
  facet normal 0.25656947432525012 -0.50340976618986966 0.82507618566355756
    outer loop
      vertex 0.21801281054095034 -0.83898237492913641 0.1633315155395767
      vertex 0.56831730976502726 -0.65946181936822512 0.16393141127054411
      vertex 0.51484209729560826 -0.60653599413138859 0.21285232931659076
    endloop
  endfacet
  facet normal 0.17427585722445607 -0.41298639417212468 0.89390724564542345
    outer loop
      vertex 0.21801281054095034 -0.83898237492913641 0.1633315155395767
      vertex 0.51484209729560826 -0.60653599413138859 0.21285232931659076
      vertex 0.071435577278173124 -0.75985577553922512 0.22846476311669275
    endloop
  endfacet
  facet normal 0.076622907621988062 -0.12081455146433888 0.98971348085292998
    outer loop
      vertex 0.071435577278173124 -0.75985577553922512 0.22846476311669275
      vertex 0.51484209729560826 -0.60653599413138859 0.21285232931659076
      vertex 0.60675749543079149 -0.40773595579481819 0.23000387138485345
    endloop
  endfacet
  facet normal -0.17556750108793093 0.26276538318085441 0.94875202553857996
    outer loop
      vertex 0.071435577278173124 -0.75985577553922512 0.22846476311669275
      vertex 0.60675749543079149 -0.40773595579481819 0.23000387138485345
      vertex 0.2846000981181856 -0.55717383964419653 0.21177648854271289
    endloop
  endfacet
  facet normal -0.20178775730726722 0.46711888839147647 -0.86086099058373811
    outer loop
      vertex 0.09949564560316386 -0.50042462854474656 -0.13166861884180314
      vertex 0.30890937078014324 -0.40854737869678887 -0.13090139524607136
      vertex 0.19530192088260864 -0.60448470208930405 -0.21059072130413098
    endloop
  endfacet
  facet normal 0.42499421110304009 -0.87744668681748517 -0.22241230254174921
    outer loop
      vertex 0.33156765036346814 -0.8344976024081856 -0.13100264037109594
      vertex 0.50976678619579907 -0.75900009734689633 -0.088340587216418132
      vertex 0.45371284813247842 -0.81806433060214201 0.037565742032317224
    endloop
  endfacet
  facet normal 0.51363848803177947 -0.73016175085747892 0.4505988473100751
    outer loop
      vertex 0.45371284813247842 -0.81806433060214201 0.037565742032317224
      vertex 0.64645923510303827 -0.65089195094672192 0.088744112293874799
      vertex 0.56831730976502726 -0.65946181936822512 0.16393141127054411
    endloop
  endfacet
  facet normal -0.25590521036298863 0.37846937919450024 0.88953552617149811
    outer loop
      vertex 0.2846000981181856 -0.55717383964419653 0.21177648854271289
      vertex 0.40974844367196794 -0.35537461097076545 0.16192045267046873
      vertex 0.17716525589567622 -0.51263766279667955 0.16192045267046851
    endloop
  endfacet
  facet normal -0.50933673696329718 0.75328031956058961 0.41610677541020286
    outer loop
      vertex 0.17716525589567622 -0.51263766279667955 0.16192045267046851
      vertex 0.40974844367196794 -0.35537461097076545 0.16192045267046873
      vertex 0.21033518956167058 -0.42629015037232387 0.046206845445284556
    endloop
  endfacet
  facet normal 0.32373007160927431 -0.52209234607974508 -0.78906173579815775
    outer loop
      vertex 0.40094990839642203 -0.64362369059723412 -0.22883108846241565
      vertex 0.61757364474555509 -0.60829581974347957 -0.16333151553957526
      vertex 0.33156765036346814 -0.8344976024081856 -0.13100264037109594
    endloop
  endfacet
  facet normal 0.42245618020496767 -0.62760851304773435 -0.65394061668980297
    outer loop
      vertex 0.33156765036346814 -0.8344976024081856 -0.13100264037109594
      vertex 0.61757364474555509 -0.60829581974347957 -0.16333151553957526
      vertex 0.50976678619579907 -0.75900009734689633 -0.088340587216418132
    endloop
  endfacet
  facet normal 0.6467606665715977 -0.76104467772658302 0.050116251654566152
    outer loop
      vertex 0.45371284813247842 -0.81806433060214201 0.037565742032317224
      vertex 0.70172828921496444 -0.61275861962206202 -0.045437539517301395
      vertex 0.64645923510303827 -0.65089195094672192 0.088744112293874799
    endloop
  endfacet
  facet normal -0.54455276664964369 0.63251229355060912 0.55080893496889349
    outer loop
      vertex 0.40974844367196794 -0.35537461097076545 0.16192045267046873
      vertex 0.38934768331584757 -0.27102272888652557 0.044887324114311011
      vertex 0.21033518956167058 -0.42629015037232387 0.046206845445284556
    endloop
  endfacet
  facet normal -0.6305052286335816 0.72456308345765319 -0.27833701650346993
    outer loop
      vertex 0.21033518956167058 -0.42629015037232387 0.046206845445284556
      vertex 0.38934768331584757 -0.27102272888652557 0.044887324114311011
      vertex 0.30890937078014324 -0.40854737869678887 -0.13090139524607136
    endloop
  endfacet
  facet normal 0.60185164372354227 -0.65668241005763928 -0.45446981337395886
    outer loop
      vertex 0.61757364474555509 -0.60829581974347957 -0.16333151553957526
      vertex 0.70172828921496444 -0.61275861962206202 -0.045437539517301395
      vertex 0.50976678619579907 -0.75900009734689633 -0.088340587216418132
    endloop
  endfacet
  facet normal 0.61639839004193919 -0.7819921039898079 -0.092419554485501015
    outer loop
      vertex 0.50976678619579907 -0.75900009734689633 -0.088340587216418132
      vertex 0.70172828921496444 -0.61275861962206202 -0.045437539517301395
      vertex 0.45371284813247842 -0.81806433060214201 0.037565742032317224
    endloop
  endfacet
  facet normal -0.11740300564978962 0.13305952567015061 0.9841299187062803
    outer loop
      vertex 0.60675749543079149 -0.40773595579481819 0.23000387138485345
      vertex 0.52421519167463304 -0.26481281757184189 0.20083292658601171
      vertex 0.2846000981181856 -0.55717383964419653 0.21177648854271289
    endloop
  endfacet
  facet normal -0.61587852918220876 0.52669699570858675 0.58590435397247909
    outer loop
      vertex 0.2846000981181856 -0.55717383964419653 0.21177648854271289
      vertex 0.52421519167463304 -0.26481281757184189 0.20083292658601171
      vertex 0.40974844367196794 -0.35537461097076545 0.16192045267046873
    endloop
  endfacet
  facet normal -0.79523355910286952 0.59740697667443354 -0.1034818375237689
    outer loop
      vertex 0.38934768331584757 -0.27102272888652557 0.044887324114311011
      vertex 0.48675504650336721 -0.17205447719496034 -0.13231556017359861
      vertex 0.30890937078014324 -0.40854737869678887 -0.13090139524607136
    endloop
  endfacet
  facet normal -0.54420541528924471 0.56701815215028395 -0.61832910420094089
    outer loop
      vertex 0.30890937078014324 -0.40854737869678887 -0.13090139524607136
      vertex 0.57090500640445907 -0.24560968416975773 -0.212073076930725
      vertex 0.19530192088260864 -0.60448470208930405 -0.21059072130413098
    endloop
  endfacet
  facet normal -0.088026832287027137 0.088031555407240669 -0.99222060150457136
    outer loop
      vertex 0.19530192088260864 -0.60448470208930405 -0.21059072130413098
      vertex 0.57090500640445907 -0.24560968416975773 -0.212073076930725
      vertex 0.63777793885692935 -0.38504037885113546 -0.23037637894472313
    endloop
  endfacet
  facet normal -0.076121714794543077 0.063770949953965386 -0.99505715940276873
    outer loop
      vertex 0.19530192088260864 -0.60448470208930405 -0.21059072130413098
      vertex 0.63777793885692935 -0.38504037885113546 -0.23037637894472313
      vertex 0.40094990839642203 -0.64362369059723412 -0.22883108846241565
    endloop
  endfacet
  facet normal 0.32052742406930873 -0.29893204246319005 -0.89883357992916524
    outer loop
      vertex 0.40094990839642203 -0.64362369059723412 -0.22883108846241565
      vertex 0.63777793885692935 -0.38504037885113546 -0.23037637894472313
      vertex 0.61757364474555509 -0.60829581974347957 -0.16333151553957526
    endloop
  endfacet
  facet normal 0.817986361998851 -0.54404318483298553 0.18685642782807005
    outer loop
      vertex 0.70172828921496444 -0.61275861962206202 -0.045437539517301395
      vertex 0.83641107839930107 -0.41025873023814441 -0.045437539517300903
      vertex 0.80141683507102379 -0.40281294062270934 0.12943278882400291
    endloop
  endfacet
  facet normal 0.81990675462388429 -0.54225370876575052 0.1836132594665163
    outer loop
      vertex 0.70172828921496444 -0.61275861962206202 -0.045437539517301395
      vertex 0.80141683507102379 -0.40281294062270934 0.12943278882400291
      vertex 0.64645923510303827 -0.65089195094672192 0.088744112293874799
    endloop
  endfacet
  facet normal 0.63090334630094225 -0.49241960574660171 0.59956976199824707
    outer loop
      vertex 0.64645923510303827 -0.65089195094672192 0.088744112293874799
      vertex 0.80141683507102379 -0.40281294062270934 0.12943278882400291
      vertex 0.56831730976502726 -0.65946181936822512 0.16393141127054411
    endloop
  endfacet
  facet normal 0.45706406938857713 -0.30270496699478744 0.8363385315950943
    outer loop
      vertex 0.56831730976502726 -0.65946181936822512 0.16393141127054411
      vertex 0.80141683507102379 -0.40281294062270934 0.12943278882400291
      vertex 0.76919119759130705 -0.22030991242861434 0.21309957145759301
    endloop
  endfacet
  facet normal 0.46127695988987666 -0.30430736439081718 0.83343901651666608
    outer loop
      vertex 0.56831730976502726 -0.65946181936822512 0.16393141127054411
      vertex 0.76919119759130705 -0.22030991242861434 0.21309957145759301
      vertex 0.51484209729560826 -0.60653599413138859 0.21285232931659076
    endloop
  endfacet
  facet normal 0.38677385957464794 -0.25527709906834484 0.8861374522279154
    outer loop
      vertex 0.51484209729560826 -0.60653599413138859 0.21285232931659076
      vertex 0.76919119759130705 -0.22030991242861434 0.21309957145759301
      vertex 0.60675749543079149 -0.40773595579481819 0.23000387138485345
    endloop
  endfacet
  facet normal -0.46756727471867637 0.34675438735139857 -0.81310653574098524
    outer loop
      vertex 0.30890937078014324 -0.40854737869678887 -0.13090139524607136
      vertex 0.48675504650336721 -0.17205447719496034 -0.13231556017359861
      vertex 0.57090500640445907 -0.24560968416975773 -0.212073076930725
    endloop
  endfacet
  facet normal 0.43034912956984117 -0.29512303956762709 -0.85305452240454427
    outer loop
      vertex 0.63777793885692935 -0.38504037885113546 -0.23037637894472313
      vertex 0.80287952807259488 -0.25791377182567454 -0.19106665881128559
      vertex 0.61757364474555509 -0.60829581974347957 -0.16333151553957526
    endloop
  endfacet
  facet normal 0.69245403490069535 -0.41304032237513261 -0.59152776912161376
    outer loop
      vertex 0.61757364474555509 -0.60829581974347957 -0.16333151553957526
      vertex 0.80287952807259488 -0.25791377182567454 -0.19106665881128559
      vertex 0.83641107839930107 -0.41025873023814441 -0.045437539517300903
    endloop
  endfacet
  facet normal 0.70915390617531049 -0.47165865786514016 -0.52405996585997061
    outer loop
      vertex 0.61757364474555509 -0.60829581974347957 -0.16333151553957526
      vertex 0.83641107839930107 -0.41025873023814441 -0.045437539517300903
      vertex 0.70172828921496444 -0.61275861962206202 -0.045437539517301395
    endloop
  endfacet
  facet normal -0.54756806500034194 0.36952613022539377 0.7507460644401851
    outer loop
      vertex 0.40974844367196794 -0.35537461097076545 0.16192045267046873
      vertex 0.52421519167463304 -0.26481281757184189 0.20083292658601171
      vertex 0.48314092308679141 -0.095049593543326594 0.087315308527845165
    endloop
  endfacet
  facet normal -0.84475049414756032 0.35334341010152021 0.40192665646269554
    outer loop
      vertex 0.40974844367196794 -0.35537461097076545 0.16192045267046873
      vertex 0.48314092308679141 -0.095049593543326594 0.087315308527845165
      vertex 0.38934768331584757 -0.27102272888652557 0.044887324114311011
    endloop
  endfacet
  facet normal 0.93408863465298686 -0.31486202091522397 0.1683458654000739
    outer loop
      vertex 0.83641107839930107 -0.41025873023814441 -0.045437539517300903
      vertex 0.91409383482538475 -0.1798003863731073 -0.045437539517300007
      vertex 0.90910850771971285 -0.12284785569505512 0.088744112293873426
    endloop
  endfacet
  facet normal 0.92403460080274669 -0.32654504679571955 0.19881747642621814
    outer loop
      vertex 0.83641107839930107 -0.41025873023814441 -0.045437539517300903
      vertex 0.90910850771971285 -0.12284785569505512 0.088744112293873426
      vertex 0.80141683507102379 -0.40281294062270934 0.12943278882400291
    endloop
  endfacet
  facet normal 0.75820062536398491 -0.20152886109530993 0.62009509741916979
    outer loop
      vertex 0.80141683507102379 -0.40281294062270934 0.12943278882400291
      vertex 0.90910850771971285 -0.12284785569505512 0.088744112293873426
      vertex 0.84098093046511047 -0.052823822454831491 0.19480241790037411
    endloop
  endfacet
  facet normal 0.6690493073375462 -0.20885359365414785 0.71326937461866236
    outer loop
      vertex 0.80141683507102379 -0.40281294062270934 0.12943278882400291
      vertex 0.84098093046511047 -0.052823822454831491 0.19480241790037411
      vertex 0.76919119759130705 -0.22030991242861434 0.21309957145759301
    endloop
  endfacet
  facet normal -0.86546730560405005 0.38360870483189752 0.32219668605940077
    outer loop
      vertex 0.48314092308679141 -0.095049593543326594 0.087315308527845165
      vertex 0.47638287305933036 0.0018661628310885159 -0.046226099533269213
      vertex 0.38934768331584757 -0.27102272888652557 0.044887324114311011
    endloop
  endfacet
  facet normal -0.89936558086583773 0.14969326090250398 -0.41077180963915866
    outer loop
      vertex 0.38934768331584757 -0.27102272888652557 0.044887324114311011
      vertex 0.47638287305933036 0.0018661628310885159 -0.046226099533269213
      vertex 0.48675504650336721 -0.17205447719496034 -0.13231556017359861
    endloop
  endfacet
  facet normal 0.82949190135740425 -0.27960461856088009 -0.48349192636682475
    outer loop
      vertex 0.80287952807259488 -0.25791377182567454 -0.19106665881128559
      vertex 0.91409383482538475 -0.1798003863731073 -0.045437539517300007
      vertex 0.83641107839930107 -0.41025873023814441 -0.045437539517300903
    endloop
  endfacet
  facet normal -0.28917799314352483 0.028288026170084767 0.95685729127016861
    outer loop
      vertex 0.60675749543079149 -0.40773595579481819 0.23000387138485345
      vertex 0.6593357177520357 0.12876404808585074 0.23003306974508902
      vertex 0.52421519167463304 -0.26481281757184189 0.20083292658601171
    endloop
  endfacet
  facet normal -0.57002397334117505 0.13557492220986334 0.81036541774938098
    outer loop
      vertex 0.52421519167463304 -0.26481281757184189 0.20083292658601171
      vertex 0.6593357177520357 0.12876404808585074 0.23003306974508902
      vertex 0.54102370038004288 0.038448105822121291 0.16192045267046928
    endloop
  endfacet
  facet normal -0.87080420835097838 0.10975575902785069 0.47922197787501997
    outer loop
      vertex 0.52421519167463304 -0.26481281757184189 0.20083292658601171
      vertex 0.54102370038004288 0.038448105822121291 0.16192045267046928
      vertex 0.48314092308679141 -0.095049593543326594 0.087315308527845165
    endloop
  endfacet
  facet normal 0.99606479279092375 -0.062006436656348661 0.063325590210880744
    outer loop
      vertex 0.91409383482538475 -0.1798003863731073 -0.045437539517300007
      vertex 0.92638064425958733 0.11202821700588925 0.047049455033973273
      vertex 0.90910850771971285 -0.12284785569505512 0.088744112293873426
    endloop
  endfacet
  facet normal 0.11659974904333248 -0.011481089922432143 0.99311262357157892
    outer loop
      vertex 0.76919119759130705 -0.22030991242861434 0.21309957145759301
      vertex 0.6593357177520357 0.12876404808585074 0.23003306974508902
      vertex 0.60675749543079149 -0.40773595579481819 0.23000387138485345
    endloop
  endfacet
  facet normal -0.66242677385748305 0.052458844778891289 -0.7472876547095042
    outer loop
      vertex 0.48675504650336721 -0.17205447719496034 -0.13231556017359861
      vertex 0.60244709613352854 0.1526896841830585 -0.21207307693072486
      vertex 0.57090500640445907 -0.24560968416975773 -0.212073076930725
    endloop
  endfacet
  facet normal -0.30745971996816013 0.024348324014212164 -0.95124953598664086
    outer loop
      vertex 0.57090500640445907 -0.24560968416975773 -0.212073076930725
      vertex 0.60244709613352854 0.1526896841830585 -0.21207307693072486
      vertex 0.66788678024248971 0.27868616383128297 -0.22999925002697169
    endloop
  endfacet
  facet normal -0.24157854334045697 0.011510136547334194 -0.97031300318720082
    outer loop
      vertex 0.57090500640445907 -0.24560968416975773 -0.212073076930725
      vertex 0.66788678024248971 0.27868616383128297 -0.22999925002697169
      vertex 0.63777793885692935 -0.38504037885113546 -0.23037637894472313
    endloop
  endfacet
  facet normal 0.20097825776908293 -0.0085604572953938453 -0.97955829763980762
    outer loop
      vertex 0.63777793885692935 -0.38504037885113546 -0.23037637894472313
      vertex 0.66788678024248971 0.27868616383128297 -0.22999925002697169
      vertex 0.82141783403251822 0.13765894973647957 -0.1972664752394232
    endloop
  endfacet
  facet normal 0.25111411993155264 -0.02693326657168231 -0.96758270856954687
    outer loop
      vertex 0.63777793885692935 -0.38504037885113546 -0.23037637894472313
      vertex 0.82141783403251822 0.13765894973647957 -0.1972664752394232
      vertex 0.80287952807259488 -0.25791377182567454 -0.19106665881128559
    endloop
  endfacet
  facet normal 0.77388909333480149 -0.046167543893982595 -0.63163615247089522
    outer loop
      vertex 0.80287952807259488 -0.25791377182567454 -0.19106665881128559
      vertex 0.82141783403251822 0.13765894973647957 -0.1972664752394232
      vertex 0.90910850771971219 0.12284785569505505 -0.088744112293875452
    endloop
  endfacet
  facet normal 0.8105301595764427 -0.069858977639938882 -0.58151576389646464
    outer loop
      vertex 0.80287952807259488 -0.25791377182567454 -0.19106665881128559
      vertex 0.90910850771971219 0.12284785569505505 -0.088744112293875452
      vertex 0.91409383482538475 -0.1798003863731073 -0.045437539517300007
    endloop
  endfacet
  facet normal 0.99198888676342378 -0.0017340448964549377 -0.12631326781522267
    outer loop
      vertex 0.91409383482538475 -0.1798003863731073 -0.045437539517300007
      vertex 0.90910850771971219 0.12284785569505505 -0.088744112293875452
      vertex 0.92638064425958733 0.11202821700588925 0.047049455033973273
    endloop
  endfacet
endsolid standard_w_0e_00
